<?xml version="1.0" standalone="no"?>
<!DOCTYPE svg PUBLIC "-//W3C//DTD SVG 20010904//EN"
 "http://www.w3.org/TR/2001/REC-SVG-20010904/DTD/svg10.dtd">
<svg version="1.0" xmlns="http://www.w3.org/2000/svg"
 width="1024.000000pt" height="1024.000000pt" viewBox="0 0 1024.000000 1024.000000"
 preserveAspectRatio="xMidYMid meet">
<metadata>
Created by potrace 1.11, written by Peter Selinger 2001-2013
</metadata>
<g transform="translate(0.000000,1024.000000) scale(0.100000,-0.100000)"
fill="#000000" stroke="none">
<path d="M4877 10234 c-2 -2 -35 -6 -73 -8 -38 -3 -91 -8 -119 -12 -27 -3 -63
-7 -80 -9 -16 -1 -41 -5 -55 -8 -14 -4 -41 -9 -60 -11 -124 -18 -339 -72 -498
-127 -81 -27 -151 -51 -157 -52 -5 -2 -32 -13 -59 -25 -27 -12 -50 -22 -52
-22 -2 0 -51 -22 -109 -50 -125 -59 -263 -136 -364 -202 -41 -26 -75 -48 -77
-48 -2 0 -12 -6 -21 -14 -10 -8 -58 -45 -107 -82 -49 -37 -97 -74 -106 -83
-10 -9 -43 -38 -75 -66 -121 -104 -279 -272 -391 -415 -52 -67 -175 -243 -187
-270 -4 -8 -21 -37 -37 -65 -93 -154 -212 -420 -264 -590 -15 -49 -30 -97 -33
-105 -8 -19 -7 -18 -32 -128 -12 -51 -24 -110 -27 -130 -3 -20 -7 -44 -9 -52
-2 -8 -7 -37 -11 -65 -3 -27 -8 -53 -9 -56 -10 -16 -20 -218 -20 -404 1 -192
7 -335 20 -433 2 -20 7 -57 10 -82 3 -25 8 -63 11 -85 6 -44 61 -368 68 -400
2 -11 14 -67 26 -125 17 -81 109 -455 135 -550 51 -183 115 -398 161 -540 20
-63 37 -119 39 -125 1 -5 5 -17 8 -25 23 -57 75 -220 70 -220 -3 0 -1 -6 5
-12 5 -7 29 -69 52 -138 24 -69 47 -129 51 -135 5 -5 9 -15 9 -22 0 -11 138
-384 170 -458 4 -11 27 -69 50 -130 23 -60 46 -114 51 -119 5 -6 9 -16 9 -23
0 -7 11 -36 24 -65 13 -29 38 -89 56 -133 18 -44 38 -93 45 -110 53 -127 71
-167 92 -215 14 -30 31 -71 40 -90 8 -19 20 -48 28 -65 7 -16 20 -46 28 -65
27 -63 118 -262 127 -279 9 -15 42 -90 45 -101 0 -3 9 -19 18 -37 9 -18 17
-39 17 -48 0 -8 4 -15 9 -15 5 0 13 -10 17 -22 3 -13 53 -119 110 -237 57
-117 104 -217 104 -221 0 -5 3 -10 8 -12 4 -1 36 -61 71 -133 35 -71 84 -167
108 -212 24 -45 44 -86 44 -90 0 -4 6 -15 13 -23 8 -8 36 -58 63 -110 42 -80
120 -221 199 -357 97 -168 270 -436 285 -441 5 -2 9 -8 9 -14 0 -16 77 -107
158 -186 119 -116 254 -186 415 -215 118 -22 340 -16 445 12 46 12 91 26 100
30 9 5 42 21 72 36 89 45 173 114 252 206 71 83 80 94 96 121 9 16 20 28 24
28 4 0 8 7 8 15 0 8 5 15 10 15 6 0 10 6 10 14 0 8 4 16 8 18 8 3 97 143 192
303 29 50 64 106 77 126 13 19 23 38 23 41 0 3 22 43 48 89 27 46 69 122 94
169 25 47 62 117 83 155 72 133 305 595 300 595 -2 0 9 23 25 50 17 28 30 54
30 57 0 3 24 56 54 117 30 61 65 136 79 166 13 30 43 94 66 143 22 48 41 89
41 91 0 4 52 119 90 201 16 35 40 90 45 105 5 16 30 72 55 128 17 35 30 65 30
68 0 2 9 23 19 47 24 52 101 238 105 252 1 6 12 32 24 59 12 27 22 52 22 55 0
4 9 25 19 47 10 21 51 122 89 224 39 102 76 199 83 215 7 17 13 35 15 40 1 6
25 70 53 144 28 74 55 148 60 165 5 17 30 90 56 161 26 72 48 137 50 145 2 8
22 71 45 139 23 68 43 129 44 135 1 6 12 43 24 81 46 144 89 288 97 320 2 11
16 61 30 110 14 50 27 99 29 110 3 11 5 20 7 20 1 0 3 9 5 20 2 11 7 36 13 55
10 35 68 277 75 315 3 11 12 53 20 92 9 40 18 87 21 105 3 18 8 40 10 48 2 8
6 31 9 50 3 19 7 44 10 55 2 11 7 40 10 65 3 25 8 56 11 70 7 31 16 94 20 140
2 19 4 35 5 35 2 0 7 55 15 160 3 50 8 104 10 120 5 38 5 385 0 445 -11 131
-28 266 -40 320 -3 14 -8 37 -10 53 -3 15 -7 39 -9 55 -3 15 -17 70 -31 122
-15 52 -28 103 -30 113 -2 9 -7 22 -10 27 -3 5 -8 18 -10 28 -18 96 -236 578
-267 590 -4 2 -8 8 -8 13 0 29 -227 347 -331 464 -134 150 -328 330 -453 420
-16 11 -33 25 -40 30 -47 42 -356 235 -375 235 -5 0 -11 3 -13 8 -4 9 -219
112 -235 112 -7 0 -13 5 -13 10 0 6 -8 10 -18 10 -10 0 -23 5 -30 12 -7 7 -12
9 -12 5 0 -4 -10 -2 -22 5 -59 32 -383 135 -488 154 -14 2 -52 11 -85 19 -33
7 -82 16 -109 20 -27 3 -52 8 -55 9 -7 5 -90 15 -246 33 -52 5 -563 12 -568 7z
m383 -2038 c19 -3 52 -8 72 -10 69 -8 222 -57 315 -101 77 -36 195 -105 213
-125 3 -3 22 -18 43 -33 89 -67 207 -205 284 -332 15 -25 75 -147 79 -160 1
-5 12 -34 23 -64 11 -29 22 -66 25 -82 2 -15 7 -32 10 -37 3 -5 8 -29 10 -53
3 -24 9 -57 14 -74 15 -54 6 -317 -14 -407 -2 -10 -6 -28 -9 -40 -9 -43 -58
-183 -82 -235 -97 -213 -257 -396 -458 -525 -68 -44 -211 -115 -244 -122 -9
-2 -23 -6 -31 -9 -28 -11 -125 -36 -165 -42 -22 -3 -53 -9 -70 -11 -52 -9
-248 -10 -300 -2 -27 4 -68 10 -90 14 -222 32 -482 171 -657 351 -67 68 -158
185 -158 202 0 5 -4 11 -8 13 -23 9 -130 257 -148 342 -36 168 -45 300 -30
446 7 69 21 155 26 155 2 0 7 19 15 58 6 31 36 111 65 174 11 24 20 46 20 49
0 4 10 21 23 38 12 17 29 43 36 58 16 31 104 143 154 197 147 156 427 313 607
341 3 1 23 5 45 10 22 5 65 12 95 16 30 3 56 7 57 8 5 5 199 -2 233 -8z"/>
</g>
</svg>
