<?xml version="1.0" encoding="UTF-8" standalone="no"?>
<!-- Generator: Adobe Illustrator 19.0.0, SVG Export Plug-In . SVG Version: 6.00 Build 0)  -->

<svg
   xmlns:dc="http://purl.org/dc/elements/1.1/"
   xmlns:cc="http://creativecommons.org/ns#"
   xmlns:rdf="http://www.w3.org/1999/02/22-rdf-syntax-ns#"
   xmlns:svg="http://www.w3.org/2000/svg"
   xmlns="http://www.w3.org/2000/svg"
   xmlns:sodipodi="http://sodipodi.sourceforge.net/DTD/sodipodi-0.dtd"
   xmlns:inkscape="http://www.inkscape.org/namespaces/inkscape"
   version="1.1"
   id="Layer_1"
   x="0px"
   y="0px"
   viewBox="0 0 400 400"
   xml:space="preserve"
   inkscape:version="0.91 r13725"
   sodipodi:docname="checkin-now.svg"
   width="400"
   height="400"><metadata
     id="metadata57"><rdf:RDF><cc:Work
         rdf:about=""><dc:format>image/svg+xml</dc:format><dc:type
           rdf:resource="http://purl.org/dc/dcmitype/StillImage" /><dc:title></dc:title></cc:Work></rdf:RDF></metadata><defs
     id="defs55" /><sodipodi:namedview
     pagecolor="#ffffff"
     bordercolor="#666666"
     borderopacity="1"
     objecttolerance="10"
     gridtolerance="10"
     guidetolerance="10"
     inkscape:pageopacity="0"
     inkscape:pageshadow="2"
     inkscape:window-width="1851"
     inkscape:window-height="1057"
     id="namedview53"
     showgrid="false"
     inkscape:zoom="0.46339295"
     inkscape:cx="254.64349"
     inkscape:cy="254.64349"
     inkscape:window-x="1912"
     inkscape:window-y="-8"
     inkscape:window-maximized="1"
     inkscape:current-layer="Layer_1" /><circle
     style="fill:#3298c1;fill-opacity:1"
     cx="200"
     cy="200"
     r="200"
     id="circle3" /><path
     style="fill:#7f8b8f;fill-opacity:1"
     d="m 318.77445,26.365442 c 0,-8.521701 -6.92418,-15.179624 -15.17962,-15.179624 l -207.190437,0 c -8.521701,0 -15.179623,6.924177 -15.179623,15.179624 l 0,334.486578 c 33.28883,24.50087 74.30059,39.14799 118.77523,39.14799 44.47464,0 85.75188,-14.64712 118.77445,-39.14799 l 0,-334.486578 z"
     id="path5"
     inkscape:connector-curvature="0" /><rect
     x="95.339378"
     y="340.08029"
     style="fill:#67acd6"
     width="209.58673"
     height="7.1904306"
     id="rect11" /><g
     id="g13"
     transform="matrix(0.78541023,0,0,0.78541023,0,7.9099997e-4)"><path
       style="fill:#646b79"
       d="m 276.344,33.907 -43.401,0 c -2.713,0 -4.747,2.034 -4.747,4.747 l 0,0 c 0,2.713 2.034,4.747 4.747,4.747 l 43.401,0 c 2.713,0 4.747,-2.034 4.747,-4.747 l 0,0 c 0,-2.373 -2.034,-4.747 -4.747,-4.747 z"
       id="path15"
       inkscape:connector-curvature="0" /><circle
       style="fill:#646b79"
       cx="254.644"
       cy="475.04099"
       r="21.701"
       id="circle17" /></g><g
     id="g23"
     transform="translate(0,-109.28699)" /><g
     id="g25"
     transform="translate(0,-109.28699)" /><g
     id="g27"
     transform="translate(0,-109.28699)" /><g
     id="g29"
     transform="translate(0,-109.28699)" /><g
     id="g31"
     transform="translate(0,-109.28699)" /><g
     id="g33"
     transform="translate(0,-109.28699)" /><g
     id="g35"
     transform="translate(0,-109.28699)" /><g
     id="g37"
     transform="translate(0,-109.28699)" /><g
     id="g39"
     transform="translate(0,-109.28699)" /><g
     id="g41"
     transform="translate(0,-109.28699)" /><g
     id="g43"
     transform="translate(0,-109.28699)" /><g
     id="g45"
     transform="translate(0,-109.28699)" /><g
     id="g47"
     transform="translate(0,-109.28699)" /><g
     id="g49"
     transform="translate(0,-109.28699)" /><g
     id="g51"
     transform="translate(0,-109.28699)" /><path
     inkscape:connector-curvature="0"
     d="m 94.5063,47.83983 209.70453,0 0,300.02672 -209.70453,0 0,-300.02672 z"
     id="path12"
     style="fill:#f3f4f4;fill-opacity:1;fill-rule:evenodd;stroke:none" /><path
     inkscape:connector-curvature="0"
     d="m 141.68981,239.85694 22.01898,0 0,28.50254 -22.01898,0 0,-28.50254 z"
     id="path14"
     style="fill:#7fc7ed;fill-opacity:1;fill-rule:evenodd;stroke:none" /><path
     inkscape:connector-curvature="0"
     d="m 168.9514,283.36081 27.26159,0 0,31.45331 -27.26159,0 0,-31.45331 z"
     id="path18"
     style="fill:#7fc7ed;fill-opacity:1;fill-rule:evenodd;stroke:none" /><path
     inkscape:connector-curvature="0"
     d="m 214.03787,88.343451 69.20252,0 0,121.510829 -69.20252,0 0,-121.510829 z"
     id="path22"
     style="fill:#83cdac;fill-opacity:1;fill-rule:evenodd;stroke:none" /><path
     inkscape:connector-curvature="0"
     d="m 94.5063,88.343451 14.67932,0 0,144.012819 -14.67932,0 0,-144.012819 z"
     id="path24"
     style="fill:#83cdac;fill-opacity:1;fill-rule:evenodd;stroke:none" /><path
     inkscape:connector-curvature="0"
     d="m 141.68981,322.36429 22.01898,0 0,25.50226 -22.01898,0 0,-25.50226 z"
     id="path26"
     style="fill:#83cdac;fill-opacity:1;fill-rule:evenodd;stroke:none" /><path
     inkscape:connector-curvature="0"
     d="m 208.79526,125.8468 -99.60964,0 0,-3.00026 99.60964,0 0,3.00026 z"
     id="path28"
     style="fill:#ececec;fill-opacity:1;fill-rule:evenodd;stroke:none" /><path
     inkscape:connector-curvature="0"
     d="m 168.9514,202.3536 -59.76578,0 0,-3.00026 59.76578,0 0,3.00026 z"
     id="path30"
     style="fill:#ececec;fill-opacity:1;fill-rule:evenodd;stroke:none" /><path
     inkscape:connector-curvature="0"
     d="m 187.82481,65.841424 -93.31851,0 0,-3.000259 93.31851,0 0,3.000259 z"
     id="path32"
     style="fill:#ececec;fill-opacity:1;fill-rule:evenodd;stroke:none" /><path
     inkscape:connector-curvature="0"
     d="m 141.68981,260.85882 -47.18351,0 0,-3.00027 47.18351,0 0,3.00027 z"
     id="path34"
     style="fill:#ececec;fill-opacity:1;fill-rule:evenodd;stroke:none" /><path
     inkscape:connector-curvature="0"
     d="m 168.9514,299.86229 -74.4451,0 0,-3.00027 74.4451,0 0,3.00027 z"
     id="path42"
     style="fill:#ececec;fill-opacity:1;fill-rule:evenodd;stroke:none" /><path
     inkscape:connector-curvature="0"
     d="m 283.24039,253.35815 -81.78479,0 0,-3.00027 81.78479,0 0,3.00027 z"
     id="path44"
     style="fill:#ececec;fill-opacity:1;fill-rule:evenodd;stroke:none" /><path
     inkscape:connector-curvature="0"
     d="m 185.72776,47.83983 2.09705,0 0,136.51217 -2.09705,0 0,-136.51217 z"
     id="path46"
     style="fill:#ececec;fill-opacity:1;fill-rule:evenodd;stroke:none" /><path
     inkscape:connector-curvature="0"
     d="m 185.72776,322.36429 2.09705,0 0,25.50226 -2.09705,0 0,-25.50226 z"
     id="path48"
     style="fill:#ececec;fill-opacity:1;fill-rule:evenodd;stroke:none" /><path
     inkscape:connector-curvature="0"
     d="m 304.21083,88.343451 -209.70453,0 0,-7.500676 209.70453,0 0,7.500676 z"
     id="path52"
     style="fill:#ffffff;fill-opacity:1;fill-rule:evenodd;stroke:none" /><path
     inkscape:connector-curvature="0"
     d="m 168.9514,239.85694 -74.4451,0 0,-7.50067 74.4451,0 0,7.50067 z"
     id="path54"
     style="fill:#ffffff;fill-opacity:1;fill-rule:evenodd;stroke:none" /><path
     inkscape:connector-curvature="0"
     d="m 288.48299,217.35493 -120.26556,0 0,-7.50065 120.26556,0 0,7.50065 z"
     id="path56"
     style="fill:#ffffff;fill-opacity:1;fill-rule:evenodd;stroke:none" /><path
     inkscape:connector-curvature="0"
     d="m 304.21083,322.36429 -209.70453,0 0,-7.50067 209.70453,0 0,7.50067 z"
     id="path58"
     style="fill:#ffffff;fill-opacity:1;fill-rule:evenodd;stroke:none" /><path
     inkscape:connector-curvature="0"
     d="m 304.21083,184.352 -140.50204,0 0,-7.50067 140.50204,0 0,7.50067 z"
     id="path60"
     style="fill:#ffffff;fill-opacity:1;fill-rule:evenodd;stroke:none" /><path
     inkscape:connector-curvature="0"
     d="m 109.18562,47.83983 5.24262,0 0,300.02672 -5.24262,0 0,-300.02672 z"
     id="path62"
     style="fill:#ffffff;fill-opacity:1;fill-rule:evenodd;stroke:none" /><path
     inkscape:connector-curvature="0"
     d="m 163.70879,47.83983 5.24261,0 0,300.02672 -5.24261,0 0,-300.02672 z"
     id="path66"
     style="fill:#ffffff;fill-opacity:1;fill-rule:evenodd;stroke:none" /><path
     inkscape:connector-curvature="0"
     d="m 208.79526,80.842775 5.24261,0 0,136.512155 -5.24261,0 0,-136.512155 z"
     id="path68"
     style="fill:#ffffff;fill-opacity:1;fill-rule:evenodd;stroke:none" /><path
     inkscape:connector-curvature="0"
     d="m 196.21299,217.35493 5.24261,0 0,105.00936 -5.24261,0 0,-105.00936 z"
     id="path70"
     style="fill:#ffffff;fill-opacity:1;fill-rule:evenodd;stroke:none" /><path
     inkscape:connector-curvature="0"
     d="m 131.20458,47.83983 10.48523,0 0,300.02672 -10.48523,0 0,-300.02672 z"
     id="path74"
     style="fill:#f5c519;fill-opacity:1;fill-rule:evenodd;stroke:none" /><path
     inkscape:connector-curvature="0"
     d="m 230.81425,47.83983 10.48521,0 0,300.02672 -10.48521,0 0,-300.02672 z"
     id="path76"
     style="fill:#f5c519;fill-opacity:1;fill-rule:evenodd;stroke:none" /><path
     inkscape:connector-curvature="0"
     d="m 304.21083,158.84971 -209.70453,0 0,-15.00132 209.70453,0 0,15.00132 z"
     id="path78"
     style="fill:#f5c519;fill-opacity:1;fill-rule:evenodd;stroke:none" /><path
     inkscape:connector-curvature="0"
     d="m 304.10598,283.36081 -162.41617,0 0,-15.00133 162.41617,0 0,15.00133 z"
     id="path80"
     style="fill:#f5c519;fill-opacity:1;fill-rule:evenodd;stroke:none" /><g
     id="g4273"
     transform="matrix(0.36594788,0,0,0.36594788,52.575995,88.525171)"><path
       id="path19"
       d="m 346.872,194.289 c 0,50.861 -92.228,173.944 -92.228,173.944 0,0 -92.228,-123.083 -92.228,-173.944 0,-50.861 41.367,-92.228 92.228,-92.228 50.861,0.339 92.228,41.367 92.228,92.228 z"
       style="fill:#f56e12;fill-opacity:1"
       inkscape:connector-curvature="0" /><circle
       id="circle21"
       r="50.521999"
       cy="194.289"
       cx="254.644"
       style="fill:#ffffff;fill-opacity:1" /></g></svg>