<?xml version="1.0" encoding="UTF-8" standalone="no"?>
<!-- Generator: Adobe Illustrator 16.0.0, SVG Export Plug-In . SVG Version: 6.00 Build 0)  -->

<svg
   xmlns:dc="http://purl.org/dc/elements/1.1/"
   xmlns:cc="http://creativecommons.org/ns#"
   xmlns:rdf="http://www.w3.org/1999/02/22-rdf-syntax-ns#"
   xmlns:svg="http://www.w3.org/2000/svg"
   xmlns="http://www.w3.org/2000/svg"
   xmlns:sodipodi="http://sodipodi.sourceforge.net/DTD/sodipodi-0.dtd"
   xmlns:inkscape="http://www.inkscape.org/namespaces/inkscape"
   version="1.1"
   id="Ebene_1"
   x="0px"
   y="0px"
   width="76"
   height="94"
   viewBox="0 0 76 94"
   enable-background="new 0 0 1280 3000"
   xml:space="preserve"
   inkscape:version="0.91 r13725"
   sodipodi:docname="city.svg"><metadata
     id="metadata545"><rdf:RDF><cc:Work
         rdf:about=""><dc:format>image/svg+xml</dc:format><dc:type
           rdf:resource="http://purl.org/dc/dcmitype/StillImage" /><dc:title></dc:title></cc:Work></rdf:RDF></metadata><defs
     id="defs543" /><sodipodi:namedview
     pagecolor="#ffffff"
     bordercolor="#666666"
     borderopacity="1"
     objecttolerance="10"
     gridtolerance="10"
     guidetolerance="10"
     inkscape:pageopacity="0"
     inkscape:pageshadow="2"
     inkscape:window-width="1851"
     inkscape:window-height="1057"
     id="namedview541"
     showgrid="false"
     inkscape:zoom="0.89001173"
     inkscape:cx="640"
     inkscape:cy="47.813655"
     inkscape:window-x="1912"
     inkscape:window-y="-8"
     inkscape:window-maximized="1"
     inkscape:current-layer="g3" /><g
     id="g3"
     transform="translate(0,-2906)"><text
       transform="translate(197.9189,2633.25)"
       font-size="14"
       id="text175"
       style="font-size:14px;font-family:PTSans-Bold;fill:#4d4d4d" />
<text
       transform="translate(253.9736,2633.25)"
       font-size="14"
       id="text181"
       style="font-size:14px;font-family:PTSans-Bold;fill:#4d4d4d" />
<text
       transform="translate(392.5049,2633.25)"
       font-size="14"
       id="text187"
       style="font-size:14px;font-family:PTSans-Bold;fill:#4d4d4d" />
<text
       transform="translate(403.1299,2633.25)"
       font-size="14"
       id="text189"
       style="font-size:14px;font-family:PTSans-Bold;fill:#4d4d4d" />
<text
       transform="translate(413.0049,2633.25)"
       font-size="14"
       id="text193"
       style="font-size:14px;font-family:PTSans-Bold;fill:#4d4d4d" />
<text
       transform="translate(533.583,2633.25)"
       font-size="14"
       id="text199"
       style="font-size:14px;font-family:PTSans-Bold;fill:#4d4d4d" />
<text
       transform="translate(543.4502,2633.25)"
       font-size="14"
       id="text203"
       style="font-size:14px;font-family:PTSans-Bold;fill:#4d4d4d" />
<text
       transform="translate(633.2002,2633.25)"
       font-size="14"
       id="text209"
       style="font-size:14px;font-family:PTSans-Bold;fill:#4d4d4d" />
<text
       transform="translate(643.0752,2633.25)"
       font-size="14"
       id="text213"
       style="font-size:14px;font-family:PTSans-Bold;fill:#4d4d4d" />
<text
       transform="translate(235.4111,2821.3672)"
       font-size="14"
       id="text223"
       style="font-size:14px;font-family:PTSans-Regular;fill:#009ec4" />
<text
       transform="translate(457.8564,635.75)"
       font-size="18"
       id="text333"
       style="font-size:18px;font-family:PTSans-Regular;fill:#009ec4" />
<path
       d="m 50.446,2925.775 0,40.726 0,28.897 0,4.602 -4.603,0 -5.876,0 0,-48.849 -16.166,0 0,-25.376 c 0,-2.531 2.07,-4.602 4.603,-4.602 l 7.239,0 0,-13.485 c 0,-0.818 0.662,-1.479 1.481,-1.479 0.818,0 1.48,0.662 1.48,1.479 l 0,13.485 7.239,0 c 2.533,0 4.603,2.071 4.603,4.602 l 0,0 z m -41.612,29.816 0,9.807 -8.834,0 0,34.602 35.526,0 0,-44.409 -26.692,0 0,0 z m 5.968,12.532 0,-5.922 5.921,0 0,5.922 -5.921,0 0,0 z m 9.164,0 0,-5.922 5.921,0 0,5.922 -5.921,0 0,0 z m -18.327,8.422 0,-5.921 5.921,0 0,5.921 -5.921,0 0,0 z m 9.163,0 0,-5.921 5.921,0 0,5.921 -5.921,0 0,0 z m 9.164,0 0,-5.921 5.921,0 0,5.921 -5.921,0 0,0 z m -18.327,8.422 0,-5.921 5.921,0 0,5.921 -5.921,0 0,0 z m 9.163,0 0,-5.921 5.921,0 0,5.921 -5.921,0 0,0 z m 9.164,0 0,-5.921 5.921,0 0,5.921 -5.921,0 0,0 z m -18.327,8.422 0,-5.921 5.921,0 0,5.921 -5.921,0 0,0 z m 9.163,0 0,-5.921 5.921,0 0,5.921 -5.921,0 0,0 z m 9.164,0 0,-5.921 5.921,0 0,5.921 -5.921,0 0,0 z m 52.385,-58.521 0,65.132 -20.724,0 0,-65.132 20.724,0 0,0 z m -12.337,7.781 c 0,-0.816 -0.662,-1.479 -1.48,-1.479 -0.818,0 -1.48,0.663 -1.48,1.479 l 0,49.26 c 0,0.817 0.662,1.48 1.48,1.48 0.818,0 1.48,-0.663 1.48,-1.48 l 0,-49.26 0,0 z m 6.91,0 c 0,-0.816 -0.662,-1.479 -1.48,-1.479 -0.818,0 -1.481,0.663 -1.481,1.479 l 0,49.26 c 0,0.817 0.663,1.48 1.481,1.48 0.818,0 1.48,-0.663 1.48,-1.48 l 0,-49.26 0,0 z"
       id="path361"
       inkscape:connector-curvature="0"
       style="fill:#57c2db" /><text
       transform="translate(910.5596,572)"
       font-size="18"
       id="text393"
       style="font-size:18px;font-family:PTSans-Regular;fill:#57c2db" />
<text
       transform="translate(915.3721,572)"
       font-size="18"
       id="text395"
       style="font-size:18px;font-family:PTSans-Regular;fill:#57c2db" />
<text
       transform="translate(427.3018,30.25)"
       font-size="14"
       id="text445"
       style="font-size:14px;font-family:PTSans-Bold;fill:#ffffff" />
<text
       transform="translate(472.7314,30.25)"
       font-size="14"
       id="text451"
       style="font-size:14px;font-family:PTSans-Regular;fill:#ffffff" />
<text
       transform="translate(483.9424,30.25)"
       font-size="14"
       id="text453"
       style="font-size:14px;font-family:PTSans-Regular;fill:#ffffff" />
<text
       transform="translate(563.6846,30.25)"
       font-size="14"
       id="text459"
       style="font-size:14px;font-family:PTSans-Bold;fill:#ffffff" />
</g></svg>