<?xml version="1.0" encoding="UTF-8" standalone="no"?>
<svg
   xmlns:dc="http://purl.org/dc/elements/1.1/"
   xmlns:cc="http://creativecommons.org/ns#"
   xmlns:rdf="http://www.w3.org/1999/02/22-rdf-syntax-ns#"
   xmlns:svg="http://www.w3.org/2000/svg"
   xmlns="http://www.w3.org/2000/svg"
   xmlns:sodipodi="http://sodipodi.sourceforge.net/DTD/sodipodi-0.dtd"
   xmlns:inkscape="http://www.inkscape.org/namespaces/inkscape"
   width="261.521"
   height="312.93301"
   id="svg2"
   version="1.1"
   inkscape:version="0.91 r13725"
   sodipodi:docname="continent-america.svg">
  <metadata
     id="metadata38">
    <rdf:RDF>
      <cc:Work
         rdf:about="">
        <dc:format>image/svg+xml</dc:format>
        <dc:type
           rdf:resource="http://purl.org/dc/dcmitype/StillImage" />
        <dc:title>Continents</dc:title>
      </cc:Work>
    </rdf:RDF>
  </metadata>
  <defs
     id="defs36" />
  <sodipodi:namedview
     pagecolor="#ffffff"
     bordercolor="#666666"
     borderopacity="1"
     objecttolerance="10"
     gridtolerance="10"
     guidetolerance="10"
     inkscape:pageopacity="0"
     inkscape:pageshadow="2"
     inkscape:window-width="1841"
     inkscape:window-height="1057"
     id="namedview34"
     showgrid="false"
     showguides="false"
     inkscape:zoom="1.4711028"
     inkscape:cx="158.9119"
     inkscape:cy="200.32449"
     inkscape:window-x="1912"
     inkscape:window-y="-8"
     inkscape:window-maximized="1"
     inkscape:current-layer="svg_13" />
  <title
     id="title4">Continents</title>
  <g
     id="g6"
     transform="translate(0,-87.715983)">
    <title
       id="title8">Layer 1</title>
    <g
       id="svg_13">
      <g
         id="g4166"
         transform="matrix(1,0,0,0.84105444,-3.9998225,61.999053)">
        <path
           d="m 195.868,402.35001 c -1.57599,-0.9 -4.952,-2.47599 -6.077,-3.37601 -1.125,-0.9 -4.50101,-5.854 -4.50101,-5.854 l -2.47699,-4.72699 c 0,0 -2.925,-3.60099 -2.25,-4.95099 0.67501,-1.35102 2.026,-2.25101 2.026,-2.926 0,-0.67499 1.34999,-2.47702 0.224,-3.151 -1.125,-0.67602 -1.125,-0.90002 -1.80101,-2.92602 -0.67499,-2.025 -0.67499,-3.82798 -1.57499,-4.27698 -0.901,-0.44901 -1.57601,-3.37601 -2.476,-3.60102 -0.9,-0.22598 -1.801,-1.80099 -1.801,-1.80099 l -1.35099,-18.232 c 0,0 -0.45101,-8.32699 -0.90001,-10.12899 -0.45101,-1.80002 0.675,-5.62601 -0.45101,-9.00302 -1.125,-3.37598 0.22601,-7.42701 -0.45,-8.77799 -0.675,-1.35101 0.45,-5.17599 -0.22499,-8.77701 -0.67498,-3.60101 2.70099,-8.103 0,-9.453 -2.701,-1.35199 -0.675,-3.37702 -2.92601,-3.37702 -2.25,0 -3.82598,-1.12597 -5.85199,-2.69998 -2.026,-1.57602 -5.85301,-4.50299 -6.97801,-5.629 -1.125,-1.12399 -4.72699,-4.05099 -5.85199,-4.95101 -1.125,-0.9 -2.251,-4.72699 -3.151,-5.853 -0.90001,-1.12399 -1.35001,-4.5 -2.701,-6.526 -1.351,-2.025 -3.151,-5.401 -3.60201,-6.077 -0.45,-0.67499 -5.40199,-6.52701 -5.40199,-6.52701 l 0.45,-3.60098 c 0,0 3.376,-2.026 2.92601,-2.701 -0.45002,-0.676 0.22599,-1.35201 -1.35102,-2.70101 -1.57599,-1.35199 -1.351,-3.82799 0,-4.95199 1.35102,-1.127 3.37601,-4.728 3.37601,-4.728 l 3.37599,-5.62601 c 0,0 2.70201,-2.92799 2.70201,-4.953 0,-2.02501 3.82599,-3.375 1.575,-5.176 -2.25101,-1.802 -1.125,-3.37699 -1.801,-4.72799 -0.67601,-1.35001 -0.225,-2.25 1.801,-3.601 2.026,-1.351 5.627,-6.302 5.627,-6.302 0,0 2.701,-0.676 3.37601,-0.676 0.675,0 1.80099,-7.20401 3.82699,-2.477 2.026,4.727 2.70101,2.25099 2.026,5.627 -0.67601,3.376 0.9,2.70199 1.80001,1.802 0.89999,-0.90201 -0.45101,0.675 1.34999,-3.37801 1.8,-4.05099 1.126,-5.401 2.251,-4.27499 1.125,1.12599 1.575,1.351 3.601,2.026 2.025,0.675 2.70101,0.44899 3.375,1.8 0.675,1.351 0.45101,-0.45001 4.27699,0.226 3.82601,0.676 9.228,-1.351 8.55301,0.899 -0.675,2.25099 -2.026,-0.225 1.125,2.25099 3.151,2.47701 3.60199,2.926 5.402,3.377 1.8,0.45 3.376,0.22501 6.078,2.92601 2.701,2.7 3.37601,2.926 4.05099,4.275 0.67501,1.352 1.80001,0.451 2.92601,1.80099 1.125,1.35201 2.70099,1.35201 4.27601,1.35201 1.57499,0 0,-1.35201 2.47599,0.44999 2.47699,1.80001 4.277,2.02401 5.402,5.62601 1.125,3.60399 3.376,3.377 1.57499,6.97899 -1.79998,3.60201 -5.401,5.177 -3.82599,4.95201 1.575,-0.226 4.502,-1.57701 5.402,-1.351 0.90001,0.224 1.35,-0.675 2.701,0 1.351,0.67501 1.57601,-0.90001 1.351,0.67499 -0.226,1.57601 -0.226,0 -0.226,1.57601 0,1.57499 -0.45,-1.57601 2.25099,-0.9 2.70101,0.67501 1.125,-1.352 4.276,1.575 3.15201,2.927 3.15201,2.02699 4.27601,3.602 1.126,1.57399 2.251,-0.899 2.927,-0.225 0.67599,0.67399 2.701,0.224 4.727,0.675 2.026,0.44899 0.67501,-1.35001 3.827,0.675 3.14999,2.025 6.302,1.34999 6.977,3.151 0.67502,1.79999 2.47699,1.125 3.37601,2.25098 0.89902,1.12598 1.34998,-0.45099 2.25098,1.12601 0.90002,1.574 3.60202,1.12402 3.151,2.699 -0.45099,1.577 0.67401,0.676 0.224,2.926 -0.44898,2.25302 -2.026,5.854 -3.375,6.75302 -1.35098,0.901 -1.34998,2.026 -2.25098,3.151 -0.90002,1.12699 -0.67502,-1.125 -1.80102,2.026 -1.125,3.15198 -0.89997,3.60199 -1.79999,6.52698 -0.90003,2.92499 -0.22499,0 -0.9,2.926 -0.675,2.92602 -0.225,4.72701 -0.9,8.104 -0.67499,3.375 -0.45,3.37601 -0.9,5.85202 -0.45,2.47598 1.125,-1.12402 -0.901,4.05099 -2.02499,5.17801 -2.25,4.95099 -2.925,7.20301 -0.676,2.25198 0.225,0.44998 -2.25099,1.80099 -2.476,1.35199 -1.125,0.9 -4.05201,1.801 -2.925,0.89999 -6.527,1.802 -7.652,2.026 -1.125,0.224 -5.627,1.57501 -4.27601,4.27499 1.35102,2.702 1.35102,3.15201 0,6.52899 -1.35099,3.375 -3.37599,4.50202 -3.37599,6.07602 0,1.57498 -0.901,3.15 -1.125,4.276 -0.226,1.12601 2.025,-1.126 -0.675,2.25101 -2.701,3.37598 -2.926,2.47598 -3.827,4.50198 -0.90001,2.025 0,0.44901 -0.90001,2.025 -0.89999,1.57501 -3.151,2.25 -3.151,2.25 0,0 0.22402,1.12601 -0.67599,0.67602 -0.901,-0.449 -0.675,0.22498 -4.052,-0.67602 -3.376,-0.9 -3.82599,-3.14899 -4.276,-1.57498 -0.45,1.57498 0.225,2.47699 2.251,4.052 2.025,1.57599 5.402,2.02499 4.50099,3.60199 -0.89999,1.57599 -0.89999,1.57599 -1.57499,2.47601 -0.676,0.901 0.90001,0.22498 -0.676,0.901 -1.57499,0.67499 -2.476,3.60199 -3.151,3.60199 -0.675,0 -1.12601,1.125 -2.026,0.67499 -0.89999,-0.45099 -3.14999,-2.026 -3.601,-1.12598 -0.44999,0.89899 -1.351,-1.126 -1.126,2.025 0.22599,3.151 0.67601,4.95199 -0.45,5.62799 -1.125,0.67499 -3.827,0 -3.827,0 l -0.44999,-1.12601 -1.57502,0.45001 c 0,0 -0.67498,2.70099 0.45002,3.15101 1.125,0.44998 0.89999,0.89898 2.02499,2.25 1.12601,1.35098 0.451,3.82699 0.451,3.82699 0,0 0,0.676 -1.125,1.801 -1.125,1.125 -1.576,2.026 -1.80101,2.70099 -0.22599,0.67501 -1.57599,3.60202 0.45002,3.376 2.02499,-0.22598 3.60199,-1.35098 3.60199,2.25101 0,3.60101 0.9,2.702 -0.225,5.177 -1.126,2.47601 -2.026,2.70099 -2.251,4.95099 -0.224,2.25101 0.226,2.47601 0.67601,3.827 0.44999,1.35101 1.57599,0.67501 0.44999,1.35101 -1.123,0.67499 -4.499,0.001 -4.499,0.001 z"
           id="svg_20"
           inkscape:connector-curvature="0"
           style="fill:#3f3f3f" />
        <path
           d="m 137.796,219.132 -1.57499,-2.25 c 0,0 -0.67501,-1.352 -1.801,-1.576 -1.12599,-0.224 -3.602,-3.151 -3.602,-3.151 0,0 -1.125,-0.9 -1.125,-2.47501 0,-1.57599 -0.901,-4.05099 -0.226,-6.752 0.676,-2.69999 0.901,-6.07699 0.676,-6.97799 -0.226,-0.9 1.125,-1.125 -0.45,-2.026 -1.57601,-0.9 -4.72701,-1.125 -6.753,-1.125 -2.025,0 -4.502,0.67601 -4.952,0.9 -0.45,0.225 2.476,-6.75199 2.926,-7.87699 0.45001,-1.125 2.476,-6.07801 2.476,-6.752 0,-0.67601 0.675,-0.901 -0.675,-1.80001 -1.34999,-0.901 -3.60099,-1.35099 -4.952,-0.67601 -1.35,0.67601 -1.125,-0.89999 -2.25,1.80001 -1.125,2.70199 -2.251,5.628 -3.602,6.078 -1.34999,0.451 -4.051,1.80099 -4.051,1.80099 0,0 -3.376,-0.22499 -4.502,-0.44999 -1.125,-0.22499 -5.851996,-2.70101 -6.751998,-4.276 -0.900002,-1.57601 -1.349998,-4.95301 -1.349998,-6.527 0,-1.576 2.474998,-6.302 2.25,-7.42801 -0.224991,-1.125 2.476997,-5.62699 2.250999,-6.30299 -0.22599,-0.675 0.449997,-2.92599 1.124997,-3.826 0.67501,-0.90001 4.05201,-2.026 4.952,-2.926 0.9,-0.901 2.47601,-2.02501 4.051,-2.476 1.57499,-0.45099 2.927,-0.90001 4.052,-0.90001 1.125,0 4.051,-2.47599 4.501,0 0.451,2.47501 2.477,1.575 3.602,1.80001 1.125,0.226 1.351,1.351 3.151,-1.575 1.801,-2.927 3.601,-3.827 3.601,-3.15201 0,0.67601 2.92601,-0.224 3.37601,0.45101 0.44999,0.675 1.35099,-0.45101 2.92599,0.90001 1.576,1.35099 3.826,1.57598 3.601,2.25 -0.22499,0.67498 0.90001,0.67498 0.90001,1.35099 0,0.67499 0.901,-1.576 0.901,2.47499 0,4.05201 1.125,6.528 1.125,6.528 0,0 1.575,3.377 2.25,2.70101 0.67499,-0.675 2.02499,-2.47501 2.02499,-2.47501 0,0 2.25099,-1.351 0.676,-6.07799 -1.57599,-4.72601 -0.45,-6.07701 -0.9,-7.653 -0.451,-1.576 -0.451,-2.477 2.25,-4.50199 2.70101,-2.02501 9.228,-6.52701 10.80401,-7.42701 1.57499,-0.90001 5.17599,-3.376 5.17599,-3.376 0,0 1.35001,-0.67501 1.576,-2.476 0.225,-1.8 4.501,-4.952 4.72701,-5.852 0.226,-0.9 3.15199,-3.15 3.15199,-3.15 0,0 3.15,-1.802 2.92501,-2.926 -0.22501,-1.125 4.052,-3.15001 4.72699,-3.15001 0.675,0 4.277,1.12401 4.277,-0.902 0,-2.02499 0,-2.47599 2.251,-4.27599 2.25,-1.8 5.17601,-4.50201 6.302,-4.50201 1.125,0 4.95201,-2.02399 6.527,-2.47499 1.57601,-0.451 6.528,-2.702 2.02601,0 -4.502,2.7 -1.57601,1.125 -2.476,3.376 -0.899,2.25 -1.57601,5.177 2.70099,1.8 4.277,-3.376 4.05101,-4.052 5.627,-4.276 1.576,-0.225 0.45001,0.675 3.826,-0.451 3.377,-1.125 3.60202,-1.575 3.60202,-1.575 0,0 1.57599,-1.351 0.67499,-2.02501 -0.90001,-0.67599 0.901,-1.575991 -2.476,-0.22599 -3.37601,1.35099 -3.151,1.576 -5.40201,0.9 -2.25,-0.675 -5.627,-0.45101 -3.151,-2.702004 2.476,-2.25 5.627,-2.925995 3.601,-3.825996 -2.02499,-0.900002 -7.202,0.225998 -7.877,0.449997 -0.67599,0.224998 -2.25099,-0.224998 -3.602,0 -1.35,0.224998 -0.9,-1.798996 0,-2.25 0.901,-0.450996 3.82701,-1.801994 7.428,-2.701996 3.601,-0.900002 12.38001,-1.125 14.405,-1.125 2.025,0 4.726,0.450996 6.30202,-0.675003 1.57498,-1.125 4.72699,-2.924995 5.17699,-3.826996 0.45099,-0.900002 2.25099,-2.25 2.25099,-2.25 0,0 2.02501,-2.026001 0.90001,-2.926003 -1.125,-0.900002 -2.25101,-2.926003 -3.151,-2.475998 -0.90001,0.449997 -0.224,3.152 -2.02501,0.224998 -1.801,-2.925003 -1.57599,-3.375999 -2.476,-4.051003 -0.89999,-0.674995 -1.80098,-0.225998 -1.125,-3.375999 0.675,-3.151001 0.45,-4.501999 0.45,-4.501999 0,0 0.675,-2.700001 0,-2.924999 -0.676,-0.226002 -1.125,-0.900002 -2.25,-0.226002 -1.12598,0.674999 -7.428,3.827003 -8.778,4.501999 -1.351,0.675003 -3.152,-2.700996 -2.47699,-4.275997 0.67599,-1.577 0.22499,-0.676003 -0.67501,-2.926003 -0.89999,-2.250999 -4.501,-2.702 -5.852,-2.702 -1.351,0 -4.50099,-2.025997 -5.40199,-0.674999 -0.90001,1.349998 -5.62601,5.625999 -6.528,6.077 -0.90001,0.451 -2.25,-3.826 -2.92501,3.151001 -0.67599,6.978989 2.476,9.003998 -1.125,9.454002 -3.60099,0.450004 -6.753,2.474998 -6.753,2.474998 0,0 -2.92499,0.225998 -2.92499,2.026001 0,1.801987 -1.125,6.076996 -2.47701,6.527 -1.35,0.450996 -4.727,-0.223999 -5.852,-1.575005 -1.125,-1.350998 0.22501,-6.301994 0.22501,-6.301994 l 2.026,-2.026001 c 0,0 -14.405,-2.25 -14.181,-3.151001 0.22599,-0.900002 -4.276,-2.474998 -4.726,-3.826004 -0.45001,-1.350998 -0.67601,-4.277 -0.22501,-5.401997 0.45,-1.125 6.527,-6.527 9.678,-7.652 3.151,-1.125999 8.55301,-3.601002 10.12901,-4.052002 1.57599,-0.449997 4.27599,-0.224998 5.17699,-1.349998 0.90001,-1.125999 1.125,-3.151001 1.125,-3.151001 0,0 -0.45,-3.152 0.45001,-2.702 0.89999,0.451 2.476,1.125999 2.70099,1.800999 0.226,0.675003 0.226,2.251003 1.80101,0.449001 1.57599,-1.799999 3.60199,-2.475998 5.40199,-3.375 1.801,-0.901001 4.50101,-0.674999 6.078,-1.575001 1.575,-0.899998 4.276,-1.800999 4.50101,-4.051998 0.22499,-2.25 -0.675,-1.575001 -1.80101,-1.801003 -1.125,-0.223999 0.45,0.226002 -3.37599,2.026001 -3.82701,1.799999 -2.70101,0.450001 -5.40201,1.799999 -2.701,1.351002 -2.927,1.576 -3.151,0.451 -0.226,-1.125999 0.45,-2.925999 0.45,-2.925999 0,0 0.22601,-0.226009 -1.34999,-0.674999 -1.57601,-0.450001 -1.57601,0.224998 -1.80101,-1.799999 -0.225,-2.026001 1.125,-4.952002 -1.125,-4.052002 -2.251,0.9 -4.27599,-0.674999 -5.85199,3.826 -1.57601,4.500999 -6.978,9.229 -8.32901,8.103001 -1.35,-1.125 -1.575,-1.351002 -2.70099,-1.351002 -1.126,0 -2.70101,-1.349998 -4.72701,-1.574997 -2.026,-0.224999 -8.104,-0.225002 -9.67799,0 -1.57601,0.225998 -3.37601,-0.900002 -4.72801,0.451 -1.35001,1.349998 -3.375,3.150997 -3.375,3.827 0,0.674999 -2.02601,-2.477001 -2.70101,-2.251003 -0.675,0.225002 -2.477,-0.899998 -4.50099,-0.899998 -2.026,0 -3.37701,-1.125999 -4.05101,-1.125999 -0.675,0 0.674,-1.801003 0,-2.026001 -0.675,-0.223999 -15.307,-0.674999 -15.307,-0.674999 0,0 -4.726,-1.799999 -6.526,-1.575001 -1.801,0.224998 -6.752,0.449001 -10.57999,1.125 -3.827009,0.674999 -9.454008,2.925999 -11.253988,3.151001 -1.80101,0.225998 -5.85202,0.225998 -6.527,-0.900002 -0.67601,-1.125 0.224991,-0.899998 -0.67601,-1.125 -0.900002,-0.223999 -0.223999,-0.674999 -2.25,-2.25 -2.026001,-1.576 0.901001,-2.925999 -3.151001,-2.925999 -4.05101,0 -6.527,-0.226002 -10.127998,0 -3.602009,0.224998 -11.029011,2.024998 -11.929008,1.799999 -0.900002,-0.224998 -8.102993,1.125999 -9.229,0.451 -1.125,-0.675999 -6.752991,2.474991 -7.877003,2.25 -1.125,-0.224998 -5.402,0.22599 -6.526999,0.901001 -1.126001,0.675999 -6.52799,2.024998 -4.727001,3.15099 1.800001,1.125 1.575001,2.25 1.800001,2.92601 0.226,0.674999 -1.800001,2.25 -1.800001,2.25 0,0 -0.451,0 -2.925999,-0.900009 -2.476,-0.901001 -5.177,-1.349991 -6.303001,-0.674992 -1.125,0.674992 -3.150999,2.027 -2.700999,2.926991 0.451,0.900009 3.601001,2.92601 4.051999,2.25 0.450001,-0.674999 1.576,-2.02499 2.926001,-1.799992 1.351,0.226002 3.377001,-0.899998 1.576,1.351002 -1.801001,2.25 -3.377001,3.375999 -4.502001,3.60199 -1.125,0.22401 -3.825999,0.449009 -6.301999,0.675011 -2.477,0.225998 -2.252,-0.900002 -4.50199,1.350998 -2.25,2.25 -3.151,0.900002 -3.60101,3.375992 -0.44999,2.47501 -0.89999,2.47501 0,3.151009 0.9,0.674992 -1.80099,0.900002 0.225,1.575001 2.02501,0.675999 4.501,1.350979 4.276011,2.02499 -0.226,0.67601 2.25099,-0.898987 0.89999,0.900009 -1.35099,1.802002 -2.25,3.375999 0.45,1.576004 2.701,-1.800003 4.27601,-0.451004 6.527,-1.576004 2.250999,-1.125 4.501999,-1.349998 5.852009,-2.25 1.351,-0.901001 2.026001,-2.25 4.052,-2.926998 2.026001,-0.675003 0.675001,0.225998 0.9,1.350998 0.225,1.125 0,1.350002 1.351011,0.449001 1.349989,-0.900002 1.349989,-0.223999 3.15099,-1.350002 1.799999,-1.125 3.826,-2.250999 5.17701,-1.576 1.349991,0.676003 1.799999,0.676003 2.700989,0.676003 0.900002,0 -1.125,-0.226002 0.900002,0 2.026009,0.223999 -0.900002,-0.676003 5.852009,0.899998 6.752991,1.575001 8.554001,0.450001 9.002991,2.925999 0.451,2.476006 1.351009,-0.225998 2.476009,1.349991 1.125,1.575012 1.800991,0.226013 2.47599,2.92601 0.674999,2.702003 0,10.129005 -0.450001,11.028999 -0.449989,0.900002 -0.674999,0.900002 -0.449989,2.926003 0.224991,2.025002 2.925991,11.705002 2.02599,12.378998 -0.900001,0.673996 -2.925999,0.900002 -2.925999,0.900002 l -1.125,4.051003 c 0,0 -1.799992,3.375999 -3.375988,5.176999 -1.576,1.8 -3.601013,4.052 -4.727013,5.626 -1.125,1.576 -2.026001,4.278 -3.60099,5.853 -1.574997,1.575 -2.92601,0.9 -2.475998,4.276 0.450001,3.376 0,6.977 0.450001,9.45399 0.451,2.476 1.576,5.85201 2.475986,7.20301 0.900013,1.35 1.576,1.35 3.151012,2.475 1.576,1.125 3.602001,2.47699 3.375988,3.60199 -0.224987,1.125 0.22501,8.10401 0.22501,8.10401 0,0 1.35099,2.25 1.575001,4.726 0.22599,2.477 1.801003,4.95201 1.801003,4.95201 l 1.350986,2.92698 c 0,0 0.675011,0.22602 1.576,2.02501 0.900013,1.801 0.900013,1.801 1.125,2.7 0.226013,0.90199 0.226013,0.67599 0.226013,0.90199 0,0.22402 -0.226013,-3.82699 -0.676003,-4.95299 -0.450001,-1.125 -0.450001,-2.475 -0.899998,-3.826 -0.450012,-1.351 0.224987,-2.927 -1.125,-4.952 -1.350002,-2.025 -1.350002,-2.251 -2.025013,-4.277 -0.674999,-2.025 -1.576,-4.276 -0.674999,-4.72701 0.900009,-0.44899 1.575012,-3.375 3.375999,0 1.800011,3.37601 2.026001,2.47701 2.251011,5.17801 0.223999,2.701 0.89999,3.60201 1.574989,4.726 0.675011,1.125 2.25,4.953 3.151001,6.52701 0.900009,1.57599 0,-0.90001 2.025009,2.25099 2.026009,3.151 2.251999,3.826 3.376999,6.302 1.125,2.476 1.80101,2.476 2.47599,4.276 0.675011,1.802 0.224998,1.351 -0.22599,3.37599 -0.449989,2.02501 0.449989,4.27701 0.449989,4.27701 0,0 3.151001,1.125 3.375999,1.8 0.225021,0.67499 3.376022,1.79999 3.827003,2.70099 0.449997,0.901 3.375999,2.02501 3.375999,2.02501 0,0 2.475998,1.57601 3.375,2.026 0.901001,0.45 3.602997,0.901 3.602997,0.901 0,0 1.800003,0.45099 2.475014,0.67499 0.674988,0.22501 2.700989,0.22501 2.700989,0.22501 0,0 1.80101,-1.35001 2.475998,-0.9 0.675003,0.44899 2.251001,-0.901 2.926001,0.224 0.67501,1.126 2.026,1.126 2.70101,2.027 0.67499,0.90001 1.35,0.90001 2.47599,2.02501 1.126,1.125 2.251,0.89999 3.376,1.79998 1.125,0.90001 2.02501,0.90001 3.376,0.90001 1.35,0 1.35,0 2.251,0.226 0.899,0.22501 1.35,-0.67599 2.25,0.45101 0.9,1.125 1.575,1.79998 2.25,2.92498 0.675,1.125 2.25099,1.125 2.476,2.92601 0.22501,1.80001 0.675,1.577 0.675,3.151 0,1.57599 0.9,2.251 1.576,2.702 0.674,0.44901 3.15,2.69901 3.15,2.69901 l 3.37601,0.67599 2.70099,2.026 2.929,0.897 z"
           id="svg_21"
           inkscape:connector-curvature="0"
           style="fill:#3f3f3f" />
      </g>
    </g>
  </g>
</svg>
