<?xml version="1.0" encoding="UTF-8" standalone="no"?>
<!-- Generator: Adobe Illustrator 16.0.0, SVG Export Plug-In . SVG Version: 6.00 Build 0)  -->

<svg
   xmlns:dc="http://purl.org/dc/elements/1.1/"
   xmlns:cc="http://creativecommons.org/ns#"
   xmlns:rdf="http://www.w3.org/1999/02/22-rdf-syntax-ns#"
   xmlns:svg="http://www.w3.org/2000/svg"
   xmlns="http://www.w3.org/2000/svg"
   xmlns:sodipodi="http://sodipodi.sourceforge.net/DTD/sodipodi-0.dtd"
   xmlns:inkscape="http://www.inkscape.org/namespaces/inkscape"
   version="1.1"
   id="Ebene_1"
   x="0px"
   y="0px"
   width="94"
   height="94"
   viewBox="0 0 94 94"
   enable-background="new 0 0 1280 3000"
   xml:space="preserve"
   inkscape:version="0.91 r13725"
   sodipodi:docname="everybody.svg"><metadata
     id="metadata545"><rdf:RDF><cc:Work
         rdf:about=""><dc:format>image/svg+xml</dc:format><dc:type
           rdf:resource="http://purl.org/dc/dcmitype/StillImage" /><dc:title></dc:title></cc:Work></rdf:RDF></metadata><defs
     id="defs543" /><sodipodi:namedview
     pagecolor="#ffffff"
     bordercolor="#666666"
     borderopacity="1"
     objecttolerance="10"
     gridtolerance="10"
     guidetolerance="10"
     inkscape:pageopacity="0"
     inkscape:pageshadow="2"
     inkscape:window-width="1851"
     inkscape:window-height="1057"
     id="namedview541"
     showgrid="false"
     inkscape:zoom="0.89001173"
     inkscape:cx="640"
     inkscape:cy="47.813655"
     inkscape:window-x="1912"
     inkscape:window-y="-8"
     inkscape:window-maximized="1"
     inkscape:current-layer="g3" /><g
     id="g3"
     transform="translate(0,-2906)"><text
       transform="translate(197.9189,2633.25)"
       font-size="14"
       id="text175"
       style="font-size:14px;font-family:PTSans-Bold;fill:#4d4d4d" />
<text
       transform="translate(253.9736,2633.25)"
       font-size="14"
       id="text181"
       style="font-size:14px;font-family:PTSans-Bold;fill:#4d4d4d" />
<text
       transform="translate(392.5049,2633.25)"
       font-size="14"
       id="text187"
       style="font-size:14px;font-family:PTSans-Bold;fill:#4d4d4d" />
<text
       transform="translate(403.1299,2633.25)"
       font-size="14"
       id="text189"
       style="font-size:14px;font-family:PTSans-Bold;fill:#4d4d4d" />
<text
       transform="translate(413.0049,2633.25)"
       font-size="14"
       id="text193"
       style="font-size:14px;font-family:PTSans-Bold;fill:#4d4d4d" />
<text
       transform="translate(533.583,2633.25)"
       font-size="14"
       id="text199"
       style="font-size:14px;font-family:PTSans-Bold;fill:#4d4d4d" />
<text
       transform="translate(543.4502,2633.25)"
       font-size="14"
       id="text203"
       style="font-size:14px;font-family:PTSans-Bold;fill:#4d4d4d" />
<text
       transform="translate(633.2002,2633.25)"
       font-size="14"
       id="text209"
       style="font-size:14px;font-family:PTSans-Bold;fill:#4d4d4d" />
<text
       transform="translate(643.0752,2633.25)"
       font-size="14"
       id="text213"
       style="font-size:14px;font-family:PTSans-Bold;fill:#4d4d4d" />
<text
       transform="translate(235.4111,2821.3672)"
       font-size="14"
       id="text223"
       style="font-size:14px;font-family:PTSans-Regular;fill:#009ec4" />
<text
       transform="translate(457.8564,635.75)"
       font-size="18"
       id="text333"
       style="font-size:18px;font-family:PTSans-Regular;fill:#009ec4" />
<path
       d="M 46.99997,2906.0001 C 21.08,2906.0001 0,2927.084 0,2953 c 0,25.916 21.08,47 46.99997,47 25.92,0 47,-21.084 47,-47 0,-25.916 -21.08,-46.9999 -47,-46.9999 l 0,0 z m 0,89.5229 C 23.55,2995.523 4.477,2976.447 4.477,2953 c 0,-6.149 1.323,-11.991 3.684,-17.273 0.22,0.504 0.439,1.037 0.67,1.64 0.41,1.101 0.88,2.35 1.63,3.736 1.55,2.902 4.3,4.657 6.5,6.067 0.99,0.632 2.479,1.586 2.63,2.031 0.34,1.319 0.3,2.318 0.23,3.583 -0.04,0.996 -0.101,2.126 0.06,3.508 0.271,2.445 1.89,3.782 3.32,4.961 0.819,0.674 1.59,1.31 2.17,2.145 0.64,0.945 0.58,1.307 0.35,2.652 -0.2,1.117 -0.47,2.648 -0.319,4.982 0.239,3.713 1.38,4.672 2.84,5.539 0.52,0.311 0.89,0.536 1.29,1.216 0.439,0.744 0.62,2.019 0.79,3.252 0.34,2.402 0.85,6.031 4.47897,6.195 l 0.2,0 c 4.64,0 5.7,-6.776 6.15,-9.669 l 0.08,-0.46 c 0.05,-0.312 0.199,-0.438 1.479,-0.884 0.58,-0.204 1.24,-0.437 1.91,-0.798 1.96,-1.07 1.75,-3.211 1.58,-4.933 -0.11,-1.146 -0.24,-2.445 0.06,-3.757 0.19,-0.657 2.16,-2.354 3.471,-3.479 2.279,-1.958 4.869,-4.177 5.869,-6.488 0.57,-1.314 0.601,-2.692 0.09,-3.984 -1.05,-2.661 -4.199,-4.474 -6.649,-5.528 -0.49,-0.209 -1.01,-0.316 -1.53,-0.316 -1.31,0 -2.41,0.664 -3.38,1.249 -0.899,0.541 -1.75,1.053 -2.81,1.053 l -0.01,0 c -0.86,-0.045 -1.381,-1.12 -2.121,-2.885 -0.51,-1.201 -1.039,-2.444 -1.93,-3.332 -1.64,-1.646 -3.97897,-2.058 -6.67997,-2.534 -1.01,-0.178 -2.11,-0.372 -3.31,-0.65 -1.421,-0.33 -6.04,-1.655 -6.061,-4.881 0.061,-0.073 0.64,-0.715 4.59,-0.715 0.5,0 0.99,0.01 1.431,0.016 0.399,0.01 0.779,0.012 1.109,0.012 0.9,0 1.49,-0.039 1.971,-0.248 l 0.209,-0.086 c 1.15,-0.492 2.891,-1.236 4.47997,-2.64 0.11,-0.098 0.79,-0.113 1.15,-0.122 1.449,-0.032 3.869,-0.085 5.649,-2.819 2.19,-3.379 0.57,-6.436 -1,-9.389 -0.39,-0.732 -0.8,-1.493 -1.17,-2.298 -0.68,-1.4939 -1.18,-3.3279 -1.58,-5.2429 2.09,-0.449 4.23,-0.745 6.42,-0.874 0.2,0.586 0.38,1.211 0.53,1.731 0.939,3.223 2.1,7.2339 5.45,8.0019 0.29,0.068 0.59,0.104 0.89,0.104 l 0,0 c 1.23,0 2.99,-0.59 4.38,-3.392 0.69,-1.4039 1.22,-3.3129 1.53,-5.2699 2.26,0.561 4.45,1.302 6.55,2.21 -0.239,0.18 -0.489,0.359 -0.729,0.536 -0.811,0.589 -1.66,1.2 -2.34,1.867 -3.86,3.7949 -4.801,7.0039 -2.78,9.5379 1.21,1.515 2.899,2.284 5.04,2.284 1.41,0 2.8,-0.326 4.02,-0.616 l 0.62,-0.144 c 0.75,-0.176 1.76,0.054 2.81,0.32 0.91,0.23 1.86,0.468 2.86,0.468 l 0.011,0 c 0.93,0 1.76,-0.204 2.529,-0.624 1.1,-0.602 2.09,-1.583 2.94,-2.787 3.59,4.042 6.42,8.767 8.28,13.959 -1.221,1.057 -2.801,1.818 -4.391,1.818 -0.49,0 -0.96,-0.069 -1.42,-0.204 -0.66,-0.195 -1.41,-0.474 -2.22,-0.771 -2.24,-0.822 -5.021,-1.844 -7.61,-1.844 -3.64,0 -6.14,2.031 -7.21,5.873 -2.31,8.244 -0.83,12.277 5.29,14.386 4.73,1.633 6.35,2.514 6.62,4.511 0.13,0.959 -0.46,3.107 -0.97,5.002 -1,3.705 -1.95,7.205 -0.431,9.272 1.011,1.377 2.561,2.809 4.521,3.898 -7.808,9.076 -19.358,14.839 -32.238,14.839 l 0,0 z"
       id="path369"
       inkscape:connector-curvature="0"
       style="fill:#57c2db" /><text
       transform="translate(910.5596,572)"
       font-size="18"
       id="text393"
       style="font-size:18px;font-family:PTSans-Regular;fill:#57c2db" />
<text
       transform="translate(915.3721,572)"
       font-size="18"
       id="text395"
       style="font-size:18px;font-family:PTSans-Regular;fill:#57c2db" />
<text
       transform="translate(427.3018,30.25)"
       font-size="14"
       id="text445"
       style="font-size:14px;font-family:PTSans-Bold;fill:#ffffff" />
<text
       transform="translate(472.7314,30.25)"
       font-size="14"
       id="text451"
       style="font-size:14px;font-family:PTSans-Regular;fill:#ffffff" />
<text
       transform="translate(483.9424,30.25)"
       font-size="14"
       id="text453"
       style="font-size:14px;font-family:PTSans-Regular;fill:#ffffff" />
<text
       transform="translate(563.6846,30.25)"
       font-size="14"
       id="text459"
       style="font-size:14px;font-family:PTSans-Bold;fill:#ffffff" />
</g></svg>