<?xml version="1.0" encoding="UTF-8" standalone="no"?>
<!-- Generator: Adobe Illustrator 16.0.0, SVG Export Plug-In . SVG Version: 6.00 Build 0)  -->

<svg
   xmlns:dc="http://purl.org/dc/elements/1.1/"
   xmlns:cc="http://creativecommons.org/ns#"
   xmlns:rdf="http://www.w3.org/1999/02/22-rdf-syntax-ns#"
   xmlns:svg="http://www.w3.org/2000/svg"
   xmlns="http://www.w3.org/2000/svg"
   xmlns:xlink="http://www.w3.org/1999/xlink"
   xmlns:sodipodi="http://sodipodi.sourceforge.net/DTD/sodipodi-0.dtd"
   xmlns:inkscape="http://www.inkscape.org/namespaces/inkscape"
   version="1.1"
   id="Ebene_1"
   x="0px"
   y="0px"
   width="120"
   height="120"
   viewBox="0 0 120 120"
   enable-background="new 0 0 1280 2000"
   xml:space="preserve"
   inkscape:version="0.91 r13725"
   sodipodi:docname="fly-plane.svg"><metadata
     id="metadata1811"><rdf:RDF><cc:Work
         rdf:about=""><dc:format>image/svg+xml</dc:format><dc:type
           rdf:resource="http://purl.org/dc/dcmitype/StillImage" /><dc:title></dc:title></cc:Work></rdf:RDF></metadata><defs
     id="defs1809"><clipPath
       id="SVGID_32_"><use
         height="100%"
         width="100%"
         y="0"
         x="0"
         style="overflow:visible"
         xlink:href="#SVGID_31_"
         overflow="visible"
         id="use377" /></clipPath><clipPath
       id="SVGID_30_"><use
         height="100%"
         width="100%"
         y="0"
         x="0"
         style="overflow:visible"
         xlink:href="#SVGID_29_"
         overflow="visible"
         id="use365" /></clipPath><clipPath
       id="SVGID_28_"><use
         height="100%"
         width="100%"
         y="0"
         x="0"
         style="overflow:visible"
         xlink:href="#SVGID_27_"
         overflow="visible"
         id="use345" /></clipPath><clipPath
       id="SVGID_26_"><use
         height="100%"
         width="100%"
         y="0"
         x="0"
         style="overflow:visible"
         xlink:href="#SVGID_25_"
         overflow="visible"
         id="use333" /></clipPath><clipPath
       id="SVGID_24_"
       clip-path="url(#SVGID_23_)"><use
         height="100%"
         width="100%"
         y="0"
         x="0"
         style="overflow:visible"
         xlink:href="#SVGID_22_"
         overflow="visible"
         id="use303" /></clipPath><clipPath
       id="clipPath5957"
       clip-path="url(#SVGID_23_)"><use
         height="100%"
         width="100%"
         y="0"
         x="0"
         style="overflow:visible"
         xlink:href="#SVGID_22_"
         overflow="visible"
         id="use5959" /></clipPath><clipPath
       id="clipPath5961"
       clip-path="url(#SVGID_23_)"><use
         height="100%"
         width="100%"
         y="0"
         x="0"
         style="overflow:visible"
         xlink:href="#SVGID_22_"
         overflow="visible"
         id="use5963" /></clipPath><clipPath
       id="clipPath5965"
       clip-path="url(#SVGID_23_)"><use
         height="100%"
         width="100%"
         y="0"
         x="0"
         style="overflow:visible"
         xlink:href="#SVGID_22_"
         overflow="visible"
         id="use5967" /></clipPath><clipPath
       id="clipPath5969"
       clip-path="url(#SVGID_23_)"><use
         height="100%"
         width="100%"
         y="0"
         x="0"
         style="overflow:visible"
         xlink:href="#SVGID_22_"
         overflow="visible"
         id="use5971" /></clipPath><clipPath
       id="clipPath5973"
       clip-path="url(#SVGID_23_)"><use
         height="100%"
         width="100%"
         y="0"
         x="0"
         style="overflow:visible"
         xlink:href="#SVGID_22_"
         overflow="visible"
         id="use5975" /></clipPath><clipPath
       id="clipPath5977"
       clip-path="url(#SVGID_23_)"><use
         height="100%"
         width="100%"
         y="0"
         x="0"
         style="overflow:visible"
         xlink:href="#SVGID_22_"
         overflow="visible"
         id="use5979" /></clipPath><clipPath
       id="clipPath5981"
       clip-path="url(#SVGID_23_)"><use
         height="100%"
         width="100%"
         y="0"
         x="0"
         style="overflow:visible"
         xlink:href="#SVGID_22_"
         overflow="visible"
         id="use5983" /></clipPath><clipPath
       id="clipPath5985"
       clip-path="url(#SVGID_23_)"><use
         height="100%"
         width="100%"
         y="0"
         x="0"
         style="overflow:visible"
         xlink:href="#SVGID_22_"
         overflow="visible"
         id="use5987" /></clipPath><clipPath
       id="clipPath5989"
       clip-path="url(#SVGID_23_)"><use
         height="100%"
         width="100%"
         y="0"
         x="0"
         style="overflow:visible"
         xlink:href="#SVGID_22_"
         overflow="visible"
         id="use5991" /></clipPath></defs><sodipodi:namedview
     pagecolor="#ffffff"
     bordercolor="#666666"
     borderopacity="1"
     objecttolerance="10"
     gridtolerance="10"
     guidetolerance="10"
     inkscape:pageopacity="0"
     inkscape:pageshadow="2"
     inkscape:window-width="1841"
     inkscape:window-height="1057"
     id="namedview1807"
     showgrid="false"
     inkscape:zoom="3.776"
     inkscape:cx="114.99578"
     inkscape:cy="50.097066"
     inkscape:window-x="1912"
     inkscape:window-y="-8"
     inkscape:window-maximized="1"
     inkscape:current-layer="g3" /><g
     id="g3"
     transform="translate(0,-1880)"><path
       inkscape:connector-curvature="0"
       style="fill:#fcf5bd"
       d="m 120.00002,1940 c 0,33.136 -26.863,60 -60,60 C 26.86302,2000 0,1973.136 0,1940 c 0,-33.137 26.86302,-60 60.00002,-60 33.137,0 60,26.863 60,60 l 0,0 z"
       id="path289" /><g
       transform="translate(-900,1251)"
       id="g291"><defs
         id="defs293"><polyline
           id="SVGID_21_"
           points="899.18,628.197 1019.18,628.197 1019.18,748.197 899.18,748.197 899.18,628.197    " /></defs><defs
         id="defs296"><path
           inkscape:connector-curvature="0"
           id="SVGID_22_"
           d="m 1020,688.999 c 0,33.137 -26.863,60 -60,60 -33.137,0 -60,-26.863 -60,-60 0,-33.136 26.863,-59.999 60,-59.999 33.137,0 60,26.863 60,59.999" /></defs><clipPath
         id="SVGID_23_"><use
           height="100%"
           width="100%"
           y="0"
           x="0"
           style="overflow:visible"
           xlink:href="#SVGID_21_"
           overflow="visible"
           id="use300" /></clipPath><clipPath
         id="clipPath6001"
         clip-path="url(#SVGID_23_)"><use
           height="100%"
           width="100%"
           y="0"
           x="0"
           style="overflow:visible"
           xlink:href="#SVGID_22_"
           overflow="visible"
           id="use6003" /></clipPath><polygon
         style="fill:#ffffff"
         clip-path="url(#SVGID_24_)"
         points="926.896,682.729 926.896,701.374 926.896,701.374 921.879,701.374 921.879,682.729 "
         id="polygon305" /><polygon
         style="fill:#ffffff"
         clip-path="url(#SVGID_24_)"
         points="926.896,658.657 926.896,677.3 926.896,677.3 921.879,677.3 921.879,658.657 "
         id="polygon307" /><polygon
         style="fill:#ffffff"
         clip-path="url(#SVGID_24_)"
         points="926.896,634.583 926.896,653.228 926.896,653.228 921.879,653.228 921.879,634.583 "
         id="polygon309" /><polygon
         style="fill:#ffffff"
         clip-path="url(#SVGID_24_)"
         points="926.896,706.804 926.896,725.448 926.896,725.448 921.879,725.448 921.879,706.804 "
         id="polygon311" /><polygon
         style="fill:#ffffff"
         clip-path="url(#SVGID_24_)"
         points="926.896,730.877 926.896,749.521 926.896,749.521 921.879,749.521 921.879,730.877 "
         id="polygon313" /><polygon
         style="fill:#ffffff"
         clip-path="url(#SVGID_24_)"
         points="997.373,682.729 997.373,701.374 997.373,701.374 992.355,701.374 992.355,682.729 "
         id="polygon315" /><polygon
         style="fill:#ffffff"
         clip-path="url(#SVGID_24_)"
         points="997.373,658.657 997.373,677.3 997.373,677.3 992.355,677.3 992.355,658.657 "
         id="polygon317" /><polygon
         style="fill:#ffffff"
         clip-path="url(#SVGID_24_)"
         points="997.373,634.583 997.373,653.228 997.373,653.228 992.355,653.228 992.355,634.583 "
         id="polygon319" /><polygon
         style="fill:#ffffff"
         clip-path="url(#SVGID_24_)"
         points="997.373,706.804 997.373,725.448 997.373,725.448 992.355,725.448 992.355,706.804 "
         id="polygon321" /><polygon
         style="fill:#ffffff"
         clip-path="url(#SVGID_24_)"
         points="997.373,730.877 997.373,749.521 997.373,749.521 992.355,749.521 992.355,730.877 "
         id="polygon323" /></g><path
       inkscape:connector-curvature="0"
       style="fill:#fade3d"
       d="m 87.09402,1942.324 c -0.1,0.272 -0.416,0.497 -0.707,0.497 l -3.961,0 c -0.291,0 -0.611,-0.224 -0.713,-0.494 l -0.758,-2.027 c -0.102,-0.271 -0.164,-0.73 -0.141,-1.021 l 1.039,-12.834 c 0.025,-0.29 0.281,-0.527 0.572,-0.527 l 3.961,0 c 0.291,0 0.547,0.237 0.568,0.527 l 0.996,12.834 c 0.023,0.29 -0.039,0.751 -0.137,1.023 l -0.719,2.022 0,0 z"
       id="path325" /><g
       transform="translate(-900,1251)"
       id="g327"><defs
         id="defs329"><path
           inkscape:connector-curvature="0"
           id="SVGID_25_"
           d="m 987.094,691.324 c -0.1,0.272 -0.416,0.497 -0.707,0.497 l -3.961,0 c -0.291,0 -0.613,-0.224 -0.713,-0.494 l -0.758,-2.027 c -0.102,-0.271 -0.164,-0.73 -0.143,-1.021 l 1.041,-12.834 c 0.025,-0.29 0.281,-0.527 0.572,-0.527 l 3.961,0 c 0.291,0 0.547,0.237 0.568,0.527 l 0.996,12.834 c 0.021,0.29 -0.039,0.751 -0.137,1.023 l -0.719,2.022" /></defs><clipPath
         id="clipPath6019"><use
           height="100%"
           width="100%"
           y="0"
           x="0"
           style="overflow:visible"
           xlink:href="#SVGID_25_"
           overflow="visible"
           id="use6021" /></clipPath><polygon
         style="fill:#fcc400"
         clip-path="url(#SVGID_26_)"
         points="984.383,667.732 984.383,698.397 984.383,698.397 974.783,698.397 974.783,667.732 "
         id="polygon335" /></g><path
       inkscape:connector-curvature="0"
       style="fill:#fade3d"
       d="m 38.53302,1942.324 c -0.098,0.272 -0.416,0.497 -0.707,0.497 l -3.961,0 c -0.291,0 -0.611,-0.224 -0.713,-0.494 l -0.758,-2.027 c -0.1,-0.271 -0.164,-0.73 -0.141,-1.021 l 1.041,-12.834 c 0.023,-0.29 0.279,-0.527 0.57,-0.527 l 3.961,0 c 0.291,0 0.547,0.237 0.57,0.527 l 0.994,12.834 c 0.023,0.29 -0.039,0.751 -0.137,1.023 l -0.719,2.022 0,0 z"
       id="path337" /><g
       transform="translate(-900,1251)"
       id="g339"><defs
         id="defs341"><path
           inkscape:connector-curvature="0"
           id="SVGID_27_"
           d="m 938.533,691.324 c -0.098,0.272 -0.416,0.497 -0.707,0.497 l -3.961,0 c -0.291,0 -0.611,-0.224 -0.713,-0.494 l -0.758,-2.027 c -0.1,-0.271 -0.164,-0.73 -0.141,-1.021 l 1.041,-12.834 c 0.023,-0.29 0.279,-0.527 0.57,-0.527 l 3.961,0 c 0.291,0 0.547,0.237 0.57,0.527 l 0.994,12.834 c 0.023,0.29 -0.039,0.751 -0.137,1.023 l -0.719,2.022" /></defs><clipPath
         id="clipPath6028"><use
           height="100%"
           width="100%"
           y="0"
           x="0"
           style="overflow:visible"
           xlink:href="#SVGID_27_"
           overflow="visible"
           id="use6030" /></clipPath><polygon
         style="fill:#fcc400"
         clip-path="url(#SVGID_28_)"
         points="935.822,667.732 935.822,698.397 935.822,698.397 926.225,698.397 926.225,667.732 "
         id="polygon347" /></g><path
       inkscape:connector-curvature="0"
       style="fill:#e3ab00"
       d="m 99.99402,1948.075 c 0.074,1.087 -0.717,1.743 -1.768,1.459 l -35.789,-9.68 c -1.053,-0.283 -1.904,-1.406 -1.891,-2.497 l 0.17,-15.512 c 0.014,-1.09 0.805,-1.553 1.76,-1.028 l 35.266,19.312 c 0.955,0.525 1.803,1.842 1.883,2.928 l 0.369,5.018 0,0 z"
       id="path349" /><path
       inkscape:connector-curvature="0"
       style="fill:#e3ab00"
       d="m 20.006,1948.075 c -0.08,1.087 0.715,1.743 1.766,1.459 l 35.79102,-9.68 c 1.053,-0.283 1.902,-1.406 1.891,-2.497 l -0.172,-15.512 c -0.012,-1.09 -0.803,-1.553 -1.758,-1.028 L 22.258,1940.129 c -0.955,0.525 -1.803,1.842 -1.883,2.928 l -0.369,5.018 0,0 z"
       id="path351" /><path
       inkscape:connector-curvature="0"
       style="fill:#e3ab00"
       d="m 80.80702,1976.837 c 0.037,0.637 -0.426,0.985 -1.027,0.774 l -18.148,-6.371 c -0.602,-0.211 -1.088,-0.906 -1.082,-1.543 l 0.09,-10.659 c 0.01,-0.637 0.436,-0.857 0.955,-0.488 l 17.996,12.796 c 0.518,0.37 0.973,1.192 1.01,1.828 l 0.206,3.663 0,0 z"
       id="path353" /><path
       inkscape:connector-curvature="0"
       style="fill:#e3ab00"
       d="m 39.73202,1976.837 c -0.037,0.637 0.426,0.985 1.025,0.774 l 18.148,-6.371 c 0.602,-0.211 1.088,-0.906 1.084,-1.543 l -0.09,-10.659 c -0.01,-0.637 -0.436,-0.857 -0.955,-0.488 l -17.996,12.796 c -0.52,0.37 -0.975,1.192 -1.01,1.828 l -0.206,3.663 0,0 z"
       id="path355" /><path
       inkscape:connector-curvature="0"
       style="fill:#ffdb00"
       d="m 68.29102,1970.31 c -0.105,2.803 -2.012,5.614 -4.24,6.25 -2.229,0.638 -5.873,0.638 -8.102,0 -2.229,-0.636 -4.137,-3.447 -4.24,-6.25 l -2.084,-56.488 c -0.104,-2.803 1.084,-7.005 2.637,-9.339 l 4.346,-6.525 c 1.555,-2.334 4.193,-2.4 5.863,-0.148 l 5.057,6.82 c 1.67,2.253 2.951,6.39 2.85,9.192 l -2.087,56.488 0,0 z"
       id="path357" /><g
       transform="translate(-900,1251)"
       id="g359"><defs
         id="defs361"><path
           inkscape:connector-curvature="0"
           id="SVGID_29_"
           d="m 968.291,719.31 c -0.105,2.803 -2.012,5.614 -4.24,6.25 -2.229,0.638 -5.873,0.638 -8.102,0 -2.229,-0.636 -4.137,-3.447 -4.24,-6.25 l -2.084,-56.488 c -0.104,-2.803 1.084,-7.005 2.637,-9.339 l 4.346,-6.526 c 1.555,-2.334 4.193,-2.399 5.863,-0.147 l 5.057,6.82 c 1.67,2.253 2.951,6.39 2.85,9.192 l -2.087,56.488" /></defs><clipPath
         id="clipPath6041"><use
           height="100%"
           width="100%"
           y="0"
           x="0"
           style="overflow:visible"
           xlink:href="#SVGID_29_"
           overflow="visible"
           id="use6043" /></clipPath><polygon
         style="fill:#fcc400"
         clip-path="url(#SVGID_30_)"
         points="942.604,638.133 942.604,750.581 942.604,750.581 959.99,750.581 959.99,638.133 "
         id="polygon367" /></g><path
       inkscape:connector-curvature="0"
       style="fill:#fcc400"
       d="m 63.38902,1983.216 c -0.121,0.341 -0.52,0.621 -0.881,0.621 l -4.953,0 c -0.363,0 -0.764,-0.278 -0.891,-0.618 l -0.947,-2.532 c -0.127,-0.34 -0.207,-0.913 -0.176,-1.275 l 1.301,-16.042 c 0.029,-0.364 0.35,-0.66 0.713,-0.66 l 4.953,0 c 0.361,0 0.682,0.296 0.711,0.66 l 1.244,16.042 c 0.027,0.362 -0.049,0.938 -0.172,1.279 l -0.902,2.525 0,0 z"
       id="path369" /><g
       transform="translate(-900,1251)"
       id="g371"><defs
         id="defs373"><path
           inkscape:connector-curvature="0"
           id="SVGID_31_"
           d="m 963.389,732.216 c -0.121,0.341 -0.52,0.621 -0.881,0.621 l -4.953,0 c -0.363,0 -0.764,-0.278 -0.891,-0.618 l -0.947,-2.532 c -0.127,-0.34 -0.207,-0.913 -0.176,-1.275 l 1.301,-16.042 c 0.029,-0.364 0.35,-0.66 0.713,-0.66 l 4.953,0 c 0.361,0 0.682,0.296 0.711,0.66 l 1.244,16.042 c 0.027,0.362 -0.049,0.938 -0.172,1.279 l -0.902,2.525" /></defs><clipPath
         id="clipPath6050"><use
           height="100%"
           width="100%"
           y="0"
           x="0"
           style="overflow:visible"
           xlink:href="#SVGID_31_"
           overflow="visible"
           id="use6052" /></clipPath><polygon
         style="fill:#e3ab00"
         clip-path="url(#SVGID_32_)"
         points="960.002,702.728 960.002,741.058 960.002,741.058 948.004,741.058 948.004,702.728 "
         id="polygon379" /></g><path
       inkscape:connector-curvature="0"
       style="fill:#ffffff"
       d="m 65.17802,1911.65 c 0,0 -0.807,-5.248 -5.25,-5.248 -4.441,0 -5.105,5.48 -5.105,5.48 0,0 2.451,-2.739 5.105,-2.739 2.656,10e-4 5.25,2.507 5.25,2.507 l 0,0 z"
       id="path381" /></g></svg>