<?xml version="1.0" encoding="UTF-8" standalone="no"?>
<!-- Generator: Adobe Illustrator 16.0.0, SVG Export Plug-In . SVG Version: 6.00 Build 0)  -->

<svg
   xmlns:dc="http://purl.org/dc/elements/1.1/"
   xmlns:cc="http://creativecommons.org/ns#"
   xmlns:rdf="http://www.w3.org/1999/02/22-rdf-syntax-ns#"
   xmlns:svg="http://www.w3.org/2000/svg"
   xmlns="http://www.w3.org/2000/svg"
   xmlns:sodipodi="http://sodipodi.sourceforge.net/DTD/sodipodi-0.dtd"
   xmlns:inkscape="http://www.inkscape.org/namespaces/inkscape"
   version="1.1"
   id="Ebene_1"
   x="0px"
   y="0px"
   width="94"
   height="67"
   viewBox="0 0 94 67"
   enable-background="new 0 0 1280 3000"
   xml:space="preserve"
   inkscape:version="0.91 r13725"
   sodipodi:docname="friends-data.svg"><metadata
     id="metadata545"><rdf:RDF><cc:Work
         rdf:about=""><dc:format>image/svg+xml</dc:format><dc:type
           rdf:resource="http://purl.org/dc/dcmitype/StillImage" /><dc:title></dc:title></cc:Work></rdf:RDF></metadata><defs
     id="defs543" /><sodipodi:namedview
     pagecolor="#ffffff"
     bordercolor="#666666"
     borderopacity="1"
     objecttolerance="10"
     gridtolerance="10"
     guidetolerance="10"
     inkscape:pageopacity="0"
     inkscape:pageshadow="2"
     inkscape:window-width="1851"
     inkscape:window-height="1057"
     id="namedview541"
     showgrid="false"
     inkscape:zoom="0.89001173"
     inkscape:cx="640"
     inkscape:cy="47.813655"
     inkscape:window-x="1912"
     inkscape:window-y="-8"
     inkscape:window-maximized="1"
     inkscape:current-layer="g3" /><g
     id="g3"
     transform="translate(0,-2933)"><text
       transform="translate(197.9189,2633.25)"
       font-size="14"
       id="text175"
       style="font-size:14px;font-family:PTSans-Bold;fill:#4d4d4d" />
<text
       transform="translate(253.9736,2633.25)"
       font-size="14"
       id="text181"
       style="font-size:14px;font-family:PTSans-Bold;fill:#4d4d4d" />
<text
       transform="translate(392.5049,2633.25)"
       font-size="14"
       id="text187"
       style="font-size:14px;font-family:PTSans-Bold;fill:#4d4d4d" />
<text
       transform="translate(403.1299,2633.25)"
       font-size="14"
       id="text189"
       style="font-size:14px;font-family:PTSans-Bold;fill:#4d4d4d" />
<text
       transform="translate(413.0049,2633.25)"
       font-size="14"
       id="text193"
       style="font-size:14px;font-family:PTSans-Bold;fill:#4d4d4d" />
<text
       transform="translate(533.583,2633.25)"
       font-size="14"
       id="text199"
       style="font-size:14px;font-family:PTSans-Bold;fill:#4d4d4d" />
<text
       transform="translate(543.4502,2633.25)"
       font-size="14"
       id="text203"
       style="font-size:14px;font-family:PTSans-Bold;fill:#4d4d4d" />
<text
       transform="translate(633.2002,2633.25)"
       font-size="14"
       id="text209"
       style="font-size:14px;font-family:PTSans-Bold;fill:#4d4d4d" />
<text
       transform="translate(643.0752,2633.25)"
       font-size="14"
       id="text213"
       style="font-size:14px;font-family:PTSans-Bold;fill:#4d4d4d" />
<text
       transform="translate(235.4111,2821.3672)"
       font-size="14"
       id="text223"
       style="font-size:14px;font-family:PTSans-Regular;fill:#009ec4" />
<text
       transform="translate(457.8564,635.75)"
       font-size="18"
       id="text333"
       style="font-size:18px;font-family:PTSans-Regular;fill:#009ec4" />
<text
       transform="translate(910.5596,572)"
       font-size="18"
       id="text393"
       style="font-size:18px;font-family:PTSans-Regular;fill:#57c2db" />
<text
       transform="translate(915.3721,572)"
       font-size="18"
       id="text395"
       style="font-size:18px;font-family:PTSans-Regular;fill:#57c2db" />
<path
       d="m 33.804,2953.463 0,-7.371 c 0,-7.11 5.783,-12.893 12.893,-12.893 7.107,0 12.892,5.783 12.892,12.893 l 0,7.371 c 0,7.109 -5.784,12.892 -12.892,12.892 -7.11,0 -12.893,-5.783 -12.893,-12.892 l 0,0 z m 42.582,10.676 c 5.299,0 9.608,-4.311 9.608,-9.607 l 0,-5.335 c 0,-5.301 -4.31,-9.612 -9.608,-9.612 -5.298,0 -9.607,4.311 -9.607,9.612 l 0,5.335 c -10e-4,5.296 4.308,9.607 9.607,9.607 l 0,0 z m -58.774,0 c 5.297,0 9.606,-4.311 9.606,-9.607 l 0,-5.335 c 0,-5.301 -4.31,-9.612 -9.606,-9.612 -5.3,0 -9.61,4.311 -9.61,9.612 l 0,5.335 c 0,5.296 4.31,9.607 9.61,9.607 l 0,0 z m 0.435,19.473 c 0,-6.778 3.858,-12.661 9.489,-15.598 -0.622,-0.129 -1.263,-0.2 -1.922,-0.2 l -16.007,0 c -5.299,0 -9.607,4.312 -9.607,9.61 l 0,13.009 c 0,0.886 0.718,1.605 1.604,1.605 l 16.443,0 0,-8.426 0,0 z m 66.343,-15.798 -16.008,0 c -0.802,0 -1.576,0.111 -2.319,0.299 5.52,2.971 9.282,8.803 9.282,15.499 l 0,8.426 17.05,0 c 0.888,0 1.605,-0.72 1.605,-1.605 l 0,-13.009 c 0,-5.299 -4.311,-9.61 -9.61,-9.61 l 0,0 z m -26.638,2.906 -22.113,0 c -7.109,0 -12.892,5.783 -12.892,12.892 l 0,14.554 c 0,1.013 0.821,1.834 1.834,1.834 l 44.229,0 c 1.015,0 1.835,-0.821 1.835,-1.834 l 0,-14.554 c -10e-4,-7.109 -5.783,-12.892 -12.893,-12.892 l 0,0 z"
       id="path411"
       inkscape:connector-curvature="0"
       style="fill:#57c2db" /><text
       transform="translate(427.3018,30.25)"
       font-size="14"
       id="text445"
       style="font-size:14px;font-family:PTSans-Bold;fill:#ffffff" />
<text
       transform="translate(472.7314,30.25)"
       font-size="14"
       id="text451"
       style="font-size:14px;font-family:PTSans-Regular;fill:#ffffff" />
<text
       transform="translate(483.9424,30.25)"
       font-size="14"
       id="text453"
       style="font-size:14px;font-family:PTSans-Regular;fill:#ffffff" />
<text
       transform="translate(563.6846,30.25)"
       font-size="14"
       id="text459"
       style="font-size:14px;font-family:PTSans-Bold;fill:#ffffff" />
</g></svg>