<?xml version="1.0" encoding="UTF-8" standalone="no"?>
<!-- Generator: Adobe Illustrator 16.0.0, SVG Export Plug-In . SVG Version: 6.00 Build 0)  -->

<svg
   xmlns:dc="http://purl.org/dc/elements/1.1/"
   xmlns:cc="http://creativecommons.org/ns#"
   xmlns:rdf="http://www.w3.org/1999/02/22-rdf-syntax-ns#"
   xmlns:svg="http://www.w3.org/2000/svg"
   xmlns="http://www.w3.org/2000/svg"
   xmlns:xlink="http://www.w3.org/1999/xlink"
   xmlns:sodipodi="http://sodipodi.sourceforge.net/DTD/sodipodi-0.dtd"
   xmlns:inkscape="http://www.inkscape.org/namespaces/inkscape"
   version="1.1"
   id="Ebene_1"
   x="0px"
   y="0px"
   width="25"
   height="24"
   viewBox="0 0 25 24"
   enable-background="new 0 0 1280 6000"
   xml:space="preserve"
   inkscape:version="0.91 r13725"
   sodipodi:docname="freinds.svg"><metadata
     id="metadata5687"><rdf:RDF><cc:Work
         rdf:about=""><dc:format>image/svg+xml</dc:format><dc:type
           rdf:resource="http://purl.org/dc/dcmitype/StillImage" /><dc:title></dc:title></cc:Work></rdf:RDF></metadata><defs
     id="defs5685" /><sodipodi:namedview
     pagecolor="#ffffff"
     bordercolor="#666666"
     borderopacity="1"
     objecttolerance="10"
     gridtolerance="10"
     guidetolerance="10"
     inkscape:pageopacity="0"
     inkscape:pageshadow="2"
     inkscape:window-width="1851"
     inkscape:window-height="1057"
     id="namedview5683"
     showgrid="false"
     inkscape:zoom="4.5226667"
     inkscape:cx="114.05942"
     inkscape:cy="41.171615"
     inkscape:window-x="1912"
     inkscape:window-y="-8"
     inkscape:window-maximized="1"
     inkscape:current-layer="g4067"
     showborder="true" /><text
     id="text4001"
     x="410"
     y="-5946.25"><tspan
       x="410"
       y="-5946.25"
       font-size="14"
       id="tspan4003"
       style="font-size:14px;font-family:PTSans-Bold;fill:#ffffff">Fl</tspan><tspan
       x="421.228"
       y="-5946.25"
       font-size="14"
       id="tspan4005"
       style="font-size:14px;font-family:PTSans-Bold;fill:#ffffff">y </tspan><tspan
       x="430.48099"
       y="-5946.25"
       font-size="14"
       id="tspan4007"
       style="font-size:14px;font-family:PTSans-Bold;fill:#ffffff">Tic</tspan><tspan
       x="448.26199"
       y="-5946.25"
       font-size="14"
       id="tspan4009"
       style="font-size:14px;font-family:PTSans-Bold;fill:#ffffff">k</tspan><tspan
       x="454.98099"
       y="-5946.25"
       font-size="14"
       id="tspan4011"
       style="font-size:14px;font-family:PTSans-Bold;fill:#ffffff">ets</tspan></text>
<text
     font-size="14"
     id="text4013"
     style="font-size:14px;font-family:PTSans-Regular;fill:#ffffff"
     x="472.8457"
     y="-5946.25" />
<text
     id="text4015"
     x="257.65466"
     y="-12.556919"><tspan
       x="257.65466"
       y="-12.556919"
       font-size="14"
       letter-spacing="-1"
       id="tspan4017"
       style="font-size:14px;font-family:PTSans-Bold;letter-spacing:-1;fill:#ffffff">T</tspan><tspan
       x="264.13666"
       y="-12.556919"
       font-size="14"
       id="tspan4019"
       style="font-size:14px;font-family:PTSans-Bold;fill:#ffffff">ra</tspan><tspan
       x="275.99466"
       y="-12.556919"
       font-size="14"
       id="tspan4021"
       style="font-size:14px;font-family:PTSans-Bold;fill:#ffffff">v</tspan><tspan
       x="282.57367"
       y="-12.556919"
       font-size="14"
       id="tspan4023"
       style="font-size:14px;font-family:PTSans-Bold;fill:#ffffff">el budd</tspan><tspan
       x="327.47168"
       y="-12.556919"
       font-size="14"
       id="tspan4025"
       style="font-size:14px;font-family:PTSans-Bold;fill:#ffffff">y</tspan><tspan
       x="333.67365"
       y="-12.556919"
       font-size="14"
       id="tspan4027"
       style="font-size:14px;font-family:PTSans-Bold;fill:#ffffff" /><tspan
       x="344.29865"
       y="-12.556919"
       font-size="14"
       id="tspan4029"
       style="font-size:14px;font-family:PTSans-Bold;fill:#ffffff" /><tspan
       x="347.35065"
       y="-12.556919"
       font-size="14"
       letter-spacing="-1"
       id="tspan4031"
       style="font-size:14px;font-family:PTSans-Bold;letter-spacing:-1;fill:#ffffff">T</tspan><tspan
       x="353.83264"
       y="-12.556919"
       font-size="14"
       id="tspan4033"
       style="font-size:14px;font-family:PTSans-Bold;fill:#ffffff">ra</tspan><tspan
       x="365.69067"
       y="-12.556919"
       font-size="14"
       id="tspan4035"
       style="font-size:14px;font-family:PTSans-Bold;fill:#ffffff">v</tspan><tspan
       x="372.28467"
       y="-12.556919"
       font-size="14"
       id="tspan4037"
       style="font-size:14px;font-family:PTSans-Bold;fill:#ffffff">el organi</tspan><tspan
       x="425.32965"
       y="-12.556919"
       font-size="14"
       id="tspan4039"
       style="font-size:14px;font-family:PTSans-Bold;fill:#ffffff">z</tspan><tspan
       x="431.62964"
       y="-12.556919"
       font-size="14"
       id="tspan4041"
       style="font-size:14px;font-family:PTSans-Bold;fill:#ffffff">er   </tspan><tspan
       x="454.28064"
       y="-12.556919"
       font-size="14"
       id="tspan4043"
       style="font-size:14px;font-family:PTSans-Bold;fill:#ffffff" /><tspan
       x="457.31866"
       y="-12.556919"
       font-size="14"
       letter-spacing="-1"
       id="tspan4045"
       style="font-size:14px;font-family:PTSans-Bold;letter-spacing:-1;fill:#ffffff">T</tspan><tspan
       x="463.81464"
       y="-12.556919"
       font-size="14"
       id="tspan4047"
       style="font-size:14px;font-family:PTSans-Bold;fill:#ffffff">ra</tspan><tspan
       x="475.67267"
       y="-12.556919"
       font-size="14"
       id="tspan4049"
       style="font-size:14px;font-family:PTSans-Bold;fill:#ffffff">v</tspan><tspan
       x="482.26563"
       y="-12.556919"
       font-size="14"
       id="tspan4051"
       style="font-size:14px;font-family:PTSans-Bold;fill:#ffffff">el map   </tspan><tspan
       x="533.43463"
       y="-12.556919"
       font-size="14"
       id="tspan4053"
       style="font-size:14px;font-family:PTSans-Bold;fill:#ffffff" /><tspan
       x="536.47266"
       y="-12.556919"
       font-size="14"
       letter-spacing="-1"
       id="tspan4055"
       style="font-size:14px;font-family:PTSans-Bold;letter-spacing:-1;fill:#ffffff">T</tspan><tspan
       x="542.95563"
       y="-12.556919"
       font-size="14"
       id="tspan4057"
       style="font-size:14px;font-family:PTSans-Bold;fill:#ffffff">ra</tspan><tspan
       x="554.81262"
       y="-12.556919"
       font-size="14"
       id="tspan4059"
       style="font-size:14px;font-family:PTSans-Bold;fill:#ffffff">v</tspan><tspan
       x="561.40668"
       y="-12.556919"
       font-size="14"
       id="tspan4061"
       style="font-size:14px;font-family:PTSans-Bold;fill:#ffffff">el</tspan><tspan
       x="572.63367"
       y="-12.556919"
       font-size="14"
       id="tspan4063"
       style="font-size:14px;font-family:PTSans-Bold;fill:#ffffff" /><tspan
       x="576.00867"
       y="-12.556919"
       font-size="14"
       id="tspan4065"
       style="font-size:14px;font-family:PTSans-Bold;fill:#ffffff">wiki</tspan></text>
<g
     id="g4067"
     transform="translate(0,-5976)"><defs
       id="defs4069"><rect
         id="SVGID_63_"
         y="0.001"
         width="1280"
         height="5999.999"
         x="0" /></defs><clipPath
       id="SVGID_64_"><use
         xlink:href="#SVGID_63_"
         overflow="visible"
         id="use4073"
         style="overflow:visible"
         x="0"
         y="0"
         width="100%"
         height="100%" /></clipPath><path
       clip-path="url(#SVGID_64_)"
       d="m 962.455,29.255 c -0.128,-0.042 -0.917,-0.855 -0.424,-2.383 l -0.005,0 c 1.287,-1.349 2.393,-3.521 2.393,-5.654 0,-3.287 -2.271,-5.012 -4.771,-5.012 -2.502,0 -4.673,1.725 -4.673,5.012 0,2.143 1.011,4.324 2.31,5.668 0.503,1.349 -0.4,2.298 -0.59,2.369 -2.616,0.959 -5.691,2.712 -5.691,4.442 l 0,0.648 c 0,2.36 4.503,2.896 8.668,2.896 4.174,0 8.62,-0.536 8.62,-2.896 l 0,-0.648 c 0,-1.781 -3.088,-3.52 -5.837,-4.442"
       id="path4085"
       inkscape:connector-curvature="0"
       style="fill:#58c2da"
       transform="translate(-951.004,5962.759)" /><path
       clip-path="url(#SVGID_64_)"
       d="m 970.506,24.921 c -0.117,-0.038 -0.86,-0.221 -0.4,-1.659 l -0.004,0 c 1.212,-1.264 2.049,-3.309 2.049,-5.316 0,-3.089 -1.932,-4.705 -4.286,-4.705 -1.729,0 -3.22,0.884 -3.888,2.575 1.401,1.161 2.369,2.966 2.369,5.397 0,2.599 -1.217,4.968 -2.49,6.496 2.03,0.766 5.198,2.312 6.105,4.667 3.191,-0.174 6.035,-0.841 6.035,-2.665 l 0,-0.611 c -0.005,-1.673 -2.905,-3.308 -5.49,-4.179"
       id="path4087"
       inkscape:connector-curvature="0"
       style="fill:#58c2da"
       transform="translate(-951.004,5962.759)" /></g><text
     id="text4921"
     x="170"
     y="-5691.3906"><tspan
       x="170"
       y="-5691.3906"
       font-size="42"
       id="tspan4923"
       style="font-size:42px;font-family:Lato-Bold;fill:#ffffff">t</tspan><tspan
       x="186.254"
       y="-5691.3906"
       font-size="42"
       id="tspan4925"
       style="font-size:42px;font-family:Lato-Bold;fill:#ffffff">r</tspan><tspan
       x="202.82199"
       y="-5691.3906"
       font-size="42"
       id="tspan4927"
       style="font-size:42px;font-family:Lato-Bold;fill:#ffffff">a</tspan><tspan
       x="224.05301"
       y="-5691.3906"
       font-size="42"
       id="tspan4929"
       style="font-size:42px;font-family:Lato-Bold;fill:#ffffff">v</tspan><tspan
       x="245.78799"
       y="-5691.3906"
       font-size="42"
       id="tspan4931"
       style="font-size:42px;font-family:Lato-Bold;fill:#ffffff">el the world</tspan></text>
<g
     id="g4933"
     transform="translate(0,-5976)"><defs
       id="defs4935"><rect
         id="SVGID_181_"
         y="0.001"
         width="1280"
         height="5999.999"
         x="0" /></defs><clipPath
       id="SVGID_182_"><use
         xlink:href="#SVGID_181_"
         overflow="visible"
         id="use4939"
         style="overflow:visible"
         x="0"
         y="0"
         width="100%"
         height="100%" /></clipPath><path
       clip-path="url(#SVGID_182_)"
       d="m 173,318 c 0,0 -3,0 -3,3 l 0,34 c 0,0 0,3 3,3 l 112,0 c 0,0 3,0 3,-3 l 0,-34 c 0,0 0,-3 -3,-3 l -112,0 z"
       id="path4941"
       inkscape:connector-curvature="0"
       style="fill:#ffffff" /></g></svg>