<?xml version="1.0" encoding="UTF-8" standalone="no"?>
<!-- Generator: Adobe Illustrator 16.0.0, SVG Export Plug-In . SVG Version: 6.00 Build 0)  -->

<svg
   xmlns:dc="http://purl.org/dc/elements/1.1/"
   xmlns:cc="http://creativecommons.org/ns#"
   xmlns:rdf="http://www.w3.org/1999/02/22-rdf-syntax-ns#"
   xmlns:svg="http://www.w3.org/2000/svg"
   xmlns="http://www.w3.org/2000/svg"
   xmlns:xlink="http://www.w3.org/1999/xlink"
   xmlns:sodipodi="http://sodipodi.sourceforge.net/DTD/sodipodi-0.dtd"
   xmlns:inkscape="http://www.inkscape.org/namespaces/inkscape"
   version="1.1"
   id="Ebene_1"
   x="0px"
   y="0px"
   width="28.445"
   height="24"
   viewBox="0 0 28.445 24"
   enable-background="new 0 0 1280 6000"
   xml:space="preserve"
   inkscape:version="0.91 r13725"
   sodipodi:docname="logout.svg"><metadata
     id="metadata5687"><rdf:RDF><cc:Work
         rdf:about=""><dc:format>image/svg+xml</dc:format><dc:type
           rdf:resource="http://purl.org/dc/dcmitype/StillImage" /><dc:title></dc:title></cc:Work></rdf:RDF></metadata><defs
     id="defs5685" /><sodipodi:namedview
     pagecolor="#ffffff"
     bordercolor="#666666"
     borderopacity="1"
     objecttolerance="10"
     gridtolerance="10"
     guidetolerance="10"
     inkscape:pageopacity="0"
     inkscape:pageshadow="2"
     inkscape:window-width="1851"
     inkscape:window-height="1057"
     id="namedview5683"
     showgrid="false"
     inkscape:zoom="4.5226667"
     inkscape:cx="114.05942"
     inkscape:cy="68.353251"
     inkscape:window-x="1912"
     inkscape:window-y="-8"
     inkscape:window-maximized="1"
     inkscape:current-layer="g4067"
     showborder="true" /><text
     id="text4001"
     x="410"
     y="-5946.25"><tspan
       x="410"
       y="-5946.25"
       font-size="14"
       id="tspan4003"
       style="font-size:14px;font-family:PTSans-Bold;fill:#ffffff">Fl</tspan><tspan
       x="421.228"
       y="-5946.25"
       font-size="14"
       id="tspan4005"
       style="font-size:14px;font-family:PTSans-Bold;fill:#ffffff">y </tspan><tspan
       x="430.48099"
       y="-5946.25"
       font-size="14"
       id="tspan4007"
       style="font-size:14px;font-family:PTSans-Bold;fill:#ffffff">Tic</tspan><tspan
       x="448.26199"
       y="-5946.25"
       font-size="14"
       id="tspan4009"
       style="font-size:14px;font-family:PTSans-Bold;fill:#ffffff">k</tspan><tspan
       x="454.98099"
       y="-5946.25"
       font-size="14"
       id="tspan4011"
       style="font-size:14px;font-family:PTSans-Bold;fill:#ffffff">ets</tspan></text>
<text
     font-size="14"
     id="text4013"
     style="font-size:14px;font-family:PTSans-Regular;fill:#ffffff"
     x="472.8457"
     y="-5946.25" />
<text
     id="text4015"
     x="257.65466"
     y="-12.556919"><tspan
       x="257.65466"
       y="-12.556919"
       font-size="14"
       letter-spacing="-1"
       id="tspan4017"
       style="font-size:14px;font-family:PTSans-Bold;letter-spacing:-1;fill:#ffffff">T</tspan><tspan
       x="264.13666"
       y="-12.556919"
       font-size="14"
       id="tspan4019"
       style="font-size:14px;font-family:PTSans-Bold;fill:#ffffff">ra</tspan><tspan
       x="275.99466"
       y="-12.556919"
       font-size="14"
       id="tspan4021"
       style="font-size:14px;font-family:PTSans-Bold;fill:#ffffff">v</tspan><tspan
       x="282.57367"
       y="-12.556919"
       font-size="14"
       id="tspan4023"
       style="font-size:14px;font-family:PTSans-Bold;fill:#ffffff">el budd</tspan><tspan
       x="327.47168"
       y="-12.556919"
       font-size="14"
       id="tspan4025"
       style="font-size:14px;font-family:PTSans-Bold;fill:#ffffff">y</tspan><tspan
       x="333.67365"
       y="-12.556919"
       font-size="14"
       id="tspan4027"
       style="font-size:14px;font-family:PTSans-Bold;fill:#ffffff" /><tspan
       x="344.29865"
       y="-12.556919"
       font-size="14"
       id="tspan4029"
       style="font-size:14px;font-family:PTSans-Bold;fill:#ffffff" /><tspan
       x="347.35065"
       y="-12.556919"
       font-size="14"
       letter-spacing="-1"
       id="tspan4031"
       style="font-size:14px;font-family:PTSans-Bold;letter-spacing:-1;fill:#ffffff">T</tspan><tspan
       x="353.83264"
       y="-12.556919"
       font-size="14"
       id="tspan4033"
       style="font-size:14px;font-family:PTSans-Bold;fill:#ffffff">ra</tspan><tspan
       x="365.69067"
       y="-12.556919"
       font-size="14"
       id="tspan4035"
       style="font-size:14px;font-family:PTSans-Bold;fill:#ffffff">v</tspan><tspan
       x="372.28467"
       y="-12.556919"
       font-size="14"
       id="tspan4037"
       style="font-size:14px;font-family:PTSans-Bold;fill:#ffffff">el organi</tspan><tspan
       x="425.32965"
       y="-12.556919"
       font-size="14"
       id="tspan4039"
       style="font-size:14px;font-family:PTSans-Bold;fill:#ffffff">z</tspan><tspan
       x="431.62964"
       y="-12.556919"
       font-size="14"
       id="tspan4041"
       style="font-size:14px;font-family:PTSans-Bold;fill:#ffffff">er   </tspan><tspan
       x="454.28064"
       y="-12.556919"
       font-size="14"
       id="tspan4043"
       style="font-size:14px;font-family:PTSans-Bold;fill:#ffffff" /><tspan
       x="457.31866"
       y="-12.556919"
       font-size="14"
       letter-spacing="-1"
       id="tspan4045"
       style="font-size:14px;font-family:PTSans-Bold;letter-spacing:-1;fill:#ffffff">T</tspan><tspan
       x="463.81464"
       y="-12.556919"
       font-size="14"
       id="tspan4047"
       style="font-size:14px;font-family:PTSans-Bold;fill:#ffffff">ra</tspan><tspan
       x="475.67267"
       y="-12.556919"
       font-size="14"
       id="tspan4049"
       style="font-size:14px;font-family:PTSans-Bold;fill:#ffffff">v</tspan><tspan
       x="482.26563"
       y="-12.556919"
       font-size="14"
       id="tspan4051"
       style="font-size:14px;font-family:PTSans-Bold;fill:#ffffff">el map   </tspan><tspan
       x="533.43463"
       y="-12.556919"
       font-size="14"
       id="tspan4053"
       style="font-size:14px;font-family:PTSans-Bold;fill:#ffffff" /><tspan
       x="536.47266"
       y="-12.556919"
       font-size="14"
       letter-spacing="-1"
       id="tspan4055"
       style="font-size:14px;font-family:PTSans-Bold;letter-spacing:-1;fill:#ffffff">T</tspan><tspan
       x="542.95563"
       y="-12.556919"
       font-size="14"
       id="tspan4057"
       style="font-size:14px;font-family:PTSans-Bold;fill:#ffffff">ra</tspan><tspan
       x="554.81262"
       y="-12.556919"
       font-size="14"
       id="tspan4059"
       style="font-size:14px;font-family:PTSans-Bold;fill:#ffffff">v</tspan><tspan
       x="561.40668"
       y="-12.556919"
       font-size="14"
       id="tspan4061"
       style="font-size:14px;font-family:PTSans-Bold;fill:#ffffff">el</tspan><tspan
       x="572.63367"
       y="-12.556919"
       font-size="14"
       id="tspan4063"
       style="font-size:14px;font-family:PTSans-Bold;fill:#ffffff" /><tspan
       x="576.00867"
       y="-12.556919"
       font-size="14"
       id="tspan4065"
       style="font-size:14px;font-family:PTSans-Bold;fill:#ffffff">wiki</tspan></text>
<g
     id="g4067"
     transform="translate(0,-5976)"><defs
       id="defs4069"><rect
         id="SVGID_63_"
         y="0.001"
         width="1280"
         height="5999.999"
         x="0" /></defs><clipPath
       id="SVGID_64_"><use
         xlink:href="#SVGID_63_"
         overflow="visible"
         id="use4073"
         style="overflow:visible"
         x="0"
         y="0"
         width="100%"
         height="100%" /></clipPath><path
       clip-path="url(#SVGID_64_)"
       d="m 919.835,28.298 c -0.521,0.521 -0.521,1.365 0,1.886 0.26,0.26 0.602,0.39 0.942,0.39 0.34,0 0.683,-0.13 0.943,-0.39 l 3.999,-4 0.089,-0.098 0.034,-0.046 0.044,-0.059 0.034,-0.057 0.032,-0.055 0.029,-0.059 0.027,-0.059 0.021,-0.059 0.023,-0.064 0.015,-0.06 0.017,-0.067 0.011,-0.069 0.009,-0.06 0.006,-0.129 0,-0.002 0,-0.001 -0.006,-0.129 -0.009,-0.059 -0.011,-0.07 -0.017,-0.067 -0.015,-0.06 -0.022,-0.063 -0.021,-0.06 -0.027,-0.058 -0.029,-0.061 -0.031,-0.053 -0.035,-0.058 -0.042,-0.057 -0.036,-0.048 -0.084,-0.093 -0.004,-0.005 -4,-4 c -0.521,-0.521 -1.365,-0.52 -1.886,0 -0.521,0.521 -0.521,1.365 0,1.886 l 1.724,1.724 -15.449,0 c -0.735,0 -1.333,0.597 -1.333,1.333 0,0.736 0.598,1.334 1.333,1.334 l 15.448,0 -1.723,1.722 z"
       id="path4081"
       inkscape:connector-curvature="0"
       style="fill:#58c2da"
       transform="translate(-904.777,5962.759)" /><path
       clip-path="url(#SVGID_64_)"
       d="m 931.889,13.241 -16.889,0 c -0.736,0 -1.333,0.597 -1.333,1.333 l 0,5.334 c 0,0.736 0.597,1.333 1.333,1.333 0.737,0 1.333,-0.597 1.333,-1.333 l 0,-4 14.223,0 0,18.666 -14.223,0 0,-4 c 0,-0.736 -0.596,-1.333 -1.333,-1.333 -0.736,0 -1.333,0.597 -1.333,1.333 l 0,5.334 c 0,0.736 0.597,1.333 1.333,1.333 l 16.889,0 c 0.737,0 1.333,-0.597 1.333,-1.333 l 0,-21.334 c 0,-0.736 -0.596,-1.333 -1.333,-1.333"
       id="path4083"
       inkscape:connector-curvature="0"
       style="fill:#58c2da"
       transform="translate(-904.777,5962.759)" /></g><text
     id="text4921"
     x="170"
     y="-5691.3906"><tspan
       x="170"
       y="-5691.3906"
       font-size="42"
       id="tspan4923"
       style="font-size:42px;font-family:Lato-Bold;fill:#ffffff">t</tspan><tspan
       x="186.254"
       y="-5691.3906"
       font-size="42"
       id="tspan4925"
       style="font-size:42px;font-family:Lato-Bold;fill:#ffffff">r</tspan><tspan
       x="202.82199"
       y="-5691.3906"
       font-size="42"
       id="tspan4927"
       style="font-size:42px;font-family:Lato-Bold;fill:#ffffff">a</tspan><tspan
       x="224.05301"
       y="-5691.3906"
       font-size="42"
       id="tspan4929"
       style="font-size:42px;font-family:Lato-Bold;fill:#ffffff">v</tspan><tspan
       x="245.78799"
       y="-5691.3906"
       font-size="42"
       id="tspan4931"
       style="font-size:42px;font-family:Lato-Bold;fill:#ffffff">el the world</tspan></text>
<g
     id="g4933"
     transform="translate(0,-5976)"><defs
       id="defs4935"><rect
         id="SVGID_181_"
         y="0.001"
         width="1280"
         height="5999.999"
         x="0" /></defs><clipPath
       id="SVGID_182_"><use
         xlink:href="#SVGID_181_"
         overflow="visible"
         id="use4939"
         style="overflow:visible"
         x="0"
         y="0"
         width="100%"
         height="100%" /></clipPath><path
       clip-path="url(#SVGID_182_)"
       d="m 173,318 c 0,0 -3,0 -3,3 l 0,34 c 0,0 0,3 3,3 l 112,0 c 0,0 3,0 3,-3 l 0,-34 c 0,0 0,-3 -3,-3 l -112,0 z"
       id="path4941"
       inkscape:connector-curvature="0"
       style="fill:#ffffff" /></g></svg>