<?xml version="1.0" encoding="UTF-8" standalone="no"?>
<!-- Generator: Adobe Illustrator 16.0.0, SVG Export Plug-In . SVG Version: 6.00 Build 0)  -->

<svg
   xmlns:dc="http://purl.org/dc/elements/1.1/"
   xmlns:cc="http://creativecommons.org/ns#"
   xmlns:rdf="http://www.w3.org/1999/02/22-rdf-syntax-ns#"
   xmlns:svg="http://www.w3.org/2000/svg"
   xmlns="http://www.w3.org/2000/svg"
   xmlns:sodipodi="http://sodipodi.sourceforge.net/DTD/sodipodi-0.dtd"
   xmlns:inkscape="http://www.inkscape.org/namespaces/inkscape"
   version="1.1"
   id="Ebene_1"
   x="0px"
   y="0px"
   width="94"
   height="82"
   viewBox="0 0 94 82"
   enable-background="new 0 0 1280 3000"
   xml:space="preserve"
   inkscape:version="0.91 r13725"
   sodipodi:docname="places.svg"><metadata
     id="metadata545"><rdf:RDF><cc:Work
         rdf:about=""><dc:format>image/svg+xml</dc:format><dc:type
           rdf:resource="http://purl.org/dc/dcmitype/StillImage" /><dc:title></dc:title></cc:Work></rdf:RDF></metadata><defs
     id="defs543" /><sodipodi:namedview
     pagecolor="#ffffff"
     bordercolor="#666666"
     borderopacity="1"
     objecttolerance="10"
     gridtolerance="10"
     guidetolerance="10"
     inkscape:pageopacity="0"
     inkscape:pageshadow="2"
     inkscape:window-width="1851"
     inkscape:window-height="1057"
     id="namedview541"
     showgrid="false"
     inkscape:zoom="0.89001173"
     inkscape:cx="640"
     inkscape:cy="47.813655"
     inkscape:window-x="1912"
     inkscape:window-y="-8"
     inkscape:window-maximized="1"
     inkscape:current-layer="g3" /><g
     id="g3"
     transform="translate(0,-2918)"><text
       transform="translate(197.9189,2633.25)"
       font-size="14"
       id="text175"
       style="font-size:14px;font-family:PTSans-Bold;fill:#4d4d4d" />
<text
       transform="translate(253.9736,2633.25)"
       font-size="14"
       id="text181"
       style="font-size:14px;font-family:PTSans-Bold;fill:#4d4d4d" />
<text
       transform="translate(392.5049,2633.25)"
       font-size="14"
       id="text187"
       style="font-size:14px;font-family:PTSans-Bold;fill:#4d4d4d" />
<text
       transform="translate(403.1299,2633.25)"
       font-size="14"
       id="text189"
       style="font-size:14px;font-family:PTSans-Bold;fill:#4d4d4d" />
<text
       transform="translate(413.0049,2633.25)"
       font-size="14"
       id="text193"
       style="font-size:14px;font-family:PTSans-Bold;fill:#4d4d4d" />
<text
       transform="translate(533.583,2633.25)"
       font-size="14"
       id="text199"
       style="font-size:14px;font-family:PTSans-Bold;fill:#4d4d4d" />
<text
       transform="translate(543.4502,2633.25)"
       font-size="14"
       id="text203"
       style="font-size:14px;font-family:PTSans-Bold;fill:#4d4d4d" />
<text
       transform="translate(633.2002,2633.25)"
       font-size="14"
       id="text209"
       style="font-size:14px;font-family:PTSans-Bold;fill:#4d4d4d" />
<text
       transform="translate(643.0752,2633.25)"
       font-size="14"
       id="text213"
       style="font-size:14px;font-family:PTSans-Bold;fill:#4d4d4d" />
<text
       transform="translate(235.4111,2821.3672)"
       font-size="14"
       id="text223"
       style="font-size:14px;font-family:PTSans-Regular;fill:#009ec4" />
<text
       transform="translate(457.8564,635.75)"
       font-size="18"
       id="text333"
       style="font-size:18px;font-family:PTSans-Regular;fill:#009ec4" />
<text
       transform="translate(910.5596,572)"
       font-size="18"
       id="text393"
       style="font-size:18px;font-family:PTSans-Regular;fill:#57c2db" />
<text
       transform="translate(915.3721,572)"
       font-size="18"
       id="text395"
       style="font-size:18px;font-family:PTSans-Regular;fill:#57c2db" />
<text
       transform="translate(427.3018,30.25)"
       font-size="14"
       id="text445"
       style="font-size:14px;font-family:PTSans-Bold;fill:#ffffff" />
<text
       transform="translate(472.7314,30.25)"
       font-size="14"
       id="text451"
       style="font-size:14px;font-family:PTSans-Regular;fill:#ffffff" />
<text
       transform="translate(483.9424,30.25)"
       font-size="14"
       id="text453"
       style="font-size:14px;font-family:PTSans-Regular;fill:#ffffff" />
<text
       transform="translate(563.6846,30.25)"
       font-size="14"
       id="text459"
       style="font-size:14px;font-family:PTSans-Bold;fill:#ffffff" />
<path
       d="m 34.27527,3000 c -3.978,0 -7.821,-0.648 -11.75,-1.979 -13.5199996,-4.572 -22.35999963,-16.469 -22.52299963,-30.309 -0.194,-17.245 12.07699963,-29.942 24.43599963,-34.974 0.779,-0.82 1.713,-1.776 2.83,-2.861 8.417,-8.154 17.827,-12.2879 27.971,-12.2879 9.034,0 17.513,3.2809 25.199,9.7499 12.476,10.507 19.808,31.442 6.426,52.579 -6.873,10.855 -19.309,17.337 -33.263,17.337 -1.694,0 -3.423,-0.098 -5.143,-0.292 -4.574,2.043 -9.219,3.037 -14.183,3.037 l 0,0 z m 20.963,-79.17 c -9.272,0 -17.925,3.827 -25.715,11.374 -1.196,1.161 -2.176,2.172 -2.975,3.018 l -0.247,0.262 -0.335,0.132 c -11.439,4.529 -22.9029996,16.198 -22.7239996,32.059 0.146,12.444 8.1229996,23.151 20.3199996,27.276 3.591,1.216 7.094,1.808 10.712,1.808 4.637,0 8.97,-0.959 13.245,-2.93 l 0.418,-0.193 0.458,0.056 c 1.74,0.213 3.49,0.322 5.204,0.322 12.837,0 24.248,-5.918 30.524,-15.83 12.342,-19.495 5.658,-38.736 -5.775,-48.366 -7.084,-5.964 -14.86,-8.988 -23.11,-8.988 l 0,0 z m -20.963,67.934 c -2.731,0 -5.396,-0.453 -8.145,-1.385 -9.079,-3.069 -14.788,-10.656 -14.894,-19.799 -0.135,-11.839 9.105,-21.422 18.303,-24.771 0.552,-0.201 1,-0.367 1.34,-0.498 l 0.201,-0.222 c 0.872,-0.949 2.173,-2.365 4.01,-4.148 2.328,-2.256 9.409,-9.118 20.147,-9.118 6.315,0 12.359,2.392 17.964,7.11 8.862,7.464 13.945,22.531 4.169,37.976 -4.802,7.583 -13.688,12.109 -23.771,12.109 -2.315,0 -4.665,-0.237 -6.995,-0.711 -2.112,1.246 -6.484,3.457 -12.329,3.457 l 0,0 z m 20.963,-55.078 c -8.77,0 -14.786,5.83 -16.763,7.746 -1.735,1.684 -2.979,3.039 -3.802,3.934 l -0.962,1.041 -0.473,0.197 c -0.387,0.163 -1.067,0.422 -2.037,0.774 -7.587,2.763 -15.212,10.569 -15.104,20.146 0.082,7.017 4.524,12.861 11.592,15.251 2.24,0.759 4.395,1.128 6.586,1.128 4.847,0 8.378,-1.849 10.611,-3.24 l 0.854,-0.53 0.979,0.226 c 2.293,0.53 4.608,0.799 6.882,0.799 8.406,0 15.757,-3.683 19.663,-9.851 8.219,-12.981 4.105,-25.508 -3.192,-31.655 -4.705,-3.958 -9.695,-5.966 -14.834,-5.966 l 0,0 z m -20.963,46.855 c -1.819,0 -3.619,-0.312 -5.506,-0.95 -5.677,-1.92 -9.246,-6.559 -9.311,-12.108 -0.089,-7.926 6.576,-14.646 12.894,-16.945 3.212,-1.167 3.212,-1.167 4.793,-2.895 0.863,-0.938 2.009,-2.186 3.671,-3.799 3.013,-2.919 7.782,-6.797 14.422,-6.797 4.387,0 8.529,1.694 12.669,5.178 8.868,7.468 7.521,19.378 2.516,27.283 -3.286,5.189 -9.575,8.287 -16.822,8.287 -2.774,0 -5.599,-0.449 -8.4,-1.336 -0.312,0.191 -0.695,0.444 -0.901,0.58 -2.114,1.396 -5.304,3.502 -10.025,3.502 l 0,0 z m 20.963,-37.011 c -4.286,0 -7.708,2.836 -9.91,4.969 -1.526,1.481 -2.599,2.648 -3.38,3.5 -2.343,2.557 -2.968,3.027 -7.379,4.631 -4.19,1.525 -8.683,6.079 -8.628,10.778 0.032,2.797 1.821,4.999 4.907,6.043 1.206,0.409 2.327,0.607 3.427,0.607 2.774,0 4.728,-1.29 6.45,-2.427 1.886,-1.245 3.637,-2.273 6.057,-1.473 2.299,0.767 4.59,1.155 6.818,1.155 5.014,0 9.255,-1.971 11.346,-5.272 3.547,-5.603 4.68,-13.894 -1.214,-18.857 -2.921,-2.459 -5.699,-3.654 -8.494,-3.654 l 0,0 z m -16.047,25.781 c 1.596,-1.054 3.403,-2.248 5.81,-2.248 0.87,0 1.743,0.151 2.668,0.459 2.009,0.669 4.004,1.01 5.931,1.01 l 10e-4,0 c 3.994,0 7.441,-1.524 8.995,-3.98 2.099,-3.313 4.662,-10.763 -0.654,-15.24 -2.398,-2.019 -4.592,-3.002 -6.703,-3.002 -2.493,0 -5.027,1.331 -7.973,4.185 -1.487,1.443 -2.485,2.532 -3.289,3.406 -2.418,2.639 -3.342,3.482 -8.456,5.342 -3.654,1.33 -6.833,5.13 -6.799,8.131 0.02,1.613 1.034,2.771 3.021,3.443 0.914,0.309 1.741,0.461 2.532,0.461 1.94,0 3.385,-0.955 4.916,-1.967 l 0,0 z"
       id="path539"
       inkscape:connector-curvature="0"
       style="fill:#57c2db" /></g></svg>