<?xml version="1.0" encoding="UTF-8" standalone="no"?>
<!-- Generator: Adobe Illustrator 16.0.0, SVG Export Plug-In . SVG Version: 6.00 Build 0)  -->

<svg
   xmlns:dc="http://purl.org/dc/elements/1.1/"
   xmlns:cc="http://creativecommons.org/ns#"
   xmlns:rdf="http://www.w3.org/1999/02/22-rdf-syntax-ns#"
   xmlns:svg="http://www.w3.org/2000/svg"
   xmlns="http://www.w3.org/2000/svg"
   xmlns:xlink="http://www.w3.org/1999/xlink"
   xmlns:sodipodi="http://sodipodi.sourceforge.net/DTD/sodipodi-0.dtd"
   xmlns:inkscape="http://www.inkscape.org/namespaces/inkscape"
   version="1.1"
   id="Ebene_1"
   x="0px"
   y="0px"
   width="30"
   height="30"
   viewBox="0 0 30 30"
   enable-background="new 0 0 1280 3000"
   xml:space="preserve"
   inkscape:version="0.91 r13725"
   sodipodi:docname="share.svg"><metadata
     id="metadata545"><rdf:RDF><cc:Work
         rdf:about=""><dc:format>image/svg+xml</dc:format><dc:type
           rdf:resource="http://purl.org/dc/dcmitype/StillImage" /><dc:title></dc:title></cc:Work></rdf:RDF></metadata><defs
     id="defs543" /><sodipodi:namedview
     pagecolor="#ffffff"
     bordercolor="#666666"
     borderopacity="1"
     objecttolerance="10"
     gridtolerance="10"
     guidetolerance="10"
     inkscape:pageopacity="0"
     inkscape:pageshadow="2"
     inkscape:window-width="1851"
     inkscape:window-height="1057"
     id="namedview541"
     showgrid="false"
     inkscape:zoom="0.89001173"
     inkscape:cx="640"
     inkscape:cy="47.813655"
     inkscape:window-x="1912"
     inkscape:window-y="-8"
     inkscape:window-maximized="1"
     inkscape:current-layer="g3" /><g
     id="g3"
     transform="translate(0,-2970)"><text
       transform="translate(197.9189,2633.25)"
       font-size="14"
       id="text175"
       style="font-size:14px;font-family:PTSans-Bold;fill:#4d4d4d" />
<text
       transform="translate(253.9736,2633.25)"
       font-size="14"
       id="text181"
       style="font-size:14px;font-family:PTSans-Bold;fill:#4d4d4d" />
<text
       transform="translate(392.5049,2633.25)"
       font-size="14"
       id="text187"
       style="font-size:14px;font-family:PTSans-Bold;fill:#4d4d4d" />
<text
       transform="translate(403.1299,2633.25)"
       font-size="14"
       id="text189"
       style="font-size:14px;font-family:PTSans-Bold;fill:#4d4d4d" />
<text
       transform="translate(413.0049,2633.25)"
       font-size="14"
       id="text193"
       style="font-size:14px;font-family:PTSans-Bold;fill:#4d4d4d" />
<text
       transform="translate(533.583,2633.25)"
       font-size="14"
       id="text199"
       style="font-size:14px;font-family:PTSans-Bold;fill:#4d4d4d" />
<text
       transform="translate(543.4502,2633.25)"
       font-size="14"
       id="text203"
       style="font-size:14px;font-family:PTSans-Bold;fill:#4d4d4d" />
<text
       transform="translate(633.2002,2633.25)"
       font-size="14"
       id="text209"
       style="font-size:14px;font-family:PTSans-Bold;fill:#4d4d4d" />
<text
       transform="translate(643.0752,2633.25)"
       font-size="14"
       id="text213"
       style="font-size:14px;font-family:PTSans-Bold;fill:#4d4d4d" />
<text
       transform="translate(235.4111,2821.3672)"
       font-size="14"
       id="text223"
       style="font-size:14px;font-family:PTSans-Regular;fill:#009ec4" />
<text
       transform="translate(457.8564,635.75)"
       font-size="18"
       id="text333"
       style="font-size:18px;font-family:PTSans-Regular;fill:#009ec4" />
<text
       transform="translate(910.5596,572)"
       font-size="18"
       id="text393"
       style="font-size:18px;font-family:PTSans-Regular;fill:#57c2db" />
<text
       transform="translate(915.3721,572)"
       font-size="18"
       id="text395"
       style="font-size:18px;font-family:PTSans-Regular;fill:#57c2db" />
<text
       transform="translate(427.3018,30.25)"
       font-size="14"
       id="text445"
       style="font-size:14px;font-family:PTSans-Bold;fill:#ffffff" />
<text
       transform="translate(472.7314,30.25)"
       font-size="14"
       id="text451"
       style="font-size:14px;font-family:PTSans-Regular;fill:#ffffff" />
<text
       transform="translate(483.9424,30.25)"
       font-size="14"
       id="text453"
       style="font-size:14px;font-family:PTSans-Regular;fill:#ffffff" />
<text
       transform="translate(563.6846,30.25)"
       font-size="14"
       id="text459"
       style="font-size:14px;font-family:PTSans-Bold;fill:#ffffff" />
<g
       id="g529"
       transform="translate(-1063.009,2355.999)"><defs
         id="defs531"><path
           id="SVGID_9_"
           d="m 1058.88,607 c 0,0 -3,0 -3,3 l 0,38 c 0,0 0,3 3,3 l 38,0 c 0,0 3,0 3,-3 l 0,-38 c 0,0 0,-3 -3,-3 l -38,0 0,0 z"
           inkscape:connector-curvature="0" /></defs><clipPath
         id="SVGID_10_"><use
           xlink:href="#SVGID_9_"
           overflow="visible"
           id="use535"
           style="overflow:visible"
           x="0"
           y="0"
           width="100%"
           height="100%" /></clipPath><path
         clip-path="url(#SVGID_10_)"
         d="m 1087.28,633.067 c -1.74,0 -3.261,0.826 -4.261,2.093 l -9.29,-4.747 c 0.12,-0.453 0.211,-0.92 0.211,-1.413 0,-0.539 -0.101,-1.046 -0.25,-1.533 l 9.239,-4.727 c 1,1.327 2.57,2.188 4.351,2.188 3.029,0 5.47,-2.441 5.47,-5.461 0,-3.019 -2.44,-5.467 -5.47,-5.467 -3.011,0 -5.461,2.448 -5.461,5.467 0,0.493 0.091,0.96 0.211,1.413 l -9.28,4.748 c -1,-1.266 -2.53,-2.095 -4.271,-2.095 -3.02,0 -5.47,2.448 -5.47,5.467 0,3.02 2.45,5.467 5.47,5.467 1.78,0 3.351,-0.874 4.351,-2.2 l 9.239,4.726 c -0.149,0.494 -0.25,1 -0.25,1.541 0,3.02 2.45,5.467 5.461,5.467 3.02,0 5.47,-2.447 5.47,-5.467 0,-3.021 -2.45,-5.467 -5.47,-5.467 l 0,0 0,0 z"
         id="path537"
         inkscape:connector-curvature="0"
         style="fill:#57c2db" /></g></g></svg>