<?xml version="1.0" encoding="UTF-8" standalone="no"?>
<svg
   xmlns:dc="http://purl.org/dc/elements/1.1/"
   xmlns:cc="http://creativecommons.org/ns#"
   xmlns:rdf="http://www.w3.org/1999/02/22-rdf-syntax-ns#"
   xmlns:svg="http://www.w3.org/2000/svg"
   xmlns="http://www.w3.org/2000/svg"
   xmlns:sodipodi="http://sodipodi.sourceforge.net/DTD/sodipodi-0.dtd"
   xmlns:inkscape="http://www.inkscape.org/namespaces/inkscape"
   version="1.1"
   id="Layer_1"
   x="0px"
   y="0px"
   width="47"
   height="35"
   viewBox="0 0 47 35.000002"
   enable-background="new 0 0 150 34.795"
   xml:space="preserve"
   inkscape:version="0.91 r13725"
   sodipodi:docname="SwissAir.svg"><metadata
     id="metadata23"><rdf:RDF><cc:Work
         rdf:about=""><dc:format>image/svg+xml</dc:format><dc:type
           rdf:resource="http://purl.org/dc/dcmitype/StillImage" /><dc:title></dc:title></cc:Work></rdf:RDF></metadata><defs
     id="defs21" /><sodipodi:namedview
     pagecolor="#ffffff"
     bordercolor="#666666"
     borderopacity="1"
     objecttolerance="10"
     gridtolerance="10"
     guidetolerance="10"
     inkscape:pageopacity="0"
     inkscape:pageshadow="2"
     inkscape:window-width="1851"
     inkscape:window-height="1057"
     id="namedview19"
     showgrid="false"
     inkscape:zoom="1.92"
     inkscape:cx="75"
     inkscape:cy="17.397499"
     inkscape:window-x="1912"
     inkscape:window-y="-8"
     inkscape:window-maximized="1"
     inkscape:current-layer="_x23_e60005ff" /><g
     id="_x23_e60005ff"
     transform="translate(0,0.20500183)"><path
       d="m 27.869,2.3423256e-6 18.761,0 C 43.73,11.588002 40.941,23.209002 38.032,34.795002 l -38.032,0 0,-0.362 0.003,0.354 C 9.267,23.172002 18.564,11.582002 27.869,2.3423256e-6 M 25.765,6.7050023 c 0.004,2.492 -0.006,4.9869997 0.006,7.4799997 -2.483,0.006 -4.967,-0.006 -7.451,0.006 0.013,2.139 0.013,4.275 0,6.413 2.484,0.013 4.968,0 7.451,0.007 -0.012,2.492 -0.002,4.988 -0.006,7.48 2.157,0.012 4.311,0.006 6.467,0.003 -0.012,-2.495 0,-4.991 -0.006,-7.486 2.493,0 4.985,0.003 7.479,0 -0.004,-2.139 -0.004,-4.28 0,-6.422 -2.493,0 -4.985,0 -7.479,0.003 0.006,-2.496 -0.006,-4.9909997 0.006,-7.4859997 -2.156,-0.005 -4.311,-0.012 -6.467,0.002 z"
       id="path4"
       inkscape:connector-curvature="0"
       style="fill:#e60005" /></g><g
     id="_x23_ffffffff"
     transform="translate(0,0.20500183)"><path
       d="m 25.765,6.751 c 2.157,-0.013 4.311,-0.007 6.467,-0.004 -0.012,2.496 0,4.991 -0.006,7.487 2.493,-0.003 4.985,-0.003 7.479,-0.003 -0.004,2.143 -0.004,4.284 0,6.422 -2.493,0.003 -4.985,0 -7.479,0 0.006,2.495 -0.006,4.991 0.006,7.486 -2.156,0.003 -4.311,0.009 -6.467,-0.004 0.004,-2.491 -0.006,-4.987 0.006,-7.479 -2.483,-0.007 -4.967,0.006 -7.451,-0.007 0.013,-2.139 0.013,-4.273 0,-6.413 2.484,-0.012 4.968,0 7.451,-0.006 -0.012,-2.492 -0.002,-4.988 -0.006,-7.479 z"
       id="path17"
       inkscape:connector-curvature="0"
       style="fill:#ffffff" /></g></svg>