<?xml version="1.0" encoding="UTF-8" standalone="no"?>
<svg
   xmlns:dc="http://purl.org/dc/elements/1.1/"
   xmlns:cc="http://creativecommons.org/ns#"
   xmlns:rdf="http://www.w3.org/1999/02/22-rdf-syntax-ns#"
   xmlns:svg="http://www.w3.org/2000/svg"
   xmlns="http://www.w3.org/2000/svg"
   xmlns:sodipodi="http://sodipodi.sourceforge.net/DTD/sodipodi-0.dtd"
   xmlns:inkscape="http://www.inkscape.org/namespaces/inkscape"
   width="45px"
   height="45px"
   viewBox="0 0 45 45"
   version="1.1"
   id="svg2"
   inkscape:version="0.91 r13725"
   sodipodi:docname="cid.svg">
  <metadata
     id="metadata26">
    <rdf:RDF>
      <cc:Work
         rdf:about="">
        <dc:format>image/svg+xml</dc:format>
        <dc:type
           rdf:resource="http://purl.org/dc/dcmitype/StillImage" />
        <dc:title>logo-white</dc:title>
      </cc:Work>
    </rdf:RDF>
  </metadata>
  <sodipodi:namedview
     pagecolor="#ffffff"
     bordercolor="#666666"
     borderopacity="1"
     objecttolerance="10"
     gridtolerance="10"
     guidetolerance="10"
     inkscape:pageopacity="0"
     inkscape:pageshadow="2"
     inkscape:window-width="1841"
     inkscape:window-height="1057"
     id="namedview24"
     showgrid="false"
     inkscape:zoom="5.2444444"
     inkscape:cx="22.5"
     inkscape:cy="22.5"
     inkscape:window-x="1912"
     inkscape:window-y="-8"
     inkscape:window-maximized="1"
     inkscape:current-layer="svg2" />
  <!-- Generator: Sketch 3.8.3 (29802) - http://www.bohemiancoding.com/sketch -->
  <title
     id="title4">logo-white</title>
  <desc
     id="desc6">Created with Sketch.</desc>
  <defs
     id="defs8" />
  <g
     id="DESIGN"
     stroke="none"
     stroke-width="1"
     fill="none"
     fill-rule="evenodd"
     style="fill:#000046;fill-opacity:1">
    <g
       id="01_START"
       transform="translate(-24.000000, -14.000000)"
       fill="#FFFFFF"
       style="fill:#000046;fill-opacity:1">
      <g
         id="Page-1"
         transform="translate(-76.000000, 14.000000)"
         style="fill:#000046;fill-opacity:1">
        <g
           id="Group-9"
           style="fill:#000046;fill-opacity:1">
          <g
             id="Group-40"
             transform="translate(100.000000, 0.000000)"
             style="fill:#000046;fill-opacity:1">
            <g
               id="g15"
               style="fill:#000046;fill-opacity:1">
              <path
                 d="M12.0069,0 L10.1869,5 L4.9999,5 L4.9999,19.253 L-0.0001,32.991 L4.9999,34.812 L4.9999,40 L19.2529,40 L32.9879,45 L34.8079,40 L39.9999,40 L39.9999,25.733 L44.9959,12.008 L39.9999,10.19 L39.9999,5 L25.7429,5 L12.0069,0 Z M2.0509,32.036 L12.9629,2.051 L42.9439,12.964 L32.0319,42.949 L2.0509,32.036 Z"
                 id="Fill-1"
                 style="fill:#000046;fill-opacity:1" />
              <g
                 id="Group-12"
                 transform="translate(6.000000, 5.000000)"
                 style="fill:#000046;fill-opacity:1">
                <path
                   d="M0.9812,17.0252 C0.1892,19.2022 0.1622,20.9162 0.8812,22.1682 C1.6012,23.4192 2.8982,24.0362 4.7272,24.0362 C6.1912,24.0362 7.5562,23.6692 8.7852,22.9372 C10.0142,22.2062 11.0952,21.0892 12.0662,19.5862 L9.6782,18.7392 C9.0822,19.7412 8.4242,20.4922 7.7172,20.9542 C7.0282,21.4162 6.3022,21.6672 5.5512,21.6672 C4.5492,21.6672 3.8812,21.2822 3.5122,20.5502 C3.1622,19.8182 3.2902,18.5662 3.9212,16.8332 C4.5232,15.1772 5.2782,14.0012 6.1802,13.2702 C7.0892,12.5182 8.0502,12.1532 9.0702,12.1532 C9.8032,12.1532 10.3602,12.3652 10.7272,12.7882 C11.0992,13.1932 11.2422,13.7512 11.1302,14.4842 L14.1292,13.8092 C14.2212,12.7112 14.0472,11.8642 13.6412,11.2862 C12.9472,10.2852 11.7622,9.7842 10.0672,9.7842 C8.1412,9.7842 6.3512,10.4202 4.7132,11.6912 C3.0572,12.9622 1.8152,14.7342 0.9812,17.0252"
                   id="Fill-2"
                   style="fill:#000046;fill-opacity:1" />
                <polygon
                   id="Fill-4"
                   points="15.6182 23.8046 20.6352 10.0146 17.8432 10.0146 12.8262 23.8046"
                   style="fill:#000046;fill-opacity:1" />
                <path
                   d="M25.2146,12.3451 L26.4666,12.3451 C27.6036,12.3451 28.3396,12.3841 28.6896,12.4801 C29.1676,12.5961 29.5336,12.8071 29.7416,13.1351 C29.9766,13.4441 30.0846,13.8861 30.0486,14.4641 C30.0306,15.0421 29.8326,15.8511 29.4466,16.9091 C29.0546,17.9891 28.6496,18.8361 28.2326,19.4521 C27.8356,20.0691 27.4236,20.5111 27.0366,20.7811 C26.6306,21.0501 26.1946,21.2431 25.6966,21.3391 C25.3156,21.4361 24.7426,21.4741 23.9726,21.4741 L21.8936,21.4741 L25.2146,12.3451 Z M23.4906,23.8051 C24.5306,23.8051 25.3746,23.7081 26.0606,23.5161 C26.9866,23.2461 27.7756,22.8801 28.4246,22.4181 C29.2916,21.7821 30.0866,20.9731 30.7786,19.9721 C31.3616,19.1631 31.8536,18.1811 32.2676,17.0451 C32.7366,15.7551 33.0016,14.6571 33.0086,13.7901 C33.0226,12.9041 32.8716,12.1531 32.5116,11.5561 C32.1586,10.9401 31.6196,10.5161 30.8946,10.2851 C30.3416,10.1111 29.5096,10.0151 28.3736,10.0151 L23.2706,10.0151 L18.2536,23.8051 L23.4906,23.8051 Z"
                   id="Fill-6"
                   style="fill:#000046;fill-opacity:1" />
                <path
                   d="M35.3748,1.9939 C35.5348,1.7119 35.7518,1.4959 36.0328,1.3469 C36.3128,1.1919 36.5988,1.1179 36.8958,1.1179 C37.1928,1.1179 37.4788,1.1919 37.7588,1.3469 C38.0398,1.4959 38.2628,1.7119 38.4168,1.9939 C38.5768,2.2789 38.6508,2.5709 38.6508,2.8799 C38.6508,3.1829 38.5768,3.4689 38.4228,3.7479 C38.2688,4.0289 38.0508,4.2459 37.7708,4.4009 C37.4908,4.5559 37.1988,4.6359 36.8958,4.6359 C36.5928,4.6359 36.3008,4.5559 36.0208,4.4009 C35.7468,4.2459 35.5288,4.0289 35.3698,3.7479 C35.2148,3.4689 35.1398,3.1829 35.1398,2.8799 C35.1398,2.5709 35.2148,2.2789 35.3748,1.9939 M35.8498,4.7039 C36.1818,4.8929 36.5298,4.9849 36.8958,4.9849 C37.2618,4.9849 37.6108,4.8929 37.9478,4.7039 C38.2788,4.5199 38.5368,4.2579 38.7258,3.9249 C38.9078,3.5889 38.9998,3.2389 38.9998,2.8799 C38.9998,2.5069 38.9078,2.1589 38.7198,1.8219 C38.5308,1.4839 38.2688,1.2219 37.9308,1.0389 C37.5938,0.8609 37.2508,0.7689 36.8958,0.7689 C36.5418,0.7689 36.1988,0.8609 35.8608,1.0389 C35.5228,1.2219 35.2608,1.4839 35.0718,1.8219 C34.8828,2.1589 34.7918,2.5069 34.7918,2.8799 C34.7918,3.2389 34.8828,3.5889 35.0658,3.9249 C35.2548,4.2579 35.5118,4.5199 35.8498,4.7039"
                   id="Fill-8"
                   style="fill:#000046;fill-opacity:1" />
                <path
                   d="M36.3408,2.0798 L36.7528,2.0798 C36.9358,2.0798 37.0558,2.0958 37.1238,2.1188 C37.1878,2.1478 37.2388,2.1878 37.2788,2.2388 C37.3138,2.2908 37.3308,2.3538 37.3308,2.4168 C37.3308,2.5248 37.2958,2.6048 37.2158,2.6678 C37.1418,2.7308 36.9938,2.7648 36.7818,2.7648 L36.3408,2.7648 L36.3408,2.0798 Z M36.3408,3.0798 L36.5528,3.0798 C36.6838,3.0798 36.7818,3.1028 36.8448,3.1538 C36.9408,3.2288 37.0728,3.4048 37.2278,3.6858 L37.4278,4.0408 L37.8788,4.0408 L37.5988,3.5998 C37.4678,3.3888 37.3588,3.2398 37.2678,3.1478 C37.2158,3.1028 37.1528,3.0628 37.0728,3.0278 C37.2678,3.0118 37.4278,2.9418 37.5428,2.8218 C37.6618,2.6958 37.7188,2.5528 37.7188,2.3868 C37.7188,2.2728 37.6848,2.1588 37.6158,2.0558 C37.5428,1.9528 37.4508,1.8788 37.3308,1.8388 C37.2098,1.7928 37.0158,1.7758 36.7528,1.7758 L35.9748,1.7758 L35.9748,4.0408 L36.3408,4.0408 L36.3408,3.0798 Z"
                   id="Fill-10"
                   style="fill:#000046;fill-opacity:1" />
              </g>
            </g>
          </g>
        </g>
      </g>
    </g>
  </g>
</svg>
