<?xml version="1.0" encoding="utf-8"?>
<!-- Generator: Adobe Illustrator 17.1.0, SVG Export Plug-In . SVG Version: 6.00 Build 0)  -->
<!DOCTYPE svg PUBLIC "-//W3C//DTD SVG 1.1//EN" "http://www.w3.org/Graphics/SVG/1.1/DTD/svg11.dtd">
<svg version="1.1" xmlns="http://www.w3.org/2000/svg" xmlns:xlink="http://www.w3.org/1999/xlink" x="0px" y="0px"
	 viewBox="0 0 140 39.2" enable-background="new 0 0 140 39.2" xml:space="preserve">
<g id="Layer_1">
</g>
<g id="Ebene_2">
	<g>
		<g>
			<path fill="#005592" d="M56.1,33.3c1.6-0.1,4-0.5,3.9-2.8c-0.2-4.4-14-1.6-14.4-12.3c-0.2-6.2,5-9.6,10.4-9.8
				c4.4-0.2,7.7,1.2,10.6,4.8L62,17c-1.9-2-3.1-3-5.9-2.9c-1.2,0-3.1,0.9-3,2.5c0.2,4.6,14.1,1.3,14.5,12.2
				C67.7,35.1,63,39,57.3,39.2c-5.2,0.2-9.9-1.1-13-5.8l4.8-3.8C51.2,32.2,52.7,33.5,56.1,33.3"/>
		</g>
		<path fill="#005592" d="M115.9,37.3h0.6c0.9,0,1.2-0.2,1.2-0.7c0-0.6-0.3-0.7-1.3-0.7h-0.5V37.3 M115.9,34.6h0.5
			c0.7,0,1-0.2,1-0.6c0-0.5-0.2-0.6-1-0.6h-0.5L115.9,34.6L115.9,34.6z M114.2,32.2h2c1.1,0,1.7,0.1,2.1,0.4
			c0.4,0.3,0.7,0.7,0.7,1.3c0,0.6-0.3,1.1-0.9,1.3c0.9,0.2,1.3,0.7,1.3,1.5c0,0.9-0.7,1.6-1.7,1.8c-0.4,0.1-0.8,0.1-1.5,0.1h-1.9
			L114.2,32.2L114.2,32.2z"/>
		<path fill="#005592" d="M123.3,36l-0.6-2.1l-0.6,2.1H123.3 M121.9,32.2h1.6l2.4,6.3h-1.7l-0.4-1.2h-2l-0.4,1.2h-1.7L121.9,32.2z"
			/>
		<polyline fill="#005592" points="126.8,32.2 128.5,32.2 130.8,36.1 130.8,32.2 132.4,32.2 132.4,38.5 130.8,38.5 128.4,34.5 
			128.4,38.5 126.8,38.5 126.8,32.2 		"/>
		<polyline fill="#005592" points="134.1,32.2 135.7,32.2 135.7,34.8 137.9,32.2 139.8,32.2 137.2,35.1 140,38.5 137.9,38.5 
			135.7,35.6 135.7,38.5 134.1,38.5 134.1,32.2 		"/>
		<path fill="#005592" d="M19.1,32H7.4v-5h10.4v-6.5H7.4v-5.1h11.7V8.8H3.7c-2,0-3.7,1.7-3.7,3.7v22.2c0,2,1.7,3.7,3.7,3.7
			c0.2,0,0.3,0,0.5,0h15V32"/>
		<g>
			<polyline fill="#005592" points="66.8,8.8 66.8,15.5 72.2,15.5 72.2,38.4 80.6,38.4 80.6,15.5 86.4,15.5 86.4,8.8 66.8,8.8 			
				"/>
			<path fill="#EC1C24" d="M127,0c1,0,1.9,0.4,2.7,1.1c0.7,0.8,1.1,1.7,1.1,2.7c0,1.1-0.4,2-1.1,2.7c-0.7,0.8-1.7,1.1-2.7,1.1
				c-1,0-1.9-0.4-2.7-1.1c-0.7-0.8-1.1-1.7-1.1-2.7c0-1,0.4-2,1.1-2.7C125,0.4,125.9,0,127,0"/>
		</g>
		<path fill="#EC1C24" d="M119.6,29.5h-1.1l-0.5,0c0,0-0.3,0-0.5-0.1c-0.2,0-0.5-0.1-0.5-0.1s-0.2-0.1-0.4-0.1
			c-0.2-0.1-0.4-0.2-0.4-0.2s-0.3-0.2-0.6-0.4c-0.3-0.2-0.6-0.5-0.6-0.5l-0.2-0.3l-0.2-0.3l-0.2-0.3l-0.1-0.3l0-0.1l-0.1-0.3l0-0.6
			c0-0.2,0-0.7,0-1.2c0-0.6,0-1,0-1.1c3.2,0,6.4,0,9.5,0c3.2,0,6.4,0,9.6,0v-1.3h-19.1l0-9.1v-0.1l0-0.7c0,0,0-0.2,0.1-0.4
			c0.1-0.2,0.1-0.4,0.1-0.4s0.1-0.2,0.2-0.4c0.1-0.2,0.2-0.3,0.2-0.3s0.1-0.1,0.3-0.4c0.2-0.2,0.3-0.4,0.3-0.4l0.4-0.4
			c0,0,0.1-0.1,0.3-0.2c0.2-0.1,0.3-0.1,0.3-0.1s0.4-0.2,0.8-0.3c0.5-0.1,0.9-0.2,0.9-0.2c0.2,0,1.2,0,2.8,0c1.6,0,3.4,0,5.4,0
			c2,0,3.8,0,5.5,0c1.7,0,2.9,0,3.3,0c0,0,0.6,0.1,1.2,0.3c0.5,0.2,0.8,0.4,0.8,0.4s0.2,0.1,0.5,0.3c0.3,0.2,0.4,0.3,0.4,0.3
			l0.4,0.4c0,0,0.3,0.3,0.4,0.6c0.2,0.3,0.3,0.6,0.3,0.6s0.1,0.4,0.2,0.8c0,0.5,0,0.9,0,0.9v1.9c-3,0-6.2,0-9.4,0
			c-3.2,0-6.4,0-9.6,0c0,0.2,0,0.4,0,0.6c0,0.2,0,0.9,0,0.9h19v4.6l0,4.7c0,0.4-0.2,0.7-0.3,0.9c-0.1,0.4-0.3,0.6-0.3,0.6
			s-0.1,0.3-0.5,0.7c-0.4,0.4-0.7,0.6-0.7,0.6l-0.1,0c0,0-0.4,0.2-0.7,0.3c-0.3,0.1-0.6,0.2-0.6,0.2s-0.2,0-0.3,0.1
			c-0.2,0-0.4,0-0.4,0c-0.5,0-1.5,0-3,0c-1.5,0-3.1,0-4.7,0c-1.7,0-3.3,0-4.8,0C121.3,29.5,120.3,29.5,119.6,29.5"/>
		<path fill="#005592" d="M106.7,32H95v-5h10.4v-6.5H95v-5.1h11.7V8.8H91.3c-2,0-3.7,1.7-3.7,3.7v22.2c0,2,1.7,3.7,3.7,3.7
			c0.2,0,0.3,0,0.5,0h15V32"/>
		<path fill="#005592" d="M28.7,14.4h3.4c1.9,0,4.1,0.5,4.1,3.1c0,2.9-2.5,3.1-4.6,3.1c-1,0-1.9,0-2.9,0L28.7,14.4 M37,38.4h8.4
			l-6.2-13.3l0,0.1c2.9-1.3,4.7-4.2,4.7-7.8c0-6.1-4.4-8.5-9.3-8.5H21.3v29.6h7.4l0-11.5h3.3L37,38.4z"/>
	</g>
</g>
</svg>
