<?xml version="1.0" encoding="UTF-8" standalone="no"?>
<!-- Created with Inkscape (http://www.inkscape.org/) -->

<svg
   xmlns:dc="http://purl.org/dc/elements/1.1/"
   xmlns:cc="http://creativecommons.org/ns#"
   xmlns:rdf="http://www.w3.org/1999/02/22-rdf-syntax-ns#"
   xmlns:svg="http://www.w3.org/2000/svg"
   xmlns="http://www.w3.org/2000/svg"
   xmlns:xlink="http://www.w3.org/1999/xlink"
   xmlns:sodipodi="http://sodipodi.sourceforge.net/DTD/sodipodi-0.dtd"
   xmlns:inkscape="http://www.inkscape.org/namespaces/inkscape"
   id="svg9418"
   height="30"
   width="128"
   version="1.1"
   viewBox="0 0 128 30"
   inkscape:version="0.91 r13725"
   sodipodi:docname="gloobster.svg">
  <sodipodi:namedview
     pagecolor="#ffffff"
     bordercolor="#666666"
     borderopacity="1"
     objecttolerance="10"
     gridtolerance="10"
     guidetolerance="10"
     inkscape:pageopacity="0"
     inkscape:pageshadow="2"
     inkscape:window-width="1841"
     inkscape:window-height="1057"
     id="namedview29"
     showgrid="false"
     inkscape:zoom="6.4"
     inkscape:cx="90"
     inkscape:cy="15"
     inkscape:window-x="1912"
     inkscape:window-y="-8"
     inkscape:window-maximized="1"
     inkscape:current-layer="g14" />
  <defs
     id="defs3">
    <clipPath
       id="SVGID_184_-7">
      <use
         id="use7576-2"
         xlink:href="#SVGID_183_"
         height="100%"
         width="100%"
         y="0"
         x="0"
         overflow="visible"
         style="overflow:visible" />
    </clipPath>
    <rect
       id="SVGID_183_"
       y="0.001"
       width="1280"
       x="0"
       height="6000" />
  </defs>
  <metadata
     id="metadata9423">
    <rdf:RDF>
      <cc:Work
         rdf:about="">
        <dc:format>image/svg+xml</dc:format>
        <dc:type
           rdf:resource="http://purl.org/dc/dcmitype/StillImage" />
        <dc:title></dc:title>
      </cc:Work>
    </rdf:RDF>
  </metadata>
  <g
     id="layer1"
     transform="translate(0,-1022.4)">
    <g
       id="g7570"
       transform="matrix(0.99344,0,0,0.99344,-168.89,1008.4)">
      <clipPath
         id="clipPath9589">
        <use
           id="use9591"
           xlink:href="#SVGID_183_"
           height="100%"
           width="100%"
           y="0"
           x="0"
           overflow="visible"
           style="overflow:visible" />
      </clipPath>
      <path
         id="path7578"
         d="m 206.97,25.928 c 0,1.537 -1.224,2.761 -2.761,2.761 -1.538,0 -2.762,-1.224 -2.762,-2.761 0,-1.538 1.224,-2.762 2.762,-2.762 1.537,0 2.761,1.224 2.761,2.762 m 4.527,-0.364 0,-0.049 c 0,-3.742 -3.061,-6.876 -7.289,-6.876 -4.227,0 -7.289,3.134 -7.289,6.876 l 0,0.049 c 0,4.063 3.545,11.774 5.289,14.505 0.491,0.77 0.944,1.353 1.967,1.353 l 0.066,0 c 1.024,0 1.476,-0.583 1.967,-1.353 1.745,-2.731 5.289,-10.442 5.289,-14.505"
         clip-path="url(#SVGID_184_-7)"
         inkscape:connector-curvature="0"
         style="fill:#ed6a0d" />
      <g
         id="g14"
         style="fill:#ffffff">
        <path
           id="path7580"
           d="m 223.25,25.927 c 0,1.538 -1.224,2.762 -2.761,2.762 -1.538,0 -2.762,-1.224 -2.762,-2.762 0,-1.537 1.224,-2.761 2.762,-2.761 1.537,0.001 2.761,1.225 2.761,2.761 m 4.527,0 c 0,-4.014 -3.274,-7.288 -7.288,-7.288 -4.015,0 -7.289,3.274 -7.289,7.288 0,4.015 3.274,7.289 7.289,7.289 4.014,0 7.288,-3.274 7.288,-7.289"
           clip-path="url(#SVGID_184_-7)"
           style="fill:#005476;fill-opacity:1"
           inkscape:connector-curvature="0" />
        <path
           id="path7582"
           d="m 276.29,24.333 -5.808,0 c 0.257,-1.082 1.481,-2.107 2.904,-2.107 1.451,0.001 2.647,1.025 2.904,2.107 m 4.327,0.683 c -0.456,-3.644 -3.53,-6.377 -7.203,-6.377 -3.217,0 -5.694,2.021 -6.691,4.441 -0.768,1.851 -0.797,4.1 0.086,5.922 1.139,2.363 3.701,4.214 6.975,4.214 1.452,0 2.847,-0.37 4.071,-1.082 0.911,-0.541 1.225,-1.737 0.684,-2.677 -0.541,-0.91 -1.737,-1.252 -2.648,-0.683 -1.822,0.997 -4.185,0.712 -5.438,-1.195 l 7.573,0 c 1.623,10e-4 2.763,-0.855 2.591,-2.563"
           clip-path="url(#SVGID_184_-7)"
           style="fill:#005476;fill-opacity:1"
           inkscape:connector-curvature="0" />
        <path
           id="path7584"
           d="m 239.82,25.927 c 0,1.509 -1.253,2.762 -2.761,2.762 -1.509,0 -2.762,-1.253 -2.762,-2.762 0,-1.537 1.253,-2.761 2.762,-2.761 1.507,0.001 2.761,1.225 2.761,2.761 m 4.527,0 c 0,-4.014 -3.274,-7.288 -7.288,-7.288 -0.968,0 -1.936,0.199 -2.762,0.54 l 0,-2.647 c 0,-1.253 -0.968,-2.249 -2.192,-2.249 l -0.228,0 c -1.139,0.028 -2.107,0.996 -2.107,2.135 l 0,14.406 c 0,1.224 0.94,2.164 2.164,2.164 0.626,0 1.167,-0.256 1.566,-0.684 1.053,0.57 2.277,0.912 3.559,0.912 4.014,0 7.288,-3.274 7.288,-7.289"
           clip-path="url(#SVGID_184_-7)"
           style="fill:#005476;fill-opacity:1"
           inkscape:connector-curvature="0" />
        <path
           id="path7586"
           d="m 186.7,21.874 -7.055,0 c -0.964,0 -1.776,0.812 -1.776,1.776 0,0.99 0.812,1.776 1.776,1.776 l 4.644,0 c -0.685,2.157 -2.613,3.68 -4.948,3.68 -1.446,0 -2.791,-0.584 -3.756,-1.599 -0.989,-1.015 -1.522,-2.41 -1.522,-3.907 0,-3.02 2.461,-5.507 5.481,-5.507 0.914,0 1.827,0.254 2.639,0.685 0.964,0.533 2.208,0.178 2.741,-0.812 0.533,-0.989 0.177,-2.208 -0.812,-2.766 -1.396,-0.736 -2.969,-1.142 -4.568,-1.142 -5.278,0 -9.541,4.289 -9.541,9.542 0,2.537 0.939,4.922 2.664,6.724 1.751,1.827 4.111,2.817 6.674,2.817 2.461,0 4.796,-0.965 6.522,-2.715 1.7,-1.675 2.664,-3.959 2.766,-6.421 0.076,-1.141 -0.812,-2.106 -1.929,-2.131"
           clip-path="url(#SVGID_184_-7)"
           style="fill:#005476;fill-opacity:1"
           inkscape:connector-curvature="0" />
        <path
           id="path7588"
           d="m 192.93,32.988 c -1.253,0 -2.278,-1.025 -2.278,-2.278 l 0,-14.377 c 0,-1.253 1.025,-2.278 2.278,-2.278 1.253,0 2.278,1.025 2.278,2.278 l 0,14.377 c -0.001,1.253 -1.025,2.278 -2.278,2.278"
           clip-path="url(#SVGID_184_-7)"
           style="fill:#005476;fill-opacity:1"
           inkscape:connector-curvature="0" />
        <path
           id="path7590"
           d="m 251.21,22.511 c -0.541,-0.171 -1.338,-0.37 -1.48,0.256 -0.143,0.57 0.882,0.854 1.309,0.94 0.854,0.171 1.68,0.655 2.278,1.309 1.309,1.367 1.594,3.531 0.854,5.239 -0.769,1.765 -2.534,2.819 -4.413,2.933 -1.053,0.056 -3.246,-0.228 -4.128,-1.395 -1.111,-1.481 -0.029,-3.559 1.765,-3.474 0.712,0.028 1.48,0.569 2.078,0.598 1.025,0.085 1.253,-1.167 0.285,-1.424 -1.794,-0.541 -3.103,-1.252 -3.929,-2.903 -0.598,-1.253 -0.455,-2.819 0.399,-3.958 1.366,-1.85 3.957,-2.477 6.092,-1.651 1.139,0.455 2.079,1.623 1.367,2.875 -0.513,0.854 -1.394,1.025 -2.477,0.655"
           clip-path="url(#SVGID_184_-7)"
           style="fill:#005476;fill-opacity:1"
           inkscape:connector-curvature="0" />
        <path
           id="path7592"
           d="m 263,28.433 -0.427,0 c -0.826,0 -1.196,-0.683 -1.196,-1.395 l 0,-4.328 2.079,0 c 1.11,0 1.992,-0.882 1.992,-1.964 0,-1.11 -0.882,-1.993 -1.992,-1.993 l -2.079,0 0,-2.249 c 0,-1.253 -1.025,-2.278 -2.277,-2.278 -1.253,0 -2.278,1.025 -2.278,2.278 l 0,10.534 c 0,3.303 2.391,5.951 5.751,5.951 l 0.427,0 c 1.253,0 2.278,-1.026 2.278,-2.278 0,-1.253 -1.025,-2.278 -2.278,-2.278"
           clip-path="url(#SVGID_184_-7)"
           style="fill:#005476;fill-opacity:1"
           inkscape:connector-curvature="0" />
        <path
           id="path7594"
           d="m 289.04,18.667 c -0.569,0 -1.851,0.028 -3.018,0.626 -0.398,-0.341 -0.882,-0.541 -1.423,-0.541 -1.196,0 -2.136,0.968 -2.136,2.136 l 0,9.85 c 0,1.253 0.997,2.25 2.249,2.25 1.253,0 2.25,-0.997 2.25,-2.25 l 0,-5.808 c 0,-0.968 0.825,-1.708 1.822,-1.736 1.252,-0.029 2.334,-0.911 2.391,-2.164 0.057,-1.252 -0.882,-2.334 -2.135,-2.363"
           clip-path="url(#SVGID_184_-7)"
           style="fill:#005476;fill-opacity:1"
           inkscape:connector-curvature="0" />
        <path
           id="path7604"
           d="m 296.6,38.486 c 0.147,0.063 0.271,0.152 0.373,0.269 0.103,0.116 0.18,0.254 0.233,0.413 0.052,0.159 0.079,0.335 0.079,0.527 l -2.558,0 c 0.056,-0.409 0.198,-0.728 0.427,-0.959 0.229,-0.23 0.543,-0.346 0.942,-0.346 0.189,0 0.357,0.032 0.504,0.096 m -1.441,-0.525 c -0.273,0.119 -0.503,0.283 -0.692,0.492 -0.189,0.209 -0.334,0.456 -0.434,0.741 -0.101,0.284 -0.151,0.59 -0.151,0.919 0,0.405 0.056,0.764 0.167,1.077 0.112,0.312 0.267,0.574 0.467,0.786 0.199,0.212 0.436,0.373 0.71,0.483 0.274,0.11 0.573,0.165 0.898,0.165 0.171,0 0.342,-0.015 0.515,-0.044 0.174,-0.029 0.342,-0.074 0.504,-0.132 0.163,-0.059 0.315,-0.134 0.457,-0.226 0.143,-0.091 0.265,-0.198 0.367,-0.322 l -0.232,-0.302 -0.158,-0.079 -0.188,0.072 c -0.073,0.048 -0.163,0.1 -0.271,0.155 -0.109,0.056 -0.238,0.108 -0.388,0.156 -0.15,0.048 -0.329,0.072 -0.536,0.072 -0.223,0 -0.424,-0.036 -0.604,-0.109 -0.179,-0.073 -0.334,-0.183 -0.464,-0.33 -0.13,-0.147 -0.232,-0.33 -0.306,-0.55 -0.074,-0.22 -0.115,-0.478 -0.121,-0.775 l 3.129,0 0.158,-0.065 c 0.027,-0.043 0.041,-0.13 0.041,-0.259 0,-0.335 -0.048,-0.633 -0.146,-0.895 -0.097,-0.261 -0.233,-0.48 -0.406,-0.659 -0.173,-0.177 -0.379,-0.314 -0.618,-0.408 -0.238,-0.094 -0.498,-0.142 -0.779,-0.142 -0.341,0 -0.647,0.06 -0.919,0.179 m -4.104,2.3 c 0.168,0 0.315,-0.023 0.444,-0.07 0.128,-0.046 0.236,-0.111 0.322,-0.195 0.087,-0.083 0.152,-0.183 0.195,-0.299 0.044,-0.116 0.065,-0.244 0.065,-0.383 0,-0.288 -0.087,-0.517 -0.262,-0.687 -0.175,-0.17 -0.429,-0.255 -0.764,-0.255 -0.331,0 -0.584,0.085 -0.758,0.255 -0.175,0.17 -0.263,0.399 -0.263,0.687 0,0.139 0.023,0.267 0.068,0.383 0.044,0.116 0.11,0.216 0.197,0.299 0.086,0.084 0.193,0.149 0.32,0.195 0.127,0.047 0.272,0.07 0.436,0.07 m 1.466,2.553 c 0,-0.117 -0.032,-0.212 -0.097,-0.283 -0.065,-0.071 -0.153,-0.126 -0.265,-0.165 -0.111,-0.038 -0.24,-0.067 -0.385,-0.086 -0.145,-0.018 -0.299,-0.031 -0.46,-0.039 -0.16,-0.008 -0.325,-0.016 -0.492,-0.026 -0.167,-0.009 -0.326,-0.026 -0.478,-0.051 -0.176,0.084 -0.319,0.186 -0.429,0.306 -0.11,0.122 -0.165,0.265 -0.165,0.433 0,0.105 0.027,0.203 0.081,0.294 0.054,0.091 0.137,0.17 0.249,0.237 0.111,0.066 0.251,0.119 0.42,0.158 0.168,0.039 0.367,0.058 0.596,0.058 0.223,0 0.423,-0.02 0.599,-0.06 0.177,-0.041 0.326,-0.098 0.448,-0.172 0.122,-0.074 0.216,-0.163 0.281,-0.265 0.066,-0.102 0.097,-0.215 0.097,-0.339 m -1.466,-5.036 c 0.205,0 0.396,0.022 0.574,0.067 0.178,0.045 0.339,0.111 0.485,0.197 l 1.276,0 0,0.306 c 0,0.102 -0.065,0.168 -0.195,0.196 l -0.533,0.074 c 0.105,0.201 0.157,0.425 0.157,0.673 0,0.229 -0.044,0.437 -0.132,0.624 -0.088,0.187 -0.21,0.348 -0.367,0.481 -0.156,0.133 -0.342,0.235 -0.557,0.306 -0.215,0.072 -0.451,0.107 -0.708,0.107 -0.219,0 -0.427,-0.027 -0.622,-0.079 -0.099,0.062 -0.174,0.128 -0.225,0.2 l -0.076,0.208 c 0,0.112 0.045,0.196 0.134,0.253 0.09,0.058 0.209,0.099 0.358,0.123 0.148,0.025 0.317,0.04 0.506,0.047 0.189,0.006 0.381,0.016 0.578,0.03 0.196,0.014 0.389,0.038 0.578,0.072 0.188,0.034 0.357,0.09 0.506,0.167 0.148,0.077 0.267,0.184 0.357,0.32 0.09,0.136 0.135,0.313 0.135,0.529 0,0.202 -0.051,0.396 -0.151,0.585 -0.101,0.189 -0.246,0.357 -0.434,0.504 -0.189,0.147 -0.42,0.265 -0.692,0.353 -0.272,0.088 -0.58,0.132 -0.924,0.132 -0.343,0 -0.644,-0.034 -0.902,-0.102 -0.259,-0.068 -0.473,-0.16 -0.643,-0.274 -0.171,-0.115 -0.298,-0.246 -0.384,-0.397 -0.084,-0.15 -0.127,-0.307 -0.127,-0.471 0,-0.232 0.073,-0.429 0.221,-0.592 0.146,-0.162 0.348,-0.291 0.605,-0.387 -0.133,-0.062 -0.239,-0.145 -0.318,-0.248 -0.079,-0.104 -0.118,-0.243 -0.118,-0.417 l 0.037,-0.21 0.114,-0.216 0.188,-0.204 c 0.074,-0.066 0.161,-0.122 0.26,-0.172 -0.232,-0.13 -0.414,-0.302 -0.546,-0.518 -0.131,-0.215 -0.197,-0.466 -0.197,-0.754 0,-0.229 0.044,-0.437 0.132,-0.624 0.089,-0.188 0.212,-0.347 0.369,-0.478 0.158,-0.132 0.346,-0.233 0.564,-0.305 0.218,-0.071 0.456,-0.106 0.717,-0.106 m -5.283,4.235 c -0.093,-0.026 -0.173,-0.067 -0.241,-0.125 l -0.163,-0.22 c -0.04,-0.09 -0.06,-0.197 -0.06,-0.321 0,-0.129 0.038,-0.247 0.114,-0.353 0.075,-0.105 0.197,-0.196 0.364,-0.274 0.167,-0.077 0.384,-0.139 0.65,-0.188 0.266,-0.047 0.589,-0.077 0.97,-0.09 l 0,0.98 c -0.093,0.099 -0.188,0.187 -0.285,0.264 -0.098,0.077 -0.2,0.143 -0.307,0.198 -0.107,0.054 -0.221,0.096 -0.341,0.125 -0.121,0.029 -0.254,0.044 -0.399,0.044 -0.107,0 -0.208,-0.013 -0.302,-0.04 m 2.447,-2.462 c 0,-0.263 -0.035,-0.504 -0.106,-0.724 -0.072,-0.22 -0.177,-0.407 -0.316,-0.562 -0.139,-0.154 -0.311,-0.275 -0.515,-0.362 -0.205,-0.087 -0.438,-0.13 -0.701,-0.13 -0.366,0 -0.698,0.062 -0.998,0.186 -0.3,0.124 -0.581,0.311 -0.84,0.561 l 0.148,0.265 0.1,0.109 0.146,0.044 0.216,-0.076 c 0.073,-0.051 0.159,-0.109 0.26,-0.172 0.1,-0.063 0.22,-0.121 0.357,-0.172 0.138,-0.051 0.307,-0.076 0.508,-0.076 0.307,0 0.538,0.093 0.695,0.28 0.156,0.188 0.234,0.464 0.234,0.829 l 0,0.367 c -0.532,0.012 -0.983,0.061 -1.351,0.146 -0.368,0.085 -0.666,0.194 -0.893,0.327 -0.228,0.133 -0.393,0.286 -0.495,0.457 -0.102,0.172 -0.153,0.351 -0.153,0.537 0,0.213 0.035,0.398 0.105,0.554 0.069,0.156 0.163,0.286 0.28,0.388 0.118,0.102 0.256,0.179 0.416,0.229 0.159,0.052 0.33,0.077 0.513,0.077 0.179,0 0.342,-0.016 0.489,-0.046 0.147,-0.031 0.286,-0.077 0.416,-0.137 0.13,-0.061 0.254,-0.135 0.371,-0.223 0.118,-0.088 0.238,-0.188 0.362,-0.299 l 0.093,0.436 0.098,0.158 0.195,0.037 0.366,0 0,-3.008 z m -6.485,-1.109 c -0.27,0 -0.506,0.062 -0.708,0.185 -0.203,0.124 -0.389,0.299 -0.56,0.525 l 0,2.274 c 0.152,0.205 0.318,0.348 0.499,0.432 0.181,0.084 0.383,0.125 0.606,0.125 0.436,0 0.772,-0.156 1.007,-0.469 0.236,-0.312 0.353,-0.758 0.353,-1.336 0,-0.307 -0.027,-0.57 -0.081,-0.79 -0.054,-0.219 -0.132,-0.399 -0.235,-0.54 -0.102,-0.141 -0.227,-0.244 -0.375,-0.309 -0.148,-0.065 -0.317,-0.097 -0.506,-0.097 m -2.093,5.709 0,-6.294 0.492,0 c 0.118,0 0.192,0.057 0.223,0.172 l 0.069,0.557 c 0.202,-0.245 0.431,-0.441 0.69,-0.59 0.258,-0.149 0.556,-0.223 0.893,-0.223 0.27,0 0.514,0.052 0.734,0.155 0.22,0.104 0.407,0.257 0.562,0.46 0.154,0.203 0.273,0.455 0.357,0.754 0.084,0.301 0.125,0.645 0.125,1.036 0,0.346 -0.046,0.669 -0.139,0.967 -0.093,0.299 -0.226,0.557 -0.399,0.776 -0.173,0.218 -0.386,0.389 -0.638,0.515 -0.253,0.125 -0.537,0.188 -0.852,0.188 -0.291,0 -0.54,-0.048 -0.745,-0.144 -0.206,-0.096 -0.388,-0.232 -0.546,-0.408 l 0,2.079 -0.826,0 z m -2.481,-5.665 c 0.147,0.063 0.271,0.152 0.374,0.269 0.102,0.116 0.179,0.254 0.232,0.413 0.052,0.159 0.079,0.335 0.079,0.527 l -2.558,0 c 0.056,-0.409 0.198,-0.728 0.427,-0.959 0.229,-0.23 0.543,-0.346 0.942,-0.346 0.189,0 0.357,0.032 0.504,0.096 m -1.441,-0.525 c -0.273,0.119 -0.503,0.283 -0.692,0.492 -0.189,0.209 -0.334,0.456 -0.434,0.741 -0.1,0.284 -0.151,0.59 -0.151,0.919 0,0.405 0.056,0.764 0.167,1.077 0.112,0.312 0.267,0.574 0.467,0.786 0.199,0.212 0.436,0.373 0.71,0.483 0.274,0.11 0.573,0.165 0.898,0.165 0.171,0 0.342,-0.015 0.515,-0.044 0.174,-0.029 0.342,-0.074 0.504,-0.132 0.163,-0.059 0.315,-0.134 0.457,-0.226 0.143,-0.091 0.265,-0.198 0.367,-0.322 l -0.232,-0.302 -0.158,-0.079 -0.188,0.072 c -0.073,0.048 -0.163,0.1 -0.271,0.155 -0.109,0.056 -0.238,0.108 -0.388,0.156 -0.15,0.048 -0.329,0.072 -0.536,0.072 -0.223,0 -0.424,-0.036 -0.604,-0.109 -0.179,-0.073 -0.334,-0.183 -0.464,-0.33 -0.13,-0.147 -0.232,-0.33 -0.306,-0.55 -0.074,-0.22 -0.115,-0.478 -0.121,-0.775 l 3.129,0 0.158,-0.065 c 0.028,-0.043 0.041,-0.13 0.041,-0.259 0,-0.335 -0.048,-0.633 -0.146,-0.895 -0.097,-0.261 -0.233,-0.48 -0.406,-0.659 -0.173,-0.177 -0.379,-0.314 -0.617,-0.408 -0.239,-0.094 -0.498,-0.142 -0.78,-0.142 -0.342,0 -0.647,0.06 -0.919,0.179 m -8.564,4.598 0,-4.702 0.492,0 c 0.117,0 0.191,0.057 0.222,0.172 l 0.061,0.482 c 0.173,-0.213 0.367,-0.388 0.582,-0.524 0.215,-0.137 0.465,-0.205 0.75,-0.205 0.319,0 0.576,0.088 0.773,0.265 0.196,0.176 0.338,0.415 0.425,0.715 0.065,-0.17 0.15,-0.317 0.257,-0.441 0.107,-0.124 0.227,-0.226 0.36,-0.307 0.133,-0.08 0.274,-0.139 0.425,-0.176 0.15,-0.037 0.302,-0.056 0.457,-0.056 0.247,0 0.468,0.04 0.661,0.119 0.194,0.079 0.358,0.194 0.492,0.346 0.135,0.151 0.238,0.338 0.309,0.559 0.071,0.221 0.107,0.474 0.107,0.759 l 0,2.994 -0.826,0 0,-2.994 c 0,-0.368 -0.081,-0.648 -0.242,-0.838 -0.161,-0.19 -0.395,-0.285 -0.701,-0.285 -0.136,0 -0.265,0.024 -0.387,0.071 -0.123,0.049 -0.23,0.119 -0.323,0.212 -0.093,0.093 -0.166,0.209 -0.22,0.35 -0.055,0.141 -0.082,0.304 -0.082,0.49 l 0,2.994 -0.826,0 0,-2.994 c 0,-0.378 -0.076,-0.659 -0.228,-0.845 -0.151,-0.186 -0.373,-0.278 -0.663,-0.278 -0.205,0 -0.394,0.054 -0.569,0.164 -0.175,0.11 -0.335,0.259 -0.48,0.448 l 0,3.505 -0.826,0 z m -3.872,-0.701 c -0.173,-0.08 -0.318,-0.196 -0.434,-0.346 -0.116,-0.15 -0.203,-0.335 -0.26,-0.555 -0.057,-0.219 -0.086,-0.468 -0.086,-0.747 0,-0.279 0.029,-0.529 0.086,-0.75 0.057,-0.221 0.144,-0.407 0.26,-0.559 0.116,-0.151 0.261,-0.267 0.434,-0.348 0.173,-0.081 0.378,-0.121 0.613,-0.121 0.464,0 0.811,0.157 1.04,0.469 0.229,0.313 0.343,0.749 0.343,1.309 0,0.557 -0.114,0.991 -0.343,1.302 -0.229,0.311 -0.576,0.467 -1.04,0.467 -0.235,0 -0.44,-0.041 -0.613,-0.121 m -0.318,-3.904 c -0.277,0.115 -0.513,0.277 -0.708,0.488 -0.195,0.21 -0.345,0.465 -0.45,0.763 -0.105,0.299 -0.158,0.632 -0.158,1 0,0.371 0.053,0.706 0.158,1.003 0.105,0.297 0.255,0.551 0.45,0.761 0.195,0.211 0.431,0.373 0.708,0.485 0.277,0.114 0.588,0.17 0.931,0.17 0.343,0 0.654,-0.056 0.931,-0.17 0.276,-0.112 0.512,-0.274 0.705,-0.485 0.193,-0.21 0.342,-0.464 0.446,-0.761 0.103,-0.297 0.155,-0.632 0.155,-1.003 0,-0.368 -0.052,-0.701 -0.155,-1 -0.104,-0.298 -0.253,-0.553 -0.446,-0.763 -0.193,-0.211 -0.429,-0.373 -0.705,-0.488 -0.277,-0.114 -0.588,-0.172 -0.931,-0.172 -0.343,0 -0.654,0.058 -0.931,0.172 m -6.134,4.605 0,-6.838 0.826,0 0,2.767 c 0.201,-0.213 0.424,-0.385 0.669,-0.513 0.244,-0.129 0.526,-0.193 0.844,-0.193 0.257,0 0.484,0.043 0.68,0.128 0.197,0.085 0.361,0.206 0.492,0.362 0.132,0.156 0.232,0.344 0.3,0.564 0.068,0.22 0.102,0.463 0.102,0.729 l 0,2.994 -0.826,0 0,-2.994 c 0,-0.356 -0.081,-0.632 -0.244,-0.829 -0.162,-0.196 -0.411,-0.294 -0.745,-0.294 -0.244,0 -0.473,0.058 -0.685,0.176 -0.212,0.118 -0.407,0.277 -0.587,0.478 l 0,3.463 -0.826,0 z m -2.943,-4.229 c -0.179,-0.17 -0.392,-0.304 -0.638,-0.402 -0.246,-0.097 -0.524,-0.146 -0.833,-0.146 -0.267,0 -0.503,0.038 -0.71,0.112 -0.208,0.074 -0.383,0.174 -0.525,0.299 -0.142,0.126 -0.251,0.271 -0.325,0.437 -0.074,0.165 -0.112,0.338 -0.112,0.517 0,0.201 0.035,0.372 0.105,0.513 0.07,0.141 0.162,0.259 0.276,0.355 0.114,0.096 0.245,0.176 0.392,0.239 0.147,0.064 0.298,0.12 0.451,0.17 0.153,0.049 0.303,0.096 0.45,0.141 0.147,0.045 0.278,0.097 0.392,0.158 0.115,0.06 0.207,0.133 0.276,0.218 0.07,0.086 0.105,0.193 0.105,0.323 0,0.105 -0.019,0.204 -0.058,0.297 -0.039,0.093 -0.098,0.175 -0.179,0.246 -0.08,0.071 -0.181,0.127 -0.302,0.169 -0.12,0.042 -0.261,0.063 -0.422,0.063 -0.189,0 -0.346,-0.022 -0.471,-0.065 -0.126,-0.044 -0.232,-0.091 -0.321,-0.144 l -0.225,-0.144 -0.176,-0.065 -0.135,0.033 -0.088,0.092 -0.195,0.316 c 0.186,0.167 0.412,0.304 0.678,0.411 0.266,0.107 0.563,0.16 0.891,0.16 0.288,0 0.542,-0.039 0.761,-0.116 0.22,-0.077 0.406,-0.183 0.557,-0.318 0.152,-0.134 0.267,-0.294 0.344,-0.478 0.077,-0.184 0.116,-0.384 0.116,-0.601 0,-0.189 -0.035,-0.351 -0.104,-0.485 -0.07,-0.135 -0.162,-0.249 -0.277,-0.341 -0.114,-0.093 -0.244,-0.171 -0.39,-0.233 -0.145,-0.061 -0.294,-0.118 -0.447,-0.169 -0.154,-0.051 -0.303,-0.099 -0.448,-0.144 -0.146,-0.045 -0.276,-0.096 -0.39,-0.155 -0.115,-0.059 -0.207,-0.129 -0.277,-0.209 -0.069,-0.081 -0.104,-0.181 -0.104,-0.302 0,-0.096 0.021,-0.185 0.063,-0.267 l 0.181,-0.216 c 0.078,-0.062 0.174,-0.11 0.285,-0.146 0.112,-0.036 0.237,-0.053 0.376,-0.053 0.161,0 0.3,0.017 0.418,0.053 0.118,0.036 0.219,0.075 0.304,0.116 l 0.216,0.114 0.158,0.051 0.171,-0.102 0.186,-0.302 z m -4.266,-2.423 0,1.346 -0.074,0.719 c -0.01,0.1 -0.036,0.177 -0.079,0.23 -0.044,0.055 -0.113,0.081 -0.209,0.081 l -0.188,-0.081 c -0.045,-0.053 -0.077,-0.13 -0.095,-0.23 l -0.074,-0.719 0,-1.346 0.719,0 z m -3.663,6.652 0,-2.994 c 0.13,-0.319 0.291,-0.562 0.485,-0.729 0.193,-0.167 0.434,-0.25 0.721,-0.25 0.162,0 0.287,0.014 0.376,0.044 l 0.2,0.044 0.144,-0.117 0.107,-0.617 c -0.09,-0.053 -0.187,-0.094 -0.293,-0.123 -0.105,-0.029 -0.223,-0.044 -0.353,-0.044 -0.318,0 -0.596,0.092 -0.833,0.277 -0.236,0.183 -0.435,0.44 -0.596,0.768 l -0.056,-0.734 -0.069,-0.177 -0.186,-0.05 -0.474,0 0,4.702 0.827,0 z m -3.811,-4.169 c -0.4,0 -0.714,0.116 -0.943,0.346 -0.229,0.231 -0.371,0.55 -0.427,0.959 l 2.558,0 c 0,-0.192 -0.026,-0.368 -0.079,-0.527 -0.053,-0.159 -0.13,-0.297 -0.232,-0.413 -0.102,-0.117 -0.227,-0.206 -0.374,-0.269 -0.147,-0.064 -0.315,-0.096 -0.503,-0.096 m -0.019,-0.608 c 0.282,0 0.542,0.048 0.78,0.142 0.238,0.094 0.444,0.231 0.617,0.408 0.174,0.179 0.309,0.398 0.406,0.659 0.098,0.262 0.147,0.56 0.147,0.895 0,0.129 -0.014,0.216 -0.042,0.259 l -0.158,0.065 -3.129,0 c 0.006,0.297 0.047,0.555 0.121,0.775 0.074,0.22 0.176,0.403 0.306,0.55 0.13,0.147 0.285,0.257 0.465,0.33 0.179,0.073 0.38,0.109 0.603,0.109 0.208,0 0.386,-0.024 0.536,-0.072 0.15,-0.048 0.28,-0.1 0.388,-0.156 0.108,-0.055 0.199,-0.107 0.271,-0.155 l 0.188,-0.072 0.158,0.079 0.232,0.302 c -0.102,0.124 -0.224,0.231 -0.366,0.322 -0.143,0.092 -0.295,0.167 -0.458,0.226 -0.162,0.058 -0.33,0.103 -0.503,0.132 -0.174,0.029 -0.345,0.044 -0.515,0.044 -0.326,0 -0.625,-0.055 -0.899,-0.165 -0.274,-0.11 -0.51,-0.271 -0.71,-0.483 -0.199,-0.212 -0.355,-0.474 -0.466,-0.786 -0.112,-0.313 -0.167,-0.672 -0.167,-1.077 0,-0.329 0.05,-0.635 0.15,-0.919 0.101,-0.285 0.245,-0.532 0.434,-0.741 0.189,-0.209 0.419,-0.373 0.692,-0.492 0.272,-0.119 0.58,-0.179 0.919,-0.179 m -4.145,4.777 0.826,0 0,-6.837 -0.826,0 0,6.837 z m -3.077,-4.169 c -0.399,0 -0.713,0.116 -0.942,0.346 -0.229,0.231 -0.371,0.55 -0.427,0.959 l 2.558,0 c 0,-0.192 -0.027,-0.368 -0.079,-0.527 -0.053,-0.159 -0.13,-0.297 -0.232,-0.413 -0.103,-0.117 -0.227,-0.206 -0.374,-0.269 -0.147,-0.064 -0.315,-0.096 -0.504,-0.096 m -0.018,-0.608 c 0.282,0 0.541,0.048 0.78,0.142 0.238,0.094 0.444,0.231 0.617,0.408 0.173,0.179 0.309,0.398 0.406,0.659 0.098,0.262 0.146,0.56 0.146,0.895 0,0.129 -0.013,0.216 -0.041,0.259 l -0.158,0.065 -3.129,0 c 0.006,0.297 0.047,0.555 0.121,0.775 0.074,0.22 0.176,0.403 0.306,0.55 0.13,0.147 0.285,0.257 0.464,0.33 0.18,0.073 0.381,0.109 0.604,0.109 0.207,0 0.386,-0.024 0.536,-0.072 0.15,-0.048 0.279,-0.1 0.388,-0.156 0.108,-0.055 0.198,-0.107 0.271,-0.155 l 0.188,-0.072 0.158,0.079 0.232,0.302 c -0.102,0.124 -0.224,0.231 -0.367,0.322 -0.142,0.092 -0.294,0.167 -0.457,0.226 -0.162,0.058 -0.33,0.103 -0.504,0.132 -0.173,0.029 -0.344,0.044 -0.515,0.044 -0.325,0 -0.624,-0.055 -0.898,-0.165 -0.274,-0.11 -0.51,-0.271 -0.71,-0.483 -0.2,-0.212 -0.355,-0.474 -0.467,-0.786 -0.111,-0.313 -0.167,-0.672 -0.167,-1.077 0,-0.329 0.05,-0.635 0.151,-0.919 0.1,-0.285 0.245,-0.532 0.434,-0.741 0.189,-0.209 0.419,-0.373 0.692,-0.492 0.272,-0.119 0.578,-0.179 0.919,-0.179 m -5.292,4.777 0.748,0 1.917,-4.702 -0.645,0 -0.156,0.049 -0.09,0.123 -1.207,3.026 c -0.044,0.111 -0.079,0.223 -0.107,0.334 -0.028,0.112 -0.054,0.222 -0.079,0.33 -0.022,-0.108 -0.045,-0.218 -0.07,-0.33 -0.025,-0.111 -0.058,-0.223 -0.102,-0.334 l -1.193,-3.026 -0.093,-0.122 -0.162,-0.05 -0.678,0 1.917,4.702 z m -4.722,-0.506 c 0.146,0 0.279,-0.015 0.4,-0.044 0.12,-0.029 0.234,-0.071 0.341,-0.125 0.106,-0.055 0.209,-0.121 0.306,-0.198 0.098,-0.077 0.193,-0.165 0.286,-0.264 l 0,-0.98 c -0.381,0.013 -0.704,0.043 -0.971,0.09 -0.266,0.049 -0.482,0.111 -0.649,0.188 -0.167,0.078 -0.289,0.169 -0.365,0.274 -0.076,0.106 -0.113,0.224 -0.113,0.353 0,0.124 0.02,0.231 0.06,0.321 l 0.162,0.22 c 0.068,0.058 0.149,0.099 0.242,0.125 0.093,0.027 0.194,0.04 0.301,0.04 m 2.145,0.506 -0.367,0 -0.195,-0.037 -0.097,-0.158 -0.093,-0.436 c -0.124,0.111 -0.245,0.211 -0.362,0.299 -0.118,0.088 -0.242,0.162 -0.371,0.223 -0.13,0.06 -0.269,0.106 -0.416,0.137 -0.147,0.03 -0.31,0.046 -0.49,0.046 -0.182,0 -0.353,-0.025 -0.512,-0.077 -0.16,-0.05 -0.298,-0.127 -0.416,-0.229 -0.118,-0.102 -0.211,-0.232 -0.281,-0.388 -0.07,-0.156 -0.104,-0.341 -0.104,-0.554 0,-0.186 0.051,-0.365 0.153,-0.537 0.102,-0.171 0.267,-0.324 0.494,-0.457 0.228,-0.133 0.526,-0.242 0.894,-0.327 0.368,-0.085 0.818,-0.134 1.351,-0.146 l 0,-0.367 c 0,-0.365 -0.078,-0.641 -0.235,-0.829 -0.156,-0.187 -0.387,-0.28 -0.694,-0.28 -0.201,0 -0.37,0.025 -0.508,0.076 -0.138,0.051 -0.257,0.109 -0.357,0.172 -0.101,0.063 -0.188,0.121 -0.26,0.172 l -0.216,0.076 -0.146,-0.044 -0.1,-0.109 -0.149,-0.265 c 0.26,-0.25 0.54,-0.437 0.84,-0.561 0.3,-0.124 0.633,-0.186 0.998,-0.186 0.263,0 0.497,0.043 0.701,0.13 0.205,0.087 0.376,0.208 0.516,0.362 0.139,0.155 0.244,0.342 0.315,0.562 0.072,0.22 0.107,0.461 0.107,0.724 l 0,3.008 z m -6.369,0 0,-2.994 c 0.13,-0.319 0.292,-0.562 0.485,-0.729 0.194,-0.167 0.434,-0.25 0.722,-0.25 0.161,0 0.286,0.014 0.376,0.044 l 0.2,0.044 0.144,-0.117 0.106,-0.617 c -0.089,-0.053 -0.187,-0.094 -0.292,-0.123 -0.105,-0.029 -0.223,-0.044 -0.353,-0.044 -0.319,0 -0.596,0.092 -0.833,0.277 -0.237,0.183 -0.436,0.44 -0.597,0.768 l -0.055,-0.734 -0.07,-0.177 -0.186,-0.05 -0.473,0 0,4.702 0.826,0 z m -1.642,-6.652 0,0.757 -2.149,0 0,5.895 -0.901,0 0,-5.895 -2.158,0 0,-0.757 5.208,0 z"
           clip-path="url(#SVGID_184_-7)"
           style="fill:#005476;fill-opacity:1"
           inkscape:connector-curvature="0" />
      </g>
    </g>
  </g>
</svg>
