<?xml version="1.0" encoding="UTF-8" standalone="no"?>
<svg
   xmlns:dc="http://purl.org/dc/elements/1.1/"
   xmlns:cc="http://creativecommons.org/ns#"
   xmlns:rdf="http://www.w3.org/1999/02/22-rdf-syntax-ns#"
   xmlns:svg="http://www.w3.org/2000/svg"
   xmlns="http://www.w3.org/2000/svg"
   viewBox="0 0 270.72501 80.5"
   height="80.5"
   width="270.72501"
   xml:space="preserve"
   version="1.1"
   id="svg2"><metadata
     id="metadata8"><rdf:RDF><cc:Work
         rdf:about=""><dc:format>image/svg+xml</dc:format><dc:type
           rdf:resource="http://purl.org/dc/dcmitype/StillImage" /><dc:title></dc:title></cc:Work></rdf:RDF></metadata><defs
     id="defs6" /><g
     transform="matrix(1.25,0,0,-1.25,0,80.5)"
     id="g10"><g
       transform="scale(0.1,0.1)"
       id="g12"><path
         id="path14"
         style="fill:#434038;fill-opacity:1;fill-rule:nonzero;stroke:none"
         d="m 1899.36,222.703 c 0.56,-3.965 62.58,-13.074 67.73,-12.527 3.44,0 52.95,81.992 66.62,101.355 11.38,-17.105 59.76,-101.902 64.89,-103.035 7.43,0 64.31,8.516 65.44,12.52 0,5.703 -58.01,95.632 -79.66,134.922 25.6,37.011 78.53,116.707 81.4,128.671 0,2.801 -60.35,14.207 -66.01,11.922 -4.03,-1.133 -59.83,-91.062 -66.06,-99.597 -8.55,11.945 -58.64,99.062 -63.77,99.062 -8,0 -63.77,-8.586 -63.77,-11.984 -0.58,-7.938 59.2,-93.914 80.29,-130.918 -30.76,-41.563 -84.29,-120.703 -87.1,-130.391 m -134.38,269.863 c -86.5,0 -136.64,-68.906 -136.64,-138.894 0,-91.66 59.79,-145.762 137.79,-145.762 88.26,1.719 137.79,64.324 137.79,140.047 0,92.797 -60.37,144.609 -138.94,144.609 M 1835,348.555 c 0,-49.563 -24.47,-77.989 -71.72,-77.453 -34.75,0 -66.64,26.203 -66.64,77.453 0,44.394 23.4,76.269 71.21,75.672 35.27,-0.567 67.15,-17.625 67.15,-75.672 m -293.75,3.425 c 0,-53.55 -30.74,-76.316 -71.72,-76.316 -44.42,0 -68.34,33.016 -68.34,77.43 0,50.668 29.03,75.715 68.9,75.715 41.55,0 71.16,-30.196 71.16,-76.829 m -55.78,-142.351 c 66.6,0 124.1,46.113 124.1,146.875 0,83.699 -51.25,135.476 -118.38,136.621 -42.17,0 -75.19,-21.066 -84.29,-37.004 0.56,25.039 -0.57,180.469 -2.88,182.754 -2.25,2.863 -63.14,9.688 -72.27,0.586 -10.79,-12.527 5.13,-416.758 7.41,-428.121 1.13,-2.309 54.1,-1.164 59.79,0.574 0.54,6.824 0,29.578 -0.59,36.406 9.7,-13.086 42.13,-38.691 87.11,-38.691 m -265.32,220.867 c 0,3.438 79.75,-2.273 83.71,2.863 0,0 4.58,46.145 -1.15,51.786 -5.09,6.269 -79.13,5.148 -80.27,4.574 -0.55,-0.578 4.57,72.879 1.72,75.691 -2.27,2.305 -61.46,-1.125 -66.6,-5.695 -5.14,-5.098 -2.85,-66.59 -4.56,-67.735 -1.71,-1.687 -44.95,0 -47.24,0 -4.01,-1.113 -2.87,-52.917 0,-55.234 2.83,-2.273 45.53,-2.273 45.53,-2.812 0,0 -4.57,-111.036 -5.12,-140.055 -0.59,-51.781 26.74,-86.527 87.09,-87.113 54.67,-1.121 80.29,26.203 80.29,26.203 0,9.668 -10.84,49.5 -17.67,51.258 -5.67,0.539 -22.77,-14.813 -47.23,-14.266 -22.81,0 -32.44,15.398 -31.89,37.605 0.58,36.985 3.39,120.657 3.39,122.93 M 917.324,376.992 c 0,34.16 23.871,63.762 61.492,63.762 35.294,0 55.794,-25.051 53.484,-62.617 l -114.976,-1.145 z m -1.156,-44.375 c 37.578,-1.172 148.602,-1.172 176.472,2.821 3.41,10.851 5.12,24.453 5.12,42.128 0,61.497 -46.1,115 -117.233,115 -85.992,0 -132.691,-69.48 -132.691,-144.609 0,-73.453 43.281,-138.926 137.809,-138.926 46.655,0 84.805,19.953 99.615,34.192 -0.58,7.382 -20.49,45.554 -25.05,49.519 -15.96,-11.953 -37.01,-24.461 -71.171,-24.461 -42.152,0 -72.871,24.461 -72.871,64.336 M 561.484,483.469 c -1.148,-119.016 -0.546,-263.039 0,-265.324 1.723,-3.387 66.032,-5.118 67.172,-2.258 1.739,1.742 2.86,136.625 2.86,158.82 0,27.313 23.339,55.789 61.492,55.789 36.418,0 54.648,-26.16 54.648,-61.473 0,-22.199 -3.98,-157.683 -1.152,-158.847 1.723,-1.145 66.609,-3.41 67.223,2.851 2.25,29.071 4.511,125.821 4.511,161.68 0,73.445 -41.543,119.559 -101.343,119.559 -42.11,0 -75.707,-22.207 -87.098,-42.11 0.598,3.965 1.133,23.918 1.133,35.254 -3.961,5.156 -65.457,2.309 -69.446,-3.941" /><path
         id="path16"
         style="fill:#f7982f;fill-opacity:0.94117647;fill-rule:nonzero;stroke:none"
         d="m 325.035,568.359 c -57.89,34.786 -269.3709,-8.097 -311.1092,-77.57 -41.7266,-69.461 18.0273,-275.32 77.5664,-311.094 26.3008,-15.8 82.3128,-15.371 140.0858,-4.324 -10.801,-11.16 -15.523,-21.973 -15.855,-22.773 -0.707,-1.739 0.132,-3.711 1.859,-4.434 0.422,-0.176 0.863,-0.254 1.297,-0.254 1.336,0 2.613,0.801 3.156,2.117 0.07,0.188 4.93,11.418 16.289,22.461 -7.879,-13.554 -13.816,-33.836 -2.566,-61.699 C 251.086,72.8047 249.633,4.62891 249.613,3.28906 249.594,1.50391 251.023,0.0273438 252.828,0 l 0.039,0 c 1.778,0 3.227,1.43359 3.246,3.21484 0.075,5.52344 1.481,70.81646 -14.336,110.00816 -11.312,28.015 -3.843,47.285 4.457,59.687 -0.742,-5.754 -2.109,-10.676 -2.812,-12.754 -1.109,-2.539 -1.086,-5.527 0.312,-8.176 2.434,-4.57 8.121,-6.296 12.704,-3.867 l 33.136,17.617 c 4.59,2.446 6.321,8.125 3.895,12.7 -1.395,2.625 -3.864,4.312 -6.574,4.824 -1.52,0.418 -4.79,1.656 -8.52,3.328 56.258,16.309 106.793,41.672 124.219,70.691 39.761,66.145 -19.668,276.313 -77.559,311.086" /></g></g></svg>