<?xml version="1.0" encoding="UTF-8" standalone="no"?>
<!-- Created with Inkscape (http://www.inkscape.org/) -->

<svg
   xmlns:dc="http://purl.org/dc/elements/1.1/"
   xmlns:cc="http://creativecommons.org/ns#"
   xmlns:rdf="http://www.w3.org/1999/02/22-rdf-syntax-ns#"
   xmlns:svg="http://www.w3.org/2000/svg"
   xmlns="http://www.w3.org/2000/svg"
   xmlns:sodipodi="http://sodipodi.sourceforge.net/DTD/sodipodi-0.dtd"
   xmlns:inkscape="http://www.inkscape.org/namespaces/inkscape"
   version="1.1"
   width="400"
   height="213.778"
   id="svg3548"
   inkscape:version="0.91 r13725"
   sodipodi:docname="4U.svg">
  <sodipodi:namedview
     pagecolor="#ffffff"
     bordercolor="#666666"
     borderopacity="1"
     objecttolerance="10"
     gridtolerance="10"
     guidetolerance="10"
     inkscape:pageopacity="0"
     inkscape:pageshadow="2"
     inkscape:window-width="927"
     inkscape:window-height="758"
     id="namedview46"
     showgrid="false"
     inkscape:zoom="0.35613756"
     inkscape:cx="446.4567"
     inkscape:cy="86.456688"
     inkscape:window-x="0"
     inkscape:window-y="0"
     inkscape:window-maximized="0"
     inkscape:current-layer="g3639" />
  <defs
     id="defs3550">
    <clipPath
       id="clipPath3413">
      <path
         d="m 0,0 498.898,0 0,935.433 L 0,935.433 0,0 Z"
         id="path3415"
         inkscape:connector-curvature="0" />
    </clipPath>
  </defs>
  <metadata
     id="metadata3553">
    <rdf:RDF>
      <cc:Work
         rdf:about="">
        <dc:format>image/svg+xml</dc:format>
        <dc:type
           rdf:resource="http://purl.org/dc/dcmitype/StillImage" />
        <dc:title></dc:title>
      </cc:Work>
    </rdf:RDF>
  </metadata>
  <g
     transform="translate(82.817202,-386.73517)"
     id="layer1">
    <g
       transform="matrix(3.7461736,0,0,3.7461736,-585.43102,-1290.3151)"
       id="g3639">
      <g
         id="g3374"
         transform="matrix(2.5549754,0,0,2.5549754,-708.42173,-726.36081)">
        <g
           id="g3467"
           transform="matrix(1.25,0,0,-1.25,343.58985,477.75288)">
          <path
             style="fill:#fbba00;fill-opacity:1;fill-rule:nonzero;stroke:none"
             id="path3469"
             d="m 0,0 c -0.216,0.266 -0.444,0.593 -0.792,1.2 -0.317,0.55 -3.267,5.654 -3.855,6.671 -0.585,1.018 -1.348,2.26 -4.321,2.26 -0.628,0 -1.346,0 -2.077,-0.072 0.562,-0.629 1.1,-1.488 1.712,-2.549 1.677,-2.903 4.093,-7.089 4.255,-7.369 0.107,-0.186 0.466,-0.829 0.693,-1.144 C -3.536,-1.531 -1.231,-1.553 0,0"
             inkscape:connector-curvature="0" />
        </g>
        <g
           id="g3471"
           transform="matrix(1.25,0,0,-1.25,358.01798,459.50776)">
          <path
             style="fill:#7f103f;fill-opacity:1;fill-rule:nonzero;stroke:none"
             id="path3473"
             d="m 0,0 c -2.973,0 -3.735,-1.243 -4.322,-2.26 -0.587,-1.018 -6.113,-10.587 -6.429,-11.136 -0.349,-0.607 -0.576,-0.934 -0.791,-1.2 1.231,-1.553 3.535,-1.531 4.384,-1.003 0.227,0.315 0.586,0.958 0.694,1.144 0.161,0.28 5.152,8.93 6.828,11.834 0.613,1.06 1.151,1.919 1.712,2.548 C 1.346,0 0.629,0 0,0"
             inkscape:connector-curvature="0" />
        </g>
        <g
           id="g3475"
           transform="matrix(1.25,0,0,-1.25,343.58985,477.75288)">
          <path
             style="fill:#ab0051;fill-opacity:1;fill-rule:nonzero;stroke:none"
             id="path3477"
             d="m 0,0 c -1.231,-1.553 -3.536,-1.531 -4.385,-1.003 0.983,-1.374 2.58,-2.269 4.385,-2.269 1.805,0 3.402,0.895 4.385,2.269 C 3.535,-1.531 1.231,-1.553 0,0"
             inkscape:connector-curvature="0" />
        </g>
        <g
           id="g3479"
           transform="matrix(1.25,0,0,-1.25,354.5516,477.75288)">
          <path
             style="fill:#fbba00;fill-opacity:1;fill-rule:nonzero;stroke:none"
             id="path3481"
             d="m 0,0 c -0.216,0.266 -0.445,0.593 -0.793,1.2 -0.316,0.55 -3.267,5.654 -3.854,6.671 -0.584,1.018 -1.347,2.26 -4.321,2.26 -0.627,0 -1.346,0 -2.077,-0.072 0.561,-0.629 1.1,-1.488 1.712,-2.549 1.676,-2.903 4.093,-7.089 4.255,-7.369 0.107,-0.186 0.466,-0.829 0.693,-1.144 C -3.535,-1.531 -1.231,-1.553 0,0"
             inkscape:connector-curvature="0" />
        </g>
        <g
           id="g3483"
           transform="matrix(1.25,0,0,-1.25,368.9786,459.50776)">
          <path
             style="fill:#7f103f;fill-opacity:1;fill-rule:nonzero;stroke:none"
             id="path3485"
             d="m 0,0 c -2.973,0 -3.734,-1.243 -4.321,-2.26 -0.586,-1.018 -6.113,-10.587 -6.428,-11.136 -0.349,-0.607 -0.576,-0.934 -0.793,-1.2 1.232,-1.553 3.535,-1.531 4.385,-1.003 0.226,0.315 0.586,0.958 0.694,1.144 0.161,0.28 5.152,8.93 6.828,11.834 0.613,1.06 1.151,1.919 1.712,2.548 C 1.347,0 0.629,0 0,0"
             inkscape:connector-curvature="0" />
        </g>
        <g
           id="g3487"
           transform="matrix(1.25,0,0,-1.25,354.5516,477.75288)">
          <path
             style="fill:#ab0051;fill-opacity:1;fill-rule:nonzero;stroke:none"
             id="path3489"
             d="m 0,0 c -1.231,-1.553 -3.535,-1.531 -4.385,-1.003 0.983,-1.374 2.579,-2.269 4.385,-2.269 1.804,0 3.402,0.895 4.385,2.269 C 3.535,-1.531 1.231,-1.553 0,0"
             inkscape:connector-curvature="0" />
        </g>
        <g
           id="g3491"
           transform="matrix(1.25,0,0,-1.25,352.1306,473.77651)">
          <path
             style="fill:#ab0051;fill-opacity:1;fill-rule:nonzero;stroke:none"
             id="path3493"
             d="M 0,0 C -0.835,1.444 -1.901,3.289 -2.45,4.239 -3.314,2.741 -4.214,1.184 -4.897,0 c 0.928,-1.606 1.668,-2.889 1.756,-3.04 0.107,-0.186 0.466,-0.829 0.693,-1.144 0.226,0.315 0.586,0.958 0.694,1.144 C -1.695,-2.937 -0.972,-1.683 0,0"
             inkscape:connector-curvature="0" />
        </g>
      </g>
    </g>
  </g>
</svg>
