<?xml version="1.0" encoding="UTF-8" standalone="no"?>
<svg
   xmlns:dc="http://purl.org/dc/elements/1.1/"
   xmlns:cc="http://creativecommons.org/ns#"
   xmlns:rdf="http://www.w3.org/1999/02/22-rdf-syntax-ns#"
   xmlns:svg="http://www.w3.org/2000/svg"
   xmlns="http://www.w3.org/2000/svg"
   xmlns:sodipodi="http://sodipodi.sourceforge.net/DTD/sodipodi-0.dtd"
   xmlns:inkscape="http://www.inkscape.org/namespaces/inkscape"
   viewBox="0 0 400 254.44842"
   height="254.44299"
   width="400"
   id="svg2"
   version="1.1"
   inkscape:version="0.91 r13725"
   sodipodi:docname="5J.svg">
  <metadata
     id="metadata46">
    <rdf:RDF>
      <cc:Work
         rdf:about="">
        <dc:format>image/svg+xml</dc:format>
        <dc:type
           rdf:resource="http://purl.org/dc/dcmitype/StillImage" />
        <dc:title></dc:title>
      </cc:Work>
    </rdf:RDF>
  </metadata>
  <defs
     id="defs44" />
  <sodipodi:namedview
     pagecolor="#ffffff"
     bordercolor="#666666"
     borderopacity="1"
     objecttolerance="10"
     gridtolerance="10"
     guidetolerance="10"
     inkscape:pageopacity="0"
     inkscape:pageshadow="2"
     inkscape:window-width="1680"
     inkscape:window-height="998"
     id="namedview42"
     showgrid="false"
     inkscape:zoom="1.06"
     inkscape:cx="150"
     inkscape:cy="63.794998"
     inkscape:window-x="-8"
     inkscape:window-y="-8"
     inkscape:window-maximized="1"
     inkscape:current-layer="svg2" />
  <g
     id="g3374"
     transform="matrix(3.2101033,0,0,3.2101022,-281.52047,-6.1057342e-4)">
    <g
       id="g4"
       style="fill:#039482">
      <path
         id="path6"
         transform="matrix(1.40077,0,0,-1.40077,210.27,32.534)"
         d="m 0,0 c 0,0 3.335,4.092 -0.098,6.455 -3.652,2.515 -18.367,4.996 -35.94,-9.04 -17.573,-14.04 -20.991,-23.674 -23.515,-30.776 0,0 8.676,12.851 17.83,19.481 0,0 -2.526,-1.578 -5.525,-11.522 0,0 3.951,7.508 27.13,22.466 0,0 18.97,10.536 20.12,2.939"
         inkscape:connector-curvature="0" />
      <path
         id="path8"
         transform="matrix(1.40077,0,0,-1.40077,198.88,18.27)"
         d="m 0,0 c 0,0 -1.624,1.877 -6.172,2.033 0,0 -1.491,-2.02 -4.131,-2.091 -2.262,-0.063 -3.25,1.333 -3.764,1.831 2.827,-1.086 4.861,0.47 4.861,0.47 0,0 -8.731,1.463 -21.849,-0.668 0,0 4.623,2.761 12.57,4.295 C -11.544,7.21 2.695,7.376 0,0"
         inkscape:connector-curvature="0" />
    </g>
    <g
       id="g10"
       style="fill:#06a7e0">
      <path
         id="path12"
         transform="matrix(1.40077,0,0,-1.40077,153.82,31.579)"
         d="m 0,0 c 0,0 -19.582,-15.685 -34.707,-10.256 1.338,-10.04 12.11,-7.925 12.11,-7.925 0,0 11.128,0.975 22.596,18.18"
         inkscape:connector-curvature="0" />
      <path
         id="path14"
         transform="matrix(1.40077,0,0,-1.40077,152.48,16.759)"
         d="m 0,0 c 0,0 -21.584,-3.906 -34.15,11.964 0,0 -4.871,-10.684 6.6,-14.614 0,0 13.355,-4.791 27.554,2.65"
         inkscape:connector-curvature="0" />
      <path
         id="path16"
         transform="matrix(1.40077,0,0,-1.40077,87.9,17.923)"
         d="m 0,0 c -0.511,-3.041 -0.078,-12.773 8.183,-15.168 20.14,-5.917 43.788,12.35 43.788,12.35 C 19.431,-12.888 6.257,-4.075 0,0"
         inkscape:connector-curvature="0" />
    </g>
  </g>
</svg>
