<?xml version="1.0" encoding="UTF-8" standalone="no"?>
<!-- Generator: Adobe Illustrator 13.0.2, SVG Export Plug-In . SVG Version: 6.00 Build 14948)  -->

<svg
   xmlns:dc="http://purl.org/dc/elements/1.1/"
   xmlns:cc="http://creativecommons.org/ns#"
   xmlns:rdf="http://www.w3.org/1999/02/22-rdf-syntax-ns#"
   xmlns:svg="http://www.w3.org/2000/svg"
   xmlns="http://www.w3.org/2000/svg"
   xmlns:sodipodi="http://sodipodi.sourceforge.net/DTD/sodipodi-0.dtd"
   xmlns:inkscape="http://www.inkscape.org/namespaces/inkscape"
   version="1.0"
   id="Ebene_1"
   x="0px"
   y="0px"
   width="400"
   height="186.11099"
   viewBox="0 0 400.00001 186.111"
   enable-background="new 0 0 527.256 184.245"
   xml:space="preserve"
   inkscape:version="0.91 r13725"
   sodipodi:docname="9U.svg"><metadata
     id="metadata35"><rdf:RDF><cc:Work
         rdf:about=""><dc:format>image/svg+xml</dc:format><dc:type
           rdf:resource="http://purl.org/dc/dcmitype/StillImage" /><dc:title></dc:title></cc:Work></rdf:RDF></metadata><defs
     id="defs33" /><sodipodi:namedview
     pagecolor="#ffffff"
     bordercolor="#666666"
     borderopacity="1"
     objecttolerance="10"
     gridtolerance="10"
     guidetolerance="10"
     inkscape:pageopacity="0"
     inkscape:pageshadow="2"
     inkscape:window-width="1466"
     inkscape:window-height="965"
     id="namedview31"
     showgrid="false"
     inkscape:zoom="0.6031226"
     inkscape:cx="263.62799"
     inkscape:cy="92.122498"
     inkscape:window-x="0"
     inkscape:window-y="0"
     inkscape:window-maximized="0"
     inkscape:current-layer="g3" /><g
     id="g3"
     transform="translate(0,1.8660049)"><g
       id="g3363"
       transform="matrix(1.3830159,0,0,1.3830154,-46.602104,-1.8660118)"><path
         id="path5"
         d="m 71.496,82.296 c 0,0 -35.208,48.816 -37.8,52.273 5.401,-0.867 20.521,-4.107 32.616,-19.658 L 90.072,84.672 C 90.504,84.24 97.2,75.816 107.353,74.087 L 210.384,55.08 C 235.225,50.328 261.576,39.96 288.791,23.76 305.423,13.824 317.52,4.537 322.919,0 313.632,2.376 119.665,49.896 119.665,49.896 86.832,57.888 71.713,82.08 71.496,82.296 l 0,0 z"
         inkscape:connector-curvature="0"
         style="clip-rule:evenodd;fill:#004595;fill-rule:evenodd" /><path
         id="path7"
         d="m 55.08,133.485 c 8.856,-0.211 31.752,-1.078 31.752,-1.078 26.569,-0.861 47.304,-17.279 53.569,-22.893 -7.129,0.645 -53.137,4.752 -53.137,4.752 0,0 -10.799,0.861 -11.448,1.078 -8.855,10.8 -15.984,15.768 -20.736,18.141 l 0,0 z"
         inkscape:connector-curvature="0"
         style="clip-rule:evenodd;fill:#e53138;fill-rule:evenodd" /><path
         id="path9"
         d="m 96.12,90.072 c 0,0 -10.368,12.746 -12.744,15.769 4.32,-0.434 54.864,-5.833 54.864,-5.833 17.064,-1.943 34.775,-8.208 52.92,-19.008 10.583,-6.264 18.144,-12.312 21.816,-15.335 -11.88,1.944 -102.601,16.847 -102.601,16.847 -9.071,1.511 -14.038,7.344 -14.255,7.56 l 0,0 z"
         inkscape:connector-curvature="0"
         style="clip-rule:evenodd;fill:#ffed00;fill-rule:evenodd" /></g></g></svg>