<?xml version="1.0" encoding="UTF-8" standalone="no"?>
<!-- Created with Inkscape (http://www.inkscape.org/) -->

<svg
   xmlns:dc="http://purl.org/dc/elements/1.1/"
   xmlns:cc="http://creativecommons.org/ns#"
   xmlns:rdf="http://www.w3.org/1999/02/22-rdf-syntax-ns#"
   xmlns:svg="http://www.w3.org/2000/svg"
   xmlns="http://www.w3.org/2000/svg"
   xmlns:xlink="http://www.w3.org/1999/xlink"
   xmlns:sodipodi="http://sodipodi.sourceforge.net/DTD/sodipodi-0.dtd"
   xmlns:inkscape="http://www.inkscape.org/namespaces/inkscape"
   width="300"
   height="127.229"
   id="svg7188"
   version="1.1"
   inkscape:version="0.91 r13725"
   sodipodi:docname="A3.svg">
  <defs
     id="defs7190">
    <defs
       id="defs8743">
      <rect
         height="15.615"
         width="99.5"
         y="0.192"
         x="0.25"
         id="SVGID_1_" />
    </defs>
    <clipPath
       id="SVGID_2_">
      <use
         id="use8747"
         overflow="visible"
         xlink:href="#SVGID_1_"
         style="overflow:visible"
         x="0"
         y="0"
         width="1"
         height="1" />
    </clipPath>
    <clipPath
       id="clipPath7384"
       clipPathUnits="userSpaceOnUse">
      <path
         id="path7386"
         d="m 0,842.837 595.275,0 L 595.275,0 0,0 0,842.837 Z"
         inkscape:connector-curvature="0" />
    </clipPath>
    <clipPath
       id="clipPath7364"
       clipPathUnits="userSpaceOnUse">
      <path
         id="path7366"
         d="m 118.479,383.863 476.797,0 0,416.001 -476.797,0 0,-416.001 z"
         inkscape:connector-curvature="0" />
    </clipPath>
  </defs>
  <sodipodi:namedview
     id="base"
     pagecolor="#ffffff"
     bordercolor="#666666"
     borderopacity="1.0"
     inkscape:pageopacity="0.0"
     inkscape:pageshadow="2"
     inkscape:zoom="2.8284271"
     inkscape:cx="140.20867"
     inkscape:cy="83.778096"
     inkscape:document-units="px"
     inkscape:current-layer="g7382"
     showgrid="false"
     fit-margin-top="0"
     fit-margin-left="0"
     fit-margin-right="0"
     fit-margin-bottom="0"
     inkscape:window-width="1680"
     inkscape:window-height="998"
     inkscape:window-x="-8"
     inkscape:window-y="-8"
     inkscape:window-maximized="1" />
  <metadata
     id="metadata7193">
    <rdf:RDF>
      <cc:Work
         rdf:about="">
        <dc:format>image/svg+xml</dc:format>
        <dc:type
           rdf:resource="http://purl.org/dc/dcmitype/StillImage" />
        <dc:title></dc:title>
      </cc:Work>
    </rdf:RDF>
  </metadata>
  <g
     inkscape:label="Layer 1"
     inkscape:groupmode="layer"
     id="layer1"
     transform="translate(-85.434575,-52.72602)">
    <g
       id="g8279"
       transform="matrix(1.1690859,0,0,1.1690859,518.16711,164.68833)">
      <g
         transform="matrix(0.91710003,0,0,-0.91710003,-644.94385,60.461637)"
         inkscape:label="ANNUAL REPORT 2012 EN WEB"
         id="g7356">
        <g
           id="g7380">
          <g
             clip-path="url(#clipPath7384)"
             id="g7382">
            <g
               id="g3423"
               transform="matrix(3.3762811,0,0,3.3762702,-712.02354,-248.46319)">
              <g
                 style="fill:#002d62"
                 id="g7388"
                 transform="translate(355.7891,105.3516)">
                <path
                   inkscape:connector-curvature="0"
                   d="m 0,0 c -2,-0.438 -10.936,-4.684 -14.559,-6.512 -0.066,-0.015 -2.007,-0.453 -2.144,-0.484 -1.102,0.266 -15.805,5.133 -23.645,2.617 -3.83,-1.244 -15.423,-4.273 -15.423,-4.273 -1.168,-0.362 0.675,-0.493 1.236,-0.409 0.551,0.073 2.453,0.377 4.707,0.834 4.521,0.914 7.068,1.067 9.451,1.206 4.541,0.257 11.332,-0.434 16.764,-3.137 0.418,-0.203 0.607,-0.436 0.633,-0.717 0.041,-0.768 -1.223,-2.016 -1.723,-2.34 0,0 1.58,-0.09 2.568,0.217 0.369,0.107 0.791,0.131 1.367,0.168 0.747,0.06 1.76,0.123 3.348,0.418 3.131,0.572 4.553,1.351 6.045,2.193 l 0.107,0.061 c 0.961,0.521 9.557,4.027 9.557,4.027 5.135,2.106 7.297,0.078 13.453,0.735 6.166,0.65 11.041,2.455 14.805,2.759 0.705,0.061 -0.908,0.533 -1.344,0.586 -1.822,0.209 -10.48,0.008 -13.119,0.365 C 6.311,-0.906 2.021,0.438 0,0"
                   style="fill:#002d62;fill-opacity:1;fill-rule:nonzero;stroke:none"
                   id="path7390" />
              </g>
              <g
                 style="fill:#002d62"
                 id="g7392"
                 transform="translate(368.9258,96.9922)">
                <path
                   inkscape:connector-curvature="0"
                   d="m 0,0 c 0,-2.59 -1.188,-7.242 -1.188,-7.242 -0.05,-0.192 -0.134,-0.465 -0.173,-0.602 -0.047,-0.131 0.076,-0.248 0.279,-0.248 l 3.143,0 c 0.187,0 0.384,0.057 0.396,0.135 0.02,0.074 0.078,0.287 0.129,0.482 0,0 1.068,4.811 1.068,7.475 C 3.654,0.846 3.6,1.684 3.52,2.516 2.381,2.293 1.162,2.094 -0.082,1.936 -0.027,1.297 0,0.641 0,0"
                   style="fill:#002d62;fill-opacity:1;fill-rule:nonzero;stroke:none"
                   id="path7394" />
              </g>
              <g
                 style="fill:#002d62"
                 id="g7396"
                 transform="translate(371.4609,104.6582)">
                <path
                   inkscape:connector-curvature="0"
                   d="m 0,0 c -0.711,2.393 -1.732,4.641 -3.029,6.697 -1.758,-0.119 -3.098,0 -4.313,0.131 C -7.434,6.844 -7.523,6.844 -7.609,6.844 -6.043,4.883 -4.793,2.656 -3.93,0.256 -3.764,0.23 -3.6,0.201 -3.426,0.182 -2.693,0.088 -1.453,0.027 0,0"
                   style="fill:#002d62;fill-opacity:1;fill-rule:nonzero;stroke:none"
                   id="path7398" />
              </g>
              <g
                 style="fill:#002d62"
                 id="g7400"
                 transform="translate(318.4727,96.9922)">
                <path
                   inkscape:connector-curvature="0"
                   d="M 0,0 C 0,-2.652 1.072,-7.475 1.072,-7.475 1.121,-7.67 1.18,-7.883 1.188,-7.957 1.213,-8.035 1.391,-8.092 1.594,-8.092 l 3.148,0 c 0.19,0 0.317,0.117 0.272,0.248 -0.051,0.137 -0.121,0.41 -0.18,0.602 0,0 -1.137,4.502 -1.17,7.109 C 2.395,0.039 1.164,0.133 0,0.164 L 0,0 Z"
                   style="fill:#002d62;fill-opacity:1;fill-rule:nonzero;stroke:none"
                   id="path7402" />
              </g>
              <g
                 style="fill:#002d62"
                 id="g7404"
                 transform="translate(322.875,102.8242)">
                <path
                   inkscape:connector-curvature="0"
                   d="M 0,0 C 0.672,2.6 1.771,5.037 3.229,7.203 2.016,7.1 0.568,6.936 -1.369,6.566 -2.434,4.527 -3.238,2.316 -3.75,0 -2.602,0.074 -1.346,0.074 0,0"
                   style="fill:#002d62;fill-opacity:1;fill-rule:nonzero;stroke:none"
                   id="path7406" />
              </g>
              <g
                 style="fill:#002d62"
                 id="g7408"
                 transform="translate(330.6523,115.043)">
                <path
                   inkscape:connector-curvature="0"
                   d="m 0,0 c 4.033,3.336 9.229,5.346 14.871,5.346 4.295,0 8.322,-1.174 11.783,-3.2 0.959,0.395 1.739,0.676 2.162,0.772 0.854,0.187 1.936,0.072 3.323,-0.158 -4.69,3.896 -10.705,6.244 -17.268,6.244 -8.711,0 -16.473,-4.143 -21.414,-10.551 1.336,0.369 2.52,0.711 3.303,0.967 0.937,0.297 2.021,0.496 3.24,0.58"
                   style="fill:#002d62;fill-opacity:1;fill-rule:nonzero;stroke:none"
                   id="path7410" />
              </g>
              <g
                 style="fill:#002d62"
                 id="g7412"
                 transform="translate(359.7246,116.8418)">
                <path
                   inkscape:connector-curvature="0"
                   d="m 0,0 c -1.582,-0.33 -8.68,-3.715 -11.537,-5.16 -0.057,-0.004 -1.596,-0.363 -1.705,-0.375 -0.867,0.201 -12.524,4.055 -18.727,2.062 -3.041,-0.984 -12.232,-3.388 -12.232,-3.388 -0.928,-0.272 0.539,-0.375 0.99,-0.321 0.428,0.059 1.94,0.309 3.732,0.668 3.573,0.725 5.583,0.848 7.485,0.957 3.588,0.202 8.973,-0.355 13.275,-2.49 0.332,-0.16 0.494,-0.357 0.516,-0.58 0.017,-0.592 -0.975,-1.592 -1.373,-1.846 0,0 1.248,-0.062 2.029,0.17 0.305,0.084 0.631,0.117 1.084,0.137 0.598,0.045 1.4,0.102 2.658,0.33 2.485,0.451 3.612,1.084 4.787,1.738 l 0.088,0.034 c 0.754,0.435 7.551,3.21 7.551,3.21 4.086,1.668 5.799,0.055 10.682,0.579 4.871,0.517 8.75,1.939 11.722,2.193 0.571,0.047 -0.722,0.414 -1.062,0.455 -1.434,0.166 -8.285,0.01 -10.4,0.291 C 5,-0.721 1.592,0.342 0,0"
                   style="fill:#002d62;fill-opacity:1;fill-rule:nonzero;stroke:none"
                   id="path7414" />
              </g>
            </g>
            <g
               transform="translate(401.5352,96.9453)"
               id="g7416"
               style="fill:#002d62" />
          </g>
        </g>
      </g>
    </g>
  </g>
</svg>
