<?xml version="1.0" encoding="UTF-8" standalone="no"?>
<!-- Generator: Adobe Illustrator 13.0.0, SVG Export Plug-In . SVG Version: 6.00 Build 14948)  -->

<svg
   xmlns:dc="http://purl.org/dc/elements/1.1/"
   xmlns:cc="http://creativecommons.org/ns#"
   xmlns:rdf="http://www.w3.org/1999/02/22-rdf-syntax-ns#"
   xmlns:svg="http://www.w3.org/2000/svg"
   xmlns="http://www.w3.org/2000/svg"
   xmlns:sodipodi="http://sodipodi.sourceforge.net/DTD/sodipodi-0.dtd"
   xmlns:inkscape="http://www.inkscape.org/namespaces/inkscape"
   version="1.0"
   id="Layer_1"
   x="0px"
   y="0px"
   width="400"
   height="364.59601"
   viewBox="0 0 400.00002 364.596"
   enable-background="new 0 0 1027.44 203.904"
   xml:space="preserve"
   inkscape:version="0.91 r13725"
   sodipodi:docname="A9.svg"><metadata
     id="metadata45"><rdf:RDF><cc:Work
         rdf:about=""><dc:format>image/svg+xml</dc:format><dc:type
           rdf:resource="http://purl.org/dc/dcmitype/StillImage" /><dc:title></dc:title></cc:Work></rdf:RDF></metadata><defs
     id="defs43" /><sodipodi:namedview
     pagecolor="#ffffff"
     bordercolor="#666666"
     borderopacity="1"
     objecttolerance="10"
     gridtolerance="10"
     guidetolerance="10"
     inkscape:pageopacity="0"
     inkscape:pageshadow="2"
     inkscape:window-width="1475"
     inkscape:window-height="921"
     id="namedview41"
     showgrid="false"
     inkscape:zoom="0.30950714"
     inkscape:cx="513.71997"
     inkscape:cy="101.952"
     inkscape:window-x="0"
     inkscape:window-y="0"
     inkscape:window-maximized="0"
     inkscape:current-layer="Layer_1" /><g
     id="g3373"
     transform="matrix(1.7880771,0,0,1.7880771,0,-6.7380018e-5)"><polygon
       id="polygon3"
       points="57.816,203.904 0,0 164.088,0 223.704,203.904 "
       style="clip-rule:evenodd;fill:#e2001a;fill-rule:evenodd" /><path
       id="path5"
       d="m 60.408,66.455 c 25.704,-5.615 40.752,6.265 46.296,22.536 -28.728,-26.496 -68.256,-0.72 -55.152,27.433 9.72,-16.272 27.504,-24.696 48.096,-20.521 -45.072,10.801 -40.752,53.353 -14.041,59.4 -7.776,-15.84 -4.104,-34.2 15.84,-48.384 -20.592,31.752 11.88,65.16 41.832,46.008 -24.192,-5.688 -38.16,-29.016 -32.472,-40.824 12.24,36.936 63.216,29.376 62.208,-4.319 -10.8,10.8 -36.648,15.12 -52.632,1.296 40.176,10.367 63.072,-29.665 35.136,-50.977 -0.072,20.52 -12.312,38.376 -31.536,39.888 34.56,-21.96 14.616,-62.784 -16.848,-57.384 14.544,11.304 19.584,36 11.304,48.672 C 119.592,52.632 77.328,36.216 60.408,66.455 Z"
       inkscape:connector-curvature="0"
       style="clip-rule:evenodd;fill:#ffffff;fill-rule:evenodd" /></g></svg>