<?xml version="1.0" encoding="UTF-8" standalone="no"?>
<!-- Converted by misc2svg (http://www.network-science.de/tools/misc2svg/) -->

<svg
   xmlns:dc="http://purl.org/dc/elements/1.1/"
   xmlns:cc="http://creativecommons.org/ns#"
   xmlns:rdf="http://www.w3.org/1999/02/22-rdf-syntax-ns#"
   xmlns:svg="http://www.w3.org/2000/svg"
   xmlns="http://www.w3.org/2000/svg"
   xmlns:sodipodi="http://sodipodi.sourceforge.net/DTD/sodipodi-0.dtd"
   xmlns:inkscape="http://www.inkscape.org/namespaces/inkscape"
   sodipodi:docname="AA.svg"
   height="353.54999"
   width="400"
   version="1.1"
   inkscape:version="0.91 r13725"
   viewBox="0 0 320 282.83998"
   id="svg2">
  <metadata
     id="metadata4">
    <rdf:RDF>
      <cc:Work
         rdf:about="">
        <dc:format>image/svg+xml</dc:format>
        <dc:type
           rdf:resource="http://purl.org/dc/dcmitype/StillImage" />
        <dc:title></dc:title>
      </cc:Work>
    </rdf:RDF>
  </metadata>
  <sodipodi:namedview
     bordercolor="#666666"
     inkscape:pageshadow="2"
     guidetolerance="10"
     pagecolor="#ffffff"
     gridtolerance="10"
     inkscape:window-maximized="1"
     inkscape:zoom="0.86620581"
     objecttolerance="10"
     borderopacity="1"
     inkscape:current-layer="svg2"
     inkscape:cx="689.47049"
     inkscape:cy="155.91118"
     inkscape:window-y="-8"
     inkscape:window-x="-8"
     inkscape:window-width="1680"
     showgrid="false"
     inkscape:pageopacity="0"
     inkscape:window-height="998"
     id="namedview6"
     units="px" />
  <defs
     id="defs8">
    <clipPath
       id="clip10">
      <path
         d="m 0,0 990,0 0,223.75 -990,0 L 0,0 Z"
         id="path11"
         inkscape:connector-curvature="0" />
    </clipPath>
    <linearGradient
       id="linearGradient4545"
       y2="36.981998"
       gradientUnits="userSpaceOnUse"
       x2="1025.9"
       y1="106.3"
       x1="1051.8"
       inkscape:collect="always">
      <stop
         stop-color="#1a518b"
         offset="0"
         id="stop14" />
      <stop
         stop-color="#01acea"
         offset="1"
         id="stop16" />
    </linearGradient>
    <linearGradient
       id="linearGradient4568"
       y2="151.59"
       gradientUnits="userSpaceOnUse"
       x2="1098.9"
       y1="208.71001"
       x1="1137.3"
       inkscape:collect="always">
      <stop
         stop-color="#a11819"
         offset="0"
         id="stop19" />
      <stop
         stop-color="#e81c25"
         offset="1"
         id="stop21" />
    </linearGradient>
    <linearGradient
       id="linearGradient4582"
       y2="93.359001"
       gradientUnits="userSpaceOnUse"
       x2="967.94"
       gradientTransform="matrix(1.0040768,0,0,1.0040768,-107.70514,1.8768756)"
       y1="123.97"
       x1="962.84998"
       inkscape:collect="always">
      <stop
         stop-color="#A00"
         offset="0"
         id="stop24" />
      <stop
         stop-color="#E00"
         offset="1"
         id="stop26" />
    </linearGradient>
    <linearGradient
       id="linearGradient4600"
       y2="144.21001"
       gradientUnits="userSpaceOnUse"
       x2="1062.9"
       y1="44.636002"
       x1="1256.5"
       inkscape:collect="always">
      <stop
         stop-color="#000"
         offset="0"
         id="stop29" />
      <stop
         stop-color="#FFF"
         offset="1"
         id="stop31" />
    </linearGradient>
  </defs>
  <g
     clip-path="url(#clip10)"
     id="g35"
     style="clip-rule:nonzero;fill:#445669;fill-rule:nonzero"
     transform="translate(0,58.84)" />
  <g
     id="g3413"
     transform="matrix(1.9920058,0,0,1.9920056,-1590.4812,-58.500163)">
    <path
       id="path33"
       inkscape:connector-curvature="0"
       d="m 854.71,122.4 11.488,-18.355 17.2,-3.7224 10.718,12.836 c 0,0 -33.244,19.895 -33.309,19.574 -0.0639,-0.3209 -6.097,-10.333 -6.097,-10.333 z"
       style="color:#000000;fill:url(#linearGradient4582);fill-rule:nonzero;enable-background:accumulate" />
    <path
       id="path75"
       inkscape:connector-curvature="0"
       d="m 947.91,164.9 -2.2031,0 0,-0.79688 5.3594,0 0,0.79688 -2.2109,0 0,6.4453 -0.94531,0 0,-6.4453 z" />
    <path
       id="path77"
       inkscape:connector-curvature="0"
       d="m 957.98,168.16 c -0.0508,-1.0117 -0.12109,-2.2344 -0.12109,-3.125 l -0.0195,0 c -0.25782,0.83594 -0.55078,1.75 -0.91407,2.75 l -1.2773,3.5078 -0.70703,0 -1.1836,-3.4453 c -0.33985,-1.0312 -0.625,-1.9531 -0.82422,-2.8125 l -0.0234,0 c -0.0234,0.90235 -0.0742,2.1055 -0.14063,3.2031 l -0.1914,3.1016 -0.89453,0 0.50781,-7.2422 1.1875,0 1.2383,3.5078 c 0.30469,0.88672 0.53906,1.6836 0.73438,2.4336 l 0.0117,0 c 0.19532,-0.73047 0.45704,-1.5274 0.77735,-2.4336 l 1.2891,-3.5078 1.1992,0 0.44531,7.2422 -0.92187,0 -0.17188,-3.1797 z" />
    <path
       id="path79"
       transform="scale(0.8,0.8)"
       inkscape:connector-curvature="0"
       sodipodi:nodetypes="ccccccc"
       d="m 998.04,36.852 33.513,55.12 c 9.155,13.79 12.87,16.598 36.315,16.147 l 23.345,0.009 -40.066,-49.528 c -14.176,-19.398 -23.168,-22.259 -40.074,-21.856 z"
       style="color:#000000;fill:url(#linearGradient4545);enable-background:accumulate" />
    <path
       id="path81"
       transform="scale(0.8,0.8)"
       inkscape:connector-curvature="0"
       sodipodi:nodetypes="cccccc"
       d="m 1177.9,214.13 -62.698,-75.75 c -19.371,2.4181 -32.393,9.3553 -40.917,24.691 l 19.268,32.496 c 13.756,19.718 27.473,18.64 38.757,18.607 z"
       style="color:#000000;fill:url(#linearGradient4568);enable-background:accumulate" />
    <path
       id="path83"
       transform="scale(0.8,0.8)"
       inkscape:connector-curvature="0"
       sodipodi:nodetypes="ccccccc"
       d="m 1133.6,126.63 c -5.7302,-13.374 -24.434,-15.308 -39.897,-14.871 -6.6866,0.40342 -13.577,0.68113 -19.799,1.3852 -3.0793,0.35426 -6.404,1.1174 -10.508,3.1799 -13.038,8.4551 -7.4295,15.259 -4.4897,21.224 l 15.306,25.306 c -0.8237,-30.457 29.915,-38.054 59.388,-36.224 z"
       style="color:#000000;fill:url(#linearGradient4600);enable-background:accumulate" />
  </g>
</svg>
