<?xml version="1.0" encoding="UTF-8" standalone="no"?>
<!-- Generator: Adobe Illustrator 14.0.0, SVG Export Plug-In . SVG Version: 6.00 Build 43363)  -->

<svg
   xmlns:dc="http://purl.org/dc/elements/1.1/"
   xmlns:cc="http://creativecommons.org/ns#"
   xmlns:rdf="http://www.w3.org/1999/02/22-rdf-syntax-ns#"
   xmlns:svg="http://www.w3.org/2000/svg"
   xmlns="http://www.w3.org/2000/svg"
   xmlns:sodipodi="http://sodipodi.sourceforge.net/DTD/sodipodi-0.dtd"
   xmlns:inkscape="http://www.inkscape.org/namespaces/inkscape"
   version="1.1"
   id="Ebene_1"
   x="0px"
   y="0px"
   width="400"
   height="511.202"
   viewBox="0 0 400 511.202"
   enable-background="new 0 0 210 100"
   xml:space="preserve"
   inkscape:version="0.91 r13725"
   sodipodi:docname="AB.svg"><metadata
     id="metadata37"><rdf:RDF><cc:Work
         rdf:about=""><dc:format>image/svg+xml</dc:format><dc:type
           rdf:resource="http://purl.org/dc/dcmitype/StillImage" /><dc:title></dc:title></cc:Work></rdf:RDF></metadata><defs
     id="defs35" /><sodipodi:namedview
     pagecolor="#ffffff"
     bordercolor="#666666"
     borderopacity="1"
     objecttolerance="10"
     gridtolerance="10"
     guidetolerance="10"
     inkscape:pageopacity="0"
     inkscape:pageshadow="2"
     inkscape:window-width="1353"
     inkscape:window-height="859"
     id="namedview33"
     showgrid="false"
     inkscape:zoom="1.5142857"
     inkscape:cx="105"
     inkscape:cy="314.15094"
     inkscape:window-x="0"
     inkscape:window-y="0"
     inkscape:window-maximized="0"
     inkscape:current-layer="Ebene_1" /><g
     id="g3365"
     transform="matrix(6.6194436,0,0,6.6194482,-10.247583,-36.114872)"><path
       id="path25"
       d="M 40.342,54.689 C 37.852,47.895 35.629,43.197 33.987,40.817 32.35,38.437 31.279,37.385 30.164,36.509 29.217,35.765 27.235,34.45 25.201,34.45 l 0,-0.15 8.755,0 c 2.354,0.005 5.295,0.872 7.622,2.999 0.71,0.646 1.371,1.394 1.988,2.208 0.558,0.743 1.087,1.541 1.58,2.384 2.387,4.046 4.13,8.947 5.998,13.844 0.118,0.3 0.619,1.673 0.708,1.904 0.328,0.823 0.685,1.652 1.056,2.477 L 61.489,25.498 C 64.219,14.465 55.199,5.49 41.337,5.456 27.468,5.417 14.01,14.33 11.279,25.359 L 2.036,62.641 c -2.733,11.038 6.292,20.007 20.157,20.042 9.641,0.03 19.083,-4.271 24.86,-10.597 -1.699,-0.009 -4.058,-0.153 -6.816,-0.684 -5.757,-1.094 -9.855,-7.03 -13.41,-16.713 -2.491,-6.794 -4.661,-11.492 -6.299,-13.872 -1.639,-2.38 -2.752,-3.38 -3.866,-4.258 -1.116,-0.875 -3.223,-2.104 -5.043,-2.109 l 0,-0.15 8.826,0 c 2.353,0.005 5.343,0.872 7.67,2.999 0.715,0.646 1.374,1.394 1.991,2.208 0.555,0.743 1.085,1.541 1.583,2.384 2.376,4.046 4.124,8.947 5.992,13.844 0.124,0.3 0.619,1.673 0.717,1.904 2.213,5.611 5.613,11.381 9.458,13.525 0.496,-0.594 0.955,-1.201 1.379,-1.825 -3.516,-2.686 -6.349,-7.702 -8.893,-14.65"
       inkscape:connector-curvature="0"
       style="fill:#d40032" /><path
       id="path27"
       d="M 38.387,57.637 C 38.297,57.408 37.797,56.035 37.678,55.735 35.809,50.84 34.063,45.939 31.679,41.892 31.186,41.044 30.654,40.251 30.099,39.508 29.482,38.694 28.824,37.946 28.108,37.3 25.783,35.175 22.79,34.307 20.436,34.299 l -8.825,0 c 0,0 0,0.126 0,0.152 1.822,0.005 3.93,1.232 5.044,2.11 1.114,0.876 2.225,1.877 3.865,4.258 1.64,2.38 3.811,7.077 6.303,13.875 3.549,9.684 7.649,15.619 13.406,16.714 2.764,0.526 5.119,0.671 6.818,0.68 0.277,-0.303 0.544,-0.609 0.803,-0.92 -3.848,-2.147 -7.245,-7.914 -9.463,-13.531 z"
       inkscape:connector-curvature="0"
       style="fill:#ffffff" /><path
       id="path29"
       d="M 52.906,60.116 C 52.53,59.294 52.176,58.464 51.85,57.637 51.76,57.408 51.26,56.035 51.14,55.735 49.272,50.84 47.526,45.939 45.141,41.892 44.649,41.044 44.119,40.251 43.562,39.508 42.944,38.694 42.286,37.946 41.572,37.3 39.244,35.175 36.306,34.307 33.951,34.299 l -8.758,0 c 0,0 0,0.134 0,0.152 2.035,0 4.018,1.313 4.968,2.059 1.114,0.877 2.184,1.928 3.822,4.309 1.641,2.38 3.864,7.077 6.355,13.875 2.546,6.945 5.375,11.962 8.894,14.647 1.409,-2.051 2.443,-4.259 3.015,-6.559 l 0.659,-2.666 z"
       inkscape:connector-curvature="0"
       style="fill:#ffffff" /><path
       id="path31"
       d="m 7.289,61.458 c 0,6.153 4.983,11.142 11.129,11.142 4.829,0 8.941,-3.084 10.478,-7.394 -0.259,-0.412 -0.519,-0.834 -0.776,-1.259 -2.073,-3.377 -3.645,-7.99 -5.494,-12.805 -1.3,-0.529 -2.722,-0.827 -4.208,-0.827 -6.146,0 -11.129,4.989 -11.129,11.143"
       inkscape:connector-curvature="0"
       style="fill:#ffffff" /></g></svg>