<?xml version="1.0" encoding="UTF-8" standalone="no"?>
<!-- Generator: Adobe Illustrator 12.0.0, SVG Export Plug-In . SVG Version: 6.00 Build 51448)  -->

<svg
   xmlns:dc="http://purl.org/dc/elements/1.1/"
   xmlns:cc="http://creativecommons.org/ns#"
   xmlns:rdf="http://www.w3.org/1999/02/22-rdf-syntax-ns#"
   xmlns:svg="http://www.w3.org/2000/svg"
   xmlns="http://www.w3.org/2000/svg"
   xmlns:sodipodi="http://sodipodi.sourceforge.net/DTD/sodipodi-0.dtd"
   xmlns:inkscape="http://www.inkscape.org/namespaces/inkscape"
   version="1.1"
   id="Layer_1"
   width="400"
   height="392.61099"
   viewBox="0 0 400 392.611"
   overflow="visible"
   enable-background="new 0 0 968.833 126.613"
   xml:space="preserve"
   inkscape:version="0.91 r13725"
   sodipodi:docname="AC.svg"
   style="overflow:visible"><metadata
     id="metadata29"><rdf:RDF><cc:Work
         rdf:about=""><dc:format>image/svg+xml</dc:format><dc:type
           rdf:resource="http://purl.org/dc/dcmitype/StillImage" /><dc:title></dc:title></cc:Work></rdf:RDF></metadata><defs
     id="defs27"><inkscape:perspective
       sodipodi:type="inkscape:persp3d"
       inkscape:vp_x="0 : 63.3065 : 1"
       inkscape:vp_y="0 : 1000 : 0"
       inkscape:vp_z="968.83301 : 63.3065 : 1"
       inkscape:persp3d-origin="484.4165 : 42.204334 : 1"
       id="perspective31" /></defs><sodipodi:namedview
     pagecolor="#ffffff"
     bordercolor="#666666"
     borderopacity="1"
     objecttolerance="10"
     gridtolerance="10"
     guidetolerance="10"
     inkscape:pageopacity="0"
     inkscape:pageshadow="2"
     inkscape:window-width="1680"
     inkscape:window-height="998"
     id="namedview25"
     showgrid="false"
     inkscape:zoom="0.78824248"
     inkscape:cx="270.14304"
     inkscape:cy="81.248851"
     inkscape:window-x="-8"
     inkscape:window-y="-8"
     inkscape:window-maximized="1"
     inkscape:current-layer="g3" /><g
     id="g3"
     transform="matrix(0.310512,0,0,0.310512,-7.87606e-6,353.29582)"><path
       d="m 665.91243,-238.03384 c 0,-43.60994 23.7773,-47.57448 63.3927,-27.75178 71.3816,39.61545 142.7333,83.22539 142.7333,83.22539 3.9246,-23.82718 23.7473,-43.60994 67.3572,-35.69085 39.6154,11.86367 83.21527,19.81271 83.21527,19.81271 0,0 -23.75717,-51.52903 -31.72627,-75.30629 -19.7727,-47.57448 -3.9345,-67.34725 15.85817,-71.34175 0,0 -27.73177,-19.83269 -43.58987,-31.70634 -39.6254,-27.73181 -31.7163,-55.48359 7.959,-71.36172 51.49897,-19.77278 114.94157,-47.55451 114.94157,-47.55451 -19.8327,-11.89363 -43.6099,-47.5645 -19.8327,-87.20991 27.7418,-35.67088 67.3972,-91.15446 67.3972,-91.15446 0,0 -71.3317,0 -114.9117,0 -43.60987,0 -55.55337,-31.71633 -51.56887,-55.4836 0,0 -71.3517,47.55451 -118.9062,79.27084 -39.6254,27.73181 -79.2508,0 -71.3517,-47.58447 7.9491,-71.34176 15.8682,-154.55716 15.8682,-154.55716 -23.7673,15.8282 -67.3572,15.8282 -87.1999,-23.79723 -27.7318,-63.40268 -59.4481,-134.76443 -59.4481,-134.76443 0,0 -35.6508,71.36175 -63.4426,134.76443 -19.7827,39.62543 -63.3926,39.62543 -87.1998,23.79723 0,0 7.959,83.2154 19.8427,154.55716 3.9645,47.58447 -31.7263,75.31628 -71.3417,47.58447 -51.4991,-31.71633 -118.9162,-79.27084 -118.9162,-79.27084 0,23.75728 -11.8736,55.4836 -51.499,55.4836 -47.5845,0 -114.94164,0 -114.94164,0 0,0 39.61544,55.48358 63.39264,91.15446 27.7418,39.64541 3.9645,75.31628 -15.8581,87.20991 0,0 63.4326,27.77175 114.9316,47.55451 35.6908,15.87813 47.5844,43.61993 7.949,71.36172 -19.8326,11.86366 -47.5744,31.70634 -47.5744,31.70634 19.8327,3.98451 39.6254,23.76727 19.8327,71.34175 -11.8837,23.77726 -35.6909,75.30629 -35.6909,75.30629 0,0 43.59,-7.94904 87.1999,-19.81271 39.6753,-7.91909 59.4481,11.86367 63.4326,35.69085 0,0 75.3062,-43.60994 146.6579,-83.22539 39.6154,-19.81272 59.4581,-15.85816 59.4581,27.75178 0,31.64643 0,99.07357 0,99.07357 0,59.44813 -7.9591,118.916236 -31.7163,154.557154 C 317.13303,-12.144913 87.209855,-234.11923 87.209855,-523.45078 c 0,-301.21519 249.705975,-542.99222 558.889875,-542.99222 305.1795,0 554.89537,241.77703 554.89537,542.99222 0,277.43794 -214.03497,507.331341 -495.44727,535.063151 0,11.933567 0,59.458119 0,75.306295 C 1034.4946,55.212329 1288.195,-206.38741 1288.195,-523.45078 1288.175,-864.31137 1002.8182,-1137.7848 646.07983,-1137.7848 289.37133,-1137.7848 2.5364752e-5,-864.31137 2.5364752e-5,-523.45078 2.5364752e-5,-226.17017 225.94873,23.545938 519.25453,79.019543 c 51.509,7.899123 83.2153,15.858162 110.9571,47.594457 31.7263,-59.468105 35.6908,-178.384343 35.6908,-249.7261 0.01,-0.01 0.01,-83.27531 0.01,-114.92174 l 0,0 z"
       id="path5"
       style="clip-rule:evenodd;fill:#e3242b;fill-rule:evenodd"
       inkscape:connector-curvature="0" /></g></svg>