<?xml version="1.0" encoding="UTF-8" standalone="no"?>
<!-- Created with Inkscape (http://www.inkscape.org/) -->

<svg
   xmlns:dc="http://purl.org/dc/elements/1.1/"
   xmlns:cc="http://creativecommons.org/ns#"
   xmlns:rdf="http://www.w3.org/1999/02/22-rdf-syntax-ns#"
   xmlns:svg="http://www.w3.org/2000/svg"
   xmlns="http://www.w3.org/2000/svg"
   xmlns:sodipodi="http://sodipodi.sourceforge.net/DTD/sodipodi-0.dtd"
   xmlns:inkscape="http://www.inkscape.org/namespaces/inkscape"
   version="1.0"
   width="400"
   height="269.603"
   id="svg3012"
   inkscape:version="0.91 r13725"
   sodipodi:docname="AF.svg">
  <metadata
     id="metadata44">
    <rdf:RDF>
      <cc:Work
         rdf:about="">
        <dc:format>image/svg+xml</dc:format>
        <dc:type
           rdf:resource="http://purl.org/dc/dcmitype/StillImage" />
        <dc:title></dc:title>
      </cc:Work>
    </rdf:RDF>
  </metadata>
  <sodipodi:namedview
     pagecolor="#ffffff"
     bordercolor="#666666"
     borderopacity="1"
     objecttolerance="10"
     gridtolerance="10"
     guidetolerance="10"
     inkscape:pageopacity="0"
     inkscape:pageshadow="2"
     inkscape:window-width="1680"
     inkscape:window-height="998"
     id="namedview42"
     showgrid="false"
     inkscape:zoom="0.795"
     inkscape:cx="200"
     inkscape:cy="22.5"
     inkscape:window-x="-8"
     inkscape:window-y="-8"
     inkscape:window-maximized="1"
     inkscape:current-layer="g3372" />
  <defs
     id="defs3014">
    <clipPath
       id="clipPath2892">
      <path
         d="m 459.473,764.761 -4.125,-5.968 c -0.545,-0.785 -1.424,-1.543 -2.489,-1.623 l 0,-0.184 4.588,0 c 1.217,0 2.106,0.792 2.709,1.667 l 4.238,6.108"
         id="path2894"
         inkscape:connector-curvature="0" />
    </clipPath>
    <clipPath
       id="clipPath2886">
      <path
         d="m 452.662,756.827 11.857,0 0,8.0847 -11.857,0 0,-8.0847 z"
         id="path2888"
         inkscape:connector-curvature="0" />
    </clipPath>
    <clipPath
       id="clipPath2904">
      <path
         d="m 372.557,754.637 163.192,0 0,19.221 -163.192,0 0,-19.221 z"
         id="path2906"
         inkscape:connector-curvature="0" />
    </clipPath>
  </defs>
  <g
     transform="translate(-217.089,-272.87101)"
     id="layer1">
    <g
       id="g3372"
       transform="matrix(9.2468445,0,0,9.2468445,-4298.0863,-4392.4549)">
      <g
         id="g2878"
         transform="matrix(3.7504769,0,0,-3.7504781,513.09929,504.53167)">
        <path
           style="fill:#ea2426;fill-opacity:1;fill-rule:nonzero;stroke:none"
           id="path2880"
           d="M 0,0 -4.125,-5.968 C -4.67,-6.754 -5.549,-7.511 -6.614,-7.591 l 0,-0.183 4.588,0 c 1.217,0 2.106,0.791 2.708,1.667 L 4.92,0 0,0"
           inkscape:connector-curvature="0" />
      </g>
    </g>
  </g>
</svg>
