<?xml version="1.0" encoding="UTF-8" standalone="no"?>
<!-- Generator: Adobe Illustrator 18.1.1, SVG Export Plug-In . SVG Version: 6.00 Build 0)  -->

<svg
   xmlns:dc="http://purl.org/dc/elements/1.1/"
   xmlns:cc="http://creativecommons.org/ns#"
   xmlns:rdf="http://www.w3.org/1999/02/22-rdf-syntax-ns#"
   xmlns:svg="http://www.w3.org/2000/svg"
   xmlns="http://www.w3.org/2000/svg"
   xmlns:sodipodi="http://sodipodi.sourceforge.net/DTD/sodipodi-0.dtd"
   xmlns:inkscape="http://www.inkscape.org/namespaces/inkscape"
   version="1.0"
   id="Layer_1"
   x="0px"
   y="0px"
   viewBox="0 0 400 127.152"
   enable-background="new 0 0 268 88"
   xml:space="preserve"
   inkscape:version="0.91 r13725"
   sodipodi:docname="AS.svg"
   width="400"
   height="127.152"><metadata
     id="metadata19"><rdf:RDF><cc:Work
         rdf:about=""><dc:format>image/svg+xml</dc:format><dc:type
           rdf:resource="http://purl.org/dc/dcmitype/StillImage" /><dc:title></dc:title></cc:Work></rdf:RDF></metadata><defs
     id="defs17" /><sodipodi:namedview
     pagecolor="#ffffff"
     bordercolor="#666666"
     borderopacity="1"
     objecttolerance="10"
     gridtolerance="10"
     guidetolerance="10"
     inkscape:pageopacity="0"
     inkscape:pageshadow="2"
     inkscape:window-width="1680"
     inkscape:window-height="998"
     id="namedview15"
     showgrid="false"
     inkscape:zoom="1.1865672"
     inkscape:cx="134"
     inkscape:cy="44"
     inkscape:window-x="-8"
     inkscape:window-y="-8"
     inkscape:window-maximized="1"
     inkscape:current-layer="Layer_1" /><g
     id="g3347"
     transform="matrix(1.5148381,0,0,1.5148381,-2.6969947,-2.9928279)"><path
       id="path3"
       d="m 234.5,33.1 c -1.7,-0.2 -2.6,-0.3 -4.3,-0.3 -1.7,0 -3.4,0.1 -5.1,0.2 -1.9,0.2 -3.1,0.2 -4.7,1.5 -0.7,0.5 -3.8,2.5 -6,4.1 -2,1.4 -3.8,2.8 -5.9,4.2 -1.2,0.8 -2.6,1.7 -4.1,2.6 0.4,-0.6 0.4,-0.7 0.5,-0.9 1.7,-2.5 3.2,-4.7 5,-7.2 0.9,-1.2 2,-2.7 2.8,-3.9 1.5,-2.2 5.3,-7.6 6.9,-9.8 1.5,-2.1 3.3,-4.1 4.8,-6.1 2.5,-3.3 4.5,-6.8 7.3,-9.8 0.3,-0.3 0.5,-0.9 0.3,-1.2 -0.3,-0.4 -0.8,-0.5 -1.3,-0.3 -3.6,0.8 -6.3,1.1 -10.4,2.2 -2.1,0.4 -4,1 -4.7,1.3 -0.3,0.1 -0.5,0.7 -0.4,0.9 0.1,0.3 0.1,0.5 0.8,0.6 0.6,0.1 1,-0.1 1.8,-0.3 0.3,-0.1 1.2,-0.3 1.5,-0.2 0,0.3 -0.5,1.1 -0.7,1.4 -2,3.1 -4.1,6.1 -6.2,9.2 -0.9,1.4 -1.8,2.8 -2.7,4.2 -1.3,1.9 -4.8,6.8 -6.1,8.7 -1,1.5 -2.1,3.1 -3.1,4.6 -0.9,1.4 -2,2.8 -2.9,4.3 -1.1,1.7 -2.2,3.5 -3.3,5.2 -1.2,1.8 -2.5,3.6 -3.7,5.4 -2.5,3.9 -4.9,7.8 -7.4,11.7 -1.2,2 -2.4,4 -3.7,5.9 -0.8,1.2 -1.5,2.5 -1.7,3.9 -0.1,0.5 0.1,1.1 0.3,1.4 0.1,0.2 0.8,0.2 1.2,0 2.9,-1.3 5.8,-2.7 8.7,-3.9 1.6,-0.7 2,-1 3.6,-1.7 0.6,-0.3 0.9,-0.7 0.9,-1.1 0,-0.7 -0.7,-0.8 -1.2,-0.7 -0.9,0.1 -1.8,0.6 -1.7,0.4 3.5,-5.8 6.6,-11.5 10.7,-16.5 0.1,0.3 0.1,0.6 0.2,0.9 0.2,1.2 0.4,2.4 0.7,3.6 l 3.9,18 c 0.5,1.9 1,4.1 1.6,6 0.7,2.2 1.1,3.3 3.2,3.6 0,0 2.8,0.5 4.1,0.5 5.8,-0.1 4.8,-1.4 4.8,-1.4 -0.5,-1.2 -1.5,-2.5 -2.1,-3.7 -1.2,-2.4 -1.8,-2.9 -2.3,-4.8 l -5.8,-17.3 c -0.7,-2.3 -1.3,-4.6 -1.9,-6.9 -0.1,-0.5 -0.2,-1.1 -0.3,-1.7 l 2.3,-0.9 c 0.3,-0.2 1.8,-0.9 2,-1 2.8,-1.5 5.6,-2.9 8.3,-4.4 2,-1.2 6.2,-4 8.3,-5.2 1.8,-1 3.2,-1.6 5.2,-2.5 1,-0.4 1.8,-0.6 2.5,-1.6 0.3,-0.4 0.1,-1.1 -0.5,-1.2"
       inkscape:connector-curvature="0"
       style="fill:#0f2b51" /><path
       id="path5"
       d="m 226.8,66.1 c -0.7,-0.2 -0.6,-1.4 -0.2,-2.5 0.5,-1.7 1.4,-3 2.2,-4.4 0.8,-1.5 1.8,-3 2.8,-4.4 0.5,-0.7 3.5,-5.4 4.8,-6.8 1.8,-2 3.9,-4 5.9,-5.3 1.1,-0.7 1.7,-1.3 2.9,-1.9 0.4,-0.2 1.4,-0.5 1.7,-0.6 2,-0.7 3.9,-1 5.8,-0.6 0.1,0 0.3,0 0.4,0.1 0.4,0.1 -0.2,0.7 -0.2,0.7 -8.1,9.6 -25.1,26.1 -26.1,25.7 m 19.8,2.4 c 0.7,-0.3 1,-0.8 0.7,-1.3 -0.1,-0.3 -0.8,-0.5 -1.2,-0.5 -0.5,0 -1,0.2 -1.5,0.4 0,0 0,-0.1 0,-0.2 0.3,-0.4 0.5,-0.6 0.6,-0.9 1.3,-2 2.5,-4.1 3.8,-6.1 0.9,-1.5 1.9,-3 2.9,-4.4 0.9,-1.4 1.8,-2.9 2.7,-4.3 0.8,-1.3 1.7,-2.5 2.6,-3.8 1.1,-1.6 2.2,-3.1 3.2,-4.7 1.8,-2.7 4.2,-5 5.3,-8.2 0.3,-0.9 0.1,-1 -0.6,-0.9 -0.9,0 -1.8,0.1 -2.7,0.2 -1,0.1 -2,0.1 -3,0.2 -2.3,0.2 -4.6,0.3 -6.9,0.6 -1.3,0.1 -1.7,0.1 -3,0.3 -0.7,0.1 -1.5,0.2 -2.2,0.3 -0.9,0.2 -2.5,0.4 -3.3,0.6 -2.6,0.6 -5.3,1.3 -7.4,3 -1.8,1.5 -3.6,3 -5.2,4.8 -2.1,2.3 -3.9,4.8 -5.7,7.4 -1.4,2 -2.7,4.1 -3.9,6.3 -1,1.9 -1.8,3.8 -2.7,5.8 -1.4,3 -2.6,6.1 -2.2,9.5 0.2,1.9 0.8,2.5 2.7,2 0.9,-0.2 1.7,-0.5 2.6,-0.8 2.6,-1.2 5,-2.7 7.4,-4.5 1.4,-1.1 1.9,-1.6 2.7,-2.4 1.2,-1.2 2.2,-2 3.5,-3.2 1.7,-1.5 3.3,-2.9 5,-4.4 0.2,-0.1 -0.1,0.6 -0.2,0.9 -0.9,1.6 -1.7,3.1 -2.6,4.6 -0.6,1 -1,2.1 -1.6,3.1 -0.8,1.6 -1.7,3.2 -2.5,4.8 -0.2,0.4 -0.1,1.1 0.1,1.5 0.2,0.2 0.9,0.1 1.4,0 0.6,-0.2 1.2,-0.6 1.8,-1 1.5,-0.8 2.9,-1.7 4.4,-2.4 1.6,-0.9 3.3,-1.6 5,-2.3"
       inkscape:connector-curvature="0"
       style="fill:#0f2b51" /><path
       id="path7"
       d="m 130.2,66.1 c -0.7,-0.2 -0.6,-1.4 -0.2,-2.5 0.5,-1.7 1.4,-3 2.2,-4.4 0.8,-1.5 1.8,-3 2.8,-4.4 0.5,-0.7 3.5,-5.4 4.8,-6.8 1.8,-2 3.9,-4 5.9,-5.3 1.1,-0.7 1.7,-1.3 2.9,-1.9 0.4,-0.2 1.4,-0.5 1.7,-0.6 2,-0.7 3.9,-1 5.8,-0.6 0.1,0 0.3,0 0.4,0.1 0.4,0.1 -0.2,0.7 -0.2,0.7 -8.1,9.6 -25.1,26.1 -26.1,25.7 m 19.8,2.4 c 0.7,-0.3 1,-0.8 0.7,-1.3 -0.1,-0.3 -0.8,-0.5 -1.2,-0.5 -0.5,0 -1,0.2 -1.5,0.4 0,0 0,-0.1 0,-0.2 0.3,-0.4 0.5,-0.6 0.6,-0.9 1.3,-2 2.5,-4.1 3.8,-6.1 0.9,-1.5 1.9,-3 2.9,-4.4 0.9,-1.4 1.8,-2.9 2.7,-4.3 0.8,-1.3 1.7,-2.5 2.6,-3.8 1.1,-1.6 2.2,-3.1 3.2,-4.7 1.8,-2.7 4.2,-5 5.3,-8.2 0.3,-0.9 0.1,-1 -0.6,-0.9 -0.9,0 -1.8,0.1 -2.7,0.2 -1,0.1 -2,0.1 -3,0.2 -2.3,0.2 -4.6,0.3 -6.9,0.6 -1.3,0.1 -1.7,0.1 -3,0.3 -0.7,0.1 -1.5,0.2 -2.2,0.3 -0.9,0.2 -2.5,0.4 -3.3,0.6 -2.6,0.6 -5.3,1.3 -7.4,3 -1.8,1.5 -3.6,3 -5.2,4.8 -2.1,2.3 -3.9,4.8 -5.7,7.4 -1.4,2 -2.7,4.1 -3.9,6.3 -1,1.9 -1.8,3.8 -2.7,5.8 -1.4,3 -2.7,6.1 -2.2,9.5 0.2,1.9 0.8,2.5 2.7,2 0.9,-0.2 1.7,-0.5 2.6,-0.8 2.6,-1.2 5,-2.7 7.4,-4.5 1.4,-1.1 1.9,-1.6 2.7,-2.4 1.2,-1.2 2.2,-2 3.5,-3.2 1.7,-1.5 3.3,-2.9 5,-4.4 0.2,-0.1 -0.1,0.6 -0.2,0.9 -0.9,1.6 -1.7,3.1 -2.6,4.6 -0.6,1 -1,2.1 -1.6,3.1 -0.8,1.6 -1.7,3.2 -2.5,4.8 -0.2,0.4 -0.1,1.1 0.1,1.5 0.2,0.2 0.9,0.1 1.4,0 0.6,-0.2 1.2,-0.6 1.8,-1 1.5,-0.8 2.9,-1.7 4.4,-2.4 1.6,-0.9 3.3,-1.6 5,-2.3"
       inkscape:connector-curvature="0"
       style="fill:#0f2b51" /><path
       id="path9"
       d="m 112,67.3 c -0.6,0.1 0.4,-1.7 0.9,-2.6 l 2,-3.8 c 1.9,-2.9 3.8,-5.7 5.8,-8.6 0.4,-0.6 0.8,-1.2 1.2,-1.7 0.5,-0.7 1,-1.4 1.5,-2.1 l 1.4,-1.9 c 1,-1.2 2,-2.3 3,-3.4 L 137,30.8 c 1.3,-1.8 2.6,-3.7 4,-5.4 1.5,-1.9 3,-3.8 4.5,-5.7 1.9,-2.3 3.8,-4.7 5.7,-7 1.3,-1.6 2.7,-3.1 3.9,-4.6 0.2,-0.3 0.4,-0.6 0.4,-1 0.1,-0.7 -0.2,-0.9 -0.6,-0.9 -0.6,0 -1.2,0.1 -1.8,0.2 -2,0.3 -3.9,0.6 -5.9,0.9 -2.3,0.4 -4.6,0.8 -6.9,1.2 -0.7,0.1 -1,0.5 -1,1.1 0,0.6 0.7,0.5 1.2,0.5 1,0 1.6,-0.1 2.7,-0.1 -0.4,0.5 -0.6,0.9 -0.9,1.2 -1.2,1.5 -2.5,3 -3.7,4.5 -1.7,2.2 -3.4,4.4 -5.1,6.6 -1.3,1.7 -2.7,3.4 -4.1,5.1 -1.3,1.7 -2.6,3.4 -3.9,5.1 -2,2.5 -4,5.1 -5.9,7.6 -2.5,3.2 -4.9,6.5 -7.3,9.8 -3.1,4.3 -6.1,8.6 -9,13 -1.6,2.4 -3,4.8 -4.5,7.3 -0.6,1 -1.1,2 -1.6,3 -0.1,0.3 -0.2,1 0.1,1.2 0.2,0.1 0.7,-0.1 1.1,-0.2 1.7,-0.6 3.3,-1.2 5,-1.8 2.3,-0.8 4.6,-1.6 6.8,-2.4 1.5,-0.6 4.5,-1.1 4.6,-1.7 0,-1.6 -0.8,-1.6 -2.8,-1"
       inkscape:connector-curvature="0"
       style="fill:#0f2b51" /><path
       id="path11"
       d="m 186.5,54.8 c 1.5,-1.4 1.8,-2.6 0.9,-4.4 -0.4,-1 -1.1,-1.3 -2.2,-1 -0.5,0.2 -1.1,0.4 -1.6,0.5 -2.7,0.9 -5.3,1.7 -8,2.4 -1.4,0.4 -4.2,1.1 -4.4,1.1 -0.3,0 0.3,-0.8 0.5,-0.9 1.2,-1.2 2.5,-2.7 3.7,-3.8 1.1,-1 2,-1.8 3,-3 2.7,-3.3 5.8,-5.2 9.2,-7.7 1.3,-0.9 2.5,-1.5 3.4,-2.1 0.8,-0.5 0.8,-1.6 -0.1,-1.9 -0.9,-0.3 -1.9,-0.4 -2.9,-0.6 -2.7,-0.4 -4.1,-0.3 -6.2,0 -0.5,0.1 -1.1,0.3 -1.5,0.7 -0.7,0.5 -1.2,1.2 -1.8,1.8 -1.6,1.7 -3.3,3.4 -4.9,5.1 -2.4,2.5 -4.8,4.9 -7.2,7.5 -1.3,1.4 -2.3,2.9 -3.5,4.3 -1,1.3 -1.9,2.5 -2.3,4.1 -0.3,1.4 0.5,2.8 1.8,2.7 2,-0.2 3.2,-0.6 5.2,-1 1,-0.2 4,-1 3.9,-0.8 0.3,-0.1 -0.5,1 -2,2.2 -1.7,1.4 -3.5,2.7 -5.2,4 -1.7,1.3 -3.4,2.7 -5.2,4 -1.4,1.1 -2.8,2.1 -4.2,3.1 -2.3,1.7 -4.5,3.3 -6.8,4.9 -1,0.7 -2.2,1.4 -3,2.2 -0.4,0.5 -1.3,2 -1.4,4.1 0,1.1 0.3,2.2 1.3,3.1 0.9,0.7 1.2,0.6 2,0.2 1.1,-0.4 2,-1.2 3,-1.9 2.3,-1.5 4.5,-2.9 6.7,-4.4 1.5,-1 2.9,-2.3 4.4,-3.3 3,-2.2 6,-4.6 8.7,-7.2 1,-0.9 2,-1.8 3,-2.7 1.8,-1.6 3.6,-3.3 5.4,-4.7 3,-2.1 5.7,-4.2 8.3,-6.6"
       inkscape:connector-curvature="0"
       style="fill:#0f2b51" /><path
       id="path13"
       d="m 136.1,2.1 c -1.2,-0.3 -2.3,0 -3.5,0.3 -2.5,0.7 -5,1.5 -7.5,2.4 -2,0.7 -4,1.5 -5.9,2.3 -1.7,0.7 -3.4,1.6 -5.1,2.4 -2.7,1.2 -5.5,2.3 -8.2,3.7 -3.1,1.5 -6,3.3 -9,4.9 -2.8,1.6 -5.6,3.2 -8.4,4.7 -2.3,1.3 -4.8,2.4 -7.1,3.7 -3.8,2.2 -7.6,4.6 -11.3,6.9 -0.9,0.6 -1.8,1.3 -2.9,1.5 -0.6,0 -12.8,0.7 -24,1.4 -0.3,0 -0.6,0 -0.9,0 -0.1,0 -0.1,0 -0.2,0 -7.9,0.5 -15.1,0.9 -17.3,1.2 -2.4,0.3 -3.6,0.5 -4.1,0.6 -2,0.2 -3.2,1.7 -4.7,2.8 -2.2,1.6 -4.4,3.2 -6.7,4.9 -2.3,1.7 -4.7,3.5 -7,5.3 -0.3,0.2 -0.6,0.8 -0.5,1 0.1,0.4 0.8,0.5 1.1,0.5 0.1,0 0.1,0 0.2,0 l 0,0 4.4,-0.8 8.4,-1.6 12.7,-2.1 c 13.1,-2.7 19.4,-2.8 21.8,-2.6 -0.3,0.2 -0.7,0.5 -1.1,0.7 -3.5,2.2 -7,4.4 -10.5,6.6 -1.8,1.1 -3.6,2 -5.3,3.1 -2.4,1.5 -4.7,3 -7,4.6 -2.6,1.8 -5.2,3.6 -7.8,5.4 -0.6,0.4 -1.3,0.8 -1.9,1.3 -1.5,1.1 -3,2.2 -4.4,3.4 -0.8,0.6 -1.6,1.3 -2.3,2.1 -0.3,0.3 -0.7,0.7 -0.8,1.2 l 0,0.3 c 0,0 0.1,0.4 1.2,0.2 0.4,0 0.8,0 1,-0.1 4.2,0 13,-0.1 14.3,-0.8 1.1,-0.6 3.7,-2.4 5.4,-3.7 1.2,-0.7 2.2,-1.5 3.3,-2.3 2.5,-2.1 5.4,-3.4 8,-5.3 3.8,-2.8 7.7,-5.3 11.6,-7.8 5.2,-3.4 10.4,-6.8 15.6,-10.2 1,-0.7 2,-1.3 3,-1.8 l 15.6,-1.3 c 0.5,0 1,0 1.4,-0.1 l 0.3,0 0,0 c 1.2,-0.3 2.3,-0.9 3.4,-1.9 1.7,-1.7 3.4,-3.4 5.1,-5.1 0.2,-0.2 0.4,-0.7 0.4,-0.9 0,-0.1 -0.5,-0.2 -0.9,-0.1 -0.2,0 -0.5,0 -0.7,0.1 l -12.4,1.5 c 0,0 -0.1,0 -0.1,0 1.6,-1 3,-1.8 4.5,-2.6 2.9,-1.7 5.8,-3.3 8.6,-5 1.6,-1 3.1,-2.1 4.7,-3.1 3.8,-2.2 7.6,-4.3 11.4,-6.5 1.7,-0.9 5.2,-2.7 5.2,-2.6 0.2,-0.1 -7.8,9.3 -10.3,12.3 -2,2.4 -3.9,4.7 -5.9,7.1 -1.5,1.8 -3,3.6 -4.5,5.5 -1.6,2 -3.3,4.1 -4.9,6.2 -1.5,1.9 -3.1,3.8 -4.6,5.7 -1.7,2.2 -3.3,4.4 -5,6.5 -1.6,2 -3.3,4 -4.9,6.1 -1.9,2.5 -3.6,5 -5.5,7.5 -0.5,0.7 -1,1.5 -1.5,2.2 -0.1,0.2 -0.5,1 -0.3,1.2 0.2,0.3 4.6,-1.2 6.7,-1.9 2.1,-0.7 4.2,-1.4 6.3,-2.1 2.2,-0.8 3.5,-1.2 5.7,-2.1 0.9,-0.4 1.9,-0.8 2.7,-1.4 0.3,-0.2 0.6,-0.9 0.5,-1.3 -0.1,-0.7 -0.7,-0.8 -1.3,-0.7 -1.1,0.1 -1.2,0.1 -2.3,0.3 -1.2,0.3 -0.2,-1.4 0.3,-2 1.4,-1.8 2.7,-3.8 4.1,-5.6 1.5,-2 3.1,-3.9 4.6,-5.8 1.1,-1.4 2.1,-2.9 3.2,-4.2 1,-1.3 2.2,-2.6 3.2,-3.9 1.3,-1.7 2.6,-3.5 3.9,-5.1 1.2,-1.5 2.5,-2.9 3.7,-4.4 1.9,-2.3 3.7,-4.6 5.6,-6.8 2.1,-2.6 4.3,-5.2 6.5,-7.8 1.2,-1.5 5.8,-8.5 6.9,-10 0.1,-0.1 0.2,-0.2 0.2,-0.4 0,-0.1 0.1,-0.1 0.1,-0.2 0.5,-0.6 0.9,-1.1 1.3,-1.7 1,-1.4 1.9,-2.9 2.9,-4.3 0.6,-1.1 0.3,-1.4 -0.5,-1.6"
       inkscape:connector-curvature="0"
       style="fill:#0f2b51" /></g></svg>