<?xml version="1.0" encoding="UTF-8" standalone="no"?>
<!-- Creator: CorelDRAW X6 -->

<svg
   xmlns:dc="http://purl.org/dc/elements/1.1/"
   xmlns:cc="http://creativecommons.org/ns#"
   xmlns:rdf="http://www.w3.org/1999/02/22-rdf-syntax-ns#"
   xmlns:svg="http://www.w3.org/2000/svg"
   xmlns="http://www.w3.org/2000/svg"
   xmlns:sodipodi="http://sodipodi.sourceforge.net/DTD/sodipodi-0.dtd"
   xmlns:inkscape="http://www.inkscape.org/namespaces/inkscape"
   xml:space="preserve"
   width="400"
   height="449.36499"
   version="1.1"
   viewBox="0 0 11289.044 12681.887"
   id="svg2"
   inkscape:version="0.91 r13725"
   sodipodi:docname="AV.svg"
   style="clip-rule:evenodd;fill-rule:evenodd;image-rendering:optimizeQuality;shape-rendering:geometricPrecision;text-rendering:geometricPrecision"><metadata
     id="metadata31"><rdf:RDF><cc:Work
         rdf:about=""><dc:format>image/svg+xml</dc:format><dc:type
           rdf:resource="http://purl.org/dc/dcmitype/StillImage" /><dc:title></dc:title></cc:Work></rdf:RDF></metadata><defs
     id="defs29" /><sodipodi:namedview
     pagecolor="#ffffff"
     bordercolor="#666666"
     borderopacity="1"
     objecttolerance="10"
     gridtolerance="10"
     guidetolerance="10"
     inkscape:pageopacity="0"
     inkscape:pageshadow="2"
     inkscape:window-width="1068"
     inkscape:window-height="865"
     id="namedview27"
     showgrid="false"
     units="px"
     inkscape:zoom="0.30885782"
     inkscape:cx="514.79998"
     inkscape:cy="141.14977"
     inkscape:window-x="0"
     inkscape:window-y="0"
     inkscape:window-maximized="0"
     inkscape:current-layer="_233532368" /><g
     id="Capa_x0020_1"
     transform="translate(0,4715.0291)"><metadata
       id="CorelCorpID_0Corel-Layer" /><g
       id="_233532368"><g
         id="g3359"
         transform="matrix(1.5914994,0,0,1.5914986,-34956.744,-4713.6207)"><path
           id="path23"
           d="m 22873,-1 c 1105,4221 3204,6735 6185,7887 -1075,229 -2285,-19 -3488,-796 -246,-163 -932,-615 -1338,-635 -847,-42 -914,-59 -931,-262 l 2862,0 -643,-711 C 21591,5448 21261,1579 22874,0 Z"
           inkscape:connector-curvature="0"
           style="fill:#e3001e" /><path
           id="path25"
           d="m 27356,6244 c 51,30 169,51 161,0 -181,-574 -906,-757 -2008,-803 l 806,811 1041,-9 z"
           inkscape:connector-curvature="0"
           style="fill:#e3001e" /></g></g></g></svg>