<?xml version="1.0" encoding="UTF-8" standalone="no"?>
<!-- Created with Inkscape (http://www.inkscape.org/) -->

<svg
   xmlns:dc="http://purl.org/dc/elements/1.1/"
   xmlns:cc="http://creativecommons.org/ns#"
   xmlns:rdf="http://www.w3.org/1999/02/22-rdf-syntax-ns#"
   xmlns:svg="http://www.w3.org/2000/svg"
   xmlns="http://www.w3.org/2000/svg"
   xmlns:sodipodi="http://sodipodi.sourceforge.net/DTD/sodipodi-0.dtd"
   xmlns:inkscape="http://www.inkscape.org/namespaces/inkscape"
   version="1.0"
   width="400"
   height="346.82101"
   id="svg8461"
   sodipodi:version="0.32"
   inkscape:version="0.91 r13725"
   sodipodi:docname="AZ.svg"
   inkscape:output_extension="org.inkscape.output.svg.inkscape"
   sodipodi:modified="true">
  <metadata
     id="metadata17818">
    <rdf:RDF>
      <cc:Work
         rdf:about="">
        <dc:format>image/svg+xml</dc:format>
        <dc:type
           rdf:resource="http://purl.org/dc/dcmitype/StillImage" />
        <dc:title></dc:title>
      </cc:Work>
    </rdf:RDF>
  </metadata>
  <sodipodi:namedview
     inkscape:window-height="998"
     inkscape:window-width="1680"
     inkscape:pageshadow="2"
     inkscape:pageopacity="0.0"
     guidetolerance="10.0"
     gridtolerance="10.0"
     objecttolerance="10.0"
     borderopacity="1.0"
     bordercolor="#666666"
     pagecolor="#ffffff"
     id="base"
     inkscape:zoom="0.84789372"
     inkscape:cx="407.48032"
     inkscape:cy="94.960625"
     inkscape:window-x="-8"
     inkscape:window-y="-8"
     inkscape:current-layer="g17860"
     showgrid="false"
     inkscape:window-maximized="1" />
  <defs
     id="defs8463">
    <clipPath
       id="clp19">
      <path
         d="m 49.76,503.14 77.51,0 0,15.35 -77.51,0 0,-15.35 z"
         id="path254"
         inkscape:connector-curvature="0" />
    </clipPath>
    <clipPath
       id="clp18">
      <path
         d="m 51.62,538.86 73.73,0 0,40.12 -73.73,0 0,-40.12 z"
         id="path224"
         inkscape:connector-curvature="0" />
    </clipPath>
    <clipPath
       id="clp73">
      <path
         d="m 183.38,592.14 51.31,0 0,29.95 -51.31,0 0,-29.95 z"
         id="path2344"
         inkscape:connector-curvature="0" />
    </clipPath>
    <clipPath
       id="clp74">
      <path
         d="m 183.38,592.14 51.31,0 0,29.95 -51.31,0 0,-29.95 z"
         id="path2364"
         inkscape:connector-curvature="0" />
    </clipPath>
    <clipPath
       id="clp70">
      <path
         d="m 178.54,632.58 60.89,0 0,45.63 -60.89,0 0,-45.63 z"
         id="path2292"
         inkscape:connector-curvature="0" />
    </clipPath>
    <clipPath
       id="clp71">
      <path
         d="m 178.54,632.58 60.89,0 0,45.63 -60.89,0 0,-45.63 z"
         id="path2316"
         inkscape:connector-curvature="0" />
    </clipPath>
    <clipPath
       id="clp72">
      <path
         d="m 178.54,632.58 60.89,0 0,45.63 -60.89,0 0,-45.63 z"
         id="path2328"
         inkscape:connector-curvature="0" />
    </clipPath>
    <clipPath
       id="clp17">
      <path
         d="m 45.19,647.41 86.6,0 0,15.77 -86.6,0 0,-15.77 z"
         id="path162"
         inkscape:connector-curvature="0" />
    </clipPath>
    <clipPath
       id="clp4">
      <path
         d="m 45.29,692.27 86.37,0 0,22.6 -86.37,0 0,-22.6 z"
         id="path26"
         inkscape:connector-curvature="0" />
    </clipPath>
    <clipPath
       id="clp5">
      <path
         d="m 45.29,692.27 86.37,0 0,22.6 -86.37,0 0,-22.6 z"
         id="path42"
         inkscape:connector-curvature="0" />
    </clipPath>
    <clipPath
       id="clp6">
      <path
         d="m 45.29,692.27 86.37,0 0,22.6 -86.37,0 0,-22.6 z"
         id="path52"
         inkscape:connector-curvature="0" />
    </clipPath>
    <clipPath
       id="clp7">
      <path
         d="m 45.29,692.27 86.37,0 0,22.6 -86.37,0 0,-22.6 z"
         id="path62"
         inkscape:connector-curvature="0" />
    </clipPath>
    <clipPath
       id="clp8">
      <path
         d="m 45.29,692.27 86.37,0 0,22.6 -86.37,0 0,-22.6 z"
         id="path72"
         inkscape:connector-curvature="0" />
    </clipPath>
    <clipPath
       id="clp9">
      <path
         d="m 45.29,692.27 86.37,0 0,22.6 -86.37,0 0,-22.6 z"
         id="path82"
         inkscape:connector-curvature="0" />
    </clipPath>
    <clipPath
       id="clp10">
      <path
         d="m 45.29,692.27 86.37,0 0,22.6 -86.37,0 0,-22.6 z"
         id="path92"
         inkscape:connector-curvature="0" />
    </clipPath>
    <clipPath
       id="clp11">
      <path
         d="m 45.29,692.27 86.37,0 0,22.6 -86.37,0 0,-22.6 z"
         id="path102"
         inkscape:connector-curvature="0" />
    </clipPath>
    <clipPath
       id="clp12">
      <path
         d="m 45.29,692.27 86.37,0 0,22.6 -86.37,0 0,-22.6 z"
         id="path112"
         inkscape:connector-curvature="0" />
    </clipPath>
    <clipPath
       id="clp13">
      <path
         d="m 45.29,692.27 86.37,0 0,22.6 -86.37,0 0,-22.6 z"
         id="path122"
         inkscape:connector-curvature="0" />
    </clipPath>
    <clipPath
       id="clp14">
      <path
         d="m 45.29,692.27 86.37,0 0,22.6 -86.37,0 0,-22.6 z"
         id="path132"
         inkscape:connector-curvature="0" />
    </clipPath>
    <clipPath
       id="clp15">
      <path
         d="m 45.29,692.27 86.37,0 0,22.6 -86.37,0 0,-22.6 z"
         id="path142"
         inkscape:connector-curvature="0" />
    </clipPath>
    <clipPath
       id="clp16">
      <path
         d="m 45.29,692.27 86.37,0 0,22.6 -86.37,0 0,-22.6 z"
         id="path152"
         inkscape:connector-curvature="0" />
    </clipPath>
    <clipPath
       id="clipPath6577">
      <path
         d="m 45.29,692.27 86.37,0 0,22.6 -86.37,0 0,-22.6 z"
         id="path6579"
         inkscape:connector-curvature="0" />
    </clipPath>
    <clipPath
       id="clipPath6588">
      <path
         d="m 45.29,692.27 86.37,0 0,22.6 -86.37,0 0,-22.6 z"
         id="path6590"
         inkscape:connector-curvature="0" />
    </clipPath>
    <clipPath
       id="clipPath6596">
      <path
         d="m 45.29,692.27 86.37,0 0,22.6 -86.37,0 0,-22.6 z"
         id="path6598"
         inkscape:connector-curvature="0" />
    </clipPath>
    <clipPath
       id="clipPath6604">
      <path
         d="m 45.29,692.27 86.37,0 0,22.6 -86.37,0 0,-22.6 z"
         id="path6606"
         inkscape:connector-curvature="0" />
    </clipPath>
    <clipPath
       id="clipPath6612">
      <path
         d="m 45.29,692.27 86.37,0 0,22.6 -86.37,0 0,-22.6 z"
         id="path6614"
         inkscape:connector-curvature="0" />
    </clipPath>
    <clipPath
       id="clipPath6620">
      <path
         d="m 45.29,692.27 86.37,0 0,22.6 -86.37,0 0,-22.6 z"
         id="path6622"
         inkscape:connector-curvature="0" />
    </clipPath>
    <clipPath
       id="clipPath6628">
      <path
         d="m 45.29,692.27 86.37,0 0,22.6 -86.37,0 0,-22.6 z"
         id="path6630"
         inkscape:connector-curvature="0" />
    </clipPath>
    <clipPath
       id="clipPath6636">
      <path
         d="m 45.29,692.27 86.37,0 0,22.6 -86.37,0 0,-22.6 z"
         id="path6638"
         inkscape:connector-curvature="0" />
    </clipPath>
    <clipPath
       id="clipPath6644">
      <path
         d="m 45.29,692.27 86.37,0 0,22.6 -86.37,0 0,-22.6 z"
         id="path6646"
         inkscape:connector-curvature="0" />
    </clipPath>
    <clipPath
       id="clipPath6652">
      <path
         d="m 45.29,692.27 86.37,0 0,22.6 -86.37,0 0,-22.6 z"
         id="path6654"
         inkscape:connector-curvature="0" />
    </clipPath>
    <clipPath
       id="clipPath6660">
      <path
         d="m 45.29,692.27 86.37,0 0,22.6 -86.37,0 0,-22.6 z"
         id="path6662"
         inkscape:connector-curvature="0" />
    </clipPath>
    <clipPath
       id="clipPath6668">
      <path
         d="m 45.29,692.27 86.37,0 0,22.6 -86.37,0 0,-22.6 z"
         id="path6670"
         inkscape:connector-curvature="0" />
    </clipPath>
    <clipPath
       id="clipPath6676">
      <path
         d="m 45.29,692.27 86.37,0 0,22.6 -86.37,0 0,-22.6 z"
         id="path6678"
         inkscape:connector-curvature="0" />
    </clipPath>
    <clipPath
       id="clipPath6684">
      <path
         d="m 45.19,647.41 86.6,0 0,15.77 -86.6,0 0,-15.77 z"
         id="path6686"
         inkscape:connector-curvature="0" />
    </clipPath>
    <clipPath
       id="clipPath7915">
      <path
         d="m 178.54,632.58 60.89,0 0,45.63 -60.89,0 0,-45.63 z"
         id="path7917"
         inkscape:connector-curvature="0" />
    </clipPath>
    <clipPath
       id="clipPath7930">
      <path
         d="m 178.54,632.58 60.89,0 0,45.63 -60.89,0 0,-45.63 z"
         id="path7932"
         inkscape:connector-curvature="0" />
    </clipPath>
    <clipPath
       id="clipPath7939">
      <path
         d="m 178.54,632.58 60.89,0 0,45.63 -60.89,0 0,-45.63 z"
         id="path7941"
         inkscape:connector-curvature="0" />
    </clipPath>
    <clipPath
       id="clipPath6718">
      <path
         d="m 51.62,538.86 73.73,0 0,40.12 -73.73,0 0,-40.12 z"
         id="path6720"
         inkscape:connector-curvature="0" />
    </clipPath>
    <clipPath
       id="clipPath6736">
      <path
         id="path6738"
         d="m 49.76,503.14 77.51,0 0,15.35 -77.51,0 0,-15.35 z"
         inkscape:connector-curvature="0" />
    </clipPath>
  </defs>
  <g
     id="g17860"
     transform="translate(0,156.89975)">
    <g
       id="g3424"
       transform="matrix(2.2990052,0,0,2.2990052,-40.730418,-197.75748)">
      <path
         d="m 153.06534,37.68516 0,130.94375 38.6395,0 0,-150.85685 -56.5113,0 c -14.2509,0 -19.5811,8.54853 -19.5811,8.54853 l -97.8959,142.10717 44.3117,0 91.0371,-130.7426"
         style="fill:#008434;fill-rule:nonzero;stroke:none"
         id="path236"
         inkscape:connector-curvature="0" />
      <path
         d="m 79.32654,168.52837 61.0265,0 0,-88.70387 -61.5292,88.70387"
         style="fill:#da0021;fill-rule:nonzero;stroke:none"
         id="path238"
         inkscape:connector-curvature="0" />
    </g>
  </g>
</svg>
