<?xml version="1.0" encoding="UTF-8" standalone="no"?>
<!-- Generator: Adobe Illustrator 15.0.2, SVG Export Plug-In . SVG Version: 6.00 Build 0)  -->

<svg
   xmlns:dc="http://purl.org/dc/elements/1.1/"
   xmlns:cc="http://creativecommons.org/ns#"
   xmlns:rdf="http://www.w3.org/1999/02/22-rdf-syntax-ns#"
   xmlns:svg="http://www.w3.org/2000/svg"
   xmlns="http://www.w3.org/2000/svg"
   xmlns:sodipodi="http://sodipodi.sourceforge.net/DTD/sodipodi-0.dtd"
   xmlns:inkscape="http://www.inkscape.org/namespaces/inkscape"
   version="1.1"
   id="Layer_1"
   sodipodi:docname="B6.svg"
   inkscape:version="0.91 r13725"
   x="0px"
   y="0px"
   width="400"
   height="135.073"
   viewBox="0 0 400.00001 135.07299"
   enable-background="new 0 0 584.8 196.061"
   xml:space="preserve"><metadata
     id="metadata21"><rdf:RDF><cc:Work
         rdf:about=""><dc:format>image/svg+xml</dc:format><dc:type
           rdf:resource="http://purl.org/dc/dcmitype/StillImage" /><dc:title></dc:title></cc:Work></rdf:RDF></metadata><defs
     id="defs19" /><sodipodi:namedview
     inkscape:current-layer="g3"
     inkscape:window-maximized="1"
     inkscape:window-y="-8"
     inkscape:window-x="-8"
     inkscape:cy="36.629003"
     inkscape:cx="358.12937"
     fit-margin-bottom="0"
     fit-margin-right="0"
     fit-margin-left="0"
     inkscape:zoom="1.3855368"
     fit-margin-top="0"
     showgrid="false"
     inkscape:window-width="1680"
     inkscape:pageshadow="2"
     inkscape:pageopacity="0"
     guidetolerance="10"
     bordercolor="#666666"
     borderopacity="1"
     inkscape:window-height="998"
     objecttolerance="10"
     id="namedview37"
     pagecolor="#ffffff"
     gridtolerance="10" /><g
     id="g3"
     transform="translate(0,-60.988008)"><g
       id="g3349"
       transform="matrix(0.68894057,0,0,0.68894057,0,60.987999)"><path
         d="m 18.864,44.986 22.379,0 0,119.914 c 0,18.646 -13.61,31.159 -32.481,31.159 l -8.762,0 0,-21.064 6.352,0 c 7.681,0 12.512,-3.521 12.512,-11.854 l 0,-118.155 0,0 0,0 z m 0,-44.986 22.379,0 0,22.383 -22.379,0 0,-22.383 0,0 z"
         inkscape:connector-curvature="0"
         id="path19"
         style="fill:#003876" /><path
         d="m 78.068,90.624 c 0.435,-16.893 10.312,-25.887 23.483,-25.887 13.17,0 22.821,8.994 23.471,25.887 l -46.954,0 0,0 0,0 z m 69.335,18.423 0,-18.423 c 0,-28.742 -21.292,-46.954 -45.85,-46.954 -21.517,0 -45.864,14.036 -45.864,57.269 0,45.636 26.545,56.611 49.371,56.611 14.91,0 29.178,-5.277 40.141,-17.999 l -16.222,-13.815 c -6.593,6.795 -15.803,10.747 -24.36,10.747 -15.362,0 -26.55,-9.221 -26.55,-27.436 l 69.334,0 0,0 z"
         inkscape:connector-curvature="0"
         id="path21"
         style="fill:#003876" /><path
         d="m 165.146,11.191 22.379,0 0,33.795 16.225,0 0,17.115 -16.225,0 0,64.722 c 0,6.15 2.409,8.342 7.879,8.342 l 8.346,0 0,21.064 -11.624,0 c -15.585,0 -26.98,-9.891 -26.98,-27.429 l 0,-66.699 -11.209,0 0,-17.115 11.209,0 0,-33.795 0,0 0,0 z"
         inkscape:connector-curvature="0"
         id="path23"
         style="fill:#003876" /><path
         d="m 278.146,86.894 c 17.55,0 25.434,11.185 25.434,23.471 0,12.294 -7.886,23.481 -25.434,23.481 l -36.431,0 0,-46.952 36.431,0 0,0 0,0 z m -60.139,69.335 65.833,0 c 23.483,0 43.442,-17.336 43.442,-44.32 0,-15.799 -8.334,-32.035 -25.446,-35.995 l 0,-0.432 C 320.048,67.361 324.88,54.855 324.88,41.914 324.878,17.338 309.064,0 278.574,0 l -60.567,0 0,156.229 0,0 0,0 0,0 z M 275.938,21.072 c 17.118,0 25.234,10.308 25.234,22.378 0,12.279 -8.116,22.386 -25.234,22.386 l -34.223,0 0,-44.764 34.223,0 0,0 z"
         inkscape:connector-curvature="0"
         id="path25"
         style="fill:#003876" /><path
         d="m 340.146,0 22.379,0 0,127.483 c 0,5.046 2.854,7.682 8.357,7.682 l 7.668,0 0,21.064 -9.873,0 c -16.248,0 -28.531,-7.017 -28.531,-26.994 l 0,-129.235 0,0 0,0 z"
         inkscape:connector-curvature="0"
         id="path27"
         style="fill:#003876" /><path
         d="m 387.981,44.986 22.382,0 0,66.257 c 0,15.15 9.431,23.922 22.174,23.922 12.501,0 21.924,-8.771 21.924,-23.922 l 0,-66.257 22.389,0 0,111.243 -22.389,0 0,-11.855 -0.42,0 c -7.029,8.782 -17.126,13.175 -28.759,13.175 -17.541,0 -37.301,-13.393 -37.301,-38.617 l 0,-73.946 0,0 z"
         inkscape:connector-curvature="0"
         id="path29"
         style="fill:#003876" /><path
         d="m 511.257,90.624 c 0.455,-16.893 10.311,-25.887 23.479,-25.887 13.163,0 22.815,8.994 23.49,25.887 l -46.969,0 0,0 0,0 z m 69.343,18.423 0,-18.423 c 0,-28.742 -21.285,-46.954 -45.864,-46.954 -21.505,0 -45.869,14.036 -45.869,57.269 0,45.636 26.561,56.611 49.372,56.611 14.938,0 29.189,-5.277 40.163,-17.999 l -16.244,-13.814 c -6.584,6.795 -15.785,10.748 -24.347,10.748 -15.357,0 -26.554,-9.22 -26.554,-27.437 l 69.343,-0.001 0,0 0,0 z"
         inkscape:connector-curvature="0"
         id="path31"
         style="fill:#003876" /></g></g></svg>