<?xml version="1.0" encoding="UTF-8" standalone="no"?>
<!-- Created with Inkscape (http://www.inkscape.org/) -->

<svg
   xmlns:dc="http://purl.org/dc/elements/1.1/"
   xmlns:cc="http://creativecommons.org/ns#"
   xmlns:rdf="http://www.w3.org/1999/02/22-rdf-syntax-ns#"
   xmlns:svg="http://www.w3.org/2000/svg"
   xmlns="http://www.w3.org/2000/svg"
   xmlns:xlink="http://www.w3.org/1999/xlink"
   xmlns:sodipodi="http://sodipodi.sourceforge.net/DTD/sodipodi-0.dtd"
   xmlns:inkscape="http://www.inkscape.org/namespaces/inkscape"
   version="1.0"
   width="400"
   height="99.928001"
   id="svg2"
   inkscape:version="0.91 r13725"
   sodipodi:docname="BA.svg">
  <metadata
     id="metadata23">
    <rdf:RDF>
      <cc:Work
         rdf:about="">
        <dc:format>image/svg+xml</dc:format>
        <dc:type
           rdf:resource="http://purl.org/dc/dcmitype/StillImage" />
        <dc:title></dc:title>
      </cc:Work>
    </rdf:RDF>
  </metadata>
  <sodipodi:namedview
     pagecolor="#ffffff"
     bordercolor="#666666"
     borderopacity="1"
     objecttolerance="10"
     gridtolerance="10"
     guidetolerance="10"
     inkscape:pageopacity="0"
     inkscape:pageshadow="2"
     inkscape:window-width="1680"
     inkscape:window-height="998"
     id="namedview21"
     showgrid="false"
     inkscape:zoom="0.28829639"
     inkscape:cx="551.51575"
     inkscape:cy="114.98031"
     inkscape:window-x="-8"
     inkscape:window-y="-8"
     inkscape:window-maximized="1"
     inkscape:current-layer="g3431" />
  <defs
     id="defs4">
    <linearGradient
       id="linearGradient3417">
      <stop
         id="stop3419"
         style="stop-color:#11266f;stop-opacity:1"
         offset="0" />
      <stop
         id="stop3427"
         style="stop-color:#4266ae;stop-opacity:1"
         offset="1" />
    </linearGradient>
    <linearGradient
       id="linearGradient3386">
      <stop
         id="stop3388"
         style="stop-color:#e0162b;stop-opacity:1"
         offset="0" />
      <stop
         id="stop3398"
         style="stop-color:#ff0108;stop-opacity:1"
         offset="0.57157475" />
      <stop
         id="stop3394"
         style="stop-color:#ffb8bb;stop-opacity:1"
         offset="0.75374842" />
      <stop
         id="stop3429"
         style="stop-color:#ffb0b3;stop-opacity:1"
         offset="0.79288644" />
      <stop
         id="stop3400"
         style="stop-color:#ff010a;stop-opacity:1"
         offset="0.85106683" />
      <stop
         id="stop3390"
         style="stop-color:#ff0000;stop-opacity:1"
         offset="1" />
    </linearGradient>
    <linearGradient
       x1="1415.8615"
       y1="469.13235"
       x2="1294.8617"
       y2="536.90253"
       id="linearGradient3436"
       xlink:href="#linearGradient3417"
       gradientUnits="userSpaceOnUse" />
    <linearGradient
       x1="1138.3611"
       y1="524.51776"
       x2="1415.8781"
       y2="421.77048"
       id="linearGradient3438"
       xlink:href="#linearGradient3386"
       gradientUnits="userSpaceOnUse" />
  </defs>
  <g
     transform="translate(-383.6303,-561.62351)"
     id="layer1">
    <g
       transform="translate(35.391897,35.459601)"
       id="g3431">
      <g
         id="g3351"
         transform="matrix(0.94887883,0,0,0.94887883,-595.2589,116.63645)">
        <path
           style="fill:url(#linearGradient3436);fill-opacity:1;fill-rule:evenodd"
           id="path3364"
           d="m 1386.821,470.41729 c -12.2702,11.61948 -38.0901,21.94852 -50.3603,26.46506 -17.4264,6.45772 -25.1691,9.04411 -34.8584,12.27021 -10.9688,3.2261 -32.9283,10.32904 -32.9283,10.32904 45.1875,13.55514 77.4705,17.42095 77.4705,17.42095 0,0 14.8456,-4.49448 38.7353,-17.42095 12.9099,-6.4522 18.7224,-10.32904 23.239,-14.84558 1.9412,-1.29044 6.4522,-5.8125 7.0974,-11.61948 0,-0.64522 0.6452,-1.29044 0.6452,-2.5864 0,0 0,-0.6397 0,-1.28492 -0.6452,-0.64522 -0.6452,-1.29044 -0.6452,-1.29044 0,0 0,-1.29044 -0.6452,-2.5864 0,-0.64522 -1.2849,-3.87132 -3.8713,-5.80698 -1.9357,-1.29595 -4.5166,-4.52206 -14.2004,-7.74816 -3.2261,-1.29044 -9.0441,-2.58088 -9.0441,-2.58088 l -0.6342,1.28493 0,0 z"
           inkscape:connector-curvature="0" />
        <path
           style="fill:url(#linearGradient3438);fill-opacity:1;fill-rule:evenodd"
           id="path3366"
           d="m 1415.8669,489.77941 c 0,0 0,-1.29044 -0.6452,-1.93566 0,-1.29044 -0.6452,-1.93566 -1.2849,-3.2261 -0.6452,-0.64522 -1.9412,-1.93566 -3.2316,-3.87132 -1.285,-0.65074 -2.5809,-1.93566 -3.8713,-3.22611 -6.4633,-3.87683 -14.2004,-5.81249 -21.3033,-7.10293 -10.9688,-1.29044 -23.8842,-1.29044 -25.1692,-1.29044 -3.8768,0 -30.3419,0 -36.7996,0.64522 -29.6966,0.65073 -66.4907,0.65073 -76.1746,0.65073 -98.7628,0 -142.0256,-1.94117 -189.7885,-11.61948 -40.6709,-7.74816 -63.27016,-15.4908 -63.27016,-15.4908 36.15436,-1.29044 245.95576,-10.32904 284.04586,-10.97426 25.1746,-0.64522 42.6066,-1.29595 56.8069,0 7.7482,0 14.2004,0.65074 22.5993,2.5864 7.7481,1.28492 14.8455,3.2261 18.7279,4.51654 8.3879,3.2261 16.136,7.74816 19.3621,12.91543 0,0 1.2905,0.64522 2.5809,2.57537 1.296,2.5864 3.2316,5.16728 3.8768,5.8125 5.1673,8.38786 7.7482,12.90992 8.3879,14.84558 1.2904,1.93566 1.9357,3.87684 2.5864,5.8125 1.2849,1.29044 1.2849,2.58088 1.2849,3.2261 0.6452,1.93566 0.6452,3.87683 1.2905,4.52205 l 0,0.62868 -0.011,0 z"
           inkscape:connector-curvature="0" />
      </g>
    </g>
  </g>
</svg>
