<?xml version="1.0" encoding="UTF-8" standalone="no"?>
<svg
   xmlns:dc="http://purl.org/dc/elements/1.1/"
   xmlns:cc="http://creativecommons.org/ns#"
   xmlns:rdf="http://www.w3.org/1999/02/22-rdf-syntax-ns#"
   xmlns:svg="http://www.w3.org/2000/svg"
   xmlns="http://www.w3.org/2000/svg"
   xmlns:sodipodi="http://sodipodi.sourceforge.net/DTD/sodipodi-0.dtd"
   xmlns:inkscape="http://www.inkscape.org/namespaces/inkscape"
   version="1.1"
   width="400"
   height="164.27"
   id="svg3336"
   inkscape:version="0.91 r13725"
   sodipodi:docname="BE.svg">
  <metadata
     id="metadata12">
    <rdf:RDF>
      <cc:Work
         rdf:about="">
        <dc:format>image/svg+xml</dc:format>
        <dc:type
           rdf:resource="http://purl.org/dc/dcmitype/StillImage" />
        <dc:title></dc:title>
      </cc:Work>
    </rdf:RDF>
  </metadata>
  <sodipodi:namedview
     pagecolor="#ffffff"
     bordercolor="#666666"
     borderopacity="1"
     objecttolerance="10"
     gridtolerance="10"
     guidetolerance="10"
     inkscape:pageopacity="0"
     inkscape:pageshadow="2"
     inkscape:window-width="1426"
     inkscape:window-height="934"
     id="namedview10"
     showgrid="false"
     inkscape:zoom="1.3582216"
     inkscape:cx="331.10938"
     inkscape:cy="87.513023"
     inkscape:window-x="0"
     inkscape:window-y="0"
     inkscape:window-maximized="0"
     inkscape:current-layer="layer1" />
  <defs
     id="defs3338" />
  <g
     transform="translate(-69.74777,-483.46236)"
     id="layer1">
    <g
       id="g3340"
       transform="matrix(0.93854606,0,0,0.93854606,4.286275,39.805703)">
      <path
         style="fill:#00447c;fill-opacity:1;fill-rule:nonzero;stroke:none"
         id="path15303"
         d="m 275.64337,478.02356 c -6.25958,0 -9.15748,4.81802 -9.15748,11.44685 l 0,99.69837 c 0,11.78066 2.90676,14.77013 12.48076,14.77013 8.46329,0 7.71296,-2.58477 16.54255,-2.58477 8.83549,0 9.64194,4.80029 23.26295,4.80029 22.81394,0 40.47016,-16.9502 40.47016,-51.54775 0,-29.80907 -16.61935,-46.00895 -39.43625,-46.00895 -10.3125,0 -15.45251,4.06178 -21.34284,4.06178 -5.15182,0 -7.68046,-5.92873 -7.68046,-11.07759 l 0,-12.11151 c 0,-7.73069 -4.07656,-11.44685 -9.23133,-11.44685 l -5.90806,0 z M 414.03949,505.496 c -23.92171,0 -46.74746,14.29749 -46.74746,51.84315 0,31.28609 20.24689,47.85522 47.11671,47.85522 27.60537,0 40.83941,-16.56027 40.83941,-22.45059 0,-4.41923 -6.5993,-9.52674 -12.48076,-9.52674 -9.56809,0 -12.16468,12.85002 -27.9894,12.85002 -9.574,0 -19.12732,-8.81482 -19.12732,-16.9118 0,-6.25663 4.38378,-9.60059 12.85002,-9.60059 l 38.32848,0 c 8.83845,0 12.48076,-2.16825 12.48076,-10.63449 0,-7.36143 -5.14887,-43.42418 -45.27044,-43.42418 z m 0,19.12732 c 8.83549,0 16.61639,6.58748 16.61639,12.48076 0,5.15477 -6.32161,7.75432 -18.46266,7.75432 -9.9403,0 -15.06553,-2.97471 -15.06553,-8.49283 0,-6.62292 9.55627,-11.74225 16.9118,-11.74225 z m -100.80614,1.25546 c 14.71696,0 21.34284,14.38611 21.34284,33.15894 0,19.88059 -10.3066,29.39256 -22.08134,29.39256 -12.51326,0 -21.34284,-10.6345 -21.34284,-31.97733 0,-21.34579 10.66699,-30.57417 22.08134,-30.57417 z m 165.27775,45.492 c -12.51325,0 -16.17329,4.76484 -16.17329,17.28105 0,8.09403 1.44747,16.54254 16.54254,16.54254 10.66994,0 16.24715,-3.66299 16.24715,-17.28105 0,-8.83844 -1.52428,-16.54254 -16.6164,-16.54254 z"
         inkscape:connector-curvature="0" />
      <path
         sodipodi:nodetypes="sccsssssscscscsssssssssssscscsssccsssccsccss"
         inkscape:connector-curvature="0"
         style="fill:#6caedf;fill-opacity:1;fill-rule:nonzero;stroke:none"
         id="path15315"
         d="m 109.11016,472.70631 c -16.199873,0 -22.087247,11.01852 -23.558352,16.54255 -2.945163,10.30364 -2.886083,13.66532 -5.095694,15.50863 -5.521075,4.77962 -10.708344,6.22414 -10.708344,12.48076 0,9.20179 13.957772,5.89329 13.957772,23.55836 l 0,50.07074 c 0,9.57104 4.460579,12.85001 14.400876,12.85001 9.565132,0 13.588522,-4.38377 13.588522,-12.85001 l 0,-51.91701 c 0,-5.15182 1.85217,-9.16043 4.43104,-11.00374 2.94516,-2.21257 12.18535,-4.44581 12.18535,-11.0776 0,-2.94516 -1.85808,-6.28321 -5.90805,-8.12357 -5.52107,-2.57887 -6.64656,-3.99089 -6.64656,-6.94196 0,-2.57591 1.8699,-4.44581 7.75432,-7.75432 6.25663,-3.31737 5.46495,-7.69819 5.46495,-11.74225 0,-5.16069 -5.49154,-9.60059 -12.85001,-9.60059 z m 39.73165,0.51696 c -6.62292,0 -11.00374,5.19613 -11.00374,11.8161 l 0,105.23717 c 0,9.574 4.02043,13.66237 15.06553,13.66237 9.20179,0 13.66237,-4.07951 13.66237,-11.8161 l 0,-105.23717 c 0,-9.19588 -4.08837,-13.66237 -11.81611,-13.66237 z m 34.4144,35.52216 c -5.15477,0 -11.06282,1.89058 -6.64655,16.61639 1.10185,4.04997 24.29686,72.46521 24.29686,78.72479 0,5.15478 -3.64232,9.9787 -10.63449,11.44685 -6.62884,1.47406 -10.70835,4.38082 -10.70835,10.26524 0,6.25663 4.07951,9.96984 9.96984,9.96984 l 9.15748,0 c 10.66994,0 22.47423,-3.32032 29.83566,-26.14313 l 29.09716,-88.32537 c 0.3722,-1.47997 0.7385,-3.32623 0.7385,-5.90805 0,-3.68367 -3.70139,-6.64656 -8.12357,-6.64656 l -6.2773,0 c -6.98923,0 -11.38187,3.341 -12.85002,9.60058 l -7.75431,35.66987 c -1.10186,5.52698 -3.3351,11.44685 -7.01582,11.44685 -2.94221,0 -5.4679,-1.87876 -7.31121,-11.0776 l -7.38506,-33.8236 c -1.83741,-7.73068 -5.48268,-11.8161 -11.74226,-11.8161 z" />
      <path
         style="fill:#fdb813;fill-opacity:1;fill-rule:nonzero;stroke:none"
         id="path15339"
         d="m 280.29596,613.76105 c -12.53688,0 -16.24714,4.80915 -16.24714,17.3549 0,8.11471 1.48883,16.6164 16.6164,16.6164 10.69357,0 16.17329,-3.69844 16.17329,-17.35491 0,-8.85321 -1.41498,-16.61639 -16.54255,-16.61639 z m 39.8055,0 c -12.53984,0 -16.24714,4.80915 -16.24714,17.3549 0,8.11471 1.48883,16.6164 16.6164,16.6164 10.69357,0 16.17329,-3.69844 16.17329,-17.35491 0,-8.85321 -1.41498,-16.61639 -16.54255,-16.61639 z"
         inkscape:connector-curvature="0" />
      <path
         style="fill:#ee3224;fill-opacity:1;fill-rule:nonzero;stroke:none"
         id="path15347"
         d="m 360.49777,613.76105 c -12.53689,0 -16.1733,4.80915 -16.1733,17.3549 0,8.11471 1.41498,16.6164 16.54255,16.6164 10.69653,0 16.24714,-3.69844 16.24714,-17.35491 0,-8.85321 -1.48883,-16.61639 -16.61639,-16.61639 z m 39.8055,0 c -12.5428,0 -16.24715,4.80915 -16.24715,17.3549 0,8.11471 1.48588,16.6164 16.6164,16.6164 10.69357,0 16.24714,-3.69844 16.24714,-17.35491 0,-8.85321 -1.48587,-16.61639 -16.61639,-16.61639 z"
         inkscape:connector-curvature="0" />
      <path
         style="fill:#5a3f99;fill-opacity:1;fill-rule:nonzero;stroke:none"
         id="path15355"
         d="m 440.10876,613.76105 c -12.53688,0 -16.24714,4.80915 -16.24714,17.3549 0,8.11471 1.49474,16.6164 16.6164,16.6164 10.69652,0 16.24714,-3.69844 16.24714,-17.35491 0,-8.85321 -1.48292,-16.61639 -16.6164,-16.61639 z m 39.2147,0 c -12.53689,0 -16.24715,4.80915 -16.24715,17.3549 0,8.11471 1.48883,16.6164 16.6164,16.6164 10.69653,0 16.24714,-3.69844 16.24714,-17.35491 0,-8.85321 -1.48587,-16.61639 -16.61639,-16.61639 z"
         inkscape:connector-curvature="0" />
    </g>
  </g>
</svg>
