<?xml version="1.0" encoding="UTF-8" standalone="no"?>
<svg
   xmlns:dc="http://purl.org/dc/elements/1.1/"
   xmlns:cc="http://creativecommons.org/ns#"
   xmlns:rdf="http://www.w3.org/1999/02/22-rdf-syntax-ns#"
   xmlns:svg="http://www.w3.org/2000/svg"
   xmlns="http://www.w3.org/2000/svg"
   xmlns:sodipodi="http://sodipodi.sourceforge.net/DTD/sodipodi-0.dtd"
   xmlns:inkscape="http://www.inkscape.org/namespaces/inkscape"
   width="400"
   height="90.780998"
   viewBox="0 0 320 72.624797"
   version="1.1"
   id="svg2"
   inkscape:version="0.91 r13725"
   sodipodi:docname="BT.svg">
  <metadata
     id="metadata31">
    <rdf:RDF>
      <cc:Work
         rdf:about="">
        <dc:format>image/svg+xml</dc:format>
        <dc:type
           rdf:resource="http://purl.org/dc/dcmitype/StillImage" />
        <dc:title></dc:title>
      </cc:Work>
    </rdf:RDF>
  </metadata>
  <defs
     id="defs29" />
  <sodipodi:namedview
     pagecolor="#ffffff"
     bordercolor="#666666"
     borderopacity="1"
     objecttolerance="10"
     gridtolerance="10"
     guidetolerance="10"
     inkscape:pageopacity="0"
     inkscape:pageshadow="2"
     inkscape:window-width="1462"
     inkscape:window-height="943"
     id="namedview27"
     showgrid="false"
     units="px"
     inkscape:zoom="1.4391037"
     inkscape:cx="250.37861"
     inkscape:cy="141.875"
     inkscape:window-x="0"
     inkscape:window-y="0"
     inkscape:window-maximized="0"
     inkscape:current-layer="svg2" />
  <g
     id="#11185eff"
     transform="matrix(0.31993301,0,0,0.31993301,0,5.41432e-6)">
    <path
       d="m 157.77,0 40.29,0 c -0.33,13.37 -0.11,26.75 -0.19,40.13 -13.38,0 -26.77,0.05 -40.16,-0.08 -0.06,-13.35 0.07,-26.7 0.06,-40.05 z"
       id="path5"
       inkscape:connector-curvature="0"
       style="opacity:1;fill:#11185e" />
    <path
       d="m 329.18,0 82.92,0 c 19.2,1.27 39.69,4.28 55.14,16.74 9.86,8.08 15.78,20.47 16.33,33.16 1.25,14.72 -2.78,30.58 -13.71,41.01 -8.33,8.08 -19.18,12.85 -30.02,16.52 10.7,2.87 21.47,6.54 30.37,13.34 6.56,4.89 11.74,11.6 14.77,19.21 4.36,10.76 4.87,22.77 2.91,34.13 -2.72,15.03 -12.38,28.48 -25.45,36.29 -17.4,10.67 -38.35,13.4 -58.41,13.2 -24.96,-0.01 -49.93,0 -74.9,0 -0.07,-74.53 0.09,-149.07 0.05,-223.6 m 42.11,33.08 c 0.11,19.36 0.05,38.73 0.06,58.09 11.21,0.07 22.43,0.03 33.65,-0.14 9.82,-0.43 20.14,-2.7 27.78,-9.27 11.45,-9.57 12.87,-29.15 2.21,-39.83 -6.88,-6.57 -16.76,-8.56 -25.97,-8.85 -12.58,-0.23 -25.15,0.06 -37.73,0 m 0.07,157.58 c 10.85,-0.03 21.72,0.12 32.58,-0.17 11.31,-0.65 23.27,-2.96 32.2,-10.42 13.62,-12.03 12.58,-36.34 -1.69,-47.45 -8.68,-6.56 -19.84,-8.56 -30.47,-8.91 -10.86,-0.13 -21.73,0.05 -32.6,-0.09 -0.21,22.34 0.07,44.69 -0.02,67.04 z"
       id="path7"
       inkscape:connector-curvature="0"
       style="opacity:1;fill:#11185e" />
    <path
       d="m 650.3,0 40.23,0 c -0.01,74.53 0.01,149.06 -0.01,223.59 -13.42,0.02 -26.85,0 -40.28,0.01 0.1,-74.54 0.04,-149.07 0.06,-223.6 z"
       id="path9"
       inkscape:connector-curvature="0"
       style="opacity:1;fill:#11185e" />
    <path
       d="m 725.18,0 40.23,0 c 0.03,18.49 -0.07,36.98 0.08,55.47 10.07,-0.05 20.14,-0.2 30.21,-0.13 0.01,10.15 0,20.3 0,30.45 -10.09,0.03 -20.19,-0.01 -30.28,0.02 0.02,29.71 -0.07,59.43 0.06,89.14 0.07,6.44 0.78,14.02 6.37,18.2 7.38,5.03 16.83,3.6 25.14,2.41 0.01,10.19 0.01,20.38 0,30.57 -3.49,0.24 -6.97,0.59 -10.45,0.87 l -16.74,0 c -12.31,-0.97 -25.55,-4.1 -34.05,-13.74 -8.92,-10.12 -10.29,-24.26 -10.53,-37.17 -0.12,-30.09 0.04,-60.19 -0.11,-90.28 -8.29,-0.03 -16.58,0 -24.87,-0.01 -0.03,-10.09 0.04,-20.19 -0.04,-30.27 8.31,-0.51 16.65,0.09 24.97,-0.28 0.02,-18.42 0,-36.83 0.01,-55.25 z"
       id="path11"
       inkscape:connector-curvature="0"
       style="opacity:1;fill:#11185e" />
    <path
       d="m 811.35,0 39.94,0 c 0,13.37 0.01,26.75 -0.01,40.12 -13.32,0.02 -26.65,0.02 -39.98,0 -0.04,-13.37 0.02,-26.75 0.05,-40.12 z"
       id="path13"
       inkscape:connector-curvature="0"
       style="opacity:1;fill:#11185e" />
    <path
       d="M 10.35,69.26 C 32.56,55.74 59.16,50.35 84.97,52.02 c 14.62,0.81 30.26,4.34 40.86,15.14 10.2,10.48 12.86,25.78 13.14,39.87 0.04,38.85 0.04,77.71 0.07,116.56 -10.81,0.01 -21.63,0.02 -32.45,-0.01 -1.49,-5.84 -2.94,-11.69 -4.43,-17.53 C 90.25,216.99 75.39,225.28 59.11,227 l -14.08,0 C 32.14,225.68 19.18,220.4 10.63,210.39 4.49,203.36 0.98,194.31 0,185.08 l 0,-9.07 c 0.94,-11.69 6.22,-23.14 15.35,-30.67 9.73,-8.5 22.04,-13.08 34.15,-17 14.65,-4.95 29.3,-9.89 43.94,-14.83 2.1,-0.86 5.25,-1.66 5.33,-4.45 C 99.05,102.33 100,94.37 94.98,89.02 88.85,82.62 79.37,81.87 71.02,81.66 48.81,81.61 28.29,92.03 10.36,104.27 10.34,92.6 10.37,80.93 10.35,69.26 m 81.36,72.42 c -10.61,3.66 -21.16,7.5 -31.65,11.47 -6.85,2.81 -13.84,6.97 -17.15,13.89 -3.36,7.74 -3.16,17.84 2.78,24.3 5.81,5.93 14.91,7.75 22.85,6.03 11.77,-2.47 22.31,-9.5 30.34,-18.27 0.17,-13.6 -0.03,-27.21 0.09,-40.82 -2.32,1.34 -4.73,2.53 -7.26,3.4 z"
       id="path15"
       inkscape:connector-curvature="0"
       style="opacity:1;fill:#11185e" />
    <path
       d="m 292.4,54.5 c 8.35,-2.79 17.43,-3.71 26.07,-1.75 0.01,12.63 0.01,25.26 -0.06,37.89 -12.54,-1.89 -25.74,0.5 -36.59,7.12 -14.74,8.27 -25.79,24.03 -26.09,41.23 -0.14,28.2 -0.06,56.4 -0.09,84.61 -13.41,-0.03 -26.82,0.08 -40.22,-0.08 -0.01,-56 -0.02,-111.99 0,-167.98 13.02,-0.13 26.03,-0.17 39.05,-0.06 0,10.24 -0.01,20.48 0.01,30.73 9.53,-13.59 21.87,-26.25 37.92,-31.71 z"
       id="path17"
       inkscape:connector-curvature="0"
       style="opacity:1;fill:#11185e" />
    <path
       d="m 505.89,69.27 c 19.74,-12.11 43.07,-17.63 66.12,-17.55 15.24,0.13 31.48,1.94 44.24,11.01 10.13,7.11 15.64,19.12 17.33,31.11 1.84,12.64 0.97,25.45 1.18,38.17 0,30.53 0.01,61.06 0,91.59 -10.9,-0.03 -21.8,0.06 -32.69,-0.07 -1.49,-5.81 -2.88,-11.64 -4.33,-17.45 -12.02,10.86 -26.9,19.27 -43.24,20.92 l -13.95,0 c -9.08,-0.93 -18.06,-3.74 -25.64,-8.89 -9.35,-6.24 -16.21,-16.19 -18.32,-27.27 -2.29,-11.71 -0.99,-24.55 5.29,-34.88 7.29,-11.99 20.08,-19.3 32.91,-24.05 18.32,-6.53 36.87,-12.43 55.24,-18.8 1.82,-0.68 4.19,-1.75 4.17,-4.05 0.25,-5.12 0.64,-10.44 -0.95,-15.39 -1.8,-5.28 -6.97,-8.5 -12.05,-10.11 -6.84,-2.06 -14.13,-2.11 -21.2,-1.6 -19.82,1.78 -37.92,11.28 -54.1,22.32 -0.03,-11.67 -0.02,-23.34 -0.01,-35.01 m 72.85,75.39 c -8.07,2.92 -16.17,5.76 -24.16,8.9 -7.03,3.01 -14.13,7.73 -16.87,15.22 -2.41,7.1 -2.1,15.75 2.84,21.73 5.41,6.36 14.54,8.47 22.53,7.04 12.2,-2.14 22.78,-9.56 31.27,-18.28 -0.14,-13.64 -0.01,-27.29 0.09,-40.93 -4.9,2.87 -10.41,4.37 -15.7,6.32 z"
       id="path19"
       inkscape:connector-curvature="0"
       style="opacity:1;fill:#11185e" />
    <path
       d="m 889.94,71.87 c 13.2,-12.32 31.15,-18.69 49,-19.82 19.75,-1.35 40.32,1.84 57.53,12.06 -0.02,12.19 0.06,24.38 -0.08,36.57 -6.26,-4.99 -12.75,-9.89 -20.27,-12.85 -11.68,-4.79 -24.91,-5.85 -37.16,-2.75 -12.09,3.14 -22.27,12.05 -27.73,23.19 -8.25,16.47 -8.78,36.1 -3.8,53.62 3.52,12.31 11.25,24.17 23.2,29.63 13.89,6.23 30.1,5.17 44.23,0.28 9.17,-3.04 17.07,-8.65 25.14,-13.77 l 0,32.11 c 0.97,3.22 -1.69,4.08 -3.62,5.21 -13.03,6.67 -27.42,10.43 -41.98,11.65 l -17.21,0 c -15.52,-1.2 -31.05,-5.96 -43.28,-15.85 -14.78,-11.5 -23.76,-29.09 -27.66,-47.14 -3.5,-16.46 -3.41,-33.71 0.3,-50.13 3.67,-15.79 11.35,-30.96 23.39,-42.01 z"
       id="path21"
       inkscape:connector-curvature="0"
       style="opacity:1;fill:#11185e" />
    <path
       d="m 157.71,55.6 c 13.41,-0.5 26.82,-0.19 40.23,-0.05 -0.12,56.02 -0.02,112.03 -0.07,168.05 -13.37,-0.02 -26.74,0.02 -40.11,-0.02 0.05,-55.99 -0.09,-111.99 -0.05,-167.98 z"
       id="path23"
       inkscape:connector-curvature="0"
       style="opacity:1;fill:#11185e" />
    <path
       d="m 811.23,55.57 c 13.37,-0.43 26.75,-0.16 40.12,-0.01 -0.02,56 0.06,112.01 -0.05,168.02 -13.34,0.01 -26.67,0.08 -40,-0.06 0.01,-55.98 -0.02,-111.97 -0.07,-167.95 z"
       id="path25"
       inkscape:connector-curvature="0"
       style="opacity:1;fill:#11185e" />
  </g>
</svg>
