<?xml version="1.0" encoding="UTF-8" standalone="no"?>
<!-- Generator: Adobe Illustrator 15.0.0, SVG Export Plug-In . SVG Version: 6.00 Build 0)  -->

<svg
   xmlns:dc="http://purl.org/dc/elements/1.1/"
   xmlns:cc="http://creativecommons.org/ns#"
   xmlns:rdf="http://www.w3.org/1999/02/22-rdf-syntax-ns#"
   xmlns:svg="http://www.w3.org/2000/svg"
   xmlns="http://www.w3.org/2000/svg"
   xmlns:sodipodi="http://sodipodi.sourceforge.net/DTD/sodipodi-0.dtd"
   xmlns:inkscape="http://www.inkscape.org/namespaces/inkscape"
   version="1.1"
   id="svg37304"
   sodipodi:docname="CA.svg"
   inkscape:version="0.91 r13725"
   sodipodi:version="0.32"
   x="0px"
   y="0px"
   width="400"
   height="442.02301"
   viewBox="0 0 400.00001 442.02302"
   enable-background="new 0 0 779.527 207.637"
   xml:space="preserve"><metadata
     id="metadata18"><rdf:RDF><cc:Work
         rdf:about=""><dc:format>image/svg+xml</dc:format><dc:type
           rdf:resource="http://purl.org/dc/dcmitype/StillImage" /><dc:title></dc:title></cc:Work></rdf:RDF></metadata><defs
     id="defs16" /><sodipodi:namedview
     id="base"
     height="5.86cm"
     width="22cm"
     inkscape:cy="192.09786"
     inkscape:cx="372.04724"
     inkscape:zoom="0.35919193"
     pagecolor="#ffffff"
     bordercolor="#666666"
     borderopacity="1.0"
     objecttolerance="10.0"
     gridtolerance="10.0"
     guidetolerance="10.0"
     inkscape:current-layer="svg37304"
     inkscape:window-y="145"
     inkscape:window-x="242"
     inkscape:window-width="925"
     inkscape:pageopacity="0.0"
     inkscape:pageshadow="2"
     inkscape:window-height="670"
     showgrid="false"
     inkscape:window-maximized="0" /><g
     id="g3346"
     transform="matrix(2.6879011,0,0,2.6879032,-25.043981,-49.67781)"><g
       transform="translate(27.3243,-488.507)"
       id="layer1"><path
         d="m 130.808,506.989 c -7.656,28.393 -31.103,30.625 -41.47,31.263 -10.527,0.638 -19.459,5.423 -19.459,5.423 -25.36,13.237 -25.999,41.15 -25.999,41.15 l 0,41.152 c 0,0 -3.668,20.574 -23.606,20.574 -22.968,0 -25.201,-21.373 -25.201,-21.373 l 0,-51.52 c 0,-5.741 -5.583,-6.857 -5.583,-6.857 l -7.497,0 0,-1.117 19.62,0 c 0,0 -0.638,-7.656 7.656,-10.367 0,0 2.233,-0.479 8.135,-0.16 4.307,0.16 10.208,-5.9 10.208,-5.9 0,9.569 -8.613,12.919 -12.601,12.919 -3.987,0.159 -2.393,-0.797 -6.38,-0.797 -3.668,-0.16 -4.466,4.306 -4.466,4.306 0,0 7.656,0.16 7.656,7.656 0,7.496 0,46.255 0,46.255 0,0 -0.479,6.061 6.699,6.061 0,0 6.38,-0.157 6.38,-6.061 0,-5.904 0,-38.6 0,-38.6 0,0 1.754,-27.115 22.809,-45.299 0,0 16.269,-14.515 35.728,-15.791 19.458,-1.273 28.391,-0.156 47.371,-12.917 l 0,0"
         id="path2488"
         inkscape:connector-curvature="0"
         style="fill:#da0021" /><path
         d="m 103.055,558.349 c 19.938,-8.134 20.895,-29.029 20.895,-29.029 -7.815,7.656 -16.429,13.239 -34.133,14.036 -16.269,0.798 -27.115,12.441 -27.274,12.441 -12.441,10.367 -12.76,29.028 -12.76,29.028 0,0 0,32.857 0,35.568 0,2.713 -0.638,7.178 -0.638,7.178 -4.307,17.388 -16.11,24.404 -30.305,24.404 -13.876,0 -19.938,-8.453 -19.938,-8.453 8.134,20.096 31.9,19.777 31.9,19.777 32.06,-1.275 35.728,-32.379 35.728,-32.379 l 0,-39.557 c 0,-6.54 -0.638,-14.833 7.018,-22.809 4.625,-4.625 10.049,-6.858 14.515,-7.656 -0.001,0.003 9.41,-0.316 14.992,-2.549"
         id="path2490"
         inkscape:connector-curvature="0"
         style="fill:#da0021" /><path
         d="m 92.369,597.906 c 0,0 -3.828,15.472 11.165,15.472 11.484,0 12.281,-14.675 12.281,-17.066 0,-6.54 -4.944,-21.692 -22.011,-21.692 -20.895,0 -22.171,21.854 -22.171,21.854 l 0,34.293 c -8.294,46.094 -51.359,36.525 -51.359,36.525 0,0 10.687,4.146 19.14,4.146 12.122,0 40.194,-3.668 46.415,-41.789 l 0,-30.305 c 0,0 0,-7.657 6.858,-7.657 4.307,0 6.061,3.668 6.38,6.54 0,0 0,4.146 -3.668,4.146 -3.668,0 -2.871,-3.989 -3.03,-4.467"
         id="path2492"
         inkscape:connector-curvature="0"
         style="fill:#da0021" /></g></g></svg>