<?xml version="1.0" encoding="UTF-8" standalone="no"?>
<!-- File created by AtomCrusher for the English Wikipedia -->
<svg id="svg2" xmlns:rdf="http://www.w3.org/1999/02/22-rdf-syntax-ns#" xmlns="http://www.w3.org/2000/svg" height="482.97" width="400" version="1.1" xmlns:cc="http://creativecommons.org/ns#" xmlns:dc="http://purl.org/dc/elements/1.1/">
 <metadata id="metadata12">
  <rdf:RDF>
   <cc:Work rdf:about="">
    <dc:format>image/svg+xml</dc:format>
    <dc:type rdf:resource="http://purl.org/dc/dcmitype/StillImage"/>
    <dc:title/>
   </cc:Work>
  </rdf:RDF>
 </metadata>
 <path id="path4" d="m147.3 232.29c-1.5787 0.21154-3.3365-2.067-4.0852-3.1412-0.22788-0.30927-1.0905-2.1484-0.87888-2.4251 0.34179-0.2604 2.1321 0.34178 2.6041 0.73243 1.1718 0.9277 2.1158 2.2298 2.7018 4.4595 0.0161 0.2604-0.21162 0.3743-0.34178 0.3743m-38.085-21.109c-1.0742 0.39065-3.7108-2.6041-4.4432-3.7108-1.3509-2.0344-2.718-4.2968-4.1503-6.2987-1.3346-1.774-2.8157-3.0435-3.1575-6.1522-0.0322-0.35804-0.24414-1.2858-0.0161-1.2695 1.4485 0.1139 2.832 2.6529 3.5644 3.6457 0.5208 0.71609 1.1393 1.4322 1.6113 2.1809 0.71609 1.0905 1.0091 2.3925 1.7578 3.4179 0.91143 1.237 2.0182 2.4088 2.9947 3.662 0.52081 0.66731 1.2207 1.2532 1.5462 2.1646 0.1465 0.47203 0.60219 2.1972 0.29292 2.36m-10.905-0.42316c-0.81378-0.0652-1.1556-0.56967-1.6601-0.94399-1.3346-0.99281-2.4576-2.5878-2.4902-4.899-0.0322-0.22788 0.0652-0.29292 0.22788-0.29292 1.595-0.0161 3.2063 2.4413 3.8248 3.5806 0.17902 0.34178 0.60219 1.2695 0.53706 1.9205 0 0.43943-0.19528 0.63479-0.43942 0.63479m-36.246 7.324c-0.06512 0.17902-0.19531 0.39064-0.45572 0.4069-1.7254-0.0489-2.2462-2.6205-2.9949-3.7923-0.61847-0.99282-1.1718-2.0507-1.8066-3.0435-0.45572-0.6673-1.0254-1.3834-1.3997-2.1646-0.47199-0.99281-0.68358-2.0507-1.2695-2.9459-0.29296-0.47199-0.78123-0.87888-1.123-1.3183-0.94398-1.2695-1.7903-2.6041-2.3925-4.1991-0.1302-0.56965-0.29296-1.123-0.42316-1.6927-0.35806-0.96027-0.7975-2.0182-1.123-3.0435-0.17903-0.50454-0.27669-1.5624-0.17903-1.9205 0.08138-0.1465 0.14648-0.2604 0.27669-0.22788 1.3183 0.19528 2.5878 3.4016 3.2388 4.5897 0.71613 1.2532 1.8229 2.2623 2.4413 3.5481 0.55337 1.1881 0.74868 2.6692 1.3671 3.8085 0.50454 0.87888 1.3183 1.5787 1.8717 2.4251 0.69985 1.0905 1.2044 2.5064 1.7578 3.7108 0.61847 1.3671 1.5136 2.425 2.0507 3.7434 0.22786 0.55333 0.30924 1.5136 0.16275 2.1158m-6.7218-49.396c-0.34179-0.6022-0.69985-1.3183-0.94398-1.9531-0.27668-0.7324-0.30924-1.3997-0.6022-2.0996-1.0254-2.2623-2.1647-4.7525-3.1737-6.9822-0.43944-0.94399-1.0254-2.6855-0.61847-3.8736 0.06512-0.16276 0.40689-0.0652 0.55337 0.0976 0.34178 0.30926 0.58592 0.50455 0.87888 0.84634 0.21158 0.32552 0.26041 0.68356 0.48827 1.0091 0.50454 0.76494 1.1718 1.5299 1.5462 2.3925 0.84633 1.8391 1.0742 3.8899 1.9205 5.6802 0.5371 1.1718 1.4485 2.1972 2.0507 3.3853 0.29296 0.66731 0.48827 1.3509 0.68357 2.0344 0.13021 0.52081 0.09766 1.2207 0.13021 1.6276 0.01626 0.61845-0.04886 0.99281-0.26041 1.0254-1.595-0.0976-2.067-2.0507-2.6529-3.19m344.49 152.61c-2.0019-7.3728-23.632-4.1991-41.421-5.8267-16.194-1.4811-36.962-4.3781-61.929-13.053-23.372-8.1052-45.962-17.382-65.672-28.043 0 0-7.9588-4.1991-8.8051-4.6711-1.6438-0.99282-2.9296-1.7089-4.5409-2.718-0.96026-0.56967-2.4413-1.4485-3.5155-1.9205-1.3834-0.56966-2.3111-1.3183-3.4992-2.0507-1.2207-0.76494-2.8808-1.5625-4.1177-2.2949-1.8066-1.123-2.9296-1.9856-4.6385-3.2063-1.0579-0.79747-1.595-1.0254-3.011-1.888-0.84633-0.50454-2.3925-1.3346-3.1412-1.8391-1.5787-1.0416-2.5878-1.9042-4.1828-3.011-0.96026-0.68357-1.6764-1.1067-2.832-1.8229-1.1393-0.69982-2.246-1.595-3.2388-2.3274-0.53706-0.42317-1.3834-0.89516-1.8717-1.416-1.1718-1.123-2.3274-2.1158-3.5318-3.0924-1.1067-0.83005-2.1646-1.8554-3.2388-2.6855-0.69982-0.50455-1.888-1.4974-2.5715-2.0019-1.7903-1.2858-2.9133-2.246-4.6874-3.5318-1.1393-0.84632-2.0996-1.9693-3.2388-2.8157-1.2695-0.94399-2.4413-2.0344-3.7597-2.9784-0.84633-0.58593-1.8229-1.3346-2.4739-2.0019-0.84633-1.0254-1.6438-1.7252-2.539-2.7343-0.65104-0.71609-1.9042-1.5136-2.6366-2.246-1.0742-1.3997-2.6366-2.8808-4.1014-3.9712-0.86261-0.79747-1.123-1.1718-1.4648-1.595-0.24414-0.35804-0.56967-0.76494-1.2695-1.5299-0.69983-0.71608-0.96026-0.91143-1.2369-1.2207-0.32552-0.2604-0.69983-0.60218-1.6601-1.5462-0.293-0.30926-0.79755-1.0091-1.302-1.6927-0.43943-0.60218-0.84633-1.2044-1.1393-1.5136-0.86261-0.91144-1.4322-1.5462-2.0507-2.1972-0.43943-0.43942-0.91144-0.92771-1.4811-1.5299-0.34179-0.37431-0.60219-0.81379-0.91144-1.2207-0.24414-0.40691-0.53706-0.83006-0.83005-1.1719-0.5208-0.56966-0.92771-0.3743-1.0254-0.30926-0.30927 0.21154-0.43943 0.83007-0.0976 1.5625 0.47202 0.86261 1.123 1.8229 1.5299 2.3762 0.0976 0.13024 0.17902 0.24414 0.22788 0.30926 0.16276 0.27667 0.30926 0.53707 0.47202 0.81379 0.22789 0.4069 0.47203 0.84633 0.76495 1.2369 0.66731 0.89515 1.3672 1.6438 2.067 2.3437 0.24414 0.22788 0.47202 0.47203 0.68356 0.71617 0.47203 0.48828 0.83006 1.0091 1.1881 1.5624 0.39065 0.53707 0.79747 1.123 1.302 1.6764 0.24414 0.22788 0.45568 0.5208 0.63478 0.78121 0.22788 0.293 0.45569 0.61844 0.71617 0.87888 0.4069 0.39064 0.79747 0.7812 1.1881 1.1718 0.65105 0.69982 1.3509 1.3834 1.9856 1.9368 0.50454 0.42317 1.0091 0.96027 1.5299 1.4648 1.3183 1.5787 2.7668 3.1575 3.955 4.6711 0.66731 0.84633 1.9205 1.4811 2.6855 2.067 0.84633 0.63479 1.5136 1.7415 2.1809 2.5878 0.5208 0.61845 1.6601 1.6276 2.1972 2.2786 1.3183 1.6927 2.2298 2.6041 3.9712 3.9061 1.0579 0.74868 1.8554 1.4811 2.6692 2.4902 0.48829 0.63478 1.9856 2.0833 2.5553 2.7831 1.4322 1.8229 2.0833 3.5318 1.8717 3.5806-0.97654 0.2604-3.3528-1.8391-4.7688-2.7506-1.1556-0.79746-1.3509-1.1067-2.4576-1.9368-0.24414-0.21163-2.0019-1.4323-2.6041-2.1972-0.47203-0.42317-1.774-1.8391-2.1809-2.3274-1.9856-2.539-2.6529-2.6855-4.9315-4.9152-1.6601-1.6276-3.7271-3.0761-5.3384-4.5246-0.48828-0.50455-0.96026-1.0091-1.4322-1.5625-0.53707-0.53706-1.2044-1.0254-1.6927-1.5624-0.76494-0.94399-1.774-2.8157-2.6692-3.483-0.94398-0.73243-1.6438-1.3997-2.6041-2.1158-0.34178-0.22789-0.63479-0.66731-0.99281-0.94399-0.47203-0.32552-1.0091-0.71608-1.3672-1.1556-1.1067-1.416-2.1809-2.8645-3.3365-4.2805-0.50455-0.68356-1.237-1.2369-1.7415-1.9368-1.0742-1.5299-1.9856-3.0924-3.0761-4.5246-1.5462-2.0019-3.7434-3.4342-5.2245-5.4523-1.5299-2.0833-2.4413-4.4921-3.8736-6.673-0.61845-0.94398-1.5787-1.6113-2.2623-2.5064-0.39064-0.5208-0.60218-1.123-0.97653-1.6927-0.76495-1.1718-1.6601-2.3111-2.4413-3.4179-1.0091-1.4974-1.6927-3.1086-2.718-4.6874-0.14651-0.21162-0.50455-1.2695-1.1393-2.0507-0.60219-0.76495-1.1393-1.6438-1.8229-2.7668-0.71608-1.0905-1.0416-1.8229-1.5462-2.5715-0.50455-0.78121-0.83006-1.4974-1.1718-2.0182-0.32552-0.55332-1.0579-1.5462-1.3183-1.9368-0.9277-1.4322-1.1881-2.0996-2.1484-3.4179-0.58593-0.81377-1.237-1.4811-1.7903-1.2858-0.42316 0.30926-0.2604 0.81377-0.16276 1.1718 0.42317 1.1718 0.42317 0.96025 0.87889 1.8066 0.78121 1.3997 1.0579 2.067 1.888 3.3528 0.3743 0.61845 1.0416 2.0182 1.5787 2.7669 0.5208 0.7812 1.0742 1.7089 1.4322 2.3437 0.4069 0.68357 0.97654 2.4739 1.5462 3.2226 0.4069 0.53706 0.99281 1.6276 1.3997 2.4088 0.79755 1.595 1.8066 2.8482 2.6366 4.0852 0.55332 1.0254 1.1067 2.0996 1.6438 3.1086 1.1067 1.6601 2.4251 3.2063 3.4992 4.9152 0.66731 1.1881 1.3183 2.3762 1.9693 3.5644 0.66731 0.97652 1.5625 1.8066 2.1972 2.7994 0.78121 1.1881 1.2044 2.4902 1.9856 3.662 0.61844 0.91143 1.3997 1.7903 2.0182 2.7017 1.0579 1.5625 2.0019 3.1086 3.1086 4.606 0.61844 0.81378 1.416 1.4974 2.0182 2.3274 0.83006 1.123 1.4974 2.4576 2.36 3.4016 1.0416 0.97654 1.3346 1.5625 2.1484 2.4902 1.2044 1.4811 4.2154 5.7127 3.6946 5.7453-1.7578 0.24414-5.1594-3.6132-6.5916-5.0129-1.1067-1.1067-2.3437-1.888-3.1086-2.9296-1.1393-1.5299-1.9693-3.2551-3.1086-4.7362-0.40691-0.55333-1.0254-0.96026-1.4323-1.4811-0.7812-1.0091-1.5299-2.0833-2.4251-2.9622-0.3743-0.35804-0.78121-0.68356-1.123-1.0905-1.3834-1.774-2.5553-3.6783-3.8899-5.5337-0.58592-0.74869-1.302-1.416-1.8717-2.1484-0.42316-0.60219-0.68357-1.2532-1.0579-1.9042-0.53706-0.83006-1.2532-1.6276-1.7903-2.4576-0.4069-0.61844-0.65105-1.2369-1.0742-1.8717-0.73243-1.1067-1.7089-2.067-2.4413-3.19-0.56966-0.91143-0.73242-2.0996-1.3346-3.0273-1.5136-2.3111-3.1575-4.6711-4.6386-6.9822-0.39064-0.60218-0.55333-1.2695-0.91143-1.8554-1.2207-1.9042-2.3437-3.955-3.5481-5.8267-0.43943-0.69983-0.61845-1.4974-1.0579-2.1809-0.5534-0.84633-1.3997-1.5136-1.9531-2.3274-0.42316-0.65105-0.60218-1.3672-0.92771-2.0996-0.43942-0.99281-1.0579-1.9531-1.5625-2.8808-0.30926-0.56967-0.47202-1.1556-0.83005-1.6927-1.4485-2.2623-2.6366-4.6548-3.8085-7.1612-0.61844-1.2858-1.5299-2.4902-2.1321-3.8085-0.69983-1.4485-1.3671-2.9296-2.0019-4.3293-0.3743-0.96026-0.71609-1.9205-1.0416-2.8808-0.69983-1.4974-1.7903-2.7831-2.4576-4.3456-0.47202-1.0579-0.73243-2.0345-1.1718-2.9296-0.27666-0.53707-0.79747-0.99281-1.1718-0.74869-0.39061 0.22788-0.43944 0.69983-0.19528 1.5299 0.45568 1.595 1.3346 3.4016 1.7415 4.313 0.83005 1.7903 1.2532 3.662 2.067 5.4849 0.42316 1.0254 1.1067 1.9856 1.5625 2.9622 0.79747 1.7415 1.5625 3.483 2.36 5.1268 0.43942 0.96026 0.79755 1.888 1.3183 2.7994 0.2604 0.47202 0.68357 1.0091 0.89516 1.5299 0.5208 1.1718 0.66731 2.4088 1.2044 3.5155 0.55332 1.1556 1.4485 2.1158 1.9856 3.2388 2.7506 5.8592 5.5174 11.442 8.8376 16.634 0.91143 1.4485 1.3997 3.2063 2.3274 4.6386 0.96026 1.5136 2.2786 2.6529 3.2226 4.1177 0.79747 1.2207 0.99281 2.9133 1.7252 4.2154 1.0416 1.9531 2.4739 3.5969 3.662 5.436 0.30927 0.52081 0.40691 1.0905 0.73243 1.6276 0.43942 0.69984 1.0254 1.3834 1.4811 2.0996 0.58593 0.96026 0.89516 2.0507 1.5624 2.9296 0.69983 0.97654 1.7089 1.7578 2.4088 2.7506 0.86261 1.1881 1.4811 2.5878 2.3925 3.8085 0.61844 0.83005 1.595 1.416 2.2298 2.2623 1.0091 1.3183 4.5083 5.908 5.5174 7.1938 1.5299 1.9694 4.2968 4.8664 5.5662 7.4542 0.4069 0.79747 1.7903 2.7018 1.4974 3.0761-0.73242 0.48828-4.1991-3.304-4.785-3.8573-1.4485-1.3834-2.7018-3.304-3.955-4.899-0.30926-0.35805-3.6295-3.5969-3.9061-3.955-0.32552-0.42316-0.6673-0.89516-0.96026-1.3183-0.92771-1.3834-1.4974-3.0435-2.4739-4.3456-0.42317-0.5534-1.0579-0.96026-1.4485-1.4974-0.76495-1.0091-1.2858-2.1484-2.0507-3.1737-1.1556-1.6276-2.6855-3.0598-3.8736-4.6711-1.2695-1.7578-2.1972-3.841-3.5155-5.5988-0.65104-0.86262-1.4811-1.6276-2.0996-2.5716-0.27666-0.4069-0.3743-0.81378-0.65104-1.2369-0.47203-0.71617-1.1068-1.5299-1.4648-2.3111-0.34178-0.74868-0.58592-1.4485-1.0091-2.1158-1.3671-2.1321-2.7343-4.3944-4.0852-6.5265-0.6348-0.96026-0.97654-1.9856-1.5787-2.9459-1.0254-1.5787-2.3274-2.9947-3.3365-4.5897-1.2044-1.888-1.8554-4.1666-3.0924-6.0545-0.78121-1.2532-1.7089-2.4088-2.4902-3.662-0.87889-1.3509-1.3021-2.9296-2.0996-4.3293-0.68357-1.2532-1.6113-2.4088-2.2135-3.6457-0.66731-1.3672-1.1067-2.7018-1.7578-4.1177-0.35804-0.74869-0.91144-1.5136-1.2369-2.2623-0.43942-0.97654-0.5208-1.9368-0.97654-2.8482-1.172-2.6204-2.946-5.0943-4.183-7.7146-0.86261-1.8391-1.6601-3.7597-2.3762-5.729-0.39062-1.0742-0.56965-2.0996-1.0579-3.0924-1.0905-2.4088-2.4251-4.9315-3.4667-7.2915-0.45572-1.2858-0.89516-2.539-1.3671-3.8085-0.08138-0.35806-0.1302-0.69985-0.26041-1.0905-0.50454-1.123-1.1718-2.2298-1.6113-3.3202-0.39062-1.302-0.7975-2.5878-1.2207-3.8899-1.6764-4.1991-3.19-8.9516-4.785-13.33-0.19531-0.78123-0.24413-1.7903-0.55337-2.6529-0.83005-2.2135-1.6601-4.4921-2.4576-6.7218-0.47199-1.1393-1.5462-0.76494-1.302 0.40691 0.32552 1.5299 0.52082 1.9205 0.79751 3.1412 0.11393 0.63478 0.22786 1.2369 0.35806 1.8554 0.19531 0.74868 0.56965 1.5299 0.76496 2.246 0.43944 1.3509 0.47199 2.6692 0.91143 3.955 0.6673 1.8066 1.3183 3.5644 1.9205 5.4198 0.14648 0.92771 0.35806 1.8554 0.5371 2.7994 0.27669 0.86261 0.63474 1.7578 0.94398 2.539 0.92771 2.2949 1.8229 4.5083 2.6204 6.7544 0.34179 1.302 0.68357 2.5878 0.99281 3.8899 0.34178 0.71609 0.84633 1.4485 1.1556 2.1484 0.29296 0.63479 0.35807 1.2207 0.61847 1.888 0.58593 1.4485 1.1067 2.9296 1.774 4.4107 0.55337 1.2044 1.2044 2.4251 1.6764 3.7108 0.22786 0.63471 0.22786 1.1718 0.45572 1.7903 1.3997 3.841 2.9133 7.8611 4.5734 11.507 0.40689 0.89515 0.52082 1.8391 0.94398 2.7506 0.32552 0.78121 0.81378 1.595 1.1556 2.3437 0.16275 0.48829 0.34178 0.99282 0.50454 1.4811 0.50454 1.0742 1.3834 1.9531 1.888 3.0273 1.416 2.9784 2.6855 5.8267 4.4758 8.3657 1.6438 2.3762 2.3762 5.5012 3.5806 8.3168 0.63471 1.3346 1.3997 2.4739 2.1647 3.6294 0.3743 0.61845 0.60219 1.302 0.92771 1.9694 0.81378 1.4648 1.2532 2.7343 2.2135 4.0364 0.76495 1.0742 0.69983 1.302 1.3509 2.7994 0.17902 0.43943 0.91143 3.2388 0.76495 3.2388-0.24414 0.16277-1.6276-0.6673-2.0996-1.1881-0.61844-0.69982-1.6276-1.6438-2.2949-3.1575-0.35804-0.76495-1.0416-2.0833-1.3997-2.8157-0.8626-1.8554-2.3437-3.4342-3.4179-5.1431-0.63478-0.99281-0.97653-2.0833-1.5136-3.1575-0.89516-1.9694-1.9368-3.955-2.8971-5.9894-0.4069-0.84632-0.9928-1.6601-1.4648-2.4088-0.5208-0.7812-0.74869-1.6113-1.2532-2.4088-1.0905-1.709-2.3274-3.6295-3.2063-5.5012-0.65102-1.3834-0.99281-2.7668-1.6113-4.1177-0.21158-0.42316-0.55337-0.84632-0.83005-1.2532-0.43944-0.69985-0.61847-1.4648-1.0091-2.246-0.48827-1.0254-1.2207-2.0344-1.7089-3.0924-0.99281-2.1321-1.5625-4.3456-2.539-6.4451-0.48827-0.97654-1.2695-1.8229-1.7252-2.7994-0.71613-1.4974-0.78123-3.3853-1.4974-4.9478-1.8391-4.1666-3.9712-8.447-5.5337-12.793-0.24413-0.7324-0.34179-1.5787-0.56964-2.3437-0.68357-1.888-1.5787-3.6457-2.2623-5.5012-0.30924-0.84633-0.40689-1.6276-0.71612-2.4902-0.45572-1.2532-1.0579-2.5878-1.5136-3.8736-0.11393-0.42316-0.17903-0.87888-0.34179-1.3183-0.56965-1.1881-0.89516-2.6204-1.4485-3.8736-0.30924-0.65103-0.76495-1.3183-1.0254-2.0182-0.43944-1.2532-0.30924-2.832-0.76495-4.0038-0.63475-1.774-1.3834-3.6946-2.0182-5.436-0.39061-1.0254-0.45572-2.0019-0.81378-3.0435-0.40689-1.1719-0.86261-2.4739-1.302-3.6457-0.42317-1.2044-0.40689-2.5064-0.81378-3.7759-0.29296-0.97653-0.69985-1.9693-1.0254-2.8808-0.6022-1.7089-0.86261-3.5155-1.4974-5.1105-0.09765-0.29296-0.21158-0.6022-0.30924-0.87888-0.16276-0.43944-0.45572-0.86261-0.89516-0.7324-0.50454 0.13021-0.50454 0.76495-0.47199 1.1881 0.09765 1.2695 0.56964 2.4088 0.91143 3.4341 0.42316 1.0742 0.61847 2.2298 0.91143 3.2551 0.16275 0.6673 0.14648 1.3834 0.30924 2.0833 0.21158 1.0091 0.6022 1.9693 0.86261 2.9622 0.24413 0.97654 0.11392 1.9368 0.34178 2.7018 0.63474 2.1321 1.3509 4.5409 2.067 6.5753 0.29296 1.0579 0.34179 2.2786 0.6673 3.19 0.39061 1.0742 0.79751 2.1646 1.1718 3.2551 0.35806 0.91143 0.42316 1.774 0.79751 2.6366 0.40689 0.89516 0.86261 1.8391 1.2044 2.8645 0.40689 1.3183 0.35806 2.6204 0.81378 3.8736 0.74868 2.0182 1.6764 3.9387 2.36 5.8755 0.22786 0.71608 0.30924 1.4811 0.55337 2.1972 0.60219 1.6764 1.0254 3.483 1.6438 5.1756 0.87888 2.4088 2.0019 4.7688 2.8808 7.145 0.84633 2.3437 0.97654 5.1594 1.9531 7.3566 0.50454 1.0905 1.5462 1.7415 2.0182 2.7994 0.34179 0.66731 0.24413 1.4485 0.47199 2.246 0.27669 0.89517 0.69985 1.8066 1.0416 2.6367 0.19531 0.76495 0.39061 1.4974 0.60219 2.2298 0.30924 0.89515 0.92771 1.7903 1.3183 2.6529 0.65102 1.3997 0.97654 2.8645 1.7578 4.1177 0.63475 0.94399 1.3997 1.8229 1.9205 2.8808 0.5371 1.1556 0.7324 2.4088 1.2695 3.6295 0.79751 1.7903 1.7415 3.4993 2.4088 5.3547 0.63475 1.6927 0.86261 3.483 1.6601 4.9803 0.81378 1.4648 1.8066 2.7831 2.6041 4.2317 0.50454 1.1067 1.0091 2.1972 1.5299 3.2877 0.4069 0.87888 1.2044 1.6438 1.7089 2.5715 0.61844 1.1067 1.2207 2.2786 1.7252 3.3853 0.4069 0.87888 0.55332 1.6764 1.0416 2.4251 0.69983 1.1556 1.2369 2.0833 2.0019 3.2226 0.63479 1.0254 1.3834 2.3274 1.8391 3.5318 0.35804 0.91143 0.73243 1.8717 1.2532 2.6366 0.56966 0.7812 1.3021 1.4811 1.774 2.3437 0.47202 0.84633 1.1393 3.5969 0.89516 3.7271-0.60218 0.21162-2.2949-1.3997-2.7506-1.9694-1.3346-1.6113-1.9856-3.7922-3.2063-5.5011-1.302-1.8717-2.1158-2.9133-3.1412-5.0454-0.56965-1.2207-1.595-3.4342-2.2949-4.5246-0.69985-1.0254-1.5787-1.9531-2.1158-3.0924-0.42316-0.96026-0.63475-2.0996-1.0579-3.0435-0.63475-1.3509-1.9205-2.246-2.5715-3.662-0.74868-1.5624-1.0742-3.1737-1.8717-4.6385-0.39061-0.71612-0.89516-1.5136-1.2369-2.2623-0.45572-0.92771-0.6673-1.8391-1.1067-2.7831-0.89516-1.9205-2.246-3.5318-3.1086-5.436-0.94398-1.9531-1.4485-4.0689-2.4088-6.0382-0.48827-1.0742-1.3671-1.9856-1.8717-3.0598-0.6673-1.416-1.0091-2.897-1.6764-4.3293-0.42317-0.8626-1.0254-1.7089-1.4323-2.5553-0.56965-1.237-0.78123-2.5878-1.3671-3.8736-1.2858-2.9296-2.6366-5.9406-3.9387-8.8376-0.48827-1.123-0.61847-2.2786-1.123-3.4179-0.48827-0.9928-0.97654-1.9693-1.4974-2.9622-1.1067-2.5553-1.5136-5.55-2.6692-8.1215-0.58592-1.3183-1.302-2.5553-1.8391-3.955-0.81378-2.2135-1.1067-4.4921-1.9368-6.7544-1.2369-3.4504-2.2298-7.0473-3.4667-10.465-0.37434-1.0254-0.40689-2.0345-0.7975-3.1086-0.35806-0.99282-0.7324-2.0019-1.1067-2.9947-0.26041-0.83005-0.42316-1.9856-0.63475-3.0273-0.92771-2.9133-1.8554-5.8267-2.7668-8.7725-0.22786-0.69985-0.26041-1.9531-0.50454-2.8482-0.14648-0.50455-0.42316-1.0905-0.61847-1.5625-0.21158-0.6673-0.21158-1.2369-0.42316-1.9368-0.68358-2.1321-1.2532-4.6223-1.9368-6.7544-0.19531-0.6673-0.26041-1.6276-0.47199-2.3762-0.94398-3.0435-1.416-6.7706-2.6529-9.5863-0.19531-0.55337-0.55337-1.1393-1.0905-0.99281-0.5371 0.1302-0.42316 0.74868-0.37434 1.2532 0.16275 1.3834 0.68357 2.5715 0.91143 3.7271 0.09766 0.52082 0.09766 1.2369 0.1302 1.8554 0.06512 0.52082 0.1302 1.1556 0.29296 1.7089 0.56965 1.8066 1.2369 3.9387 1.7578 5.7127 0.17903 0.86261 0.01626 2.1972 0.26041 3.19 0.78123 2.8808 1.3509 6.3149 2.3925 8.9028 0.96026 2.36 1.1393 5.1919 1.8229 7.7472 0.1953 1.1068 0.26041 2.2298 0.42316 3.3365 0.17903 1.0742 0.76496 1.8066 1.0905 2.7018 0.26041 0.66731 0.22786 1.2369 0.48827 1.9368 0.5371 1.8391 0.97654 3.6457 1.6276 5.5012 0.45572 1.2858 1.1556 2.4902 1.6113 3.7271 0.17903 0.56967 0.13021 1.0742 0.27669 1.6927 0.32552 1.2858 0.5371 2.5553 0.89516 3.8085 0.91143 2.5227 1.774 5.257 2.6692 7.7472 0.50454 1.3997 0.6673 2.7506 1.1393 4.1014 2.0019 5.436 4.0201 10.823 5.9894 16.194 0.32552 1.2044 0.6673 2.4088 0.97654 3.5969 0.43944 1.2044 1.1556 2.2298 1.6601 3.3202 0.65102 1.3997 0.84633 2.8645 1.3997 4.3456 0.60219 1.7415 1.4323 3.0761 2.0996 4.8827 0.30924 0.84634 0.61847 1.8066 1.0091 2.6529 0.29296 0.61844 0.83005 1.2207 1.1393 1.8554 0.5371 1.0579 0.61847 2.4088 1.123 3.483 0.5371 1.0742 1.4323 1.9694 2.067 2.9459 0.55337 0.94399 0.61847 2.1321 1.0905 3.19 0.74868 1.6438 1.7089 3.1574 2.4251 4.899 0.29296 0.73242 0.42316 1.3834 0.74868 2.0833 0.37434 0.79747 0.97654 1.5624 1.3509 2.4088 0 0 0.03252 0 0.06512 0.0814 0.03252 0.1139 0.09766 0.27666 0.11393 0.45576 0.09766 0.32553 0.21158 0.74869 0.32552 1.0579 0.16275 0.45569 0.68357 1.302 0.89516 1.6113 0.1302 0.16276 0.52082 0.58592 0.81378 0.97653 0.14648 0.1465 0.27669 0.32553 0.42316 0.52081 0.69985 1.123 0.78123 2.7018 1.3671 3.955 0.58592 1.1881 1.6113 2.1647 2.1972 3.4179 0.47199 0.94399 0.69985 3.304 0.13021 3.4016-2.4413 0-2.6204-3.4179-3.4341-5.2082-0.6673-1.3997-1.6438-2.5553-2.3762-3.8899-0.16275-0.2604-0.39061-0.79747-0.55337-1.3509-0.14648-0.47202-0.35806-0.97653-0.55337-1.3671-0.30924-0.65105-0.30924-0.55333-0.52082-1.0254-0.22786-0.45568-0.91143-1.3183-1.1067-1.7252-0.01626-0.0161-0.03252-0.0491-0.03252-0.0814-0.94404-1.4974-1.5625-3.6295-2.2298-4.6548-0.37434-0.55336-0.86261-1.123-1.2369-1.6927-0.6022-0.97653-0.92771-2.1321-1.416-3.2063-0.45572-0.96026-1.1881-1.9205-1.6438-2.9459-0.5371-1.2044-0.56965-2.718-1.1556-3.9387-0.27668-0.6673-0.81378-1.3346-1.1393-1.9531-0.68358-1.3997-1.0905-2.8808-1.774-4.2479-0.30924-0.6673-0.91143-1.2858-1.2369-1.9531-0.53709-1.1718-0.83006-2.4088-1.4323-3.483-1.2858-2.3111-2.6692-4.8664-3.7108-7.3077-0.63475-1.4322-0.86261-2.8808-1.4648-4.2642-0.53709-1.2207-1.2858-2.4088-1.8229-3.5644-0.39061-0.76495-0.47199-1.5462-0.78123-2.4088-0.52082-1.3509-1.123-2.7506-1.6276-4.1014-0.29296-0.94399-0.5371-2.9784-0.83006-3.7922-0.37434-1.0254-0.89516-2.1321-1.3346-3.1412-0.68358-1.4811-0.87888-3.0435-1.5462-4.5409-0.52082-1.1718-1.0905-2.3762-1.5136-3.5644-0.37434-1.0091-0.47199-1.9531-0.87888-2.8808-0.30924-0.71613-0.7324-1.5136-0.99281-2.246-0.34179-0.87888-0.56964-2.3274-0.83005-3.4993-0.43944-1.2858-0.97654-2.5064-1.3672-3.7759-0.277-1.016-0.31-3.197-0.522-3.783-1.367-3.939-2.604-8.154-3.857-12.093-0.57-1.823-0.846-3.646-1.351-5.403-0.179-0.733-0.195-1.628-0.39-2.344-0.358-1.139-0.83-2.311-1.189-3.483-0.195-0.798-0.325-1.611-0.471-2.393-0.18-0.813-0.619-1.66-0.944-2.473-0.749-2.377-1.172-4.899-1.872-7.227-0.228-0.96-0.228-2.213-0.488-3.092-0.928-2.865-1.123-6.201-1.97-9.212-0.195-0.879-0.309-1.758-0.521-2.555-1.481-5.632-2.148-11.947-3.792-17.35-0.30924-1.0416 0.09765-2.36-0.17903-3.483-0.34179-1.2695-0.68358-2.3762-1.0416-3.483-0.16276-0.58592-0.17903-1.0254-0.27668-1.5462-0.29296-0.91143-0.69985-1.6438-1.2044-1.5299-0.60219 0.17903-0.47199 0.7324-0.45572 1.4974 0.06512 1.2695 0.19531 2.3111 0.43944 3.3202 0.21158 0.86261 0.06512 1.5787 0.30924 2.3437 0.52082 1.7415 0.68357 4.2154 0.99281 5.8104 0.09766 0.65102 0 1.5462 0.1302 2.3111 0.17903 0.81378 0.7975 1.8554 0.96026 2.7343 0.17903 1.1556 0.16275 2.6692 0.34178 3.9387 0.22786 1.0579 0.55337 2.0833 0.83006 3.0761 0.22786 0.86261 0.06512 1.6927 0.32551 2.4902 0.24414 0.83005 0.68357 1.6438 0.84633 2.5553 0.13021 0.99281-0.01626 2.4413 0.19531 3.3365 1.2695 4.9478 1.6438 10.807 3.0924 15.543 0.17903 0.68358 0.21158 1.416 0.37434 2.0996 1.2044 4.1666 2.1321 8.5935 3.3853 12.711 0.16275 0.63471 0.14648 1.302 0.30924 2.0182 0.40689 1.4485 0.74868 3.011 1.0742 4.4595 0.14648 0.69983 0.1302 1.3183 0.32552 1.9694 0.42316 1.5136 0.94398 2.9784 1.4485 4.4758 0.17903 0.74869 0.26041 1.4648 0.39061 2.1809 0.13021 0.56967 0.42316 1.2207 0.60219 1.774 0.26041 0.86261 0.17903 1.6927 0.43944 2.4902 0.1953 0.45568 0.56965 0.97653 0.68357 1.4648 0.1953 0.89516 0.30924 1.774 0.55337 2.6366 0.35806 1.0416 0.91143 2.067 1.3346 3.0924 0.32552 0.86261 0.32552 1.7415 0.65102 2.5878 0.58593 1.4323 1.2207 3.1575 1.7903 4.7199 0.45572 1.2695 0.52082 2.5716 0.97654 3.8573 0.30924 0.86262 0.71613 1.7415 1.0091 2.5878 0.19531 0.65105 0.30924 1.302 0.5371 2.0019 0.21158 0.60219 0.89516 1.5787 1.3346 2.4088 0.37434 0.89516 0.19531 2.1158 0.47199 3.0924 0.30924 0.99281 0.86261 1.7903 1.2044 2.7018 0.30924 0.92771 0.29296 1.9205 0.55337 2.8645 0.26041 0.73242 0.76496 1.4322 1.0579 2.1158 0.29296 0.81379 0.58592 1.595 0.87888 2.3925 0.22786 0.50454 0.6673 1.0579 0.92771 1.5462 0.42316 0.91144 0.78123 1.9368 1.1556 2.8808 0.5371 1.3346 0.58592 2.9947 1.0091 4.5572 0.11392 0.45568 0.08138 1.5136-0.16275 1.6276-0.63475 0.11393-1.3346-0.87888-1.7578-1.4811-0.7324-1.0416-1.4323-2.1809-1.9693-3.4179-0.19531-0.47199-0.29296-0.91143-0.45572-1.3997-0.40689-1.0254-0.71613-2.2135-1.1881-3.2389-0.27668-0.65102-0.69985-1.3346-0.92771-2.0182-0.32551-0.99281-0.17903-2.1646-0.56964-3.0273-0.32551-0.71612-0.91143-1.302-1.2369-2.0182-0.22786-0.6673-0.35806-1.3509-0.63475-2.0182-0.35806-0.7975-0.83006-1.4974-1.2858-2.2623-0.32551-0.7324-0.27668-1.4485-0.53709-2.3111-0.27669-1.0254-0.6022-2.0344-1.0416-2.9622-0.42316-0.944-0.97654-1.888-1.3997-2.8645-0.19531-0.5371-0.29296-1.0905-0.43944-1.6276-0.26041-0.7324-0.65102-1.5136-0.92771-2.2298-0.16276-0.55336-0.30924-1.123-0.53709-1.6438-0.34179-0.7975-0.76495-1.6927-1.0905-2.5715-0.24413-0.69985-0.27668-1.4648-0.5371-2.1646-0.43944-1.2532-0.86261-2.6529-1.302-3.8736-0.26041-0.94399-0.34179-1.9042-0.63475-2.8645-0.35806-1.1068-0.84633-2.2135-1.2532-3.3365-0.30924-0.89516-0.39061-1.8554-0.65102-2.7831-0.42317-1.1881-1.0254-2.2949-1.4323-3.5481-0.24413-1.0091-0.29296-2.0182-0.50454-2.9622-0.68358-2.3274-1.4323-4.899-2.1647-7.2915-0.84633-2.6529-0.92771-5.6639-1.6927-8.3494-0.55337-1.9205-1.2369-3.7759-1.8229-5.6639-0.21158-0.99281-0.24413-1.9042-0.48827-2.8482-0.52082-2.1484-1.302-4.9152-2.0182-7.145-0.35806-1.1718-0.24413-2.3762-0.58592-3.6295-0.34179-1.2695-0.35806-2.7669-0.76495-4.1177-0.26041-0.81378-0.56964-1.416-0.76495-2.4739-0.22786-1.0579-0.21158-2.2949-0.35806-3.0924-0.14648-0.79751-1.5136-5.4849-1.6764-6.3638-0.16276-0.86261-0.16276-2.4576-0.26041-3.0273-0.09765-0.37434-0.7975-2.3925-0.87888-2.9296-0.09765-0.52082-0.09765-1.123-0.29296-2.1647-0.22786-1.0416-0.83006-3.3528-0.92771-4.0201-0.11393-0.68357-0.11393-2.0345-0.24413-2.7017-0.14648-0.6673-0.58592-2.2298-0.89516-3.3365-0.37434-1.3509-0.0651-2.7669-0.43944-4.0364-0.292-0.935-0.6009-1.846-0.9589-2.741-0.2116-0.749-0.472-1.807-0.5208-2.279-0.0489-0.732-0.0977-2.197-0.1465-2.75-0.0163-0.749-0.3418-2.0185-0.4069-3.1252-0.0977-1.5136-0.4232-3.1086-0.6673-4.0363-0.1302-0.5534-0.0814-1.2044-0.1953-1.709-0.3906-1.4811-0.7487-2.8482-1.4974-2.7505-0.5371 0.081351-0.7487 0.53704-0.5045 1.4973 0.26041 1.1556 0.37434 2.067 0.68357 3.19 0.1302 0.6022 0.17903 2.1158 0.17903 2.6204 0.048828 0.81378 0.081378 0.99281 0.17903 1.7903 0.065105 0.29296 0.19531 1.0416 0.29296 1.3672 0.11393 0.52082 0.27668 1.2858 0.26041 1.6601 0 0.52082-0.016276 1.0742-0.016276 1.8229 0 0.39061 0.016276 0.52082 0.16276 1.1881 0.16276 0.65102 0.22786 0.79751 0.27668 1.3346 0.03252 0.47199-0.01626 0.92771 0.01626 1.3346 0 0.52082 0.065121 1.0254 0.22786 1.4974 0.27669 0.99281 0.91143 2.3437 0.6673 3.7922-0.29296 1.5462 0.17903 3.011 0.5371 4.3456 0.16275 0.86261 0 1.8066 0.16275 2.6367 0.30924 1.1393 0.60219 2.3437 0.89516 3.5481 0.24413 0.97653 0.08138 1.8554 0.34179 2.7994 0.34179 1.2858 1.2369 3.0435 1.3671 3.6295 0.09766 0.58592 0.08138 2.1647 0.24414 3.1737 0.17903 0.99281 0.42316 2.1484 0.48827 2.7831 0.08138 0.65102-0.01626 0.92771 0.04886 1.3997s0.69985 2.7343 0.79751 3.3202c0.1302 0.58592 0.09765 0.89516 0.22786 1.4974 0.11392 0.63475 0.63474 3.0598 0.7324 3.841 0.1302 0.7975 0.09766 1.2532 0.24413 2.0507 0.22786 1.2044 0.71613 2.2135 0.96026 3.369 0.16275 0.87888 0.11392 1.416 0.21158 2.0996 0.26041 1.0905 0.61847 2.067 0.81378 3.0924 0.16275 0.81378 0.17903 1.595 0.32552 2.4251 0.37434 1.7415 0.61847 3.4993 1.1067 5.2407 0.29296 1.0254 0.87888 1.9693 1.1881 2.9622 0.24413 0.91143 0.32551 1.9043 0.56965 2.7994 0.24413 0.76495 0.78123 1.4811 0.97654 2.3111 0.1302 0.71608 0.11392 1.4485 0.24413 2.1809 0.17903 0.81377 0.5371 1.6276 0.69985 2.4739 0.1302 0.63479 0.06512 1.2532 0.24413 1.9205 0.21158 0.73242 0.58592 1.3997 0.76496 2.0996 0.16275 0.89515 0.16275 1.7903 0.39061 2.7017 0.26041 1.0416 0.69985 2.067 1.0254 3.0273 0.30924 0.89515 0.14648 1.888 0.42316 2.8645 0.58592 2.1158 1.2858 4.4595 1.9856 6.4451 0.30924 1.0579 0.26041 2.1647 0.65102 3.3202 0.29296 0.76495 0.61847 1.2858 0.94398 1.9531 0.24414 0.68356 0.01626 1.4322 0.22786 2.2135 0.34179 1.2858 0.52082 3.0273 0.99281 4.2805 0.50454 1.416 1.3346 2.5716 1.8229 3.955 0.50454 1.4485 0.5371 2.8971 1.0254 4.4107 0.43944 1.2858 1.1067 2.4739 1.595 3.6457 0.40689 1.0254 0.26041 2.3925 0.65102 3.4992 0.45572 1.1881 1.2858 2.0996 1.7578 3.3202 0.50454 1.3997 0.84633 2.7994 1.2695 4.1828 0.16275 0.60218 0.26041 1.1881 0.37434 1.774 0.52082 1.8229 1.4974 3.3365 2.1321 5.0617 0.24413 0.79747 0.30924 1.4811 0.5371 2.2298 0.43944 1.2532 0.94398 2.539 1.5299 3.7108 0.47199 1.0742 1.1718 2.1321 1.6601 3.2063 0.43944 0.99281 0.52082 1.9856 0.94398 3.0273 0.40689 0.99281 0.87888 2.067 1.2532 3.0924 0.24413 0.6348 0.26041 1.2044 0.5371 1.7903 1.2369 2.7506 2.7343 5.5337 4.0038 8.2192 0.6673 1.4811 0.99281 3.0761 1.7089 4.5897 0.5371 1.1718 1.2044 2.2949 1.7415 3.5644 0.32552 0.79747 0.42316 1.5625 0.76496 2.3111 0.68357 1.4811 1.6601 2.9784 2.3111 4.427 0.17903 0.39064 0.71613 1.9531 0.48827 2.5553-0.03252 0.0814-0.03252 0.19528-0.14648 0.24414-0.45572 0.1139-1.3672-0.66731-1.888-1.1881-1.7741-1.6927-2.0508-4.9641-3.2714-7.1938-0.34179-0.65103-0.78123-1.3509-1.0742-2.0182-0.17903-0.48827-0.27668-0.94399-0.50454-1.3997-0.76495-1.4485-1.7252-2.7506-2.3925-4.2805-0.50454-1.1067-0.56964-2.36-1.0416-3.4016-2.0019-4.3293-4.3293-8.4796-6.2498-12.825-0.87888-1.9694-1.0742-4.1991-1.8391-6.3475-0.47199-1.2695-1.2369-2.2949-1.774-3.4992-0.40689-0.92771-0.50454-1.9042-0.94398-2.8645-0.55337-1.2207-1.3509-2.3762-1.8229-3.7271-0.27668-0.86261-0.40689-1.7415-0.7324-2.5878-0.40689-0.96026-1.0416-1.7578-1.4648-2.6692-0.6022-1.3672-0.69985-2.718-1.1393-4.2805-0.26041-0.84632-0.6022-1.7089-0.86261-2.4739-0.21158-0.71613-0.30924-1.4648-0.55337-2.1484-0.58592-1.6438-1.5625-3.0761-2.1809-4.7525-0.40689-1.123-0.30924-2.5553-0.81378-3.6457-0.39061-0.89516-1.1067-1.6113-1.4648-2.5553-0.40689-0.99281-0.03255-2.1646-0.35806-3.3202-0.29296-1.1067-0.74868-2.1321-1.1067-3.19-0.19531-0.6673-0.26041-1.302-0.43944-1.9368-0.52082-1.3346-0.99281-2.6855-1.4648-4.0201-0.26041-0.68358-0.26041-1.3183-0.53709-1.9368-0.37434-0.7975-0.94398-1.5462-1.2532-2.4088-0.34179-1.3183-0.43944-2.6855-0.74868-3.955-0.52082-1.7252-1.1556-3.0924-1.6601-4.7362-0.09765-0.52082-0.09765-1.0254-0.26041-1.6113-0.40689-1.4648-0.6022-3.1086-1.0091-4.5734-0.16276-0.71613-0.1302-1.3183-0.30924-2.0182-0.40689-1.3834-0.86261-2.7669-1.2858-4.0852-0.22786-0.87889-0.26041-1.7415-0.48827-2.5716-0.6673-2.1647-1.2858-4.7199-1.9205-6.8032-0.166-0.611-0.134-1.181-0.313-1.865-0.52-1.66-1.204-3.645-1.578-5.354-0.179-0.993-0.196-1.953-0.407-2.865-0.2606-1.155-0.6675-2.262-0.8953-3.418-0.081381-0.5371 0-0.92771-0.048861-1.3834-0.0976-0.749-0.1627-1.481-0.2929-2.23-0.765-3.011-1.9205-6.689-2.5716-9.684-0.2116-1.09-0.2441-2.181-0.358-3.255-0.1302-0.749-0.1791-1.628-0.3906-2.409-0.2442-0.781-0.586-1.595-0.7162-2.409-0.1627-1.285-0.1627-2.555-0.358-3.792 0-0.0814-0.048828-0.17903-0.065105-0.27668-0.2604-1.546-1.0254-4.671-1.2044-5.924-0.1953-1.481-0.3744-3.011-0.5697-4.459-0.0325-0.961-0.1953-1.97-0.3092-2.979-0.2279-1.546-0.5859-2.897-0.765-4.508-0.1139-1.058-0.0651-2.002-0.1953-2.9134-0.0651-0.5696-0.0976-1.5462-0.83003-1.5462-0.69985 0-0.6022 0.83006-0.65102 1.4974-0.097654 1.595 0.21158 3.6946 0.34179 4.6874 0.21158 1.8391 0.065105 3.6457 0.24413 5.5174 0.1302 1.0579 0.45572 2.0996 0.56965 3.0924 0.26041 1.774 0.43944 3.5806 0.6673 5.2733v0.0977c0.065105 0.79751 0.16276 1.5787 0.30924 2.3274 0.016276 0.0814 0.016276 0.16275 0.048828 0.22786 0 0.0489 0 0.0814 0.016276 0.11392 0.016276 0.0489 0.016276 0.0651 0.032552 0.1302h0.016276c0.065105 0.35806 0.1302 0.69985 0.22786 1.0416 0.17903 0.6673 0.11393 1.2207 0.30924 1.9205 0.53709 2.0507 0.40689 4.2805 0.99281 6.2661 0.81378 2.9784 1.2369 6.2824 2.0996 9.212 0.21158 0.86261 0 1.7252 0.24413 2.6529 0.22786 0.94399 0.47199 1.8391 0.69985 2.7831 0.22786 1.1067 0.065105 2.2623 0.37434 3.4016 0.26041 1.0416 0.56964 2.0996 0.84633 3.0924 0.32551 1.2207 0.35806 2.4739 0.68357 3.7922 0.39061 1.3183 0.83006 2.7669 1.0742 4.1177 0.26041 1.5299 0.42316 3.2551 0.71613 4.8827 0.24413 1.3346 0.97654 2.9459 1.302 4.4107 0.09766 0.48827 0.04886 0.97654 0.1302 1.4648 0.17903 1.0579 0.50454 2.0833 0.71613 3.0924 0.11393 0.47202 0.08138 0.89515 0.22786 1.3997 0.47199 1.9205 1.0905 4.3456 1.6927 6.2661 0.14648 0.5208 0.21158 1.0742 0.34179 1.6276 0.39061 1.3672 0.79751 2.3762 0.96026 3.1086 0.1302 0.6347 0.19531 1.3997 0.37434 2.0996 0.29296 1.0416 0.60219 1.9531 0.79751 2.8645 0.16275 0.71609 0.27669 1.3509 0.47199 2.067 0.22786 0.86261 0.56965 1.6601 0.92771 2.5064 0.58592 1.7252 0.65102 3.5644 1.2695 5.257 0.37434 0.99281 0.84633 1.9693 1.1718 3.0273 0.27669 0.97653 0.34179 2.1646 0.63475 3.2714 0.6022 1.6601 1.2369 3.5644 1.8391 5.2407 0.71613 2.0019 1.1556 4.1666 1.8229 6.0545 0.29296 0.76495 0.22786 1.4974 0.48827 2.3111 0.55337 1.8717 1.2044 4.0038 1.8229 5.908 0.32552 1.0091 0.32552 1.9856 0.7324 2.9459 0.63474 1.595 1.5625 2.9296 2.1647 4.5734 0.48827 1.416 0.60219 2.8157 1.1556 4.1014 0.69985 1.7415 1.4811 3.5155 2.1809 5.3547 0.45572 1.2695 0.61847 2.5227 1.1393 3.7108 0.43944 1.0254 1.0254 2.0833 1.5136 3.1249 0.30924 0.91144 0.61847 1.7903 0.91143 2.7018 0.26041 0.69983 0.99281 1.8717 1.4974 2.7994 0.56965 1.2532 0.65102 2.5878 1.1393 3.9387 0.7324 2.0507 1.7578 4.134 2.6041 6.0545 0.34179 0.74868 0.39061 1.4485 0.69985 2.246 0.52082 1.3672 1.3997 2.3925 1.9693 3.662 0.55337 1.2044 0.69985 2.4739 1.2207 3.6295 0.79751 1.7089 1.3671 2.5878 1.3671 5.0292-0.01626 0.22788-0.06512 0.39064-0.32551 0.48828-0.43944 0.17902-0.96026-0.60218-1.2695-0.87888-1.302-1.2532-1.4974-2.4902-2.3274-4.2642-1.2369-2.6855-2.8157-5.2245-4.0363-7.8286-0.65102-1.3672-0.91143-2.8645-1.5462-4.2805-0.39061-0.84633-0.96026-1.7089-1.3346-2.5553-0.56964-1.237-0.86261-2.5227-1.4974-3.6295-0.89516-1.6113-1.6276-3.5644-2.36-5.371-0.27668-0.68358-0.30924-1.3509-0.6022-2.0182-0.32551-0.71613-0.84633-1.3346-1.1556-2.0344-0.45572-1.0905-0.76495-2.4739-1.2207-3.6295-0.99281-2.1647-2.0996-4.4595-2.9459-6.7544-0.76495-2.0996-1.123-4.1177-1.888-6.2661-0.32551-0.87888-0.74868-1.8229-1.0579-2.718-0.24413-0.79749-0.26041-1.4973-0.53709-2.246-0.69985-1.9205-1.595-3.9712-2.4413-5.8104-0.39061-0.9277-0.50454-1.8066-0.86261-2.7831-0.40689-1.2044-0.94398-2.4902-1.3671-3.6458-0.56964-1.5462-0.58592-3.3528-1.1718-4.964-1.2369-3.483-2.8645-7.1124-3.9387-10.774-0.19531-0.84634-0.1302-1.7089-0.39061-2.5553-0.56965-1.8229-1.1718-3.8573-1.7415-5.8267-0.633-2.144-0.568-4.422-1.236-6.538-0.8623-2.751-1.8551-5.615-2.7014-8.317-0.2442-0.814-0.1302-1.676-0.3906-2.555-0.5697-2.083-1.3021-4.557-2.0019-6.494-0.3418-0.977-0.3418-2.035-0.7162-2.946-0.43944-1.123-1.5625-0.71612-1.4648 0.5371 0.081378 1.1393 0.47199 2.5878 0.58592 3.1737 0.1302 0.78123 0.1302 1.5625 0.30924 2.3925 0.34179 1.4648 0.81378 2.6855 1.2207 4.0201 0.45572 1.3997 0.45572 2.6855 0.83005 4.1177 0.22786 0.69982 0.50454 1.4811 0.71613 2.1484 0.42317 1.4323 0.42317 2.9622 0.91143 4.2642 0.37434 0.99281 0.65102 2.246 0.97654 3.3365 0.19531 0.71609 0.16275 1.302 0.39061 2.0182 0.37434 1.302 0.78123 2.5878 1.2044 3.8899 0.1953 0.73243 0.1302 1.3834 0.27669 2.067 0.29296 1.0416 0.5371 2.0833 0.83006 3.0435 0.26041 0.91143 0.22786 2.1809 0.55337 3.1575 0.56965 1.774 1.2369 3.662 1.8229 5.3547 0.68357 1.8717 0.76496 3.8085 1.4323 5.729 1.2207 3.3528 2.3274 7.2264 3.5318 10.628 0.32551 0.86261 0.22786 1.7578 0.48827 2.7018 0.40689 1.4485 0.7324 2.897 1.2369 4.3456 0.24414 0.68357 0.69985 1.3834 0.97654 2.0019 0.40689 0.83005 0.48827 1.7252 0.87888 2.5878 0.30924 0.66731 0.74868 1.3672 1.0091 2.067 0.37434 1.0742 0.24413 2.4088 0.6673 3.4179 0.30924 0.81379 0.74868 1.7089 1.0742 2.5553 0.35806 0.92771 0.34179 1.9368 0.7324 2.8157 0.30924 0.74868 0.86261 1.4811 1.2207 2.2298 0.35806 0.69982 0.42316 1.4485 0.68357 2.246 0.32552 0.81379 0.76496 1.6438 1.1067 2.4088 0.37434 0.84634 0.39061 1.8229 0.79751 2.718 0.32551 0.76495 0.84633 1.4974 1.1556 2.3274 0.30924 0.8626 0.32552 1.7903 0.63474 2.7018 0.52082 1.3183 1.3346 2.4739 1.9042 3.7271 0.42316 0.92771 0.47199 1.9856 0.89516 2.9459 0.47199 1.1067 1.1393 2.1809 1.6438 3.2388 0.65102 1.4648 1.1393 2.9947 1.7903 4.3619 1.0742 2.4413 1.4485 5.1105 2.5715 7.503 0.81378 1.8066 1.9368 3.4667 2.7343 5.2082 0.42316 0.99281 0.56965 2.0344 1.0254 2.9459 0.48827 1.0579 1.3834 1.9531 1.8554 3.0435 0.39061 1.0579 0.69985 2.1484 1.1556 3.1737 0.63474 1.3509 1.4974 2.5715 2.1158 3.8899 0.35806 0.74869 0.52082 1.4811 0.86261 2.2298 0.6673 1.4811 1.7903 2.6855 2.4739 4.134 0.32552 0.94398 0.68358 1.888 1.0091 2.8645 0.7324 1.5462 1.888 2.8645 2.6529 4.427 0.52082 1.1556 0.89516 2.36 1.5787 3.4179 1.0416 1.6438 1.7252 2.718 2.7506 4.3944 0.6673 1.0742 1.5625 2.6529 2.0996 3.8248 0.5371 1.1718 1.4323 2.1321 1.9531 3.2714 0.5371 1.123 1.2207 2.3437 1.8229 3.4016 0.68357 1.2044 1.3671 2.067 2.1321 3.2063 1.2044 1.8391 1.9693 3.8085 3.1737 5.6802 0.83006 1.302 1.7903 2.6204 2.7017 3.8736 2.4576 3.369 5.9569 9.3422 7.4379 11.36 1.2532 1.6276 2.2786 3.5806 3.4341 5.2733 0.8626 1.3509 1.9693 2.6529 2.9296 3.8899 0.79747 1.0091 1.416 2.1158 2.1809 3.19l0.61844 0.81377c31.265 39.761 63.41 66.063 90.622 83.331l-0.0161 0.0161c14.355 8.9516 22.086 11.556 22.086 11.556 1.8066 0.76495 0.58593 2.0833-0.35804 2.6692l-161.39 103.22c-0.50454 0.34178-1.7415 1.2532-1.2369 2.2623 0.37434 0.76495 2.0019 0.34179 2.4413 0.19528 129.55-45.43 223.52-82.82 280.97-110.08 58.25-27.636 77.814-43.456 75.681-51.333" fill="#006b6e"/>
</svg>
