<?xml version="1.0" encoding="UTF-8" standalone="no"?>
<!-- Created with Inkscape (http://www.inkscape.org/) -->

<svg
   xmlns:dc="http://purl.org/dc/elements/1.1/"
   xmlns:cc="http://creativecommons.org/ns#"
   xmlns:rdf="http://www.w3.org/1999/02/22-rdf-syntax-ns#"
   xmlns:svg="http://www.w3.org/2000/svg"
   xmlns="http://www.w3.org/2000/svg"
   xmlns:sodipodi="http://sodipodi.sourceforge.net/DTD/sodipodi-0.dtd"
   xmlns:inkscape="http://www.inkscape.org/namespaces/inkscape"
   version="1.1"
   width="400"
   height="285.45999"
   id="svg2"
   inkscape:version="0.91 r13725"
   sodipodi:docname="CZ.svg">
  <sodipodi:namedview
     pagecolor="#ffffff"
     bordercolor="#666666"
     borderopacity="1"
     objecttolerance="10"
     gridtolerance="10"
     guidetolerance="10"
     inkscape:pageopacity="0"
     inkscape:pageshadow="2"
     inkscape:window-width="1369"
     inkscape:window-height="914"
     id="namedview51"
     showgrid="false"
     inkscape:zoom="0.795"
     inkscape:cx="-6.3130886"
     inkscape:cy="60"
     inkscape:window-x="0"
     inkscape:window-y="0"
     inkscape:window-maximized="0"
     inkscape:current-layer="layer1" />
  <defs
     id="defs4">
    <clipPath
       id="clipPath4747">
      <path
         d="m 0,0 1206.142,0 0,841.89 L 0,841.89 0,0 Z"
         id="path4749"
         inkscape:connector-curvature="0" />
    </clipPath>
  </defs>
  <metadata
     id="metadata7">
    <rdf:RDF>
      <cc:Work
         rdf:about="">
        <dc:format>image/svg+xml</dc:format>
        <dc:type
           rdf:resource="http://purl.org/dc/dcmitype/StillImage" />
        <dc:title></dc:title>
      </cc:Work>
    </rdf:RDF>
  </metadata>
  <g
     transform="translate(0,-766.90217)"
     id="layer1">
    <g
       id="g3379"
       transform="matrix(5.4647983,0,0,5.4647983,-109.64391,-4533.5953)">
      <polygon
         style="fill:#0093d0;fill-opacity:1"
         id="polygon6238"
         transform="matrix(2.0913699,0,0,2.0913699,4.7192894,943.76747)"
         points="7.337,37.489 32.324,37.489 42.336,12.512 42.336,12.512 32.324,12.512 " />
      <path
         style="fill:#ffffff;fill-opacity:1;fill-rule:evenodd"
         id="path6240"
         d="m 68.769582,990.05157 c -0.805184,-0.389 -1.357302,-1.20881 -1.357302,-2.15411 0,-1.31965 1.070775,-2.39671 2.392524,-2.39671 1.323842,0 2.396719,1.07915 2.396719,2.39671 0,0.95367 -0.564684,1.77976 -1.365666,2.15829 l -0.0059,0.67551 c 0.750804,0.0753 1.637534,0.37645 2.185475,0.6567 0.244687,-0.0209 0.562582,-0.0293 0.884645,-0.0293 3.024129,0 5.142683,1.99098 5.142683,4.73695 0,1.71282 -1.52252,3.25208 -3.229068,3.25208 -1.712844,0 -3.26463,-1.68146 -2.953014,-3.3692 0,0 -0.181952,0.5793 -0.181952,1.29037 0,0.45592 0,8.64364 0,8.64364 -0.06901,0.9809 -1.390771,6.4122 -7.49756,6.4122 -6.104714,0 -7.43064,-5.4334 -7.499654,-6.4122 0,0 0,-8.18772 0,-8.64364 0,-0.71107 -0.184036,-1.29037 -0.184036,-1.29037 0.332519,1.62709 -1.244373,3.3692 -2.948837,3.3692 -1.710742,0 -3.231161,-1.53716 -3.231161,-3.25208 0,-2.74597 2.116462,-4.73695 5.148945,-4.73695 0.313717,0 0.633697,0.009 0.876274,0.0293 0.547949,-0.28234 1.480713,-0.6065 2.183399,-0.6567 l 0,-0.68387 c -0.798906,-0.38899 -1.355201,-1.20463 -1.355201,-2.14993 0,-1.31965 1.072876,-2.39671 2.39671,-2.39671 1.325926,0 2.39671,1.07915 2.39671,2.39671 0,0.95367 -0.558397,1.78812 -1.367767,2.16456 l -0.0059,0.89511 c 0.202873,0.0711 0.416175,0.14222 0.616946,0.23633 0.363904,-0.79891 1.112615,-1.42004 1.955446,-1.70447 l 0,-0.72989 c -0.807269,-0.38691 -1.367758,-1.20253 -1.367758,-2.15829 0,-1.32174 1.072868,-2.39462 2.396702,-2.39462 1.323842,0 2.396718,1.07288 2.396718,2.39462 0,0.95576 -0.560489,1.77767 -1.363573,2.16248 l -0.0042,0.72361 c 0.840729,0.28442 1.581069,0.90974 1.942872,1.70656 0.198687,-0.0941 0.414099,-0.16522 0.612777,-0.23633 l -0.0059,-0.90556 0,0 z"
         inkscape:connector-curvature="0" />
      <path
         style="fill:#ed1b2f;fill-opacity:1"
         id="path6242"
         d="m 78.082444,996.09564 c 0.01673,-2.22313 -1.512064,-4.04054 -4.628194,-4.04054 -2.076731,0 -4.542463,1.74002 -4.542463,6.18 0,3.4821 0,6.6025 0,6.6025 0.89511,-0.5919 2.14366,-1.1357 2.823349,-1.1419 0,-1.9471 0,-5.80777 0,-6.14867 0,-2.35278 1.694016,-3.04712 2.486644,-3.04293 -0.453829,0.40572 -0.717344,0.91602 -0.717344,1.59154 0,1.25481 1.03523,2.29212 2.292143,2.29212 1.252736,0 2.231501,-0.9181 2.285865,-2.29212 l 0,0 z"
         inkscape:connector-curvature="0" />
      <path
         style="fill:#ed1b2f;fill-opacity:1"
         id="path6244"
         d="m 52.268667,996.09564 c -0.01874,-2.22313 1.512056,-4.04054 4.628202,-4.04054 2.074638,0 4.544556,1.74002 4.544556,6.18 0,3.4821 0,6.6025 0,6.6025 -0.899296,-0.5919 -2.145753,-1.1357 -2.827543,-1.1419 0,-1.9471 0,-5.80777 0,-6.14867 0,-2.35278 -1.694,-3.04712 -2.486636,-3.04293 0.449644,0.40572 0.719429,0.91602 0.719429,1.59154 0,1.25481 -1.039408,2.29212 -2.294228,2.29212 -1.252735,0 -2.227307,-0.9181 -2.28378,-2.29212 l 0,0 z"
         inkscape:connector-curvature="0" />
      <path
         style="fill:#ed1b2f;fill-opacity:1"
         id="path6246"
         d="m 65.17661,1011.3584 c 5.2326,0 6.414229,-4.3793 6.568982,-5.4961 0,0 0,-1.236 0,-1.4786 -1.616614,0.4016 -3.059673,1.2611 -4.044709,2.5473 -0.345068,-1.5058 -1.29455,-2.7836 -2.524273,-3.616 -1.229731,0.8303 -2.17712,2.1102 -2.534746,3.616 -0.976672,-1.2862 -2.419714,-2.1436 -4.036345,-2.5473 0,0.2426 0,1.4786 0,1.4786 0.156863,1.1189 1.340568,5.4961 6.571091,5.4961 l 0,0 z"
         inkscape:connector-curvature="0" />
      <path
         style="fill:#ed1b2f;fill-opacity:1"
         id="path6248"
         d="m 65.546776,988.24044 0,1.81531 c 0.886747,0.1234 1.687738,0.74454 1.959615,1.4786 -1.062412,0.69224 -1.921969,1.73793 -2.331882,3.04084 -0.409905,-1.30291 -1.265276,-2.3486 -2.327696,-3.04084 0.326257,-0.73406 1.079155,-1.3552 1.95753,-1.4786 l 0,-1.81948 c -0.74034,-0.16942 -1.300837,-0.83656 -1.300837,-1.63546 0,-0.92857 0.754981,-1.67728 1.681459,-1.67728 0.928579,0 1.68356,0.74662 1.68356,1.67728 -0.0042,0.80309 -0.573038,1.47442 -1.321749,1.63963 l 0,0 z"
         inkscape:connector-curvature="0" />
      <path
         style="fill:#ed1b2f;fill-opacity:1"
         id="path6250"
         d="m 60.926937,989.535 0,1.93243 c 2.28378,0.458 3.904588,2.87145 3.904588,5.09667 0,2.36324 0,6.1821 0,6.1821 -1.072868,0.6002 -2.112284,1.8592 -2.453175,2.9133 -0.08578,-0.1004 -0.163116,-0.1987 -0.28024,-0.3012 0,0 0,-4.5299 0,-7.99949 0,-2.40925 -1.292475,-4.83315 -3.603428,-5.62578 0,0 0.750795,-0.31789 1.687737,-0.30743 l 0,-1.89896 c -0.744534,-0.16313 -1.30293,-0.83447 -1.30293,-1.62918 0,-0.93066 0.752897,-1.68565 1.681459,-1.68565 0.928571,0 1.681468,0.7529 1.681468,1.68565 0,0.79681 -0.562582,1.46814 -1.315479,1.63754 l 0,0 z"
         inkscape:connector-curvature="0" />
      <path
         style="fill:#ed1b2f;fill-opacity:1"
         id="path6252"
         d="m 70.164523,989.5371 0,1.88433 c 0.939026,-0.0105 1.689822,0.30742 1.689822,0.30742 -2.308869,0.79472 -3.601336,3.25417 -3.601336,5.62579 0,3.46956 0,7.99946 0,7.99946 -0.119208,0.1025 -0.196585,0.2008 -0.284426,0.3012 -0.336713,-1.0541 -1.374028,-2.311 -2.448997,-2.9133 0,0 -0.0042,-3.81884 -0.0042,-6.18209 0,-2.22312 1.620809,-4.63865 3.908766,-5.09667 l 0,-1.9366 c -0.740348,-0.1715 -1.300829,-0.83447 -1.300829,-1.62918 0,-0.93066 0.748703,-1.68565 1.679366,-1.68565 0.930655,0 1.683552,0.7529 1.683552,1.68565 0,0.79681 -0.573038,1.4765 -1.321749,1.63964 l 0,0 z"
         inkscape:connector-curvature="0" />
    </g>
  </g>
</svg>
