<?xml version="1.0" encoding="UTF-8" standalone="no"?>
<!-- Created with Inkscape (http://www.inkscape.org/) -->

<svg
   xmlns:dc="http://purl.org/dc/elements/1.1/"
   xmlns:cc="http://creativecommons.org/ns#"
   xmlns:rdf="http://www.w3.org/1999/02/22-rdf-syntax-ns#"
   xmlns:svg="http://www.w3.org/2000/svg"
   xmlns="http://www.w3.org/2000/svg"
   xmlns:sodipodi="http://sodipodi.sourceforge.net/DTD/sodipodi-0.dtd"
   xmlns:inkscape="http://www.inkscape.org/namespaces/inkscape"
   version="1.1"
   width="400"
   height="414.082"
   id="svg2"
   xml:space="preserve"
   inkscape:version="0.91 r13725"
   sodipodi:docname="DE.svg"><sodipodi:namedview
     pagecolor="#ffffff"
     bordercolor="#666666"
     borderopacity="1"
     objecttolerance="10"
     gridtolerance="10"
     guidetolerance="10"
     inkscape:pageopacity="0"
     inkscape:pageshadow="2"
     inkscape:window-width="1430"
     inkscape:window-height="950"
     id="namedview33"
     showgrid="false"
     inkscape:zoom="0.82584801"
     inkscape:cx="385.05875"
     inkscape:cy="145.59563"
     inkscape:window-x="0"
     inkscape:window-y="0"
     inkscape:window-maximized="0"
     inkscape:current-layer="g10" /><metadata
     id="metadata8"><rdf:RDF><cc:Work
         rdf:about=""><dc:format>image/svg+xml</dc:format><dc:type
           rdf:resource="http://purl.org/dc/dcmitype/StillImage" /><dc:title></dc:title></cc:Work></rdf:RDF></metadata><defs
     id="defs6"><clipPath
       id="clipPath16"><path
         d="m 0,232.92 616.08,0 L 616.08,0 0,0 0,232.92 Z"
         id="path18"
         inkscape:connector-curvature="0" /></clipPath></defs><g
     transform="matrix(1.25,0,0,-1.25,0,414.082)"
     id="g10"><g
       id="g3361"
       transform="matrix(2.9367255,0,0,2.9367245,-150.77491,-251.76557)"><g
         transform="matrix(0.1768681,0,0,0.48429094,51.341166,85.730061)"
         id="g12"><g
           id="g14"
           clip-path="url(#clipPath16)"><path
             inkscape:connector-curvature="0"
             style="fill:#6f757a;fill-opacity:1;fill-rule:nonzero;stroke:none"
             id="path20"
             d="m 0,0 616.08,0 0,232.92 L 0,232.92 0,0 Z" /></g></g><path
         style="fill:#fbab18;fill-opacity:1;fill-rule:nonzero;stroke:none"
         id="path34"
         d="m 105.888,93.368 c -26.63,0 -46.696,21.562 -46.696,48.269 0,26.704 20.066,48.481 46.696,48.481 26.63,0 46.693,-21.777 46.693,-48.481 0,-26.707 -20.063,-48.269 -46.693,-48.269 z m 0,101.635 c -29.367,0 -51.491,-23.898 -51.491,-53.264 0,-29.361 22.124,-53.074 51.491,-53.074 29.364,0 51.489,23.713 51.489,53.074 0,29.366 -22.125,53.264 -51.489,53.264"
         inkscape:connector-curvature="0" /><path
         style="fill:#fbab18;fill-opacity:1;fill-rule:nonzero;stroke:none"
         id="path36"
         d="m 102.873,150.785 c 1.506,0 25.943,0 25.943,0 l -13.071,-10.542 4.81,-4.628 27.265,21.197 -40.288,0.004 c -5.405,0 -7.394,-0.114 -8.668,-0.494 -1.225,-0.369 -2.818,-1.143 -3.675,-3.021 -0.629,-1.38 -0.661,-3.851 0.233,-5.386 1.237,-2.127 3.321,-4.006 8.684,-9.66 -5.305,3.261 -19.459,12.524 -19.459,12.524 0,0 3.144,-0.003 3.934,-0.003 0,1.508 -0.006,6.039 -0.006,6.039 l -24.985,0 73.542,-47.832 0,8.414 -34.644,31.443 c -1.363,1.26 -0.915,1.945 0.385,1.945"
         inkscape:connector-curvature="0" /></g></g></svg>