<?xml version="1.0" encoding="UTF-8" standalone="no"?>
<!-- Generated by IcoMoon.io -->

<svg
   xmlns:dc="http://purl.org/dc/elements/1.1/"
   xmlns:cc="http://creativecommons.org/ns#"
   xmlns:rdf="http://www.w3.org/1999/02/22-rdf-syntax-ns#"
   xmlns:svg="http://www.w3.org/2000/svg"
   xmlns="http://www.w3.org/2000/svg"
   xmlns:sodipodi="http://sodipodi.sourceforge.net/DTD/sodipodi-0.dtd"
   xmlns:inkscape="http://www.inkscape.org/namespaces/inkscape"
   version="1.1"
   width="50"
   height="50"
   viewBox="0 0 1.5625 1.5625"
   id="svg2"
   inkscape:version="0.91 r13725"
   sodipodi:docname="default-airline.svg">
  <metadata
     id="metadata10">
    <rdf:RDF>
      <cc:Work
         rdf:about="">
        <dc:format>image/svg+xml</dc:format>
        <dc:type
           rdf:resource="http://purl.org/dc/dcmitype/StillImage" />
        <dc:title></dc:title>
      </cc:Work>
    </rdf:RDF>
  </metadata>
  <defs
     id="defs8" />
  <sodipodi:namedview
     pagecolor="#ffffff"
     bordercolor="#666666"
     borderopacity="1"
     objecttolerance="10"
     gridtolerance="10"
     guidetolerance="10"
     inkscape:pageopacity="0"
     inkscape:pageshadow="2"
     inkscape:window-width="1843"
     inkscape:window-height="1057"
     id="namedview6"
     showgrid="false"
     inkscape:zoom="10.429825"
     inkscape:cx="32.733158"
     inkscape:cy="21.942623"
     inkscape:window-x="1912"
     inkscape:window-y="-8"
     inkscape:window-maximized="1"
     inkscape:current-layer="svg2" />
  <path
     d="M 1.2004004,0.635362 C 1.2491974,0.586562 1.2882344,0.557282 1.3175126,0.528009 1.4736622,0.371859 1.6298118,0.127875 1.5322183,0.030282 1.4346243,-0.067308 1.2004004,0.088842 1.0442507,0.244988 1.0149727,0.274268 0.9856946,0.313308 0.93689794,0.3621 L 0.25374335,0.049801 C 0.18542795,0.020521 0.10735309,0.030281 0.05855634,0.079081 L 2.3558169e-7,0.127875 0.64411741,0.684158 C 0.51724582,0.840308 0.38061491,0.986698 0.31229946,1.074532 L 0.2049466,1.015976 C 0.1561498,0.986696 0.08783439,0.986696 0.04879699,1.035496 l -0.02927805,0.02928 0.27326182,0.204946 0.19518701,0.273262 0.029278,-0.02928 c 0.0390374,-0.03904 0.0487968,-0.107353 0.0195187,-0.156149 L 0.48796777,1.250202 C 0.57580197,1.181882 0.72219222,1.045255 0.87834183,0.918384 L 1.4346248,1.5625 1.4834218,1.5137 C 1.5322188,1.4649 1.5419778,1.386829 1.5126998,1.318513 L 1.2004004,0.635362 Z"
     id="path4"
     inkscape:connector-curvature="0"
     style="fill:#dedede" />
</svg>
