<?xml version="1.0" encoding="UTF-8" standalone="no"?>
<!-- Created with Inkscape (http://www.inkscape.org/) -->
<svg id="svg2" xmlns:rdf="http://www.w3.org/1999/02/22-rdf-syntax-ns#" xmlns="http://www.w3.org/2000/svg" xml:space="preserve" height="117.65" width="400" version="1.1" xmlns:cc="http://creativecommons.org/ns#" xmlns:dc="http://purl.org/dc/elements/1.1/"><metadata id="metadata8"><rdf:RDF><cc:Work rdf:about=""><dc:format>image/svg+xml</dc:format><dc:type rdf:resource="http://purl.org/dc/dcmitype/StillImage"/><dc:title/></cc:Work></rdf:RDF></metadata><g id="g10" transform="matrix(1.25 0 0 -1.25 7.3639e-7 464.05)"><g id="g3355" transform="matrix(3.3744 0 0 3.3744 -760.09 -659.22)"><g id="g48" transform="matrix(.87457 0 0 .87457 253.15 291.42)"><path id="path50" d="m0 0c0-8.823-7.145-15.946-15.954-15.946-8.803 0-15.942 7.123-15.942 15.946 0 8.82 7.139 15.947 15.942 15.947 8.809 0 15.954-7.127 15.954-15.947" fill-rule="evenodd" fill="#0b96d4"/></g><g id="g52" transform="matrix(.87457 0 0 .87457 286.62 291.42)"><path id="path54" d="m0 0c0-8.823-7.146-15.946-15.943-15.946-8.807 0-15.948 7.123-15.948 15.946 0 8.82 7.141 15.947 15.948 15.947 8.797 0 15.943-7.127 15.943-15.947" fill-rule="evenodd" fill="#76b2e2"/></g><g id="g56" transform="matrix(.87457 0 0 .87457 320.08 291.42)"><path id="path58" d="m0 0c0-8.823-7.145-15.946-15.947-15.946-8.803 0-15.949 7.123-15.949 15.946 0 8.82 7.146 15.947 15.949 15.947 8.802 0 15.947-7.127 15.947-15.947" fill-rule="evenodd" fill="#a4c8eb"/></g></g></g></svg>
