<?xml version="1.0" encoding="UTF-8" standalone="no"?>
<!-- Created with Inkscape (http://www.inkscape.org/) -->

<svg
   xmlns:dc="http://purl.org/dc/elements/1.1/"
   xmlns:cc="http://creativecommons.org/ns#"
   xmlns:rdf="http://www.w3.org/1999/02/22-rdf-syntax-ns#"
   xmlns:svg="http://www.w3.org/2000/svg"
   xmlns="http://www.w3.org/2000/svg"
   xmlns:sodipodi="http://sodipodi.sourceforge.net/DTD/sodipodi-0.dtd"
   xmlns:inkscape="http://www.inkscape.org/namespaces/inkscape"
   version="1.1"
   width="400"
   height="162.299"
   id="svg3176"
   inkscape:version="0.91 r13725"
   sodipodi:docname="DY.svg">
  <sodipodi:namedview
     pagecolor="#ffffff"
     bordercolor="#666666"
     borderopacity="1"
     objecttolerance="10"
     gridtolerance="10"
     guidetolerance="10"
     inkscape:pageopacity="0"
     inkscape:pageshadow="2"
     inkscape:window-width="1680"
     inkscape:window-height="998"
     id="namedview46"
     showgrid="false"
     inkscape:zoom="1.7771618"
     inkscape:cx="357.87399"
     inkscape:cy="78.661415"
     inkscape:window-x="-8"
     inkscape:window-y="-8"
     inkscape:window-maximized="1"
     inkscape:current-layer="g3267" />
  <defs
     id="defs3178">
    <clipPath
       id="clipPath3043">
      <path
         d="m 38.74,664.816 163.067,0 0,40.717 -163.067,0 0,-40.717 z"
         id="path3045"
         inkscape:connector-curvature="0" />
    </clipPath>
  </defs>
  <metadata
     id="metadata3181">
    <rdf:RDF>
      <cc:Work
         rdf:about="">
        <dc:format>image/svg+xml</dc:format>
        <dc:type
           rdf:resource="http://purl.org/dc/dcmitype/StillImage" />
        <dc:title></dc:title>
      </cc:Work>
    </rdf:RDF>
  </metadata>
  <g
     transform="translate(-17.046512,-419.70618)"
     id="layer1">
    <g
       transform="matrix(4.0341665,0,0,4.0341665,-696.56441,-1071.5904)"
       id="g3267">
      <g
         id="g3374"
         transform="matrix(1.4025875,0,0,1.4025875,-219.67893,-163.79259)">
        <g
           id="g3039"
           transform="matrix(1.25,0,0,-1.25,122.23748,1248.7537)">
          <g
             id="g3041"
             clip-path="url(#clipPath3043)">
            <g
               id="g3081"
               transform="translate(151.3949,691.2392)">
              <path
                 style="fill:#ffffff;fill-opacity:1;fill-rule:evenodd;stroke:none"
                 id="path3083"
                 d="m 0,0 c 0,1.072 0.429,1.93 1.179,2.519 0.805,0.59 1.875,0.912 3.269,0.912 1.34,0 2.466,-0.322 3.216,-0.912 C 8.468,1.93 8.843,1.072 8.843,0 8.843,-1.018 8.468,-1.875 7.664,-2.465 6.914,-3.108 5.788,-3.376 4.448,-3.376 3.054,-3.376 1.984,-3.108 1.179,-2.465 0.429,-1.875 0,-1.018 0,0 m 3.161,0 c 0,-0.589 0.109,-0.964 0.269,-1.233 0.215,-0.267 0.536,-0.375 1.018,-0.375 0.429,0 0.751,0.108 0.965,0.375 C 5.627,-0.964 5.735,-0.589 5.735,0 5.735,0.59 5.627,1.019 5.413,1.287 5.199,1.555 4.877,1.661 4.448,1.661 3.966,1.661 3.645,1.555 3.43,1.287 3.27,1.019 3.161,0.59 3.161,0"
                 inkscape:connector-curvature="0" />
            </g>
            <g
               id="g3085"
               transform="translate(146.8355,692.1043)">
              <path
                 style="fill:#ffffff;fill-opacity:1;fill-rule:nonzero;stroke:none"
                 id="path3087"
                 d="m 0,0 c -0.031,0.263 -0.142,0.476 -0.346,0.613 -0.189,0.138 -0.457,0.213 -0.787,0.213 -1.196,0 -1.369,-0.826 -1.369,-1.614 0,-0.788 0.173,-1.6 1.369,-1.6 0.676,0 1.149,0.437 1.212,0.95 l 2.974,0 C 2.754,-3.202 1.007,-4.19 -1.196,-4.19 c -2.455,0 -4.422,1.351 -4.422,3.402 0,2.052 1.967,3.415 4.422,3.415 C 0.944,2.627 2.77,1.789 2.959,0 L 0,0 Z"
                 inkscape:connector-curvature="0" />
            </g>
            <g
               id="g3089"
               transform="translate(161.8333,694.5685)">
              <path
                 style="fill:#ffffff;fill-opacity:1;fill-rule:nonzero;stroke:none"
                 id="path3091"
                 d="m 0,0 3.006,0 0,-0.863 0.031,0 c 0.63,0.75 1.543,1.026 2.676,1.026 0.881,0 1.824,-0.363 2.203,-1.013 0.125,0.074 0.756,1.013 2.785,1.013 2.093,0 2.801,-1.151 2.801,-2.202 l 0,-4.453 -3.116,0 0,3.515 c 0,0.613 -0.078,1.163 -1.022,1.163 -0.787,0 -1.055,-0.488 -1.055,-1.163 l 0,-3.515 -3.116,0 0,3.515 c 0,0.613 -0.078,1.163 -1.023,1.163 -0.786,0 -1.054,-0.488 -1.054,-1.163 l 0,-3.515 L 0,-6.492 0,0 Z"
                 inkscape:connector-curvature="0" />
            </g>
            <path
               style="fill:#ffffff;fill-opacity:1;fill-rule:evenodd;stroke:none"
               id="path3093"
               d="m 136.448,690.65 3.109,0 0,-2.573 -3.109,0 0,2.573 z"
               inkscape:connector-curvature="0" />
            <g
               id="g3095"
               transform="translate(164.6284,684.798)">
              <path
                 style="fill:#ffffff;fill-opacity:1;fill-rule:evenodd;stroke:none"
                 id="path3097"
                 d="m 0,0 c 0.403,-0.549 0.726,-1.19 1.291,-1.463 0.404,-0.276 1.374,-0.549 1.776,-0.276 1.615,0.916 2.665,1.557 4.119,2.565 0.08,0.09 0,0.365 -0.083,0.549 C 7.024,1.465 6.862,1.557 6.701,1.557 6.539,1.557 5.893,1.645 5.731,1.554 4.843,0.914 4.481,0.648 3.512,0.099 3.189,-0.083 2.754,-0.31 2.431,-0.218 1.785,-0.035 1.21,0 0.645,0.276 0.484,0.367 0.322,0.55 0.16,0.55 0.08,0.55 -0.23,0.396 -0.31,0.304 -0.31,0.121 -0.082,0.184 0,0"
                 inkscape:connector-curvature="0" />
            </g>
            <g
               id="g3099"
               transform="translate(171.8792,687.9592)">
              <path
                 style="fill:#ffffff;fill-opacity:1;fill-rule:evenodd;stroke:none"
                 id="path3101"
                 d="M 0,0 C 0,0.154 -0.329,0.477 -0.252,0.63 -0.098,0.783 0.247,1.05 0.513,1.096 0.725,1.132 0.917,1.3 1.07,1.148 1.3,0.918 1.223,0.536 1.146,0.306 1.146,0.154 0.994,0 0.841,-0.075 0.612,-0.152 0.458,-0.304 0.23,-0.304 0.076,-0.304 0.076,-0.075 0,0"
                 inkscape:connector-curvature="0" />
            </g>
            <g
               id="g3103"
               transform="translate(175.5563,688.3331)">
              <path
                 style="fill:#ffffff;fill-opacity:1;fill-rule:evenodd;stroke:none"
                 id="path3105"
                 d="M 0,0 C 0.993,0.611 1.834,1.375 2.827,1.91 3.591,2.369 4.355,2.675 5.12,2.981 5.654,3.133 6.266,3.21 6.724,3.439 6.801,3.439 7.241,4.078 7.165,4.078 6.859,4.232 6.26,4.227 5.953,4.227 5.266,4.15 4.328,3.822 3.715,3.593 2.875,3.288 2.019,2.784 1.254,2.325 0.261,1.79 -0.536,1.069 -1.376,0.383 -1.454,0.305 -1.606,0.152 -1.529,0.152 -1.147,0 -0.689,0 -0.307,0 -0.23,0 -0.078,-0.076 0,0"
                 inkscape:connector-curvature="0" />
            </g>
            <g
               id="g3107"
               transform="translate(166.9279,682.8024)">
              <path
                 style="fill:#003772;fill-opacity:1;fill-rule:evenodd;stroke:none"
                 id="path3109"
                 d="m 0,0 c -3.556,-1.936 -29.526,-11.781 -32.987,-7.185 -3.059,4.061 2.645,9.505 4.015,10.717 l -1.784,0.013 c -1.291,-0.993 -7.734,-6.174 -7.768,-10.755 -0.037,-5.091 10.226,-6.999 39.645,6.781 L 0,0 Z"
                 inkscape:connector-curvature="0" />
            </g>
            <g
               id="g3111"
               transform="translate(175.3705,688.4467)">
              <path
                 style="fill:#003772;fill-opacity:1;fill-rule:nonzero;stroke:none"
                 id="path3113"
                 d="M 0,0 C -0.464,0.061 -0.929,0.121 -1.396,0.183 -0.393,0.87 0.75,1.637 1.139,1.911 1.589,2.228 2.408,2.742 3.37,3.169 4.332,3.598 5.44,3.934 6.451,3.932 6.675,3.932 6.965,3.902 7.104,3.883 7.243,3.864 7.309,3.793 6.798,3.755 4.722,3.56 1.051,0.799 0,0 m -3.351,-0.718 c 0,0 -0.469,0.677 -0.07,0.952 0.399,0.275 0.721,0.486 0.721,0.486 0,0 0.022,-0.527 0.275,-0.854 l -0.926,-0.584 z m -1.312,-2.443 c 0,0 -0.62,-0.421 -2.156,-1.428 -1.395,-0.915 -2.402,-0.137 -2.402,-0.137 l -1.739,1.347 c 0,0 0.142,0.093 0.248,0.159 0.089,0.056 0.134,0.032 0.299,-0.034 0.131,-0.056 1.611,-0.649 1.75,-0.7 0.157,-0.056 0.326,-0.09 0.494,-0.09 0.256,0 0.489,0.075 0.706,0.176 0.218,0.101 0.434,0.233 0.694,0.391 0.101,0.062 0.268,0.171 0.501,0.325 0.358,0.237 1.202,0.776 1.202,0.776 0.815,-0.305 1.003,-0.384 0.403,-0.785 M 9.406,-4.107 c -0.145,0.065 -2.335,1.149 -4.015,1.981 0.229,0.431 0.148,0.647 -0.188,0.815 -0.366,0.184 -0.878,0.112 -1.366,-0.045 -0.236,0.117 -0.374,0.186 -0.374,0.186 0,0 1.469,0.898 3.013,2.025 C 8.357,2.227 9.333,3.51 8.566,3.961 6.121,5.398 2.129,3.348 0.858,2.35 0.545,2.13 0.159,1.862 -0.58,1.353 -0.863,1.18 -1.073,1.046 -1.258,0.988 -1.946,1.954 -2.927,1.114 -2.946,1.097 -3.019,1.045 -3.093,0.988 -3.17,0.93 -3.619,0.589 -3.823,0.567 -4.138,0.567 c -0.314,0 -4.669,0.581 -5.419,0.701 -0.75,0.122 -1.331,0.243 -1.645,0.05 -0.246,-0.152 -0.877,-0.57 -1.14,-0.745 -0.103,-0.064 -0.092,-0.088 -0.019,-0.117 l 6.695,-2.577 c -0.678,-0.457 -1.181,-0.792 -1.355,-0.898 -0.688,-0.42 -1.003,-0.551 -1.459,-0.432 -0.467,0.123 -1.862,0.565 -2.059,0.63 -0.115,0.039 -0.145,0.025 -0.22,-0.029 -0.052,-0.037 -0.814,-0.54 -0.814,-0.54 l 1.241,-1.48 -1.662,0.19 c -0.114,0.013 -0.277,-0.039 -0.363,-0.114 l -0.315,-0.277 c -0.086,-0.075 -0.067,-0.164 0.043,-0.197 l 5.969,-1.781 c 0.11,-0.033 0.286,-0.026 0.392,0.017 l 0.336,0.132 c 0.106,0.042 0.133,0.148 0.06,0.237 l -0.742,0.892 c 2.212,0.899 3.745,1.442 3.745,1.442 0.557,0.272 1.293,0.277 3.3,0.307 0.855,0.014 1.516,0.086 3.924,-0.322 2.7,-0.457 3.516,-0.661 3.639,-0.669 0.102,-0.006 0.284,-0.009 0.57,0.131 0.346,0.17 0.706,0.375 0.886,0.477 0.181,0.102 0.2,0.19 -0.044,0.298"
                 inkscape:connector-curvature="0" />
            </g>
          </g>
        </g>
      </g>
    </g>
  </g>
</svg>
