<?xml version="1.0" encoding="UTF-8" standalone="no"?>
<!-- Generator: Adobe Illustrator 15.0.0, SVG Export Plug-In . SVG Version: 6.00 Build 0)  -->

<svg
   xmlns:dc="http://purl.org/dc/elements/1.1/"
   xmlns:cc="http://creativecommons.org/ns#"
   xmlns:rdf="http://www.w3.org/1999/02/22-rdf-syntax-ns#"
   xmlns:svg="http://www.w3.org/2000/svg"
   xmlns="http://www.w3.org/2000/svg"
   xmlns:sodipodi="http://sodipodi.sourceforge.net/DTD/sodipodi-0.dtd"
   xmlns:inkscape="http://www.inkscape.org/namespaces/inkscape"
   version="1.1"
   id="Ebene_1"
   x="0px"
   y="0px"
   width="400"
   height="349.224"
   viewBox="0 0 400 349.224"
   enable-background="new 0 0 600 200"
   xml:space="preserve"
   inkscape:version="0.91 r13725"
   sodipodi:docname="EI.svg"><metadata
     id="metadata12"><rdf:RDF><cc:Work
         rdf:about=""><dc:format>image/svg+xml</dc:format><dc:type
           rdf:resource="http://purl.org/dc/dcmitype/StillImage" /><dc:title></dc:title></cc:Work></rdf:RDF></metadata><defs
     id="defs10" /><sodipodi:namedview
     pagecolor="#ffffff"
     bordercolor="#666666"
     borderopacity="1"
     objecttolerance="10"
     gridtolerance="10"
     guidetolerance="10"
     inkscape:pageopacity="0"
     inkscape:pageshadow="2"
     inkscape:window-width="1680"
     inkscape:window-height="998"
     id="namedview8"
     showgrid="false"
     inkscape:zoom="0.53"
     inkscape:cx="300"
     inkscape:cy="100"
     inkscape:window-x="-8"
     inkscape:window-y="-8"
     inkscape:window-maximized="1"
     inkscape:current-layer="g1362" /><g
     id="g1362"
     transform="matrix(0.715993,0,0,0.715993,-43.7539,129.0378)"><path
       id="path1353"
       d="m 163.24832,297.89375 c 2.33949,-5.48048 6.7477,-17.92889 9.79843,-27.62623 4.76202,-15.18143 8.181,-19.78098 24.50689,-33.02728 25.53223,-20.71967 59.74007,-60.2708 79.65824,-92.13195 8.44455,-13.48096 8.46621,-13.63981 1.22029,-8.50954 -40.69199,28.85735 -90.9369,53.68557 -122.00375,60.28164 -17.20682,3.65727 -58.353707,4.68621 -66.224217,1.66437 -2.55972,-0.98563 -4.05801,-3.40094 -3.31789,-5.37218 0.74012,-1.96402 -2.70774,-5.88122 -7.6575,-8.70089 -13.52067,-7.67194 -19.73043,-22.04104 -17.76281,-41.12885 3.02907,-29.40251 25.3806,-61.299751 50.129377,-71.549471 7.77665,-3.231244 9.23883,-5.314404 8.05103,-11.542218 -2.3792,-12.4448 7.83441,-34.25479 20.3117,-43.39614 6.18449,-4.530961 13.56038,-11.0439926 16.3981,-14.4701926 4.12299,-4.989473 9.66123,-6.458877 27.73814,-7.368679 12.42313,-0.631807 28.2508,0.379084 35.15374,2.242013 25.29034,6.805468 49.61672,33.3161046 70.43747,76.7700086 6.57801,13.715635 12.90691,24.922093 14.06944,24.922093 1.16252,0 4.55623,-6.404722 7.54558,-14.217471 l 5.42632,-14.221081 -7.95355,-5.805407 C 304.39403,61.529206 296.57767,52.301208 291.38963,44.228516 263.31573,0.48217543 260.01229,-59.135167 283.12198,-105.28238 c 14.23552,-28.43855 40.04935,-57.87355 48.43614,-55.21274 3.92445,1.24195 8.43375,-0.30688 12.75885,-4.36127 20.7017,-19.45245 66.5745,-20.75217 73.7446,-2.08677 1.5668,4.07967 3.5886,3.79806 14.8745,-2.08678 17.6184,-9.18467 47.3531,-11.02955 65.5816,-4.06884 16.2609,6.21338 24.9871,16.39089 29.5325,34.45337 1.9315,7.64667 5.1555,13.29683 7.6033,13.29683 5.4119,0 5.3397,3.75113 -0.5271,26.243473 -12.2173,46.91982 -42.3527,77.430701 -127.3507,128.946467 -55.1657,33.449686 -66.5816,42.2986 -72.3473,56.086442 -2.5055,5.993144 -4.18074,11.271442 -3.71862,11.726344 0.46213,0.458511 9.12332,-5.411881 19.24302,-13.069386 48.0787,-36.305456 115.7579,-77.2285206 144.3192,-87.2652316 9.7515,-3.426201 29.4819,-7.7477634 43.851,-9.5998624 23.1206,-2.989351 26.4493,-2.798003 28.9115,1.599376 1.538,2.7438494 8.2713,6.4588764 14.9684,8.2568194 6.7008,1.80877503 17.7159,8.549257 24.4817,14.9828596 11.2533,10.711843 12.2895,13.036894 12.2895,27.633449 0,18.647342 -5.2205,32.60848 -16.2934,43.565825 l -7.9319,7.859683 9.0439,17.925282 c 14.2355,28.22915 11.7047,51.69628 -8.1088,75.20312 -4.8812,5.78013 -8.8886,12.68307 -8.9175,15.32945 -0.065,6.87045 -26.5756,20.3478 -55.3571,28.16056 -20.2323,5.4913 -29.3448,6.33251 -51.4689,4.78007 -58.2201,-4.08689 -105.0785,-31.03798 -146.525,-84.28671 l -16.71947,-21.47062 -12.82749,22.5104 c -28.0739,49.25209 -64.09412,93.15728 -108.58417,132.37266 -32.16079,28.33024 -39.74247,31.98028 -32.83592,15.75186 z"
       inkscape:connector-curvature="0"
       style="fill:#64b447" /></g></svg>