<?xml version="1.0" encoding="UTF-8" standalone="no"?>
<!-- Created with Inkscape (http://www.inkscape.org/) -->

<svg
   xmlns:dc="http://purl.org/dc/elements/1.1/"
   xmlns:cc="http://creativecommons.org/ns#"
   xmlns:rdf="http://www.w3.org/1999/02/22-rdf-syntax-ns#"
   xmlns:svg="http://www.w3.org/2000/svg"
   xmlns="http://www.w3.org/2000/svg"
   xmlns:sodipodi="http://sodipodi.sourceforge.net/DTD/sodipodi-0.dtd"
   xmlns:inkscape="http://www.inkscape.org/namespaces/inkscape"
   version="1.0"
   width="400"
   height="275.48901"
   id="svg2320"
   inkscape:version="0.91 r13725"
   sodipodi:docname="Emirates.svg">
  <metadata
     id="metadata24">
    <rdf:RDF>
      <cc:Work
         rdf:about="">
        <dc:format>image/svg+xml</dc:format>
        <dc:type
           rdf:resource="http://purl.org/dc/dcmitype/StillImage" />
        <dc:title></dc:title>
      </cc:Work>
    </rdf:RDF>
  </metadata>
  <sodipodi:namedview
     pagecolor="#ffffff"
     bordercolor="#666666"
     borderopacity="1"
     objecttolerance="10"
     gridtolerance="10"
     guidetolerance="10"
     inkscape:pageopacity="0"
     inkscape:pageshadow="2"
     inkscape:window-width="1066"
     inkscape:window-height="811"
     id="namedview22"
     showgrid="false"
     inkscape:zoom="0.47235089"
     inkscape:cx="336.61417"
     inkscape:cy="237.40157"
     inkscape:window-x="0"
     inkscape:window-y="0"
     inkscape:window-maximized="0"
     inkscape:current-layer="svg2320" />
  <defs
     id="defs2322" />
  <g
     transform="matrix(0.62715998,0,0,0.62715998,-440.62691,-268.9729)"
     id="layer1">
    <g
       transform="translate(17.71652,17.769351)"
       id="g11023">
      <path
         d="m 1043.2754,436.73667 c -3.4249,3.28608 -8.2383,11.79293 -8.2383,23.71549 0,2.85101 0,71.18351 0,73.6273 0,6.11861 -2.2216,11.93178 -5.8317,15.22713 -1.9439,1.76804 -13.9776,12.64459 -14.7181,13.23699 l 6.9425,0 c 2.129,-2.00866 23.9747,-21.25322 26.1963,-23.84507 2.9621,-3.39718 10.0897,-11.9411 10.0897,-25.37244 0,-3.16577 0,-67.90669 0,-70.76702 0,-10.60808 4.906,-16.50454 7.4979,-19.33707 2.5918,-2.90661 10.9228,-10.07123 13.0518,-11.95958 l -6.8499,-0.0741 c -1.9439,1.82359 -25.826,23.3175 -28.1402,25.54836"
         style="fill:#8e002c;fill-opacity:1;fill-rule:nonzero;stroke:none"
         id="path10689"
         inkscape:connector-curvature="0" />
      <path
         d="m 989.2167,704.79034 26.7517,23.3545 17.8653,0 c 18.2355,0 34.805,-7.80335 45.8204,-18.78174 11.0154,-10.9876 14.9957,-25.72416 14.9957,-39.51659 0,-10.0527 0,-36.45261 0,-38.28541 0,-12.86674 -8.0533,-20.35539 -10.2749,-22.60473 -1.2033,-1.20339 -9.0715,-8.55313 -9.0715,-8.55313 l 0,29.38055 c 0,0 8.6087,8.84936 10.2749,10.63588 7.9607,8.43282 7.8681,23.77105 -17.2173,48.23632 -4.3507,4.29508 -16.9397,16.13435 -34.2496,16.13435 -2.4068,0 -44.8947,0 -44.8947,0"
         style="fill:#8e002c;fill-opacity:1;fill-rule:nonzero;stroke:none"
         id="path10691"
         inkscape:connector-curvature="0" />
      <path
         d="m 1063.5475,547.71446 c -2.9621,3.13802 -5.8317,10.84876 -5.8317,17.64317 0,3.76744 0,14.49588 0,14.49588 0,0 11.8485,0 14.718,0 5.6466,0 10.8303,-4.24879 14.9032,-7.96073 0.093,-0.18513 0,-14.39405 0,-14.39405 0,0 3.7027,4.32282 7.1276,7.81262 4.9061,-4.49874 17.5877,-17.78202 26.8443,-17.78202 18.6984,0 14.4404,23.44707 6.7573,30.98195 -2.4067,2.44379 -13.4221,12.57051 -16.847,15.81958 -8.8864,8.41428 -23.9747,4.38769 -23.9747,-17.33768 0,0 -16.2917,15.39383 -18.6984,17.43951 -2.4993,2.055 -10.8303,10.91357 -10.8303,10.91357 0,0 0,34.50876 0,38.18363 0,18.32813 -5.554,24.92815 -11.0154,29.98227 -2.4067,2.24008 -22.1234,20.11466 -25.6409,23.23415 l -7.035,0 c 0,0 12.6816,-11.07096 15.0883,-13.57946 2.777,-2.84179 5.9243,-8.66423 5.9243,-18.32818 0,-2.43447 -0.2777,-60.00151 -0.2777,-60.00151 0,0 -89.6969,0 -93.7698,0 -32.6759,0 -39.6184,-36.20271 -39.8035,-45.89442 -0.0926,-2.86027 0,-31.76874 0,-36.26747 0,-5.97055 -3.7952,-15.9955 -9.9046,-19.08719 l 9.164,0 c 1.1109,0.44429 6.85,2.78625 6.85,24.99292 0,0 -0.3703,25.82599 -0.3703,27.20524 0,11.24681 8.9789,24.1691 21.8457,24.1691 2.6844,0 106.1736,-0.10183 106.1736,-0.10183 0.093,-2.86033 3.0547,-13.69982 8.0532,-19.41115 2.9622,-3.23986 25.7335,-24.06728 28.3254,-26.07599 l 6.7573,-0.074 c -1.0182,0.9349 -12.0336,10.81174 -14.5329,13.42212 z m 34.4347,21.39207 c 0,0 7.683,8.80308 10.6451,11.16352 10.0897,7.95147 14.5329,-1.1293 8.0533,-11.55225 -1.5737,-2.47154 -7.8681,-6.66478 -18.6984,0.38873"
         style="fill:#8e002c;fill-opacity:1;fill-rule:nonzero;stroke:none"
         id="path10693"
         inkscape:connector-curvature="0" />
      <path
         d="m 984.5884,637.85557 c 0,5.10967 -16.3843,18.74472 -17.4025,19.6889 -1.1108,-5.50773 -5.2763,-11.61707 -17.495,-23.82659 l 17.9578,-17.92087 c 12.0336,12.01513 16.9397,14.56997 16.9397,22.05856"
         style="fill:#8e002c;fill-opacity:1;fill-rule:nonzero;stroke:none"
         id="path10695"
         inkscape:connector-curvature="0" />
      <path
         d="m 1015.5981,432.41379 c 3.6101,3.61933 11.3857,13.33883 6.7573,17.99489 -4.1654,4.10995 -10.4599,10.62662 -10.4599,10.62662 -0.2778,-2.36044 -6.2945,-8.00696 -6.2945,-8.00696 0,0 0.092,17.31914 0,19.44817 -0.1852,7.81262 -3.1473,10.04348 -3.1473,10.04348 0,0 14.4404,14.32923 14.4404,32.74071 0,8.92339 0,17.13402 0,18.89279 0,3.7767 -0.9257,6.69253 -3.5176,9.58987 -1.2959,1.44401 -14.718,14.89394 -16.7545,16.74528 -3.8878,3.48047 -7.9607,4.06366 -11.0154,4.06366 -2.129,0 -48.3197,0 -49.8007,0 -7.7756,0 -15.9214,-6.12793 -15.9214,-12.24654 0,-1.52736 0.1851,-18.45776 0.1851,-18.45776 2.4993,2.95289 5.0912,6.41489 11.3857,6.33153 4.906,-0.0926 9.9971,-3.94329 11.4782,-5.31327 1.3885,-1.41627 37.582,-39.29446 37.582,-39.29446 0,0 -16.9397,-15.72701 -28.1402,-23.21561 -5.4614,-3.63785 -12.6816,0.97193 -13.7924,5.78537 -3.425,15.05132 0,37.66526 0,37.66526 0,0 -11.0154,-11.06168 -13.6998,-13.7183 -5.554,-5.55401 -5.3689,-18.09677 1.2033,-24.69674 1.0183,-1.04601 11.108,-12.37612 23.8822,-12.37612 2.0364,0 17.5876,0 19.9017,0 13.3296,0 27.6774,13.05187 27.6774,13.05187 0,0 2.129,-2.34196 2.129,-4.60057 0,-6.84064 -0.0926,-25.05773 -0.0926,-25.05773 -9.9971,-10.03416 -11.2931,-20.36459 -6.4796,-25.18725 8.8863,-8.97894 12.2188,-12.11696 12.2188,-12.11696 0,0 -0.093,10.86729 10.2748,21.30877 z m -62.3897,100.00873 c -4.9061,5.13742 -5.7391,6.43331 -10.3674,9.18255 0.4628,0 54.3364,0 56.0952,0 15.1809,0 12.1262,-9.4325 9.4417,-14.18118 -5.5539,-9.76573 -23.2341,-27.8902 -23.2341,-27.8902 0,0 -30.9172,31.82429 -31.9354,32.88883"
         style="fill:#8e002c;fill-opacity:1;fill-rule:nonzero;stroke:none"
         id="path10697"
         inkscape:connector-curvature="0" />
      <path
         d="m 889.245,583.43582 -9.1641,0 c 0,0 9.9046,5.44291 9.9046,19.45744 0,3.70267 0,41.68264 0,44.73736 0,29.10286 23.9747,56.03041 53.1331,56.03041 4.9986,0 21.1052,0 24.4376,0 14.6254,0 19.7166,-3.54529 28.603,-11.39493 3.2398,-2.87881 7.4053,-7.59969 8.9789,-9.33071 5.0912,-5.71134 10.5526,-10.31185 10.5526,-25.29836 0,-3.67487 0,-12.62606 0,-14.67179 0,-12.65381 -7.4053,-17.92081 -10.8303,-21.44762 -2.3142,-2.26788 -8.5161,-8.22916 -8.5161,-8.22916 l 0,30.00075 c 0,0 6.1094,6.52594 8.7938,8.6735 12.6816,9.98793 2.5919,27.4089 -9.1641,27.4089 -2.3141,0 -50.2635,0 -53.5033,0 -20.5497,0 -46.3758,-17.06925 -46.3758,-46.63493 0,-3.9711 0,-21.72536 0,-24.31721 0,-24.98365 -6.8499,-24.98365 -6.8499,-24.98365"
         style="fill:#8e002c;fill-opacity:1;fill-rule:nonzero;stroke:none"
         id="path10699"
         inkscape:connector-curvature="0" />
      <path
         d="m 947.9321,637.93892 c 0,5.10967 -16.3842,18.72614 -17.3099,19.67958 -1.2034,-5.50768 -5.2763,-11.61707 -17.5876,-23.8266 l 17.9579,-17.9208 c 12.0336,12.01507 16.9396,14.56991 16.9396,22.06782"
         style="fill:#8e002c;fill-opacity:1;fill-rule:nonzero;stroke:none"
         id="path10701"
         inkscape:connector-curvature="0" />
      <path
         d="m 760.48521,837.03989 c -2.96211,0 -25.5483,-0.0185 -28.69559,-0.0185 -8.97894,0 -8.23837,-7.5442 -9.07151,-13.82945 l 0,-41.22904 c 0,0 6.29453,-0.16664 13.237,-0.16664 7.96073,0 17.95788,-1.16632 27.58477,4.30434 0,0 -6.94248,-16.65266 -27.67733,-16.65266 l -13.14444,0 c 0,0 0,-2.36971 0,-8.11811 l 0,-5.09114 c 0,0 0,-11.56152 -2.77697,-14.85687 0,0 17.58762,0.074 18.79095,0.0833 16.47685,0.009 29.15841,-0.24068 42.39541,8.43276 0,0 -2.49929,-21.65123 -34.34211,-21.65123 -18.14301,0 -59.33508,0 -61.92693,0 0,0 11.10797,9.21957 10.36745,27.92728 l 0.74052,74.90466 c 0,18.9576 7.31278,19.27236 7.31278,19.27236 0.74051,0 4.53575,0 21.19768,0 2.77698,0 6.10939,0 9.62689,0 8.88637,0 20.64229,0 30.17666,0 13.88495,0 18.69839,-9.73799 18.69839,-15.17163 l 0.18513,-7.21095 c 0,0 -4.44319,9.0715 -22.67875,9.0715"
         style="fill:#8e002c;fill-opacity:1;fill-rule:nonzero;stroke:none"
         id="path10703"
         inkscape:connector-curvature="0" />
      <path
         d="m 922.754,830.66207 0,-52.39255 c 0,-20.32759 -16.7544,-25.73343 -29.0658,-25.73343 -16.2917,0 -21.2902,13.72757 -23.3267,18.34661 -3.7027,-12.71862 -16.5694,-18.52253 -27.0294,-18.52253 -19.7166,0 -24.7152,18.83729 -24.7152,18.83729 0,0 -0.4628,-18.15227 -16.3843,-18.15227 l -15.55109,0.0277 c 0,0 8.88632,3.71194 8.88632,19.42042 l 0,58.16871 c 0,19.39267 7.77557,19.56853 7.77557,19.56853 l 25.826,0 c -0.6479,-0.17586 -9.9046,-7.17388 -9.9046,-19.71665 l 0,-51.59648 c 0.2777,-2.33264 4.2581,-10.00642 15.3661,-10.00642 6.1094,0 12.9593,6.43338 12.7741,13.81092 l 0,47.91235 c 0,19.55 7.683,19.59628 7.683,19.59628 l 25.9186,0 c 0,0 -9.9046,-6.92394 -9.9046,-19.75366 l -0.0926,-51.61502 c 0.9257,-2.87881 4.3507,-9.81202 14.1627,-9.81202 7.683,0 14.0701,6.46112 13.8849,13.84793 0,0 -0.0925,43.73759 -0.0925,47.81052 0.1851,19.63335 7.7756,19.47597 7.7756,19.47597 13.4221,0 25.826,0.0463 25.826,0.0463 0,0 -9.8121,-6.80362 -9.8121,-19.56853"
         style="fill:#8e002c;fill-opacity:1;fill-rule:nonzero;stroke:none"
         id="path10705"
         inkscape:connector-curvature="0" />
      <path
         d="m 967.7413,830.63432 c 0,12.91302 9.9046,19.59628 9.9046,19.59628 0,0 -12.3113,-0.0463 -25.826,-0.0463 0,0 -7.683,0.0833 -7.683,-19.38341 l 0,-0.0926 0.0926,-58.3631 c 0,-15.36603 -8.979,-19.30932 -8.979,-19.30932 l 15.366,0 c 5.554,0 17.0322,0 17.0322,21.71604 l 0,55.78979 0.0926,0.0926"
         style="fill:#8e002c;fill-opacity:1;fill-rule:nonzero;stroke:none"
         id="path10707"
         inkscape:connector-curvature="0" />
      <path
         d="m 1046.8855,760.38567 c 0,0 -2.4992,-7.0165 -13.1444,-7.0165 -16.1991,0 -20.1795,19.14273 -20.1795,19.14273 -1.2959,-15.10687 -5.3688,-19.59634 -16.5693,-19.59634 l -15.6437,0.009 c 0,0 9.0715,3.74895 9.0715,19.42042 l 0,58.27054 c 0,19.39267 7.6829,19.56853 7.6829,19.56853 l 25.641,0 c -0.648,-0.17586 -9.9047,-7.19242 -9.9047,-19.7444 l 0,-47.63465 c 0.648,-4.36916 2.8696,-7.69226 6.3871,-9.92312 8.4236,-5.37809 19.9944,-4.05439 26.6591,3.90629 0,0 0,-10.21008 0,-16.40277"
         style="fill:#8e002c;fill-opacity:1;fill-rule:nonzero;stroke:none"
         id="path10709"
         inkscape:connector-curvature="0" />
      <path
         d="m 1166.4813,763.92175 c 8.7938,0 15.2734,3.80445 15.2734,3.80445 l 0.093,-14.71802 -21.568,0 0,-22.23447 c 0,0 -5.5539,9.8861 -17.3099,19.31859 -7.2201,6.04458 -22.5861,13.44993 -22.5861,13.44993 l 16.2916,0.3147 0,67.58272 c 0,18.74467 7.8681,18.74467 7.8681,18.74467 14.0702,0 25.5484,0.0463 25.5484,0.0463 0,0 -9.8121,-6.68326 -9.8121,-18.97608 l 0,-67.3513 c 6.6648,0.009 2.0365,0.0185 6.202,0.0185"
         style="fill:#8e002c;fill-opacity:1;fill-rule:nonzero;stroke:none"
         id="path10711"
         inkscape:connector-curvature="0" />
      <path
         d="m 1244.6999,793.31157 c -14.533,14.98645 -25.8261,12.63528 -34.7124,23.70623 0,0 1.481,14.94949 12.6816,20.23502 3.9803,1.81427 19.9017,6.89619 30.1766,-11.07095 l 0,17.07851 c 0,0 -6.6647,7.08132 -27.6773,7.08132 -25.0855,0 -42.488,-19.82775 -42.488,-46.69974 0,-26.43698 14.1627,-50.99483 40.6366,-51.10587 26.1963,-0.17592 40.359,20.88297 21.3829,40.77548 z m -15.8289,-6.22976 c 4.2581,-7.89586 7.5905,-27.85319 -7.035,-26.75164 -16.7545,1.25889 -13.5147,46.07028 -13.5147,46.07028 5.554,-6.12793 13.9775,-7.36828 20.5497,-19.31864"
         style="fill:#8e002c;fill-opacity:1;fill-rule:nonzero;stroke:none"
         id="path10713"
         inkscape:connector-curvature="0" />
      <path
         d="m 955.7077,745.12147 c 6.6648,0 12.0336,-5.14668 12.0336,-11.64481 0,-6.51667 -5.3688,-11.8022 -12.0336,-11.8022 -6.6648,0 -11.756,5.28553 -11.756,11.8022 0,6.49813 5.0912,11.64481 11.756,11.64481"
         style="fill:#8e002c;fill-opacity:1;fill-rule:nonzero;stroke:none"
         id="path10721"
         inkscape:connector-curvature="0" />
      <path
         d="m 1301.2579,823.79368 c 0.1852,6.88692 -5.9242,15.97691 -18.9761,15.97691 -12.8667,0 -18.5133,-13.78312 -18.5133,-13.78312 l -0.092,17.38396 c 0,0 9.5343,6.87771 24.3449,6.87771 l 0,0 c 17.7728,0 35.1754,-13.27401 34.6199,-31.83361 -0.1854,-6.5907 -2.4068,-12.19099 -5.9246,-17.02292 -6.0166,-7.84963 -16.7542,-13.67207 -25.3629,-18.63362 -11.6634,-6.7296 -10.0897,-21.21621 7.0351,-19.8555 12.774,1.02747 18.143,13.36658 18.143,13.36658 l 0,-16.20837 c 0,0 -9.8121,-7.77556 -24.7152,-7.77556 -15.4586,0 -29.1584,10.21008 -28.7882,23.22488 0.2777,11.49676 4.9986,19.00388 14.4403,25.86306 3.7953,2.79551 8.2385,5.49846 13.3296,8.37727 7.5905,4.15623 10.3675,9.2659 10.46,14.04233"
         style="fill:#8e002c;fill-opacity:1;fill-rule:nonzero;stroke:none"
         id="path10723"
         inkscape:connector-curvature="0" />
      <path
         d="m 1076.9696,839.16892 c -8.0533,0 -13.6073,-4.35062 -13.6073,-13.56097 0,-21.90118 19.9018,-26.40918 25.2707,-32.90732 l -0.093,40.8958 c -0.1851,0.14811 -3.6101,5.57249 -11.5708,5.57249 z m 13.9776,-64.74092 c 0,9.49731 -8.1459,13.76463 -13.3296,16.06025 -15.366,6.72033 -34.9901,14.10715 -34.9901,36.39711 0,14.92169 10.8303,23.48409 26.0112,23.48409 11.5707,0 17.495,-6.01683 20.3646,-11.6911 1.7587,10.99687 7.2201,11.50597 7.2201,11.50597 13.4221,0 25.7334,0.0648 25.7334,0.0648 0,0 -9.9971,-6.80363 -9.9971,-19.54079 l 0,-54.59561 c 0,-13.11669 -14.5329,-23.25268 -29.8989,-23.25268 -14.8107,0 -24.1599,7.13687 -24.1599,7.13687 0,4.36911 0,16.91187 0,16.91187 0,0 5.2763,-13.43139 18.6059,-13.43139 11.1079,0 14.4404,5.44291 14.4404,10.95059"
         style="fill:#8e002c;fill-opacity:1;fill-rule:nonzero;stroke:none"
         id="path10743"
         inkscape:connector-curvature="0" />
    </g>
  </g>
</svg>
