<?xml version="1.0" encoding="UTF-8" standalone="no"?>
<!-- Generator: Adobe Illustrator 13.0.2, SVG Export Plug-In . SVG Version: 6.00 Build 14948)  -->
<svg id="Layer_1" xmlns:rdf="http://www.w3.org/1999/02/22-rdf-syntax-ns#" xmlns="http://www.w3.org/2000/svg" enable-background="new 0 0 637.662 122.727" xml:space="preserve" height="134.24" viewBox="0 0 400.00001 134.24401" width="400" version="1.1" y="0px" x="0px" xmlns:cc="http://creativecommons.org/ns#" xmlns:dc="http://purl.org/dc/elements/1.1/"><metadata id="metadata310"><rdf:RDF><cc:Work rdf:about=""><dc:format>image/svg+xml</dc:format><dc:type rdf:resource="http://purl.org/dc/dcmitype/StillImage"/><dc:title/></cc:Work></rdf:RDF></metadata><rect id="rect238" height="134.3" width="632.76" y="16.243" x="1.429" fill="none"/><rect id="rect298" height="134.3" width="632.76" y="16.243" x="1.429" fill="none"/><g id="g3638" transform="matrix(1.1893 0 0 1.1893 -1.7007 -5.6193)"><polygon id="polygon236" points="1.639 117.45 91.944 4.812 297.79 4.812 207.48 117.45" fill="#fff"/><polygon id="polygon290" points="337.77 4.725 246.87 117.6 222.54 117.6 313.44 4.725" fill="#c9cbcc"/><g fill="#e31b23"><polygon id="polygon300" points="134.44 100.35 118.96 110.03 112.04 117.59 144.66 117.59"/><path id="path302" d="m99.196 4.736c6.872 4.843 11.996 13.075 11.996 13.075l25.357 43.739 22.496 2.486s52.076-3.372 54.38-2.671c4.828 1.482 7.97 8.208 7.97 8.208l-52.515 11.64-16.121 8.559 10.537 18.751s0.794-2.794 1.46-3.231c0.668-0.445 6.306-3.947 7.363-3.657 1.053 0.28 2.756 2.296 5.431 7.379 1.425 2.7 2.578 5.729 3.485 8.579h26.506l90.844-112.86h-199.19z"/><path id="path304" d="m109.01 92.931 9.09-20.74-25.196-43.821s-5.022-9.405-5.406-18.139l-86.068 107.36h91.297c7.85-12.014 16.282-24.661 16.282-24.661"/></g></g></svg>
