<?xml version="1.0" encoding="UTF-8" standalone="no"?>
<!-- Generator: Adobe Illustrator 16.0.3, SVG Export Plug-In . SVG Version: 6.00 Build 0)  -->

<svg
   xmlns:dc="http://purl.org/dc/elements/1.1/"
   xmlns:cc="http://creativecommons.org/ns#"
   xmlns:rdf="http://www.w3.org/1999/02/22-rdf-syntax-ns#"
   xmlns:svg="http://www.w3.org/2000/svg"
   xmlns="http://www.w3.org/2000/svg"
   xmlns:sodipodi="http://sodipodi.sourceforge.net/DTD/sodipodi-0.dtd"
   xmlns:inkscape="http://www.inkscape.org/namespaces/inkscape"
   version="1.1"
   id="Ebene_1"
   x="0px"
   y="0px"
   width="400"
   height="218.586"
   viewBox="0 0 400.00002 218.586"
   enable-background="new 0 0 145.984 42.208"
   xml:space="preserve"
   inkscape:version="0.91 r13725"
   sodipodi:docname="EW.svg"><metadata
     id="metadata49"><rdf:RDF><cc:Work
         rdf:about=""><dc:format>image/svg+xml</dc:format><dc:type
           rdf:resource="http://purl.org/dc/dcmitype/StillImage" /><dc:title></dc:title></cc:Work></rdf:RDF></metadata><defs
     id="defs47" /><sodipodi:namedview
     pagecolor="#ffffff"
     bordercolor="#666666"
     borderopacity="1"
     objecttolerance="10"
     gridtolerance="10"
     guidetolerance="10"
     inkscape:pageopacity="0"
     inkscape:pageshadow="2"
     inkscape:window-width="1680"
     inkscape:window-height="998"
     id="namedview45"
     showgrid="false"
     inkscape:zoom="1.0891605"
     inkscape:cx="72.991997"
     inkscape:cy="21.104"
     inkscape:window-x="-8"
     inkscape:window-y="-8"
     inkscape:window-maximized="1"
     inkscape:current-layer="Ebene_1" /><rect
     x="3.5469999"
     y="179.91402"
     width="138.89"
     height="35.134998"
     id="rect9"
     style="fill:none" /><rect
     x="3.539"
     y="179.91402"
     width="138.89799"
     height="35.134998"
     id="rect21"
     style="fill:none" /><rect
     x="3.5469999"
     y="179.91402"
     width="138.89"
     height="35.134998"
     id="rect27"
     style="fill:none" /><g
     id="g3377"
     transform="matrix(12.415805,0,0,12.41581,-1368.4576,-43.887435)"><path
       id="path25"
       d="m 122.103,3.589 c -2.582,-0.353 -3.893,1.084 -5.701,2.405 l -6.181,4.854 -0.002,10e-4 1.19,0.629 c 0.002,0.002 0.005,0.003 0.008,0.005 1.548,0.761 3.701,0.501 5.167,-0.585 l 2.61,-2.074 0.998,-0.794 4.974,-3.952 -3.063,-0.489 z"
       inkscape:connector-curvature="0"
       style="fill:#7bcbe2" /><path
       id="path29"
       d="m 110.221,10.848 1.188,0.631 c 0.003,0.001 0.005,0.003 0.008,0.004 1.548,0.762 3.702,0.502 5.168,-0.585 l 2.609,-2.073 0.999,-0.794 -9.972,2.817 z"
       inkscape:connector-curvature="0"
       style="fill:#089bc9" /><path
       id="path31"
       d="M 132.658,6.587 129.34,5.99 c 0,0 -2.31,-0.549 -4.24,0.946 0,0 -1.425,1.06 -2.476,1.88 l -2.337,1.851 -5.406,4.3 -0.045,0.036 1.632,0.863 c 1.549,0.765 3.707,0.506 5.175,-0.582 l 4.834,-3.829 3.898,-3.07 2.283,-1.798 z"
       inkscape:connector-curvature="0"
       style="fill:#8f174f" /><path
       id="path33"
       d="m 122.625,8.816 c 1.049,-0.82 2.474,-1.88 2.474,-1.88 0.365,-0.283 0.744,-0.492 1.118,-0.646 l -6.023,1.741 -0.999,0.793 -2.608,2.074 c -1.466,1.087 -3.62,1.347 -5.168,0.585 1.32,0.791 3.37,0.973 6.458,0.052 l 2.109,-0.628 0.303,-0.24 2.336,-1.851 z"
       inkscape:connector-curvature="0"
       style="fill:#c8c4c3" /><path
       id="path35"
       d="m 131.121,10.66 c 0.995,-0.779 1.746,-1.343 2.493,-1.678 l -6.742,2.162 -0.396,0.312 -4.834,3.828 c -1.468,1.088 -3.626,1.348 -5.175,0.582 2.38,1.307 6.045,0.346 9.127,-0.75 l 0.184,-0.149 c -0.001,0 5.159,-4.174 5.343,-4.307"
       inkscape:connector-curvature="0"
       style="fill:#c8c4c3" /><path
       id="path37"
       d="m 139.049,15.003 c -2.706,-0.786 -3.518,-0.289 -6.706,0.67 l -10e-4,0 -0.266,0.221 0,-10e-4 -0.003,0.003 0.003,-0.002 -0.008,0.005 -5.138,4.074 c -1.464,1.085 -3.752,1.294 -5.3,0.536 1.91,0.996 3.885,0.752 7.264,-0.302 l 13.542,-4.157 -3.387,-1.047 z"
       inkscape:connector-curvature="0"
       style="fill:#c8c4c3" /><path
       id="path39"
       d="m 139.947,9.385 -3.582,-0.652 c -2.146,-0.398 -3.161,0.296 -5.245,1.927 -0.184,0.134 -5.343,4.307 -5.343,4.307 l -5.792,4.673 1.631,0.863 c 1.55,0.766 3.848,0.558 5.315,-0.53 l 5.138,-4.074 0.007,-0.005 -0.003,0.002 7.874,-6.511 z"
       inkscape:connector-curvature="0"
       style="fill:#8f174f" /><polygon
       id="polygon41"
       points="131.44,7.545 126.871,11.144 114.835,15.003 119.985,10.907 "
       style="fill:#b4175e" /><polygon
       id="polygon43"
       points="138.067,10.94 132.343,15.673 119.986,19.64 125.593,15.115 "
       style="fill:#b4175e" /></g></svg>