<?xml version="1.0" encoding="UTF-8" standalone="no"?>
<!-- Created with Inkscape (http://www.inkscape.org/) -->

<svg
   xmlns:dc="http://purl.org/dc/elements/1.1/"
   xmlns:cc="http://creativecommons.org/ns#"
   xmlns:rdf="http://www.w3.org/1999/02/22-rdf-syntax-ns#"
   xmlns:svg="http://www.w3.org/2000/svg"
   xmlns="http://www.w3.org/2000/svg"
   xmlns:xlink="http://www.w3.org/1999/xlink"
   xmlns:sodipodi="http://sodipodi.sourceforge.net/DTD/sodipodi-0.dtd"
   xmlns:inkscape="http://www.inkscape.org/namespaces/inkscape"
   version="1.0"
   width="400"
   height="304.57401"
   id="svg2"
   inkscape:version="0.91 r13725"
   sodipodi:docname="FI.svg">
  <metadata
     id="metadata31">
    <rdf:RDF>
      <cc:Work
         rdf:about="">
        <dc:format>image/svg+xml</dc:format>
        <dc:type
           rdf:resource="http://purl.org/dc/dcmitype/StillImage" />
        <dc:title></dc:title>
      </cc:Work>
    </rdf:RDF>
  </metadata>
  <sodipodi:namedview
     pagecolor="#ffffff"
     bordercolor="#666666"
     borderopacity="1"
     objecttolerance="10"
     gridtolerance="10"
     guidetolerance="10"
     inkscape:pageopacity="0"
     inkscape:pageshadow="2"
     inkscape:window-width="1039"
     inkscape:window-height="744"
     id="namedview29"
     showgrid="false"
     inkscape:zoom="0.46674454"
     inkscape:cx="326.51575"
     inkscape:cy="252.81496"
     inkscape:window-x="0"
     inkscape:window-y="0"
     inkscape:window-maximized="0"
     inkscape:current-layer="svg2" />
  <defs
     id="defs4">
    <linearGradient
       x1="101.241"
       y1="250.05099"
       x2="121.28"
       y2="257.48801"
       id="id1"
       gradientUnits="userSpaceOnUse">
      <stop
         style="stop-color:#632b15;stop-opacity:1"
         offset="0"
         id="stop24" />
      <stop
         style="stop-color:#632b15;stop-opacity:1"
         offset="0.0705882"
         id="stop26" />
      <stop
         style="stop-color:#7d441e;stop-opacity:1"
         offset="0.301961"
         id="stop28" />
      <stop
         style="stop-color:#8e5624;stop-opacity:1"
         offset="0.45882401"
         id="stop30" />
      <stop
         style="stop-color:#c69633;stop-opacity:1"
         offset="0.89019603"
         id="stop32" />
      <stop
         style="stop-color:#c69633;stop-opacity:1"
         offset="1"
         id="stop34" />
    </linearGradient>
    <linearGradient
       x1="101.241"
       y1="250.05099"
       x2="121.28"
       y2="257.48801"
       id="linearGradient2205"
       xlink:href="#id1"
       gradientUnits="userSpaceOnUse"
       gradientTransform="matrix(3.543307,0,0,3.543307,-722.66283,-687.5868)" />
    <linearGradient
       x1="100.614"
       y1="213.71201"
       x2="176.981"
       y2="249.077"
       id="id0"
       gradientUnits="userSpaceOnUse">
      <stop
         style="stop-color:#c38227;stop-opacity:1"
         offset="0"
         id="stop9" />
      <stop
         style="stop-color:#cb9439;stop-opacity:1"
         offset="0.2"
         id="stop11" />
      <stop
         style="stop-color:#ffe4a6;stop-opacity:1"
         offset="0.32941201"
         id="stop13" />
      <stop
         style="stop-color:#d7ab3e;stop-opacity:1"
         offset="0.431373"
         id="stop15" />
      <stop
         style="stop-color:#cd992c;stop-opacity:1"
         offset="0.65882403"
         id="stop17" />
      <stop
         style="stop-color:#c28027;stop-opacity:1"
         offset="0.98039198"
         id="stop19" />
      <stop
         style="stop-color:#c28027;stop-opacity:1"
         offset="1"
         id="stop21" />
    </linearGradient>
    <linearGradient
       x1="100.614"
       y1="213.71201"
       x2="176.981"
       y2="249.077"
       id="linearGradient2202"
       xlink:href="#id0"
       gradientUnits="userSpaceOnUse"
       gradientTransform="matrix(3.543307,0,0,3.543307,-722.66283,-687.5868)" />
    <linearGradient
       x1="101.241"
       y1="250.05099"
       x2="121.28"
       y2="257.48801"
       id="linearGradient2240"
       xlink:href="#id1"
       gradientUnits="userSpaceOnUse"
       gradientTransform="matrix(3.543307,0,0,3.543307,-722.66283,-687.5868)" />
    <linearGradient
       x1="100.614"
       y1="213.71201"
       x2="176.981"
       y2="249.077"
       id="linearGradient2242"
       xlink:href="#id0"
       gradientUnits="userSpaceOnUse"
       gradientTransform="matrix(3.543307,0,0,3.543307,-722.66283,-687.5868)" />
  </defs>
  <g
     transform="matrix(0.64782335,0,0,0.64782335,392.07765,84.662031)"
     id="layer1">
    <g
       transform="translate(17.789182,17.740071)"
       id="g2234">
      <path
         d="m -16.499459,-148.36634 c -14.311062,0.88051 -128.852711,8.13969 -128.852711,8.13969 0,0 -4.51063,-0.82985 -10.68201,6.22204 -6.17031,7.00122 -352.22916,398.84527 -352.22916,398.84527 0,0 -47.75634,51.12708 -114.33402,56.83004 l -0.41492,0.0521 473.71889,0 143.2665296,-460.86022 c 0,0 3.8377558,-10.16291 -10.4733066,-9.2289 l 7.08e-4,0 z"
         style="fill:#1e2267;fill-rule:nonzero"
         id="path38"
         inkscape:connector-curvature="0" />
      <path
         d="m -293.52229,192.44664 0.0553,0.0195 c -2.32547,5.20654 -7.1302,16.00618 -9.33343,21.02173 -3.04228,6.94737 -6.13559,14.63918 -6.13559,14.63918 0,0 -6.91476,2.62134 -20.66704,2.44807 -11.71311,-0.14351 -19.17957,-1.61823 -24.77977,-3.7676 -4.8848,-1.88929 -9.02126,-7.03382 -7.55149,-10.96299 1.04846,-2.91047 3.43275,-5.13957 6.53917,-7.11071 l 0,0 c 13.78665,-8.68004 34.39028,-14.46803 61.87287,-16.28717 l 0,0 z"
         style="fill:url(#linearGradient2240);fill-rule:evenodd"
         id="path40"
         inkscape:connector-curvature="0" />
      <path
         d="m -362.25181,217.57578 0.002,0 c 1.3259,-2.80099 4.15949,-6.82654 7.18405,-8.73886 21.42496,-13.61374 58.49398,-20.25106 113.76248,-15.18165 37.75961,3.46889 57.25098,1.64763 76.56768,-20.8552 15.76311,-18.36779 27.65551,-47.57138 27.65551,-47.57138 0,0 -5.73874,4.43055 -24.45768,7.56957 -7.80661,1.30323 -16.1713,0.8589 -22.52586,0.46701 -17.44016,-0.98469 -28.19622,-4.64953 -56.4378,-7.08626 -38.30208,-3.35941 -70.60535,7.79988 -84.96885,19.70397 -4.35048,3.62871 -8.04792,7.5352 -10.04847,11.36658 -10.37055,19.48004 -19.58138,40.65838 -24.90519,52.70421 -2.11004,4.70516 -1.8326,7.5763 -1.82764,7.62201 l 0,0 z m 263.04696,-170.522006 0.0163,0.0067 c -1.80106,5.653701 -10.71319,29.766968 -17.60669,40.834842 -9.41351,15.122484 -17.51351,22.474844 -25.31516,26.869604 -6.14232,3.48024 -14.04,6.9378 -29.49768,7.42111 -17.01885,0.51944 -27.32067,-3.1454 -46.13102,-6.12426 -25.59295,-4.03228 -50.48185,-5.56582 -77.23098,2.75989 -19.46693,6.07854 -31.16339,18.11976 -31.16339,18.11976 0,0 20.92536,-48.072758 25.23508,-56.611064 8.5089,-17.089016 35.9387,-30.021732 73.1172,-29.567834 33.47929,0.421299 48.48095,8.907165 75.94547,9.230669 39.90225,0.493228 52.015398,-12.260197 52.630871,-12.939449 z"
         style="fill:url(#linearGradient2242);fill-rule:evenodd"
         id="path42"
         inkscape:connector-curvature="0" />
      <path
         d="m -349.34,272.6742 -4.75866,10.80815 9.4833,0 -4.72464,-10.80815 z m 9.52441,21.73677 -2.44311,-5.45598 -14.25402,0 -2.47075,5.45598 -8.10035,0 10.94031,-24.34181 0.27107,-1.1576 c 0,-0.56515 -0.64028,-1.21535 -1.95307,-2.1724 -0.34618,-0.24803 -0.36284,-0.24803 -0.36284,-0.77704 l 14.27032,0 13.22185,28.44885 -9.11941,0 0,0 z m 66.69885,-22.27252 -5.18031,0 0,15.99343 5.18031,0 c 6.24508,0 8.30764,-2.74854 8.30764,-7.95685 0,-5.59488 -2.54586,-8.03658 -8.30764,-8.03658 z m 35.80654,0.53575 -4.76539,10.80815 9.47196,0 -4.70657,-10.80815 z m 56.94413,-1.12358 -8.6524,0 0,7.20709 9.09638,0 c 2.71453,0 4.36216,-1.30819 4.36216,-3.55536 0,-1.96972 -1.01409,-3.65173 -4.80614,-3.65173 z m -294.20716,22.86035 0,-29.37189 c 0,-1.44035 -0.1846,-1.73905 -0.70901,-2.36799 -0.78378,-0.80008 -1.31953,-1.2313 -1.86662,-1.6526 l -0.41492,-0.76606 11.7815,0 0,34.15854 -8.79095,0 0,0 z m 31.99784,0.99638 c -10.05839,0 -19.08142,-4.39476 -19.08142,-15.11149 0,-8.53796 6.48815,-15.4754 18.93295,-15.4754 4.8437,0 8.61307,0.93898 11.85626,2.50016 l -2.03953,6.70748 c -1.81452,-1.27382 -5.3635,-2.57563 -9.25334,-2.57563 -7.70847,0 -10.77874,4.25764 -10.77874,8.4972 0,5.87764 4.57937,8.79272 10.66429,8.79272 4.14177,0 7.47142,-1.15299 9.47055,-2.32228 l 2.17205,6.06082 c -2.52815,1.49741 -6.89492,2.92642 -11.94307,2.92642 l 0,0 z m 17.23287,-0.99638 0,-23.61508 c 0,-1.45169 -0.18461,-1.75712 -0.73807,-2.42681 -0.73665,-0.78874 -1.29508,-1.23767 -1.86024,-1.67563 l -0.41492,-0.73133 29.68229,0 0,5.89854 -18.11304,0 0,5.19697 13.38343,0 0,5.86594 -13.38343,0 0,5.46626 18.21579,0 0,6.02114 -26.77181,0 0,0 z m 33.54768,0 0,-23.61508 c 0,-1.45169 -0.19595,-1.75712 -0.7317,-2.42681 -0.73169,-0.78874 -1.30818,-1.23767 -1.85527,-1.67563 l -0.45567,-0.73133 11.63941,0 0,21.7481 13.68886,0 0,6.70075 -22.28563,0 0,0 z m 119.91118,0 -15.03142,0 0,-23.61508 c 0,-1.45169 -0.19595,-1.75712 -0.78378,-2.42681 -0.73169,-0.78874 -1.29685,-1.23767 -1.8489,-1.67563 l -0.35256,-0.73133 17.84835,0 c 10.51582,0 16.05224,5.39716 16.05224,14.21291 0,8.09397 -5.09386,14.23594 -15.88393,14.23594 l 0,0 z m 44.0798,0 -2.42504,-5.45598 -14.26536,0 -2.47748,5.45598 -8.10708,0 10.94704,-24.34181 0.27603,-1.1576 c 0,-0.56515 -0.63851,-1.21535 -1.92898,-2.1724 -0.35256,-0.24803 -0.39827,-0.24803 -0.39827,-0.77704 l 14.25898,0 13.2626,28.44885 -9.14244,0 0,0 z m 13.25622,0 0,-23.61508 c 0,-1.45169 -0.17327,-1.75712 -0.7317,-2.42681 -0.73169,-0.78874 -1.27878,-1.23767 -1.83224,-1.67563 l -0.39189,-0.73133 11.60327,0 0,28.44885 -8.64744,0 0,0 z m 38.57775,0 -6.07181,-10.20366 -6.97677,0 0,10.20366 -8.65417,0 0,-23.61508 c 0,-1.45169 -0.15024,-1.75712 -0.73134,-2.42681 -0.73843,-0.78874 -1.29685,-1.23767 -1.84394,-1.67563 l -0.45567,-0.73133 22.19917,0 c 6.30213,0 11.06788,3.07665 11.06788,8.97059 0,4.63145 -2.2702,7.18405 -6.14728,8.67507 l 6.71704,10.80319 -9.10311,0 0,0 z m -141.05338,-28.44885 -12.56067,0 0.42626,0.73133 c 0.58146,0.43796 1.13032,0.88689 1.88469,1.67563 0.56338,0.66969 0.71362,0.97512 0.71362,2.42681 l 0,23.61508 7.67409,0 0,-18.8674 0.14386,-0.13394 16.85232,19.00134 6.76418,0 0,-28.44885 -10.68201,0 0.30508,0.73133 c 0.55382,0.43796 1.13031,0.88689 1.862,1.67563 0.56339,0.66969 0.84579,0.97512 0.84579,2.42681 l 0,11.01544 -14.22921,-15.84921 0,0 z"
         style="fill:#ffffff;fill-rule:nonzero"
         id="path44"
         inkscape:connector-curvature="0" />
    </g>
  </g>
</svg>
