<?xml version="1.0" encoding="UTF-8" standalone="no"?>
<!-- Generator: Adobe Illustrator 12.0.1, SVG Export Plug-In . SVG Version: 6.00 Build 51448)  -->

<svg
   xmlns:dc="http://purl.org/dc/elements/1.1/"
   xmlns:cc="http://creativecommons.org/ns#"
   xmlns:rdf="http://www.w3.org/1999/02/22-rdf-syntax-ns#"
   xmlns:svg="http://www.w3.org/2000/svg"
   xmlns="http://www.w3.org/2000/svg"
   xmlns:sodipodi="http://sodipodi.sourceforge.net/DTD/sodipodi-0.dtd"
   xmlns:inkscape="http://www.inkscape.org/namespaces/inkscape"
   version="1.0"
   id="Ebene_1"
   width="400"
   height="115.044"
   viewBox="0 0 400.00001 115.04399"
   overflow="visible"
   enable-background="new 0 0 192.756 66.535"
   xml:space="preserve"
   inkscape:version="0.91 r13725"
   sodipodi:docname="FL.svg"
   style="overflow:visible"><metadata
     id="metadata13"><rdf:RDF><cc:Work
         rdf:about=""><dc:format>image/svg+xml</dc:format><dc:type
           rdf:resource="http://purl.org/dc/dcmitype/StillImage" /><dc:title></dc:title></cc:Work></rdf:RDF></metadata><defs
     id="defs11" /><sodipodi:namedview
     pagecolor="#ffffff"
     bordercolor="#666666"
     borderopacity="1"
     objecttolerance="10"
     gridtolerance="10"
     guidetolerance="10"
     inkscape:pageopacity="0"
     inkscape:pageshadow="2"
     inkscape:window-width="1680"
     inkscape:window-height="998"
     id="namedview9"
     showgrid="false"
     inkscape:zoom="1.6497541"
     inkscape:cx="96.377998"
     inkscape:cy="33.267502"
     inkscape:window-x="-8"
     inkscape:window-y="-8"
     inkscape:window-maximized="1"
     inkscape:current-layer="Ebene_1" /><polygon
     points="192.756,0 192.756,66.535 0,66.535 0,0 0,0 "
     id="polygon3"
     style="clip-rule:evenodd;fill:#ffffff;fill-rule:evenodd"
     transform="translate(0,48.508996)" /><path
     d="m 60.554,66.277996 c 1.012,0.828 2.761,0.368 3.865,-1.012 1.013,-1.381 1.105,-3.221 0.092,-3.958 -0.92,-0.828 -2.669,-0.276 -3.773,1.104 -1.104,1.38 -1.105,3.129 -0.184,3.866 l 0,0 0,0 z"
     id="path5"
     inkscape:connector-curvature="0"
     style="clip-rule:evenodd;fill:#e30b20;fill-rule:evenodd" /><path
     d="m 87.828715,59.753928 c -1.27539,0 -2.338217,2.125652 -2.978223,2.975913 -1.913086,3.405665 -10.205441,14.461367 -14.459056,14.461367 -1.275392,0 -1.700522,-1.275392 -1.700522,-2.763349 0,-1.487956 0.850261,-4.253614 1.275392,-5.741571 L 87.828715,9.9951814 c 0.212566,-0.6376954 0.850262,-2.5507818 0.850262,-3.4033541 0,-2.5507818 -4.891311,-1.7005216 -5.741571,-1.7005216 -5.741573,0 -5.529007,0.8502613 -7.229529,6.3792673 l -0.42513,1.490267 C 71.666827,8.0820951 67.838342,6.5941383 61.884206,6.5941383 46.147448,6.5941383 30.41069,16.589325 19.777808,27.647337 9.997497,38.067654 0,55.715189 0,70.603997 c 0,8.50723 3.828485,17.649845 13.608795,17.649845 20.415504,0 43.80692,-32.961473 53.589542,-49.121052 L 56.565454,73.58222 c -0.852571,2.975913 -1.915397,6.379267 -1.915397,9.782621 0,2.975913 1.490267,4.889001 4.678746,4.889001 6.804397,0 16.161888,-8.079789 20.628068,-12.758535 2.125652,-2.125653 9.144919,-11.270578 9.144919,-14.459056 0.002,-0.642317 -0.635378,-1.282323 -1.273075,-1.282323 z M 53.591852,52.949531 C 47.42515,60.604189 31.900957,79.106606 21.48064,79.106606 c -5.741571,0 -8.079789,-5.741573 -8.079789,-10.422629 0,-11.055701 9.144926,-28.707857 15.736758,-37.000211 7.442093,-9.570056 19.777807,-21.6908946 32.323777,-21.6908946 5.954137,0 11.270578,2.5507826 11.270578,8.9300496 -0.0023,8.08441 -14.248802,27.859908 -19.140112,34.02661 z m 65.710378,13.185975 c -0.85026,0 -1.49027,0.850261 -1.91309,1.698211 -1.49026,2.553093 -8.0821,11.698019 -11.48314,11.698019 -1.27539,0 -1.70052,-0.850261 -1.70052,-2.340528 0,-1.700522 0.63769,-3.403354 1.06283,-5.103877 l 9.7803,-31.25864 c 0.85027,-2.340527 2.34053,-7.019273 2.34053,-9.570056 0,-2.765658 -0.85257,-4.89131 -4.04104,-4.89131 -5.10388,0 -12.33341,6.379267 -15.52419,9.570056 -1.06053,1.062826 -6.37928,6.804397 -6.37928,8.50723 0,0.637695 0.21257,1.062826 0.85027,1.062826 1.70052,0 8.93236,-11.483143 13.39623,-11.483143 1.2777,0 1.49026,1.277702 1.49026,2.340528 0,1.275391 -0.85026,3.403354 -1.06282,4.46618 l -9.14493,30.195814 c -1.06282,3.190789 -2.33822,8.0821 -2.33822,11.483144 0,2.978223 0.6377,5.103875 4.04105,5.103875 5.31644,0 12.75854,-7.442093 15.94933,-11.270578 1.27539,-1.698211 5.529,-7.229528 5.529,-9.35518 -0.002,-0.427441 -0.21487,-0.852571 -0.85257,-0.852571 z m 51.67415,-39.765871 c -11.27058,0 -23.81886,26.369641 -28.70786,35.087126 l 5.529,-18.500107 c 0.85026,-2.763347 1.70053,-5.741571 1.70053,-8.93236 0,-2.763348 -0.85027,-7.654659 -4.67644,-7.654659 -4.04105,0 -10.20775,5.316442 -12.75853,8.50492 -1.49027,1.490267 -6.8044,7.654659 -6.8044,9.782621 0,0.637695 0.42513,0.850261 1.06283,0.850261 0.63769,0 1.49026,-1.275392 1.91539,-1.913087 l 1.06283,-1.700522 c 1.70052,-2.125652 6.80439,-8.719795 9.78262,-8.719795 1.27539,0 1.70052,1.700522 1.70052,2.765658 0,2.340528 -1.06282,5.316442 -1.70052,7.654659 l -11.48314,37.212777 c 0,0.427441 -0.85026,2.978224 -0.85026,3.615919 0,1.913087 2.55078,1.700523 3.6136,1.700523 5.31644,0 4.89131,-1.065138 6.37928,-5.741573 2.34052,-8.507229 10.63288,-24.454242 15.52419,-32.1089 1.27538,-2.340528 9.35748,-14.036237 12.75853,-14.036237 3.61361,0 0,6.379267 6.37927,6.379267 4.04105,0 6.16669,-4.041049 6.16669,-7.654658 -0.002,-4.04105 -2.76565,-6.591833 -6.59413,-6.591833 z m 37.00252,45.717696 0,-66.7708946 7.01696,0 c 14.45905,0 18.07498,2.340528 20.84064,16.7995836 l 3.19078,0 -0.85026,-22.1160250964356 -73.57992,0 L 163.74685,22.11602 l 3.18847,0 C 169.91354,7.8672193 173.3146,5.3164364 187.77596,5.3164364 l 7.01927,0 0,65.2852496 c 0,9.570056 -0.42513,12.545969 -12.3334,13.183665 l 0,2.340528 38.06535,0 0,-2.340528 C 209.46455,83.36022 207.9789,80.807127 207.9789,72.087331 Z m 52.09696,-45.932572 c -4.89131,0 -9.35749,2.763348 -15.52419,11.908274 l -0.21257,0 0,-11.483143 -0.63769,-0.425131 c -6.37927,2.550783 -12.75623,4.891311 -19.1378,7.016964 l 0,2.127962 c 1.06282,-0.427441 2.55078,-0.637696 4.46617,-0.637696 1.9154,0 4.46619,0.212566 4.46619,7.867225 l 0,32.748907 c 0,7.229528 -2.12566,7.654658 -9.14262,8.930049 l 0,1.915399 31.04838,0 0,-1.915399 c -6.59413,-0.212565 -11.05801,-0.84795 -11.05801,-9.780311 l 0,-29.345553 c 0,-4.041049 5.74157,-10.632882 8.93006,-10.632882 3.19079,0 4.46617,4.466181 8.93004,4.466181 3.19079,0 4.89132,-2.340528 4.89132,-5.529007 0,-4.46618 -2.5531,-7.231839 -7.01928,-7.231839 z m 61.88421,54.864933 0,-3.403354 c -1.49027,1.062826 -3.19079,2.338218 -5.95414,2.338218 -3.82849,0 -3.82849,-3.613609 -3.82849,-7.442094 l 0,-25.517068 c 0,-7.867225 0,-20.840635 -19.35036,-20.840635 -15.09906,0 -21.0532,9.144926 -21.0532,14.461367 0,2.125652 1.49026,5.741571 5.53132,5.741571 3.40335,0 5.95413,-2.763347 5.95413,-5.529006 0,-1.277701 -0.63769,-3.190788 -0.63769,-5.103876 0,-4.041049 4.89131,-6.381577 9.14492,-6.381577 3.82618,0 9.99288,1.277702 9.99288,10.845448 l 0,7.867224 c -21.26345,8.292354 -32.7489,12.760844 -32.7489,25.944509 0,8.717484 6.80439,13.396229 13.82135,13.396229 7.23184,0 14.03624,-5.103875 18.92524,-9.35749 0.6377,9.35749 6.16671,9.35749 8.50723,9.35749 2.12565,0.0023 6.16439,0.0023 11.69571,-6.376956 z M 301.75482,70.174245 c 0,3.828485 -0.42513,5.531316 -4.46618,7.444404 -1.27539,0.637695 -5.31644,2.338217 -8.07979,2.338217 -4.89131,0 -8.71749,-4.038739 -8.71749,-10.205442 l 0,-0.214874 c 0,-4.466181 1.48797,-11.905963 21.26346,-18.287541 l 0,18.925236 z m 72.94221,5.316441 0,-29.770684 c 0,-15.949324 -9.14492,-19.565243 -15.09674,-19.565243 -7.86953,0 -12.76085,4.678746 -19.14012,10.632882 l 0,-10.207751 -0.85026,-0.425131 c -5.95413,2.340529 -12.12084,4.253616 -18.07497,5.954137 l 0,2.127963 c 0.63769,-0.212565 2.12796,-0.42513 3.82848,-0.42513 2.12565,0 4.67644,0.212565 4.67644,8.292354 l 0,32.323776 c 0,7.654659 -2.12566,9.357492 -8.07979,9.780311 l 0,1.915399 27.43016,0 0,-1.915399 c -6.80209,-0.425129 -8.50493,-2.550782 -8.50493,-6.802087 l 0,-36.577392 c 4.889,-4.89131 8.93006,-7.444404 12.75623,-7.444404 7.86722,0 10.20775,4.678746 10.20775,12.54597 l 0,27.217591 c 0,9.995186 -3.40335,10.635193 -8.29235,11.058012 l 0,1.915398 27.00502,0 0,-1.915398 c -6.37696,-0.633074 -7.86492,-2.548472 -7.86492,-8.715174 z m -163.52966,27.007334 -4.67873,12.3334 2.76334,0 1.06282,-2.76335 4.67875,0 0.85026,2.76335 2.76335,0 -4.46618,-12.3334 -2.97361,0 z m -0.21256,7.44209 1.70052,-4.46618 1.49027,4.46618 -3.19079,0 z m 23.81654,4.89131 2.76336,0 0,-12.3334 -2.76336,0 0,12.3334 z m 28.28042,-5.95413 c 1.49027,-0.42514 2.12797,-1.70052 2.12797,-2.97591 0,-1.9154 -1.48795,-3.40336 -3.82617,-3.40336 l -6.59415,0 0,12.3334 2.76335,0 0,-4.89131 2.76334,0 c 1.27771,0 1.70053,0.63769 1.91309,1.9154 0.21488,1.06282 0.21488,2.12565 0.42744,2.97591 l 2.76335,0 c -0.42513,-0.63769 -0.42513,-2.12796 -0.42513,-2.97591 -0.20794,-1.27771 -0.42282,-2.55309 -1.91309,-2.97822 z m -2.54847,-0.85027 -2.97822,0 0,-3.6136 2.97822,0 c 1.2754,0 1.91309,0.63538 1.91309,1.91309 0,1.06282 -0.63769,1.70051 -1.91309,1.70051 z m 32.32147,2.97822 -2.12796,-8.50722 -2.55079,0 -2.12565,8.29235 -0.21256,0 -1.91309,-8.29235 -2.76335,0 3.40336,12.3334 2.76335,0 1.91308,-8.50723 0.21257,0 1.91308,8.50723 2.76335,0 3.40336,-12.3334 -2.76335,0 -1.9154,8.50722 z m 23.81655,-8.50722 -4.67644,12.3334 2.76566,0 1.06283,-2.76335 4.67643,0 0.85026,2.76335 2.76335,0 -4.46618,-12.3334 -2.97591,0 z m -0.21257,7.44209 1.70053,-4.46618 1.49026,4.46618 -3.19079,0 z m 27.00964,-2.55078 -2.76565,-4.889 -3.18848,0 4.67644,7.44209 0,4.89131 2.76334,0 0,-4.89131 4.46619,-7.44209 -2.97592,0 -2.97592,4.889 z m 27.85529,0.21026 c -2.97591,-0.85026 -3.6136,-1.06283 -3.6136,-1.91309 0,-1.06283 1.06282,-1.48796 1.91077,-1.48796 1.2777,0 2.34284,0.42513 2.34284,1.91309 l 2.76334,0 c 0,-2.97822 -2.34053,-4.04105 -4.89131,-4.04105 -2.34052,0 -4.67642,1.2777 -4.67642,3.82849 0,2.3382 1.70051,2.97591 3.6136,3.40104 1.91309,0.63769 3.6136,0.85025 3.6136,2.12796 0,1.27539 -1.27538,1.49026 -2.34051,1.49026 -1.48796,0 -2.76335,-0.63769 -2.76335,-2.34053 l -2.55078,0 c 0,3.1908 2.55078,4.46619 5.31644,4.46619 3.19078,0 5.10387,-1.70053 5.10387,-3.82617 -0.002,-2.97823 -2.76567,-3.40336 -3.82849,-3.61823 z m 25.30451,-27.645034 c 0,-1.275392 -0.63538,-1.913088 -2.12566,-1.913088 l -2.76334,0 0,7.016963 0.84794,0 0,-3.188478 1.49028,0 1.9154,3.188478 1.06282,0 -2.12797,-3.188478 c 1.06515,-0.212565 1.70053,-0.637695 1.70053,-1.915397 z m -2.76335,1.277702 -1.27771,0 0,-2.550783 1.70053,0 c 0.85026,0 1.49026,0.212565 1.49026,1.275391 0,1.275392 -0.85026,1.275392 -1.91308,1.275392 z m 0,-5.741572 c -3.40336,0 -5.95414,2.550782 -5.95414,5.954137 0,3.403354 2.55078,6.166701 5.95414,6.166701 3.61361,0 6.1667,-2.763347 6.1667,-6.166701 0,-3.403355 -2.55309,-5.954137 -6.1667,-5.954137 z m 0,11.272888 c -2.76335,0 -5.10156,-2.340528 -5.10156,-5.318751 0,-2.763348 2.33821,-5.103876 5.10156,-5.103876 2.97822,0 5.10388,2.340528 5.10388,5.103876 0,2.978223 -2.12566,5.318751 -5.10388,5.318751 z"
     id="path7"
     inkscape:connector-curvature="0"
     style="clip-rule:evenodd;fill:#005d9c;fill-rule:evenodd" /></svg>