<?xml version="1.0" encoding="UTF-8" standalone="no"?>
<svg
   xmlns:dc="http://purl.org/dc/elements/1.1/"
   xmlns:cc="http://creativecommons.org/ns#"
   xmlns:rdf="http://www.w3.org/1999/02/22-rdf-syntax-ns#"
   xmlns:svg="http://www.w3.org/2000/svg"
   xmlns="http://www.w3.org/2000/svg"
   xmlns:sodipodi="http://sodipodi.sourceforge.net/DTD/sodipodi-0.dtd"
   xmlns:inkscape="http://www.inkscape.org/namespaces/inkscape"
   width="400"
   height="509.58099"
   viewBox="0 0 320 407.66478"
   version="1.1"
   id="svg2985"
   inkscape:version="0.91 r13725"
   sodipodi:docname="Ryanair.svg">
  <metadata
     id="metadata3021">
    <rdf:RDF>
      <cc:Work
         rdf:about="">
        <dc:format>image/svg+xml</dc:format>
        <dc:type
           rdf:resource="http://purl.org/dc/dcmitype/StillImage" />
        <dc:title></dc:title>
      </cc:Work>
    </rdf:RDF>
  </metadata>
  <defs
     id="defs3019" />
  <sodipodi:namedview
     pagecolor="#ffffff"
     bordercolor="#666666"
     borderopacity="1"
     objecttolerance="10"
     gridtolerance="10"
     guidetolerance="10"
     inkscape:pageopacity="0"
     inkscape:pageshadow="2"
     inkscape:window-width="1680"
     inkscape:window-height="998"
     id="namedview3017"
     showgrid="false"
     inkscape:zoom="0.74200296"
     inkscape:cx="-43.936006"
     inkscape:cy="295.00936"
     inkscape:window-x="-8"
     inkscape:window-y="-8"
     inkscape:window-maximized="1"
     inkscape:current-layer="svg2985"
     units="px" />
  <g
     id="g4358"
     transform="matrix(0.10514365,0,0,0.10514365,17.768963,388.76292)" />
  <g
     inkscape:groupmode="layer"
     id="layer1"
     inkscape:label="Layer 1">
    <path
       inkscape:connector-curvature="0"
       style="fill:#22356b"
       d="m 0,-0.84983211 320.4875,0 0,408.51465211 -320.4875,0 0,-408.51465211 z"
       id="path2987" />
    <g
       id="g3350"
       transform="matrix(1.2756943,0,0,1.2756944,170.66456,206.86806)">
      <path
         style="fill:#fcc210;fill-opacity:1;stroke:none"
         d="m 107.93643,-151.57991 -2.66166,1.59661 -11.268285,8.23599 c 0,0 -9.771424,6.51428 -26.6,7.6 -16.828566,1.08571 -59.7142835,-4.88572 -59.7142835,-4.88572 0,0 -23.8857165,-3.25713 -48.3142855,1.62858 -24.428576,4.88572 -22.257142,19.54285 -22.800003,21.71429 -0.542853,2.17143 -15.58386,30.208069 -18.841,33.465209 -3.257148,3.25714 -1.244712,-16.093781 -1.244712,-16.093781 0,0 -1.880712,-16.318648 -16.285702,-14.114298 -12.446599,1.90467 -23.885719,5.42858 -23.885719,5.42858 0,0 -3.8,4.88572 -2.17144,8.685718 1.62859,3.800001 3.25716,4.342851 3.25716,4.342851 l -0.54288,16.318644 c 0.76772,3.26279 4.34288,9.195638 4.34288,9.195638 l 9.22856,-1.085712 c 0,0 6.1119,6.365151 3.92607,9.102504 -4.63359,5.802727 -12.61179,22.926069 -12.61179,22.926069 0,0 -1.31056,7.726065 0.86087,12.068933 2.17143,4.342849 4.1067,15.91782 10.8242,25.8981397 3.45473,4.798222 35.000651,41.2900693 37.71493,44.5472103 2.714287,3.257141 68.40000298,36.914292 68.40000298,36.914292 0,0 19.24648702,9.376263 45.05714202,37.457133 13.828618,15.04495 27.170142,30.26828 27.170142,30.26828 0,0 7.545442,4.93559 4.858434,-3.12541 C 71.206485,130.22412 45.149344,93.309838 45.149344,93.309838 L 24.520778,68.881262 c 0,0 -11.4,-12.485717 -25.51429352,-15.2 C -10.529701,51.847372 -21.079223,37.938404 -21.079223,37.938404 L -40.622084,16.766979 c 0,0 -6.514288,-20.0857173 -23.342856,-24.971434 -7.261298,-2.108116 -8.268929,-7.057142 -8.268929,-7.057142 0,0 0.66893,-24.971425 2.840356,-34.742858 2.171426,-9.77143 17.371427,-33.11428 35.285715,-38.542853 17.914283,-5.428573 43.428575,-3.799999 43.428575,-3.799999 0,0 41.257142,-0.542849 68.4,-19.542853 27.142853,-19 32.856493,-30.16949 32.856493,-30.16949 0,0 4.66651,-13.96659 -2.64084,-9.52026 z"
         id="path3042"
         inkscape:connector-curvature="0"
         sodipodi:nodetypes="cccscssscscsccccscscscscsccsccscsscscc" />
      <path
         style="fill:#fcc210;fill-opacity:1;stroke:none"
         d="m -12.660756,-73.819509 c 0,0 -7.67717,47.679204 -6.46498,74.9533239 0.68269,15.3604001 -7.06364,15.6435401 -9.49544,3.63654 -3.23248,-15.9604099 -5.0615,-68.1589839 -2.62639,-79.3979839 2.62639,-12.121828 18.99087,-19.394924 18.58681,0.80812 z"
         id="path3812"
         inkscape:connector-curvature="0"
         sodipodi:nodetypes="csssc" />
      <path
         style="fill:#fcc210;fill-opacity:1;stroke:none"
         d="m 0.87528362,-69.576869 c 0,0 -6.26294002,40.002044 -4.64670002,69.90256386 1.61624,29.90051014 4.84873,36.97157014 5.85888,39.59797014 1.01016,2.6264 6.66701,7.47513 6.86904,-3.43452 0.20203,-10.90965 4.6467004,-54.14417 9.2934004,-81.21626 4.6467,-27.07209 3.23249,-26.26397 3.23249,-34.345186 0,-8.08122 -16.0952104,-16.296372 -18.9908604,-1.81828 -0.80813,4.040608 -1.61624998,11.313712 -1.61624998,11.313712 z"
         id="path3814"
         inkscape:connector-curvature="0"
         sodipodi:nodetypes="cssssssc" />
      <path
         style="fill:#fcc210;fill-opacity:1;stroke:none"
         d="m 39.261084,-87.153521 -0.80813,2.222336 c 0,0 -3.63654,18.18274 -4.84873,25.8599 -1.21218,7.67716 -12.12183,65.4578899 -4.6467,104.44978 2.22234,15.55635 3.83858,21.2132 3.83858,21.2132 0,0 8.08122,15.15228 8.68732,-0.80812 0.60608,-15.96041 -3.03047,-39.39596 6.06091,-82.02439 9.09137,-42.62844 11.51573,-58.588846 11.51573,-65.659914 0,-7.071064 -6.86903,-21.415231 -19.79898,-5.252792 z"
         id="path3816"
         inkscape:connector-curvature="0"
         sodipodi:nodetypes="ccsccsssc" />
      <path
         style="fill:#fcc210;fill-opacity:1;stroke:none"
         d="m 76.838754,-97.861137 c 4.24264,-7.071063 18.78884,-12.525893 21.01118,2.6264 2.222326,15.152284 -15.33951,86.0674819 -16.16245,90.9137219 -1.81827,10.70762 -13.20461,75.3251501 -10.30355,106.8741351 0.60609,17.37462 -8.88934,6.26295 -9.8995,-0.60609 -1.61624,-5.656855 -5.65685,-57.578695 -1.01015,-90.509665 4.6467,-32.93097 9.8995,-61.21524 10.50558,-65.45788 0.6061,-4.24264 2.22234,-21.617266 2.22234,-28.28427 0,-6.667008 3.63655,-15.556352 3.63655,-15.556352 z"
         id="path3818"
         inkscape:connector-curvature="0"
         sodipodi:nodetypes="cssccsssc" />
    </g>
  </g>
</svg>
