<?xml version="1.0" encoding="UTF-8" standalone="no"?>
<!-- Generator: Adobe Illustrator 15.0.0, SVG Export Plug-In . SVG Version: 6.00 Build 0)  -->

<svg
   xmlns:dc="http://purl.org/dc/elements/1.1/"
   xmlns:cc="http://creativecommons.org/ns#"
   xmlns:rdf="http://www.w3.org/1999/02/22-rdf-syntax-ns#"
   xmlns:svg="http://www.w3.org/2000/svg"
   xmlns="http://www.w3.org/2000/svg"
   xmlns:sodipodi="http://sodipodi.sourceforge.net/DTD/sodipodi-0.dtd"
   xmlns:inkscape="http://www.inkscape.org/namespaces/inkscape"
   version="1.1"
   id="Layer_2"
   x="0px"
   y="0px"
   width="400"
   height="313.828"
   viewBox="0 0 400 313.828"
   enable-background="new 0 0 349.31 53.047"
   xml:space="preserve"
   inkscape:version="0.91 r13725"
   sodipodi:docname="FV.svg"><metadata
     id="metadata27"><rdf:RDF><cc:Work
         rdf:about=""><dc:format>image/svg+xml</dc:format><dc:type
           rdf:resource="http://purl.org/dc/dcmitype/StillImage" /><dc:title></dc:title></cc:Work></rdf:RDF></metadata><defs
     id="defs25" /><sodipodi:namedview
     pagecolor="#ffffff"
     bordercolor="#666666"
     borderopacity="1"
     objecttolerance="10"
     gridtolerance="10"
     guidetolerance="10"
     inkscape:pageopacity="0"
     inkscape:pageshadow="2"
     inkscape:window-width="1680"
     inkscape:window-height="998"
     id="namedview23"
     showgrid="false"
     inkscape:zoom="0.91036616"
     inkscape:cx="174.655"
     inkscape:cy="26.5235"
     inkscape:window-x="-8"
     inkscape:window-y="-8"
     inkscape:window-maximized="1"
     inkscape:current-layer="g5" /><g
     id="g3"
     transform="translate(0,260.781)"><g
       id="g5"><path
         d="m 257.82867,-92.222309 c 75.34092,-2.658026 121.09998,-34.602571 121.09998,-72.176581 0,-40.06931 -49.86363,-72.54426 -134.79394,-72.54426 l -12.19317,0 24.9951,-23.83785 -37.13403,0.13863 -61.27326,23.69922 -97.581561,0 c -34.283131,0 -53.3293154,8.40202 -60.947789,24.79018 l 200.56355,0 c 55.30626,0 92.47043,8.38394 92.47043,46.52451 0,41.09394 -44.68621,49.10419 -92.47043,49.10419 l -90.0776,0 79.87343,85.737946 C 257.94922,40.407814 321.326,53.047003 400,53.047003 L 257.82867,-92.222309 Z"
         id="path7"
         inkscape:connector-curvature="0"
         style="fill:#dd052b" /></g></g></svg>