<?xml version="1.0" encoding="UTF-8" standalone="no"?>
<svg
   xmlns:dc="http://purl.org/dc/elements/1.1/"
   xmlns:cc="http://creativecommons.org/ns#"
   xmlns:rdf="http://www.w3.org/1999/02/22-rdf-syntax-ns#"
   xmlns:svg="http://www.w3.org/2000/svg"
   xmlns="http://www.w3.org/2000/svg"
   xmlns:sodipodi="http://sodipodi.sourceforge.net/DTD/sodipodi-0.dtd"
   xmlns:inkscape="http://www.inkscape.org/namespaces/inkscape"
   width="400"
   height="163.864"
   viewBox="0 0 319.99997 131.0912"
   version="1.1"
   id="svg2"
   inkscape:version="0.91 r13725"
   sodipodi:docname="G3.svg">
  <metadata
     id="metadata1700">
    <rdf:RDF>
      <cc:Work
         rdf:about="">
        <dc:format>image/svg+xml</dc:format>
        <dc:type
           rdf:resource="http://purl.org/dc/dcmitype/StillImage" />
        <dc:title></dc:title>
      </cc:Work>
    </rdf:RDF>
  </metadata>
  <sodipodi:namedview
     pagecolor="#ffffff"
     bordercolor="#666666"
     borderopacity="1"
     objecttolerance="10"
     gridtolerance="10"
     guidetolerance="10"
     inkscape:pageopacity="0"
     inkscape:pageshadow="2"
     inkscape:window-width="1680"
     inkscape:window-height="998"
     id="namedview1698"
     showgrid="false"
     units="px"
     fit-margin-top="1"
     fit-margin-left="1"
     fit-margin-right="1"
     fit-margin-bottom="1"
     inkscape:zoom="2.0031405"
     inkscape:cx="122.84655"
     inkscape:cy="91.527083"
     inkscape:window-x="-8"
     inkscape:window-y="-8"
     inkscape:window-maximized="1"
     inkscape:current-layer="g6452" />
  <defs
     id="defs4" />
  <g
     id="g6452"
     transform="matrix(1.290341,0,0,1.290341,-41.695591,-103.79985)">
    <g
       id="g3360"
       transform="matrix(1.612907,0,0,1.612907,-20.805221,-80.25473)">
      <path
         style="clip-rule:nonzero;fill:#eb7302;fill-opacity:1;fill-rule:nonzero;stroke:none"
         d="m 111.76953,162.62109 c 17.39453,0 31.49219,-14.10156 31.49219,-31.49218 0,-17.39453 -14.09766,-31.496097 -31.49219,-31.496097 -14.820311,0 -27.246092,10.234377 -30.601561,24.019527 -0.164063,0.67969 -0.773438,1.15625 -1.472656,1.15625 l -13.816407,0 c -0.839843,0 -1.515625,0.67969 -1.515625,1.51563 l 0,9.53906 c 0,0.83594 0.675782,1.51563 1.515625,1.51563 l 9.582032,0 c 0.835937,0 1.515625,0.67578 1.515625,1.51562 l 0,5.73828 c 0,0.45313 -0.203125,0.88281 -0.554688,1.17188 -3.269531,2.67187 -7.441406,4.28125 -11.992187,4.28125 -10.46875,0 -18.957032,-8.48828 -18.957032,-18.95703 0,-10.46875 8.488282,-18.95703 18.957032,-18.95703 2.96875,0 5.777343,0.68359 8.28125,1.90234 0.707031,0.34375 1.558593,0.0898 1.964843,-0.58984 l 4.867188,-8.19141 c 0.214844,-0.35938 0.269531,-0.78906 0.15625,-1.19141 -0.117188,-0.40234 -0.390625,-0.73828 -0.761719,-0.92968 -4.339844,-2.25782 -9.273437,-3.539067 -14.507812,-3.539067 -17.394532,0 -31.496094,14.101567 -31.496094,31.496097 0,17.39062 14.101562,31.49218 31.496094,31.49218 8.859375,0 16.859375,-3.65625 22.582031,-9.54297 0.285156,-0.29296 0.675781,-0.46093 1.085937,-0.46093 0.410157,0 0.800782,0.16797 1.085938,0.46093 5.726562,5.88672 13.726566,9.54297 22.585936,9.54297 m 0,-12.53515 c -10.46875,0 -18.95703,-8.48828 -18.95703,-18.95703 0,-10.46875 8.48828,-18.95703 18.95703,-18.95703 10.46875,0 18.95313,8.48828 18.95313,18.95703 0,10.46875 -8.48438,18.95703 -18.95313,18.95703"
         id="path648"
         inkscape:connector-curvature="0" />
      <path
         style="clip-rule:nonzero;fill:#b0b0b3;fill-opacity:1;fill-rule:nonzero;stroke:none"
         d="m 163.77734,125.06641 c -2.82812,-14.49219 -15.58984,-25.433597 -30.91015,-25.433597 -3.70313,0 -7.25,0.640627 -10.55078,1.812497 6.07031,2.16016 11.28515,6.125 14.98828,11.25391 8.32812,2 14.51953,9.48828 14.51953,18.42969 0,10.46875 -8.48828,18.95703 -18.95703,18.95703 -10.46875,0 -18.95703,-8.48828 -18.95703,-18.95703 0,-6.5625 3.33593,-12.34766 8.40234,-15.75 -3.01172,-2.02344 -6.64062,-3.20703 -10.54297,-3.20703 -1.53125,0 -3.01562,0.18359 -4.4414,0.52343 -3.7461,5.1836 -5.95704,11.55078 -5.95704,18.4336 0,17.39062 14.10157,31.49218 31.4961,31.49218 15.32031,0 28.08203,-10.9375 30.91015,-25.43359 l 0,-12.12109"
         id="path650"
         inkscape:connector-curvature="0" />
      <path
         style="clip-rule:nonzero;fill:#eb7302;fill-opacity:1;fill-rule:nonzero;stroke:none"
         d="m 165.85547,149.29297 c -0.83594,0 -1.51172,-0.67578 -1.51172,-1.51563 l 0,-45.64453 c 0,-0.83593 -0.67969,-1.51562 -1.51563,-1.51562 l -9.50781,0 c -0.83984,0 -1.51562,0.67969 -1.51562,1.51562 l 0,58.1836 c 0,0.83593 0.67578,1.51562 1.51562,1.51562 l 31.85938,0 c 0.83593,0 1.51172,-0.67969 1.51172,-1.51562 l 0,-9.50782 c 0,-0.83593 -0.67579,-1.51562 -1.51172,-1.51562 l -19.32422,0"
         id="path652"
         inkscape:connector-curvature="0" />
    </g>
  </g>
</svg>
