<?xml version="1.0" encoding="UTF-8" standalone="no"?>
<!-- Created with Inkscape (http://www.inkscape.org/) -->

<svg
   xmlns:dc="http://purl.org/dc/elements/1.1/"
   xmlns:cc="http://creativecommons.org/ns#"
   xmlns:rdf="http://www.w3.org/1999/02/22-rdf-syntax-ns#"
   xmlns:svg="http://www.w3.org/2000/svg"
   xmlns="http://www.w3.org/2000/svg"
   xmlns:sodipodi="http://sodipodi.sourceforge.net/DTD/sodipodi-0.dtd"
   xmlns:inkscape="http://www.inkscape.org/namespaces/inkscape"
   version="1.1"
   width="400"
   height="187.687"
   id="svg6929"
   inkscape:version="0.91 r13725"
   sodipodi:docname="GA.svg">
  <sodipodi:namedview
     pagecolor="#ffffff"
     bordercolor="#666666"
     borderopacity="1"
     objecttolerance="10"
     gridtolerance="10"
     guidetolerance="10"
     inkscape:pageopacity="0"
     inkscape:pageshadow="2"
     inkscape:window-width="1680"
     inkscape:window-height="998"
     id="namedview49"
     showgrid="false"
     inkscape:zoom="0.35613756"
     inkscape:cx="446.4567"
     inkscape:cy="85.039368"
     inkscape:window-x="-8"
     inkscape:window-y="-8"
     inkscape:window-maximized="1"
     inkscape:current-layer="g7026" />
  <defs
     id="defs6931" />
  <metadata
     id="metadata6934">
    <rdf:RDF>
      <cc:Work
         rdf:about="">
        <dc:format>image/svg+xml</dc:format>
        <dc:type
           rdf:resource="http://purl.org/dc/dcmitype/StillImage" />
        <dc:title></dc:title>
      </cc:Work>
    </rdf:RDF>
  </metadata>
  <g
     transform="translate(50.3555,-353.27321)"
     id="layer1">
    <g
       transform="matrix(4.7516453,0,0,4.7516453,-418.46656,-512.42052)"
       id="g7026">
      <g
         id="g3377"
         transform="matrix(1.6478877,0,0,1.6478868,-274.4474,-125.34293)">
        <g
           id="g6656"
           transform="matrix(1.25,0,0,-1.25,233.92792,200.90898)">
          <path
             style="fill:#358e9d;fill-opacity:1;fill-rule:nonzero;stroke:none"
             id="path6658"
             d="m 0,0 c -2.991,1.565 -5.479,1.681 -6.637,1.681 l -4.04,0 -0.217,0.383 4.751,0 c 0.327,0 4.267,0.056 6.589,-0.565 2.901,-0.774 4.905,-2.297 5.298,-2.555 0.391,-0.254 5.682,-4.042 5.682,-4.042 0,0 -0.889,-0.91 -1.758,-0.91 -0.823,0 -1.71,0.635 -1.71,0.635 0,0 -2.835,2.041 -3.267,2.343 C 4.258,-2.729 2.024,-1.058 0,0"
             inkscape:connector-curvature="0" />
        </g>
        <g
           id="g6660"
           transform="matrix(1.25,0,0,-1.25,233.65392,204.63873)">
          <path
             style="fill:#358e9d;fill-opacity:1;fill-rule:nonzero;stroke:none"
             id="path6662"
             d="m 0,0 c 2.001,-1.329 3.18,-2.297 3.564,-2.576 0.383,-0.278 2.161,-1.55 2.161,-1.55 0,0 0.816,-0.636 1.82,-0.636 0.761,0 1.696,0.882 1.696,0.882 0,0 -4.247,2.996 -4.633,3.265 C 4.221,-0.342 2.861,0.73 0.32,1.399 -1.805,1.958 -4.824,1.942 -5.022,1.942 l -3.865,0 0.226,-0.392 c 0,0 2.917,-0.005 3.135,-0.005 C -5.06,1.545 -2.104,1.399 0,0"
             inkscape:connector-curvature="0" />
        </g>
        <g
           id="g6664"
           transform="matrix(1.25,0,0,-1.25,234.46967,196.99024)">
          <path
             style="fill:#358e9d;fill-opacity:1;fill-rule:nonzero;stroke:none"
             id="path6666"
             d="m 0,0 c 2.576,-1.385 5.126,-3.294 5.6,-3.641 0.476,-0.346 4.349,-3.118 4.349,-3.118 0,0 0.905,-0.611 1.735,-0.611 0.808,0 1.723,0.894 1.723,0.894 0,0 -6.182,4.449 -6.737,4.841 C 6.115,-1.242 3.89,0.58 0.313,1.432 -2.485,2.14 -7.153,2.057 -7.476,2.057 l -5.656,0 0.226,-0.392 4.939,0 C -6.944,1.665 -2.999,1.612 0,0"
             inkscape:connector-curvature="0" />
        </g>
        <g
           id="g6668"
           transform="matrix(1.25,0,0,-1.25,262.47705,196.9151)">
          <path
             style="fill:#202d5c;fill-opacity:1;fill-rule:nonzero;stroke:none"
             id="path6670"
             d="M 0,0 C -0.763,0.136 -1.763,0.195 -1.763,0.195 L -3.13,-0.196 -3.912,0.457 c 0,0 1.629,-0.129 2.085,-0.196 0.391,0 0.262,0.196 0.064,0.589 -0.193,0.391 -0.649,0.391 -0.649,0.391 l -4.109,0 c 0,0 -0.733,-0.005 -1.58,0.192 -0.846,0.196 -1.182,0.832 -1.182,0.832 -0.329,-0.754 0.978,-1.634 0.978,-1.634 l 4.066,-2.918 c 0.522,-0.327 0.979,-0.065 0.979,-0.065 0,0 1.043,0.522 1.629,0.653 0.522,0.13 2.151,0.196 2.346,0.13 C 1.172,-1.634 1.694,-2.092 1.694,-2.092 1.956,-0.261 0.78,-0.141 0,0"
             inkscape:connector-curvature="0" />
        </g>
        <g
           id="g6672"
           transform="matrix(1.25,0,0,-1.25,235.47805,189.36059)">
          <path
             style="fill:#202d5c;fill-opacity:1;fill-rule:nonzero;stroke:none"
             id="path6674"
             d="m 0,0 c 2.832,-1.247 6.886,-4.273 7.477,-4.705 0.595,-0.432 6.432,-4.612 6.432,-4.612 0,0 0.915,-0.654 1.763,-0.654 0.847,0 1.688,0.856 1.688,0.856 l 0,10e-4 c 0,0 -8.251,5.93 -8.847,6.354 -0.594,0.427 -3.333,2.732 -8.421,4.073 -3.482,0.918 -9.469,0.878 -10.16,0.878 l -7.469,0 0.23,-0.397 6.846,0 C -8.733,1.794 -3.75,1.649 0,0"
             inkscape:connector-curvature="0" />
        </g>
        <g
           id="g6676"
           transform="matrix(1.25,0,0,-1.25,234.93568,193.16409)">
          <path
             style="fill:#202d5c;fill-opacity:1;fill-rule:nonzero;stroke:none"
             id="path6678"
             d="m 0,0 c -3.059,1.53 -6.834,1.722 -9.033,1.722 l -6.044,0 -0.226,0.392 6.569,0 c 0.708,0 5.682,0.052 8.973,-0.696 3.793,-0.862 7.059,-3.354 7.4,-3.592 0.325,-0.226 7.816,-5.601 7.816,-5.601 0,0 -0.855,-0.879 -1.772,-0.879 -0.845,0 -1.76,0.654 -1.76,0.654 0,0 -4.875,3.495 -5.347,3.831 C 6.107,-3.834 2.85,-1.425 0,0"
             inkscape:connector-curvature="0" />
        </g>
      </g>
    </g>
  </g>
</svg>
