<?xml version="1.0" encoding="UTF-8" standalone="no"?>
<!-- Creator: CorelDRAW -->

<svg
   xmlns:dc="http://purl.org/dc/elements/1.1/"
   xmlns:cc="http://creativecommons.org/ns#"
   xmlns:rdf="http://www.w3.org/1999/02/22-rdf-syntax-ns#"
   xmlns:svg="http://www.w3.org/2000/svg"
   xmlns="http://www.w3.org/2000/svg"
   xmlns:sodipodi="http://sodipodi.sourceforge.net/DTD/sodipodi-0.dtd"
   xmlns:inkscape="http://www.inkscape.org/namespaces/inkscape"
   xml:space="preserve"
   width="400"
   height="238.73599"
   viewBox="0 0 399.23494 238.35051"
   id="svg2"
   version="1.1"
   inkscape:version="0.91 r13725"
   sodipodi:docname="HG.svg"
   style="clip-rule:evenodd;fill-rule:evenodd;image-rendering:optimizeQuality;shape-rendering:geometricPrecision;text-rendering:geometricPrecision"><metadata
     id="metadata14"><rdf:RDF><cc:Work
         rdf:about=""><dc:format>image/svg+xml</dc:format><dc:type
           rdf:resource="http://purl.org/dc/dcmitype/StillImage" /><dc:title></dc:title></cc:Work></rdf:RDF></metadata><defs
     id="defs12" /><sodipodi:namedview
     pagecolor="#ffffff"
     bordercolor="#666666"
     borderopacity="1"
     objecttolerance="10"
     gridtolerance="10"
     guidetolerance="10"
     inkscape:pageopacity="0"
     inkscape:pageshadow="2"
     inkscape:window-width="1680"
     inkscape:window-height="998"
     id="namedview10"
     showgrid="false"
     inkscape:zoom="1.0287101"
     inkscape:cx="303.30798"
     inkscape:cy="117.59434"
     inkscape:window-x="-8"
     inkscape:window-y="-8"
     inkscape:window-maximized="1"
     inkscape:current-layer="Ebene_x0020_1" /><g
     id="Ebene_x0020_1"
     transform="translate(0,-1394.0095)"><metadata
       id="CorelCorpID_0Corel-Layer" /><polygon
       points="2468.27,1632.36 0,1632.36 0,0 2468.27,0 "
       id="polygon6"
       style="fill:none" /><path
       d="m 398.06226,1494.2886 c -5.50371,-26.6712 -26.67059,-52.9186 -52.07159,-64.7725 l -0.84689,-1.6934 c 6.35059,-2.5402 12.27728,-1.6933 18.62725,-0.8462 5.08045,0 10.58415,5.5035 14.39386,0.8462 -12.69987,-7.62 -26.67057,-11.4304 -40.21791,-17.3571 -58.42125,-14.3939 -125.31011,-21.5907 -188.38933,-12.2767 -60.538287,8.8902 -134.623907,33.0209 -149.01779676,102.0264 -3.80972004,37.2544 10.58413976,70.2752 41.91103976,91.8659 82.552847,52.9182 216.330727,53.7652 299.305007,2.1169 35.13799,-20.7442 63.92543,-57.1518 56.30494,-99.9095 z m -53.34171,64.7716 -2.11636,0 c -1.69398,-30.4806 5.07982,-59.2681 7.62005,-88.9025 -2.54023,-5.5037 -6.77381,-10.1603 -12.27728,-12.7006 -6.77317,-0.8468 -11.85363,1.6934 -15.2401,7.1969 -8.04371,30.4809 -6.35058,65.6189 -9.73705,98.6399 0,4.6566 4.23357,8.8902 8.46693,10.5835 l 0,2.5402 c -48.6848,28.7872 -110.07,33.0208 -169.76137,27.941 -33.44469,-5.0804 -65.195717,-12.7004 -92.289857,-33.0207 l -0.42322,-2.5402 18.62724,-55.0354 2.11658,0 27.094117,67.3121 c 6.7736,5.9273 13.54741,11.0071 23.7077,8.8908 2.54022,-2.1172 6.7736,-4.6575 7.19683,-8.0439 2.11637,-44.0284 7.62005,-85.9393 22.01368,-124.464 -0.42303,-4.2334 -4.23338,-8.0437 -8.04309,-10.1603 -10.16092,-3.8103 -17.35774,4.2336 -23.70769,9.7373 -5.5037,20.3204 -11.00717,40.2178 -13.54677,61.8084 l -2.11721,0 c -7.19682,-18.2042 -16.086977,-35.138 -19.050257,-55.0354 -5.08045,-5.5028 -12.70052,-5.9267 -19.05044,-5.5028 -5.08045,1.2693 -10.16028,5.5028 -12.27728,10.5833 -9.31341,24.1309 -14.81687,49.9549 -24.9771,73.6621 l -2.54022,0 c -7.19682,-14.8169 -10.16027,-36.8307 -2.96345,-52.4946 33.02114,-57.1518 100.756197,-64.7725 162.564767,-68.5821 30.05738,0 61.80841,0.8462 88.90254,10.1603 33.86789,6.3498 72.39196,20.7434 85.93929,56.3049 5.5037,26.6708 -1.69334,53.765 -24.13089,71.1222 z m -45.29747,-102.4499 c -21.59137,-1.6933 -37.67822,13.9707 -55.03536,25.8241 l -3.80971,0 c 0.84646,-10.1603 0.84646,-20.7436 2.96345,-29.2105 -2.54022,-4.6568 -8.8908,-8.8902 -15.24074,-9.3134 -5.92671,1.2695 -11.85342,5.0798 -13.54676,11.0065 l -5.08046,48.6849 -6.7738,6.3506 c -1.26991,4.6565 2.54022,7.1967 4.65744,10.5832 l -8.04392,55.0354 1.27011,8.8902 c 2.11637,5.0798 7.62005,8.4668 13.12374,8.8901 6.34994,-0.8468 13.54677,-4.2335 15.66376,-11.0071 l 4.23356,-40.218 1.27012,-2.1164 c 8.04309,4.2334 15.66376,9.3133 23.28379,14.8169 13.97064,6.7736 21.59068,25.8241 39.79472,22.4377 2.53961,-1.2702 6.77298,-2.9635 7.62006,-6.7739 1.69313,-6.3499 -0.42324,-12.2772 -3.38649,-17.3571 -17.78104,-13.5474 -35.98456,-28.3643 -53.76524,-40.6416 11.85342,-10.1603 25.40082,-18.2034 38.52461,-26.6706 6.34994,-9.7371 33.44415,0 23.28379,-20.3204 -2.54023,-4.2336 -6.77381,-7.6207 -11.00654,-8.8908 z M 180.463,1450.2604 c -4.23356,1.2701 -8.46715,4.2335 -9.73726,8.0439 -6.7736,38.1008 -11.43019,76.6253 -18.62724,114.7266 l 1.27011,8.8902 c 2.11656,5.0804 8.04328,7.1968 12.27665,10.1603 5.08044,0.4232 12.27748,-0.4233 14.81771,-6.35 l 18.20334,-126.581 c -4.23357,-5.5037 -10.16027,-10.5835 -18.20334,-8.8901 z"
       id="path8"
       inkscape:connector-curvature="0"
       style="fill:#c20437" /></g></svg>