<?xml version="1.0" encoding="UTF-8" standalone="no"?>
<!-- Created with Inkscape (http://www.inkscape.org/) -->

<svg
   xmlns:dc="http://purl.org/dc/elements/1.1/"
   xmlns:cc="http://creativecommons.org/ns#"
   xmlns:rdf="http://www.w3.org/1999/02/22-rdf-syntax-ns#"
   xmlns:svg="http://www.w3.org/2000/svg"
   xmlns="http://www.w3.org/2000/svg"
   xmlns:sodipodi="http://sodipodi.sourceforge.net/DTD/sodipodi-0.dtd"
   xmlns:inkscape="http://www.inkscape.org/namespaces/inkscape"
   version="1.1"
   width="400"
   height="360.297"
   id="svg26784"
   inkscape:version="0.91 r13725"
   sodipodi:docname="HU.svg">
  <sodipodi:namedview
     pagecolor="#ffffff"
     bordercolor="#666666"
     borderopacity="1"
     objecttolerance="10"
     gridtolerance="10"
     guidetolerance="10"
     inkscape:pageopacity="0"
     inkscape:pageshadow="2"
     inkscape:window-width="1117"
     inkscape:window-height="903"
     id="namedview50"
     showgrid="false"
     inkscape:zoom="0.35613756"
     inkscape:cx="446.4567"
     inkscape:cy="112.5"
     inkscape:window-x="0"
     inkscape:window-y="0"
     inkscape:window-maximized="0"
     inkscape:current-layer="g26279" />
  <defs
     id="defs26786">
    <clipPath
       id="clipPath26327">
      <path
         d="m 0,0 419.528,0 0,595.276 L 0,595.276 0,0 Z"
         id="path26329"
         inkscape:connector-curvature="0" />
    </clipPath>
    <clipPath
       id="clipPath26281">
      <path
         d="m 0,0 419.528,0 0,595.276 L 0,595.276 0,0 Z"
         id="path26283"
         inkscape:connector-curvature="0" />
    </clipPath>
  </defs>
  <metadata
     id="metadata26789">
    <rdf:RDF>
      <cc:Work
         rdf:about="">
        <dc:format>image/svg+xml</dc:format>
        <dc:type
           rdf:resource="http://purl.org/dc/dcmitype/StillImage" />
        <dc:title></dc:title>
      </cc:Work>
    </rdf:RDF>
  </metadata>
  <g
     transform="translate(-247.18224,-274.32744)"
     id="layer1">
    <g
       transform="matrix(7.9553459,0,0,7.9553459,-1715.6944,-4417.6173)"
       id="g26883">
      <g
         transform="matrix(1.25,0,0,-1.25,120.81008,778.53552)"
         id="g26277">
        <g
           clip-path="url(#clipPath26281)"
           id="g26279">
          <g
             id="g3378"
             transform="matrix(1.6540369,0,0,1.6540372,-66.477945,-75.65919)">
            <g
               id="g26285"
               transform="translate(106.6917,118.9591)">
              <path
                 style="fill:#e60012;fill-opacity:1;fill-rule:nonzero;stroke:none"
                 id="path26287"
                 d="m 0,0 c 0.235,-0.13 0.424,-0.43 0.462,-0.744 0.063,-0.531 -0.327,-1.028 -0.868,-1.093 -0.541,-0.067 -1.053,0.347 -1.103,0.912 -0.048,0.534 0.285,1.075 0.863,1.367 0.866,0.439 2.019,0.321 2.891,-0.001 1.946,-0.714 3.571,-2.557 4.178,-3.484 -1.017,3.65 -5.142,6.864 -8.835,5.24 -1.26,-0.554 -2.081,-1.821 -1.984,-3.174 0.109,-1.53 1.316,-2.834 3.15,-2.853 0.856,-0.009 1.663,0.381 2.085,0.939 C 1.548,-1.948 1.265,-0.48 0,0 m 13.106,0 c -0.235,-0.13 -0.425,-0.43 -0.462,-0.744 -0.063,-0.531 0.327,-1.028 0.867,-1.093 0.542,-0.067 1.054,0.347 1.104,0.912 0.048,0.534 -0.284,1.075 -0.863,1.367 C 12.886,0.881 11.733,0.763 10.861,0.441 8.915,-0.273 7.29,-2.116 6.683,-3.043 c 1.017,3.65 5.142,6.864 8.834,5.24 1.261,-0.554 2.082,-1.821 1.985,-3.174 -0.109,-1.53 -1.316,-2.834 -3.15,-2.853 -0.856,-0.009 -1.663,0.381 -2.084,0.939 -0.71,0.943 -0.427,2.411 0.838,2.891 M 6.565,9.719 c 3.405,0 6.165,1.771 6.165,3.956 0,1.704 -1.679,3.157 -4.036,3.713 2.788,-0.568 4.805,-2.223 4.805,-4.179 0,-2.247 -2.629,-3.857 -5.133,-4.227 C 7.14,8.8 6.875,8.761 6.565,8.428 6.256,8.761 5.991,8.8 4.765,8.982 c -2.505,0.37 -5.133,1.98 -5.133,4.227 0,1.956 2.017,3.611 4.804,4.179 C 2.08,16.832 0.4,15.379 0.4,13.675 0.4,11.49 3.16,9.719 6.565,9.719 M 6.564,7.193 c 0.634,0.585 1.469,0.657 2.203,0.814 3.429,0.729 5.679,2.529 5.679,4.808 0,0.918 -0.39,1.779 -1.068,2.519 -1.126,1.233 -3.057,2.134 -5.335,2.41 4.211,-0.445 7.42,-2.764 7.42,-5.557 0,-2.493 -2.39,-4.325 -6.098,-5.349 C 7.757,6.393 6.981,6.095 6.564,5.389 6.147,6.095 5.372,6.393 3.764,6.838 c -3.709,1.024 -6.1,2.856 -6.1,5.349 0,2.793 3.21,5.112 7.422,5.557 -2.28,-0.276 -4.21,-1.177 -5.335,-2.41 -0.679,-0.74 -1.069,-1.601 -1.069,-2.519 0,-2.279 2.25,-4.079 5.679,-4.808 C 5.095,7.85 5.931,7.778 6.564,7.193 m 0.001,-3.82 c 0.658,1.316 2.376,2.008 3.818,2.48 0.419,0.137 0.603,0.195 1.11,0.386 2.919,1.101 4.883,3.152 4.888,5.499 0,3.298 -3.851,6.005 -8.789,6.337 6.235,-0.33 11.133,-3.636 11.133,-7.664 0,-2.694 -1.907,-4.946 -5.508,-6.439 C 11.768,3.371 7.501,2.118 6.565,-2.305 5.582,2.131 1.362,3.371 -0.087,3.972 c -3.601,1.493 -5.507,3.745 -5.507,6.439 0,4.028 4.897,7.334 11.133,7.664 C 0.601,17.743 -3.249,15.036 -3.249,11.738 -3.245,9.391 -1.282,7.34 1.638,6.239 2.145,6.048 2.328,5.99 2.748,5.853 4.189,5.381 5.907,4.689 6.565,3.373 M 4.25,14.401 c 0,1.291 1.036,2.337 2.313,2.337 1.278,0 2.313,-1.046 2.313,-2.337 0,-1.29 -1.035,-2.336 -2.313,-2.336 -1.277,0 -2.313,1.046 -2.313,2.336"
                 inkscape:connector-curvature="0" />
            </g>
          </g>
        </g>
      </g>
    </g>
  </g>
</svg>
