<?xml version="1.0" encoding="UTF-8" standalone="no"?>
<svg
   xmlns:dc="http://purl.org/dc/elements/1.1/"
   xmlns:cc="http://creativecommons.org/ns#"
   xmlns:rdf="http://www.w3.org/1999/02/22-rdf-syntax-ns#"
   xmlns:svg="http://www.w3.org/2000/svg"
   xmlns="http://www.w3.org/2000/svg"
   xmlns:sodipodi="http://sodipodi.sourceforge.net/DTD/sodipodi-0.dtd"
   xmlns:inkscape="http://www.inkscape.org/namespaces/inkscape"
   version="1.1"
   width="400"
   height="300.72"
   xml:space="preserve"
   id="svg2"
   inkscape:version="0.91 r13725"
   sodipodi:docname="IB.svg"><metadata
     id="metadata63"><rdf:RDF><cc:Work
         rdf:about=""><dc:format>image/svg+xml</dc:format><dc:type
           rdf:resource="http://purl.org/dc/dcmitype/StillImage" /><dc:title>Iberia</dc:title></cc:Work></rdf:RDF></metadata><sodipodi:namedview
     pagecolor="#ffffff"
     bordercolor="#666666"
     borderopacity="1"
     objecttolerance="10"
     gridtolerance="10"
     guidetolerance="10"
     inkscape:pageopacity="0"
     inkscape:pageshadow="2"
     inkscape:window-width="1680"
     inkscape:window-height="998"
     id="namedview61"
     showgrid="false"
     inkscape:zoom="0.8"
     inkscape:cx="200"
     inkscape:cy="-12.92219"
     inkscape:window-x="-8"
     inkscape:window-y="-8"
     inkscape:window-maximized="1"
     inkscape:current-layer="g10" /><title
     id="title4">Iberia</title><defs
     id="defs6"><linearGradient
       x1="0"
       y1="0"
       x2="1"
       y2="0"
       gradientUnits="userSpaceOnUse"
       gradientTransform="matrix(0,27.8148,27.8148,0,146.76355,334.96057)"
       spreadMethod="pad"
       id="linearGradient62"><stop
         style="stop-opacity:1;stop-color:#a61c22"
         offset="0"
         id="stop64" /><stop
         style="stop-opacity:1;stop-color:#da1c2d"
         offset="0.8"
         id="stop66" /><stop
         style="stop-opacity:1;stop-color:#da1c2d"
         offset="1"
         id="stop68" /></linearGradient><linearGradient
       x1="0"
       y1="0"
       x2="1"
       y2="0"
       gradientUnits="userSpaceOnUse"
       gradientTransform="matrix(38.656799,22.3185,22.3185,-38.656799,199.14554,332.37659)"
       spreadMethod="pad"
       id="linearGradient84"><stop
         style="stop-opacity:1;stop-color:#a61c22"
         offset="0"
         id="stop86" /><stop
         style="stop-opacity:1;stop-color:#dc1c2e"
         offset="0.5"
         id="stop88" /><stop
         style="stop-opacity:1;stop-color:#dc1c2e"
         offset="1"
         id="stop90" /></linearGradient><linearGradient
       x1="0"
       y1="0"
       x2="1"
       y2="0"
       gradientUnits="userSpaceOnUse"
       gradientTransform="matrix(25.956699,14.9861,14.9861,-25.956699,214.06754,351.8476)"
       spreadMethod="pad"
       id="linearGradient106"><stop
         style="stop-opacity:1;stop-color:#ed7417"
         offset="0"
         id="stop108" /><stop
         style="stop-opacity:1;stop-color:#facd08"
         offset="0.85"
         id="stop110" /><stop
         style="stop-opacity:1;stop-color:#facd08"
         offset="1"
         id="stop112" /></linearGradient><clipPath
       clipPathUnits="userSpaceOnUse"
       id="clipPath140"><path
         d="m 22.375,21.901 747.25,0 0,411 -747.25,0 0,-411 z"
         id="path142"
         inkscape:connector-curvature="0" /></clipPath><clipPath
       clipPathUnits="userSpaceOnUse"
       id="clipPath166"><path
         d="m 22.375,21.901 747.25,0 0,411 -747.25,0 0,-411 z"
         id="path168"
         inkscape:connector-curvature="0" /></clipPath><clipPath
       clipPathUnits="userSpaceOnUse"
       id="clipPath190"><path
         d="m 344.092,145.042 c -1.159,-0.034 -2.321,-0.246 -3.432,-0.636 l 0,0 c -1.197,-0.422 -2.348,-1.053 -3.389,-1.898 l 0,0 c -0.966,-0.782 -1.772,-1.69 -2.411,-2.68 l 0,0 c -0.702,-1.088 -1.202,-2.277 -1.498,-3.51 l 0,0 c -0.12,-0.485 -0.201,-0.976 -0.251,-1.473 l 0,0 c -0.043,-0.373 -0.062,-0.749 -0.065,-1.125 l 0,0 c -0.007,-1.31 0.209,-2.626 0.657,-3.883 l 0,0 c 0.421,-1.186 1.048,-2.32 1.882,-3.353 l 0,0 c 0.792,-0.977 1.712,-1.788 2.715,-2.431 l 0,0 c 1.147,-0.732 2.399,-1.243 3.702,-1.53 l 0,0 c 0.41,-0.089 0.828,-0.155 1.245,-0.2 l 0,0 c 0.498,-0.053 0.993,-0.071 1.496,-0.057 l 0,0 c 1.268,0.031 2.535,0.275 3.744,0.735 l 0,0 c 1.102,0.42 2.159,1.016 3.121,1.798 l 0,0 c 1.045,0.846 1.9,1.836 2.563,2.921 l 0,0 c 0.614,1.01 1.06,2.1 1.336,3.225 l 0,0 c 0.123,0.501 0.21,1.007 0.265,1.519 l 0,0 c 0.044,0.417 0.062,0.839 0.06,1.263 l 0,0 c -0.005,1.33 -0.247,2.664 -0.724,3.937 l 0,0 c -0.422,1.117 -1.024,2.182 -1.812,3.161 l 0,0 c -0.837,1.03 -1.815,1.881 -2.889,2.538 l 0,0 c -1.138,0.7 -2.378,1.186 -3.662,1.449 l 0,0 c -0.366,0.075 -0.739,0.134 -1.113,0.173 l 0,0 c -0.396,0.042 -0.796,0.063 -1.196,0.063 l 0,0 c -0.114,0 -0.229,-0.002 -0.344,-0.006"
         id="path192"
         inkscape:connector-curvature="0" /></clipPath><clipPath
       clipPathUnits="userSpaceOnUse"
       id="clipPath528"><path
         d="m 22.375,21.901 747.25,0 0,411 -747.25,0 0,-411 z"
         id="path530"
         inkscape:connector-curvature="0" /></clipPath><clipPath
       clipPathUnits="userSpaceOnUse"
       id="clipPath570"><path
         d="m 344.518,227.191 c -1.16,-0.035 -2.322,-0.246 -3.433,-0.638 l 0,0 c -1.197,-0.422 -2.348,-1.052 -3.389,-1.897 l 0,0 c -0.966,-0.781 -1.77,-1.69 -2.411,-2.679 l 0,0 c -0.702,-1.088 -1.202,-2.276 -1.498,-3.511 l 0,0 c -0.118,-0.484 -0.2,-0.976 -0.252,-1.472 l 0,0 c -0.043,-0.373 -0.061,-0.749 -0.064,-1.125 l 0,0 c -0.007,-1.312 0.208,-2.627 0.657,-3.885 l 0,0 c 0.422,-1.185 1.048,-2.318 1.882,-3.351 l 0,0 c 0.792,-0.979 1.711,-1.79 2.717,-2.43 l 0,0 c 1.145,-0.735 2.397,-1.244 3.699,-1.531 l 0,0 c 0.412,-0.089 0.829,-0.156 1.246,-0.203 l 0,0 c 0.499,-0.049 0.995,-0.069 1.497,-0.055 l 0,0 c 1.267,0.032 2.533,0.276 3.744,0.736 l 0,0 c 1.101,0.417 2.159,1.017 3.12,1.798 l 0,0 c 1.045,0.847 1.9,1.837 2.562,2.92 l 0,0 c 0.615,1.009 1.061,2.098 1.338,3.226 l 0,0 c 0.122,0.498 0.209,1.005 0.264,1.517 l 0,0 c 0.044,0.42 0.062,0.842 0.061,1.265 l 0,0 c -0.007,1.33 -0.249,2.664 -0.725,3.935 l 0,0 c -0.422,1.116 -1.025,2.185 -1.812,3.161 l 0,0 c -0.837,1.033 -1.816,1.881 -2.889,2.538 l 0,0 c -1.136,0.701 -2.377,1.187 -3.662,1.45 l 0,0 c -0.366,0.077 -0.739,0.132 -1.113,0.173 l 0,0 c -0.394,0.041 -0.793,0.063 -1.191,0.063 l 0,0 c -0.116,0 -0.232,-0.002 -0.348,-0.005"
         id="path572"
         inkscape:connector-curvature="0" /></clipPath><clipPath
       clipPathUnits="userSpaceOnUse"
       id="clipPath908"><path
         d="m 22.375,21.901 747.25,0 0,411 -747.25,0 0,-411 z"
         id="path910"
         inkscape:connector-curvature="0" /></clipPath><clipPath
       clipPathUnits="userSpaceOnUse"
       id="clipPath950"><path
         d="m 344.476,367.042 c -1.16,-0.034 -2.322,-0.246 -3.434,-0.638 l 0,0 c -1.198,-0.421 -2.349,-1.052 -3.388,-1.896 l 0,0 c -0.968,-0.783 -1.772,-1.69 -2.411,-2.68 l 0,0 c -0.702,-1.088 -1.204,-2.276 -1.5,-3.511 l 0,0 c -0.118,-0.484 -0.199,-0.976 -0.251,-1.472 l 0,0 c -0.042,-0.373 -0.061,-0.749 -0.065,-1.125 l 0,0 c -0.007,-1.311 0.208,-2.627 0.658,-3.884 l 0,0 c 0.422,-1.185 1.049,-2.319 1.882,-3.352 l 0,0 c 0.791,-0.978 1.711,-1.789 2.716,-2.43 l 0,0 c 1.146,-0.734 2.398,-1.245 3.7,-1.53 l 0,0 c 0.412,-0.09 0.828,-0.157 1.247,-0.202 l 0,0 c 0.498,-0.052 0.993,-0.07 1.496,-0.057 l 0,0 c 1.267,0.032 2.533,0.277 3.743,0.736 l 0,0 c 1.101,0.418 2.16,1.017 3.12,1.798 l 0,0 c 1.046,0.847 1.901,1.837 2.562,2.92 l 0,0 c 0.616,1.01 1.061,2.1 1.339,3.226 l 0,0 c 0.123,0.499 0.208,1.006 0.262,1.518 l 0,0 c 0.045,0.419 0.063,0.841 0.063,1.263 l 0,0 c -0.007,1.33 -0.249,2.664 -0.726,3.937 l 0,0 c -0.42,1.116 -1.023,2.184 -1.812,3.16 l 0,0 c -0.837,1.033 -1.815,1.881 -2.889,2.539 l 0,0 c -1.136,0.7 -2.376,1.186 -3.662,1.449 l 0,0 c -0.364,0.076 -0.739,0.133 -1.111,0.173 l 0,0 c -0.399,0.041 -0.8,0.063 -1.202,0.063 l 0,0 c -0.112,0 -0.225,-0.002 -0.337,-0.005"
         id="path952"
         inkscape:connector-curvature="0" /></clipPath><clipPath
       clipPathUnits="userSpaceOnUse"
       id="clipPath1288"><path
         d="m 22.375,21.901 747.25,0 0,411 -747.25,0 0,-411 z"
         id="path1290"
         inkscape:connector-curvature="0" /></clipPath><clipPath
       clipPathUnits="userSpaceOnUse"
       id="clipPath1330"><path
         d="m 22.375,21.901 747.25,0 0,411 -747.25,0 0,-411 z"
         id="path1332"
         inkscape:connector-curvature="0" /></clipPath><clipPath
       clipPathUnits="userSpaceOnUse"
       id="clipPath1346"><path
         d="m 456.809,293.375 c -1.161,-0.034 -2.323,-0.245 -3.433,-0.637 l 0,0 c -1.199,-0.422 -2.349,-1.053 -3.39,-1.898 l 0,0 c -0.966,-0.782 -1.771,-1.69 -2.411,-2.68 l 0,0 c -0.702,-1.086 -1.201,-2.275 -1.497,-3.51 l 0,0 c -0.12,-0.484 -0.201,-0.975 -0.251,-1.471 l 0,0 c -0.044,-0.375 -0.062,-0.749 -0.067,-1.125 l 0,0 c -0.005,-1.312 0.209,-2.627 0.659,-3.885 l 0,0 c 0.42,-1.185 1.047,-2.319 1.882,-3.351 l 0,0 c 0.792,-0.979 1.711,-1.789 2.714,-2.431 l 0,0 c 1.148,-0.734 2.4,-1.244 3.702,-1.53 l 0,0 c 0.411,-0.089 0.829,-0.157 1.246,-0.203 l 0,0 c 0.497,-0.05 0.993,-0.068 1.495,-0.056 l 0,0 c 1.268,0.033 2.535,0.277 3.744,0.737 l 0,0 c 1.102,0.417 2.159,1.017 3.121,1.798 l 0,0 c 1.045,0.846 1.9,1.836 2.562,2.919 l 0,0 c 0.615,1.01 1.06,2.099 1.337,3.227 l 0,0 c 0.124,0.499 0.209,1.005 0.265,1.517 l 0,0 c 0.043,0.419 0.063,0.841 0.06,1.264 l 0,0 c -0.005,1.329 -0.246,2.664 -0.723,3.937 l 0,0 c -0.423,1.116 -1.025,2.183 -1.815,3.159 l 0,0 c -0.834,1.033 -1.813,1.882 -2.888,2.539 l 0,0 c -1.137,0.701 -2.377,1.186 -3.66,1.449 l 0,0 c -0.367,0.077 -0.742,0.134 -1.113,0.173 l 0,0 c -0.397,0.042 -0.797,0.063 -1.197,0.063 l 0,0 c -0.114,0 -0.228,-0.002 -0.342,-0.005"
         id="path1348"
         inkscape:connector-curvature="0" /></clipPath><clipPath
       clipPathUnits="userSpaceOnUse"
       id="clipPath1684"><path
         d="m 22.375,21.901 747.25,0 0,411 -747.25,0 0,-411 z"
         id="path1686"
         inkscape:connector-curvature="0" /></clipPath><clipPath
       clipPathUnits="userSpaceOnUse"
       id="clipPath1744"><path
         d="m 22.375,21.901 747.25,0 0,411 -747.25,0 0,-411 z"
         id="path1746"
         inkscape:connector-curvature="0" /></clipPath><clipPath
       clipPathUnits="userSpaceOnUse"
       id="clipPath1768"><path
         d="m 22.375,21.901 747.25,0 0,411 -747.25,0 0,-411 z"
         id="path1770"
         inkscape:connector-curvature="0" /></clipPath></defs><g
     id="g10"
     transform="matrix(1.25,0,0,-1.25,-355.64249,830.15163)"><g
       id="g3391"
       transform="matrix(3.4116191,0,0,3.4116221,-1457.8575,-1021.4312)"><g
         transform="matrix(2.2133966,0,0,2.2133966,72.763169,-317.04835)"
         id="g72"><g
           id="g74"><g
             id="g80"><g
               id="g82"><path
                 id="path92"
                 style="fill:url(#linearGradient84);stroke:none"
                 d="m 205.352,342.154 -7.487,-7.557 0,-10e-4 c 25.989,0 32.116,6.11 35.691,14.427 l 0,0 3.002,7.829 c -8.756,-0.252 -21.969,-5.413 -31.206,-14.698"
                 inkscape:connector-curvature="0" /></g></g></g></g><g
         transform="matrix(2.2133966,0,0,2.2133966,72.763169,-317.04835)"
         id="g94"><g
           id="g96"><g
             id="g102"><g
               id="g104"><path
                 id="path114"
                 style="fill:url(#linearGradient106);stroke:none"
                 d="m 222.809,359.83 -8.424,-8.533 c 7.998,5.745 15.974,9.211 23.92,10.106 l 0,0 1.937,5.052 c -11.763,0 -13.365,-2.572 -17.433,-6.625"
                 inkscape:connector-curvature="0" /></g></g></g></g></g></g></svg>