<?xml version="1.0" encoding="UTF-8" standalone="no"?>
<!-- Created with Inkscape (http://www.inkscape.org/) -->

<svg
   xmlns:dc="http://purl.org/dc/elements/1.1/"
   xmlns:cc="http://creativecommons.org/ns#"
   xmlns:rdf="http://www.w3.org/1999/02/22-rdf-syntax-ns#"
   xmlns:svg="http://www.w3.org/2000/svg"
   xmlns="http://www.w3.org/2000/svg"
   xmlns:sodipodi="http://sodipodi.sourceforge.net/DTD/sodipodi-0.dtd"
   xmlns:inkscape="http://www.inkscape.org/namespaces/inkscape"
   id="svg26389"
   height="642.96503"
   width="400"
   version="1.1"
   viewBox="0 0 400 642.96504"
   inkscape:version="0.91 r13725"
   sodipodi:docname="LA.svg">
  <defs
     id="defs25" />
  <sodipodi:namedview
     pagecolor="#ffffff"
     bordercolor="#666666"
     borderopacity="1"
     objecttolerance="10"
     gridtolerance="10"
     guidetolerance="10"
     inkscape:pageopacity="0"
     inkscape:pageshadow="2"
     inkscape:window-width="1680"
     inkscape:window-height="998"
     id="namedview23"
     showgrid="false"
     inkscape:zoom="0.47640449"
     inkscape:cx="1335"
     inkscape:cy="315"
     inkscape:window-x="-8"
     inkscape:window-y="-8"
     inkscape:window-maximized="1"
     inkscape:current-layer="layer5" />
  <metadata
     id="metadata26394">
    <rdf:RDF>
      <cc:Work
         rdf:about="">
        <dc:format>image/svg+xml</dc:format>
        <dc:type
           rdf:resource="http://purl.org/dc/dcmitype/StillImage" />
        <dc:title></dc:title>
      </cc:Work>
    </rdf:RDF>
  </metadata>
  <g
     id="layer5"
     transform="translate(580,-569.395)"
     style="fill-rule:evenodd">
    <g
       id="g3353"
       transform="matrix(1.0380491,0,0,1.0380499,18.956454,-41.447195)">
      <g
         id="g12"
         style="fill:#ed1651">
        <path
           d="m -532.68,841.98 68.786,-19.648 c 0,0 -0.73658,-4.5943 -3.2031,-6.8493 -2.46652,-2.255 -6.9031,-3.6493 -6.9031,-3.6493 l -95.605,-34.728 c 0,0 -3.0352,-1.0205 -5.2527,0.2078 -2.2175,1.2283 -2.1388,4.4193 -2.1388,4.4193 l 0,44.459 c 0,0 -0.2385,4.2567 5.927,13.798 6.1656,9.5409 20.77,7.111 20.77,7.111 z"
           id="path27278"
           inkscape:connector-curvature="0" />
        <path
           d="m -258.85,734.71 63.986,-35.848 c 0,0 0.96342,-6.1943 -1.5031,-8.4493 -2.46652,-2.255 -5.4031,-2.9493 -5.4031,-2.9493 l -276.34,-98.614 c 0,0 -3.0352,-1.0205 -5.2527,0.2078 -2.2175,1.2283 -2.1388,4.4193 -2.1388,4.4193 l 0,38.333 c 0,0 -0.0385,8.882 6.127,18.423 6.1656,9.5409 16.17,12.011 16.17,12.011 z"
           id="path27260"
           inkscape:connector-curvature="0" />
        <path
           d="m -258.85,846.29 63.986,-33.148 c 0,0 1.3634,-8.3943 -1.1031,-10.649 -2.4665,-2.255 -5.8031,-3.4493 -5.8031,-3.4493 l -367.84,-133.61 c 0,0 -3.0352,-1.0205 -5.2527,0.2078 -2.2175,1.2283 -2.1388,4.4193 -2.1388,4.4193 l 0,38.333 c 0,0 -0.0385,8.882 6.127,18.423 6.1656,9.5409 16.17,12.011 16.17,12.011 z"
           id="path27258"
           inkscape:connector-curvature="0" />
      </g>
      <g
         id="g17"
         style="fill:#2a0088">
        <path
           d="m -201.77,687.46 c 0,0 3.7354,0.56621 6.9031,3.6493 3.1677,3.08309 3.2031,6.8493 3.2031,6.8493 l 0,50.754 c 0,0 -0.15239,6.9342 -2.9966,13.17 -2.8442,6.2359 -7.0096,7.7111 -7.0096,7.7111 l -8.6667,3.1481 -276.16,100.31 c 0,0 -1.328,0.40995 -3.0557,0.40995 -1.7277,0 -3.0557,-0.40995 -3.0557,-0.40995 l -76.943,-27.949 c 0,0 -1.9088,-0.44406 -4.6171,-4.6869 -3.05,-4.76 -2.83,-14.21 -2.83,-14.21 0,0 0.47846,4.8448 3.217,7.1455 2.73854,2.3007 10.037,-0.22335 10.037,-0.22335 l 353.41,-128.37 c 0,0 14.033,-5.7246 14.033,-11.541 0,-4.0162 -5.4667,-5.7407 -5.4667,-5.7407 z"
           id="path27194"
           inkscape:connector-curvature="0" />
        <path
           d="m -201.77,799.04 c 0,0 3.7354,0.56621 6.9031,3.6493 3.1677,3.08309 3.2031,6.8493 3.2031,6.8493 l 0,50.754 c 0,0 -0.15239,6.9342 -2.9966,13.17 -2.8442,6.2359 -7.0096,7.7111 -7.0096,7.7111 l -8.6667,3.1481 -276.16,100.31 0,-68 276.16,-100.31 c 0,0 14.033,-5.7246 14.033,-11.541 0,-4.0162 -5.4667,-5.7407 -5.4667,-5.7407 z"
           id="path27140"
           inkscape:connector-curvature="0" />
        <path
           d="m -338.86,977.68 c 2.6431,2.6431 2.6431,8.4596 2.6431,8.4596 l 0,37.953 c 0,0 -0.15239,6.9342 -2.9966,13.17 -2.8442,6.2359 -7.0096,7.711 -7.0096,7.711 l -8.6667,3.1482 -131.61,47.807 0,-68 131.61,-47.807 c 0,0 13.387,-5.0845 16.03,-2.4414 z"
           id="path27142"
           inkscape:connector-curvature="0" />
        <path
           d="m -423.76,1119.6 c 2.6431,2.6431 2.6431,8.4595 2.6431,8.4595 l 0,37.953 c 0,0 -0.15239,6.9342 -2.9966,13.17 -2.8442,6.2359 -7.0096,7.711 -7.0096,7.711 l -8.6667,3.1482 -46.71,17.807 0,-68 46.71,-17.807 c 0,0 13.387,-5.0845 16.03,-2.4414 z"
           id="path27168"
           inkscape:connector-curvature="0" />
      </g>
    </g>
  </g>
</svg>
