<?xml version="1.0" encoding="UTF-8" standalone="no"?>
<!-- Created with Inkscape (http://www.inkscape.org/) -->

<svg
   xmlns:dc="http://purl.org/dc/elements/1.1/"
   xmlns:cc="http://creativecommons.org/ns#"
   xmlns:rdf="http://www.w3.org/1999/02/22-rdf-syntax-ns#"
   xmlns:svg="http://www.w3.org/2000/svg"
   xmlns="http://www.w3.org/2000/svg"
   xmlns:sodipodi="http://sodipodi.sourceforge.net/DTD/sodipodi-0.dtd"
   xmlns:inkscape="http://www.inkscape.org/namespaces/inkscape"
   version="1.1"
   width="400"
   height="400.02301"
   id="svg13083"
   inkscape:version="0.91 r13725"
   sodipodi:docname="JL.svg">
  <sodipodi:namedview
     pagecolor="#ffffff"
     bordercolor="#666666"
     borderopacity="1"
     objecttolerance="10"
     gridtolerance="10"
     guidetolerance="10"
     inkscape:pageopacity="0"
     inkscape:pageshadow="2"
     inkscape:window-width="1680"
     inkscape:window-height="998"
     id="namedview37"
     showgrid="false"
     inkscape:zoom="0.59043864"
     inkscape:cx="269.29132"
     inkscape:cy="143.68109"
     inkscape:window-x="-8"
     inkscape:window-y="-8"
     inkscape:window-maximized="1"
     inkscape:current-layer="g13156" />
  <defs
     id="defs13085" />
  <metadata
     id="metadata13088">
    <rdf:RDF>
      <cc:Work
         rdf:about="">
        <dc:format>image/svg+xml</dc:format>
        <dc:type
           rdf:resource="http://purl.org/dc/dcmitype/StillImage" />
        <dc:title></dc:title>
      </cc:Work>
    </rdf:RDF>
  </metadata>
  <g
     transform="translate(-113.46448,-143.53955)"
     id="layer1">
    <g
       transform="matrix(3.2880953,0,0,3.2880953,-1139.1626,-1547.8618)"
       id="g13156">
      <g
         id="g3365"
         transform="matrix(1.9436107,0,0,1.9436121,-459.31467,-554.06698)">
        <g
           id="g12557"
           transform="matrix(1.25,0,0,-1.25,464.07838,600.41718)">
          <path
             style="fill:#e50012;fill-opacity:1;fill-rule:nonzero;stroke:none"
             id="path12559"
             d="M 0,0 1.923,0 1.839,2.289 0,0"
             inkscape:connector-curvature="0" />
        </g>
        <g
           id="g12561"
           transform="matrix(1.25,0,0,-1.25,477.77588,584.99468)">
          <path
             style="fill:#e50012;fill-opacity:1;fill-rule:nonzero;stroke:none"
             id="path12563"
             d="m 0,0 c -5.119,-4.985 -12.772,-1.803 -11.992,4.316 0.6,4.717 6.382,9.414 10.761,11.965 0.021,0.012 0.02,0.039 0.004,0.055 -0.574,0.544 -1.763,1.779 -2.531,2.707 -2.121,2.552 -5.834,2.658 -8.049,-0.141 l -12.59,-1.174 c -0.048,-0.004 -0.05,-0.076 0,-0.08 l 13.498,-0.779 c 2.395,-0.137 3.175,-2.307 0.866,-4.057 -8.573,-6.494 -10.102,-13.369 -8.186,-18.818 0.013,-0.035 -0.042,-0.061 -0.064,-0.03 -0.787,1.114 -1.376,2.479 -1.699,3.911 -4.116,2.587 -7.46,7.515 -7.46,13.593 0,8.842 7.206,16.121 16.118,16.121 8.912,0 16.117,-7.279 16.117,-16.121 C 4.793,6.687 2.697,2.625 0,0 Z m 3.15,-15.122 -7.751,0 2.749,7.159 3.414,0 -2.172,-5.643 4.342,0 -0.582,-1.516 z m -12.081,0 -0.055,1.409 -3.082,0 -1.136,-1.409 -2.819,0 5.719,6.627 c 0.273,0.315 0.677,0.532 1.05,0.532 l 3.053,0 0.683,-7.159 -3.413,0 z m -11.687,-0.242 c -0.919,0 -1.716,0.094 -2.372,0.241 l 0.582,1.519 c 1.565,-0.182 2.902,-0.045 3.425,1.318 l 1.66,4.323 3.414,0 -1.828,-4.762 c -0.935,-2.436 -3.24,-2.639 -4.881,-2.639 z m 34.233,16.33 c 0.163,1.586 0.12,3.858 -0.124,5.539 -0.003,0.032 -0.036,0.032 -0.044,0 -0.511,-2.439 -2.091,-5.742 -5.502,-8.437 -0.03,-0.025 -0.066,0.018 -0.037,0.049 2.99,3.191 4.773,7.127 5.05,11.179 -0.562,2.233 -1.437,4.389 -2.54,6.295 -0.015,0.026 -0.045,0.018 -0.039,-0.013 C 10.986,11.482 10.016,6.072 6.044,1.685 6.017,1.656 5.975,1.691 5.998,1.724 c 3.422,4.926 4.311,10.924 2.82,16.319 -4.56,6.168 -11.884,10.166 -20.142,10.166 -8.258,0 -15.581,-3.998 -20.142,-10.166 -1.492,-5.395 -0.602,-11.393 2.819,-16.319 0.024,-0.033 -0.018,-0.068 -0.045,-0.039 -3.973,4.387 -4.941,9.797 -4.335,13.893 0.004,0.031 -0.024,0.039 -0.041,0.013 -1.1,-1.906 -1.976,-4.062 -2.538,-6.295 0.276,-4.052 2.06,-7.988 5.051,-11.179 0.028,-0.031 -0.008,-0.074 -0.039,-0.049 -3.411,2.695 -4.99,5.998 -5.502,8.437 -0.007,0.032 -0.041,0.032 -0.043,0 -0.245,-1.681 -0.287,-3.953 -0.123,-5.539 0.86,-2.695 2.698,-4.957 4.58,-6.588 0.033,-0.027 0.003,-0.074 -0.033,-0.05 -2.102,1.306 -3.279,2.586 -4.08,3.715 -0.016,0.025 -0.042,0.015 -0.036,-0.014 2.308,-11.242 12.387,-19.895 24.507,-19.895 12.119,0 22.199,8.653 24.507,19.895 0.006,0.029 -0.02,0.039 -0.037,0.014 -0.799,-1.129 -1.978,-2.409 -4.08,-3.715 -0.035,-0.024 -0.065,0.023 -0.031,0.05 1.881,1.631 3.718,3.893 4.58,6.588"
             inkscape:connector-curvature="0" />
        </g>
      </g>
    </g>
  </g>
</svg>
