<?xml version="1.0" encoding="UTF-8" standalone="no"?>
<!-- Generator: Adobe Illustrator 15.0.0, SVG Export Plug-In . SVG Version: 6.00 Build 0)  -->

<svg
   xmlns:dc="http://purl.org/dc/elements/1.1/"
   xmlns:cc="http://creativecommons.org/ns#"
   xmlns:rdf="http://www.w3.org/1999/02/22-rdf-syntax-ns#"
   xmlns:svg="http://www.w3.org/2000/svg"
   xmlns="http://www.w3.org/2000/svg"
   xmlns:sodipodi="http://sodipodi.sourceforge.net/DTD/sodipodi-0.dtd"
   xmlns:inkscape="http://www.inkscape.org/namespaces/inkscape"
   version="1.1"
   id="Ebene_1"
   x="0px"
   y="0px"
   width="400"
   height="58.750999"
   viewBox="0 0 400 58.750999"
   enable-background="new 0 0 250 50"
   xml:space="preserve"
   inkscape:version="0.91 r13725"
   sodipodi:docname="JP.svg"><metadata
     id="metadata13"><rdf:RDF><cc:Work
         rdf:about=""><dc:format>image/svg+xml</dc:format><dc:type
           rdf:resource="http://purl.org/dc/dcmitype/StillImage" /><dc:title></dc:title></cc:Work></rdf:RDF></metadata><defs
     id="defs11" /><sodipodi:namedview
     pagecolor="#ffffff"
     bordercolor="#666666"
     borderopacity="1"
     objecttolerance="10"
     gridtolerance="10"
     guidetolerance="10"
     inkscape:pageopacity="0"
     inkscape:pageshadow="2"
     inkscape:window-width="1422"
     inkscape:window-height="875"
     id="namedview9"
     showgrid="false"
     inkscape:zoom="1.272"
     inkscape:cx="125"
     inkscape:cy="25"
     inkscape:window-x="0"
     inkscape:window-y="0"
     inkscape:window-maximized="0"
     inkscape:current-layer="Ebene_1" /><g
     id="g8831"
     transform="matrix(1.6403552,0,0,1.6403552,-4.2248572,-13.344286)"><path
       id="path30"
       d="m 164.878,14.453 c 1.072,3.5 0.337,7.65 -1.948,10.163 -3.67,4.122 -8.435,5.505 -13.305,6.266 0,0 4.813,8.895 6.437,12.79 l -13.963,0 c -2.812,-5.025 -5.348,-10.164 -7.944,-15.301 -0.107,-0.509 -0.491,-0.933 -0.166,-0.933 5.951,-0.508 13.581,0.565 17.26,-5.222 0.542,-0.875 0.648,-2.259 0.542,-3.247 -0.974,-3.274 -4.221,-3.416 -6.925,-3.528 -15.363,0.254 -34.975,28.315 -34.975,28.315 l -3.899,-0.084 c 0,0 4.365,-7.144 6.852,-10.417 11.143,-15.81 26.074,-26.593 44.139,-24.956 3.153,0.621 6.484,2.512 7.895,6.154"
       inkscape:connector-curvature="0"
       style="fill:#2b438f" /><path
       id="path32"
       d="m 200.363,9.343 -24.87,34.413 -16.121,0 C 158.92,43.501 183.82,9.343 183.82,9.343 l 16.543,0"
       inkscape:connector-curvature="0"
       style="fill:#2b438f" /><path
       id="path34"
       d="M 63.404,14.509 C 62.862,12.872 61.456,11.488 60.157,10.5 52.692,7.226 43.713,9.483 36.79,12.363 23.701,17.276 2.149,42.655 2.582,43.672 c 5.194,0.479 16.792,0.196 16.792,0.196 0,0 4.434,-8.779 7.789,-11.913 8.331,-0.141 16.769,-0.763 24.775,-0.254 l -8.179,11.971 c 0,0 2.553,0.084 3.633,-0.057 L 60.05,27.552 c 2.487,-3.501 4.977,-8.158 3.354,-13.043 z M 60.05,19.76 c -1.082,3.021 -2.487,6.408 -5.084,7.792 -7.899,0 -15.903,0.396 -23.909,0 6.384,-7.283 14.172,-12.421 22.828,-14.313 1.945,0 4.003,0 5.516,1.524 0.866,1.383 1.191,3.387 0.649,4.997"
       inkscape:connector-curvature="0"
       style="fill:#2b438f" /><path
       id="path36"
       d="M 114.574,16.824 C 111.006,10.161 104.622,8.157 98.13,8.157 78.225,8.044 53.235,43.867 53.235,43.867 l 1.623,-0.055 29.967,0 c 8.87,-0.877 17.093,-3.53 23.907,-10.052 4.111,-4.007 7.465,-10.16 5.842,-16.936 z M 95.101,33.508 c -9.952,7.172 -22.717,7.283 -35.268,6.521 0,0 19.365,-21.963 32.563,-22.951 3.679,-0.142 7.464,0.621 9.086,4.517 0.975,5.279 -3.135,9.401 -6.381,11.913"
       inkscape:connector-curvature="0"
       style="fill:#2b438f" /><path
       id="path158"
       d="m 245.898,14.199 c -0.537,-1.637 -1.947,-3.021 -3.247,-4.037 -7.452,-3.246 -16.431,-0.988 -23.346,1.892 -13.1,4.883 -34.639,30.291 -34.215,31.307 5.193,0.48 16.796,0.198 16.796,0.198 0,0 4.434,-8.78 7.793,-11.914 8.327,-0.141 16.768,-0.763 24.757,-0.254 l -8.187,11.97 c 0,0 2.569,0.056 3.642,-0.056 l 12.676,-16.063 c 2.484,-3.502 4.968,-8.159 3.331,-13.043 z m -3.331,5.251 c -1.101,3.021 -2.513,6.408 -5.082,7.792 -7.904,0 -15.922,0.366 -23.911,0 6.38,-7.284 14.173,-12.421 22.811,-14.313 1.948,0 4.009,0 5.533,1.524 0.847,1.355 1.186,3.388 0.649,4.997"
       inkscape:connector-curvature="0"
       style="fill:#2b438f" /></g></svg>