<?xml version="1.0" encoding="UTF-8" standalone="no"?>
<!-- Creator: CorelDRAW X6 -->

<svg
   xmlns:dc="http://purl.org/dc/elements/1.1/"
   xmlns:cc="http://creativecommons.org/ns#"
   xmlns:rdf="http://www.w3.org/1999/02/22-rdf-syntax-ns#"
   xmlns:svg="http://www.w3.org/2000/svg"
   xmlns="http://www.w3.org/2000/svg"
   xmlns:sodipodi="http://sodipodi.sourceforge.net/DTD/sodipodi-0.dtd"
   xmlns:inkscape="http://www.inkscape.org/namespaces/inkscape"
   xml:space="preserve"
   width="400"
   height="454.94199"
   version="1.1"
   style="clip-rule:evenodd;fill-rule:evenodd;image-rendering:optimizeQuality;shape-rendering:geometricPrecision;text-rendering:geometricPrecision"
   viewBox="0 0 11015.476 12529.201"
   id="svg2"
   inkscape:version="0.91 r13725"
   sodipodi:docname="JT.svg"><metadata
     id="metadata33"><rdf:RDF><cc:Work
         rdf:about=""><dc:format>image/svg+xml</dc:format><dc:type
           rdf:resource="http://purl.org/dc/dcmitype/StillImage" /><dc:title></dc:title></cc:Work></rdf:RDF></metadata><sodipodi:namedview
     pagecolor="#ffffff"
     bordercolor="#666666"
     borderopacity="1"
     objecttolerance="10"
     gridtolerance="10"
     guidetolerance="10"
     inkscape:pageopacity="0"
     inkscape:pageshadow="2"
     inkscape:window-width="1680"
     inkscape:window-height="998"
     id="namedview31"
     showgrid="false"
     units="px"
     inkscape:zoom="0.33225724"
     inkscape:cx="478.54488"
     inkscape:cy="125.30764"
     inkscape:window-x="-8"
     inkscape:window-y="-8"
     inkscape:window-maximized="1"
     inkscape:current-layer="_118875824" /><defs
     id="defs4"><style
       type="text/css"
       id="style6"><![CDATA[
    .fil0 {fill:#FB0102}
   ]]></style></defs><g
     id="Layer_x0020_1"
     transform="translate(0,5627.1989)"><metadata
       id="CorelCorpID_0Corel-Layer" /><g
       id="_118875824"><g
         id="g3361"
         transform="matrix(1.8149791,0,0,1.8149797,-22737.863,-5629.1675)"><path
           id="path29"
           d="m 17891,1731 c -15,66 -75,153 -105,210 -19,-14 -50,-55 -73,-79 -30,-31 -47,-59 -67,-96 52,0 93,-3 130,-10 53,-9 70,-22 115,-25 z m -1534,4236 0,0 c -6,-41 -14,-92 -21,-144 44,-3 88,-6 132,-9 l 2,0 2,0 c 72,-5 193,-23 395,-129 123,-65 294,-238 373,-350 126,-180 193,-405 193,-636 l 0,-3 0,-2 0,-6 c 0,-60 -6,-119 -15,-176 -1,-4 -1,-9 -2,-13 l -1,-3 c -18,-105 -51,-209 -100,-309 -141,-291 -412,-495 -719,-577 -63,-17 -128,-29 -194,-35 l -11,-1 -10,-1 c -184,-14 -373,16 -549,96 -17,8 -33,15 -48,23 -135,68 -254,163 -351,276 l -2,3 -19,-9 c -350,-168 -866,-1142 -988,-1585 -151,-548 -247,-1480 -124,-2048 19,-88 43,-212 52,-255 -355,-225 -844,81 -899,776 -89,1120 598,2291 1399,2987 116,101 205,166 269,216 l 172,125 c -25,48 -47,99 -65,151 -123,-73 -232,-142 -366,-243 -117,-87 -224,-169 -333,-261 -241,-206 -367,-348 -586,-602 -271,-314 -736,-1098 -760,-1641 -526,-70 -853,924 132,1831 638,588 1057,765 1866,1104 -7,41 -11,82 -13,124 l -1,11 c -130,11 -615,-144 -753,-194 -1267,-460 -1562,-1010 -1709,-1165 -207,147 -241,571 -58,816 310,415 983,654 1508,713 326,37 577,53 904,39 l 120,-11 c 8,56 20,111 35,164 l -18,4 -22,5 -1,0 c -689,141 -1235,111 -1894,-100 -188,-60 -431,-204 -462,-221 -59,49 -171,888 972,897 287,2 575,-54 822,-133 233,-75 445,-166 681,-257 23,44 48,86 77,127 l -33,30 c -7,8 -16,15 -25,23 -158,135 -547,300 -748,365 -450,145 -648,122 -1095,70 54,594 720,522 1098,373 383,-151 637,-437 919,-719 32,33 66,64 102,93 -24,54 -51,99 -82,145 -164,239 -571,549 -812,659 -248,113 -390,120 -427,127 23,155 185,239 375,238 570,-5 940,-734 1044,-944 l 59,-118 c 38,22 78,41 119,58 l -43,142 c -2,6 -4,13 -6,20 l 0,1 c -25,78 -72,181 -150,312 -290,488 -553,562 -583,577 66,116 268,147 420,85 371,-150 427,-698 492,-1006 l 16,-83 c 40,11 80,19 122,25 l 1,5 c 68,641 -219,950 -237,980 197,34 368,-2 459,-152 88,-145 46,-390 24,-567 200,-7 433,-75 585,-125 483,-161 803,-572 936,-1052 13,-46 33,-93 44,-142 77,0 163,-8 163,-105 0,-21 -19,-84 -29,-100 -30,-48 -158,-129 -158,-262 0,-29 17,-77 23,-105 63,-5 152,-70 152,-140 0,-105 -178,-160 -243,-224 -64,-64 -143,-225 -143,-324 0,-60 -30,-210 58,-210 93,0 467,191 467,-385 -146,70 -252,117 -399,2 -172,-134 -29,-597 294,-597 70,0 120,15 155,55 31,35 53,107 55,167 65,-43 112,-100 160,-166 29,-40 85,-192 85,-254 0,-43 -22,-58 -19,-92 5,-55 81,-128 -15,-189 -76,-48 -226,41 -483,-88 -34,-17 -71,-43 -101,-51 1,-65 23,-75 23,-140 0,-102 -318,-230 -427,-297 -76,-47 -146,-95 -206,-155 -84,-85 -125,-154 -136,-199 -17,-8 -33,-14 -59,-14 -96,0 -168,73 -187,152 -21,-22 -37,-38 -67,-58 -30,-21 -63,-38 -93,-51 -215,-92 -358,-97 -587,-218 -85,57 -156,149 -128,268 -108,-57 -205,-47 -321,-30 -70,10 -293,41 -350,37 -56,0 -134,-10 -180,-19 -5,65 -35,118 -35,198 0,79 24,129 35,152 -132,0 -198,1 -304,22 -110,22 -191,28 -302,24 -33,140 -38,210 37,348 27,50 88,140 114,166 -58,20 -163,40 -222,47 0,165 71,398 114,551 127,454 351,833 633,1199 28,36 54,66 82,93 29,-28 50,-46 82,-70 264,-205 515,-292 875,-292 171,0 381,61 498,120 158,80 250,143 368,262 168,168 272,369 331,603 121,475 -48,1040 -446,1327 -70,50 -134,87 -213,127 -126,63 -353,122 -532,128 z m 1534,-4236 0,0 z m -1307,-152 c 0,44 41,123 23,128 -94,-8 -140,-98 -140,-198 0,-190 351,-256 408,-12 -42,-21 -126,-47 -175,-47 -56,0 -117,73 -117,128 z"
           class="fil0"
           inkscape:connector-curvature="0"
           style="fill:#fb0102" /></g></g></g></svg>