<?xml version="1.0" encoding="UTF-8" standalone="no"?>
<svg
   xmlns:dc="http://purl.org/dc/elements/1.1/"
   xmlns:cc="http://creativecommons.org/ns#"
   xmlns:rdf="http://www.w3.org/1999/02/22-rdf-syntax-ns#"
   xmlns:svg="http://www.w3.org/2000/svg"
   xmlns="http://www.w3.org/2000/svg"
   xmlns:sodipodi="http://sodipodi.sourceforge.net/DTD/sodipodi-0.dtd"
   xmlns:inkscape="http://www.inkscape.org/namespaces/inkscape"
   version="1.1"
   x="0px"
   y="0px"
   width="400"
   height="277.07901"
   viewBox="0 0 400 277.07901"
   enable-background="new 0 0 496 100"
   xml:space="preserve"
   id="svg2"
   inkscape:version="0.91 r13725"
   sodipodi:docname="JU.svg"><metadata
     id="metadata14"><rdf:RDF><cc:Work
         rdf:about=""><dc:format>image/svg+xml</dc:format><dc:type
           rdf:resource="http://purl.org/dc/dcmitype/StillImage" /><dc:title></dc:title></cc:Work></rdf:RDF></metadata><defs
     id="defs12" /><sodipodi:namedview
     pagecolor="#ffffff"
     bordercolor="#666666"
     borderopacity="1"
     objecttolerance="10"
     gridtolerance="10"
     guidetolerance="10"
     inkscape:pageopacity="0"
     inkscape:pageshadow="2"
     inkscape:window-width="1449"
     inkscape:window-height="944"
     id="namedview10"
     showgrid="false"
     inkscape:zoom="0.64112903"
     inkscape:cx="248"
     inkscape:cy="50"
     inkscape:window-x="0"
     inkscape:window-y="0"
     inkscape:window-maximized="0"
     inkscape:current-layer="svg2" /><g
     id="g3342"
     transform="matrix(2.7707969,0,0,2.7707969,0,-6.863304e-4)"><path
       id="path4"
       d="m 95.432,56.579 5.316,-6.021 2.776,-3.472 9.142,-10.537 c 0,0 4.743,-5.439 11.681,-5.673 3.813,-0.111 7.864,1.393 11.8,4.638 -1.618,1.735 -4.395,3.936 -8.097,4.743 -3.703,0.58 -7.75,-0.35 -12.029,-3.587 l -4.165,4.86 c 5.782,4.169 11.799,5.904 17.467,4.98 8.679,-1.852 13.422,-9.26 13.651,-9.726 l 1.389,-2.083 -1.852,-1.852 c -5.783,-5.788 -12.029,-8.564 -18.504,-8.336 -5.087,0.232 -9.252,2.432 -12.147,4.401 -0.115,0.111 -1.273,0.928 -1.385,1.037 l -4.514,-4.741 c -1.04,-1.393 -2.78,-3.472 -3.125,-4.64 -0.348,-1.037 -0.348,-1.851 -0.458,-2.541 -0.463,-1.852 -0.692,-5.097 -0.692,-5.097 0,0 0,-0.697 -0.349,-1.621 l -0.348,-1.156 c 0,0 3.702,-1.62 6.364,-1.504 l 1.503,2.084 0.115,-1.969 0,-2.899 c 0,0 -0.233,-1.511 -1.618,-2.665 -1.04,-0.807 -1.507,-0.928 -2.892,-1.046 -1.617,-0.232 -1.851,0.119 -3.12,-1.037 -1.159,-1.504 -8.794,-1.272 -10.76,-0.58 0,0 -1.388,0.349 -2.433,2.89 l -2.08,6.719 c 0,0 -0.578,2.2 -0.692,5.437 -0.115,1.853 -0.345,5.216 -0.812,6.492 l -1.158,3.936 c -1.618,3.934 -3.24,5.905 -3.24,5.905 l -6.246,7.297 -1.732,2.083 -1.732,-2.083 0,-0.117 c -2.084,-2.432 -4.283,-4.749 -6.245,-7.177 0,0 -1.852,-2.083 -3.47,-6.252 l -0.93,-3.588 C 59.234,20.92 59.004,18.608 58.886,15.589 58.771,12.352 58.308,10.151 58.308,10.151 L 56.11,3.432 C 55.184,0.891 53.563,0.542 53.563,0.542 51.711,-0.154 44.077,-0.386 42.922,1.122 41.652,2.278 41.304,1.929 39.687,2.159 38.416,2.278 37.95,2.398 36.91,3.206 35.407,4.359 35.288,5.871 35.288,5.871 l 0,2.892 0.119,1.969 1.503,-2.084 c 2.662,-0.117 6.36,1.504 6.36,1.504 l -0.467,1.155 c -0.233,0.928 -0.233,1.621 -0.233,1.621 0,0 -0.229,3.245 -0.577,5.097 -0.229,0.688 -0.345,1.504 -0.582,2.541 -0.577,1.511 -3.35,4.867 -4.05,5.447 l -3.584,3.934 C 31.115,27.638 26.373,24.741 20.36,24.509 13.769,24.278 7.634,27.058 1.733,32.845 L 0,34.697 1.273,36.779 c 0.229,0.467 4.972,7.875 13.646,9.728 5.668,0.928 11.685,-0.699 17.583,-4.86 l -4.28,-4.872 c -4.276,3.124 -8.097,4.053 -12.028,3.473 -3.584,-0.805 -6.246,-3.005 -7.868,-4.741 3.817,-3.245 7.749,-4.749 11.685,-4.64 6.823,0.24 11.682,5.675 11.682,5.675 l 10.059,11.925 4.165,-4.749 -7.753,-9.152 9.136,-11.458 3.703,-4.751 c 0.811,4.64 4.976,12.624 6.709,15.404 l -10.063,11.926 -8.326,9.956 c -2.314,2.31 -10.063,10.074 -19.315,15.163 0,0 2.892,2.091 6.705,1.971 2.314,0 4.742,-0.807 7.29,-3.247 1.155,-1.037 2.543,-2.432 4.051,-3.813 0,0 -0.696,1.735 1.04,4.858 1.159,2.317 3.354,3.705 6.36,3.822 4.628,0.23 7.982,-2.317 10.411,-5.098 l -3.358,-3.822 c 0,0 -3.006,4.402 -6.823,1.742 -1.273,-1.392 -1.273,-3.472 -1.273,-3.472 0,-2.899 11.914,-17.83 14.231,-20.958 l 3.121,-3.936 6.246,7.177 0.118,0.232 -7.868,9.838 3.469,3.943 8.445,-9.148 10.178,11.458 6.709,7.527 c 2.31,2.548 5.435,4.63 9.715,4.518 3.006,-0.117 5.32,-1.505 6.59,-3.822 1.621,-3.123 0.811,-4.858 0.811,-4.858 1.503,1.387 3.006,2.779 4.051,3.813 6.709,6.372 14.113,1.272 14.113,1.272 -9.256,-5.089 -17.005,-12.854 -19.204,-15.163 l -2.543,-3.007 -5.206,5.904 c 2.544,3.355 2.433,5.208 2.433,5.208 0,0 0.111,2.084 -1.273,3.472 -3.584,2.658 -6.938,-1.968 -6.938,-1.968 C 86.404,58.877 81.431,52.512 76.226,46.26 l 0.11,-0.232 3.817,-4.519 2.313,-2.658 7.634,10.413 4.861,-5.786 -8.445,-9.726 c 1.733,-2.78 5.902,-10.764 6.705,-15.404 l 3.702,4.749 9.142,11.46 -1.852,2.092 -7.638,9.032 -6.591,7.637 -1.966,2.44 4.161,4.74 3.253,-3.919 z M 84.673,69.315 80.507,64.456 C 76.924,68.617 61.073,86.104 60.73,87.842 57.948,94.902 61.656,100 61.656,100 62.119,95.599 65.939,91.307 67.324,89.577 L 84.673,69.315 Z m -7.868,20.262 c 1.389,1.733 5.206,6.021 5.668,10.423 0,0 3.813,-5.098 0.927,-12.275 0,0 -0.46,-1.734 -5.316,-6.711 l -4.284,5.091 0.582,0.466 2.423,3.006 z"
       inkscape:connector-curvature="0"
       style="fill:#164577" /><polygon
       id="polygon6"
       points="66.28,77.072 70.445,72.092 54.254,53.223 50.319,58.312 "
       style="fill:#164577" /></g></svg>