<?xml version="1.0" encoding="UTF-8" standalone="no"?>
<!-- Created with Inkscape (http://www.inkscape.org/) -->

<svg
   xmlns:dc="http://purl.org/dc/elements/1.1/"
   xmlns:cc="http://creativecommons.org/ns#"
   xmlns:rdf="http://www.w3.org/1999/02/22-rdf-syntax-ns#"
   xmlns:svg="http://www.w3.org/2000/svg"
   xmlns="http://www.w3.org/2000/svg"
   xmlns:sodipodi="http://sodipodi.sourceforge.net/DTD/sodipodi-0.dtd"
   xmlns:inkscape="http://www.inkscape.org/namespaces/inkscape"
   version="1.1"
   width="400"
   height="400.16"
   id="svg6928"
   inkscape:version="0.91 r13725"
   sodipodi:docname="LG.svg">
  <sodipodi:namedview
     pagecolor="#ffffff"
     bordercolor="#666666"
     borderopacity="1"
     objecttolerance="10"
     gridtolerance="10"
     guidetolerance="10"
     inkscape:pageopacity="0"
     inkscape:pageshadow="2"
     inkscape:window-width="1382"
     inkscape:window-height="915"
     id="namedview13"
     showgrid="false"
     inkscape:zoom="0.35613756"
     inkscape:cx="446.4567"
     inkscape:cy="139.42912"
     inkscape:window-x="0"
     inkscape:window-y="0"
     inkscape:window-maximized="0"
     inkscape:current-layer="g6953" />
  <defs
     id="defs6930" />
  <metadata
     id="metadata6933">
    <rdf:RDF>
      <cc:Work
         rdf:about="">
        <dc:format>image/svg+xml</dc:format>
        <dc:type
           rdf:resource="http://purl.org/dc/dcmitype/StillImage" />
        <dc:title></dc:title>
      </cc:Work>
    </rdf:RDF>
  </metadata>
  <g
     transform="translate(28.243323,-188.28379)"
     id="layer1">
    <g
       transform="matrix(4.0918338,0,0,4.0918338,-2270.706,-2430.7801)"
       id="g6953">
      <g
         transform="matrix(1.25,0,0,-1.25,614.08361,730.13388)"
         id="g3005" />
      <g
         id="g3341"
         transform="matrix(2.6122167,0,0,2.6122146,-885.81106,-1111.5924)">
        <g
           id="g3009"
           transform="matrix(1.25,0,0,-1.25,571.08385,674.65663)">
          <path
             style="fill:#00abbf;fill-opacity:1;fill-rule:nonzero;stroke:none"
             id="path3011"
             d="m 0,0 -13.769,-16.562 c -0.142,-0.157 -0.196,-0.343 -0.131,-0.488 0.065,-0.157 0.206,-0.252 0.404,-0.252 l 21.277,-0.005 c 0.19,0 0.325,0.164 0.325,0.343 0,0.186 -0.088,0.297 -0.276,0.341 -0.766,0.179 -4.944,1.083 -7.946,1.993 -1.86,0.563 -2.588,2.161 -2.102,4.294 0.534,2.365 2.804,9.961 2.811,9.983 C 0.647,-0.196 0.612,0 0.448,0.078 0.267,0.174 0.108,0.13 0,0"
             inkscape:connector-curvature="0" />
        </g>
        <g
           id="g3013"
           transform="matrix(1.25,0,0,-1.25,567.64461,670.56638)">
          <path
             style="fill:#00abbf;fill-opacity:1;fill-rule:nonzero;stroke:none"
             id="path3015"
             d="M 0,0 C 8.239,0 14.942,-6.709 14.942,-15.008 14.942,-23.234 8.239,-29.95 0,-29.95 c -8.291,0 -14.996,6.716 -14.996,14.942 C -14.996,-6.709 -8.291,0 0,0 m 0,-1.826 c -7.272,0 -13.168,-5.895 -13.168,-13.182 0,-7.263 5.896,-13.16 13.168,-13.16 7.271,0 13.17,5.897 13.17,13.16 0,7.336 -5.899,13.182 -13.17,13.182"
             inkscape:connector-curvature="0" />
        </g>
      </g>
    </g>
  </g>
</svg>
