<?xml version="1.0" encoding="UTF-8" standalone="no"?>
<!-- Created with Inkscape (http://www.inkscape.org/) -->

<svg
   xmlns:dc="http://purl.org/dc/elements/1.1/"
   xmlns:cc="http://creativecommons.org/ns#"
   xmlns:rdf="http://www.w3.org/1999/02/22-rdf-syntax-ns#"
   xmlns:svg="http://www.w3.org/2000/svg"
   xmlns="http://www.w3.org/2000/svg"
   xmlns:sodipodi="http://sodipodi.sourceforge.net/DTD/sodipodi-0.dtd"
   xmlns:inkscape="http://www.inkscape.org/namespaces/inkscape"
   version="1.0"
   width="400"
   height="135.45399"
   id="svg2"
   inkscape:version="0.91 r13725"
   sodipodi:docname="LO.svg">
  <metadata
     id="metadata10">
    <rdf:RDF>
      <cc:Work
         rdf:about="">
        <dc:format>image/svg+xml</dc:format>
        <dc:type
           rdf:resource="http://purl.org/dc/dcmitype/StillImage" />
        <dc:title></dc:title>
      </cc:Work>
    </rdf:RDF>
  </metadata>
  <sodipodi:namedview
     pagecolor="#ffffff"
     bordercolor="#666666"
     borderopacity="1"
     objecttolerance="10"
     gridtolerance="10"
     guidetolerance="10"
     inkscape:pageopacity="0"
     inkscape:pageshadow="2"
     inkscape:window-width="1432"
     inkscape:window-height="913"
     id="namedview8"
     showgrid="false"
     inkscape:zoom="0.28045833"
     inkscape:cx="566.92914"
     inkscape:cy="261.85037"
     inkscape:window-x="0"
     inkscape:window-y="0"
     inkscape:window-maximized="0"
     inkscape:current-layer="g2720" />
  <defs
     id="defs4" />
  <g
     transform="translate(1711.4398,320.25639)"
     id="layer1">
    <g
       transform="translate(35.433073,35.404362)"
       id="g2720">
      <g
         id="g3338"
         transform="matrix(0.3762957,0,0,0.3762957,-1102.8654,-124.02139)">
        <path
           style="fill:#063778;fill-opacity:1;fill-rule:evenodd;stroke:none"
           id="path2660"
           d="m -1548.79,-369.3445 122.4085,0 c -11.6166,-19.35835 -18.2916,-42.02504 -18.2916,-66.25005 0,-99.40839 80.5836,-179.98349 180,-179.98349 l 616.22543,2.8167 -31.80001,110.90841 -121.56664,0 -69.77522,243.42518 -130.87506,-0.0167 69.80044,-243.4085 -122.82544,0 c 11.6166,19.36669 18.3,42.03338 18.3,66.25838 0,99.40006 -80.5914,179.98344 -180.0084,179.98344 l -3.225,-0.0166 -491.0168,-2.8167 101.5998,-354.30023 130.8505,0 -69.8005,243.40016 z m 233.0923,-66.24171 c 0,-41.29171 33.4746,-74.7584 74.7666,-74.7584 41.2915,0 74.7583,33.46669 74.7583,74.7584 0,41.28338 -33.4668,74.75841 -74.7583,74.75841 -41.292,0 -74.7666,-33.47503 -74.7666,-74.75841 z m 57.45,12.86665 41.6665,-83.57505 c 5.1336,2.50836 8.5914,7.99165 8.5914,14.08333 0,2.8917 -0.7746,5.60838 -2.1582,7.92504 l -35.8585,59.675 12.1086,-1.85832 c 0.6252,-0.1 1.2666,-0.14166 1.9248,-0.14166 6.7668,0 12.2587,5.49168 12.2587,12.25836 l 33.75,0 -3.0336,-3.81666 -6.1746,0 -1.3584,-1.875 17.9418,0 c 1.9332,3.23334 5.3832,5.45832 9.3582,5.69166 l -0.5754,1.86666 -75.8833,0 31.3837,24.09169 c 3.483,2.66664 5.6664,6.92502 5.6664,11.65002 0,4.06662 -1.6164,7.81663 -4.2834,10.49167 l -47.0419,-46.23338 -52.0914,0 -0.5748,-1.86666 54.3834,-8.3667"
           inkscape:connector-curvature="0" />
      </g>
    </g>
  </g>
</svg>
