<?xml version="1.0" encoding="UTF-8" standalone="no"?>
<!-- Generator: Adobe Illustrator 18.0.0, SVG Export Plug-In . SVG Version: 6.00 Build 0)  -->

<svg
   xmlns:dc="http://purl.org/dc/elements/1.1/"
   xmlns:cc="http://creativecommons.org/ns#"
   xmlns:rdf="http://www.w3.org/1999/02/22-rdf-syntax-ns#"
   xmlns:svg="http://www.w3.org/2000/svg"
   xmlns="http://www.w3.org/2000/svg"
   xmlns:sodipodi="http://sodipodi.sourceforge.net/DTD/sodipodi-0.dtd"
   xmlns:inkscape="http://www.inkscape.org/namespaces/inkscape"
   version="1.1"
   id="Layer_1"
   x="0px"
   y="0px"
   viewBox="0 0 400.00001 136.914"
   enable-background="new 0 0 485.4 81.4"
   xml:space="preserve"
   inkscape:version="0.91 r13725"
   sodipodi:docname="LS.svg"
   width="400"
   height="136.914"><metadata
     id="metadata25"><rdf:RDF><cc:Work
         rdf:about=""><dc:format>image/svg+xml</dc:format><dc:type
           rdf:resource="http://purl.org/dc/dcmitype/StillImage" /><dc:title></dc:title></cc:Work></rdf:RDF></metadata><defs
     id="defs23" /><sodipodi:namedview
     pagecolor="#ffffff"
     bordercolor="#666666"
     borderopacity="1"
     objecttolerance="10"
     gridtolerance="10"
     guidetolerance="10"
     inkscape:pageopacity="0"
     inkscape:pageshadow="2"
     inkscape:window-width="1393"
     inkscape:window-height="880"
     id="namedview21"
     showgrid="false"
     inkscape:zoom="0.6551298"
     inkscape:cx="242.7"
     inkscape:cy="40.700001"
     inkscape:window-x="0"
     inkscape:window-y="0"
     inkscape:window-maximized="0"
     inkscape:current-layer="Layer_1" /><g
     id="g3353"
     transform="matrix(1.7130584,0,0,1.7130584,0,-2.1835986e-6)"><path
       id="path3"
       d="m 123.4,20 -2.7,10.5 10.1,0 c 0,0 -2.1,9.8 -3.6,16.8 -1.1,5.3 -4.4,19 -2.1,24.1 1.7,3.7 6.2,5.9 9.8,6.1 7.4,0.4 16.4,0.2 16.4,0.2 l 2.6,-13.7 -5.5,0.1 c 0,0 -4.9,0.2 -5.5,-2.3 -1.5,-5.5 5.4,-31.6 5.4,-31.6 l 12.6,0 1.9,-10.3 -12.1,0.1 3.8,-17.1 c 0,0 -9.7,-0.3 -12,0 -3.2,0.4 -5.7,4.1 -6.8,7.5 -1.4,4.2 -2.3,9.5 -2.3,9.5 l -10,0.1 z"
       inkscape:connector-curvature="0"
       style="fill:#e2231a" /><path
       id="path5"
       d="m 155.9,77.9 c 0,0 1.4,-10.5 6.7,-17.3 7,-9.1 23.6,-16.4 28.8,-18.9 9.6,-4.5 15.3,-10.4 15.3,-15.7 0,-3.7 -3,-9.4 -10.1,-9.4 -7.1,0 -13.2,6 -13.9,13.9 -2,0 -4.9,0 -9.5,0 -2,0 -8.7,0 -8.7,0 0,0 2.6,-14.2 11,-20.5 6.7,-5 11.8,-7.2 21.1,-7.5 10.5,-0.4 20.5,3.3 25,10.5 4.4,7 5.6,18.4 -0.9,25.7 -5.8,6.4 -11.7,9.9 -16.9,12.9 -7,4.1 -16.5,8.9 -19.2,10.2 -2.3,1.1 -2,2.3 -2,2.3 l 30.4,0 c 4.6,0 7,-1.8 7,-1.8 0,0 2,6.4 -1.2,10.6 -1.1,1.5 -4.3,5 -9.9,5 l -53,0 z"
       inkscape:connector-curvature="0"
       style="fill:#e2231a" /><path
       id="path15"
       d="m 93.3,19.7 c -8.8,0.3 -15.9,1.8 -23.5,9.9 -8.1,8.6 -9.6,31.5 -7.4,36.2 2.2,4.7 6.3,13.5 26.5,14.1 23.4,0.8 29,-18.9 29,-18.9 l -18.6,0 c 0,0 -0.2,6.2 -9.7,6.4 C 76.1,67.7 79.1,53.9 79.1,53.9 l 41.2,0 c 0,0 0,-0.8 0.7,-11.6 C 122,30.6 111.2,19 93.3,19.7 m 10.2,22.9 -23.1,0.1 c 0,0 1.8,-11.7 13.1,-11.7 10.4,0 10,11.6 10,11.6"
       inkscape:connector-curvature="0"
       style="fill:#e2231a" /><path
       id="path17"
       d="M 56.9,3 C 53.3,3.1 49.1,3.8 46.7,6.6 44.3,9.5 43,15 42.4,18.5 c -0.2,0.9 -0.3,2 -0.5,3.2 0.4,0 0.7,0 0.9,-0.1 0.9,0 3,-0.1 3,-0.1 l 8.1,-11.2 2.1,0 -4.7,11.3 9.8,0.6 1.8,-2.1 C 65,10.4 66.7,3 66.7,3 c 0,0 -6.2,-0.1 -9.8,0 m -5.5,21.9 4.7,11.2 -2.1,0 -8.1,-11.2 c 0,0 -2.2,0 -3,-0.1 -0.4,0 -0.9,0 -1.4,-0.1 -0.7,4.5 -1.7,10.4 -3,16.9 -2.5,12.6 -2.3,21.5 -13.1,21.5 -3.5,0 -6.7,-1.6 -6.7,-4.1 0,-4.6 0.7,-12.6 0.7,-12.6 L 0.8,46.3 c 0,0 -0.8,7.7 -0.8,15.9 0,7.4 8.1,17 24.1,17 12.2,0 20.3,-2.9 27.3,-12.9 3.5,-5 5.3,-16.9 8,-29.8 0.8,-3.8 1.6,-7.6 2.4,-11.2 l -0.7,-0.8 -9.7,0.4 z"
       inkscape:connector-curvature="0"
       style="fill:#e2231a" /><path
       id="path19"
       d="m 229.3,0 c 2.4,0 4.2,1.9 4.2,4.3 0,2.4 -1.9,4.3 -4.2,4.3 -2.4,0 -4.3,-1.9 -4.3,-4.3 0,-2.4 1.9,-4.3 4.3,-4.3 l 0,0 z m 0,0.7 c -1.9,0 -3.4,1.6 -3.4,3.6 0,2 1.5,3.7 3.5,3.7 1.9,0 3.4,-1.6 3.4,-3.6 -0.1,-2.1 -1.6,-3.7 -3.5,-3.7 l 0,0 z m -0.9,6.1 -0.8,0 0,-4.8 c 0.4,-0.1 0.8,-0.1 1.4,-0.1 0.7,0 1.2,0.2 1.5,0.4 0.3,0.2 0.4,0.5 0.4,1 0,0.6 -0.4,1 -0.9,1.2 l 0,0 c 0.4,0.1 0.7,0.5 0.8,1.2 0.1,0.7 0.2,1 0.3,1.2 l -0.8,0 C 230.2,6.7 230.1,6.3 230,5.7 229.9,5.1 229.6,4.9 229,4.9 l -0.5,0 0,1.9 z m 0,-2.7 0.6,0 c 0.6,0 1.2,-0.2 1.2,-0.8 0,-0.4 -0.3,-0.8 -1.2,-0.8 -0.2,0 -0.4,0 -0.6,0 l 0,1.6 z"
       inkscape:connector-curvature="0"
       style="fill:#e2231a" /></g></svg>