<?xml version="1.0" encoding="UTF-8" standalone="no"?>
<!-- Created with Inkscape (http://www.inkscape.org/) -->

<svg
   xmlns:dc="http://purl.org/dc/elements/1.1/"
   xmlns:cc="http://creativecommons.org/ns#"
   xmlns:rdf="http://www.w3.org/1999/02/22-rdf-syntax-ns#"
   xmlns:svg="http://www.w3.org/2000/svg"
   xmlns="http://www.w3.org/2000/svg"
   xmlns:sodipodi="http://sodipodi.sourceforge.net/DTD/sodipodi-0.dtd"
   xmlns:inkscape="http://www.inkscape.org/namespaces/inkscape"
   version="1.1"
   width="400"
   height="400"
   id="svg9190"
   inkscape:version="0.91 r13725"
   sodipodi:docname="MU.svg">
  <sodipodi:namedview
     pagecolor="#ffffff"
     bordercolor="#666666"
     borderopacity="1"
     objecttolerance="10"
     gridtolerance="10"
     guidetolerance="10"
     inkscape:pageopacity="0"
     inkscape:pageshadow="2"
     inkscape:window-width="958"
     inkscape:window-height="740"
     id="namedview46"
     showgrid="false"
     inkscape:zoom="0.35613756"
     inkscape:cx="446.4567"
     inkscape:cy="106.8307"
     inkscape:window-x="0"
     inkscape:window-y="0"
     inkscape:window-maximized="0"
     inkscape:current-layer="g7906" />
  <defs
     id="defs9192">
    <clipPath
       id="clipPath7910">
      <path
         d="m 490.394,484.105 81.638,0 0,19.045 -81.638,0 0,-19.045 z"
         id="path7912"
         inkscape:connector-curvature="0" />
    </clipPath>
  </defs>
  <metadata
     id="metadata9195">
    <rdf:RDF>
      <cc:Work
         rdf:about="">
        <dc:format>image/svg+xml</dc:format>
        <dc:type
           rdf:resource="http://purl.org/dc/dcmitype/StillImage" />
        <dc:title></dc:title>
      </cc:Work>
    </rdf:RDF>
  </metadata>
  <g
     transform="translate(-80.40544,-215.69361)"
     id="layer1">
    <g
       transform="matrix(10.850787,0,0,-10.850787,-5237.2121,5865.1092)"
       id="g7906">
      <g
         clip-path="url(#clipPath7910)"
         id="g7908"
         transform="matrix(1.9355791,0,0,1.9355791,-459.12895,-453.24153)">
        <g
           transform="translate(533.5089,499.9364)"
           id="g7922" />
        <g
           id="g3374">
          <g
             id="g7914"
             transform="translate(509.4393,493.6272)">
            <path
               style="fill:#ffffff;fill-opacity:1;fill-rule:evenodd;stroke:none"
               id="path7916"
               d="m 0,0 c 0,-5.259 -4.263,-9.522 -9.522,-9.522 -5.26,0 -9.523,4.263 -9.523,9.522 0,5.259 4.263,9.522 9.523,9.522 C -4.263,9.522 0,5.259 0,0"
               inkscape:connector-curvature="0" />
          </g>
          <g
             id="g7918"
             transform="translate(501.8442,493.6269)">
            <path
               style="fill:#db262b;fill-opacity:1;fill-rule:evenodd;stroke:none"
               id="path7920"
               d="M 0,0 7.595,0 C 7.595,1.76 7.139,3.326 6.497,4.452 6.17,5.024 4.534,7.42 3.973,7.42 l -0.935,0 C -0.563,7.42 -4.09,4.004 -4.09,0.467 L 6.364,4.216 C 6.273,4.077 3.421,2.506 2.999,2.259 2.423,1.923 1.888,1.655 1.32,1.309 0.79,0.985 0,0.822 0,0"
               inkscape:connector-curvature="0" />
          </g>
          <g
             id="g7926"
             transform="translate(490.3937,493.6269)">
            <path
               style="fill:#db262b;fill-opacity:1;fill-rule:evenodd;stroke:none"
               id="path7928"
               d="M 0,0 2.804,0 1.751,1.869 3.678,1.395 7.122,7.598 15.248,7.595 C 15.034,7.887 13.299,8.782 12.846,8.932 11.927,9.235 10.963,9.523 9.757,9.523 l -0.527,0 C 4.25,9.523 0,5.085 0,0"
               inkscape:connector-curvature="0" />
          </g>
          <g
             id="g7930"
             transform="translate(509.4392,493.6269)">
            <path
               style="fill:#2f2483;fill-opacity:1;fill-rule:evenodd;stroke:none"
               id="path7932"
               d="m 0,0 -7.595,0 c 0.017,-0.76 0.816,-1.023 1.364,-1.324 0.57,-0.312 1.111,-0.67 1.675,-0.953 0.505,-0.255 3.084,-1.666 3.387,-1.929 l -10.501,3.72 c -0.015,-3.464 3.477,-6.933 6.938,-6.933 l 1.11,0 c 0.542,0 2.244,2.415 2.552,2.998 C -0.434,-3.214 0,-1.823 0,0"
               inkscape:connector-curvature="0" />
          </g>
          <g
             id="g7934"
             transform="translate(493.1978,493.6269)">
            <path
               style="fill:#2f2483;fill-opacity:1;fill-rule:evenodd;stroke:none"
               id="path7936"
               d="m 0,0 -2.804,0 c 0,-5.126 4.244,-9.522 9.289,-9.522 l 0.175,0 c 1.307,0 2.348,0.226 3.285,0.57 0.668,0.246 2.115,0.872 2.44,1.357 l -8.062,0 L 0,0 Z"
               inkscape:connector-curvature="0" />
          </g>
        </g>
      </g>
    </g>
  </g>
</svg>
