<?xml version="1.0" encoding="UTF-8" standalone="no"?>
<!-- Created with Inkscape (http://www.inkscape.org/) -->

<svg
   xmlns:dc="http://purl.org/dc/elements/1.1/"
   xmlns:cc="http://creativecommons.org/ns#"
   xmlns:rdf="http://www.w3.org/1999/02/22-rdf-syntax-ns#"
   xmlns:svg="http://www.w3.org/2000/svg"
   xmlns="http://www.w3.org/2000/svg"
   xmlns:sodipodi="http://sodipodi.sourceforge.net/DTD/sodipodi-0.dtd"
   xmlns:inkscape="http://www.inkscape.org/namespaces/inkscape"
   version="1.0"
   width="400"
   height="102.457"
   id="svg2367"
   inkscape:version="0.91 r13725"
   sodipodi:docname="NH.svg">
  <metadata
     id="metadata12">
    <rdf:RDF>
      <cc:Work
         rdf:about="">
        <dc:format>image/svg+xml</dc:format>
        <dc:type
           rdf:resource="http://purl.org/dc/dcmitype/StillImage" />
        <dc:title></dc:title>
      </cc:Work>
    </rdf:RDF>
  </metadata>
  <sodipodi:namedview
     pagecolor="#ffffff"
     bordercolor="#666666"
     borderopacity="1"
     objecttolerance="10"
     gridtolerance="10"
     guidetolerance="10"
     inkscape:pageopacity="0"
     inkscape:pageshadow="2"
     inkscape:window-width="1289"
     inkscape:window-height="868"
     id="namedview10"
     showgrid="false"
     inkscape:zoom="0.42736508"
     inkscape:cx="372.04724"
     inkscape:cy="108.42519"
     inkscape:window-x="0"
     inkscape:window-y="0"
     inkscape:window-maximized="0"
     inkscape:current-layer="g6564" />
  <defs
     id="defs2369" />
  <g
     transform="translate(-44.57449,-141.27615)"
     id="g6564">
    <g
       id="g3340"
       transform="matrix(0.56444344,0,0,0.56444344,9.4147307,116.13096)">
      <path
         id="path5609"
         style="fill:#202d86;fill-rule:nonzero;stroke:none"
         d="m 214.52392,226.06727 -11.081,-158.301139 -52.23941,0 -88.912487,158.301139 27.17505,0 71.235467,-127.168579 0,0 3.16603,-1.84684 c 1.58307,0 3.16604,1.31917 3.4299,3.166019 l 5.01287,71.76318 c -0.26386,3.69369 -3.42989,6.85972 -7.12356,6.85972 l -43.53278,0 -12.4003,22.95365 58.83526,0 0,0 c 3.69367,0 6.59585,2.90219 6.59585,6.33205 l 1.3192,17.9408 38.51991,0"
         inkscape:connector-curvature="0" />
      <path
         id="path5611"
         style="fill:#202d86;fill-rule:nonzero;stroke:none"
         d="m 511.07476,226.06727 -13.98327,-158.301139 -51.18406,0 -80.73358,158.301139 26.1197,0 64.37576,-125.58557 2.63841,-1.583009 c 1.84684,0 3.16604,1.05534 3.69367,2.902189 l 6.06822,70.18017 c 0.26386,4.22136 -2.63832,6.85972 -6.59585,6.85972 l -40.36683,0 -11.34486,22.95365 54.61387,0 0,0 c 3.69367,0 6.85971,2.63836 6.85971,7.12356 l 1.58297,17.14929 38.25614,0"
         inkscape:connector-curvature="0" />
      <path
         id="path5613"
         style="fill:#202d86;fill-rule:nonzero;stroke:none"
         d="m 362.79939,67.766131 -21.10684,122.683379 -2.63841,2.11068 -2.63832,-2.11068 -35.0901,-122.683379 -53.55853,0 -27.43882,158.301139 23.74515,0 21.10684,-122.41955 0,0 2.90218,-2.11067 2.90218,2.11067 34.82624,122.41955 53.29467,0 27.43891,-158.301139 -23.74515,0"
         inkscape:connector-curvature="0" />
      <path
         id="path5615"
         style="fill:#202d86;fill-rule:nonzero;stroke:none"
         d="m 625.05152,44.548641 -103.15953,181.518629 116.61517,0 103.15958,-181.518629 -116.61522,0"
         inkscape:connector-curvature="0" />
      <path
         id="path5617"
         style="fill:#00a7ee;fill-rule:nonzero;stroke:none"
         d="m 741.66674,44.548641 -103.15958,181.518629 29.28575,0 103.15953,-181.518629 -29.2857,0"
         inkscape:connector-curvature="0" />
    </g>
  </g>
</svg>
