<?xml version="1.0" encoding="UTF-8" standalone="no"?>
<!-- Generator: Adobe Illustrator 17.0.0, SVG Export Plug-In . SVG Version: 6.00 Build 0)  -->

<svg
   xmlns:dc="http://purl.org/dc/elements/1.1/"
   xmlns:cc="http://creativecommons.org/ns#"
   xmlns:rdf="http://www.w3.org/1999/02/22-rdf-syntax-ns#"
   xmlns:svg="http://www.w3.org/2000/svg"
   xmlns="http://www.w3.org/2000/svg"
   xmlns:xlink="http://www.w3.org/1999/xlink"
   xmlns:sodipodi="http://sodipodi.sourceforge.net/DTD/sodipodi-0.dtd"
   xmlns:inkscape="http://www.inkscape.org/namespaces/inkscape"
   version="1.1"
   id="Ebene_1"
   x="0px"
   y="0px"
   width="400"
   height="204.748"
   viewBox="0 0 400.00001 204.74801"
   enable-background="new 0 0 425.197 141.732"
   xml:space="preserve"
   inkscape:version="0.91 r13725"
   sodipodi:docname="OS.svg"><metadata
     id="metadata153"><rdf:RDF><cc:Work
         rdf:about=""><dc:format>image/svg+xml</dc:format><dc:type
           rdf:resource="http://purl.org/dc/dcmitype/StillImage" /><dc:title></dc:title></cc:Work></rdf:RDF></metadata><defs
     id="defs151" /><sodipodi:namedview
     pagecolor="#ffffff"
     bordercolor="#666666"
     borderopacity="1"
     objecttolerance="10"
     gridtolerance="10"
     guidetolerance="10"
     inkscape:pageopacity="0"
     inkscape:pageshadow="2"
     inkscape:window-width="1680"
     inkscape:window-height="998"
     id="namedview149"
     showgrid="false"
     inkscape:zoom="0.74788864"
     inkscape:cx="212.5985"
     inkscape:cy="70.865997"
     inkscape:window-x="-8"
     inkscape:window-y="-8"
     inkscape:window-maximized="1"
     inkscape:current-layer="g3" /><g
     id="g3"
     transform="translate(0,63.016005)"><g
       id="g103"
       transform="matrix(5.7150676,0,0,5.7150676,-1560.785,-326.2063)"><linearGradient
         id="SVGID_1_"
         gradientUnits="userSpaceOnUse"
         x1="305.12161"
         y1="49.983398"
         x2="310.36169"
         y2="74.636101"><stop
           offset="0"
           style="stop-color:#FFFFFF"
           id="stop106" /><stop
           offset="0.2184"
           style="stop-color:#FCFCFC"
           id="stop108" /><stop
           offset="0.3937"
           style="stop-color:#F2F2F2"
           id="stop110" /><stop
           offset="0.5541"
           style="stop-color:#E1E2E2"
           id="stop112" /><stop
           offset="0.7047"
           style="stop-color:#C9CACC"
           id="stop114" /><stop
           offset="0.7247"
           style="stop-color:#C6C7C8"
           id="stop116" /></linearGradient><path
         d="m 343.082,46.052 c 0,0 -25.516,1.86 -46.221,5.92 0,0 -1.594,0.302 -2.643,0.512 0,0 3.688,-0.62 4.863,0.758 1.23,1.442 3.049,5.058 -11.591,17.901 -4.85,4.249 -10.264,8.039 -14.39,10.735 l 9.605,-1.55 c 4.468,-4.253 16.272,-13.869 26.76,-19.37 17.76,-9.313 31.727,-14.259 33.534,-14.82 0.13,-0.04 0.083,-0.086 0.083,-0.086 z"
         id="path118"
         style="fill:url(#SVGID_1_)"
         inkscape:connector-curvature="0" /><path
         d="m 343.082,46.052 c 0,0 -25.516,1.86 -46.221,5.92 0,0 -1.594,0.302 -2.643,0.512 0,0 3.688,-0.62 4.863,0.758 1.23,1.442 3.049,5.058 -11.591,17.901 -4.85,4.249 -10.264,8.039 -14.39,10.735 l 9.605,-1.55 c 4.468,-4.253 16.272,-13.869 26.76,-19.37 17.76,-9.313 31.727,-14.259 33.534,-14.82 0.13,-0.04 0.083,-0.086 0.083,-0.086 z"
         id="path120"
         inkscape:connector-curvature="0"
         style="fill:#d81e05" /><g
         id="g122"><defs
           id="defs124"><path
             id="SVGID_2_"
             d="m 294.218,52.484 c 0,0 3.688,-0.62 4.864,0.758 1.231,1.442 3.048,5.058 -11.592,17.901 l -11.328,-15.37 10.832,-4.057 7.224,0.768 z"
             inkscape:connector-curvature="0" /></defs><clipPath
           id="SVGID_3_"><use
             xlink:href="#SVGID_2_"
             overflow="visible"
             id="use128"
             style="overflow:visible"
             x="0"
             y="0"
             width="100%"
             height="100%" /></clipPath><linearGradient
           id="SVGID_4_"
           gradientUnits="userSpaceOnUse"
           x1="1416.829"
           y1="377.32831"
           x2="1450.0005"
           y2="377.32831"
           gradientTransform="matrix(0.9249,0,0,0.9249,-1031.0892,-295.1562)"><stop
             offset="0"
             style="stop-color:#FFFFFF"
             id="stop131" /><stop
             offset="0.0886"
             style="stop-color:#FBFBFB"
             id="stop133" /><stop
             offset="0.1804"
             style="stop-color:#EEEFEF"
             id="stop135" /><stop
             offset="0.2737"
             style="stop-color:#DADADB"
             id="stop137" /><stop
             offset="0.368"
             style="stop-color:#BDBDBE"
             id="stop139" /><stop
             offset="0.4622"
             style="stop-color:#98999A"
             id="stop141" /><stop
             offset="0.5"
             style="stop-color:#87888A"
             id="stop143" /></linearGradient><path
           clip-path="url(#SVGID_3_)"
           d="m 279.433,55.866 8.763,1.316 c 16.5,-7.664 15.73,0.737 15.73,0.737 l 6.006,-8.169 c -4.388,0.651 -8.828,1.391 -13.069,2.222 0,0 -1.594,0.302 -2.643,0.512 l -14.789,3.319 -0.022,0.007 c -0.015,0.004 -0.024,0.01 -0.024,0.026 0,0.013 0.01,0.022 0.024,0.026 0.011,0.002 0.024,0.004 0.024,0.004 z"
           id="path145"
           style="fill:url(#SVGID_4_)"
           inkscape:connector-curvature="0" /><path
           clip-path="url(#SVGID_3_)"
           d="m 279.433,55.866 8.763,1.316 c 16.5,-7.664 15.73,0.737 15.73,0.737 l 6.006,-8.169 c -4.388,0.651 -8.828,1.391 -13.069,2.222 0,0 -1.594,0.302 -2.643,0.512 l -14.789,3.319 -0.022,0.007 c -0.015,0.004 -0.024,0.01 -0.024,0.026 0,0.013 0.01,0.022 0.024,0.026 0.011,0.002 0.024,0.004 0.024,0.004 z"
           id="path147"
           inkscape:connector-curvature="0"
           style="fill:#d81e05" /></g></g></g></svg>