<?xml version="1.0" encoding="UTF-8" standalone="no"?>
<!-- Created with Inkscape (http://www.inkscape.org/) -->

<svg
   xmlns:dc="http://purl.org/dc/elements/1.1/"
   xmlns:cc="http://creativecommons.org/ns#"
   xmlns:rdf="http://www.w3.org/1999/02/22-rdf-syntax-ns#"
   xmlns:svg="http://www.w3.org/2000/svg"
   xmlns="http://www.w3.org/2000/svg"
   xmlns:sodipodi="http://sodipodi.sourceforge.net/DTD/sodipodi-0.dtd"
   xmlns:inkscape="http://www.inkscape.org/namespaces/inkscape"
   version="1.0"
   width="400"
   height="247.851"
   id="svg8461"
   sodipodi:version="0.32"
   inkscape:version="0.91 r13725"
   sodipodi:docname="OU.svg"
   inkscape:output_extension="org.inkscape.output.svg.inkscape"
   sodipodi:modified="true">
  <metadata
     id="metadata18113">
    <rdf:RDF>
      <cc:Work
         rdf:about="">
        <dc:format>image/svg+xml</dc:format>
        <dc:type
           rdf:resource="http://purl.org/dc/dcmitype/StillImage" />
        <dc:title></dc:title>
      </cc:Work>
    </rdf:RDF>
  </metadata>
  <sodipodi:namedview
     inkscape:window-height="885"
     inkscape:window-width="1362"
     inkscape:pageshadow="2"
     inkscape:pageopacity="0.0"
     guidetolerance="10.0"
     gridtolerance="10.0"
     objecttolerance="10.0"
     borderopacity="1.0"
     bordercolor="#666666"
     pagecolor="#ffffff"
     id="base"
     inkscape:zoom="0.92519806"
     inkscape:cx="372.04724"
     inkscape:cy="203.74016"
     inkscape:window-x="46"
     inkscape:window-y="46"
     inkscape:current-layer="g18184"
     showgrid="false"
     inkscape:window-maximized="0" />
  <defs
     id="defs8463">
    <clipPath
       id="clp51">
      <path
         d="m 49.28,239.22 78.5,0 0,41.23 -78.5,0 0,-41.23 z"
         id="path1356"
         inkscape:connector-curvature="0" />
    </clipPath>
    <clipPath
       id="clp77">
      <path
         d="m 164.4,503.55 89.27,0 0,14.48 -89.27,0 0,-14.48 z"
         id="path2388"
         inkscape:connector-curvature="0" />
    </clipPath>
    <clipPath
       id="clp19">
      <path
         d="m 49.76,503.14 77.51,0 0,15.35 -77.51,0 0,-15.35 z"
         id="path254"
         inkscape:connector-curvature="0" />
    </clipPath>
    <clipPath
       id="clp18">
      <path
         d="m 51.62,538.86 73.73,0 0,40.12 -73.73,0 0,-40.12 z"
         id="path224"
         inkscape:connector-curvature="0" />
    </clipPath>
    <clipPath
       id="clp73">
      <path
         d="m 183.38,592.14 51.31,0 0,29.95 -51.31,0 0,-29.95 z"
         id="path2344"
         inkscape:connector-curvature="0" />
    </clipPath>
    <clipPath
       id="clp74">
      <path
         d="m 183.38,592.14 51.31,0 0,29.95 -51.31,0 0,-29.95 z"
         id="path2364"
         inkscape:connector-curvature="0" />
    </clipPath>
    <clipPath
       id="clp70">
      <path
         d="m 178.54,632.58 60.89,0 0,45.63 -60.89,0 0,-45.63 z"
         id="path2292"
         inkscape:connector-curvature="0" />
    </clipPath>
    <clipPath
       id="clp71">
      <path
         d="m 178.54,632.58 60.89,0 0,45.63 -60.89,0 0,-45.63 z"
         id="path2316"
         inkscape:connector-curvature="0" />
    </clipPath>
    <clipPath
       id="clp72">
      <path
         d="m 178.54,632.58 60.89,0 0,45.63 -60.89,0 0,-45.63 z"
         id="path2328"
         inkscape:connector-curvature="0" />
    </clipPath>
    <clipPath
       id="clp17">
      <path
         d="m 45.19,647.41 86.6,0 0,15.77 -86.6,0 0,-15.77 z"
         id="path162"
         inkscape:connector-curvature="0" />
    </clipPath>
    <clipPath
       id="clp4">
      <path
         d="m 45.29,692.27 86.37,0 0,22.6 -86.37,0 0,-22.6 z"
         id="path26"
         inkscape:connector-curvature="0" />
    </clipPath>
    <clipPath
       id="clp5">
      <path
         d="m 45.29,692.27 86.37,0 0,22.6 -86.37,0 0,-22.6 z"
         id="path42"
         inkscape:connector-curvature="0" />
    </clipPath>
    <clipPath
       id="clp6">
      <path
         d="m 45.29,692.27 86.37,0 0,22.6 -86.37,0 0,-22.6 z"
         id="path52"
         inkscape:connector-curvature="0" />
    </clipPath>
    <clipPath
       id="clp7">
      <path
         d="m 45.29,692.27 86.37,0 0,22.6 -86.37,0 0,-22.6 z"
         id="path62"
         inkscape:connector-curvature="0" />
    </clipPath>
    <clipPath
       id="clp8">
      <path
         d="m 45.29,692.27 86.37,0 0,22.6 -86.37,0 0,-22.6 z"
         id="path72"
         inkscape:connector-curvature="0" />
    </clipPath>
    <clipPath
       id="clp9">
      <path
         d="m 45.29,692.27 86.37,0 0,22.6 -86.37,0 0,-22.6 z"
         id="path82"
         inkscape:connector-curvature="0" />
    </clipPath>
    <clipPath
       id="clp10">
      <path
         d="m 45.29,692.27 86.37,0 0,22.6 -86.37,0 0,-22.6 z"
         id="path92"
         inkscape:connector-curvature="0" />
    </clipPath>
    <clipPath
       id="clp11">
      <path
         d="m 45.29,692.27 86.37,0 0,22.6 -86.37,0 0,-22.6 z"
         id="path102"
         inkscape:connector-curvature="0" />
    </clipPath>
    <clipPath
       id="clp12">
      <path
         d="m 45.29,692.27 86.37,0 0,22.6 -86.37,0 0,-22.6 z"
         id="path112"
         inkscape:connector-curvature="0" />
    </clipPath>
    <clipPath
       id="clp13">
      <path
         d="m 45.29,692.27 86.37,0 0,22.6 -86.37,0 0,-22.6 z"
         id="path122"
         inkscape:connector-curvature="0" />
    </clipPath>
    <clipPath
       id="clp14">
      <path
         d="m 45.29,692.27 86.37,0 0,22.6 -86.37,0 0,-22.6 z"
         id="path132"
         inkscape:connector-curvature="0" />
    </clipPath>
    <clipPath
       id="clp15">
      <path
         d="m 45.29,692.27 86.37,0 0,22.6 -86.37,0 0,-22.6 z"
         id="path142"
         inkscape:connector-curvature="0" />
    </clipPath>
    <clipPath
       id="clp16">
      <path
         d="m 45.29,692.27 86.37,0 0,22.6 -86.37,0 0,-22.6 z"
         id="path152"
         inkscape:connector-curvature="0" />
    </clipPath>
    <clipPath
       id="clipPath6577">
      <path
         d="m 45.29,692.27 86.37,0 0,22.6 -86.37,0 0,-22.6 z"
         id="path6579"
         inkscape:connector-curvature="0" />
    </clipPath>
    <clipPath
       id="clipPath6588">
      <path
         d="m 45.29,692.27 86.37,0 0,22.6 -86.37,0 0,-22.6 z"
         id="path6590"
         inkscape:connector-curvature="0" />
    </clipPath>
    <clipPath
       id="clipPath6596">
      <path
         d="m 45.29,692.27 86.37,0 0,22.6 -86.37,0 0,-22.6 z"
         id="path6598"
         inkscape:connector-curvature="0" />
    </clipPath>
    <clipPath
       id="clipPath6604">
      <path
         d="m 45.29,692.27 86.37,0 0,22.6 -86.37,0 0,-22.6 z"
         id="path6606"
         inkscape:connector-curvature="0" />
    </clipPath>
    <clipPath
       id="clipPath6612">
      <path
         d="m 45.29,692.27 86.37,0 0,22.6 -86.37,0 0,-22.6 z"
         id="path6614"
         inkscape:connector-curvature="0" />
    </clipPath>
    <clipPath
       id="clipPath6620">
      <path
         d="m 45.29,692.27 86.37,0 0,22.6 -86.37,0 0,-22.6 z"
         id="path6622"
         inkscape:connector-curvature="0" />
    </clipPath>
    <clipPath
       id="clipPath6628">
      <path
         d="m 45.29,692.27 86.37,0 0,22.6 -86.37,0 0,-22.6 z"
         id="path6630"
         inkscape:connector-curvature="0" />
    </clipPath>
    <clipPath
       id="clipPath6636">
      <path
         d="m 45.29,692.27 86.37,0 0,22.6 -86.37,0 0,-22.6 z"
         id="path6638"
         inkscape:connector-curvature="0" />
    </clipPath>
    <clipPath
       id="clipPath6644">
      <path
         d="m 45.29,692.27 86.37,0 0,22.6 -86.37,0 0,-22.6 z"
         id="path6646"
         inkscape:connector-curvature="0" />
    </clipPath>
    <clipPath
       id="clipPath6652">
      <path
         d="m 45.29,692.27 86.37,0 0,22.6 -86.37,0 0,-22.6 z"
         id="path6654"
         inkscape:connector-curvature="0" />
    </clipPath>
    <clipPath
       id="clipPath6660">
      <path
         d="m 45.29,692.27 86.37,0 0,22.6 -86.37,0 0,-22.6 z"
         id="path6662"
         inkscape:connector-curvature="0" />
    </clipPath>
    <clipPath
       id="clipPath6668">
      <path
         d="m 45.29,692.27 86.37,0 0,22.6 -86.37,0 0,-22.6 z"
         id="path6670"
         inkscape:connector-curvature="0" />
    </clipPath>
    <clipPath
       id="clipPath6676">
      <path
         d="m 45.29,692.27 86.37,0 0,22.6 -86.37,0 0,-22.6 z"
         id="path6678"
         inkscape:connector-curvature="0" />
    </clipPath>
    <clipPath
       id="clipPath6684">
      <path
         d="m 45.19,647.41 86.6,0 0,15.77 -86.6,0 0,-15.77 z"
         id="path6686"
         inkscape:connector-curvature="0" />
    </clipPath>
    <clipPath
       id="clipPath7915">
      <path
         d="m 178.54,632.58 60.89,0 0,45.63 -60.89,0 0,-45.63 z"
         id="path7917"
         inkscape:connector-curvature="0" />
    </clipPath>
    <clipPath
       id="clipPath7930">
      <path
         d="m 178.54,632.58 60.89,0 0,45.63 -60.89,0 0,-45.63 z"
         id="path7932"
         inkscape:connector-curvature="0" />
    </clipPath>
    <clipPath
       id="clipPath7939">
      <path
         d="m 178.54,632.58 60.89,0 0,45.63 -60.89,0 0,-45.63 z"
         id="path7941"
         inkscape:connector-curvature="0" />
    </clipPath>
    <clipPath
       id="clipPath6718">
      <path
         d="m 51.62,538.86 73.73,0 0,40.12 -73.73,0 0,-40.12 z"
         id="path6720"
         inkscape:connector-curvature="0" />
    </clipPath>
    <clipPath
       id="clipPath7984">
      <path
         d="m 164.4,503.55 89.27,0 0,14.48 -89.27,0 0,-14.48 z"
         id="path7986"
         inkscape:connector-curvature="0" />
    </clipPath>
    <clipPath
       id="clipPath7386">
      <path
         d="m 49.28,239.22 78.5,0 0,41.23 -78.5,0 0,-41.23 z"
         id="path7388"
         inkscape:connector-curvature="0" />
    </clipPath>
  </defs>
  <g
     id="g18184"
     transform="translate(0,-159.62932)">
    <g
       id="g3435"
       transform="matrix(0.92159263,0,0,0.92159331,-138.47137,143.37585)">
      <path
         d="m 150.25225,17.63627 228.34375,208.1875 0,-31.6875 -34.40625,0 0,-38.90625 34.40625,0 0,-36.40625 34.0625,0 0,-36.90625 37.84375,0 0,-35.5625 37.90625,0 0,34.84375 c 20.4931,-24.2841 41.96873,-36.31251 41.96875,-36.3125 l -39.25,0 0,-27.25 -42.6875,0 0,26 -30.125,0 0.15625,-26 -45.53125,0 0,23.75 -24.71875,0 0,-23.75 -49.8125,0 0,20.125 -19.84375,0 0,-20.125 -128.3125,0 z m 382.40625,0 0,25.625 c -2e-5,-1e-5 23.4595,-14.7919 51.625,-25.625 l -51.625,0 z m -150.8125,32.5 29.65625,0 0,29.625 -29.65625,0 0,-29.625 z m -69.65625,2.34375 24.3125,0 0,24.28125 -24.3125,0 0,-24.28125 z m -68.1875,2.34375 19.5625,0 0,19.59375 -19.5625,0 0,-19.59375 z m 207.75,29.96875 0,31.25 15.53125,0 c 6.1656,-14.9857 18.49999,-31.24999 18.5,-31.25 l -34.03125,0 z m -105.78125,0.5625 29.9375,0 0,29.875 -29.9375,0 0,-29.875 z m -68.78125,3.25 24.625,0 0,24.53125 -24.625,0 0,-24.53125 z m 136.6875,32.3125 0,33.03125 33.0625,0 0,-33.03125 -33.0625,0 z m -102.875,0.8125 29.625,0 0,29.59375 -29.625,0 0,-29.59375 z m 68.78125,36.1875 0,30.4375 30.09375,0 0,-30.4375 -30.09375,0 z m 39,37.375 0,23.9375 25.5,0 0,-23.9375 -25.5,0 z m -33.8125,36.21875 24.75,22.65625 0,-22.65625 -24.75,0 z m 38.09375,34.75 22.21875,20.3125 0,-20.3125 -22.21875,0 z"
         style="font-weight:bold;font-size:18.17300034px;font-family:Arial;letter-spacing:-1.79190004;word-spacing:0;fill:#db0038;fill-rule:nonzero;stroke:none"
         id="path1378"
         inkscape:connector-curvature="0" />
    </g>
  </g>
</svg>
