<?xml version="1.0" encoding="UTF-8" standalone="no"?>
<!-- Created with Inkscape (http://www.inkscape.org/) -->

<svg
   xmlns:dc="http://purl.org/dc/elements/1.1/"
   xmlns:cc="http://creativecommons.org/ns#"
   xmlns:rdf="http://www.w3.org/1999/02/22-rdf-syntax-ns#"
   xmlns:svg="http://www.w3.org/2000/svg"
   xmlns="http://www.w3.org/2000/svg"
   xmlns:sodipodi="http://sodipodi.sourceforge.net/DTD/sodipodi-0.dtd"
   xmlns:inkscape="http://www.inkscape.org/namespaces/inkscape"
   width="400"
   height="260.97299"
   id="svg2"
   version="1.1"
   inkscape:version="0.91 r13725"
   sodipodi:docname="PC.svg">
  <metadata
     id="metadata29">
    <rdf:RDF>
      <cc:Work
         rdf:about="">
        <dc:format>image/svg+xml</dc:format>
        <dc:type
           rdf:resource="http://purl.org/dc/dcmitype/StillImage" />
        <dc:title></dc:title>
      </cc:Work>
    </rdf:RDF>
  </metadata>
  <defs
     id="defs27" />
  <sodipodi:namedview
     pagecolor="#ffffff"
     bordercolor="#666666"
     borderopacity="1"
     objecttolerance="10"
     gridtolerance="10"
     guidetolerance="10"
     inkscape:pageopacity="0"
     inkscape:pageshadow="2"
     inkscape:window-width="1680"
     inkscape:window-height="998"
     id="namedview25"
     showgrid="false"
     inkscape:zoom="0.89276139"
     inkscape:cx="186.5"
     inkscape:cy="125.5"
     inkscape:window-x="-8"
     inkscape:window-y="-8"
     inkscape:window-maximized="1"
     inkscape:current-layer="layer1" />
  <g
     inkscape:label="Layer 1"
     inkscape:groupmode="layer"
     id="layer1"
     transform="translate(-312.36275,-106.59871)">
    <g
       id="g3357"
       transform="matrix(1.7875195,0,0,1.7875217,-514.61764,-101.77577)">
      <polyline
         transform="matrix(12.058901,0,0,12.058901,-2986.9164,-7270.6206)"
         clip-path="none"
         id="polyline7255"
         points="304.342,612.779 296.852,612.779 286.473,624.513 299.726,624.513 "
         style="fill:#ffc20e" />
      <polygon
         transform="matrix(12.058901,0,0,12.058901,-2986.9164,-7270.6206)"
         clip-path="none"
         id="polygon7257"
         points="304.342,612.779 296.852,612.779 286.473,624.513 299.726,624.513 "
         stroke-miterlimit="3.864"
         style="fill:none;stroke:#ffc20e;stroke-width:0.373;stroke-miterlimit:3.86400008" />
      <path
         clip-path="none"
         id="path7259"
         d="m 621.77002,210.03422 c 0.25324,-1.06118 0.44618,-2.46001 0.56677,-3.31619 0.0965,-0.86825 -1.62795,-5.58328 -2.01384,-6.75299 -0.38588,-1.18177 -1.01295,-4.57032 -0.78383,-5.40239 0.33765,-1.16971 0.68736,-1.9053 1.10942,-2.82178 0.45824,-0.90442 0.79589,-1.48324 1.70031,-2.5806 0.86824,-1.09736 2.89413,-4.42562 3.55737,-7.35593 0.21706,-0.9406 2.82178,-4.78739 3.00267,-4.90798 0.21706,-0.1447 0.10853,2.58061 0,3.19561 -0.10853,0.60295 3.0509,-0.615 3.32825,-0.86824 0.27736,-0.24118 -1.26618,4.06385 -1.55559,4.42562 -0.27736,0.37382 1.43501,-0.0603 1.88119,-0.24118 0.44617,-0.19294 1.61589,0.42206 1.44706,0.73559 -0.16882,0.31353 -4.78738,5.2818 -5.66768,5.77622 -0.89236,0.49441 -1.62795,1.77265 -2.01384,2.46001 -0.37382,0.66324 -0.615,4.4618 0,3.54532 0.62707,-0.91648 3.56944,-3.0509 3.88297,-3.19561 0.33765,-0.12059 1.68825,0.98883 1.68825,0.98883 0,0 -6.34299,7.29564 -6.46358,8.09152 -0.10853,0.79589 1.85708,-0.38588 1.85708,-0.38588 0,0 -0.79589,7.93475 -1.07325,9.623 -0.26529,1.65207 -1.16971,3.24385 -1.67618,3.89503 -0.49442,0.69941 -2.21884,1.30236 -3.34032,1.48324 l -3.02678,0.49442 c 0.30147,1.7003 0.59088,3.79855 0.45823,4.41355 -0.15676,0.92854 -0.82,3.49708 -2.55648,5.52298 -1.72443,2.0259 -2.60473,3.13531 -3.1112,4.05179 -0.50647,0.92854 -0.83206,4.18444 -0.33765,5.02856 0.50648,0.85618 2.44796,4.98033 2.44796,5.8968 0,0.91648 -0.37383,1.71237 -0.75971,2.46002 -0.39795,0.73559 -1.61589,3.87091 -1.89325,5.02856 -0.27735,1.16972 -0.55471,4.6668 -0.55471,4.6668 0,0.55471 -1.39883,3.79855 -1.44707,4.05179 -0.0603,0.25323 -2.06207,1.66413 -3.21972,1.47118 -1.18178,-0.18088 -2.68914,0.12059 -2.89414,-0.24117 -0.22912,-0.37383 -0.56677,-1.24207 -0.45824,-1.73649 0.10853,-0.49441 2.1706,-2.5806 2.66502,-3.06296 0.51853,-0.49441 2.35148,-4.6065 2.78561,-6.27063 0.45823,-1.66412 0.89235,-5.33003 0.67529,-5.88474 -0.21706,-0.55471 -4.00355,-4.05179 -4.57032,-5.04062 -0.55471,-0.97677 -1.65207,-3.83473 -2.26707,-5.61945 -0.61501,-1.77266 -2.72531,0.27736 -3.29208,0.96471 -0.55471,0.66324 -1.78472,3.29208 -1.44707,4.28091 0.32559,0.97678 1.66413,2.58061 1.66413,2.82179 0,0.24118 -1.04913,1.9053 -1.54354,1.9656 -0.51854,0.0603 -2.18266,0.28941 -3.01473,0.49441 -0.83206,0.18089 -6.68063,2.44796 -7.01828,2.44796 l -1.77266,0 c -0.49441,0 -1.06118,2.87002 -1.23,3.30414 -0.16883,0.42206 -1.16972,1.33854 -1.5556,1.47118 -1.44707,0.49442 -3.66591,-0.48235 -4.32915,-0.97677 -0.42206,-0.28941 -1.35059,-1.53148 -0.79589,-2.20678 0.56677,-0.69941 2.46002,-3.31619 3.34032,-4.42561 0.48236,-0.59089 4.01561,-0.25324 6.46357,-1.10942 0.95265,-0.32559 5.23356,-1.83295 5.55915,-2.71325 0.33765,-0.84413 0.6753,-1.01295 0.4703,-1.56766 -0.22912,-0.55471 -0.89236,-1.39883 -1.56766,-2.14648 -0.66324,-0.7356 -4.35326,-3.89503 -2.56854,-6.21034 1.14559,0 5.43856,0.48236 3.55737,0 -1.89324,-0.50647 -3.67796,-0.14471 -5.57121,-0.14471 -1.89325,0 -2.7856,-0.12058 -4.22061,-0.49441 -1.44707,-0.34971 -5.46269,-3.55738 -6.78916,-5.02856 -1.33854,-1.48325 -7.01828,-5.65563 -7.91064,-6.01739 -0.8803,-0.36177 -1.54354,-0.60295 -2.00178,-0.96472 -0.43412,-0.37382 -0.36177,-1.09736 -1.03707,-2.43589 -0.6753,-1.3506 -4.30502,-7.16299 -4.98032,-7.64535 -0.66324,-0.49441 -2.99061,4.05179 -3.55738,5.2818 -0.54265,1.23001 -0.21706,2.56855 0,3.19561 0.22912,0.615 0.45824,1.0853 0.45824,1.72442 0,0.60295 -0.22912,1.83296 -0.78383,2.56855 -0.55471,0.73559 0.21706,0.86824 0.66324,1.59177 0.44618,0.75971 -0.44618,2.95443 -1.00089,3.93121 -0.55471,0.98883 -1.23001,1.60383 -1.66413,1.48324 -0.44618,-0.12059 -1.12147,-1.48324 -1.67618,-2.46002 -0.55471,-0.98883 -0.43412,-1.84501 -0.0965,-2.70119 0.32559,-0.85618 0.43412,-1.24207 0.43412,-1.9656 0,-0.74765 -1.00089,-1.33854 -1.12148,-2.32737 -0.10853,-0.97677 0.22912,-1.72442 0.89236,-2.82178 0.67529,-1.10942 2.56854,-6.13798 2.7856,-7.12681 0.22912,-0.97677 0.38589,-3.06296 0.78383,-3.7865 0.78383,-1.47118 2.55649,-1.47118 3.34032,-0.98883 0.77177,0.49442 5.84856,3.09914 4.67885,2.2912 -0.0121,-0.0965 -0.15677,-0.69942 -0.33765,-2.54443 -0.21706,0.24117 -2.77355,-3.66591 -3.23178,-4.17238 -0.66324,-0.74765 -1.10942,-1.3506 -2.00178,-0.62707 -0.89236,0.74766 -5.67974,4.90798 -5.0165,5.88475 0.66323,0.98883 -0.66324,2.33942 -0.66324,2.33942 0,0 -0.25324,1.26619 0.55471,1.71237 2.46001,1.36265 -0.0965,4.31709 -0.21707,4.67885 0,0 -2.14648,-0.0121 -2.56854,-0.13265 -0.14471,-0.0362 -2.21884,-2.80972 -2.09825,-3.55737 0.0965,-0.73559 0.43412,-1.71237 0.54265,-2.32737 0.12059,-0.60294 -0.21706,-1.47119 -0.44618,-1.83295 -0.0965,-0.18089 -0.0603,-0.66324 0.44618,-1.3506 1.01295,-1.33854 2.44796,-3.56943 3.67797,-4.89591 1.23,-1.36266 4.12414,-6.1621 4.66679,-6.37916 0.56677,-0.25324 0.89236,-0.86824 1.56766,-0.50648 0.66324,0.37383 3.2559,1.96561 3.2559,1.96561 -0.56677,-1.25413 -1.42295,-3.07502 -1.62795,-3.5212 -0.33765,-0.74766 -0.73559,-2.25502 -0.30147,-2.36355 0.45823,-0.13265 1.12147,-0.13265 2.01383,0.97677 0.8803,1.10942 -2.27913,-3.90708 -2.83384,-4.76326 -0.54265,-0.85619 -0.72353,-2.35149 -0.72353,-2.35149 0,0 1.66413,0.61501 2.20678,1.3506 0.56676,0.73559 -0.92854,-2.07413 -1.36266,-2.79767 -0.45824,-0.73559 -1.30236,-2.12236 -0.84412,-2.48413 0.43412,-0.37383 1.50736,-0.71148 0.72353,-1.79678 -0.77177,-1.12147 -1.84501,-4.32914 -2.18266,-5.19738 -0.32559,-0.85619 2.89414,0.37382 2.89414,0.37382 -0.89236,-1.10942 -5.58327,-8.79094 -5.11298,-9.828 0.55471,-1.23001 4.29297,1.98972 3.5212,0.8803 -0.78383,-1.10942 -7.46446,-10.02095 -6.29474,-11.19066 0.92853,-0.9406 2.19472,0.27735 2.23089,0.24118 0.0121,-0.0121 -0.0965,-0.14471 -0.36177,-0.49442 -1.09736,-1.45913 -5.45062,-6.49975 -4.55826,-7.60917 0.89236,-1.09736 0.89236,-1.09736 2.35149,0 1.43501,1.10942 1.12147,0.19295 -0.38589,-1.07324 -3.40061,-2.85796 -3.96738,-5.14915 -3.96738,-5.17327 0.0121,-0.0241 4.18444,0.39795 7.36799,3.46091 -2.73737,-3.09914 -10.38271,-11.96243 -9.81594,-12.68597 0.89235,-1.09736 8.6824,4.29297 11.80566,7.25946 3.1112,2.94237 8.89947,10.91331 11.46801,15.21834 2.27914,3.84679 6.75299,16.4001 6.68064,16.44834 0.62706,0.12059 1.0853,0.38588 1.77265,0.615 1.27825,0.42206 3.55738,2.0259 4.78739,3.19561 1.21795,1.16971 2.27913,2.93031 3.21972,4.66679 0.95266,1.72443 1.78472,4.92004 2.2309,6.99417 0.43412,2.08619 0.33765,5.47474 0.22912,7.00622 -0.12059,1.53148 -0.615,3.91914 -0.89236,4.65473 -0.34971,0.90442 -0.80794,1.68825 -0.89236,1.84502 -0.0482,-0.75971 -0.27735,1.41089 0.21706,3.30414 0.32559,1.24206 0.86824,2.8459 1.29031,3.59355 0.77177,-0.69942 2.44795,-2.1706 3.26796,-3.23179 1.33854,-1.72442 2.12236,-5.58327 2.00178,-9.20094 -0.0844,-3.3162 -0.77177,-9.58683 -1.32648,-12.66185 -0.56677,-3.06296 -0.89236,-7.60916 -0.56677,-10.68418 0.33765,-3.0509 2.12236,-8.94771 3.56943,-11.6489 1.44707,-2.70119 5.90886,-8.35682 8.57388,-10.92536 2.66502,-2.58061 3.67797,-3.55738 7.01828,-6.37916 3.32826,-2.80973 11.14243,-7.2474 13.80744,-8.71859 2.66502,-1.47118 7.89858,-3.69002 10.12948,-4.28091 2.24296,-0.63912 11.52831,-3.3162 12.91508,-3.3162 1.98972,0 0,2.20678 -1.00089,2.94238 -1.00088,0.73559 -4.46179,3.79855 -5.90886,4.90797 -1.10942,0.84412 0.32559,1.47118 1.44707,1.23001 1.10942,-0.24118 2.00178,0.97677 1.44707,2.08619 -0.55471,1.09736 -8.34476,8.35681 -7.12681,8.10358 1.23001,-0.25324 3.12325,-0.36177 3.4609,0.85618 0.30148,1.18177 -9.57476,8.22417 -8.46535,7.8624 1.10942,-0.37382 1.5556,1.32648 1.32648,1.9656 -0.22912,0.60295 -2.67707,3.06296 -4.32914,3.90709 -1.68825,0.86824 -4.12415,2.21884 -2.67708,2.21884 1.43501,0 -0.98883,2.95443 -2.00178,3.9312 -1.01294,0.98883 -3.77443,3.71414 -3.58149,4.29297 0.56677,1.47118 -0.86824,3.30414 -2.66502,4.77532 -1.7606,1.48325 -2.68913,1.7606 -1.7606,2.46002 1.10942,0.84412 -0.24117,2.43589 -1.24206,3.55737 -1.00089,1.10942 -3.28002,2.58061 -1.77266,2.58061 2.00178,0 1.00089,2.5806 0.12059,3.43678 -0.89236,0.85619 -3.01473,1.47119 -2.33943,2.7012 0.78383,1.42295 -0.33765,2.33942 -1.21795,2.95443 -0.89236,0.60294 -2.72531,0.0362 -1.24206,0.97677 0.77177,0.48236 -2.44796,3.79855 -2.44796,4.28091 0,1.24207 -1.56766,1.9656 -1.56766,3.06296 0,2.76149 -4.32914,2.95443 -4.10002,3.58149 0.49441,1.39884 -0.79589,2.31531 -1.78472,2.80973 -1.00089,0.49441 -2.79767,0.74765 -1.79678,1.73648 1.04913,1.02501 -3.08708,2.90619 -2.55649,2.80972 0.14471,0.19295 4.57033,1.66413 5.90887,1.59178 1.33853,-0.0603 9.23711,0.13265 9.79182,0.25324 0.55471,0.12058 4.78739,2.88207 5.67975,4.03973 0.89235,1.16971 1.77265,2.71325 2.12236,3.78649 0.0241,0.205 3.09914,-1.03706 3.9915,-4.83562"
         style="fill:#ffffff"
         inkscape:connector-curvature="0" />
      <path
         clip-path="none"
         id="path7261"
         d="m 591.12835,230.76347 c 0.10853,0.25324 0.22912,0.50648 0.32559,0.7356 0.33765,0.79588 1.16972,1.61589 1.83295,2.33942 0.66324,0.7356 1.33854,1.59178 1.5556,2.14649 0.22912,0.54265 0.0603,1.27824 -0.26529,2.14648 -0.33765,0.85618 -1.45913,1.3506 -2.46002,1.78472 -1.00089,0.42206 -2.32737,0.74765 -3.28002,1.09736 -0.94059,0.37383 -2.2309,0.43412 -3.1112,0.68736 -0.89236,0.24118 -1.06118,0.12059 -1.95354,0.12059 -0.89236,0 -0.66324,-0.18089 -1.33854,0.12059 -0.66324,0.31353 -0.49441,0.5547 -0.72353,1.18177 -0.22912,0.615 -0.72353,1.04912 -1.23001,1.71236 -0.49441,0.68736 -0.54265,0.56677 -1.09736,1.23001 -0.56677,0.68736 -0.16882,0.37383 -0.16882,0.92853 0,0.54266 0.21706,0.43413 0.94059,0.91648 0.72354,0.49442 1.61589,0.6753 2.44796,0.79589 0.83206,0.12059 1.16971,-0.0603 1.56766,-0.19294 0.38588,-0.12059 0.71147,-0.78383 0.89235,-1.23001 0.15677,-0.43412 0.0482,-0.74765 0.15677,-1.53148 0.10853,-0.79589 0.27735,-1.09736 0.44618,-1.59178 0.16882,-0.49441 0.33765,-0.43412 0.83206,-0.43412 0.50648,0 1.5556,0.12059 1.89325,0.12059 0.33765,0 0.27736,-0.18088 0.60295,-0.36177 0.33765,-0.19294 1.9053,-0.91647 2.95443,-1.27824 1.06118,-0.37383 2.89413,-0.68736 3.7262,-0.86824 0.84412,-0.18088 2.39972,-0.30147 2.89413,-0.36177 0.50648,-0.0724 0.56677,-0.24118 0.7356,-0.49441 0.16882,-0.24118 0.26529,-0.49442 0.26529,-0.72354 0,-0.25323 -0.49441,-0.75971 -1.09736,-1.42295 -0.62706,-0.67529 -0.39794,-0.79588 -0.73559,-1.78471 -0.32559,-0.96472 0,-1.51943 0.0603,-2.20678 0.0482,-0.6753 0.8803,-1.77266 1.44707,-2.44796 0.49442,-0.60294 1.66413,-0.91648 2.37561,-1.10942 l 1.59177,0 c 0.0603,0.14471 0.0965,0.28942 0.14471,0.43412 0.62706,1.7606 2.06207,4.53415 2.62884,5.52298 0.55471,0.97677 1.66413,1.9656 2.83384,2.88208 1.15765,0.90441 1.5556,1.89324 1.77266,2.43589 0.22912,0.57883 0.18088,1.48325 0.18088,2.39973 0,0.92853 -0.39794,1.53148 -0.84412,3.1956 -0.44618,1.67619 -1.38678,3.50914 -1.84501,4.72709 -0.43412,1.23001 -0.98883,1.79678 -1.49531,2.27914 -0.49441,0.48235 -1.06118,0.78382 -1.66413,1.39883 -0.615,0.62706 -0.44618,0.68736 -0.56676,1.16971 -0.10853,0.50648 0.22911,0.78383 0.45823,1.16971 0.21706,0.37383 0.33765,0 1.49531,0.19295 1.16971,0.19294 2.50825,-0.12059 2.94237,-0.30148 0.45824,-0.19294 0.62706,-0.36176 0.6753,-0.615 0.0482,-0.25324 0.0482,-0.62706 0,-1.24207 -0.0482,-0.60294 0.27735,-0.79588 0.44618,-1.27824 0.16882,-0.48236 0.50647,-0.6753 0.75971,-1.03706 0.28941,-0.36177 0.24118,-0.62707 0.24118,-1.16972 0,-0.56677 -0.0603,-1.48324 -0.0603,-2.09825 0,-0.60294 0.50648,-1.39883 0.77177,-2.56854 0.27736,-1.16972 0.50648,-1.90531 0.68736,-2.71326 0.15676,-0.79588 0.8803,-1.77265 1.25412,-2.52031 0.39795,-0.73559 0.39795,-1.27824 0.39795,-2.21883 0,-0.90442 -0.10853,-1.39884 -0.50648,-1.83296 -0.38588,-0.41 -0.43412,-0.85618 -1.12147,-1.39883 -0.66324,-0.56677 -0.54265,-1.12148 -1.03707,-1.9656 -0.50647,-0.85618 -0.24118,-1.77266 -0.18088,-2.88208 0.0362,-0.83206 0.30147,-1.36265 0.65118,-1.9656 l 1.51942,0 c -0.54265,0.97677 -0.73559,1.88119 -0.83206,2.50825 -0.15677,0.92854 0,1.66413 0.27735,2.53237 0.27735,0.85618 1.38677,1.95354 1.88119,2.62884 0.50647,0.68736 0.62706,1.30236 0.62706,1.84501 0,0.54266 0.0482,2.0259 -0.0724,2.62884 -0.10853,0.62707 -0.21706,1.48325 -0.21706,1.48325 0,0 -0.89236,0.55471 -1.44707,1.16971 -0.55471,0.62707 -0.2653,0.85619 -0.44618,1.54354 -0.16882,0.6753 -0.2653,1.7606 -0.615,2.37561 -0.32559,0.63912 -0.44618,1.41089 -0.61501,1.9656 -0.16882,0.55471 0.16883,1.60383 0.16883,2.23089 0,0.60295 -0.21706,0.90442 -0.71148,1.51943 -0.50647,0.62706 -0.74765,0.98882 -0.79589,1.35059 -0.0482,0.37383 0,0.54265 0.24118,0.85618 0.22912,0.31354 0.22912,0.25324 -0.12059,0.60295 -0.31353,0.37382 -0.72353,0.94059 -1.37471,1.48324 -0.68736,0.54265 -1.24207,0.36177 -2.52031,0.61501 -1.26619,0.25323 -1.04913,0 -2.15854,-0.0724 -1.10942,-0.0603 -0.83207,-0.18088 -1.39884,-0.27735 -0.54265,-0.14471 -0.37382,-0.56677 -0.54265,-1.24207 -0.16882,-0.6753 0.10853,-1.35059 0.2653,-1.9053 0.16882,-0.55471 1.06118,-1.33854 1.67619,-2.0259 0.615,-0.6753 1.06118,-1.16971 1.44706,-1.47118 0.38589,-0.30148 0.27736,-0.48236 0.56677,-1.16972 0.2653,-0.6753 0.98883,-1.9053 1.32648,-2.76149 0.33765,-0.85618 0.83207,-3.79855 0.9406,-5.17327 0.10853,-1.32647 -0.6753,-2.62884 -1.06119,-3.1956 -0.37382,-0.54265 -1.83295,-1.39884 -2.49619,-1.89325 -0.66324,-0.49442 -0.50647,-0.92854 -1.27824,-2.14649 -0.78383,-1.23 -1.06119,-2.64089 -1.33854,-3.37649 -0.0965,-0.24118 -0.22912,-0.59088 -0.39795,-0.96471 -0.12058,0.0121 -0.24117,0.0241 -0.38588,0.0362 -0.49442,0.0724 -0.55471,0.205 -1.78472,0.63912 -1.21795,0.42206 -1.15765,1.09736 -1.43501,1.65207 -0.27735,0.54265 -0.22912,1.23001 -0.22912,1.9053 0,0.66324 1.29031,2.0259 1.6159,2.50826 0.33765,0.49441 0.16882,0.74765 -0.15677,1.42295 -0.33765,0.66324 -0.62706,0.72353 -1.12148,1.21794 -0.50647,0.49442 -0.615,0.37383 -2.1103,0.6753 -1.50737,0.30148 -3.12326,0.42206 -4.51003,0.79589 -1.39884,0.37383 -2.83385,0.98883 -3.40061,1.41089 -0.55471,0.43412 -0.55471,0.43412 -0.83207,0.55471 -0.27735,0.13265 -0.77177,-0.0603 -1.43501,0 -0.68735,0.0724 -0.51853,0.36177 -0.62706,0.78383 -0.10853,0.44618 -0.10853,0.98883 -0.21706,1.73648 -0.10853,0.7356 -0.44618,1.09736 -0.94059,1.54354 -0.50648,0.42206 -1.39884,0.72354 -2.06208,0.91648 -0.6753,0.16882 -1.56765,-0.205 -2.00177,-0.25324 -0.45824,-0.0603 -1.16972,-0.60294 -2.01384,-1.41089 -0.83206,-0.78383 -0.55471,-0.84412 -1.00089,-1.65207 -0.44618,-0.79589 0.16883,-1.3506 0.55471,-1.77266 0.39794,-0.43412 1.23001,-1.53148 1.62795,-1.9053 0.37383,-0.37383 0.71148,-1.09736 1.15766,-1.83296 0.44618,-0.73559 1.78471,-0.6753 2.50825,-0.615 0.72353,0.0482 1.38677,-0.12059 2.32737,-0.25324 0.95265,-0.12059 1.2903,-0.24118 1.73648,-0.36177 0.43412,-0.13264 0.95265,-0.3497 2.66501,-0.91647 1.72443,-0.54265 2.56855,-1.03707 3.01473,-1.53148 0.43412,-0.49442 -0.16883,-1.41089 -0.56677,-2.14649 -0.38588,-0.74765 -1.38677,-1.41089 -2.00178,-2.15854 -0.60294,-0.73559 -0.78383,-1.23001 -1.21795,-2.08619 -0.0965,-0.18088 -0.18088,-0.37383 -0.26529,-0.55471"
         style="fill:#e31f26"
         inkscape:connector-curvature="0" />
      <path
         clip-path="none"
         id="path7263"
         d="m 551.17721,201.17093 c -0.0362,0.0603 -0.0723,0.12059 -0.12059,0.19294 -0.51853,0.6753 -0.65118,0.82001 -0.63912,0.84413 0.0241,0.0241 0.19294,-0.0603 0.30147,0.13264 0.22912,0.36177 0.66324,1.3506 0.55471,1.95355 -0.10853,0.62706 -0.66324,0.98883 -0.78383,1.73648 -0.10853,0.73559 0.33765,1.10942 0.89236,2.32737 0.37383,0.80794 0.44618,1.04912 0.59089,1.12147 0.0723,0.0482 0.14471,0.0603 0.30147,0.10853 0.41,0.10853 2.12237,-0.0844 2.41178,-0.12059 l 0.21706,-0.49441 c 0.12059,-0.34971 0.30148,-0.82001 0.48236,-1.24207 0.34971,-0.73559 0.12059,-0.97677 -0.66324,-1.47118 -0.77177,-0.49442 -0.77177,-1.23001 -0.8803,-1.8209 -0.12059,-0.63912 0.54265,-1.36265 0.54265,-1.36265 0,0 0.89236,0.13265 0.22912,-0.85618 -0.31353,-0.44618 -0.28941,-0.78383 -0.16883,-1.03707 l 1.47119,0 c -0.0965,0.14471 -0.19294,0.27735 -0.30147,0.43412 -0.44618,0.60295 0.12059,0.85618 0,1.45913 -0.10853,0.62706 -0.66324,0.85618 -0.77177,1.36265 -0.12059,0.48236 0.54265,0.60295 1.09736,1.21795 0.10853,0.10853 0.19294,0.205 0.27735,0.27736 l 0.18089,-0.39795 c 0.33765,-0.74765 0.33765,-1.47118 0.33765,-2.21883 0,-0.7356 -0.56677,-1.33854 0.10853,-1.95355 0.0603,-0.0724 0.13264,-0.13264 0.205,-0.19294 l 1.98972,0 c -0.10853,0.0482 -0.20501,0.10853 -0.30148,0.19294 -0.79588,0.4703 -1.12147,0.7356 -1.12147,1.59178 0,0.84412 0,1.33854 -0.21706,2.32737 -0.22912,0.97677 -0.55471,2.94237 -1.12148,3.9312 -0.54265,0.97677 -0.77177,2.44795 -1.43501,3.55737 -0.6753,1.09736 -1.12148,1.83296 -1.00089,2.82179 0.10853,0.97677 1.00089,1.59177 1.00089,2.33942 0,0.7356 0,0.7356 -0.33765,1.59178 -0.33765,0.84412 -0.55471,1.71236 0,2.68913 0.54265,0.98883 0.66324,1.72443 1.10942,1.84501 0.44618,0.12059 0.55471,0.25324 1.12148,-0.74765 0.54265,-0.97677 1.00088,-1.47118 1.09736,-2.20678 0.10853,-0.74765 -0.0965,-0.98883 -0.55471,-1.73648 -0.43412,-0.72353 -0.77177,-1.33854 -0.21706,-2.08619 0.55471,-0.73559 1.00088,-0.97677 1.00088,-1.59177 0,-0.60295 -0.5547,-1.3506 -0.78382,-1.9656 -0.21706,-0.60295 -0.54265,-1.48325 0,-2.7012 0.55471,-1.24206 1.23,-3.31619 1.55559,-4.42561 0.33765,-1.09736 0.33765,-1.83296 1.12148,-2.32737 0.77177,-0.49442 1.00089,-0.60295 1.66413,-0.12059 0.6753,0.49441 1.78472,2.08619 2.44796,3.3162 0.6753,1.21795 2.01383,3.69002 2.67707,5.02856 0.66324,1.33854 0.77177,2.08619 1.23001,2.46001 0.43412,0.34971 0.66324,-0.13264 1.54354,0.24118 0.89236,0.37383 3.12326,1.73648 4.12414,2.58061 1.00089,0.86824 2.78561,2.09825 4.12415,3.55737 1.32648,1.47119 1.98972,2.44796 3.34031,3.43679 1.33854,0.97677 1.88119,1.3506 3.34032,1.73648 1.44707,0.34971 2.32737,0.49442 4.22062,0.49442 1.89324,0 3.55737,-0.25324 5.45062,0.24117 1.89325,0.48236 2.46001,0.48236 3.56943,1.10942 1.10942,0.60295 2.11031,1.59178 2.11031,1.59178 0,0 -2.67707,-1.23001 -5.11297,-1.33854 -1.43501,-0.0844 -2.71326,-0.10853 -3.85885,-0.12059 -0.0482,0.22912 -0.12059,0.55471 -0.15677,0.78383 -0.0362,0.30147 0.205,0.8803 0.45824,1.47119 l -1.4953,0 c -0.28942,-0.63913 -0.4703,-1.24207 -0.7356,-1.71237 -0.12058,-0.22912 -0.24117,-0.41 -0.33764,-0.57883 -1.67619,0 -3.67797,0 -5.11298,-0.47029 -1.45913,-0.49442 -4.78738,-3.56944 -6.01739,-4.78739 -1.23001,-1.21794 -3.89503,-4.05179 -5.23356,-4.78738 -1.32648,-0.73559 -3.34032,-1.71236 -3.89503,-1.83295 -0.55471,-0.12059 -0.89236,-0.25324 -0.89236,-0.25324 0,0 -1.78471,-3.9312 -2.55648,-5.52298 -0.78383,-1.59177 -1.44707,-2.95443 -2.12237,-3.55737 -0.66324,-0.62706 -1.32648,-1.23001 -1.77266,-1.10942 -0.44618,0.12059 -0.78383,1.3506 -1.12148,2.08619 -0.32559,0.74765 -1.00089,2.21884 -1.20589,2.82178 -0.22912,0.61501 -0.68735,0.86824 -0.22912,1.83295 0.43412,0.97678 0.89236,1.96561 0.77177,2.59267 -0.10853,0.615 -0.77177,1.82089 -0.77177,1.82089 0,0 -0.12059,0.85618 0.10853,1.36266 0.22912,0.48235 1.21795,1.33854 0.89236,1.95354 -0.33765,0.615 -1.23001,3.18355 -1.89324,4.05179 -0.66324,0.86824 -1.10942,1.23001 -1.56766,1.3506 -0.43412,0.12059 -0.32559,0 -0.98883,-0.85618 -0.6753,-0.85619 -1.67619,-2.33943 -1.79678,-3.19561 -0.0965,-0.85618 -0.43412,-1.23001 0,-1.84501 0.45824,-0.60295 0.89236,-1.72443 0.89236,-1.72443 l -0.66324,-0.96471 c -0.32559,-0.49441 -1.10942,-1.12148 -0.77177,-2.2309 0.33765,-1.09736 0.77177,-2.82178 1.10942,-3.55737 l 0.22912,-0.50648 c -0.43412,-0.0362 -1.41089,-0.13264 -2.00178,-0.22911 -0.78383,-0.13265 -0.89236,-0.62707 -1.33854,-1.24207 -0.44618,-0.61501 -0.44618,-1.9656 -0.89235,-2.56855 -0.45824,-0.615 -0.22912,-1.48324 0,-1.9656 0.21706,-0.49441 0.66323,-1.10942 0.66323,-1.10942 0,0 -0.5547,-0.85618 -0.78382,-1.59177 -0.13265,-0.4703 0.0724,-0.96471 0.25323,-1.2903 m 13.62656,0.0482 c 0.45824,0.30147 0.9406,0.615 1.36266,0.90442 0,-0.24118 0,-0.50648 0.0121,-0.83207 -0.0121,-0.0241 -0.0241,-0.0482 -0.0362,-0.0724 l 1.24207,0 c -0.0844,0.75971 -0.18089,1.44707 -0.14471,1.60383 1.16971,0.79589 5.39033,4.72709 6.1621,5.45063 0.79589,0.74765 0.90442,1.10942 -0.205,0.615 -1.12148,-0.48235 -1.78472,-0.84412 -3.35238,-2.08619 -1.5556,-1.23001 -2.66502,-2.08619 -4.22061,-3.18355 -1.56766,-1.10942 -2.78561,-1.84501 -3.56944,-2.33942 -0.0362,-0.0241 -0.0603,-0.0482 -0.0965,-0.0603 l 2.8459,0 z m 24.60016,0 c -0.38589,0.25324 -0.75971,0.43412 -1.07324,0.55471 -1.66413,0.615 -4.89592,0.97677 -4.89592,0.97677 0,0 1.64001,-0.69942 3.30414,-1.53148 l 2.66502,0 z m 11.15448,0 c -0.48235,0.25324 -0.92853,0.44618 -1.32648,0.55471 -0.89235,0.25324 0.22912,1.09736 -0.55471,1.84501 -0.77177,0.72354 -0.77177,1.33854 -1.78471,1.59178 l -0.0965,0.0241 c 0.21706,0.13265 0.45823,0.30148 0.71147,0.41001 0.56677,0.22912 1.16971,0.10853 2.46002,0.0482 1.26618,-0.0482 4.55826,-0.0482 6.22239,-0.0482 1.66413,0 1.89325,-0.13265 3.89502,0.16882 2.00178,0.31353 3.06297,1.12148 4.88386,2.27913 1.84501,1.16972 2.89414,2.80973 3.75032,3.93121 0.36176,0.49441 0.73559,1.30236 1.04912,2.15854 l 0.16883,-0.0724 c 0.73559,-0.31354 1.68824,-1.54354 2.18266,-3.3765 0.50647,-1.84501 0.8803,-4.17238 0.72353,-5.08885 -0.12059,-0.72354 -0.89236,-2.8459 -1.39883,-4.42562 l 1.45913,0 c 0.27735,0.66324 0.56676,1.37472 0.78382,2.08619 0.37383,1.3506 0.71148,2.71325 0.60295,3.55738 -0.10853,0.85618 -0.22912,2.39972 -0.66324,3.37649 -0.45824,0.98883 -1.39883,2.44796 -1.83295,3.01472 -0.45824,0.54265 -1.06119,1.23001 -1.3506,1.45913 l -0.34971,0.33765 0.13265,0.38589 c 0.0844,0.0482 0.18088,0.0844 0.27736,0.1447 0.39794,0.18089 0.73559,0.60295 1.83295,0.43412 1.12148,-0.205 2.39972,-0.69941 2.89413,-1.36265 0.50648,-0.66324 1.5556,-2.08619 1.84502,-3.75032 0.26529,-1.65207 0.37382,-3.55738 0.55471,-4.6065 0.15676,-1.03707 0.21706,-2.08619 0.44617,-2.87002 0.16883,-0.615 0.5306,-1.72442 0.68736,-2.21884 l 1.37472,0 c -0.31353,1.16972 -0.95266,5.04062 -1.01295,6.07769 -0.0603,1.10942 -0.49442,4.17238 -1.44707,5.83651 -0.95265,1.65207 -1.27824,2.50825 -1.98972,3.00266 -0.74765,0.48236 -1.18177,1.15766 -2.00178,1.09736 -0.84412,-0.0603 -1.95354,-0.12059 -2.46001,-0.30147 -0.25324,-0.0965 -0.4703,-0.14471 -0.62706,-0.15677 0.19294,0.92854 0.24117,3.35238 0.13264,4.70298 -0.10853,1.39883 -0.89235,2.88207 -1.61589,4.28091 -0.74765,1.42295 -1.62795,2.21883 -3.00266,3.70208 -0.43413,0.44618 -0.77177,0.90442 -1.00089,1.33854 l -1.53148,0 c 0.12058,-0.19295 0.22911,-0.39795 0.3497,-0.61501 0.49442,-0.91647 1.37472,-1.89325 3.12326,-3.9312 1.72442,-2.02589 2.1706,-4.47385 2.32737,-5.39033 0.18088,-0.91647 -0.66324,-4.61856 -1.01295,-5.70386 -0.31353,-1.10942 -1.25413,-2.65296 -2.15854,-3.81061 -0.90442,-1.16971 -2.61679,-2.71325 -3.17149,-3.07502 -0.57883,-0.37383 -1.29031,-0.78383 -1.83296,-0.91648 -0.56677,-0.12059 -2.23089,-0.25323 -3.73826,-0.18088 -1.50736,0.0603 -4.6065,0 -5.95709,0.0603 -1.33854,0.0603 -2.94238,-0.0603 -3.83473,-0.25323 -0.89236,-0.19295 -0.83207,-0.48236 -1.44707,-0.85619 -0.36177,-0.22911 -0.60295,-0.49441 -0.74765,-0.68735 -0.5306,0.0965 -1.12148,0.24118 -1.80884,0.62706 -1.33854,0.73559 -3.90708,2.68914 -4.3412,3.67796 l -0.44618,0.98883 c 0,0 -0.33765,-1.10941 0.33765,-2.32736 0.66324,-1.23001 1.10941,-1.95355 2.77354,-2.82179 1.67619,-0.85618 4.23268,-1.47118 4.78739,-1.95354 0.55471,-0.50647 1.5556,-1.60383 -0.21706,-0.98883 -1.78472,0.61501 -3.34032,1.10942 -4.23268,1.10942 0,0 0.21706,-0.37382 2.00178,-1.23001 0.80795,-0.39794 1.79678,-0.85618 2.72531,-1.2903 l 3.49708,0 z m 27.95254,0 c -0.10853,0.0965 -0.22912,0.24118 -0.38589,0.43412 -0.49441,0.60295 -0.94059,1.33854 -1.12148,1.65207 -0.16882,0.31353 -0.10853,0.54265 -0.31353,0.54265 -0.24118,0 -0.33765,0.205 -0.39794,-0.22912 -0.0603,-0.44618 -0.24118,-1.16971 -0.10853,-1.9656 0.0121,-0.14471 0.0362,-0.28941 0.0603,-0.43412 l 2.26708,0 z m -25.56487,29.59254 c 0.0844,-0.0241 0.16882,-0.0482 0.24117,-0.0603 l 0.0844,-0.0241 -0.14471,-0.27735 c -0.32559,-0.68736 -0.60295,-1.33854 -1.00089,-2.08619 -0.38588,-0.74765 -1.38677,-1.90531 -2.15854,-2.59267 -0.79589,-0.66324 -1.18178,-1.27824 -2.18266,-2.07413 -1.00089,-0.80794 -1.04913,-1.24206 -1.60384,-1.9053 -0.56677,-0.6753 -0.28941,-0.80795 -0.28941,-0.80795 0,0 0.0603,0.205 0.89236,0.80795 0.83206,0.615 1.2903,0.79588 2.38766,1.59177 1.12148,0.79589 2.52031,2.27913 3.29208,3.3162 0.71147,0.95265 1.47119,2.49619 2.07413,4.11208 l -1.59177,0 z"
         style="fill:#e31f26"
         inkscape:connector-curvature="0" />
      <path
         clip-path="none"
         id="path7265"
         d="m 549.83867,201.17093 c 0.10853,-0.19294 0.20501,-0.30147 0.20501,-0.30147 0,0 3.01472,-3.79856 3.89502,-4.90797 0.89236,-1.09736 3.23179,-4.41356 4.01561,-5.52298 0.77177,-1.10942 0.77177,-1.24207 1.66413,-1.72442 0.89236,-0.50648 1.23001,0.13264 2.2309,0.48235 0.30147,0.12059 0.59089,0.30147 0.89236,0.54265 -0.4703,-0.6753 -1.1456,-1.71236 -1.45913,-2.9906 -0.43412,-1.83296 -0.55471,-1.3506 -0.0965,-1.83296 0.43412,-0.49441 0.89236,-0.37382 0.89236,-0.37382 0,0 -1.45913,-1.9656 -1.89325,-3.18355 -0.45824,-1.24207 -0.56677,-2.59267 -0.56677,-2.59267 0,0 0.33765,-0.48235 0.77177,-0.34971 0.25324,0.0603 0.36177,0.13265 0.41001,0.18089 -0.21706,-0.33765 -1.20589,-1.89325 -1.4109,-2.76149 -0.205,-0.97677 -0.43412,-1.24207 0.12059,-1.3506 0.55471,-0.13265 1.21795,-0.25323 1.21795,-0.25323 0,0 -1.88119,-3.55738 -2.21884,-4.6668 -0.33765,-1.09736 -0.44618,-1.33854 -0.21706,-1.82089 0.21706,-0.48236 0,-0.62707 0.77177,-0.37383 0.78383,0.24118 1.66413,0.74765 1.66413,0.74765 0,0 -1.88119,-2.80972 -2.66502,-4.42561 -0.77176,-1.59178 -1.44706,-2.31531 -1.77265,-3.55738 -0.33765,-1.23001 -0.56677,-1.72442 -0.56677,-1.72442 0,0 0.22912,-0.49442 0.89236,-0.49442 0.6753,0 1.55559,0.12059 1.55559,0.12059 0,0 -3.34031,-4.90797 -4.23267,-6.75298 -0.8803,-1.83296 -1.54354,-2.82179 -1.23001,-3.42473 0.34971,-0.615 1.23001,-0.37383 1.23001,-0.37383 l 0.45824,0.12059 c 0,0 -3.12326,-4.4015 -3.67797,-5.37827 -0.55471,-0.98883 -0.67529,-1.25412 -0.44618,-1.84501 0.22912,-0.62706 0.66324,-0.62706 1.10942,-0.73559 0.44618,-0.13265 0.89236,0 0.89236,0 0,0 -2.66501,-2.21884 -3.12325,-3.20767 -0.43412,-0.97677 -0.54265,-1.23001 -0.54265,-1.71236 0,-0.50648 -0.22912,-0.74766 0.54265,-0.74766 0.78383,0 1.78471,0.12059 2.55648,0.48236 0.79589,0.37383 1.90531,0.85618 1.90531,0.85618 0,0 -2.89414,-3.55737 -4.00355,-4.90797 -1.12148,-1.32648 -2.12237,-2.44796 -2.78561,-3.29208 -0.6753,-0.86824 -1.23001,-1.48325 -0.78383,-2.09825 0.44618,-0.615 0.10853,-0.97677 1.89325,-0.49441 1.78472,0.49441 6.12592,2.94237 7.89858,4.41355 1.78472,1.47119 6.24651,6.15004 7.2474,7.36799 1.00089,1.21795 4.44973,5.8968 5.45062,7.60917 1.00089,1.72442 4.55827,8.22417 5.45062,10.68419 0.89236,2.44795 2.2309,5.77621 2.55649,7.12681 0.18088,0.75971 0.30147,1.38677 0.37383,1.79677 0.39794,0.0724 0.79588,0.19294 1.19383,0.33765 2.00178,0.78383 5.45062,3.13532 6.28269,4.6065 0.615,1.07324 2.49619,3.19561 3.11119,4.90797 0.61501,1.71237 2.1706,7.2474 2.1706,9.20095 0,1.9656 0.0603,5.95709 -0.615,8.04328 -0.66324,2.09825 -1.16971,2.82179 -1.32648,3.37649 -0.0724,0.25324 -0.15676,0.4703 -0.21706,0.62707 0.0362,0.31353 0.0724,0.57882 0.10853,0.73559 0.16883,0.78383 0.37383,1.72442 0.72354,2.4359 0.18088,0.42206 0.45823,0.83206 0.65118,1.12148 1.53148,-1.43501 3.82267,-4.20856 4.01561,-7.2474 0.22912,-3.44885 0,-11.41978 -1.23001,-17.79894 -1.21795,-6.39122 -0.77177,-6.87357 -0.55471,-9.45418 0.22912,-2.5806 1.43501,-8.75476 3.01473,-11.54037 2.55648,-4.5462 7.68152,-10.92536 11.23889,-14.10891 3.55738,-3.19561 9.80389,-7.74182 13.01156,-9.57477 3.2559,-1.85707 10.14153,-5.53503 14.03656,-6.87357 3.88296,-1.36266 10.00889,-3.20767 13.02361,-3.55738 3.00267,-0.37382 5.11298,-0.62706 3.77444,1.33854 -1.33854,1.9656 -3.77444,4.29297 -4.89592,5.16121 -1.10942,0.85618 -2.89413,2.56854 -2.89413,2.56854 0,0 1.5556,-0.72353 2.67707,-0.24117 1.12148,0.49441 1.5556,1.23 0.32559,3.07502 -1.21795,1.82089 -3.24384,4.17238 -4.43767,5.26974 -1.23001,1.10942 -2.01384,1.9656 -2.01384,1.9656 0,0 1.78472,-0.12059 2.33943,0.37382 0.55471,0.49442 1.10942,1.3506 -0.55471,3.19561 -1.67619,1.83295 -4.44974,3.91914 -5.45062,4.6668 -1.00089,0.73559 -1.24207,0.98883 -1.24207,0.98883 0,0 1.32648,1.21795 0.44618,2.31531 -0.89236,1.10941 -2.11031,2.70119 -3.89503,3.79855 -1.77266,1.10942 -2.87002,1.83295 -2.87002,1.83295 0,0 0.65119,1.3506 -0.90441,3.08708 -1.5556,1.71236 -4.77533,4.77533 -4.77533,4.77533 0,0 1.56766,1.59177 0.43412,2.94237 -1.10942,1.36265 -4.32914,4.41356 -4.32914,4.41356 0,0 0.6753,1.35059 -0.55471,2.80972 l -2.44796,2.95443 c 0,0 1.44707,0.75971 1.21795,1.47119 -0.21706,0.74765 -1.21795,2.5806 -2.21884,3.55737 -1.00089,0.98883 -1.56765,1.60384 -1.56765,1.60384 0,0 1.00088,0.84412 -0.10853,2.21883 -1.12148,1.33854 -2.2309,2.21884 -2.2309,2.21884 0,0 0.22912,1.33854 -1.00089,2.31531 -1.23001,0.98883 -1.5556,1.24207 -1.5556,1.24207 0,0 0.43412,0.85618 -0.78383,1.83295 -1.21795,0.98883 -1.01294,0.85618 -1.01294,0.85618 0,0 0.68735,0.84412 0.12058,1.48325 -0.55471,0.615 -1.89324,1.94148 -3.34031,2.56854 0,0 0.78383,1.47119 -0.55471,2.46002 -0.73559,0.54265 -1.41089,0.96471 -2.00178,1.27824 l -3.5212,0 c 1.13354,-0.53059 2.19472,-1.025 2.73737,-1.27824 1.00089,-0.49442 3.34032,-2.32737 0.79589,-1.73648 -2.56855,0.615 -4.01561,1.24206 -4.58238,1.48324 -0.54265,0.25324 -0.43412,-0.49441 0.12059,-0.86824 0.55471,-0.34971 1.10942,-0.48236 2.89413,-1.21795 1.77266,-0.75971 4.6668,-1.84501 5.55916,-2.33943 0.89236,-0.48235 1.67618,-1.83295 -0.66324,-0.84412 -2.33943,0.97677 -3.12326,1.44707 -3.66591,1.71237 -0.56677,0.25323 -1.78472,0 -0.6753,-0.48236 1.10942,-0.49442 4.23268,-2.08619 5.11298,-2.59266 0.89236,-0.48236 3.35237,-2.44796 1.45912,-1.72443 -1.89324,0.74765 -3.23178,1.24207 -3.89502,1.48325 -0.6753,0.24118 -1.89325,0.24118 -0.45824,-0.36177 1.45913,-0.62706 4.90797,-2.44796 6.01739,-3.20767 1.12148,-0.73559 2.67708,-2.44795 1.00089,-1.95354 -1.66413,0.48236 -3.00267,1.23001 -4.55826,2.08619 -1.56766,0.84412 -1.33854,1.10942 -1.78472,0.98883 -0.44618,-0.14471 -0.55471,-0.25324 0.44618,-0.98883 1.00089,-0.73559 1.77266,-1.47118 3.6659,-2.20678 1.89325,-0.74765 3.12326,-1.10942 4.01562,-1.73648 0.86824,-0.60294 2.4359,-2.32737 0.44618,-1.72442 -2.01384,0.62706 -5.02856,2.21884 -6.12592,2.82178 -1.10942,0.62706 -1.33854,0.62706 -1.33854,0.62706 0,0 0.6753,-0.98883 2.11031,-1.83295 1.45912,-0.86824 2.01383,-1.61589 4.55826,-2.95443 2.58061,-1.3506 3.35237,-2.09825 4.24473,-2.94237 0.89236,-0.85618 1.24207,-2.56855 -0.22912,-2.08619 -1.435,0.48235 -3.6659,1.9656 -4.78738,2.70119 -1.10942,0.72354 -2.77355,2.08619 -3.32826,2.7012 -0.56676,0.62706 -1.23,1.35059 -1.23,0.84412 0,-0.48236 0.22912,-0.84412 1.00088,-1.57972 0.78383,-0.74765 4.44974,-3.55737 5.78828,-4.66679 1.32648,-1.12148 3.23178,-2.33943 4.22061,-3.43679 1.00089,-1.10942 2.13443,-2.72531 1.00089,-2.5806 -1.09736,0.12059 -2.09825,0.84412 -3.3162,1.60383 -1.24206,0.73559 -3.89502,2.80972 -4.44973,3.55738 -0.56677,0.72353 -1.67619,2.08619 -1.78472,1.59177 -0.10853,-0.49441 0.55471,-1.47119 2.33943,-2.95443 1.7606,-1.45913 3.44884,-3.18355 5.12503,-4.28091 1.66413,-1.10942 2.55649,-1.83295 4.32915,-3.3162 1.77266,-1.47118 2.44795,-1.83295 2.55648,-2.44795 0.12059,-0.61501 0.12059,-0.85619 -0.54265,-0.7356 -0.67529,0.12059 -1.45912,0.24118 -3.12325,1.21795 -1.67619,0.98883 -4.69091,3.07502 -5.57121,3.67797 -0.8803,0.63912 -2.77355,1.9656 -3.44885,2.23089 -0.6753,0.25324 -1.00089,0.25324 -0.79589,-0.25323 0.22912,-0.48236 1.33854,-0.7356 2.56855,-1.71237 1.23001,-0.97677 6.45151,-4.90797 8.89947,-6.37916 2.46001,-1.47118 4.57032,-3.30414 5.57121,-4.29297 1.01295,-0.96471 2.67708,-3.1956 1.21795,-3.1956 -1.42295,0 -1.31442,0.13264 -2.42384,0.62706 -1.13354,0.49441 -7.15093,4.05179 -8.46535,4.89591 -1.33854,0.85618 -3.12325,2.2309 -3.56943,2.33943 -0.43412,0.10853 -0.98883,-0.25324 0.10853,-0.86824 1.12147,-0.61501 8.35682,-5.39033 10.25006,-6.3671 1.89325,-0.98883 6.24651,-3.19561 7.89858,-4.06385 1.67619,-0.85618 3.56944,-2.31531 3.77444,-2.94237 0.24118,-0.61501 -0.12059,-1.60384 -1.21795,-1.23001 -1.10942,0.36177 -8.01917,3.19561 -11.02184,5.14915 -3.01472,1.9656 -4.22061,2.09825 -5.45062,2.82178 -1.23001,0.75971 -1.89325,1.60384 -2.33943,1.10942 -0.43412,-0.48235 -0.77177,-0.12059 0.89236,-1.10942 1.67619,-0.97677 10.26213,-5.86062 12.02273,-6.75298 3.23178,-1.60384 5.55915,-2.93031 8.00711,-4.29297 2.44795,-1.3506 5.66768,-4.41356 5.8968,-5.02856 0.22912,-0.61501 0.10853,-1.47119 -1.10942,-1.21795 -1.23001,0.22912 -2.56854,0.72353 -4.44973,1.71236 -1.89325,0.97677 -9.57477,5.31798 -10.80478,6.27063 -1.77266,1.33854 -7.00622,4.41356 -7.44034,4.77533 -0.44618,0.37382 -1.20589,0.25323 -0.24118,-0.61501 1.67619,-1.48324 7.79005,-4.90797 9.02006,-5.64356 1.23001,-0.74766 8.34476,-5.41445 10.00889,-6.64446 1.67618,-1.23001 8.13976,-6.86151 8.68241,-7.97093 0.56676,-1.12148 1.01294,-2.21884 -0.10853,-1.9656 -1.09736,0.25323 -5.22151,1.48324 -6.2224,2.21884 -1.01294,0.74765 -8.91153,5.76415 -10.57565,6.99416 -1.67619,1.23001 -4.69092,3.18355 -5.90886,4.17238 l -2.4359,1.9656 c 0,0 1.35059,-1.64001 2.77354,-2.95443 2.01384,-1.8209 13.45774,-10.05713 16.35187,-12.02273 2.89414,-1.9656 8.24829,-6.3671 9.23712,-7.12681 1.00089,-0.72353 3.13532,-2.56854 1.78472,-2.19472 -1.33854,0.36177 -10.46713,2.56855 -12.68596,3.18355 -2.24296,0.61501 -7.35593,2.7012 -10.02095,4.17238 -2.66502,1.47119 -10.34654,5.89681 -13.69891,8.73065 -3.32826,2.80972 -4.32915,3.79855 -7.01828,6.37916 -2.66502,2.5806 -6.89769,7.60916 -8.34476,10.2983 -1.44707,2.68913 -3.00267,8.46535 -3.34032,11.54037 -0.33765,3.07502 -0.43412,7.60916 0.10853,10.68418 0.55471,3.07502 1.45913,9.33359 1.5556,12.64979 0.12059,3.62973 -0.66324,7.97093 -2.00178,9.69536 -1.06118,1.37471 -3.00266,3.2559 -4.59444,4.24473 l -2.66502,0 c 1.01295,-0.50648 2.03796,-1.04913 2.7012,-1.53148 -0.41,-0.69942 -1.12148,-1.9656 -1.44707,-3.25591 -0.50647,-1.9053 -1.00089,-2.33942 -1.00089,-4.78738 0,-2.44796 -0.16882,-7.74181 -0.10853,-9.63506 0.0482,-1.90531 -0.28941,-4.29297 -0.89236,-6.27063 -0.60294,-1.95354 -2.23089,-4.55826 -3.17149,-5.53503 -0.95265,-0.98883 -2.89413,-2.6409 -4.11208,-3.29208 -1.23001,-0.6753 -1.84502,-0.92854 -1.84502,-0.92854 0,0 -0.32559,-0.24118 0.21706,-0.24118 0.56677,0 1.51943,0.0603 2.35149,0.55471 0.83206,0.48236 2.55649,1.47119 3.21973,2.13443 0.6753,0.68735 2.73737,3.07502 3.11119,3.99149 0.39795,0.92854 1.12148,2.03796 1.56766,3.9312 0.44618,1.89325 0.83206,4.98033 0.83206,7.12682 0,2.14648 0.21706,4.82356 0.27736,6.07768 0.0121,0.39795 0.0603,1.07324 0.10853,1.8209 0.0965,-0.16883 0.19294,-0.34971 0.27735,-0.60295 0.28942,-0.73559 0.95266,-3.3162 1.06119,-4.84768 0.12059,-1.51942 0.0603,-4.41356 -0.39795,-6.49975 -0.43412,-2.08619 -1.21795,-4.78738 -2.15854,-6.49974 -0.95265,-1.74854 -1.90531,-3.38855 -3.12325,-4.55827 -1.21795,-1.16971 -2.88208,-2.56854 -4.17238,-2.99061 -1.29031,-0.43412 -2.66502,-0.86824 -3.38856,-0.86824 -0.48235,0 -0.8803,0.0241 -1.10941,0.0362 0.0362,0.45824 -0.0121,1.23001 -0.0603,1.62795 -0.0603,0.42206 -0.22912,0.74765 -0.22912,0.74765 0,0 -0.38588,0.0603 -0.38588,-0.205 0,-0.24118 0.15676,-1.23001 -0.0482,-1.7606 -0.22912,-0.55471 -0.79589,-1.30236 -1.00089,-1.53148 -0.22912,-0.25323 -0.68735,-0.62706 -0.68735,-0.62706 l 0,0.84412 c 0,0.50648 -0.10853,0.75971 0.12058,1.12148 0.21706,0.36177 0.21706,0.73559 0.21706,1.04913 0,0.30147 -0.16882,0.84412 -0.16882,0.84412 0,0 -0.66324,-0.59089 -1.01295,-1.33854 -0.12059,0.0362 -0.24118,0.10853 -0.36176,0.18088 -0.33765,0.25324 -0.50648,0.31354 -0.7356,0.86824 -0.21706,0.55471 -0.32559,0.98883 -0.38588,1.26619 -0.0482,0.31353 -0.21706,0.43412 -0.77177,0.68736 -0.56677,0.25323 -0.79589,0.25323 -1.12148,0.74765 -0.33765,0.48235 -0.66324,0.91648 -0.83206,1.65207 -0.16883,0.74765 -0.39795,1.2903 -0.16883,2.1706 0.22912,0.84412 0.49442,1.1456 0.49442,2.19472 0,1.04912 0.0603,2.14648 -0.0482,3.07502 -0.10853,0.91648 -0.27735,2.21884 -0.50647,2.71325 -0.21706,0.49442 -0.83207,1.23001 -1.04913,1.53148 -0.22912,0.28942 -0.22912,0.43412 0,0.7356 0.21706,0.31353 0.50648,0.67529 0.8803,0.98883 0.39795,0.31353 0.72354,0.66324 0.95266,0.79588 0.22911,0.12059 0.10853,0.54265 0.10853,0.54265 0,0 -0.83207,0 -1.49531,-0.60294 -0.6753,-0.62706 -1.00089,-0.98883 -1.23001,-1.47119 -0.21706,-0.49441 -0.44618,-0.85618 -0.10853,-1.18177 0.33765,-0.30147 0.77177,-0.73559 0.9406,-1.16971 0.16882,-0.42206 0.45824,-1.9656 0.49441,-3.30414 0.0603,-1.3506 0.33765,-1.48325 0.12059,-2.21884 -0.21706,-0.74765 -0.89236,-1.48324 -0.83206,-2.50825 0.0482,-1.04913 0.27735,-2.15854 0.6753,-3.19561 0.37382,-1.04912 0.37382,-1.48324 1.04912,-1.90531 0.6753,-0.43412 1.21795,-0.74765 1.5556,-0.97677 0.32559,-0.25323 0.38588,-0.6753 0.38588,-0.6753 0,0 -0.89236,-0.37382 -1.21795,-1.06118 -0.33764,-0.6753 -0.83206,-0.97677 -0.8803,-1.7606 -0.0603,-0.80794 -0.16882,-1.10942 -0.16882,-1.10942 0,0 0.10853,-0.31353 0.77177,-0.0603 0.66324,0.24118 0.94059,0.30147 1.5556,0.90442 0.615,0.62706 0.89236,1.24206 1.10942,1.41089 0.22912,0.19294 0.50647,0.19294 0.50647,0.19294 l 0.13265,-0.0241 c -0.0121,-0.0844 -0.0241,-0.15676 -0.0241,-0.22912 -0.0482,-1.09736 -0.15676,-1.95354 0.10853,-2.52031 0.27736,-0.54265 0.33765,-0.85618 0.56677,-1.10942 0.21706,-0.24117 0.54265,-0.48235 0.66324,-0.19294 0.10853,0.31353 -0.0603,0.43412 0.33765,1.06118 0.37382,0.61501 0.49441,0.55471 0.94059,1.09736 0.19294,0.24118 0.36177,0.49442 0.49442,0.72354 0.24118,-0.0241 1.24206,-0.19294 2.4359,-0.0844 -0.79589,-2.00178 -4.69092,-11.87802 -6.99417,-15.72481 -2.55648,-4.29297 -7.79005,-11.91419 -10.90124,-14.85657 -3.12326,-2.94237 -6.35504,-5.76415 -8.35682,-6.5118 -2.00178,-0.7356 -2.4359,-1.09736 -2.4359,-0.36177 0,0.74765 -0.12059,0.13265 1.00089,1.33854 1.10942,1.24206 4.55826,5.2818 6.56004,7.60916 2.00178,2.33943 9.34565,12.5292 9.57477,13.28891 0.22912,0.7356 -0.10853,0.96472 -0.56677,0.10853 -0.43412,-0.85618 -4.22062,-6.12592 -5.45062,-7.36799 -1.23001,-1.23 -3.7865,-3.54531 -5.55916,-4.65473 -1.78471,-1.10942 -2.44795,-1.36266 -3.12325,-1.36266 -0.31353,0 -0.45824,-0.0362 -0.4703,-0.0241 0,0.0241 0.13265,0.1447 0.36177,0.53059 0.44618,0.73559 2.11031,2.44795 3.4609,3.91914 1.32648,1.47119 2.21884,2.46002 3.89503,4.54621 1.66413,2.08619 5.66768,6.87357 6.78916,8.59799 1.09736,1.72442 1.77266,2.56855 1.32648,2.32737 -0.43412,-0.25324 -1.89325,-2.71325 -2.66502,-3.56943 -0.78383,-0.85619 -3.55738,-4.28091 -4.67885,-5.52298 -1.10942,-1.24207 -2.2309,-2.44796 -3.66591,-3.54532 -1.45913,-1.10942 -1.78472,-1.25412 -2.2309,-1.10942 -0.45823,0.12059 -0.33764,0.24118 0,0.84413 0.33765,0.615 2.77355,4.30502 3.89503,5.77621 1.10942,1.45913 4.12414,5.2818 5.12503,6.86151 1.00089,1.60384 3.7865,5.16121 3.7865,5.16121 0,0 -0.22912,0.85619 -0.6753,0.12059 -0.44618,-0.74765 -3.01473,-4.03973 -4.44974,-5.8968 -1.44706,-1.83295 -2.89413,-3.42473 -3.89502,-4.28091 -1.01295,-0.85618 -1.3506,-1.10942 -1.5556,-0.615 -0.22912,0.48235 -0.45824,0.36176 0.32559,1.33853 0.78383,0.98883 4.89592,7.983 5.66768,9.09242 0.79589,1.10941 4.4618,7.11475 4.4618,7.11475 0,0 0,0.37382 -0.6753,-0.48236 -0.66324,-0.84412 -2.78561,-3.43679 -3.55738,-4.41356 -0.77177,-0.98883 -1.66412,-1.73648 -2.55648,-2.21883 -0.89236,-0.49442 -1.00089,-0.12059 -0.44618,0.85618 0.55471,0.98883 4.23267,7.97093 5.12503,9.08035 0.89236,1.10942 2.00178,2.82178 2.00178,2.82178 0,0 -0.10853,0.7356 -0.66324,0 -0.56677,-0.74765 -0.56677,-0.615 -1.79678,-1.84501 -1.20589,-1.24207 -1.66413,-1.71236 -2.32737,-1.83295 -0.66324,-0.12059 -0.77177,-0.25324 -0.44617,0.60294 0.33764,0.8803 1.00088,2.95443 1.77265,4.07591 0.79589,1.09736 2.67708,4.77533 2.67708,4.77533 0,0 0.12059,0.73559 -0.8803,-0.61501 -1.00089,-1.35059 -1.79678,-2.21884 -2.2309,-1.83295 -0.45824,0.34971 0.10853,1.24207 0.54265,1.95354 0.45824,0.74765 2.12237,4.42562 2.12237,4.42562 0,0 -0.33765,0 -0.89236,-0.74765 -0.54265,-0.7356 -1.66413,-1.47119 -1.66413,-1.47119 0,0 -0.22912,0.74765 0.32559,1.60383 0.56677,0.84413 2.2309,3.93121 2.56855,4.6668 0.32559,0.73559 1.12148,2.19472 1.12148,2.19472 0,0 -0.12059,0.37382 -1.01295,-0.73559 -0.8803,-1.09736 -1.33854,-1.59178 -1.77266,-1.45913 -0.44618,0.12059 -0.10853,0.73559 0.21706,1.45913 0.30147,0.67529 1.31442,2.7856 1.51942,3.24384 0.38589,0.31353 0.80795,0.615 1.25413,0.82001 0.94059,0.43412 2.21884,0.79588 2.88208,0.97677 0.3497,-0.68736 0.55471,-1.20589 1.13353,-2.08619 0.89236,-1.3506 1.27825,-1.84502 1.72443,-2.58061 0.44617,-0.73559 1.50736,-2.50825 1.83295,-3.62973 0.33765,-1.10942 0.83206,-2.5806 1.00089,-3.36443 0.16882,-0.79589 0.27735,-1.10942 0.27735,-1.10942 0,0 0.39795,0.62706 0.28942,1.54354 -0.12059,0.90442 -0.22912,2.14648 -0.89236,3.79855 -0.6753,1.65207 -0.6753,1.89325 -1.45913,3.06296 -0.77177,1.16972 -1.60383,2.52031 -2.38766,3.81062 -0.77177,1.26618 -1.38678,2.76149 -1.94149,3.78649 -0.56676,1.03707 -1.39883,2.94237 -1.44706,4.03973 -0.0241,0.42207 -0.0844,0.90442 -0.13265,1.36266 l -1.24207,0 c -0.32559,-0.56677 -0.73559,-1.23001 -1.07324,-1.65207 -0.66324,-0.86824 -1.45913,-2.09825 -2.35149,-2.82178 -0.8803,-0.74765 -0.8803,-0.36177 -1.32648,0 -0.44617,0.36176 -1.33853,1.33854 -2.56854,2.56854 -0.92854,0.9406 -1.27824,1.44707 -1.59178,1.90531 l -1.45912,0 c 0.12059,-0.27736 0.38588,-0.43412 0.38588,-0.43412 0,0 1.33854,-1.72442 2.2309,-2.70119 0.89236,-0.97678 2.12236,-2.32737 3.00266,-3.07502 0.89236,-0.74766 1.67619,0 2.33943,0.74765 0.45824,0.50647 1.80884,2.52031 2.61678,3.75032 0.0603,-0.42207 0.15677,-0.80795 0.27736,-1.16972 0.55471,-1.59177 1.00089,-2.80972 2.00178,-4.4015 l 0.10853,-0.19294 c -0.14471,-0.0965 -0.36177,-0.205 -0.66324,-0.31353 -0.6753,-0.25324 -2.2309,-1.10942 -3.34032,-1.60383 -1.12148,-0.49442 -2.21884,-1.60384 -2.89414,-1.95355 -0.66324,-0.37382 -0.66324,0 -1.21795,0.25324 -0.56676,0.25324 -0.78382,1.21795 -1.23,1.95354 -0.44618,0.74765 -2.11031,3.07502 -3.34032,4.42562 -1.16971,1.27824 -2.54443,3.35237 -3.54532,4.72709 m 5.89681,-0.0241 c 0.65118,-0.51853 1.50736,-0.83206 2.01383,-1.16971 0.55471,-0.36177 1.21795,-0.61501 2.44796,0 0.54265,0.25323 1.24207,0.69941 1.9656,1.16971 l -2.83384,0 c -0.615,-0.36177 -1.03707,-0.31353 -1.60383,0 l -1.98972,0 z m 63.05599,0 c -0.15677,-0.48236 -0.27735,-0.90442 -0.37383,-1.23001 -0.38588,-1.41089 -1.18177,-2.44795 -1.07324,-4.1362 0.13265,-1.65207 0.0724,-2.56855 0.78383,-3.7865 0.73559,-1.23 1.27824,-2.13442 2.56855,-3.85884 1.26618,-1.72443 1.77266,-2.58061 2.21883,-3.44885 0.44618,-0.84412 0.44618,-0.97677 0.51854,-1.94148 0.0603,-0.98883 -0.0724,-1.2903 0.42206,-2.32737 0.50647,-1.04912 0.33765,-1.10942 1.39883,-2.53237 1.06118,-1.39883 1.95354,-2.56855 2.78561,-3.00267 0.82,-0.42206 1.88119,-0.79588 1.5556,0.18089 -0.32559,0.98883 -0.83207,1.9656 -0.95266,2.71325 -0.10853,0.74765 -0.26529,1.48325 -0.22912,1.77266 0.0603,0.30147 0.0603,0.36177 0.0603,0.36177 0,0 0,-0.36177 0.78383,-0.91648 0.77177,-0.54265 1.66412,-0.91648 2.23089,-1.10942 0.55471,-0.19294 1.10942,-0.12059 1.37472,-0.12059 0.28941,0 0.73559,0.12059 0.28941,0.42206 -0.45824,0.31353 -0.79589,0.55471 -1.2903,1.18178 -0.50647,0.615 -1.32648,1.65207 -1.50736,2.3153 -0.15677,0.69942 -0.15677,0.98883 -0.15677,0.98883 0,0 0.21706,-0.0724 0.83206,-0.13264 0.61501,-0.0603 1.44707,-0.0603 2.00178,0.0603 0.55471,0.14471 0.77177,0.25324 1.01295,0.49442 0.205,0.25323 0.15677,0.36176 -0.24118,0.615 -0.39794,0.25324 -1.12148,0.79589 -1.39883,1.18177 -0.2653,0.37383 -0.60295,0.97677 -0.8803,1.47119 -0.2653,0.49441 -0.49442,1.23001 -0.83206,1.54354 -0.33765,0.27735 -0.55471,0.66324 -1.00089,1.32648 -0.43412,0.69941 -1.32648,1.12147 -1.89325,1.48324 -0.55471,0.36177 -1.06118,0.48236 -1.4953,1.18177 -0.45824,0.66324 -0.82001,1.21795 -0.95266,1.71237 -0.10853,0.48235 -0.15676,0.91647 -0.15676,0.91647 0,0 0.15676,-0.25323 0.60294,-0.79588 0.44618,-0.54265 0.33765,-0.6753 1.10942,-1.16972 0.78383,-0.49441 0.83206,-0.60294 1.56766,-0.66324 0.73559,-0.0724 0.73559,0.0603 1.38677,-0.25323 0.6753,-0.30148 0.73559,-0.49442 1.06118,-0.78383 0.33765,-0.31353 0.77177,-0.79589 0.7356,-0.19294 -0.0603,0.60294 -0.12059,1.83295 -0.38589,2.70119 -0.27735,0.84412 -0.73559,1.9656 -1.12147,2.38766 -0.38589,0.42206 -1.44707,1.23001 -2.11031,1.66413 -0.6753,0.42206 -1.51942,0.98883 -2.00178,1.47119 -0.49442,0.49441 -0.73559,0.98883 -0.73559,0.98883 0,0 0.43412,-0.30148 1.10942,-0.68736 0.67529,-0.38589 1.23,-0.73559 1.73648,-0.91648 0.49441,-0.19294 1.16971,-0.56677 0.66324,0.19294 -0.49442,0.7356 -1.00089,1.65207 -1.26619,2.50826 -0.0241,0.0603 -0.0362,0.12059 -0.0482,0.19294 l -1.36266,0 c 0.0482,-0.15677 0.0724,-0.25324 0.0724,-0.25324 0,0 -0.0965,0.0362 -0.32559,0.25324 l -2.26707,0 c 0.10853,-0.71148 0.32559,-1.53148 0.65118,-2.0259 0.38589,-0.615 0.77177,-1.2903 1.43501,-2.08619 0.62706,-0.73559 1.12148,-0.80794 2.01384,-1.2903 0.8803,-0.49441 1.00089,-0.6753 1.39883,-1.09736 0.37383,-0.44618 0.60294,-1.10942 0.60294,-1.10942 0,0 -0.16882,-0.25323 -0.49441,-0.13265 -0.33765,0.13265 -0.83206,0.13265 -1.33854,0.44618 -0.49441,0.27736 -1.23001,0.48236 -1.82089,1.38678 -0.61501,0.91647 -1.2903,1.60383 -1.44707,1.9656 -0.18088,0.37382 -0.33765,0.79589 -0.33765,0.79589 l -0.22912,0.12058 c 0,0 -0.0482,-0.37382 -0.0482,-0.85618 0,-0.49441 -0.18089,-1.33854 -0.0603,-2.02589 0.10853,-0.6753 0.2653,-2.56855 0.6753,-3.25591 0.38588,-0.67529 1.21795,-2.44795 2.11031,-2.94237 0.8803,-0.49441 1.88119,-1.15765 2.56854,-1.77266 0.66324,-0.62706 1.00089,-1.10942 1.49531,-1.77265 0.50647,-0.6753 0.73559,-0.92854 0.89236,-1.23001 0.16882,-0.30148 0.10853,-0.75971 -0.34971,-0.56677 -0.43412,0.205 -0.8803,0.31353 -1.20589,0.74765 -0.33765,0.43412 -0.95266,1.10942 -0.95266,1.10942 l -0.33765,0.25324 c 0,0 -0.10853,0.13264 -0.0482,-0.61501 0.0482,-0.74765 0,-1.9656 0.15677,-2.59266 0.19294,-0.60295 0.45823,-1.39883 0.73559,-1.7606 0.27735,-0.36177 0.50647,-0.79589 0.50647,-0.79589 0,0 0.0603,-0.37382 -0.22912,-0.13265 -0.28941,0.24118 -0.82,0.62707 -1.16971,1.16972 -0.33765,0.55471 -1.12148,1.67618 -1.23001,1.9053 -0.10853,0.25324 -0.38588,0.31354 -0.38588,0.31354 0,0 -0.24118,0.0603 -0.24118,-0.31354 0,-0.37382 -0.21706,-0.24117 -0.10853,-1.41089 0.10853,-1.15765 0.10853,-1.83295 0.22912,-2.44795 0.12059,-0.61501 0.31353,-1.37472 0.12059,-1.24207 -0.16883,0.13265 -0.12059,-0.0603 -0.62707,0.74765 -0.48235,0.79589 -1.09736,1.3506 -1.37471,2.26707 -0.28941,0.91648 -0.45824,1.04913 -0.615,1.9656 -0.18089,0.91648 0,1.23001 -0.44618,2.26708 -0.43412,1.03706 -0.7356,1.51942 -1.24207,2.14648 -0.49442,0.62707 -0.49442,0.90442 -1.37472,2.0259 -0.89235,1.10942 -1.04912,1.27824 -1.50736,2.21884 -0.43412,0.91647 -0.77177,1.23 -1.10942,2.38766 -0.24118,0.82 -0.16882,1.09736 0,2.46001 0.16883,1.32648 0.32559,1.89325 0.72354,3.07502 0.19294,0.54265 0.42206,1.12148 0.6753,1.71237 l -1.48325,0 z m -52.38394,-37.8409 c 0,0 0.0362,0.38588 0.13265,0.62706 0.0844,0.0482 0.19294,0.10853 0.25324,0.18089 l 0.96471,1.07324 0.30147,0.36177 0.27736,-0.39795 -0.36177,-0.43412 -0.96471,-1.07324 c -0.15677,-0.19294 -0.60295,-0.33765 -0.60295,-0.33765 m 1.57972,9.76771 c 0.10853,-0.30147 0.25324,-0.59089 0.49442,-0.69942 0.25323,-0.10853 0.36176,-0.16882 0.66324,-0.16882 0.30147,0 0.5547,0.12059 0.75971,0.22912 0.21706,0.12059 0.36176,0.39794 0.10853,0.39794 -0.12059,0 -0.30148,-0.0121 -0.48236,-0.0121 l 0.15677,0.0844 c 0.0965,0.0482 0.19294,0.14471 0.22911,0.22912 0.2653,-0.12059 0.41001,0.0241 0.54266,0.0241 0.15676,0 -0.0482,0.28942 -0.24118,0.39795 l -0.0844,0.0603 c 0.0482,0.0121 0.0844,0.0241 0.12059,0.0241 0.14471,0 -0.0482,0.26529 -0.25323,0.38588 -0.205,0.10853 -0.4703,0.33765 -0.77177,0.50648 -0.30148,0.18088 -0.30148,0.24117 -0.75971,0.18088 -0.45824,-0.0603 -0.50648,-0.33765 -0.50648,-0.33765 0,0 0.15677,-0.15677 0.33765,-0.28941 -0.0965,-0.0844 -0.12059,-0.18089 -0.12059,-0.18089 0,0 0.34971,-0.33765 0.60295,-0.44618 0.18088,-0.0724 0.4703,-0.0965 0.72353,-0.15676 -0.26529,-0.0121 -0.60294,0 -0.78383,0.12059 -0.25323,0.16882 -0.71147,0.39794 -0.71147,0.39794 l -0.36177,0.25324 c 0,0 0,-0.16883 0.10853,-0.49442 0.0603,-0.18088 0.13265,-0.36176 0.22912,-0.50647 m -0.0121,11.32331 -0.205,-0.0241 c -0.14471,0.24118 -0.0121,0.49441 -0.0121,0.49441 0,0 -0.34971,-0.0603 -0.55471,-0.12058 -0.205,-0.0603 -0.205,-0.27736 -0.26529,-0.61501 -0.0482,-0.32559 0,-0.39794 0.21706,-0.6753 0,-0.16882 0.0603,-0.25323 0.21706,-0.47029 0.19294,-0.27736 0.71147,-0.22912 1.025,-0.27736 0.28942,-0.0603 0.69942,0.57883 0.69942,0.57883 0,0 -0.10853,0.10853 -0.4703,0.16882 0.14471,0.13265 0.25324,0.27736 0.25324,0.27736 0,0 -0.10853,0.12059 -0.45824,0.18088 -0.28941,0.0482 -0.37382,0.0965 -0.49441,0.24118 0,0.14471 0.0482,0.24118 0.0482,0.24118 m -0.98883,0.92853 0.77177,0 c 0.68736,0 1.01295,0.0482 1.45913,-0.25323 0.25324,-0.19295 0.50647,-0.34971 0.68736,-0.60295 0.0121,-0.0482 0.0241,-0.0965 0.0362,-0.15676 0.10853,-0.69942 0.16883,-2.41179 0.39795,-3.26797 0.18088,-0.75971 0.0724,-1.27824 0.41,-1.65207 0.0482,-0.25323 0.14471,-0.43412 0.36177,-0.59088 0.18088,-0.14471 0.27735,-0.25324 0.37382,-0.36177 -0.0603,0.0482 -0.13265,0.0724 -0.26529,0.0965 -0.38589,0.0603 -0.61501,0 -0.61501,0 0,0 0.10853,-0.59088 0.36177,-0.96471 0.0965,-0.27736 0.25324,-0.615 0.4703,-0.73559 0.44618,-0.25324 0.78382,-0.25324 1.33853,-0.36177 0.55471,-0.13265 0.83207,-0.13265 1.12148,-0.49442 0.27736,-0.36176 0.71148,-0.92853 1.04913,-1.41089 0.32559,-0.49441 0.44618,-0.6753 0.78382,-0.73559 0.33765,-0.0603 0.89236,0.0603 0.89236,0.0603 0,0 0.21706,0.28942 -0.12059,0.42207 l -0.10853,0.0482 c 0,0 0.22912,0.28942 -0.10853,0.42206 -0.32559,0.12059 -0.615,0.0724 -0.95265,0.61501 -0.32559,0.54265 -0.66324,1.53148 -1.06118,1.9053 -0.37383,0.36177 -0.205,0.60295 -0.8803,0.6753 -0.63912,0.0603 -0.97677,-0.12059 -1.38678,0.0965 0.49442,-0.0724 1.16972,-0.0724 1.16972,-0.0724 0,0 0.15676,0.25324 -0.0603,0.49441 l -0.10853,0.12059 c 0.0121,0.0844 0,0.22912 -0.10853,0.33765 -0.22912,0.25324 -0.28941,0.37383 -0.78383,0.7356 -0.30147,0.22912 -0.59088,0.44618 -0.77177,0.71147 -0.0603,0.55471 -0.12058,1.66413 -0.12058,2.08619 0,0.43412 -0.0482,1.16971 -0.0482,1.72442 0,0.45824 0.0724,0.6753 -0.22912,1.01295 -0.0241,0.21706 -0.12059,0.38589 -0.44618,0.68736 -0.55471,0.49441 -0.66324,0.73559 -1.5556,0.6753 -0.89235,-0.0603 -1.39883,-0.12059 -1.78471,-0.24118 -0.38589,-0.13265 -0.38589,-0.55471 -0.38589,-0.55471 l 0.44618,0 c -0.22912,-0.19294 -0.22912,-0.4703 -0.22912,-0.4703"
         style="fill:#e31f26"
         inkscape:connector-curvature="0" />
    </g>
  </g>
</svg>
