<?xml version="1.0" encoding="UTF-8" standalone="no"?>
<!-- Generator: Adobe Illustrator 16.0.0, SVG Export Plug-In . SVG Version: 6.00 Build 0)  -->

<svg
   xmlns:dc="http://purl.org/dc/elements/1.1/"
   xmlns:cc="http://creativecommons.org/ns#"
   xmlns:rdf="http://www.w3.org/1999/02/22-rdf-syntax-ns#"
   xmlns:svg="http://www.w3.org/2000/svg"
   xmlns="http://www.w3.org/2000/svg"
   xmlns:sodipodi="http://sodipodi.sourceforge.net/DTD/sodipodi-0.dtd"
   xmlns:inkscape="http://www.inkscape.org/namespaces/inkscape"
   version="1.1"
   id="Lager_1"
   x="0px"
   y="0px"
   width="400"
   height="400.00101"
   viewBox="0 0 400 400.00101"
   enable-background="new 0 0 884.396 285.5"
   xml:space="preserve"
   inkscape:version="0.91 r13725"
   sodipodi:docname="S7.svg"><metadata
     id="metadata33"><rdf:RDF><cc:Work
         rdf:about=""><dc:format>image/svg+xml</dc:format><dc:type
           rdf:resource="http://purl.org/dc/dcmitype/StillImage" /><dc:title></dc:title></cc:Work></rdf:RDF></metadata><defs
     id="defs31" /><sodipodi:namedview
     pagecolor="#ffffff"
     bordercolor="#666666"
     borderopacity="1"
     objecttolerance="10"
     gridtolerance="10"
     guidetolerance="10"
     inkscape:pageopacity="0"
     inkscape:pageshadow="2"
     inkscape:window-width="1680"
     inkscape:window-height="998"
     id="namedview29"
     showgrid="false"
     inkscape:zoom="0.35956744"
     inkscape:cx="-243.34795"
     inkscape:cy="109.96328"
     inkscape:window-x="-8"
     inkscape:window-y="-8"
     inkscape:window-maximized="1"
     inkscape:current-layer="g3" /><g
     id="g3"
     transform="translate(0,114.501)"><g
       id="g23"
       transform="matrix(1.4111139,0,0,1.4111125,0,-115.81192)"><path
         d="m 283.464,142.692 c 0,78.301 -63.411,141.702 -141.689,141.702 C 63.487,284.394 0,220.993 0,142.692 0,64.391 63.487,0.929 141.775,0.929 c 78.279,0 141.689,63.462 141.689,141.763"
         id="path25"
         inkscape:connector-curvature="0"
         style="fill:#bed600" /><path
         d="m 131.447,68.713 c -22.325,0 -36.808,1.234 -47.292,5.126 -17.618,6.863 -29.785,21.247 -29.785,40.15 0,15.744 7.331,27.146 28.547,40.26 22.637,13.723 27.153,18.258 27.153,26.527 0,9.05 -8.867,19.351 -31.682,19.351 -7.963,0 -19.957,-1.102 -27.621,-2.977 l -3.657,-0.922 c -2.04,5.469 -6.671,18.406 -8.083,23.1 l 3.621,1.065 c 6.894,2.199 23.255,3.916 34.977,3.916 38.995,0 62.261,-23.559 62.261,-48.229 0,-15.159 -6.881,-26.68 -30.142,-41.194 -11.668,-7.177 -17.614,-11.831 -21.225,-15.434 -2.927,-3.761 -3.251,-6.56 -3.251,-9.517 0,-2.823 0.628,-6.076 2.489,-8.459 2.013,-2.946 5.705,-4.823 10.702,-6.372 5.136,-1.704 14.652,-1.749 29.473,-1.749 l 13.8,0 9.854,-24.641 -20.139,0 z m 104.291,0 -69.347,0 -9.855,24.64 22.986,0 c 15.467,0 18.442,-0.333 22.326,-0.333 -5.607,12.827 -39.4,98.941 -39.4,98.941 l 28.6,0 c 0,0 42.784,-107.197 47.318,-118.436 1.256,-2.508 0.632,-4.812 -2.628,-4.812 z"
         id="path27"
         inkscape:connector-curvature="0"
         style="fill:#ffffff" /></g></g></svg>