<?xml version="1.0" encoding="UTF-8" standalone="no"?>
<!-- Created with Inkscape (http://www.inkscape.org/) -->

<svg
   xmlns:dc="http://purl.org/dc/elements/1.1/"
   xmlns:cc="http://creativecommons.org/ns#"
   xmlns:rdf="http://www.w3.org/1999/02/22-rdf-syntax-ns#"
   xmlns:svg="http://www.w3.org/2000/svg"
   xmlns="http://www.w3.org/2000/svg"
   xmlns:sodipodi="http://sodipodi.sourceforge.net/DTD/sodipodi-0.dtd"
   xmlns:inkscape="http://www.inkscape.org/namespaces/inkscape"
   version="1.0"
   width="400"
   height="541.09003"
   id="svg2367"
   inkscape:version="0.91 r13725"
   sodipodi:docname="SQ.svg">
  <metadata
     id="metadata27">
    <rdf:RDF>
      <cc:Work
         rdf:about="">
        <dc:format>image/svg+xml</dc:format>
        <dc:type
           rdf:resource="http://purl.org/dc/dcmitype/StillImage" />
        <dc:title></dc:title>
      </cc:Work>
    </rdf:RDF>
  </metadata>
  <sodipodi:namedview
     pagecolor="#ffffff"
     bordercolor="#666666"
     borderopacity="1"
     objecttolerance="10"
     gridtolerance="10"
     guidetolerance="10"
     inkscape:pageopacity="0"
     inkscape:pageshadow="2"
     inkscape:window-width="1680"
     inkscape:window-height="998"
     id="namedview25"
     showgrid="false"
     inkscape:zoom="1.4359467"
     inkscape:cx="442.91336"
     inkscape:cy="267.98543"
     inkscape:window-x="-8"
     inkscape:window-y="-8"
     inkscape:window-maximized="1"
     inkscape:current-layer="g6685" />
  <defs
     id="defs2369" />
  <g
     transform="translate(-12.431503,656.86556)"
     id="g6685">
    <g
       id="g3355"
       transform="matrix(4.9115617,0,0,4.9115612,-3912.4036,541.53355)">
      <path
         id="path5621"
         style="fill:#eda700;fill-rule:evenodd;stroke:none"
         d="m 817.50674,-143.51548 c 0,0 14.313,-21.54179 15.9033,-23.85495 1.7349,-2.45785 1.7349,-6.93965 0.1446,-9.10826 -0.7229,-1.15665 -22.6984,-36.43313 -22.6984,-36.43313 -2.024,-3.75898 -1.4457,-6.36127 -0.2891,-8.38533 2.1686,-3.18068 4.9155,-7.22876 4.9155,-7.22876 0,0 25.8791,41.20406 27.0357,43.08354 2.8915,4.62635 2.1686,9.54195 -0.4338,13.44548 -2.3132,3.32526 -18.9393,28.48141 -18.9393,28.48141 l -5.6385,0"
         inkscape:connector-curvature="0" />
      <path
         id="path5623"
         style="fill:#eda700;fill-rule:evenodd;stroke:none"
         d="m 809.41054,-139.4674 c 0,0 18.0719,-26.45735 19.5177,-28.33685 1.8795,-2.45775 1.5903,-6.07211 0,-8.38531 -0.5784,-1.01206 -23.855,-37.01139 -23.855,-37.01139 0,0 -3.4698,5.06014 -4.6264,6.93965 -1.4458,1.87947 -2.1687,4.48187 0.1445,8.38541 0,0 16.9154,26.74651 17.6383,27.90303 1.4457,2.16861 1.3012,6.07224 -0.1446,8.67457 -1.3012,2.02403 -18.7948,27.46934 -18.7948,27.46934 0,0 45.3967,0 50.3123,0 5.2047,0 8.0962,-2.02406 10.554,-5.49386 2.0241,-3.03602 10.2649,-15.18041 11.7106,-17.05988 1.1566,-1.87948 3.759,-3.03613 4.771,-3.03613 1.1566,0 3.9036,0 3.9036,0 l -7.518,-11.71056 c 0,0 -7.9516,0 -10.2649,0 -2.4577,0 -5.2047,2.16861 -6.795,4.19264 -1.012,1.73492 -9.542,14.31299 -10.9877,16.19247 -0.8675,1.30123 -2.0241,2.31319 -3.1807,2.31319 -1.1566,0 -2.0241,0 -3.1807,0 0.5783,-1.15665 15.0359,-22.12006 17.7828,-26.74652 3.4698,-5.63842 4.1927,-12.86721 0.1446,-19.80686 -1.4457,-2.74688 -30.65,-49.01109 -30.65,-49.01109 0,0 -3.759,5.49387 -5.2047,7.80706 -1.4458,2.02413 -1.3012,4.77101 0.8674,8.38541 0,0 24.867,39.46914 26.0236,41.34861 2.8915,4.33725 2.4578,10.26491 0,14.313 -2.0241,3.32525 -19.084,28.77054 -19.084,28.77054 0,0 11.8553,0 12.8673,0 4.9155,0 6.3613,-1.44575 7.3733,-3.32523 1.3012,-1.59037 9.3975,-13.44548 10.2649,-14.74671 0.8674,-1.15662 2.8915,-4.48188 5.783,-4.48188 1.5903,0 9.3974,0 9.3974,0 l 0,2.02413 c -3.9035,0.28914 -5.6384,1.59023 -6.9396,3.32516 -1.3012,1.87947 -10.9878,15.75878 -12.1443,17.34911 -1.3012,1.87948 -2.4578,3.75895 -6.3614,3.75895 -2.1686,0 -39.3245,0 -39.3245,0"
         inkscape:connector-curvature="0" />
    </g>
  </g>
</svg>
