<?xml version="1.0" encoding="UTF-8" standalone="no"?>
<svg
   xmlns:dc="http://purl.org/dc/elements/1.1/"
   xmlns:cc="http://creativecommons.org/ns#"
   xmlns:rdf="http://www.w3.org/1999/02/22-rdf-syntax-ns#"
   xmlns:svg="http://www.w3.org/2000/svg"
   xmlns="http://www.w3.org/2000/svg"
   xmlns:xlink="http://www.w3.org/1999/xlink"
   xmlns:sodipodi="http://sodipodi.sourceforge.net/DTD/sodipodi-0.dtd"
   xmlns:inkscape="http://www.inkscape.org/namespaces/inkscape"
   version="1.1"
   width="400"
   height="397.37601"
   id="svg5712"
   inkscape:version="0.91 r13725"
   sodipodi:docname="ST.svg">
  <metadata
     id="metadata32">
    <rdf:RDF>
      <cc:Work
         rdf:about="">
        <dc:format>image/svg+xml</dc:format>
        <dc:type
           rdf:resource="http://purl.org/dc/dcmitype/StillImage" />
        <dc:title></dc:title>
      </cc:Work>
    </rdf:RDF>
  </metadata>
  <sodipodi:namedview
     pagecolor="#ffffff"
     bordercolor="#666666"
     borderopacity="1"
     objecttolerance="10"
     gridtolerance="10"
     guidetolerance="10"
     inkscape:pageopacity="0"
     inkscape:pageshadow="2"
     inkscape:window-width="1680"
     inkscape:window-height="998"
     id="namedview30"
     showgrid="false"
     inkscape:zoom="0.35200788"
     inkscape:cx="451.69443"
     inkscape:cy="96.270462"
     inkscape:window-x="-8"
     inkscape:window-y="-8"
     inkscape:window-maximized="1"
     inkscape:current-layer="layer1" />
  <defs
     id="defs5714">
    <linearGradient
       x1="0"
       y1="0"
       x2="1"
       y2="0"
       id="linearGradient5551-5"
       xlink:href="#linearGradient1090-5"
       gradientUnits="userSpaceOnUse"
       gradientTransform="matrix(158.07666,91.265695,-91.265695,158.07666,-76.514128,504.09835)"
       spreadMethod="pad" />
    <linearGradient
       x1="0"
       y1="0"
       x2="1"
       y2="0"
       id="linearGradient1090-5"
       gradientUnits="userSpaceOnUse"
       gradientTransform="matrix(30.711258,-17.731171,-17.731171,-30.711258,388.06805,43.670624)"
       spreadMethod="pad">
      <stop
         id="stop1092-1"
         style="stop-color:#4dbf5d;stop-opacity:1"
         offset="0" />
      <stop
         id="stop1094-7"
         style="stop-color:#37a961;stop-opacity:1"
         offset="0.75" />
      <stop
         id="stop1096-1"
         style="stop-color:#108565;stop-opacity:1"
         offset="1" />
    </linearGradient>
    <linearGradient
       x1="0"
       y1="0"
       x2="1"
       y2="0"
       id="linearGradient5556-8"
       xlink:href="#linearGradient1118-8"
       gradientUnits="userSpaceOnUse"
       gradientTransform="matrix(17.192457,47.236004,-35.480861,14.21776,-24.10493,504.29553)"
       spreadMethod="pad" />
    <linearGradient
       x1="0"
       y1="0"
       x2="1"
       y2="0"
       id="linearGradient1118-8"
       gradientUnits="userSpaceOnUse"
       gradientTransform="matrix(3.3401642,-9.1770477,-6.8932495,-2.7622375,398.25015,43.632309)"
       spreadMethod="pad">
      <stop
         id="stop1120-2"
         style="stop-color:#b8e5b1;stop-opacity:1"
         offset="0" />
      <stop
         id="stop1122-4"
         style="stop-color:#5ec569;stop-opacity:1"
         offset="1" />
    </linearGradient>
    <linearGradient
       x1="0"
       y1="0"
       x2="1"
       y2="0"
       id="linearGradient5561-4"
       xlink:href="#linearGradient1144-0"
       gradientUnits="userSpaceOnUse"
       gradientTransform="matrix(0,59.568335,-59.568335,0,-6.9669,445.49575)"
       spreadMethod="pad" />
    <linearGradient
       x1="0"
       y1="0"
       x2="1"
       y2="0"
       id="linearGradient1144-0"
       gradientUnits="userSpaceOnUse"
       gradientTransform="matrix(0,-11.572983,-11.572983,0,401.57974,55.055984)"
       spreadMethod="pad">
      <stop
         id="stop1146-9"
         style="stop-color:#ffffff;stop-opacity:1"
         offset="0" />
      <stop
         id="stop1148-4"
         style="stop-color:#3c9776;stop-opacity:1"
         offset="1" />
    </linearGradient>
    <radialGradient
       cx="0"
       cy="0"
       r="1"
       fx="0"
       fy="0"
       id="radialGradient5604"
       xlink:href="#radialGradient1060-5"
       gradientUnits="userSpaceOnUse"
       gradientTransform="matrix(75.836222,0,0,-75.836222,73.844849,139.81327)"
       spreadMethod="pad" />
    <radialGradient
       cx="0"
       cy="0"
       r="1"
       fx="0"
       fy="0"
       id="radialGradient1060-5"
       gradientUnits="userSpaceOnUse"
       gradientTransform="matrix(18.416901,0,0,-18.416901,401.58212,38.454727)"
       spreadMethod="pad">
      <stop
         id="stop1062-2"
         style="stop-color:#3c9776;stop-opacity:1"
         offset="0" />
      <stop
         id="stop1064-7"
         style="stop-color:#108565;stop-opacity:1"
         offset="0.89999402" />
      <stop
         id="stop1066-6"
         style="stop-color:#108565;stop-opacity:1"
         offset="0.89999402" />
      <stop
         id="stop1068-1"
         style="stop-color:#108565;stop-opacity:1"
         offset="1" />
    </radialGradient>
    <radialGradient
       cx="0"
       cy="0"
       r="1"
       fx="0"
       fy="0"
       id="radialGradient5710"
       xlink:href="#radialGradient1060-5"
       gradientUnits="userSpaceOnUse"
       gradientTransform="matrix(94.795278,0,0,94.795278,-6.954649,530.94552)"
       spreadMethod="pad" />
  </defs>
  <g
     transform="translate(101.69444,-231.25664)"
     id="layer1">
    <g
       id="g3360"
       transform="matrix(2.0638527,0,0,2.0638527,108.1879,-668.77251)">
      <path
         style="fill:url(#radialGradient5710);stroke:none"
         id="path1070"
         d="m -101.69444,526.19842 c 6.027364,-9.04361 18.143848,-18.37546 36.4524,-24.2484 l 0,0 c 13.331221,-4.28246 33.219961,-7.3399 53.427826,-7.3399 l 0,0 c 41.496639,0 81.232939,11.6378 99.592969,31.70669 l 0,0 c -2.41403,-50.23656 -43.90553,-90.22509 -94.739169,-90.22509 l 0,0 c -50.787317,0 -92.258223,39.92675 -94.734026,90.1067 m 94.734026,99.59812 c 35.366339,0 71.334899,-22.63734 71.334899,-38.26421 l 0,0 c 0,-13.43416 -26.56465,-21.54099 -66.2958,-21.54099 l 0,0 c -20.89759,0 -38.300237,3.17067 -55.183019,3.17067 l 0,0 c -16.764395,0 -33.199371,-6.19207 -41.723117,-14.52022 l 0,0 c 10.520856,40.92016 47.662975,71.15475 91.867037,71.15475"
         inkscape:connector-curvature="0" />
      <path
         style="fill:url(#linearGradient5551-5);stroke:none"
         id="path1098"
         d="m -62.699327,512.85691 c -18.452676,6.2281 -33.050104,18.81297 -33.050104,27.06392 l 0,0 c 0,9.48627 19.188722,18.83872 39.051726,18.83872 l 0,0 c 12.92974,0 27.63526,-2.72802 51.708665,-2.72802 l 0,0 c 57.375715,0 78.443165,15.53421 78.443165,29.10221 l 0,0 c 0,17.65486 -24.14546,33.05525 -47.4365,39.5613 l 0,0 -0.175,3.9376 c 44.05479,-11.45764 66.27522,-35.93253 66.27522,-68.33408 l 0,0 c 0,-15.15333 -5.53324,-27.12569 -20.55274,-36.13327 l 0,0 c -18.83872,-11.30838 -50.56599,-18.66885 -82.205759,-18.66885 l 0,0 c -17.932808,0 -37.332565,2.39858 -52.058674,7.36047"
         inkscape:connector-curvature="0" />
      <path
         style="fill:url(#linearGradient5556-8);stroke:none"
         id="path1124"
         d="m -63.136839,519.94973 c -13.768732,5.18323 -25.246964,14.95774 -25.246964,20.11008 l 0,0 c 0,5.27071 15.158473,11.3444 22.235858,11.3444 l 0,0 c 18.282816,-14.70552 54.246229,-30.90373 97.68851,-30.90373 l 0,0 c 9.66643,0 17.98427,1.51328 29.16912,3.9376 l 0,0 C 46.194615,517.1754 19.882175,511.37452 -6.332456,511.37452 l 0,0 c -22.405716,0 -42.695937,3.27361 -56.804383,8.57522"
         inkscape:connector-curvature="0" />
      <path
         style="fill:url(#linearGradient5561-4);stroke:none"
         id="path1150"
         d="m -70.512761,490.20413 c 0,4.3957 0.911052,8.64213 2.583889,12.64664 l 0,0 c 0.880169,-0.30369 1.770633,-0.60222 2.686832,-0.90075 l 0,0 c 13.331221,-4.28246 33.219961,-7.3399 53.427826,-7.3399 l 0,0 c 23.311619,0 46.067339,3.6751 64.792819,10.45394 l 0,0 c 2.32138,-4.6479 3.59788,-9.65097 3.59788,-14.85993 l 0,0 c 0,-24.69107 -28.44851,-44.70848 -63.542046,-44.70848 l 0,0 c -35.093538,0 -63.5472,20.01741 -63.5472,44.70848"
         inkscape:connector-curvature="0" />
    </g>
  </g>
</svg>
