<?xml version="1.0" encoding="UTF-8" standalone="no"?>
<!-- Created with Inkscape (http://www.inkscape.org/) -->

<svg
   xmlns:dc="http://purl.org/dc/elements/1.1/"
   xmlns:cc="http://creativecommons.org/ns#"
   xmlns:rdf="http://www.w3.org/1999/02/22-rdf-syntax-ns#"
   xmlns:svg="http://www.w3.org/2000/svg"
   xmlns="http://www.w3.org/2000/svg"
   xmlns:xlink="http://www.w3.org/1999/xlink"
   xmlns:sodipodi="http://sodipodi.sourceforge.net/DTD/sodipodi-0.dtd"
   xmlns:inkscape="http://www.inkscape.org/namespaces/inkscape"
   version="1.1"
   width="400"
   height="135.336"
   id="svg7135"
   xml:space="preserve"
   inkscape:version="0.91 r13725"
   sodipodi:docname="SU.svg"><sodipodi:namedview
     pagecolor="#ffffff"
     bordercolor="#666666"
     borderopacity="1"
     objecttolerance="10"
     gridtolerance="10"
     guidetolerance="10"
     inkscape:pageopacity="0"
     inkscape:pageshadow="2"
     inkscape:window-width="1680"
     inkscape:window-height="998"
     id="namedview108"
     showgrid="false"
     inkscape:zoom="0.795"
     inkscape:cx="200"
     inkscape:cy="55"
     inkscape:window-x="-8"
     inkscape:window-y="-8"
     inkscape:window-maximized="1"
     inkscape:current-layer="g3471" /><metadata
     id="metadata7141"><rdf:RDF><cc:Work
         rdf:about=""><dc:format>image/svg+xml</dc:format><dc:type
           rdf:resource="http://purl.org/dc/dcmitype/StillImage" /><dc:title></dc:title></cc:Work></rdf:RDF></metadata><defs
     id="defs7139"><linearGradient
       x1="0"
       y1="0"
       x2="1"
       y2="0"
       id="linearGradient3216"
       gradientUnits="userSpaceOnUse"
       gradientTransform="matrix(13.9011,-8.68634,-8.68634,-13.9011,559.257,362.784)"
       spreadMethod="pad"><stop
         id="stop3218"
         style="stop-color:#c4161d;stop-opacity:1"
         offset="0" /><stop
         id="stop3220"
         style="stop-color:#ca2724;stop-opacity:1"
         offset="0.49438199" /><stop
         id="stop3222"
         style="stop-color:#ca2724;stop-opacity:1"
         offset="0.49438199" /><stop
         id="stop3224"
         style="stop-color:#eda995;stop-opacity:1"
         offset="1" /></linearGradient><linearGradient
       x1="0"
       y1="0"
       x2="1"
       y2="0"
       id="linearGradient3200"
       gradientUnits="userSpaceOnUse"
       gradientTransform="matrix(38.1718,-29.9683,-29.9683,-38.1718,569.279,388.106)"
       spreadMethod="pad"><stop
         id="stop3202"
         style="stop-color:#eda995;stop-opacity:1"
         offset="0" /><stop
         id="stop3204"
         style="stop-color:#ca2724;stop-opacity:1"
         offset="0.2458322" /><stop
         id="stop3206"
         style="stop-color:#ca2724;stop-opacity:1"
         offset="0.46070811" /><stop
         id="stop3208"
         style="stop-color:#c4161d;stop-opacity:1"
         offset="0.55659348" /><stop
         id="stop3210"
         style="stop-color:#ca2724;stop-opacity:1"
         offset="0.67427343" /><stop
         id="stop3212"
         style="stop-color:#eda995;stop-opacity:1"
         offset="0.81712043" /><stop
         id="stop3214"
         style="stop-color:#eda995;stop-opacity:1"
         offset="1" /></linearGradient><linearGradient
       x1="0"
       y1="0"
       x2="1"
       y2="0"
       id="linearGradient3188"
       gradientUnits="userSpaceOnUse"
       gradientTransform="matrix(40.2677,-31.6138,-31.6138,-40.2677,580.509,404.282)"
       spreadMethod="pad"><stop
         id="stop3190"
         style="stop-color:#c7cbe8;stop-opacity:1"
         offset="0" /><stop
         id="stop3192"
         style="stop-color:#1c4e9d;stop-opacity:1"
         offset="0.5" /><stop
         id="stop3194"
         style="stop-color:#1c4e9d;stop-opacity:1"
         offset="0.5" /><stop
         id="stop3196"
         style="stop-color:#c7cbe8;stop-opacity:1"
         offset="0.94956475" /><stop
         id="stop3198"
         style="stop-color:#c7cbe8;stop-opacity:1"
         offset="1" /></linearGradient><linearGradient
       x1="0"
       y1="0"
       x2="1"
       y2="0"
       id="linearGradient3176"
       gradientUnits="userSpaceOnUse"
       gradientTransform="matrix(40.9296,-32.1335,-32.1335,-40.9296,590.681,417.883)"
       spreadMethod="pad"><stop
         id="stop3178"
         style="stop-color:#ffffff;stop-opacity:1"
         offset="0" /><stop
         id="stop3180"
         style="stop-color:#dadcef;stop-opacity:1"
         offset="0.15923175" /><stop
         id="stop3182"
         style="stop-color:#dadcef;stop-opacity:1"
         offset="0.21936265" /><stop
         id="stop3184"
         style="stop-color:#ffffff;stop-opacity:1"
         offset="0.35018477" /><stop
         id="stop3186"
         style="stop-color:#ffffff;stop-opacity:1"
         offset="1" /></linearGradient><linearGradient
       x1="0"
       y1="0"
       x2="1"
       y2="0"
       id="linearGradient3164"
       gradientUnits="userSpaceOnUse"
       gradientTransform="matrix(65.3369,-45.7494,-45.7494,-65.3369,508.583,378.32)"
       spreadMethod="pad"><stop
         id="stop3166"
         style="stop-color:#ffffff;stop-opacity:1"
         offset="0" /><stop
         id="stop3168"
         style="stop-color:#ffffff;stop-opacity:1"
         offset="0.43740484" /><stop
         id="stop3170"
         style="stop-color:#c7cbe8;stop-opacity:1"
         offset="0.95494193" /><stop
         id="stop3172"
         style="stop-color:#c7cbe8;stop-opacity:1"
         offset="1" /><stop
         id="stop3174"
         style="stop-color:#c7cbe8;stop-opacity:1"
         offset="1" /></linearGradient><linearGradient
       x1="0"
       y1="0"
       x2="1"
       y2="0"
       id="linearGradient3152"
       gradientUnits="userSpaceOnUse"
       gradientTransform="matrix(23.4735,-21.8894,-21.8894,-23.4735,519.063,361.067)"
       spreadMethod="pad"><stop
         id="stop3154"
         style="stop-color:#1c4e9d;stop-opacity:1"
         offset="0" /><stop
         id="stop3156"
         style="stop-color:#798ac7;stop-opacity:1"
         offset="0.26810095" /><stop
         id="stop3158"
         style="stop-color:#798ac7;stop-opacity:1"
         offset="0.27165198" /><stop
         id="stop3160"
         style="stop-color:#1c4e9d;stop-opacity:1"
         offset="0.40985265" /><stop
         id="stop3162"
         style="stop-color:#1c4e9d;stop-opacity:1"
         offset="1" /></linearGradient><linearGradient
       x1="0"
       y1="0"
       x2="1"
       y2="0"
       id="linearGradient3138"
       gradientUnits="userSpaceOnUse"
       gradientTransform="matrix(38.9181,-36.2917,-36.2917,-38.9181,508.177,362.8)"
       spreadMethod="pad"><stop
         id="stop3140"
         style="stop-color:#c4161d;stop-opacity:1"
         offset="0" /><stop
         id="stop3142"
         style="stop-color:#ca2724;stop-opacity:1"
         offset="0.30000001" /><stop
         id="stop3144"
         style="stop-color:#ca2724;stop-opacity:1"
         offset="0.50125897" /><stop
         id="stop3146"
         style="stop-color:#eda995;stop-opacity:1"
         offset="0.62804097" /><stop
         id="stop3148"
         style="stop-color:#ca2724;stop-opacity:1"
         offset="0.73490673" /><stop
         id="stop3150"
         style="stop-color:#c4161d;stop-opacity:1"
         offset="1" /></linearGradient><linearGradient
       x1="38.62368"
       y1="-119.44593"
       x2="49.58556"
       y2="-121.84102"
       id="linearGradient3104"
       xlink:href="#linearGradient3176"
       gradientUnits="userSpaceOnUse"
       gradientTransform="matrix(5.1162,4.0166875,-4.0166875,5.1162,12.295865,706.9101)"
       spreadMethod="pad" /><linearGradient
       x1="39.269123"
       y1="-118.54966"
       x2="50.193005"
       y2="-119.23698"
       id="linearGradient3107"
       xlink:href="#linearGradient3200"
       gradientUnits="userSpaceOnUse"
       gradientTransform="matrix(4.771475,3.7460375,-3.7460375,4.771475,9.620615,710.63222)"
       spreadMethod="pad" /><linearGradient
       x1="36.620285"
       y1="-115.59779"
       x2="47.131763"
       y2="-116.60551"
       id="linearGradient3110"
       xlink:href="#linearGradient3188"
       gradientUnits="userSpaceOnUse"
       gradientTransform="matrix(5.0334625,3.951725,-3.951725,5.0334625,11.024365,708.61022)"
       spreadMethod="pad" /><linearGradient
       x1="152.72766"
       y1="-329.53738"
       x2="167.43565"
       y2="-330.50085"
       id="linearGradient3113"
       xlink:href="#linearGradient3216"
       gradientUnits="userSpaceOnUse"
       gradientTransform="matrix(1.7376375,1.0857925,-1.0857925,1.7376375,8.367865,713.79747)"
       spreadMethod="pad" /><linearGradient
       x1="36.523842"
       y1="-175.07297"
       x2="59.040962"
       y2="-178.29222"
       id="linearGradient3116"
       xlink:href="#linearGradient3152"
       gradientUnits="userSpaceOnUse"
       gradientTransform="matrix(2.9341875,2.736175,-2.736175,2.9341875,3.343615,714.0121)"
       spreadMethod="pad" /><linearGradient
       x1="21.045303"
       y1="-67.892715"
       x2="31.836437"
       y2="-69.907372"
       id="linearGradient3119"
       xlink:href="#linearGradient3164"
       gradientUnits="userSpaceOnUse"
       gradientTransform="matrix(8.1671125,5.718675,-5.718675,8.1671125,2.033615,711.85547)"
       spreadMethod="pad" /><linearGradient
       x1="17.679104"
       y1="-102.24549"
       x2="30.720533"
       y2="-103.26255"
       id="linearGradient3122"
       xlink:href="#linearGradient3138"
       gradientUnits="userSpaceOnUse"
       gradientTransform="matrix(4.8647625,4.5364625,-4.5364625,4.8647625,1.982865,713.79547)"
       spreadMethod="pad" /><linearGradient
       x1="17.679104"
       y1="-102.24549"
       x2="30.720533"
       y2="-103.26255"
       id="linearGradient3272"
       xlink:href="#linearGradient3138"
       gradientUnits="userSpaceOnUse"
       gradientTransform="matrix(4.8647625,4.5364625,-4.5364625,4.8647625,1.982865,713.79547)"
       spreadMethod="pad" /><linearGradient
       x1="21.045303"
       y1="-67.892715"
       x2="31.836437"
       y2="-69.907372"
       id="linearGradient3274"
       xlink:href="#linearGradient3164"
       gradientUnits="userSpaceOnUse"
       gradientTransform="matrix(8.1671125,5.718675,-5.718675,8.1671125,2.033615,711.85547)"
       spreadMethod="pad" /><linearGradient
       x1="36.523842"
       y1="-175.07297"
       x2="59.040962"
       y2="-178.29222"
       id="linearGradient3276"
       xlink:href="#linearGradient3152"
       gradientUnits="userSpaceOnUse"
       gradientTransform="matrix(2.9341875,2.736175,-2.736175,2.9341875,3.343615,714.0121)"
       spreadMethod="pad" /><linearGradient
       x1="152.72766"
       y1="-329.53738"
       x2="167.43565"
       y2="-330.50085"
       id="linearGradient3278"
       xlink:href="#linearGradient3216"
       gradientUnits="userSpaceOnUse"
       gradientTransform="matrix(1.7376375,1.0857925,-1.0857925,1.7376375,8.367865,713.79747)"
       spreadMethod="pad" /><linearGradient
       x1="36.620285"
       y1="-115.59779"
       x2="47.131763"
       y2="-116.60551"
       id="linearGradient3280"
       xlink:href="#linearGradient3188"
       gradientUnits="userSpaceOnUse"
       gradientTransform="matrix(5.0334625,3.951725,-3.951725,5.0334625,11.024365,708.61022)"
       spreadMethod="pad" /><linearGradient
       x1="39.269123"
       y1="-118.54966"
       x2="50.193005"
       y2="-119.23698"
       id="linearGradient3282"
       xlink:href="#linearGradient3200"
       gradientUnits="userSpaceOnUse"
       gradientTransform="matrix(4.771475,3.7460375,-3.7460375,4.771475,9.620615,710.63222)"
       spreadMethod="pad" /><linearGradient
       x1="38.62368"
       y1="-119.44593"
       x2="49.58556"
       y2="-121.84102"
       id="linearGradient3284"
       xlink:href="#linearGradient3176"
       gradientUnits="userSpaceOnUse"
       gradientTransform="matrix(5.1162,4.0166875,-4.0166875,5.1162,12.295865,706.9101)"
       spreadMethod="pad" /></defs><g
     transform="matrix(0.47519142,0,0,0.47519142,-11.32112,-78.367788)"
     id="g3226"><g
       id="g3436"><g
         id="g3471"
         transform="matrix(1.2050108,0,0,1.2050108,-30.242679,-71.862189)"><g
           id="g3426"
           transform="matrix(6.2962947,0,0,6.2962947,-237.63674,-1977.672)"><path
             inkscape:connector-curvature="0"
             style="fill:#1c4e9d;fill-opacity:1;fill-rule:evenodd;stroke:none"
             id="path7807"
             d="m 86.77449,367.25047 c -0.26125,-0.58625 -0.44875,-1.17875 -0.65375,-1.7825 l -30.871375,1.7825 6.240125,3.015 25.285,-3.015 0,0 z m 4.21,5.4475 c -0.26625,-0.19375 -0.5375,-0.45 -0.78625,-0.66 -0.5275,-0.45625 -0.99625,-0.92 -1.30375,-1.37875 l -15.4425,2.9125 6.5725,2.20625 10.96,-3.08 0,0 z m 12.20375,-1.24375 c 0.7425,-0.12875 1.84875,-0.52875 2.7075,-1.18875 l -4.4775,-8.865 4.66625,-2.22875 -3.93125,-3.4075 -1.5775,0.7125 -6.7725,3.08125 1.9875,4.4675 3.20625,-1.435 4.19125,8.86375 0,0 z m 7.6175,-18.5325 c 1.71125,2.03125 2.97125,4.54125 3.63,7.43 l -2.82,0 c -0.205,-0.85 -0.46875,-1.71 -0.81,-2.495 -1.8825,-4.99125 -5.76875,-8.53625 -10.23,-11.495 -0.5925,-0.33625 -1.1225,-0.7225 -1.71125,-1.0525 0.58875,0.20125 1.11875,0.39375 1.71125,0.59375 4.06,1.63875 7.67375,3.875 10.23,7.01875 l 0,0 z m 0,26.875 0.87375,1.58 -0.87375,0.4 -2.2875,1.0525 -2.6225,-5.1975 c -1.645,0.57625 -3.46875,0.905 -5.32,0.97625 -1.975,0.0737 -4.02,-0.2075 -5.79,-0.78625 l -2.2225,5.0075 c -0.73,0.0562 -1.71375,0 -2.365,-0.47375 -0.3375,-0.2 -0.6675,-0.5225 -0.79625,-0.97875 l 0.79625,-1.32375 1.90375,-3.41 c -0.5975,-0.4 -1.1175,-0.66375 -1.655,-1.18625 l 1.58125,-1.9025 c 2.70625,1.64625 5.6525,2.55125 8.5475,2.55125 2.89375,0.0737 5.77,-0.85 8.465,-2.75125 l 1.765,0.5225 0.7375,0.27375 c -0.26125,0.19 -0.46375,0.375 -0.7375,0.58375 -0.5175,0.52125 -0.97375,1.04375 -1.81625,1.50875 l 1.81625,3.55375 0,0 z m 36.86,-13.4125 8.15,-5.17375 -44.13625,0 c 0,1.84375 -0.26875,3.425 -0.87375,4.7875 -1.6925,4.3975 -5.96,6.50625 -10.23,6.44375 -4.19375,-0.1225 -8.47375,-2.295 -10.3775,-6.30625 -0.6675,-1.46 -1.055,-3.00875 -1.055,-4.925 l -44.27475,0 8.078625,5.17375 33.827375,-1.74875 c 0.655,2.415 1.85375,4.525 3.42375,6.08 2.6975,2.83875 6.56,4.40375 10.3775,4.40375 3.7475,0.0813 7.54625,-1.29875 10.23,-4.32375 1.455,-1.5725 2.57125,-3.61125 3.2325,-6.0575 l 33.6275,1.64625 0,0 z m -2.22875,0.86625 -6.25,2.89625 -24.95625,-2.89625 c 0.205,-0.58625 0.40125,-1.17875 0.58625,-1.7825 l 30.62,1.7825 0,0 z m -18.06125,6.37 -6.84375,2.2925 -9.72625,-2.95125 -0.8425,-0.26375 c 0.325,-0.25625 0.58875,-0.51375 0.8425,-0.86 0.4125,-0.32 0.7375,-0.78625 1.1225,-1.1225 l 15.4475,2.905 0,0 z m 3.27625,-0.37875 5.45125,-2.52625 -22.45875,-2.67875 c -0.195,0.72 -0.7925,1.29875 -1.19625,1.90875 l 18.20375,3.29625 0,0 z m -60.625,0 -5.445,-2.3825 22.58625,-2.75125 c 0.4025,0.64875 0.79125,1.2275 1.2475,1.8375 l -18.38875,3.29625 0,0" /></g></g></g></g></svg>