<?xml version="1.0" encoding="UTF-8" standalone="no"?>
<!-- Created with Inkscape (http://www.inkscape.org/) -->

<svg
   xmlns:dc="http://purl.org/dc/elements/1.1/"
   xmlns:cc="http://creativecommons.org/ns#"
   xmlns:rdf="http://www.w3.org/1999/02/22-rdf-syntax-ns#"
   xmlns:svg="http://www.w3.org/2000/svg"
   xmlns="http://www.w3.org/2000/svg"
   xmlns:sodipodi="http://sodipodi.sourceforge.net/DTD/sodipodi-0.dtd"
   xmlns:inkscape="http://www.inkscape.org/namespaces/inkscape"
   version="1.1"
   width="300"
   height="330.35501"
   id="svg2"
   inkscape:version="0.91 r13725"
   sodipodi:docname="SV.svg">
  <sodipodi:namedview
     pagecolor="#ffffff"
     bordercolor="#666666"
     borderopacity="1"
     objecttolerance="10"
     gridtolerance="10"
     guidetolerance="10"
     inkscape:pageopacity="0"
     inkscape:pageshadow="2"
     inkscape:window-width="1680"
     inkscape:window-height="998"
     id="namedview94"
     showgrid="false"
     inkscape:zoom="1.4245503"
     inkscape:cx="446.4567"
     inkscape:cy="245.45424"
     inkscape:window-x="-8"
     inkscape:window-y="-8"
     inkscape:window-maximized="1"
     inkscape:current-layer="g4704" />
  <defs
     id="defs4">
    <inkscape:path-effect
       effect="spiro"
       id="path-effect2998"
       is_visible="true" />
    <clipPath
       id="clipPath3669">
      <path
         d="m 0,0 419.528,0 0,595.276 L 0,595.276 0,0 Z"
         id="path3671"
         inkscape:connector-curvature="0" />
    </clipPath>
    <clipPath
       id="clipPath3683">
      <path
         d="m 0,0 419.528,0 0,595.276 L 0,595.276 0,0 Z"
         id="path3685"
         inkscape:connector-curvature="0" />
    </clipPath>
    <clipPath
       id="clipPath3709">
      <path
         d="m 0,0 419.528,0 0,595.276 L 0,595.276 0,0 Z"
         id="path3711"
         inkscape:connector-curvature="0" />
    </clipPath>
    <clipPath
       id="clipPath4706">
      <path
         d="m 0,0 419.528,0 0,595.276 L 0,595.276 0,0 Z"
         id="path4708"
         inkscape:connector-curvature="0" />
    </clipPath>
    <clipPath
       id="clipPath4680">
      <path
         d="m 0,0 419.528,0 0,595.276 L 0,595.276 0,0 Z"
         id="path4682"
         inkscape:connector-curvature="0" />
    </clipPath>
    <clipPath
       id="clipPath4666">
      <path
         d="m 0,0 419.528,0 0,595.276 L 0,595.276 0,0 Z"
         id="path4668"
         inkscape:connector-curvature="0" />
    </clipPath>
    <clipPath
       id="clipPath4626">
      <path
         d="m 0,0 419.528,0 0,595.276 L 0,595.276 0,0 Z"
         id="path4628"
         inkscape:connector-curvature="0" />
    </clipPath>
    <clipPath
       id="clipPath4606">
      <path
         d="m 0,0 419.528,0 0,595.276 L 0,595.276 0,0 Z"
         id="path4608"
         inkscape:connector-curvature="0" />
    </clipPath>
  </defs>
  <metadata
     id="metadata7">
    <rdf:RDF>
      <cc:Work
         rdf:about="">
        <dc:format>image/svg+xml</dc:format>
        <dc:type
           rdf:resource="http://purl.org/dc/dcmitype/StillImage" />
        <dc:title></dc:title>
      </cc:Work>
    </rdf:RDF>
  </metadata>
  <g
     transform="translate(140.9254,-312.56393)"
     id="layer1">
    <g
       transform="translate(358.55178,58.601584)"
       id="g5075">
      <g
         transform="matrix(1.4812064,0,0,-1.4812064,-215.37753,1289.2889)"
         id="g4702">
        <g
           id="g5193">
          <g
             transform="translate(0,-1.0802006e-5)"
             id="g4676" />
          <g
             id="g5270">
            <g
               transform="matrix(4.5400849,0,0,4.5400849,-296.63873,-1982.3602)"
               id="g5337">
              <g
                 clip-path="url(#clipPath4706)"
                 id="g4704">
                <g
                   id="g3422"
                   transform="matrix(1.6455825,0,0,1.6455825,-15.774313,-350.44989)">
                  <g
                     id="g4722"
                     transform="translate(50.6457,550.2384)">
                    <path
                       style="fill:#a39161;fill-opacity:1;fill-rule:nonzero;stroke:none"
                       id="path4724"
                       d="m 0,0 -0.038,-0.064 c -2.435,-4.275 -6.997,-7.153 -12.234,-7.153 -7.789,0 -14.103,6.372 -14.103,14.234 0,2.577 0.68,4.995 1.869,7.08 l 0.032,0.056 -0.016,0.053 -0.052,-0.019 -0.036,-0.05 c -0.21,-0.307 -0.407,-0.63 -0.595,-0.956 -3.872,-6.822 -1.485,-15.548 5.333,-19.493 6.815,-3.946 15.483,-1.614 19.352,5.206 0.191,0.327 0.364,0.664 0.522,1.003 L 0.064,-0.036 0.048,0.02 0,0 Z"
                       inkscape:connector-curvature="0" />
                  </g>
                  <g
                     id="g4726"
                     transform="translate(34.9207,568.2581)">
                    <path
                       style="fill:#a39161;fill-opacity:1;fill-rule:nonzero;stroke:none"
                       id="path4728"
                       d="m 0,0 c -2.005,-0.431 -5.374,-2.513 -6.09,-5.969 2.162,2.577 4.413,3.931 6.136,4.246 -1.763,-1.331 -3.421,-4.438 -2.906,-6.616 0.933,2.315 2.567,4.579 4.065,5.404 -0.848,-1.412 -1.126,-4.825 -0.314,-6.331 0.19,1.954 0.802,4.493 1.766,5.748 l 0.286,-2.451 -0.329,0 0.346,-2.494 -0.274,0 0.287,-2.494 -0.236,0 0.363,-2.493 -1.168,-0.603 0,-0.086 3.044,0 0,0.086 -1.168,0.603 -0.355,-0.277 0.353,0.277 0.358,2.493 -0.234,0 0.287,2.494 -0.275,0 0.348,2.494 -0.33,0 0.286,2.451 c 0.965,-1.255 1.575,-3.794 1.766,-5.748 0.814,1.506 0.534,4.919 -0.313,6.331 1.498,-0.825 3.13,-3.089 4.067,-5.404 0.513,2.178 -1.143,5.285 -2.907,6.616 1.723,-0.315 3.972,-1.669 6.132,-4.246 C 12.279,-2.513 8.91,-0.431 6.903,0 9.112,0.223 11.265,-0.493 13.217,-1.45 11.096,1.019 7.898,1.916 5.783,1.672 6.14,2.053 6.487,2.256 7.026,2.417 6.132,2.839 4.742,2.618 4.201,2.005 c 0,0 -0.1,1.145 -0.748,1.596 C 2.801,3.15 2.706,2.005 2.706,2.005 2.161,2.618 0.773,2.839 -0.119,2.417 0.419,2.256 0.762,2.053 1.123,1.672 -0.994,1.916 -4.194,1.019 -6.313,-1.45 -4.358,-0.493 -2.207,0.223 0,0"
                       inkscape:connector-curvature="0" />
                  </g>
                  <g
                     id="g4730"
                     transform="translate(38.9766,552.3417)">
                    <path
                       style="fill:#a39161;fill-opacity:1;fill-rule:nonzero;stroke:none"
                       id="path4732"
                       d="m 0,0 c -0.167,-0.111 -0.374,-0.252 -0.604,-0.411 -0.23,0.159 -0.437,0.3 -0.603,0.411 -0.897,0.608 -8.477,5.728 -11.753,2.106 3.023,1.211 7.504,-1.076 11.193,-3.321 -0.923,-0.637 -1.975,-1.369 -2.868,-1.98 -1.416,1.386 -1.943,1.164 -2.07,1.11 -0.139,-0.059 -0.237,-0.188 -0.243,-0.348 -0.002,-0.209 0.157,-0.385 0.359,-0.391 0.204,-0.004 0.376,0.164 0.379,0.373 l -0.009,0.085 c 0.393,-0.25 0.757,-0.586 1.674,-1.54 0.932,-0.974 1.293,-1.242 1.567,-1.405 0.189,-0.111 0.381,-0.139 0.499,-0.129 0.192,0.01 0.384,0.15 0.393,0.37 0.012,0.217 -0.149,0.396 -0.357,0.399 -0.204,0.004 -0.378,-0.164 -0.378,-0.38 l 0,-0.037 c -0.253,0.186 -0.524,0.52 -1.064,1.11 0.888,0.512 2.018,1.25 3.281,2.046 1.263,-0.796 2.393,-1.534 3.28,-2.046 -0.538,-0.59 -0.809,-0.924 -1.065,-1.11 l 0,0.037 c 0.001,0.216 -0.173,0.384 -0.379,0.38 -0.209,-0.003 -0.368,-0.182 -0.355,-0.399 0.01,-0.22 0.199,-0.36 0.393,-0.37 0.117,-0.01 0.308,0.018 0.5,0.129 0.274,0.163 0.636,0.431 1.569,1.405 0.913,0.954 1.282,1.29 1.671,1.54 L 5.003,-2.451 c 0.005,-0.209 0.176,-0.377 0.376,-0.373 0.202,0.006 0.364,0.182 0.362,0.391 -0.008,0.16 -0.105,0.289 -0.243,0.348 C 5.37,-2.031 4.843,-1.809 3.427,-3.193 2.535,-2.584 1.479,-1.852 0.558,-1.215 4.249,1.03 8.73,3.317 11.751,2.106 8.474,5.728 0.895,0.608 0,0"
                       inkscape:connector-curvature="0" />
                  </g>
                  <g
                     id="g4734"
                     transform="translate(30.5174,547.5707)">
                    <path
                       style="fill:#a39161;fill-opacity:1;fill-rule:nonzero;stroke:none"
                       id="path4736"
                       d="M 0,0 C -0.117,0.052 -0.237,0.119 -0.3,0.128 -0.341,0.133 -0.379,0.124 -0.406,0.095 -0.431,0.063 -0.439,0 -0.413,-0.052 -0.397,-0.089 -0.353,-0.16 -0.235,-0.264 0.26,-0.698 1.257,-1.087 3.885,0.397 3.805,0.477 3.723,0.564 3.636,0.653 3.46,0.837 3.305,0.997 3.168,1.136 1.78,0.251 0.68,-0.28 0,0"
                       inkscape:connector-curvature="0" />
                  </g>
                  <g
                     id="g4738"
                     transform="translate(46.2279,547.5707)">
                    <path
                       style="fill:#a39161;fill-opacity:1;fill-rule:nonzero;stroke:none"
                       id="path4740"
                       d="M 0,0 C -0.681,-0.28 -1.781,0.251 -3.169,1.136 -3.307,0.997 -3.458,0.837 -3.638,0.653 -3.723,0.564 -3.806,0.477 -3.884,0.397 c 2.623,-1.484 3.623,-1.095 4.118,-0.661 0.12,0.104 0.163,0.175 0.179,0.212 C 0.442,0 0.433,0.063 0.405,0.095 0.38,0.124 0.343,0.133 0.301,0.128 0.239,0.119 0.118,0.052 0,0"
                       inkscape:connector-curvature="0" />
                  </g>
                </g>
              </g>
            </g>
          </g>
        </g>
      </g>
    </g>
  </g>
</svg>
