<?xml version="1.0" encoding="UTF-8" standalone="no"?>
<!-- Generator: Adobe Illustrator 15.0.2, SVG Export Plug-In . SVG Version: 6.00 Build 0)  -->

<svg
   xmlns:dc="http://purl.org/dc/elements/1.1/"
   xmlns:cc="http://creativecommons.org/ns#"
   xmlns:rdf="http://www.w3.org/1999/02/22-rdf-syntax-ns#"
   xmlns:svg="http://www.w3.org/2000/svg"
   xmlns="http://www.w3.org/2000/svg"
   xmlns:sodipodi="http://sodipodi.sourceforge.net/DTD/sodipodi-0.dtd"
   xmlns:inkscape="http://www.inkscape.org/namespaces/inkscape"
   version="1.1"
   id="Layer_1"
   x="0px"
   y="0px"
   width="400"
   height="291.93701"
   viewBox="0 0 400 291.93701"
   enable-background="new 0 0 203 79.333"
   xml:space="preserve"
   inkscape:version="0.91 r13725"
   sodipodi:docname="SW.svg"><metadata
     id="metadata100"><rdf:RDF><cc:Work
         rdf:about=""><dc:format>image/svg+xml</dc:format><dc:type
           rdf:resource="http://purl.org/dc/dcmitype/StillImage" /><dc:title></dc:title></cc:Work></rdf:RDF></metadata><defs
     id="defs98" /><sodipodi:namedview
     pagecolor="#ffffff"
     bordercolor="#666666"
     borderopacity="1"
     objecttolerance="10"
     gridtolerance="10"
     guidetolerance="10"
     inkscape:pageopacity="0"
     inkscape:pageshadow="2"
     inkscape:window-width="1441"
     inkscape:window-height="953"
     id="namedview96"
     showgrid="false"
     inkscape:zoom="0.78325123"
     inkscape:cx="35.477951"
     inkscape:cy="39.6665"
     inkscape:window-x="0"
     inkscape:window-y="0"
     inkscape:window-maximized="0"
     inkscape:current-layer="Layer_1" /><g
     id="_x23_ffffffff"
     transform="translate(0,212.604)" /><g
     id="g3428"
     transform="matrix(6.1509454,0,0,6.1509379,-9.2223975,-8.7963197)"><g
       id="_x23_005191ff"><path
         sodipodi:nodetypes="ccccccccccccccccccccccccccccccccccccccccccccccccccccccccc"
         style="fill:#005191"
         inkscape:connector-curvature="0"
         id="path5"
         d="m 23.125,1.471 c 4.492,-0.271 9.074,0.807 12.927,3.146 3.473,2.075 6.375,5.079 8.363,8.599 2.755,4.83 3.716,10.627 2.778,16.1 2.222,-0.83 4.431,-1.703 6.586,-2.693 1.158,-0.555 2.345,-1.047 3.517,-1.568 1.17,-0.537 2.348,-1.099 3.628,-1.316 1.351,-0.252 2.834,-0.141 4.027,0.591 0.597,0.375 1.099,0.877 1.579,1.387 -0.979,-0.032 -1.956,-0.171 -2.938,-0.122 -1.341,0.062 -2.693,0.167 -3.991,0.529 -0.813,0.222 -1.573,0.596 -2.34,0.936 -1.699,0.784 -3.37,1.629 -5.082,2.387 -1.906,0.861 -3.866,1.621 -5.663,2.701 -4.435907,8.97926 -1.197026,5.774969 -10.168,13.393 -2.395,1.455 -5.049,2.482 -7.807,2.988 -4.06,0.748 -8.32,0.332 -12.166,-1.166 C 12.734,45.955 9.495,43.568 7.007,40.564 3.602,36.481 1.652,31.23 1.513,25.92 1.402,22.637 1.969,19.327 3.17,16.269 4.822,12.031 7.717,8.281 11.425,5.642 14.835,3.193 18.933,1.71 23.125,1.471 M 12.179,6.279 c -3.561,2.459 -6.348,5.992 -7.995,9.988 -1.558,3.74 -2.046,7.892 -1.553,11.906 0.513,4.004 2.087,7.873 4.547,11.078 2.585,3.391 6.159,6.028 10.186,7.448 3.311,1.18 6.911,1.477 10.385,0.979 3.389,-0.516 9.388936,-5.748137 13.374681,-7.697833 2.01383,-2.294632 -1.173524,-1.067105 1.054319,-1.134167 1.262,-1.793 2.336,-3.73 3.05,-5.808 -2.179,1.437 -4.362,3.015 -6.942,3.634 -2.424,0.51 -4.913,0.482 -7.376,0.583 -2.778,0.101 -5.552,0.452 -8.248,1.134 -1.75,0.42 -3.459,0.996 -5.207,1.43 -0.933,0.22 -2.013,0.256 -2.821,-0.332 -0.28,-0.188 -0.441,-0.682 -0.125,-0.909 0.562,-0.399 1.254,-0.54 1.916,-0.679 2.112,-0.4 4.229,-0.778 6.338,-1.19 1.967,-0.392 3.947,-0.726 5.899,-1.188 2.015,-0.479 4.021,-1.174 5.714,-2.398 C 30.459,31.953 26.619,30.506 22.961,28.678 20.484,27.457 18.279,25.725 16.41,23.7 14.472,21.685 13.085,19.234 11.801,16.773 10.609,14.562 9.615,12.244 8.888,9.838 c 3.292,2.093 6.528,4.29 9.998,6.083 1.949,0.967 3.997,1.746 6.116,2.241 -2.583,-1.839 -4.707,-4.382 -5.843,-7.358 3.472,1.477 6.93,2.987 10.393,4.484 0.258,0.086 0.37,0.346 0.482,0.57 0.955,2.041 2.279,3.904 3.848,5.521 2.611,2.771 5.514,5.276 8.682,7.392 1.043,0.727 2.354,1.16 3.623,0.852 C 47.115,24.641 46.458,19.352 44.188,14.807 42.232,10.858 39.108,7.485 35.286,5.285 31.855,3.297 27.868,2.289 23.905,2.413 19.728,2.512 15.599,3.887 12.179,6.279" /></g><g
       id="_x23_fecc00ff"><path
         sodipodi:nodetypes="ccccccccccccccccccccccccccccccccccccc"
         style="fill:#fecc00"
         inkscape:connector-curvature="0"
         id="path94"
         d="m 12.179,6.279 c 3.42,-2.393 7.549,-3.768 11.725,-3.87 3.963,-0.124 7.951,0.883 11.382,2.872 3.823,2.199 6.946,5.572 8.902,9.523 2.27,4.543 2.927,9.832 1.999,14.815 -1.271,0.31 -2.58,-0.125 -3.623,-0.851 -3.168,-2.115 -6.069,-4.623 -8.682,-7.393 -1.568,-1.617 -2.893,-3.479 -3.848,-5.521 -0.112,-0.224 -0.225,-0.483 -0.482,-0.569 -3.463,-1.498 -6.921,-3.009 -10.393,-4.483 1.136,2.977 3.259,5.518 5.843,7.357 -2.12,-0.495 -4.167,-1.273 -6.116,-2.241 -3.47,-1.793 -6.705,-3.991 -9.998,-6.083 0.728,2.405 1.721,4.725 2.913,6.934 1.284,2.461 2.672,4.914 4.609,6.928 1.869,2.025 4.073,3.757 6.551,4.978 3.658,1.828 7.499,3.275 11.415,4.445 -1.693,1.224 -3.699,1.918 -5.714,2.399 -1.953,0.461 -3.933,0.795 -5.899,1.188 -2.108,0.412 -4.226,0.79 -6.338,1.191 -0.662,0.138 -1.354,0.277 -1.916,0.678 -0.316,0.229 -0.155,0.721 0.125,0.908 0.808,0.589 1.889,0.553 2.821,0.332 1.748,-0.433 3.457,-1.008 5.207,-1.43 2.695,-0.681 5.47,-1.033 8.248,-1.133 2.463,-0.102 4.952,-0.074 7.376,-0.583 2.58,-0.62 4.764,-2.196 6.942,-3.634 -0.714,2.076 -1.789,4.016 -3.05,5.809 -0.668,0.012 -1.110304,2.033264 -1.778304,2.039264 -0.815,1.428 -0.839064,1.16328 -2.658696,2.261736 -0.144,0.258 -0.32,0.502 -0.567,0.668 -2.779,2.006 -6.036,3.348 -9.425,3.863 -3.474,0.494 -7.075,0.199 -10.386,-0.98 C 13.338,45.279 9.763,42.64 7.178,39.25 4.718,36.045 3.144,32.177 2.631,28.172 2.138,24.157 2.627,20.006 4.184,16.265 5.832,12.271 8.619,8.738 12.179,6.279 Z" /></g></g></svg>