<?xml version="1.0" encoding="UTF-8" standalone="no"?>
<!-- Created with Inkscape (http://www.inkscape.org/) -->

<svg
   xmlns:dc="http://purl.org/dc/elements/1.1/"
   xmlns:cc="http://creativecommons.org/ns#"
   xmlns:rdf="http://www.w3.org/1999/02/22-rdf-syntax-ns#"
   xmlns:svg="http://www.w3.org/2000/svg"
   xmlns="http://www.w3.org/2000/svg"
   xmlns:sodipodi="http://sodipodi.sourceforge.net/DTD/sodipodi-0.dtd"
   xmlns:inkscape="http://www.inkscape.org/namespaces/inkscape"
   version="1.0"
   width="400"
   height="374.521"
   id="svg2367"
   inkscape:version="0.91 r13725"
   sodipodi:docname="TG.svg">
  <metadata
     id="metadata13">
    <rdf:RDF>
      <cc:Work
         rdf:about="">
        <dc:format>image/svg+xml</dc:format>
        <dc:type
           rdf:resource="http://purl.org/dc/dcmitype/StillImage" />
        <dc:title></dc:title>
      </cc:Work>
    </rdf:RDF>
  </metadata>
  <sodipodi:namedview
     pagecolor="#ffffff"
     bordercolor="#666666"
     borderopacity="1"
     objecttolerance="10"
     gridtolerance="10"
     guidetolerance="10"
     inkscape:pageopacity="0"
     inkscape:pageshadow="2"
     inkscape:window-width="944"
     inkscape:window-height="768"
     id="namedview11"
     showgrid="false"
     inkscape:zoom="0.42736508"
     inkscape:cx="372.04724"
     inkscape:cy="121.88976"
     inkscape:window-x="0"
     inkscape:window-y="0"
     inkscape:window-maximized="0"
     inkscape:current-layer="g6837" />
  <defs
     id="defs2369" />
  <g
     transform="translate(-255.63236,480.8562)"
     id="g6837">
    <g
       id="g3341"
       transform="matrix(1.79768,0,0,1.79768,-235.76147,116.67975)">
      <path
         id="path5411"
         style="fill:#f5c300;fill-rule:nonzero;stroke:none"
         d="m 490.74274,-202.32955 c -1.91817,-4.26259 -4.47573,-8.31208 -7.24643,-11.72207 -2.77071,-3.41023 -6.1808,-6.60718 -9.59093,-9.16481 -1.91817,-1.27865 -3.83638,-2.34439 -5.75455,-3.41 l 0,0 c -1.06564,-0.63939 -2.13131,-1.06574 -3.19695,-1.49199 1.06564,-0.63935 2.13131,-1.0656 3.19695,-1.70499 1.91817,-0.8526 3.83638,-2.13135 5.75455,-3.4102 3.41013,-2.55753 6.82022,-5.54137 9.59093,-9.16461 2.7707,-3.40999 5.32826,-7.45958 7.24643,-11.72231 1.91821,-4.47563 3.41013,-9.16447 4.26263,-14.06656 0.42628,-3.41009 0.85253,-6.82012 0.85253,-10.01721 0,-1.49185 -0.2131,-3.19698 -0.2131,-4.68874 -0.42629,-4.04958 -1.27882,-8.09897 -2.77074,-12.14855 -1.27878,-4.04949 -3.19696,-7.88583 -5.32827,-11.50907 -2.34445,-3.62334 -5.11516,-7.03336 -8.09897,-10.01721 -3.19699,-3.19688 -6.82022,-5.75448 -10.44346,-8.09897 -4.04948,-2.34445 -8.31211,-4.26269 -12.78788,-5.54134 -4.68887,-1.27895 -9.59089,-2.13138 -14.49291,-2.13138 -4.90201,-0.21311 -9.80403,0.21314 -14.2798,1.27888 -4.47573,1.06561 -8.73839,2.7706 -12.57474,4.90188 -4.04948,2.13135 -7.45961,4.68895 -10.65656,7.67269 -2.98385,2.98388 -5.54141,6.39408 -7.67273,10.23035 -1.91817,3.83645 -3.41009,7.88583 -4.04948,12.14853 -0.42628,2.34448 -0.63939,4.47563 -0.63939,6.82012 0,1.91824 0.21311,3.62333 0.42625,5.54147 -4.04949,-2.34449 -8.09897,-4.26262 -12.14849,-5.75458 -5.11516,-1.49179 -10.65657,-2.55763 -16.62422,-2.77064 -5.54141,0 -10.86971,0.42615 -15.77173,1.7051 -4.68888,1.06554 -9.16464,2.77064 -13.42727,5.11509 -4.04949,2.13138 -7.88586,4.68878 -11.50907,7.67272 -2.55759,1.91814 -4.90201,4.26263 -7.24647,6.60702 0,0 -3.62323,3.41009 -5.3283,5.54144 -1.91817,2.34449 -3.83634,4.68887 -5.96765,7.45958 0,0 -4.47577,5.75451 -4.47577,5.75451 -1.27878,1.7051 -2.55756,3.19696 -3.83635,4.68895 -1.9182,2.13134 -3.83637,4.26269 -5.96769,6.39387 -3.41009,3.4102 -7.03333,6.60718 -11.29595,9.16478 -0.63939,0.63929 -1.49193,1.27864 -2.55757,1.70489 -0.42628,0.42635 -1.06567,0.6395 -1.70506,1.06574 -0.42625,0.21315 -1.06564,0.6394 -1.06564,1.27875 0,0.63949 0.63939,0.8526 1.06564,1.27885 0.63939,0.21314 1.27878,0.42625 1.70506,0.8525 1.06564,0.63939 1.91818,1.06554 2.55757,1.70513 4.26262,2.5575 7.88586,5.75448 11.29595,9.16458 2.13132,2.13124 4.04949,4.26262 5.96769,6.39397 1.27879,1.49186 2.55757,2.98385 3.83635,4.68874 0,0 4.47577,5.75469 4.47577,5.75469 2.13131,2.77073 4.04948,5.32833 5.96765,7.45951 1.70507,2.13135 5.3283,5.54134 5.3283,5.54134 2.34446,2.55763 4.68888,4.68898 7.24647,6.60722 3.62321,2.98384 7.45958,5.75448 11.50907,7.67268 4.26263,2.34449 8.73839,4.04949 13.42727,5.11523 4.90202,1.27864 10.23032,1.70489 15.77173,1.70489 5.96765,-0.2131 11.50906,-1.06553 16.62422,-2.77063 4.04952,-1.27875 8.099,-3.4101 12.14849,-5.75459 -0.21314,1.91824 -0.42625,3.62334 -0.42625,5.54148 0,2.34439 0.21311,4.47573 0.63939,6.82019 0.63939,4.26252 2.13131,8.31211 4.04948,12.14845 2.13132,3.83638 4.68888,7.24648 7.67273,10.23032 3.19695,2.98378 6.60708,5.75452 10.65656,7.67272 3.83635,2.13135 8.09901,3.83648 12.57474,4.90199 4.47577,1.06564 9.37779,1.49199 14.2798,1.27874 4.90202,0 9.80404,-0.8525 14.49291,-2.13114 4.47577,-1.49199 8.7384,-3.19709 12.78788,-5.54144 3.62324,-2.34449 7.24647,-4.90199 10.44346,-8.09897 2.98381,-2.98398 5.75452,-6.39408 8.09897,-10.01721 2.13131,-3.62334 4.04949,-7.45958 5.32827,-11.50917 1.49192,-4.04938 2.34445,-8.09897 2.77074,-12.14845 0,-1.492 0.2131,-3.19689 0.2131,-4.68885 0,-3.19698 -0.42625,-6.60701 -0.85253,-10.01721 -0.8525,-4.90208 -2.34442,-9.59085 -4.26263,-14.06669"
         inkscape:connector-curvature="0" />
      <path
         id="path5413"
         style="fill:#370e62;fill-rule:nonzero;stroke:none"
         d="m 478.59426,-197.64057 c -1.70503,-3.83645 -4.04949,-7.24648 -6.82019,-10.44346 -2.55757,-2.98385 -5.96766,-5.75448 -9.37779,-7.88583 -3.6232,-2.13135 -7.45958,-3.83645 -11.29592,-4.90209 -4.26263,-1.27864 -8.52526,-1.91824 -12.78788,-1.91824 -4.68891,0 -9.37779,0.42625 -13.85352,1.7051 -3.62327,0.85253 -7.24647,2.13138 -10.65657,3.83638 -3.19698,1.49199 -5.96769,3.19709 -8.73839,5.32823 -2.77071,1.91824 -5.11516,3.83645 -7.67272,5.75469 -2.34446,1.91803 -4.68891,3.83624 -7.24648,5.32823 -2.55756,1.705 -5.3283,2.98385 -8.09897,4.04948 -2.98384,0.8524 -6.18079,1.492 -9.59092,1.492 -4.26263,0 -8.73836,-0.8526 -12.78788,-2.55763 -3.83635,-1.7051 -7.45958,-4.2627 -10.44343,-7.24644 -2.98384,-2.98388 -5.32826,-6.82033 -7.03333,-10.65657 -1.49192,-4.04959 -2.13131,-8.31211 -2.13131,-12.3617 0,-4.26249 0.63939,-8.52522 2.13131,-12.5747 1.70507,-3.83635 4.04949,-7.45958 7.03333,-10.65647 2.98385,-2.98405 6.60708,-5.54154 10.44343,-7.24657 4.04952,-1.7051 8.52525,-2.5576 12.78788,-2.5576 3.41013,0 6.60708,0.63939 9.59092,1.49189 2.77067,1.06571 5.54141,2.34449 8.09897,4.04959 2.55757,1.7051 4.90202,3.40999 7.24648,5.32823 2.55756,1.91821 4.90201,4.04949 7.67272,5.75458 2.7707,2.13125 5.54141,3.83635 8.73839,5.32824 3.4101,1.70509 7.0333,3.19698 10.65657,4.04958 4.47573,1.06564 9.16461,1.49179 13.85352,1.49179 4.26262,0 8.52525,-0.63929 12.78788,-1.91814 3.83634,-1.06564 7.67272,-2.77074 11.29592,-4.90198 3.41013,-2.13125 6.82022,-4.90198 9.37779,-7.88586 2.7707,-3.19706 5.11516,-6.60708 6.82019,-10.44343 1.70506,-4.04959 2.98387,-8.31211 3.41012,-12.5748 0.63939,-4.68885 0.42625,-9.37782 -0.42625,-14.0666 -0.85253,-4.26269 -2.34445,-8.31208 -4.47576,-12.36166 -1.91818,-3.62314 -4.47577,-7.03333 -7.45962,-10.01718 -2.98381,-2.77074 -6.3939,-5.32823 -10.01717,-7.24637 -3.83635,-1.91824 -7.67272,-3.41023 -11.72221,-4.04959 -4.47573,-0.85239 -8.73839,-1.27864 -13.21413,-0.63928 -4.26262,0.42614 -8.31211,1.70492 -12.14849,3.62313 -3.62323,1.91824 -7.03333,4.26273 -9.80403,7.24647 -2.77071,2.98385 -4.90202,6.39398 -6.60708,10.23032 -1.49189,3.62324 -2.55757,7.67282 -2.77071,11.72221 -0.21314,4.47583 0.42629,8.73832 1.70507,12.78791 0,0.63939 0.21311,1.06554 0.42625,1.7051 0,0.21314 0.21314,0.42625 0.21314,0.63939 0.21314,0.42615 0.21314,0.63929 0.42625,1.06554 0,0 0.21314,0.2131 0.42628,0.2131 0.42625,0 0.42625,-0.2131 0.42625,-0.42625 0.21314,-0.63935 0.21314,-1.27864 0.21314,-1.91824 0.21311,-2.13114 0.85253,-4.26249 1.70503,-6.39383 1.49192,-3.62314 4.04952,-6.82023 7.45961,-9.16461 3.4101,-2.13125 7.45958,-3.4102 11.5091,-3.62334 4.26263,-0.21301 8.73836,0.42625 12.57474,2.55763 3.6232,1.7051 6.60705,4.68894 8.52525,8.09894 1.91818,3.41023 2.77071,7.67282 2.77071,11.7223 0,4.26263 -1.27878,8.31222 -3.4101,11.93535 -2.13131,3.6231 -5.3283,6.60718 -9.16467,8.31208 -3.62321,1.91824 -8.09897,2.77074 -12.14846,2.34449 -2.98384,-0.42625 -5.75455,-1.27878 -8.31214,-2.34449 -2.77067,-1.49189 -5.32827,-2.98385 -7.67273,-4.90209 -2.55756,-1.91803 -5.11512,-4.04938 -7.45958,-6.18073 -2.55759,-2.13134 -5.3283,-4.47573 -7.88586,-6.39387 -2.98384,-2.34449 -5.96765,-4.26269 -8.9515,-5.96783 -3.41009,-1.918 -7.03333,-3.40999 -10.65657,-4.47563 -4.26262,-1.06571 -8.52525,-1.7051 -12.78788,-1.7051 -4.47573,0 -8.9515,0.21315 -13.21413,1.27885 -3.62323,0.8525 -7.24647,2.13128 -10.65656,4.04949 -2.98385,1.49199 -5.96769,3.62313 -8.52525,5.75448 -2.77071,2.34449 -5.11516,4.68898 -7.45958,7.24647 -2.34446,2.5576 -4.47577,5.32834 -6.60709,8.09897 -1.91817,2.5576 -4.04948,5.32834 -6.18079,7.88593 -2.13132,2.55753 -4.47577,5.11513 -6.82023,7.45962 -2.34442,2.55759 -4.90201,4.68894 -7.67272,6.39383 -0.63939,0.42625 -1.06564,0.8526 -1.70503,1.06575 -0.42628,0.42624 -0.85253,0.42624 -1.27878,0.63939 -0.21314,0.2131 -0.63942,0.63935 -0.63942,1.0656 0,0.21314 0.42628,0.63949 0.63942,0.8526 0.42625,0.21314 0.8525,0.42625 1.27878,0.63939 0.63939,0.21311 1.06564,0.63936 1.70503,1.06561 2.77071,1.70513 5.3283,4.04948 7.67272,6.39397 2.34446,2.34449 4.68891,4.90209 6.82023,7.45948 2.13131,2.55763 4.26262,5.32837 6.18079,8.09917 2.13132,2.55743 4.26263,5.32824 6.60709,7.88566 2.34442,2.5576 4.68887,4.90209 7.45958,7.24654 2.55756,2.13138 5.5414,4.26273 8.52525,5.75452 3.41009,1.9182 7.03333,3.19705 10.65656,4.04959 4.26263,1.0656 8.7384,1.49185 13.21413,1.27874 4.26263,0 8.52526,-0.63939 12.78788,-1.70503 3.62324,-1.06571 7.24648,-2.55759 10.65657,-4.4758 2.98385,-1.70513 5.96766,-3.62313 8.9515,-5.96762 2.55756,-1.91824 5.32827,-4.26273 7.88586,-6.39408 2.34446,-2.13114 4.90202,-4.26249 7.45958,-6.18073 2.34446,-1.91824 4.90206,-3.40999 7.67273,-4.68888 2.55759,-1.27874 5.3283,-2.13124 8.31214,-2.34445 4.04949,-0.42625 8.52525,0.21321 12.14846,2.13135 3.83637,1.7051 7.03336,4.68884 9.16467,8.31208 2.13132,3.62333 3.4101,7.67272 3.4101,11.93544 0,4.04939 -0.85253,8.31208 -2.77071,11.93522 -1.9182,3.41019 -4.90205,6.18093 -8.52525,7.88593 -3.83638,2.13128 -8.31211,2.77063 -12.57474,2.55753 -4.04952,-0.21315 -8.099,-1.49179 -11.5091,-3.62314 -3.41009,-2.34449 -5.96769,-5.54147 -7.45961,-9.16471 -0.8525,-2.13125 -1.49192,-4.26259 -1.70503,-6.39394 0,-0.63929 0,-1.27868 -0.21314,-1.91824 0,0 0,-0.42615 -0.42625,-0.42615 -0.21314,0 -0.42628,0.21301 -0.42628,0.42615 -0.21311,0.21311 -0.21311,0.42625 -0.42625,0.8527 0,0.21311 -0.21314,0.42625 -0.21314,0.63926 -0.21314,0.63939 -0.42625,1.06564 -0.42625,1.70513 -1.27878,4.04948 -1.91821,8.31218 -1.70507,12.78781 0.21314,4.04959 1.27882,8.09897 2.77071,11.72231 1.70506,3.83624 3.83637,7.24637 6.60708,10.01717 2.7707,3.19689 6.1808,5.54138 9.80403,7.45952 3.83638,1.9182 7.88587,3.19705 12.14849,3.62333 4.47574,0.63936 8.7384,0.42625 13.21413,-0.63959 4.04949,-0.63929 7.88586,-2.13114 11.72221,-4.04938 3.62327,-1.91824 7.03336,-4.47584 10.01717,-7.24648 2.98385,-2.98384 5.54144,-6.39383 7.45962,-10.01717 2.13131,-4.04949 3.62323,-8.09907 4.47576,-12.57471 0.8525,-4.47573 1.06564,-9.16471 0.42625,-13.85365 -0.42625,-4.26253 -1.70506,-8.52522 -3.41012,-12.5746"
         inkscape:connector-curvature="0" />
      <path
         id="path5415"
         style="fill:#b6007d;fill-rule:nonzero;stroke:none"
         d="m 416.57306,-228.11842 0,0 c 0,-0.21311 0,-0.42625 -0.21311,-0.42625 -5.11515,-1.27874 -9.80403,-4.04938 -14.06666,-7.24647 -4.47576,-3.19695 -8.73839,-6.82009 -13.42727,-10.01707 -4.47576,-2.98388 -9.59089,-5.75469 -15.1323,-5.96783 -4.47577,-0.42625 -8.95153,0.63959 -12.78788,2.77074 -3.62323,1.91824 -6.60708,4.90198 -8.52528,8.52532 -2.13132,3.62324 -3.19696,7.88593 -3.19696,12.14845 0,0 0,0.21311 0,0.21311 0,0 0,0 0,0 0,4.26273 1.06564,8.52522 3.19696,12.14856 1.9182,3.62313 4.90205,6.60698 8.52528,8.52522 3.83635,2.13135 8.31211,3.19688 12.78788,2.98374 5.54141,-0.42615 10.65654,-3.19688 15.1323,-6.18073 4.68888,-3.19688 8.95151,-6.82022 13.42727,-10.01717 4.26263,-3.19689 8.95151,-5.96763 14.06666,-7.24648 0.21311,0 0.21311,-0.21314 0.21311,-0.21314"
         inkscape:connector-curvature="0" />
    </g>
  </g>
</svg>
