<?xml version="1.0" encoding="UTF-8" standalone="no"?>
<!-- Generator: Adobe Illustrator 14.0.0, SVG Export Plug-In . SVG Version: 6.00 Build 43363)  -->

<svg
   xmlns:dc="http://purl.org/dc/elements/1.1/"
   xmlns:cc="http://creativecommons.org/ns#"
   xmlns:rdf="http://www.w3.org/1999/02/22-rdf-syntax-ns#"
   xmlns:svg="http://www.w3.org/2000/svg"
   xmlns="http://www.w3.org/2000/svg"
   xmlns:sodipodi="http://sodipodi.sourceforge.net/DTD/sodipodi-0.dtd"
   xmlns:inkscape="http://www.inkscape.org/namespaces/inkscape"
   version="1.1"
   id="Layer_1"
   x="0px"
   y="0px"
   width="400"
   height="420.56"
   viewBox="0 0 400.00002 420.56"
   enable-background="new 0 0 595.22 842"
   xml:space="preserve"
   inkscape:version="0.91 r13725"
   sodipodi:docname="TK.svg"><metadata
     id="metadata23"><rdf:RDF><cc:Work
         rdf:about=""><dc:format>image/svg+xml</dc:format><dc:type
           rdf:resource="http://purl.org/dc/dcmitype/StillImage" /><dc:title></dc:title></cc:Work></rdf:RDF></metadata><defs
     id="defs21" /><sodipodi:namedview
     pagecolor="#ffffff"
     bordercolor="#666666"
     borderopacity="1"
     objecttolerance="10"
     gridtolerance="10"
     guidetolerance="10"
     inkscape:pageopacity="0"
     inkscape:pageshadow="2"
     inkscape:window-width="1680"
     inkscape:window-height="998"
     id="namedview19"
     showgrid="false"
     inkscape:zoom="1.9070465"
     inkscape:cx="333.5"
     inkscape:cy="228.29874"
     inkscape:window-x="-8"
     inkscape:window-y="-8"
     inkscape:window-maximized="1"
     inkscape:current-layer="Layer_1" /><g
     id="g3351"
     transform="matrix(3.4757471,0,0,3.4757488,-1918.3234,-0.00561568)"><path
       style="clip-rule:evenodd;fill:#ef3e33;fill-rule:evenodd"
       id="path267"
       d="m 609.45069,115.80318 c -18.98235,0 -35.63733,-10.73256 -44.81781,-26.752752 26.05476,-4.25394 84.20649,-15.22159 96.10343,-17.47216 -4.87064,25.20396 -26.00946,44.224912 -51.28562,44.224912 M 585.51721,11.344664 c 8.31259,8.010693 13.53972,19.515544 13.53972,32.317574 0,22.0355 -15.4515,40.25786 -35.54663,43.32682 -4.08035,-7.87259 -6.40532,-16.89907 -6.40532,-26.48375 0,-21.39091 11.55715,-39.964166 28.41223,-49.160644 m 76.27288,49.160644 c 0,3.05076 -0.24499,6.03942 -0.68299,8.95548 l -42.50363,-1.49268 c 4.91413,-5.30423 8.27309,-14.30971 7.4497,-20.15963 -2.53557,-17.94666 -17.32117,-26.807542 -26.56615,-32.112672 -4.48204,-2.571866 -8.70068,-4.400942 -11.74854,-5.487927 6.62481,-3.2064573 13.97931,-5.0093333 21.72591,-5.0093333 28.86011,0 52.3388,24.8081723 52.3388,55.3067623 M 609.46389,0.00161471 c -31.72798,0 -57.54704,27.14243929 -57.54704,60.50369329 0,33.35676 25.82106,60.494702 57.54704,60.494702 31.72568,0 57.53613,-27.137942 57.53613,-60.494702 0,-33.361254 -25.81045,-60.50369329 -57.53613,-60.50369329"
       inkscape:connector-curvature="0" /></g></svg>