<?xml version="1.0" encoding="UTF-8" standalone="no"?>
<svg
   xmlns:dc="http://purl.org/dc/elements/1.1/"
   xmlns:cc="http://creativecommons.org/ns#"
   xmlns:rdf="http://www.w3.org/1999/02/22-rdf-syntax-ns#"
   xmlns:svg="http://www.w3.org/2000/svg"
   xmlns="http://www.w3.org/2000/svg"
   xmlns:sodipodi="http://sodipodi.sourceforge.net/DTD/sodipodi-0.dtd"
   xmlns:inkscape="http://www.inkscape.org/namespaces/inkscape"
   width="400"
   height="400.80301"
   viewBox="9.708 10.845 400 400.80301"
   enable-background="new 9.708 10.845 179 35"
   id="svg2"
   version="1.1"
   inkscape:version="0.91 r13725"
   sodipodi:docname="HV.svg">
  <metadata
     id="metadata14">
    <rdf:RDF>
      <cc:Work
         rdf:about="">
        <dc:format>image/svg+xml</dc:format>
        <dc:type
           rdf:resource="http://purl.org/dc/dcmitype/StillImage" />
        <dc:title></dc:title>
      </cc:Work>
    </rdf:RDF>
  </metadata>
  <defs
     id="defs12" />
  <sodipodi:namedview
     pagecolor="#ffffff"
     bordercolor="#666666"
     borderopacity="1"
     objecttolerance="10"
     gridtolerance="10"
     guidetolerance="10"
     inkscape:pageopacity="0"
     inkscape:pageshadow="2"
     inkscape:window-width="1680"
     inkscape:window-height="998"
     id="namedview10"
     showgrid="false"
     inkscape:zoom="0.62810044"
     inkscape:cx="89.5"
     inkscape:cy="17.5"
     inkscape:window-x="-8"
     inkscape:window-y="-8"
     inkscape:window-maximized="1"
     inkscape:current-layer="svg2" />
  <g
     id="g3342"
     transform="matrix(12.552958,0,0,12.552945,-118.4577,-144.57299)">
    <path
       id="path4"
       d="m 42.073,28.348 c 0,-8.893 -7.038,-15.967 -15.932,-15.967 -8.894,0 -15.931,7.075 -15.931,15.969 0,8.892 7.04,15.96 15.932,15.96 8.894,0.002 15.93,-7.068 15.93,-15.96 l 0.003,-0.002 z"
       inkscape:connector-curvature="0"
       style="fill:#00d66c" />
    <path
       id="path6"
       d="m 33.18,30.652 -0.896,0 c -0.896,0 -1.278,0.478 -1.408,1.405 -0.226,1.697 -1.568,2.846 -3.328,2.846 -2.046,0 -3.356,-1.502 -3.356,-3.68 l 0,-5.116 c 0,-0.205 -0.03,-0.385 -0.08,-0.546 0.192,0.087 0.422,0.132 0.686,0.132 l 4.702,0 c 0.898,0 1.408,-0.513 1.408,-1.407 l 0,-0.415 c 0,-0.897 -0.51,-1.408 -1.408,-1.408 l -2.652,0 0,-2.883 c 0,-0.894 -0.514,-1.407 -1.408,-1.407 l -0.642,0 c -0.894,0 -1.406,0.514 -1.406,1.407 l 0,4.705 c 0,0.202 0.026,0.383 0.08,0.545 -0.194,-0.086 -0.424,-0.13 -0.688,-0.13 l -4.702,0 c -0.895,0 -1.408,0.512 -1.408,1.407 l 0,0.417 c 0,0.896 0.513,1.408 1.408,1.408 l 2.656,0 0,3.29 c 0,4.127 2.655,7.007 6.814,7.007 3.872,0 6.43,-2.465 6.91,-6.174 0.126,-0.928 -0.482,-1.404 -1.283,-1.404 z"
       inkscape:connector-curvature="0"
       style="fill:#ffffff" />
  </g>
</svg>
