<?xml version="1.0" encoding="UTF-8" standalone="no"?>
<!-- Generator: Adobe Illustrator 18.0.0, SVG Export Plug-In . SVG Version: 6.00 Build 0)  -->

<svg
   xmlns:dc="http://purl.org/dc/elements/1.1/"
   xmlns:cc="http://creativecommons.org/ns#"
   xmlns:rdf="http://www.w3.org/1999/02/22-rdf-syntax-ns#"
   xmlns:svg="http://www.w3.org/2000/svg"
   xmlns="http://www.w3.org/2000/svg"
   xmlns:sodipodi="http://sodipodi.sourceforge.net/DTD/sodipodi-0.dtd"
   xmlns:inkscape="http://www.inkscape.org/namespaces/inkscape"
   version="1.1"
   id="Layer_1"
   x="0px"
   y="0px"
   viewBox="1.9 159.7 400.00001 89.683"
   enable-background="new 1.9 159.7 397.4 89.1"
   xml:space="preserve"
   inkscape:version="0.91 r13725"
   sodipodi:docname="U2.svg"
   width="400"
   height="89.682999"><metadata
     id="metadata27"><rdf:RDF><cc:Work
         rdf:about=""><dc:format>image/svg+xml</dc:format><dc:type
           rdf:resource="http://purl.org/dc/dcmitype/StillImage" /><dc:title></dc:title></cc:Work></rdf:RDF></metadata><defs
     id="defs25" /><sodipodi:namedview
     pagecolor="#ffffff"
     bordercolor="#666666"
     borderopacity="1"
     objecttolerance="10"
     gridtolerance="10"
     guidetolerance="10"
     inkscape:pageopacity="0"
     inkscape:pageshadow="2"
     inkscape:window-width="1339"
     inkscape:window-height="742"
     id="namedview23"
     showgrid="false"
     inkscape:zoom="0.80020132"
     inkscape:cx="198.7"
     inkscape:cy="44.549999"
     inkscape:window-x="0"
     inkscape:window-y="0"
     inkscape:window-maximized="0"
     inkscape:current-layer="Layer_1" /><g
     id="g3355"
     transform="matrix(1.0065425,0,0,1.0065425,-0.0124308,-1.0447791)"><g
       id="g3"
       enable-background="new    "><path
         id="path5"
         d="m 49.4,207.9 -24.2,0 c -1.1,0 -1.6,0.5 -1.6,1.4 0,2.2 1.2,4.3 3.6,6.3 2.4,2 5,3 7.8,3 1.6,0 3.5,-0.3 5.5,-0.9 2,-0.6 3.7,-1.4 5,-2.3 1.2,-0.8 2.1,-1.2 2.8,-1.2 0.9,0 1.8,0.5 2.6,1.6 0.9,1.1 1.3,2.2 1.3,3.4 0,2.5 -1.5,4.8 -4.6,7.1 -5.4,4.1 -11.7,6.1 -18.8,6.1 -7.2,0 -13.2,-2.1 -18.1,-6.3 -2.4,-2.1 -4.3,-4.5 -5.8,-7.4 -2,-3.9 -3,-7.9 -3,-12.2 0,-5.7 1.7,-10.9 5.2,-15.5 3,-4 6.8,-6.9 11.5,-8.9 3.5,-1.5 7.3,-2.2 11.3,-2.2 6.5,0 12,1.8 16.6,5.5 2.3,1.8 4.1,4 5.5,6.6 1.6,2.9 2.4,5.7 2.4,8.4 0,2.2 -0.5,4 -1.4,5.5 -1,1.3 -2.2,2 -3.6,2 z m -22.8,-9.6 5.2,0 c 2.2,0 3.3,-1 3.3,-3 0,-1.8 -0.5,-3.4 -1.6,-4.5 -1.1,-1.2 -2.4,-1.7 -4.2,-1.7 -1.9,0 -3.4,0.8 -4.5,2.3 -1,1.4 -1.5,2.8 -1.5,4.3 0,1 0.2,1.7 0.7,2.2 0.5,0.2 1.3,0.4 2.6,0.4 z"
         inkscape:connector-curvature="0"
         style="fill:#ff6600" /><path
         id="path7"
         d="m 87,179.7 c 6,0 11,1.5 15.1,4.5 2.2,1.6 3.7,3.4 4.6,5.5 0.9,2.1 1.3,4.9 1.3,8.5 l -0.1,7.6 c 0,5.3 0.4,8.7 1.1,10.3 0.4,0.8 0.7,1.2 1.1,1.4 0.3,0.2 1.1,0.4 2.2,0.6 1.1,0.2 1.6,0.9 1.6,2.2 0,1.6 -0.7,3.4 -2,5.1 -1.3,1.8 -3,3.3 -5.1,4.5 -2.6,1.5 -5.3,2.3 -8.1,2.3 -3.6,0 -6.4,-1.2 -8.5,-3.7 -0.7,-0.9 -1.4,-1.3 -2,-1.3 -0.7,0 -1.6,0.4 -2.7,1.3 -3.4,2.5 -7.3,3.7 -11.6,3.7 -4.5,0 -8.1,-1 -10.9,-2.9 -1.8,-1.3 -3.2,-2.9 -4.3,-5 -1.1,-2 -1.6,-4.2 -1.6,-6.4 0,-3.6 1.4,-6.7 4.3,-9.4 4.5,-4.3 11.2,-6.5 20.1,-6.5 2,0 3.2,-0.2 3.7,-0.6 0.5,-0.4 0.8,-1.3 0.8,-2.7 0,-3.6 -0.4,-6.3 -1.1,-7.9 -0.8,-1.6 -2,-2.4 -3.7,-2.4 -1,0 -1.9,0.3 -2.7,0.9 -0.8,0.6 -1.8,1.7 -3,3.4 -3,4.3 -6.2,6.5 -9.5,6.5 -1.7,0 -3,-0.5 -4.1,-1.5 -1.1,-1 -1.6,-2.3 -1.6,-3.9 0,-1.6 0.7,-3.3 2,-4.9 1.3,-1.6 3.1,-3.1 5.4,-4.3 6.1,-3.3 12.5,-4.9 19.3,-4.9 z m -3.5,29.7 c -1.5,0 -2.8,0.6 -3.9,1.8 -1.1,1.2 -1.7,2.7 -1.7,4.4 0,1.6 0.4,3 1.2,4 0.8,1 1.8,1.5 3.1,1.5 2.7,0 4.1,-2.3 4.1,-6.9 0,-1.9 -0.2,-3.1 -0.6,-3.8 -0.3,-0.6 -1.1,-1 -2.2,-1 z"
         inkscape:connector-curvature="0"
         style="fill:#ff6600" /><path
         id="path9"
         d="m 137.8,179.7 c 1.7,0 4.5,0.4 8.4,1.1 0.8,0.1 1.4,0.2 1.9,0.2 0.6,0 1.7,-0.3 3.4,-0.9 0.8,-0.3 1.5,-0.5 2,-0.5 1.6,0 3.2,1 4.8,3 1.3,1.6 2.4,3.4 3.2,5.3 0.8,1.9 1.2,3.6 1.2,5 0,1.4 -0.5,2.5 -1.4,3.4 -1,0.9 -2.2,1.4 -3.6,1.4 -1.2,0 -2.3,-0.3 -3.2,-0.9 -0.9,-0.6 -2.5,-1.9 -4.5,-3.8 -2.2,-2.1 -4,-3.2 -5.4,-3.2 -1,0 -1.8,0.4 -2.5,1.1 -0.7,0.7 -1.1,1.5 -1.1,2.5 0,1.7 1.6,3.2 4.8,4.7 5.8,2.6 10.2,5.4 13.3,8.5 2.6,2.6 3.9,5.8 3.9,9.5 0,4.8 -2.1,8.7 -6.3,11.9 -3.6,2.8 -8,4.2 -13.2,4.2 -1.3,0 -3.8,-0.2 -7.3,-0.7 -3.3,-0.4 -5.2,-0.6 -5.6,-0.6 -0.4,0 -1,0.1 -1.5,0.2 -1,0.1 -1.7,0.2 -2.2,0.2 -1.6,0 -2.9,-0.4 -3.8,-1.2 -1.4,-1.3 -2.7,-3.3 -3.9,-6 -1.2,-2.7 -1.8,-5.1 -1.8,-7 0,-3.1 1.2,-4.7 3.7,-4.7 1,0 1.8,0.3 2.6,0.9 0.8,0.6 2.5,2.3 5.1,5.1 1.4,1.5 2.6,2.5 3.5,3.1 0.9,0.6 1.9,0.8 3,0.8 1.1,0 2,-0.3 2.7,-0.9 0.7,-0.6 1,-1.4 1,-2.4 0,-1.5 -1.3,-2.9 -4,-4.2 -5.5,-2.7 -9.5,-5.5 -11.9,-8.4 -2.4,-2.9 -3.7,-6.2 -3.7,-10 0,-4.1 1.2,-7.6 3.7,-10.5 3.6,-4 8.5,-6.2 14.7,-6.2 z"
         inkscape:connector-curvature="0"
         style="fill:#ff6600" /><path
         id="path11"
         d="m 216.2,205 -6.8,18.6 c -1.7,4.6 -3.4,8.4 -5.1,11.3 -1.7,2.9 -3.6,5.4 -5.8,7.5 -4.4,4.2 -9.8,6.4 -16.1,6.4 -5.1,0 -9.2,-1.3 -12.3,-4 -2.4,-2.1 -3.6,-4.7 -3.6,-7.8 0,-2.6 0.8,-4.8 2.5,-6.6 1.7,-1.8 3.8,-2.7 6.2,-2.7 2.5,0 4.4,0.8 6,2.5 0.7,0.8 1.2,1.4 1.4,2 0.2,0.6 0.6,1.9 1.1,3.8 0.4,1.5 1.2,2.3 2.6,2.3 1.1,0 1.9,-0.5 2.7,-1.4 0.8,-0.9 1.1,-2.1 1.1,-3.4 0,-1.6 -0.9,-4.3 -2.7,-8.1 L 175,199.1 c -1.3,-2.7 -2.3,-4.4 -2.9,-5.1 -0.7,-0.7 -2.1,-1.5 -4.3,-2.5 -0.7,-0.3 -1.3,-0.8 -1.8,-1.6 -0.5,-0.8 -0.7,-1.6 -0.7,-2.3 0,-3 3,-5.1 9.1,-6.2 4,-0.7 8.6,-1.1 13.8,-1.1 3.6,0 6.5,0.4 8.6,1.1 2.8,1 4.2,2.7 4.2,5.1 0,0.9 -0.4,1.9 -1.2,3 -0.8,1.1 -1.1,2.1 -1.1,2.9 0,0.8 0.2,1.7 0.5,2.6 0.4,0.9 1.1,2.4 2.3,4.5 1.3,2.4 2.4,3.6 3.4,3.6 1.1,0 2.2,-1.1 3.3,-3.2 1.1,-2.1 1.7,-4.1 1.7,-6.1 0,-1.6 -0.4,-2.9 -1.3,-3.8 -1.3,-1.5 -2,-2.9 -2,-4 0,-1.7 1.2,-3.1 3.5,-4.2 2.3,-1 5.4,-1.6 9.3,-1.6 7.3,0 10.9,1.7 10.9,5.2 0,1.3 -0.4,2.3 -1.1,3.1 -0.7,0.8 -2.1,1.5 -4,2.2 -1.6,0.6 -2.9,1.6 -3.9,3.1 -1.4,2.1 -3.1,5.9 -5.1,11.2 z"
         inkscape:connector-curvature="0"
         style="fill:#ff6600" /><path
         id="path13"
         d="m 274.8,159.7 c 3.8,0 7.7,0.3 11.7,1 3.2,0.5 5.6,1.3 7,2.3 1.4,1 2.1,2.3 2.1,4 0,1.1 -0.3,1.9 -0.8,2.5 -0.5,0.6 -1.6,1.3 -3.3,2.2 -2,1 -3.1,2.2 -3.4,3.6 -0.3,1.4 -0.6,6.8 -0.8,16.1 -0.1,9.1 -0.2,14.5 -0.3,16.3 -0.1,1.8 -0.3,3.6 -0.6,5.3 -1,5 -3,8.9 -6,11.8 -2.5,2.3 -5.6,4.2 -9.5,5.5 -3.9,1.3 -7.9,2 -12.2,2 -3.8,0 -7.6,-0.5 -11.4,-1.5 -3.8,-1 -7.1,-2.4 -9.9,-4.1 -2.3,-1.4 -4.2,-3.4 -5.5,-5.8 -1.4,-2.4 -2.1,-5.1 -2.1,-7.8 0,-3.4 1.1,-6.3 3.2,-8.5 2.2,-2.2 4.9,-3.4 8.1,-3.4 3.2,0 5.9,0.9 8.1,2.8 2.2,1.9 3.3,4.3 3.3,7.1 0,0.7 -0.2,1.9 -0.6,3.6 -0.1,0.3 -0.1,0.7 -0.1,1.1 0,1.1 0.4,2 1.2,2.7 0.8,0.7 1.8,1 3.1,1 2.3,0 4.1,-1 5.5,-3.1 1.4,-2.1 2.1,-4.8 2.1,-8.1 l -0.1,-4.7 -0.1,-12.6 c -0.3,-7.6 -0.5,-12.1 -0.7,-13.5 -0.2,-1.4 -0.5,-2.5 -1.2,-3.3 -0.5,-0.7 -1,-1.1 -1.4,-1.3 -0.4,-0.2 -1.5,-0.5 -3.2,-1 -0.8,-0.2 -1.5,-0.6 -2.1,-1.4 -0.6,-0.8 -0.9,-1.6 -0.9,-2.5 0,-1.8 0.7,-3.3 2.2,-4.4 1.5,-1.1 3.8,-2 7.1,-2.7 3.8,-0.8 7.6,-1.2 11.5,-1.2 z"
         inkscape:connector-curvature="0"
         style="fill:#ff6600" /></g><g
       id="g15"
       enable-background="new    "><path
         id="path17"
         d="m 345.7,207.9 -24.1,0 c -1.1,0 -1.6,0.5 -1.6,1.4 0,2.2 1.2,4.3 3.6,6.3 2.4,2 5,3 7.8,3 1.6,0 3.5,-0.3 5.5,-0.9 2,-0.6 3.7,-1.4 5,-2.3 1.2,-0.8 2.1,-1.2 2.8,-1.2 0.9,0 1.8,0.5 2.6,1.6 0.9,1.1 1.3,2.2 1.3,3.4 0,2.5 -1.5,4.8 -4.6,7.1 -5.4,4.1 -11.7,6.1 -18.8,6.1 -7.2,0 -13.2,-2.1 -18.1,-6.3 -2.4,-2.1 -4.3,-4.5 -5.8,-7.4 -2,-3.9 -3,-7.9 -3,-12.2 0,-5.7 1.7,-10.9 5.2,-15.5 3,-4 6.8,-6.9 11.5,-8.9 3.5,-1.5 7.3,-2.2 11.3,-2.2 6.5,0 12,1.8 16.6,5.5 2.3,1.8 4.1,4 5.5,6.6 1.6,2.9 2.4,5.7 2.4,8.4 0,2.2 -0.5,4 -1.4,5.5 -1,1.3 -2.2,2 -3.7,2 z m -22.8,-9.6 5.2,0 c 2.2,0 3.3,-1 3.3,-3 0,-1.8 -0.5,-3.4 -1.6,-4.5 -1.1,-1.2 -2.4,-1.7 -4.2,-1.7 -1.9,0 -3.4,0.8 -4.5,2.3 -1,1.4 -1.5,2.8 -1.5,4.3 0,1 0.2,1.7 0.7,2.2 0.5,0.2 1.4,0.4 2.6,0.4 z"
         inkscape:connector-curvature="0"
         style="fill:#ff6600" /></g><g
       id="g19"
       enable-background="new    "><path
         id="path21"
         d="m 383.8,193.2 0,17.3 c 0,2.1 0.5,3.7 1.5,5 1,1.3 2.3,2 3.9,2 1.3,0 3.1,-0.6 5.3,-1.8 0.5,-0.3 1,-0.5 1.5,-0.5 0.8,0 1.6,0.5 2.3,1.5 0.7,1 1,2.1 1,3.2 0,2.1 -1.2,4.2 -3.5,6.1 -4.9,4.1 -10.7,6.2 -17.7,6.2 -5.5,0 -9.9,-1.5 -13.2,-4.6 -3.3,-3.1 -5,-7.2 -5,-12.2 l 0,-23.7 c 0,-0.8 -0.1,-1.3 -0.3,-1.5 -0.2,-0.2 -0.7,-0.3 -1.5,-0.3 l -5.1,0 c -1,0 -1.6,-0.2 -1.9,-0.5 -0.3,-0.3 -0.4,-1.1 -0.4,-2.3 l 0,-2.3 c 0,-1 0.4,-1.8 1.2,-2.3 l 23.5,-14.8 c 0.6,-0.3 1.3,-0.5 2.2,-0.5 l 4.2,0 c 0.9,0 1.4,0.2 1.7,0.6 0.3,0.4 0.4,1.2 0.4,2.3 l 0,6.9 c 0,1 0.2,1.7 0.5,2 0.3,0.3 1,0.5 2.1,0.5 l 9.5,0 c 1.3,0 2.1,0.2 2.5,0.7 0.4,0.5 0.6,1.4 0.6,3 l 0,3 c 0,1.6 -0.2,2.8 -0.7,3.4 -0.5,0.6 -1.4,0.9 -2.6,0.9 l -9.3,0 c -1,0 -1.6,0.2 -1.9,0.5 -0.6,0.6 -0.8,1.2 -0.8,2.2 z"
         inkscape:connector-curvature="0"
         style="fill:#ff6600" /></g></g></svg>