<?xml version="1.0" encoding="UTF-8" standalone="no"?>
<!-- Created with Inkscape (http://www.inkscape.org/) -->

<svg
   xmlns:dc="http://purl.org/dc/elements/1.1/"
   xmlns:cc="http://creativecommons.org/ns#"
   xmlns:rdf="http://www.w3.org/1999/02/22-rdf-syntax-ns#"
   xmlns:svg="http://www.w3.org/2000/svg"
   xmlns="http://www.w3.org/2000/svg"
   xmlns:sodipodi="http://sodipodi.sourceforge.net/DTD/sodipodi-0.dtd"
   xmlns:inkscape="http://www.inkscape.org/namespaces/inkscape"
   version="1.1"
   width="400"
   height="309.06201"
   id="svg15504"
   xml:space="preserve"
   inkscape:version="0.91 r13725"
   sodipodi:docname="U6.svg"><metadata
     id="metadata23"><rdf:RDF><cc:Work
         rdf:about=""><dc:format>image/svg+xml</dc:format><dc:type
           rdf:resource="http://purl.org/dc/dcmitype/StillImage" /><dc:title></dc:title></cc:Work></rdf:RDF></metadata><sodipodi:namedview
     pagecolor="#ffffff"
     bordercolor="#666666"
     borderopacity="1"
     objecttolerance="10"
     gridtolerance="10"
     guidetolerance="10"
     inkscape:pageopacity="0"
     inkscape:pageshadow="2"
     inkscape:window-width="1457"
     inkscape:window-height="934"
     id="namedview21"
     showgrid="false"
     inkscape:zoom="1.1242998"
     inkscape:cx="200"
     inkscape:cy="65"
     inkscape:window-x="0"
     inkscape:window-y="0"
     inkscape:window-maximized="0"
     inkscape:current-layer="g16179" /><defs
     id="defs15508"><clipPath
       id="clipPath15616"><path
         d="m 166.859,314.73 c -4.129,-3.082 -8.129,-5.429 -11.996,-7.05 -3.871,-1.641 -8.414,-2.45 -13.64,-2.45 -2.516,0 -7.114,0.192 -13.778,0.559 l -4.507,0.231 2.921,6.621 c 8.223,-0.621 12.692,-0.93 13.418,-0.93 4.551,0 9.5,1.988 14.821,6 l 2.59,1.969 -34.36,43.691 16.578,0 28.477,-36.223 47.211,36.223 17.16,0 -64.895,-48.641 z m 179.258,27.321 c -2.07,-2.449 -4.679,-4.461 -7.824,-6.051 -3.152,-1.609 -6.359,-2.801 -9.594,-3.609 -3.23,-0.801 -6.691,-1.391 -10.379,-1.789 -7.871,-0.872 -15.808,-1.293 -23.851,-1.293 l -30.719,0 -10.41,-23.297 -16.406,0 25.609,57.359 51.297,0 c 8.89,0 15.547,-0.48 20,-1.441 4.437,-0.942 8.109,-2.571 11.015,-4.891 2.911,-2.289 4.356,-4.891 4.356,-7.75 0,-2.379 -1.023,-4.777 -3.094,-7.238 z m -15.316,11.66 c -1.571,1.187 -3.789,2.07 -6.637,2.629 -2.851,0.558 -8.324,0.851 -16.437,0.851 l -31.539,0 -9.547,-21.421 27.089,0 c 10.524,0 18.239,0.539 23.161,1.589 4.906,1.051 8.847,2.672 11.808,4.84 2.965,2.172 4.442,4.461 4.442,6.903 0,1.886 -0.778,3.418 -2.34,4.609 z m 106.578,-47.699 -5.891,16.547 -49.718,0 -19.625,-16.547 -18.223,0 69.246,57.359 19.812,0 20.297,-57.359 -15.898,0 z m -12.524,36.808 c -2,5.711 -3.234,10.469 -3.718,14.27 -2.809,-3.281 -6.918,-7.168 -12.309,-11.66 l -19.898,-16.969 40.488,0 -4.563,14.359 z m 151.489,-36.808 -16.406,0 22.691,50.867 -47.453,0 -14.238,-31.5 c -3.715,-8.258 -7.731,-13.66 -12.055,-16.207 -4.328,-2.563 -11.262,-3.832 -20.809,-3.832 -2.41,0 -5.996,0.199 -10.804,0.609 l 2.933,6.481 c 4.684,-0.41 7.508,-0.621 8.453,-0.621 3.352,0 6.254,0.832 8.75,2.543 2.489,1.687 4.922,5.168 7.321,10.468 l 17.16,38.551 80.027,0 -25.57,-57.359 z m 137.226,8.679 c -4.765,-3.203 -10.609,-5.441 -17.531,-6.73 -6.906,-1.301 -18.066,-1.949 -33.473,-1.949 l -41.918,0 25.614,57.359 16.41,0 -10.91,-24.449 24.918,0 c 12.308,0 21.008,-0.422 26.093,-1.274 5.094,-0.847 9.344,-2.347 12.793,-4.507 3.434,-2.141 5.161,-4.813 5.161,-7.993 0,-3.796 -2.375,-7.289 -7.157,-10.457 z m -12.539,14.68 c -2.152,1.238 -5.093,2.07 -8.804,2.481 -3.707,0.386 -9.622,0.597 -17.715,0.597 l -25.711,0 -8.852,-19.98 14.383,0 c 14.438,0 24.731,0.383 30.902,1.152 6.153,0.777 10.86,2.231 14.121,4.359 3.262,2.122 4.891,4.399 4.891,6.821 0,1.808 -1.07,3.32 -3.215,4.57 z m 143.266,16.207 c -1.645,4.152 -4.996,7.242 -10.043,9.293 -5.035,2.039 -11.527,3.07 -19.496,3.07 -14.977,0 -27.106,-3.109 -36.352,-9.32 -8.011,-5.359 -12.011,-11.73 -12.011,-19.09 0,-5.89 3.093,-10.359 9.273,-13.48 6.187,-3.082 14.238,-4.621 24.168,-4.621 8.465,0 16.125,1.281 22.977,3.851 6.859,2.559 11.855,6.188 14.976,10.891 l 16.266,-1.051 c -5.133,-6.601 -12.594,-11.609 -22.41,-14.992 -9.813,-3.391 -20.821,-5.07 -33.028,-5.07 -14.89,0 -26.691,2.113 -35.414,6.371 -8.723,4.23 -13.09,10.332 -13.09,18.25 0,10.32 6.625,18.859 19.887,25.601 11.797,6.02 26.477,9.039 44.02,9.039 12.972,0 23.484,-1.629 31.539,-4.91 8.039,-3.262 12.707,-7.648 13.984,-13.172 l -15.246,-0.66 z m 143.676,11.481 c -0.571,0 -1.606,0.043 -3.106,0.113 -2.285,0.129 -3.832,0.199 -4.609,0.199 -2.91,0 -5.473,-0.512 -7.699,-1.531 -2.286,-1.008 -5.164,-2.879 -8.621,-5.621 -6.786,-5.379 -12.215,-9.047 -16.325,-11.02 -4.117,-1.961 -8.996,-3.258 -14.652,-3.879 8.277,-1.5 15.656,-5.929 22.105,-13.281 l 13.989,-16.027 -18,0 -11.7,13.386 c -4.648,5.313 -8.847,8.872 -12.593,10.661 -3.758,1.769 -9.063,2.73 -15.926,2.863 l -12.027,-26.91 -16.407,0 25.61,57.359 16.414,0 -11.223,-25.312 c 5.094,0 9.262,0.32 12.481,0.961 3.222,0.64 6.613,1.902 10.183,3.808 3.563,1.91 7.235,4.383 11.02,7.422 5.984,4.941 10.324,8.102 13.051,9.488 2.691,1.391 5.98,2.41 9.835,3.051 3.86,0.641 7.649,0.949 11.395,0.949 0.508,0 3.711,-0.097 9.645,-0.308 l -2.84,-6.371 z m 133.397,6.312 -25.63,-57.359 -15.53,0 19.56,43.777 -83.59,-43.777 -15.7,0 25.61,57.359 15.64,0 -19.44,-44.051 83.77,44.051 15.31,0 z m 130.75,-6.492 -72.64,0 -8.04,-17.957 71,0 -2.84,-6.473 -71.04,0 -8.93,-19.98 77.38,0 -2.93,-6.457 -93.74,0 25.63,57.359 88.87,0 -2.72,-6.492 z m 166.77,-50.867 -5.89,16.547 -49.73,0 -19.63,-16.547 -18.22,0 69.24,57.359 19.82,0 20.29,-57.359 -15.88,0 z m -12.54,36.808 c -2,5.711 -3.23,10.469 -3.72,14.27 -2.81,-3.281 -6.9,-7.168 -12.31,-11.66 l -19.9,-16.969 40.5,0 -4.57,14.359 z m 162.85,-1.41 c -3.73,-2.422 -9.43,-4.23 -17.11,-5.488 6.66,-1.031 11.62,-2.563 14.91,-4.602 3.29,-2.039 4.94,-4.449 4.94,-7.179 0,-3.141 -1.97,-6.18 -5.93,-9.071 -3.96,-2.89 -9.2,-5.121 -15.73,-6.711 -6.51,-1.57 -13.8,-2.347 -21.82,-2.347 l -60.66,0 25.64,57.359 39.08,0 c 7.12,0 12.4,-0.133 15.84,-0.383 5.62,-0.457 10.38,-1.218 14.24,-2.347 3.87,-1.102 6.88,-2.61 9.01,-4.532 2.12,-1.91 3.18,-4.039 3.18,-6.359 0,-3.172 -1.86,-5.949 -5.59,-8.34 z m -82.1,-28.941 28.89,0 c 7.67,0 12.83,0.121 15.48,0.351 5.37,0.418 9.72,1.129 13.07,2.129 3.35,1.012 5.97,2.34 7.87,3.992 1.9,1.649 2.85,3.368 2.85,5.168 0,2.7 -1.83,4.743 -5.52,6.141 -3.67,1.391 -10.78,2.102 -21.3,2.102 l -32.45,0 -8.89,-19.883 z m 69.9,41.051 c -1.68,1.171 -3.95,2.039 -6.78,2.57 -2.83,0.531 -8.15,0.789 -15.96,0.789 l -27.29,0 -8.08,-18.059 26.01,0 c 12.42,0 21.31,0.899 26.64,2.68 5.34,1.789 8,4.379 8,7.801 0,1.621 -0.85,3.019 -2.54,4.219 z m 162.87,9.851 -25.63,-57.359 -15.53,0 19.56,43.777 -83.59,-43.777 -15.72,0 25.62,57.359 15.65,0 -19.45,-44.051 83.79,44.051 15.3,0 z m 101.41,-57.359 -5.88,16.547 -49.73,0 -19.63,-16.547 -18.22,0 69.24,57.359 19.82,0 20.3,-57.359 -15.9,0 z m -12.53,36.808 c -1.99,5.711 -3.22,10.469 -3.71,14.27 -2.8,-3.281 -6.91,-7.168 -12.31,-11.66 l -19.89,-16.969 40.49,0 -4.58,14.359 z m 151.5,-36.808 -16.41,0 22.69,50.867 -47.45,0 -14.24,-31.5 c -3.72,-8.258 -7.73,-13.66 -12.06,-16.207 -4.32,-2.563 -11.26,-3.832 -20.8,-3.832 -2.41,0 -6,0.199 -10.8,0.609 l 2.93,6.481 c 4.68,-0.41 7.5,-0.621 8.45,-0.621 3.35,0 6.26,0.832 8.74,2.543 2.48,1.687 4.94,5.168 7.33,10.468 l 17.16,38.551 80.03,0 -25.57,-57.359 z m 165.19,57.359 -25.62,-57.359 -15.54,0 19.56,43.777 -83.57,-43.777 -15.72,0 25.62,57.359 15.65,0 -19.46,-44.051 83.79,44.051 15.29,0 z m 115.72,-57.359 -16.4,0 12.08,27.008 -63.95,0 -12.07,-27.008 -16.41,0 25.63,57.359 16.41,0 -10.67,-23.883 63.95,0 10.66,23.883 16.43,0 -25.66,-57.359 z m 164.77,57.359 -25.63,-57.359 -15.52,0 19.55,43.777 -83.59,-43.777 -15.7,0 25.61,57.359 15.65,0 -19.46,-44.051 83.79,44.051 15.3,0 z m 139.65,0 -25.62,-57.359 -15.54,0 19.55,43.777 -83.57,-43.777 -15.71,0 25.61,57.359 15.66,0 -19.46,-44.051 83.77,44.051 15.31,0"
         id="path15618"
         inkscape:connector-curvature="0" /></clipPath><clipPath
       id="clipPath15622"><path
         d="M 0,1440 0,0 l 4320,0 0,1440"
         id="path15624"
         inkscape:connector-curvature="0" /></clipPath></defs><g
     transform="matrix(1.25,0,0,-1.25,0,309.062)"
     id="g15514"><g
       transform="matrix(0.73632494,0,0,0.73632494,-1.0073149,-1.2579153)"
       id="g16179"><g
         transform="scale(0.1,0.1)"
         clip-path="url(#clipPath15616)"
         id="g15614"><g
           clip-path="url(#clipPath15622)"
           id="g15620"><g
             transform="matrix(4321,0,0,1441,-0.50025,-0.500218)"
             id="g15626" /></g></g><g
         id="g3351"
         transform="matrix(2.5871847,0,0,2.5871847,-663.83855,-18.923363)"><path
           style="fill:#205ba5;fill-opacity:1"
           id="path15564"
           d="m 425.094,52.173 c 0,0 -163.994,-42.33706 -167.978,7.2481 0.157,26.9816 45.713,46.9879 45.713,46.9879 10e-4,0 -23.525,-27.7379 -14.482,-41.5945 C 305.857,42.1379 425.094,52.173 425.094,52.173"
           inkscape:connector-curvature="0" /><path
           style="fill:#98bfe8;fill-opacity:1"
           id="path15582"
           d="m 257.678,29.2148 c 0,0 68.77,116.1322 123.336,108.1562 25.435,-5.616 2.972,-66.012 2.972,-66.012 0,0 -2.403,43.303 -26.12,35.517 C 316.485,97.8148 257.678,29.2148 257.678,29.2148"
           inkscape:connector-curvature="0" /><path
           style="fill:#c5001e;fill-opacity:1"
           id="path15600"
           d="m 282.438,122.914 c 0.001,0 130.347,-50.8613 130.785,-95.8761 C 412.214,4.84219 346.785,8.14883 346.785,8.14883 c 0,0 41.842,8.41837 30.308,33.11137 -15.077,31.0003 -94.655,81.6538 -94.655,81.6538"
           inkscape:connector-curvature="0" /><path
           style="fill:#9f021b;fill-opacity:1"
           id="path16164"
           transform="matrix(0.8,0,0,-0.8,0,842)"
           d="m 503.15625,989 c -11.07449,0.51878 -24.38293,0.97202 -38.625,1.03125 2.57046,3.4314 4.71324,6.77149 6.34375,9.9375 13.38583,-2.30774 25.62044,-4.7476 35.5,-6.875 -1.01077,-1.36894 -2.08093,-2.72967 -3.21875,-4.09375 z"
           inkscape:connector-curvature="0" /><path
           style="fill:#c10920;fill-opacity:1"
           id="path16169"
           transform="matrix(0.8,0,0,-0.8,0,842)"
           d="m 398,918.71875 c -2.21844,2.11577 -4.39355,4.26911 -6.5625,6.46875 5.32843,3.86545 10.83595,7.99785 16.5,12.34375 4.12166,-2.74047 8.24897,-5.2981 12.34375,-7.59375 -7.70179,-4.0502 -15.2201,-7.82276 -22.28125,-11.21875 z"
           inkscape:connector-curvature="0" /><path
           style="fill:#578dce;fill-opacity:1"
           id="path16174"
           transform="matrix(0.8,0,0,-0.8,0,842)"
           d="m 357.9375,963.96875 c -9.77562,12.66174 -18.05825,24.51564 -24.1875,33.71875 1.04679,0.67169 2.15335,1.30677 3.3125,1.90625 6.89181,-7.26596 15.70152,-16.167 25.78125,-25.5625 -0.92391,-0.80757 -1.72227,-1.6767 -2.40625,-2.5625 -1.46829,-2.24987 -2.25183,-4.77862 -2.5,-7.5 z"
           inkscape:connector-curvature="0" /></g></g></g></svg>