<?xml version="1.0" encoding="UTF-8" standalone="no"?>
<!-- Created with Inkscape (http://www.inkscape.org/) -->

<svg
   xmlns:dc="http://purl.org/dc/elements/1.1/"
   xmlns:cc="http://creativecommons.org/ns#"
   xmlns:rdf="http://www.w3.org/1999/02/22-rdf-syntax-ns#"
   xmlns:svg="http://www.w3.org/2000/svg"
   xmlns="http://www.w3.org/2000/svg"
   xmlns:sodipodi="http://sodipodi.sourceforge.net/DTD/sodipodi-0.dtd"
   xmlns:inkscape="http://www.inkscape.org/namespaces/inkscape"
   version="1.1"
   width="400"
   height="97.978996"
   id="svg3492"
   inkscape:version="0.91 r13725"
   sodipodi:docname="UT.svg">
  <sodipodi:namedview
     pagecolor="#ffffff"
     bordercolor="#666666"
     borderopacity="1"
     objecttolerance="10"
     gridtolerance="10"
     guidetolerance="10"
     inkscape:pageopacity="0"
     inkscape:pageshadow="2"
     inkscape:window-width="1680"
     inkscape:window-height="998"
     id="namedview7"
     showgrid="false"
     inkscape:zoom="0.35613756"
     inkscape:cx="446.4567"
     inkscape:cy="111.9685"
     inkscape:window-x="-8"
     inkscape:window-y="-8"
     inkscape:window-maximized="1"
     inkscape:current-layer="layer1" />
  <defs
     id="defs3494" />
  <metadata
     id="metadata3497">
    <rdf:RDF>
      <cc:Work
         rdf:about="">
        <dc:format>image/svg+xml</dc:format>
        <dc:type
           rdf:resource="http://purl.org/dc/dcmitype/StillImage" />
        <dc:title></dc:title>
      </cc:Work>
    </rdf:RDF>
  </metadata>
  <g
     transform="translate(40.583341,-499.95129)"
     id="layer1">
    <path
       d="m 248.72255,504.29507 c 0.83584,-2.53352 -1.04805,-4.34379 -3.04455,-4.34379 l -146.103522,0.34196 c -4.387089,-0.004 -10.52815,2.265 -13.637656,7.63086 l -37.318418,68.63009 c -2.386263,4.39575 -8.176529,7.59188 -13.641986,7.59188 l -11.34667,-0.0139 c -3.421324,0.0139 -6.292639,-3.71583 -4.192206,-7.5789 l 37.409365,-68.85961 c 1.628378,-2.98824 -0.298997,-7.34502 -4.287484,-7.37967 -1.710659,-0.0139 -28.825736,0 -32.909673,0 -4.768196,0 -9.7789231,2.30831 -13.0010291,7.93835 -2.4382335,4.27448 -46.2788199,78.98501 -46.2788199,78.98501 -2.771707,4.59497 0.957104,9.6187 5.335535,9.64901 l 88.335117,0 c 6.037122,-0.004 11.195092,-3.07486 13.789233,-7.48795 L 105.02261,520.751 c 3.21345,-5.91152 6.6954,-7.7348 13.70262,-7.7348 l 9.65766,0.0104 c 3.54692,0 6.44422,3.6552 4.21819,7.72614 l -36.261705,66.62493 c -2.269333,4.17055 0.783873,9.45412 5.461125,9.48011 l 30.84822,-0.0277 c 5.64302,0.0139 11.62817,-3.32605 14.04042,-7.75645 l 36.99361,-68.30528 c 3.84574,-7.08085 6.72571,-7.75213 13.59002,-7.75213 l 43.66302,-0.12126 c 2.93627,0.0994 3.98433,-1.96184 4.59496,-2.83233 l 3.1918,-5.76861 z m 54.31241,92.60536 -26.53473,0 c 0,0 27.88597,-56.76804 31.27263,-63.51975 2.55951,-5.07136 5.69498,-5.37451 8.62259,-5.37451 l 16.40073,0 c 0,0 -8.51869,17.04167 -8.89547,17.6653 l 0.76656,0.0208 c 0,0 11.52858,-18.27594 27.01982,-18.75233 6.14102,-0.20372 13.17423,7.40998 1.24724,17.41412 -8.33675,-1.67169 -24.49494,1.93586 -32.86204,17.44443 -2.39925,4.4434 -17.03733,35.10109 -17.03733,35.10109 m -19.72239,-94.53689 c 0.64528,-1.04805 2.06578,-2.36028 4.59929,-2.36028 2.53785,0 16.59991,0.0561 18.15466,0.0433 1.6457,-0.0208 4.1619,1.77995 2.73273,4.71624 -0.8748,1.81027 -5.60837,11.54156 -6.18871,12.52032 -0.57596,0.98309 -1.96182,2.36461 -3.91501,2.36461 -1.95752,0 -17.45741,0 -18.40586,0 -3.15714,0 -4.01897,-3.11816 -3.26541,-4.61229 1.38585,-2.76305 6.28831,-12.67191 6.28831,-12.67191 m -66.45164,62.34178 c -2.45556,0.052 -5.49577,0.563 -7.98165,1.20829 -2.47721,0.64962 -4.71623,1.49845 -6.72138,2.55516 -1.70634,0.9138 -3.11384,1.97919 -4.28749,3.23512 -1.14333,1.22561 -2.01814,2.57682 -2.62879,4.0233 -0.7319,1.74531 -0.74489,3.15714 -0.0139,4.25283 0.72324,1.09136 2.41658,1.48547 4.01031,1.48547 3.08353,0 6.37059,-1.48547 9.41081,-4.41308 3.04887,-2.94927 8.21118,-12.34709 8.21118,-12.34709 m -14.5861,-35.1747 c 2.00082,-1.43783 5.84223,-1.77996 6.14106,-1.77996 l 23.95792,0.0173 c 4.08394,0.004 7.53991,0.35946 10.32894,1.05238 5.69932,1.41617 8.7915,4.45639 9.47577,10.06044 0.35079,2.93194 -0.29034,6.4009 -1.96185,10.37225 -0.39843,0.9701 -0.90514,2.64178 -1.78428,4.06661 -0.8705,1.43349 -18.03341,34.08335 -23.42092,43.53747 l -24.93235,0 c 0,0 5.71231,-10.51517 6.08476,-11.14313 l -0.76222,-0.0312 c 0,0 -11.38132,12.12621 -26.02372,12.24748 -3.05754,0.0242 -5.50876,-0.4504 -7.37534,-1.34255 -1.83192,-0.89214 -3.20911,-2.29965 -4.10125,-4.22686 -0.85317,-1.74098 -1.21695,-3.82409 -1.11735,-6.25366 0.0998,-2.41658 0.72758,-5.03672 1.90555,-7.83008 1.07837,-2.57249 2.49887,-5.00206 4.24851,-7.3147 1.74097,-2.27368 3.77212,-4.34812 6.08043,-6.22769 2.11342,-1.68034 4.43039,-3.15714 7.01587,-4.4737 2.58115,-1.29925 5.44381,-2.4599 8.56198,-3.46898 3.58589,-1.14332 7.86038,-2.10043 12.84512,-2.90162 4.98474,-0.80986 10.2683,-1.34255 15.8377,-1.61539 1.77562,-2.84966 2.01815,-3.36935 2.01815,-5.2879 0,-1.35554 -1.62405,-2.74572 -3.72881,-2.74572 -1.56342,0 -28.7781,0.80552 -28.66117,0.57599 l 5.08868,-9.89586 c 0.49804,-0.96577 2.76304,-4.3178 4.27882,-5.39184 m 96.11755,-1.55908 -33.02661,64.43788 -2.19138,4.44772 -26.11899,0 c 10.97422,-21.41144 21.35945,-41.7272 32.33368,-63.13864 1.32522,-1.93153 0.42874,-1.20396 2.76737,-3.66385 1.38152,-1.34688 4.23551,-1.83626 5.74263,-2.08311 l 20.4933,0 z"
       id="path3239"
       style="fill:#004990;fill-opacity:1;fill-rule:nonzero;stroke:none"
       inkscape:connector-curvature="0" />
  </g>
</svg>
