<?xml version="1.0" encoding="UTF-8" standalone="no"?>
<svg
   xmlns:dc="http://purl.org/dc/elements/1.1/"
   xmlns:cc="http://creativecommons.org/ns#"
   xmlns:rdf="http://www.w3.org/1999/02/22-rdf-syntax-ns#"
   xmlns:svg="http://www.w3.org/2000/svg"
   xmlns="http://www.w3.org/2000/svg"
   xmlns:sodipodi="http://sodipodi.sourceforge.net/DTD/sodipodi-0.dtd"
   xmlns:inkscape="http://www.inkscape.org/namespaces/inkscape"
   version="1.0"
   id="Layer_1"
   x="0px"
   y="0px"
   width="400"
   height="239.565"
   viewBox="0 0 400 239.565"
   enable-background="new 0 0 300 36"
   xml:space="preserve"
   inkscape:version="0.91 r13725"
   sodipodi:docname="VN.svg"><metadata
     id="metadata49"><rdf:RDF><cc:Work
         rdf:about=""><dc:format>image/svg+xml</dc:format><dc:type
           rdf:resource="http://purl.org/dc/dcmitype/StillImage" /><dc:title></dc:title></cc:Work></rdf:RDF></metadata><defs
     id="defs47" /><sodipodi:namedview
     pagecolor="#ffffff"
     bordercolor="#666666"
     borderopacity="1"
     objecttolerance="10"
     gridtolerance="10"
     guidetolerance="10"
     inkscape:pageopacity="0"
     inkscape:pageshadow="2"
     inkscape:window-width="1680"
     inkscape:window-height="998"
     id="namedview45"
     showgrid="false"
     inkscape:zoom="1.06"
     inkscape:cx="150"
     inkscape:cy="18"
     inkscape:window-x="-8"
     inkscape:window-y="-8"
     inkscape:window-maximized="1"
     inkscape:current-layer="g5" /><g
     id="g3"
     transform="translate(0,203.565)"><g
       id="g5"><g
         id="g7"
         transform="matrix(7.3173918,0,0,7.3173918,-3.7811577,-215.5061)"><path
           d="M 27.847,31.214 C 27.372,31.47 23.96,34.371 17.164,34.371 11.442,34.371 5.331,31.458 3.417,31.514 2.743,31.49 2.197,31.622 1.774,31.811 0.976,32.143 0.453,31.614 0.523,31.164 0.597,30.712 1.252,29.871 1.729,29.265 2.31,28.512 3.221,27.681 4.191,27.019 c 2.712,-1.85 5.226,-1.89 6.339,-1.691 0.17,0.029 0.656,0.052 1.424,0.804 1.85,1.774 5.184,4.009 7.748,4.468 0.271,0.03 1.436,0.146 1.455,-0.186 0.012,-0.197 -0.312,-0.273 -0.422,-0.298 C 16.614,29.185 14.238,27.173 11.97,25.103 10.124,23.421 8.72,21.335 7.661,19.298 6.826,17.681 5.653,14.482 3.522,13.411 3.046,13.179 3.032,12.309 4.026,12.08 c 0.692,-0.169 4.896,-0.562 9.904,2.142 1.97,1.068 2.606,2.257 2.68,2.55 0,0 0.116,0.068 0.146,0.579 0.265,7.214 3.441,9.634 4.976,10.748 0.621,0.483 1.398,0.689 1.612,0.475 0.094,-0.105 -0.158,-0.33 -0.325,-0.44 -4.427,-2.916 -5.283,-6.718 -5.522,-10.796 -0.232,-4.055 1.478,-7.58 2.561,-10.459 0.154,-0.41 0.781,-2.262 0.309,-3.836 -0.315,-1.067 0.019,-1.316 0.605,-1.405 0.596,-0.087 1.5,1.138 1.815,1.52 0.24,0.289 1.04,1.216 2.236,3.595 2.366,4.693 2.385,9.888 2.382,10.483 -0.042,3.38 -0.666,3.585 -2.274,4.369 -1.341,0.524 -2.093,1.599 -2.093,2.646 0,1.067 0.798,1.858 2.248,2.478 0.097,0.028 0.268,0.082 0.342,0.102 0.637,0.156 1.173,0.014 1.173,-0.229 0,-0.217 -0.632,-0.297 -0.632,-0.297 -1.416,-0.349 -2.398,-1.148 -2.398,-2.058 0,-1.237 1.738,-2.493 3.963,-2.493 l 0.113,0 0.124,-0.003 c 2.216,0 3.953,1.252 3.953,2.494 0,0.911 -0.979,1.708 -2.393,2.058 0,0 -0.631,0.082 -0.631,0.295 0.005,0.244 0.529,0.387 1.17,0.23 0.08,-0.018 0.244,-0.07 0.349,-0.104 1.451,-0.616 2.241,-1.411 2.241,-2.478 0,-1.045 -0.747,-2.116 -2.092,-2.643 -1.609,-0.781 -2.222,-0.992 -2.273,-4.371 -0.006,-0.593 0.021,-5.789 2.375,-10.48 1.2,-2.381 1.996,-3.309 2.243,-3.595 0.311,-0.381 1.215,-1.605 1.817,-1.521 0.592,0.091 0.916,0.34 0.6,1.404 -0.47,1.578 0.152,3.429 0.31,3.837 1.073,2.881 2.792,6.403 2.557,10.459 -0.233,4.078 -1.089,7.88 -5.518,10.793 -0.177,0.112 -0.412,0.335 -0.316,0.444 0.204,0.217 0.983,0.008 1.604,-0.473 1.534,-1.113 4.706,-3.535 4.972,-10.751 0.037,-0.508 0.157,-0.581 0.157,-0.581 0.071,-0.29 0.701,-1.479 2.668,-2.545 5.019,-2.71 9.217,-2.311 9.91,-2.146 0.994,0.234 0.978,1.104 0.506,1.331 -2.137,1.076 -3.306,4.27 -4.141,5.887 -1.053,2.042 -2.463,4.128 -4.307,5.81 -2.269,2.068 -4.649,4.078 -8.77,5.013 -0.104,0.022 -0.434,0.097 -0.419,0.298 0.014,0.33 1.179,0.213 1.46,0.186 2.557,-0.459 5.884,-2.695 7.746,-4.47 0.77,-0.75 1.25,-0.771 1.427,-0.804 1.102,-0.195 3.615,-0.155 6.332,1.693 0.976,0.653 1.887,1.49 2.455,2.243 0.478,0.609 1.134,1.45 1.212,1.902 0.069,0.45 -0.451,0.976 -1.253,0.646 -0.423,-0.186 -0.967,-0.32 -1.642,-0.295 -1.917,-0.058 -8.026,2.858 -13.75,2.854 -6.787,-0.004 -10.2,-2.901 -10.683,-3.157 z"
           id="path9"
           inkscape:connector-curvature="0"
           style="fill:#d09b2b" /></g></g></g></svg>