<?xml version="1.0" encoding="UTF-8" standalone="no"?>
<!-- Created with Inkscape (http://www.inkscape.org/) -->

<svg
   xmlns:dc="http://purl.org/dc/elements/1.1/"
   xmlns:cc="http://creativecommons.org/ns#"
   xmlns:rdf="http://www.w3.org/1999/02/22-rdf-syntax-ns#"
   xmlns:svg="http://www.w3.org/2000/svg"
   xmlns="http://www.w3.org/2000/svg"
   xmlns:sodipodi="http://sodipodi.sourceforge.net/DTD/sodipodi-0.dtd"
   xmlns:inkscape="http://www.inkscape.org/namespaces/inkscape"
   version="1.0"
   width="400"
   height="355.418"
   id="svg2"
   sodipodi:version="0.32"
   inkscape:version="0.91 r13725"
   sodipodi:docname="VA.svg"
   inkscape:output_extension="org.inkscape.output.svg.inkscape">
  <metadata
     id="metadata6">
    <rdf:RDF>
      <cc:Work
         rdf:about="">
        <dc:format>image/svg+xml</dc:format>
        <dc:type
           rdf:resource="http://purl.org/dc/dcmitype/StillImage" />
        <dc:title></dc:title>
      </cc:Work>
    </rdf:RDF>
  </metadata>
  <sodipodi:namedview
     inkscape:window-height="750"
     inkscape:window-width="1280"
     inkscape:pageshadow="2"
     inkscape:pageopacity="0.0"
     guidetolerance="10.0"
     gridtolerance="10.0"
     objecttolerance="10.0"
     borderopacity="1.0"
     bordercolor="#666666"
     pagecolor="#ffffff"
     id="base"
     inkscape:zoom="1"
     inkscape:cx="78.664964"
     inkscape:cy="99.562047"
     inkscape:window-x="-8"
     inkscape:window-y="-8"
     inkscape:current-layer="svg2"
     showgrid="false"
     inkscape:window-maximized="0" />
  <defs
     id="defs5" />
  <g
     id="g3333"
     transform="matrix(2,0,0,2,0,-3.4892578e-5)">
    <path
       id="path2175"
       d="m 112.29588,175.16014 c -0.88881,-1.66069 -1.23952,-11.71105 -0.99812,-28.6037 0.20467,-14.32378 0.18567,-26.04261 -0.0422,-26.04188 -0.79998,0.002 -16.221345,12.09972 -26.916754,21.11472 -5.942927,5.0092 -15.55666,14.07049 -21.363872,20.13616 -11.227783,11.72738 -14.07127,12.92036 -17.701051,7.42593 -1.749334,-2.64784 -1.466713,-3.22191 4.939168,-10.03113 8.448962,-8.98115 25.772092,-23.64566 44.93566,-38.03936 14.701949,-11.04261 20.629439,-17.2396 14.405689,-15.06059 -1.63315,0.57178 -5.23503,1.05495 -8.00419,1.0737 -7.096339,0.0481 -8.675947,-3.26195 -7.71573,-16.16808 0.888379,-11.940388 2.174233,-15.607183 7.35745,-20.980821 6.97834,-7.234719 13.45405,-4.096765 7.51634,3.642207 -3.15658,4.114136 -4.08264,6.952604 -4.71445,14.450186 -0.66053,7.838468 0.58995,10.376858 4.16845,8.461694 2.95275,-1.580249 3.87093,-5.385615 4.91908,-20.38638 0.80041,-11.45512 2.61066,-15.384006 7.08839,-15.384006 1.31194,0 2.68551,0.782343 3.05249,1.738548 0.36691,0.956201 0.20471,10.108942 -0.36038,20.339424 -0.56517,10.230483 -0.69859,18.600878 -0.29639,18.600878 0.40203,0 4.69369,-2.49083 9.53669,-5.535177 4.84313,-3.044341 15.23517,-9.142494 23.09345,-13.551436 11.37024,-6.379322 13.99948,-8.363621 12.87614,-9.717288 -0.95422,-1.149662 -1.12917,-5.410096 -0.5395,-13.144059 0.96484,-12.658522 -0.0622,-14.2123 -5.53994,-8.381407 -2.3338,2.484174 -3.01018,5.013972 -3.58567,13.412918 -0.51414,7.499458 -1.38428,11.208907 -3.15823,13.464155 -2.54431,3.234479 -6.58128,4.112006 -8.04217,1.748127 -0.46407,-0.750613 -0.42909,-7.709878 0.0774,-15.465044 0.81008,-12.397348 1.27954,-14.458699 3.88889,-17.067859 1.91193,-1.912041 4.46188,-2.96757 7.16872,-2.96757 2.73417,0 4.722,-0.834012 5.69284,-2.388259 0.8203,-1.313544 3.26808,-3.00762 5.43966,-3.764607 3.35923,-1.17104 4.32012,-1.004409 6.44153,1.11705 2.14263,2.142622 2.49342,4.271183 2.49342,15.130507 0,6.950414 0.5506,12.977407 1.22361,13.393313 0.67293,0.415911 3.96217,-0.61744 7.30937,-2.296337 3.34733,-1.678895 7.17279,-2.881519 8.50108,-2.672509 2.35946,0.37126 4.51813,2.64789 4.55709,4.806087 0.046,2.539585 -7.86904,7.998368 -14.76566,10.183636 -4.1036,1.30028 -12.89554,5.258827 -19.53763,8.796779 -6.64208,3.537954 -13.50664,7.183053 -15.25461,8.100219 -1.74782,0.91717 -8.89863,5.25946 -15.89005,9.649531 l -12.7122,7.98194 -0.17864,22.86823 c -0.0982,12.57745 0.43333,26.4043 1.18118,30.72635 1.06865,6.17704 1.00551,8.28497 -0.29497,9.85201 -2.39949,2.89105 -8.58367,2.54912 -10.25134,-0.5668 z M 27.89043,158.84765 c -0.90154,-1.45885 -5.243292,-26.1679 -8.377461,-47.67634 -3.29492,-22.611619 -3.993316,-23.840071 -7.523203,-13.232775 -1.518857,4.564195 -3.798411,9.236865 -5.0656715,10.383715 -2.4207089,2.19071 -5.861797,1.66896 -6.90393833,-1.0468 -0.49719728,-1.29568 8.32989713,-29.084945 12.55170583,-39.514988 1.867448,-4.61355 5.475523,-5.727142 8.560546,-2.642115 0.993928,0.993922 2.484943,6.285349 3.313349,11.75873 0.828428,5.473378 2.422331,14.241949 3.541997,19.485704 2.169225,10.159039 2.465707,12.085969 2.933949,19.068219 l 0.298388,4.44925 1.002256,-5.08486 c 0.551247,-2.79667 1.959852,-10.5193 3.130209,-17.161402 2.801897,-15.901384 10.092037,-44.373236 14.185026,-55.399956 1.79581,-4.837984 5.23634,-14.21907 7.645618,-20.846845 5.505702,-15.1458026 7.995444,-19.4127696 12.187489,-20.88702861 2.492481,-0.876553 4.154362,-0.631116 6.606714,0.97572601 4.886402,3.201702 4.330439,8.163372 -1.737576,15.5065036 -5.498617,6.654094 -13.426842,24.68697 -17.853604,40.608364 -1.555166,5.593338 -3.896534,13.029946 -5.203057,16.525782 -2.483733,6.645724 -4.605295,15.378183 -5.573612,22.94127 -0.313962,2.452231 -0.840119,4.894296 -1.16922,5.426806 -0.329122,0.53251 -0.914068,4.37836 -1.299913,8.54632 -0.385844,4.16796 -1.009617,9.00822 -1.386186,10.75613 -0.376575,1.74792 -1.559328,9.75659 -2.628339,17.79703 -2.365985,17.79523 -3.29664,20.33945 -7.440204,20.33945 -1.721638,0 -3.429503,-0.48424 -3.795262,-1.07589 z m 24.224769,-32.93571 c -1.203166,-1.94677 1.291156,-30.290538 2.936022,-33.362801 3.231465,-6.035755 8.282948,-7.014173 9.280197,-1.797482 0.904086,4.729445 -2.501499,32.232333 -4.252485,34.342133 -1.562753,1.883 -6.962754,2.43776 -7.963734,0.81815 z m 18.795739,-10.61058 c -1.44628,-2.3401 0.763804,-29.504886 2.638444,-32.430094 1.479589,-2.308765 11.892766,-6.84791 15.709661,-6.84791 0.695481,0 1.646641,1.204026 2.113709,2.675617 0.642755,2.025129 -0.29699,3.849425 -3.865388,7.503792 -4.476953,4.584819 -4.756762,5.370454 -5.551116,15.586335 -0.466076,5.99409 -1.600025,11.67813 -2.560668,12.83563 -1.96041,2.36217 -7.185412,2.77883 -8.484642,0.67663 z M 130.21126,88.230817 c -0.78006,-0.939911 -1.15813,-3.642071 -0.83992,-6.00479 0.31806,-2.362717 0.95533,-8.811752 1.416,-14.331188 0.69237,-8.29406 1.37646,-10.574255 3.94364,-13.141214 2.58742,-2.587492 3.43128,-2.835691 5.05631,-1.487105 1.31701,1.093138 1.72529,2.883519 1.25678,5.513921 -0.38141,2.142345 -0.79157,8.471541 -0.91161,14.064877 -0.26313,12.263856 -0.4861,12.948803 -4.97135,15.268107 -2.95052,1.52583 -3.76498,1.545148 -4.94985,0.117392 z M 59.452224,75.473357 c -2.178525,-1.592974 -2.18661,-1.862264 -0.149279,-4.971624 3.054721,-4.662095 6.576426,-6.342379 8.481613,-4.046774 2.002449,2.412792 0.635029,6.336127 -3.049871,8.750565 -2.499262,1.637584 -3.350221,1.680729 -5.282463,0.267833 z M 135.18738,41.094271 c 0,-3.578878 5.21807,-7.729678 8.25299,-6.565037 4.6365,1.779166 0.14966,9.713766 -5.49287,9.713766 -2.08982,0 -2.76012,-0.764687 -2.76012,-3.148729 z"
       style="fill:#cc0001;fill-opacity:1;fill-rule:nonzero;stroke:none;stroke-opacity:0"
       inkscape:connector-curvature="0" />
  </g>
</svg>
