<?xml version="1.0" encoding="UTF-8" standalone="no"?>
<svg
   xmlns:dc="http://purl.org/dc/elements/1.1/"
   xmlns:cc="http://creativecommons.org/ns#"
   xmlns:rdf="http://www.w3.org/1999/02/22-rdf-syntax-ns#"
   xmlns:svg="http://www.w3.org/2000/svg"
   xmlns="http://www.w3.org/2000/svg"
   xmlns:sodipodi="http://sodipodi.sourceforge.net/DTD/sodipodi-0.dtd"
   xmlns:inkscape="http://www.inkscape.org/namespaces/inkscape"
   width="400"
   height="129.685"
   viewBox="0 0 320 103.748"
   version="1.1"
   id="svg2"
   inkscape:version="0.91 r13725"
   sodipodi:docname="VY.svg">
  <metadata
     id="metadata27">
    <rdf:RDF>
      <cc:Work
         rdf:about="">
        <dc:format>image/svg+xml</dc:format>
        <dc:type
           rdf:resource="http://purl.org/dc/dcmitype/StillImage" />
        <dc:title></dc:title>
      </cc:Work>
    </rdf:RDF>
  </metadata>
  <defs
     id="defs25" />
  <sodipodi:namedview
     pagecolor="#ffffff"
     bordercolor="#666666"
     borderopacity="1"
     objecttolerance="10"
     gridtolerance="10"
     guidetolerance="10"
     inkscape:pageopacity="0"
     inkscape:pageshadow="2"
     inkscape:window-width="900"
     inkscape:window-height="675"
     id="namedview23"
     showgrid="false"
     units="px"
     inkscape:zoom="0.2544"
     inkscape:cx="625"
     inkscape:cy="264.375"
     inkscape:window-x="0"
     inkscape:window-y="0"
     inkscape:window-maximized="0"
     inkscape:current-layer="svg2" />
  <g
     id="#fdfdfdff"
     transform="translate(0,-319.252)" />
  <g
     id="g3355"
     transform="matrix(0.41664993,0,0,0.41665001,-48.247376,-36.125311)">
    <g
       id="#757575ff">
      <path
         id="path6"
         d="m 497.28,87.44 c 5.43,-1.62 11.76,-0.58 16.03,3.27 3.62,3.37 5.16,8.41 5.18,13.26 0.02,47.67 0.01,95.34 0.01,143.01 -0.26,7.14 1.25,15.15 -3.17,21.36 -4.4,6.41 -13.64,8.1 -20.42,4.72 -5.53,-2.75 -8.49,-9.09 -8.42,-15.08 0.02,-49.31 0,-98.63 0.01,-147.94 0.06,-4.4 -0.46,-8.97 1.1,-13.18 1.55,-4.4 5.18,-8.08 9.68,-9.42 z"
         inkscape:connector-curvature="0"
         style="opacity:1;fill:#757575" />
      <path
         id="path8"
         d="m 370.27,177.35 c 8.12,-11.58 21.65,-18.72 35.61,-20.07 14.83,-1.64 31.19,0.88 42.68,11.07 10.67,9.38 15.43,23.75 16.4,37.58 0.3,5.44 1.1,11.41 -1.74,16.35 -2.21,3.9 -7.08,4.93 -11.22,4.96 -20.6,0.04 -41.21,-0.03 -61.81,0.03 1.31,7.66 4.9,15.87 12.51,19.09 10.62,4.52 22.6,1.86 33.22,-1.32 4.21,-1.25 8.56,-2.8 13.02,-2.18 6.22,1.34 10.64,8.01 9.93,14.25 -0.6,4.75 -4.52,8.17 -8.43,10.43 -7.18,3.98 -15.39,5.57 -23.46,6.52 -15.28,1.78 -31.83,0.59 -44.94,-8.19 -12.99,-8.4 -20.43,-23.35 -22.26,-38.41 -2.11,-17.16 0.27,-35.75 10.49,-50.11 m 30.28,7.13 c -7.68,4.04 -9.58,13.39 -10.35,21.27 15.02,0.01 30.05,-0.02 45.07,0.01 -0.57,-8.04 -3.25,-17.13 -10.9,-21.16 -7.32,-3.6 -16.45,-3.56 -23.82,-0.12 z"
         inkscape:connector-curvature="0"
         style="opacity:1;fill:#757575" />
      <path
         id="path10"
         d="m 246.2,158.13 c 5.51,-1.55 12.03,-0.62 16.16,3.57 3.5,3.44 4.9,8.45 4.88,13.24 0.03,17.7 -0.01,35.39 0.01,53.08 -0.04,6.38 2.57,13.18 8.14,16.7 4.9,3.18 11.01,3.47 16.66,2.81 4.85,-0.61 9.69,-2.88 12.51,-7 3.18,-4.5 3.63,-10.2 3.69,-15.54 0.01,-17.34 -0.01,-34.68 0,-52.01 0.05,-6.04 3.69,-12.1 9.42,-14.32 6.23,-2.51 14.27,-1.32 18.63,4.09 3.4,3.91 4.06,9.3 3.97,14.3 -0.11,15.96 0.12,31.93 -0.11,47.9 -0.33,13.66 -4.03,28.27 -14.43,37.81 -11.15,10.28 -27.14,12.77 -41.77,12.2 -13.48,-0.46 -27.81,-4.51 -36.99,-14.95 -8.42,-9.52 -11.58,-22.58 -11.72,-35.02 0.02,-17.34 -0.03,-34.68 0.02,-52.01 0.08,-6.57 4.52,-13.01 10.93,-14.85 z"
         inkscape:connector-curvature="0"
         style="opacity:1;fill:#757575" />
      <path
         id="path12"
         d="m 639.18,158.3 c 15.02,-1.89 31.39,-1.2 44.63,6.93 9.11,5.46 15.31,14.89 17.99,25.06 1.84,6.73 2.45,13.75 2.46,20.71 -0.02,15.32 -0.01,30.64 0,45.96 0.09,5.07 -1.56,10.41 -5.44,13.85 -5.73,5.12 -15.1,5.24 -21.05,0.44 -3.9,-3.17 -5.94,-8.28 -5.79,-13.26 0.05,-15.34 0,-30.68 0.03,-46.02 0.03,-6.76 0.28,-14.18 -3.83,-19.96 -3.36,-4.97 -9.45,-7.25 -15.26,-7.46 -5.74,-0.17 -12.01,0.93 -16.31,5.04 -4,3.99 -5.39,9.85 -5.37,15.35 0.03,17.38 -0.01,34.76 0.03,52.13 0.01,4.14 -0.89,8.43 -3.48,11.76 -5.5,7.35 -17.72,7.96 -24.02,1.33 -3.15,-3.18 -4.55,-7.74 -4.52,-12.14 -0.01,-11.67 0.01,-23.33 0,-35 0.11,-10.66 -0.72,-21.52 2.16,-31.93 2.4,-9.91 8.14,-19.11 16.6,-24.94 6.3,-4.28 13.68,-6.73 21.17,-7.85 z"
         inkscape:connector-curvature="0"
         style="opacity:1;fill:#757575" />
      <path
         id="path14"
         d="m 742.86,170.89 c 10.92,-9.6 25.79,-13.77 40.14,-13.42 14.06,0.02 28.4,2.9 40.72,9.87 5.67,3.08 9.92,9.05 9.78,15.67 0,33.01 -0.01,66.03 0.01,99.05 -0.21,14.94 -5,30.79 -16.68,40.78 -11.73,10.1 -27.8,13.06 -42.86,12.86 -11.58,-0.49 -23.25,-3.41 -33.22,-9.44 -3.6,-2.31 -7,-5.19 -9.09,-8.97 -3.82,-7.05 0.62,-17.11 8.48,-18.88 5.78,-0.9 11.2,1.93 16.4,4.04 7.06,3.11 14.76,4.87 22.5,4.59 6.6,-0.01 13.68,-1.66 18.47,-6.48 4.45,-4.63 5.81,-11.31 5.76,-17.53 -0.02,-5.76 -0.05,-11.51 -0.01,-17.27 -9.04,7.95 -21.73,9.86 -33.37,9.11 -12.19,-0.75 -24.15,-6.19 -32.13,-15.55 -11.23,-12.87 -14.55,-30.78 -13.64,-47.4 0.78,-15.35 6.88,-30.9 18.74,-41.03 m 33.68,13.92 c -4.89,0.84 -9.65,3 -13.1,6.62 -6.31,6.84 -7.74,16.61 -7.73,25.56 0.13,8.05 0.76,16.8 5.75,23.48 4.73,6.15 13.13,7.55 20.43,6.98 6.98,-0.34 13.87,-4.14 17.08,-10.5 6,-11.38 3.87,-24.64 4.29,-36.98 -0.22,-3.67 1.1,-8.41 -2.57,-10.79 -6.84,-5.04 -16.02,-5.58 -24.15,-4.37 z"
         inkscape:connector-curvature="0"
         style="opacity:1;fill:#757575" />
      <path
         id="path16"
         d="m 117.43,166.62 c 3.39,-6.57 11.75,-9.13 18.66,-7.72 5.49,1.02 9.4,5.89 10.77,11.08 6.32,21.33 12.66,42.65 18.94,64 0.34,1.25 0.93,2.43 1.61,3.53 6.62,-21.85 13.04,-43.76 19.52,-65.66 1.22,-4.69 3.48,-9.62 8.08,-11.82 7.39,-3.37 17.56,-0.98 21.75,6.24 2.67,4.79 1.99,10.65 0.06,15.57 -8.99,25.03 -17.81,50.12 -26.77,75.16 -1.88,4.82 -3.68,9.95 -7.43,13.69 -3.88,3.69 -9.56,4.06 -14.64,4.1 -5.64,0.03 -11.92,-0.49 -16.25,-4.55 -3.97,-3.81 -6.05,-9.08 -7.93,-14.13 -8.89,-25.12 -17.71,-50.26 -26.64,-75.35 -1.66,-4.52 -2.06,-9.78 0.27,-14.14 z"
         inkscape:connector-curvature="0"
         style="opacity:1;fill:#757575" />
      <path
         id="path18"
         d="m 553.41,159.66 c 6.73,-2.67 15.28,-0.64 19.38,5.52 2.44,3.41 3,7.74 2.98,11.83 -0.04,26.67 -0.02,53.35 -0.01,80.02 -0.01,4.46 -1.12,9.12 -4.16,12.51 -5.76,6.8 -17.54,6.99 -23.54,0.42 -2.88,-3.23 -4.35,-7.58 -4.32,-11.88 0.01,-27.69 0.02,-55.39 0,-83.08 -0.17,-6.4 3.54,-13.03 9.67,-15.34 z"
         inkscape:connector-curvature="0"
         style="opacity:1;fill:#757575" />
    </g>
    <g
       id="#fbe666ff">
      <path
         id="path21"
         d="m 855.45,98.75 c 5.06,-1.6 10.64,-1.6 15.7,0.02 6.29,2.02 11.27,7.65 12.37,14.18 0.69,5.61 0.44,11.81 -3,16.56 -6.7,9.38 -21.25,10.66 -30.39,4.27 -11.75,-8.75 -9.34,-30.73 5.32,-35.03 z"
         inkscape:connector-curvature="0"
         style="opacity:1;fill:#fbe666" />
    </g>
  </g>
</svg>
