<?xml version="1.0" encoding="UTF-8" standalone="no"?>
<!-- Created with Inkscape (http://www.inkscape.org/) -->

<svg
   xmlns:dc="http://purl.org/dc/elements/1.1/"
   xmlns:cc="http://creativecommons.org/ns#"
   xmlns:rdf="http://www.w3.org/1999/02/22-rdf-syntax-ns#"
   xmlns:svg="http://www.w3.org/2000/svg"
   xmlns="http://www.w3.org/2000/svg"
   xmlns:sodipodi="http://sodipodi.sourceforge.net/DTD/sodipodi-0.dtd"
   xmlns:inkscape="http://www.inkscape.org/namespaces/inkscape"
   version="1.0"
   width="400"
   height="182.77"
   id="svg2489"
   xml:space="preserve"
   sodipodi:version="0.32"
   inkscape:version="0.91 r13725"
   sodipodi:docname="W6.svg"
   inkscape:output_extension="org.inkscape.output.svg.inkscape"><metadata
     id="metadata2511"><rdf:RDF><cc:Work
         rdf:about=""><dc:format>image/svg+xml</dc:format><dc:type
           rdf:resource="http://purl.org/dc/dcmitype/StillImage" /><dc:title></dc:title></cc:Work></rdf:RDF></metadata><sodipodi:namedview
     inkscape:window-height="773"
     inkscape:window-width="1270"
     inkscape:pageshadow="2"
     inkscape:pageopacity="0.0"
     guidetolerance="10.0"
     gridtolerance="10.0"
     objecttolerance="10.0"
     borderopacity="1.0"
     bordercolor="#666666"
     pagecolor="#ffffff"
     id="base"
     showgrid="false"
     inkscape:zoom="0.89159069"
     inkscape:cx="109.84221"
     inkscape:cy="17.706069"
     inkscape:window-x="0"
     inkscape:window-y="0"
     inkscape:current-layer="svg2489"
     inkscape:window-maximized="0" /><defs
     id="defs2492"><inkscape:perspective
       sodipodi:type="inkscape:persp3d"
       inkscape:vp_x="0 : 50.189701 : 1"
       inkscape:vp_y="0 : 1000 : 0"
       inkscape:vp_z="219.68442 : 50.189701 : 1"
       inkscape:persp3d-origin="109.84221 : 33.459801 : 1"
       id="perspective2513" /><inkscape:perspective
       id="perspective2522"
       inkscape:persp3d-origin="372.04724 : 350.78739 : 1"
       inkscape:vp_z="744.09448 : 526.18109 : 1"
       inkscape:vp_y="0 : 1000 : 0"
       inkscape:vp_x="0 : 526.18109 : 1"
       sodipodi:type="inkscape:persp3d" /></defs><g
     transform="matrix(2.2759921,0,0,-2.2759921,-19.355182,310.74102)"
     id="g2498"><path
       d="m 134.18352,124.14552 50.06808,0 -34.78128,-44.84424 24.86448,0 -2.0316,-12.62616 -49.58448,0 33.86256,44.84424 -22.39776,0 0,12.62616"
       id="path2504"
       style="fill:#c6037c;fill-opacity:1;fill-rule:evenodd;stroke:none"
       inkscape:connector-curvature="0" /><path
       d="m 96.35352,130.53096 54.47064,0 -39.03864,-49.9716 21.43032,0 -10.49712,-13.88424 -40.24872,0 37.44288,49.97232 -26.89704,0.0478 3.33768,13.83576"
       id="path2506"
       style="fill:#660f6f;fill-opacity:1;fill-rule:evenodd;stroke:none"
       inkscape:connector-curvature="0" /><path
       d="m 89.91936,79.35 -13.54488,0 9.24,57.18 13.64136,0 -9.33648,-57.18"
       id="path2508"
       style="fill:#c6037c;fill-opacity:1;fill-rule:evenodd;stroke:none"
       inkscape:connector-curvature="0" /><path
       d="m 80.87352,73.73808 c 4.78968,0 8.70744,-3.91776 8.70744,-8.75616 0,-4.83744 -3.91776,-8.75544 -8.70744,-8.75544 -4.83768,0 -8.7564,3.918 -8.7564,8.75544 0,4.8384 3.91872,8.75616 8.7564,8.75616"
       id="path2510"
       style="fill:#c6037c;fill-opacity:1;fill-rule:evenodd;stroke:none"
       inkscape:connector-curvature="0" /><path
       d="m 8.504064,127.33776 7.498128,-60.66264 11.513328,0 17.26968,34.39488 2.56416,-34.39488 11.32032,0 30.08904,60.66264 -16.88256,0 -14.51328,-32.65296 -2.32128,32.65296 -13.25544,0 -15.38328,-32.65296 -2.515368,32.65296 -15.383448,0"
       id="path2512"
       style="fill:#660f6f;fill-opacity:1;fill-rule:evenodd;stroke:none"
       inkscape:connector-curvature="0" /></g></svg>