<?xml version="1.0" encoding="UTF-8" standalone="no"?>
<!-- Generator: Adobe Illustrator 17.1.0, SVG Export Plug-In . SVG Version: 6.00 Build 0)  -->

<svg
   xmlns:ns="&amp;ns_sfw;"
   xmlns:dc="http://purl.org/dc/elements/1.1/"
   xmlns:cc="http://creativecommons.org/ns#"
   xmlns:rdf="http://www.w3.org/1999/02/22-rdf-syntax-ns#"
   xmlns:svg="http://www.w3.org/2000/svg"
   xmlns="http://www.w3.org/2000/svg"
   xmlns:sodipodi="http://sodipodi.sourceforge.net/DTD/sodipodi-0.dtd"
   xmlns:inkscape="http://www.inkscape.org/namespaces/inkscape"
   version="1.1"
   id="Southwest_Logo_1_"
   sodipodi:docname="wn.svg"
   inkscape:version="0.91 r13725"
   x="0px"
   y="0px"
   width="400"
   height="384.61499"
   viewBox="0 0 400 384.61501"
   enable-background="new 0 0 1000 147.4"
   xml:space="preserve"><defs
     id="defs33" /><metadata
     id="metadata43"><rdf:RDF><cc:Work
         rdf:about=""><dc:format>image/svg+xml</dc:format><dc:type
           rdf:resource="http://purl.org/dc/dcmitype/StillImage" /><dc:title></dc:title></cc:Work></rdf:RDF><ns:sfw><ns:slices /><ns:sliceSourceBounds
         width="999"
         height="146.4"
         y="118.1"
         x="761.5"
         bottomLeftOrigin="true" /></ns:sfw></metadata><sodipodi:namedview
     inkscape:cx="537.13497"
     showgrid="false"
     inkscape:cy="78.318474"
     fit-margin-top="0.5"
     borderopacity="1"
     inkscape:zoom="0.82659083"
     fit-margin-left="0.5"
     gridtolerance="10"
     pagecolor="#ffffff"
     guidetolerance="10"
     objecttolerance="10"
     id="namedview39"
     bordercolor="#666666"
     inkscape:current-layer="Southwest_Logo_1_"
     inkscape:window-maximized="1"
     inkscape:window-y="-8"
     inkscape:window-x="-8"
     fit-margin-right="0.5"
     fit-margin-bottom="0.5"
     inkscape:window-height="998"
     inkscape:window-width="1680"
     inkscape:pageshadow="2"
     inkscape:pageopacity="0" /><g
     id="g3361"
     transform="matrix(3.6487941,0,0,3.6487906,-3247.1407,-152.67896)"><g
       transform="matrix(4.6848402,0,0,4.6848402,-1.6034932,-8.7525594)"
       id="g8"><g
         id="g10"><path
           d="m 207,10.8 c -2,0 -3.7,0.7 -5,1.4 -1.3,-0.7 -2.9,-1.4 -5,-1.4 -4.1,0 -6.7,2.6 -6.7,7.2 0,5.5 5.3,10.9 11.7,15.3 6.4,-4.3 11.7,-9.7 11.7,-15.3 0,-4.6 -2.7,-7.2 -6.7,-7.2 z"
           inkscape:connector-curvature="0"
           id="path12"
           style="fill:#cccccc" /><linearGradient
           gradientTransform="matrix(4.6848,0,0,4.6848,596.9577,-263.2998)"
           y2="61.428001"
           x2="-71.208397"
           y1="61.428001"
           x1="-86.665398"
           gradientUnits="userSpaceOnUse"
           id="path21_1_"><stop
             id="stop12"
             style="stop-color:#3656CC"
             offset="0" /><stop
             id="stop14"
             style="stop-color:#304CB2"
             offset="0.35" /><stop
             id="stop16"
             style="stop-color:#283B80"
             offset="0.72" /></linearGradient><path
           d="m 190.9,18.1 c 0,5.6 6,10.9 11,14.4 1.5,-1 3,-2.2 4.4,-3.4 -6.7,-5.6 -13.1,-10.7 -15.3,-12.5 0,0.4 -0.1,0.9 -0.1,1.5 l 0,0 z"
           inkscape:connector-curvature="0"
           id="path21"
           style="fill:url(#path21_1_)" /><linearGradient
           gradientTransform="matrix(4.6848,0,0,4.6848,596.9577,-263.2998)"
           y2="71.048401"
           x2="-68.735199"
           y1="58.821602"
           x1="-86.1968"
           gradientUnits="userSpaceOnUse"
           id="path28_1_"><stop
             id="stop20"
             style="stop-color:#E61C23"
             offset="0.3" /><stop
             id="stop22"
             style="stop-color:#C3161C"
             offset="0.8" /></linearGradient><path
           d="m 212.6,20.7 c -4.9,-4 -7.8,-6.1 -11,-8 -0.9,-0.5 -2.6,-1.3 -4.5,-1.3 -1.8,0 -3.4,0.6 -4.5,1.7 -0.7,0.7 -1.2,1.6 -1.4,2.7 2.5,1.8 9.4,6.7 16.3,12.2 2.3,-2.2 4.2,-4.7 5.1,-7.3 l 0,0 z"
           inkscape:connector-curvature="0"
           id="path28"
           style="fill:url(#path28_1_)" /><linearGradient
           gradientTransform="matrix(4.6848,0,0,4.6848,596.9577,-263.2998)"
           y2="65.474998"
           x2="-73.902397"
           y1="58.4842"
           x1="-83.886101"
           gradientUnits="userSpaceOnUse"
           id="path37_1_"><stop
             id="stop26"
             style="stop-color:#FDBC11"
             offset="0" /><stop
             id="stop28"
             style="stop-color:#FCB415"
             offset="0.25" /><stop
             id="stop30"
             style="stop-color:#F89E1C"
             offset="0.8" /></linearGradient><path
           d="m 211.3,13.1 c -1.1,-1.1 -2.6,-1.7 -4.4,-1.7 -1.9,0 -3.3,0.6 -4.4,1.2 1.9,1.1 6,3.4 10.3,6.6 0.1,-0.4 0.1,-0.9 0.1,-1.3 0.1,-2 -0.5,-3.7 -1.6,-4.8 z"
           inkscape:connector-curvature="0"
           id="path37"
           style="fill:url(#path37_1_)" /></g></g></g></svg>