<?xml version="1.0" encoding="UTF-8" standalone="no"?>
<!-- Created with Inkscape (http://www.inkscape.org/) -->

<svg
   xmlns:dc="http://purl.org/dc/elements/1.1/"
   xmlns:cc="http://creativecommons.org/ns#"
   xmlns:rdf="http://www.w3.org/1999/02/22-rdf-syntax-ns#"
   xmlns:svg="http://www.w3.org/2000/svg"
   xmlns="http://www.w3.org/2000/svg"
   xmlns:sodipodi="http://sodipodi.sourceforge.net/DTD/sodipodi-0.dtd"
   xmlns:inkscape="http://www.inkscape.org/namespaces/inkscape"
   version="1.1"
   width="400"
   height="399.96399"
   id="svg12935"
   inkscape:version="0.91 r13725"
   sodipodi:docname="XQ.svg">
  <sodipodi:namedview
     pagecolor="#ffffff"
     bordercolor="#666666"
     borderopacity="1"
     objecttolerance="10"
     gridtolerance="10"
     guidetolerance="10"
     inkscape:pageopacity="0"
     inkscape:pageshadow="2"
     inkscape:window-width="1680"
     inkscape:window-height="998"
     id="namedview48"
     showgrid="false"
     inkscape:zoom="0.35613756"
     inkscape:cx="446.4567"
     inkscape:cy="102.04724"
     inkscape:window-x="-8"
     inkscape:window-y="-8"
     inkscape:window-maximized="1"
     inkscape:current-layer="g11859" />
  <defs
     id="defs12937">
    <clipPath
       id="clipPath11861">
      <path
         d="m 297.64,0 297.64,0 0,595.27 -297.64,0 0,-595.27 z"
         id="path11863"
         inkscape:connector-curvature="0" />
    </clipPath>
  </defs>
  <metadata
     id="metadata12940">
    <rdf:RDF>
      <cc:Work
         rdf:about="">
        <dc:format>image/svg+xml</dc:format>
        <dc:type
           rdf:resource="http://purl.org/dc/dcmitype/StillImage" />
        <dc:title></dc:title>
      </cc:Work>
    </rdf:RDF>
  </metadata>
  <g
     transform="translate(36.541477,-208.45478)"
     id="layer1">
    <g
       transform="matrix(6.5047888,0,0,-6.5047888,-2834.9118,771.94881)"
       id="g11857">
      <g
         clip-path="url(#clipPath11861)"
         id="g11859">
        <g
           id="g3376"
           transform="matrix(2.0318454,0,0,2.0318478,-445.0083,-27.072447)">
          <g
             id="g11905"
             transform="translate(449.8,35.444)">
            <path
               style="fill:#1a428a;fill-opacity:1;fill-rule:nonzero;stroke:none"
               id="path11907"
               d="m 0,0 c -5.195,-0.38 -12.384,-1.524 -17.548,-1.244 0.545,-1.104 1.225,-2.143 2.029,-3.095 0.45,-0.528 0.936,-1.032 1.461,-1.501 2.804,-2.52 6.413,-3.907 10.161,-3.907 3.771,0 7.376,1.364 10.153,3.841 1.148,1.023 2.077,2.122 2.816,3.328 0.5,0.817 0.911,1.682 1.241,2.609 C 8.089,0.473 4.282,0.314 0,0"
               inkscape:connector-curvature="0" />
          </g>
          <g
             id="g11909"
             transform="translate(437.54,53.378)">
            <path
               style="fill:#1a428a;fill-opacity:1;fill-rule:nonzero;stroke:none"
               id="path11911"
               d="M 0,0 C -0.095,0.021 -0.193,0.002 -0.272,-0.054 -0.547,-0.243 -0.823,-0.448 -1.088,-0.659 -1.223,-0.765 -1.26,-0.954 -1.175,-1.102 L 1.4,-5.562 1.533,-5.741 1.527,-5.75 1.348,-5.616 -3.116,-3.039 c -0.146,0.085 -0.337,0.05 -0.442,-0.085 -0.211,-0.266 -0.413,-0.541 -0.603,-0.817 -0.054,-0.08 -0.073,-0.179 -0.052,-0.271 0.022,-0.094 0.081,-0.175 0.164,-0.224 L 3.566,-8.83 3.738,-8.876 c 0.096,0 0.192,0.04 0.26,0.118 0.171,0.195 0.355,0.381 0.548,0.55 0.125,0.109 0.155,0.29 0.072,0.432 L 0.224,-0.165 C 0.175,-0.08 0.095,-0.021 0,0"
               inkscape:connector-curvature="0" />
          </g>
          <g
             id="g11913"
             transform="translate(458.43,49.168)">
            <path
               style="fill:#1a428a;fill-opacity:1;fill-rule:nonzero;stroke:none"
               id="path11915"
               d="M 0,0 C 0.021,0.092 0.003,0.191 -0.052,0.271 -0.243,0.547 -0.447,0.822 -0.659,1.088 -0.764,1.223 -0.953,1.258 -1.1,1.173 l -4.462,-2.575 -0.179,-0.132 -0.006,0.005 0.133,0.179 2.576,4.464 C -2.953,3.262 -2.989,3.453 -3.124,3.557 -3.389,3.767 -3.665,3.97 -3.941,4.16 -4.019,4.215 -4.117,4.235 -4.212,4.212 -4.306,4.191 -4.386,4.132 -4.435,4.049 L -8.83,-3.566 -8.876,-3.738 c 0,-0.097 0.042,-0.192 0.119,-0.26 0.195,-0.17 0.382,-0.355 0.549,-0.549 0.109,-0.124 0.291,-0.155 0.434,-0.072 l 7.611,4.395 C -0.08,-0.175 -0.021,-0.096 0,0"
               inkscape:connector-curvature="0" />
          </g>
          <g
             id="g11917"
             transform="translate(452.58,54.325)">
            <path
               style="fill:#1a428a;fill-opacity:1;fill-rule:nonzero;stroke:none"
               id="path11919"
               d="m 0,0 c -0.03,0.092 -0.095,0.167 -0.182,0.209 -0.303,0.144 -0.617,0.279 -0.934,0.404 -0.159,0.063 -0.338,0 -0.425,-0.147 l -2.576,-4.461 -0.089,-0.205 -0.009,0.004 0.026,0.22 0,5.154 c 0,0.172 -0.126,0.318 -0.297,0.342 C -4.821,1.569 -5.16,1.606 -5.493,1.633 -5.589,1.64 -5.685,1.607 -5.754,1.541 -5.826,1.477 -5.866,1.385 -5.866,1.289 l 0.002,-8.792 0.046,-0.172 c 0.047,-0.083 0.131,-0.146 0.232,-0.167 0.254,-0.05 0.508,-0.116 0.75,-0.2 0.157,-0.052 0.33,0.013 0.411,0.155 l 4.394,7.612 C 0.017,-0.191 0.029,-0.092 0,0"
               inkscape:connector-curvature="0" />
          </g>
          <g
             id="g11921"
             transform="translate(460.92,41.772)">
            <path
               style="fill:#1a428a;fill-opacity:1;fill-rule:nonzero;stroke:none"
               id="path11923"
               d="M 0,0 C 0.066,0.071 0.097,0.167 0.09,0.262 0.063,0.596 0.024,0.937 -0.026,1.274 -0.05,1.442 -0.195,1.567 -0.366,1.567 l -5.152,0.002 -0.221,-0.026 -0.002,0.009 0.204,0.088 4.462,2.577 c 0.148,0.087 0.213,0.268 0.148,0.428 -0.125,0.314 -0.262,0.627 -0.406,0.929 -0.041,0.087 -0.117,0.153 -0.209,0.181 -0.092,0.028 -0.191,0.017 -0.273,-0.03 L -9.43,1.328 -9.555,1.202 C -9.603,1.119 -9.617,1.015 -9.584,0.917 c 0.085,-0.245 0.154,-0.498 0.202,-0.75 0.033,-0.162 0.175,-0.278 0.338,-0.278 l 8.79,0 C -0.158,-0.111 -0.066,-0.07 0,0"
               inkscape:connector-curvature="0" />
          </g>
          <g
             id="g11925"
             transform="translate(432.38,47.529)">
            <path
               style="fill:#1a428a;fill-opacity:1;fill-rule:nonzero;stroke:none"
               id="path11927"
               d="m 0,0 c -0.092,-0.03 -0.168,-0.096 -0.209,-0.182 -0.144,-0.303 -0.279,-0.617 -0.404,-0.934 -0.065,-0.158 0,-0.338 0.147,-0.425 l 4.461,-2.575 0.204,-0.089 -0.004,-0.01 -0.219,0.026 -5.154,0 c -0.171,0 -0.317,-0.125 -0.341,-0.296 -0.049,-0.335 -0.087,-0.674 -0.114,-1.009 -0.006,-0.096 0.026,-0.191 0.091,-0.261 0.065,-0.069 0.157,-0.111 0.253,-0.111 l 8.791,0.002 0.173,0.045 c 0.083,0.05 0.146,0.132 0.167,0.233 0.048,0.255 0.115,0.507 0.199,0.75 0.054,0.157 -0.012,0.329 -0.153,0.412 L 0.275,-0.03 C 0.192,0.017 0.092,0.028 0,0"
               inkscape:connector-curvature="0" />
          </g>
          <g
             id="g11929"
             transform="translate(444.93,55.866)">
            <path
               style="fill:#1a428a;fill-opacity:1;fill-rule:nonzero;stroke:none"
               id="path11931"
               d="m 0,0 c -0.07,0.064 -0.166,0.097 -0.262,0.09 -0.334,-0.027 -0.674,-0.066 -1.01,-0.116 -0.17,-0.026 -0.295,-0.17 -0.295,-0.341 l -0.001,-5.152 0.026,-0.22 -0.009,-0.002 -0.089,0.203 -2.576,4.464 c -0.085,0.148 -0.268,0.212 -0.428,0.146 -0.314,-0.125 -0.627,-0.26 -0.929,-0.405 -0.086,-0.041 -0.154,-0.116 -0.182,-0.21 -0.029,-0.09 -0.016,-0.189 0.031,-0.273 l 4.396,-7.614 0.127,-0.127 c 0.085,-0.047 0.186,-0.061 0.284,-0.028 0.246,0.084 0.498,0.153 0.751,0.202 0.162,0.033 0.279,0.175 0.279,0.339 l -0.002,8.79 C 0.111,-0.156 0.071,-0.064 0,0"
               inkscape:connector-curvature="0" />
          </g>
          <g
             id="g11933"
             transform="translate(460.05,39.762)">
            <path
               style="fill:#ee5f2a;fill-opacity:1;fill-rule:nonzero;stroke:none"
               id="path11935"
               d="m 0,0 c -3.174,0 -5.605,-0.772 -11.907,-2.11 -8.916,-1.894 -15.249,-0.33 -16.701,-0.143 -0.216,0.027 -0.358,-0.083 -0.285,-0.326 0.157,-0.725 0.694,-2.278 1.098,-2.983 5.165,-0.28 12.354,0.864 17.548,1.244 4.283,0.314 8.089,0.473 10.314,0.031 0.36,1.012 0.625,2.093 0.8,3.261 C 0.968,-0.358 0.887,0 0,0"
               inkscape:connector-curvature="0" />
          </g>
          <g
             id="g11937"
             transform="translate(431.06,38.679)">
            <path
               style="fill:#ee5f2a;fill-opacity:1;fill-rule:nonzero;stroke:none"
               id="path11939"
               d="m 0,0 c 0.298,-0.117 4.42,-1.521 10.819,-1.612 1.816,-0.027 4.133,0.243 5.517,0.545 -0.727,-0.115 -2.272,-0.347 -4.188,-0.34 C 8.461,-1.394 2.868,-0.101 0.214,1.083 0.105,1.133 -0.024,1.114 -0.122,1.043 -0.22,0.971 -0.274,0.855 -0.263,0.733 -0.249,0.563 -0.232,0.393 -0.214,0.223 -0.198,0.14 -0.173,0.069 0,0"
               inkscape:connector-curvature="0" />
          </g>
        </g>
      </g>
    </g>
  </g>
</svg>
