<?xml version="1.0" encoding="UTF-8" standalone="no"?>
<!-- Created with Inkscape (http://www.inkscape.org/) -->

<svg
   xmlns:dc="http://purl.org/dc/elements/1.1/"
   xmlns:cc="http://creativecommons.org/ns#"
   xmlns:rdf="http://www.w3.org/1999/02/22-rdf-syntax-ns#"
   xmlns:svg="http://www.w3.org/2000/svg"
   xmlns="http://www.w3.org/2000/svg"
   xmlns:sodipodi="http://sodipodi.sourceforge.net/DTD/sodipodi-0.dtd"
   xmlns:inkscape="http://www.inkscape.org/namespaces/inkscape"
   version="1.1"
   width="400"
   height="279.44901"
   id="svg9312"
   inkscape:version="0.91 r13725"
   sodipodi:docname="YM.svg">
  <metadata
     id="metadata26">
    <rdf:RDF>
      <cc:Work
         rdf:about="">
        <dc:format>image/svg+xml</dc:format>
        <dc:type
           rdf:resource="http://purl.org/dc/dcmitype/StillImage" />
        <dc:title></dc:title>
      </cc:Work>
    </rdf:RDF>
  </metadata>
  <sodipodi:namedview
     pagecolor="#ffffff"
     bordercolor="#666666"
     borderopacity="1"
     objecttolerance="10"
     gridtolerance="10"
     guidetolerance="10"
     inkscape:pageopacity="0"
     inkscape:pageshadow="2"
     inkscape:window-width="1375"
     inkscape:window-height="941"
     id="namedview24"
     showgrid="false"
     inkscape:zoom="1.1242998"
     inkscape:cx="200"
     inkscape:cy="20"
     inkscape:window-x="0"
     inkscape:window-y="0"
     inkscape:window-maximized="0"
     inkscape:current-layer="svg9312" />
  <defs
     id="defs9316" />
  <g
     transform="matrix(8.7875663,0,0,8.7875662,-961.88999,-1501.0737)"
     id="g9511">
    <path
       d="m 126.12746,187.63518 c -0.33321,-0.60333 -0.54369,-1.28414 -0.59854,-2.00952 1.35956,-0.0309 2.69924,-0.01 4.01012,0.0411 l -3.41158,1.96838 z m 2.20217,-6.84099 c 0.88032,-0.43674 3.48152,-1.42744 9.93583,-2.26731 0,0 8.56255,-1.07572 15.54615,-4.20209 l 1.16759,-3.50688 c -6.53727,3.39444 -12.62889,4.27271 -16.71374,5.03373 -3.81678,0.69384 -7.77136,1.0716 -10.96081,2.49973 -1.96358,0.89951 -3.47878,2.61079 -4.11502,4.70532 -1.49325,0.0871 -2.95154,0.23585 -4.33235,0.4669 -5.29495,0.64104 -9.39694,5.1496 -9.39694,10.61732 0,3.26966 1.46788,6.19652 3.77975,8.15736 l 0.0144,0.0363 -0.006,-0.0288 0,6.9e-4 -0.0665,-0.3051 c -0.41891,-2.19943 0.65338,-3.64537 0.65338,-3.64537 1.23272,-1.94096 3.2395,-2.84665 6.32062,-2.84665 7.21259,0 14.92225,3.22853 22.37686,6.3501 l 1.79149,0.75897 0.87141,-2.51686 c -8.0648,-3.3588 -16.73431,-7.24071 -25.03976,-7.24071 -2.79385,0 -5.76391,0.65407 -7.83856,3.09826 -0.13643,-0.58551 -0.20842,-1.19295 -0.20842,-1.81823 0,-4.11776 3.10854,-7.5218 7.10084,-7.99076 1.22518,-0.18648 2.45173,-0.31743 3.6728,-0.40382 0.13438,2.10962 1.13125,3.9875 2.64302,5.28124 l 0.005,-0.004 0.008,0.0117 12.70226,-7.33463 c -3.49317,-0.39903 -7.86392,-0.77543 -12.16063,-0.7384 0.49707,-0.94271 1.28552,-1.70579 2.24948,-2.16789"
       id="path5078"
       style="fill:#0164c8;fill-opacity:1;fill-rule:nonzero;stroke:none"
       inkscape:connector-curvature="0" />
  </g>
</svg>
