<?xml version="1.0" encoding="UTF-8" standalone="no"?>
<svg
   xmlns:dc="http://purl.org/dc/elements/1.1/"
   xmlns:cc="http://creativecommons.org/ns#"
   xmlns:rdf="http://www.w3.org/1999/02/22-rdf-syntax-ns#"
   xmlns:svg="http://www.w3.org/2000/svg"
   xmlns="http://www.w3.org/2000/svg"
   xmlns:sodipodi="http://sodipodi.sourceforge.net/DTD/sodipodi-0.dtd"
   xmlns:inkscape="http://www.inkscape.org/namespaces/inkscape"
   width="400"
   height="418.23901"
   version="1.1"
   id="svg2"
   inkscape:version="0.91 r13725"
   sodipodi:docname="ZH.svg">
  <metadata
     id="metadata47">
    <rdf:RDF>
      <cc:Work
         rdf:about="">
        <dc:format>image/svg+xml</dc:format>
        <dc:type
           rdf:resource="http://purl.org/dc/dcmitype/StillImage" />
        <dc:title></dc:title>
      </cc:Work>
    </rdf:RDF>
  </metadata>
  <defs
     id="defs45" />
  <sodipodi:namedview
     pagecolor="#ffffff"
     bordercolor="#666666"
     borderopacity="1"
     objecttolerance="10"
     gridtolerance="10"
     guidetolerance="10"
     inkscape:pageopacity="0"
     inkscape:pageshadow="2"
     inkscape:window-width="1680"
     inkscape:window-height="998"
     id="namedview43"
     showgrid="false"
     inkscape:zoom="1.06"
     inkscape:cx="150"
     inkscape:cy="46.174999"
     inkscape:window-x="-8"
     inkscape:window-y="-8"
     inkscape:window-maximized="1"
     inkscape:current-layer="g6" />
  <desc
     id="desc4">Logo of Shenzhen Airlines</desc>
  <g
     id="g6"
     transform="translate(0,325.889)">
    <g
       id="g3375"
       transform="matrix(4.607112,0,0,4.6071089,-976.37196,-325.96149)">
      <path
         d="m 279.48447,9.45034 c -2.01303,1.0606 -6.16058,1.56191 -7.86481,-0.21894 -1.84952,2.88364 1.7149,5.60902 5.82526,4.08144 2.40616,-0.87857 4.92841,-2.01041 7.5694,-2.37447 2.75967,-0.39046 6.06808,0 7.25534,1.1978 -10.25769,0.61996 -23.40167,6.2237 -33.19247,13.12553 -7.60892,5.37154 -12.34985,10.21548 -18.07233,17.85069 -0.77037,1.07909 -0.6543,1.89164 0.72296,1.17403 6.71439,-3.42186 15.36792,-6.25011 22.8291,-8.1154 5.96262,-1.48005 12.33408,-2.87308 18.40216,-1.2215 3.06573,0.84424 5.90976,2.83617 7.00989,5.90184 1.42996,3.94959 0.33524,8.62465 -4.39261,9.35546 -2.34814,0.35349 -3.8942,-0.54879 -4.76221,-1.78085 -0.41684,-0.59104 -0.62531,-0.61211 -0.95239,-0.50924 l -6.0708,1.85472 c -0.34302,0.10822 -0.79401,0.58306 -0.54346,1.18724 0.55933,1.40096 1.86264,3.224 3.29526,4.28987 3.86243,2.87836 8.91998,3.19501 13.32086,1.47483 6.07336,-2.36654 9.28659,-8.71695 8.38443,-15.45252 -0.83374,-6.16567 -5.32413,-11.26816 -11.12051,-13.24688 -5.83054,-1.99985 -13.8168,-1.11335 -20.22253,1.22678 -1.69107,0.62267 -2.08694,0.87857 -1.11597,0.06596 4.54849,-3.69626 13.66116,-7.98349 21.3042,-10.17059 5.23178,-1.49332 10.06509,-1.84423 11.47662,-0.68862 C 299.99451,9.72209 292.74189,4.02341 283.87449,6.28966 286.99305,4.31094 284.5315,0 280.0518,0.01578 272.65388,0.05803 265.59654,3.4245 258.65504,4.18166 254.75828,4.61438 250.1651,3.82553 247.09137,2.23463 c -0.59889,6.1182 6.84373,10.61123 13.93556,9.13111 4.97311,-1.03683 9.59012,-3.45877 14.20712,-4.47982 4.07892,-0.92076 6.17633,1.55928 4.25043,2.56442 m -39.0204,71.17071 c -3.96814,5.93617 -6.12619,5.67234 -9.69588,5.27924 -0.8179,-0.08967 -0.80721,0.04753 -1.17384,0.63851 l -0.94208,1.51701 c -0.41147,0.65694 -0.38249,0.74132 0.56476,1.14498 6.77765,2.83882 12.94609,2.3402 17.94829,-5.19215 l 22.9426,-34.55641 c 2.28485,-3.43771 3.28732,-5.28716 6.49557,-5.43492 1.98654,-0.09494 3.40076,1.211 3.78851,2.84145 0.17935,0.79413 0.64914,0.84166 1.11859,0.71497 l 5.97052,-1.78871 c 0.3324,-0.09237 0.57242,-0.57784 0.59094,-1.1424 0.0818,-1.78085 -0.97882,-4.35847 -2.59076,-5.61959 -4.55905,-3.54586 -11.47672,-2.32171 -16.61331,-1.335 -8.24747,1.59883 -18.36267,4.87029 -27.05579,9.17865 -2.26627,1.13976 -4.80962,2.30322 -6.20528,4.39538 -2.40088,3.58283 -9.11,13.95134 -11.69031,17.44973 -4.33736,5.82539 -6.13921,5.63279 -9.78014,5.25547 -0.5435,-0.06068 -0.60945,0.01057 -0.88385,0.46435 l -1.0816,1.75449 c -0.3642,0.59627 -0.33263,0.69913 0.17662,0.91813 6.89926,3.01027 12.9171,2.9865 18.11458,-4.80962 l 10.88557,-16.34694 c 1.61208,-2.42722 4.27936,-3.873 6.29764,-4.56421 l -15.47101,23.23543 c -3.95462,5.93882 -6.03627,5.66185 -9.59023,5.28717 -0.8125,-0.09231 -0.8232,0.05011 -1.1687,0.61474 l -0.96823,1.55129 c -0.30338,0.48547 -0.46956,0.67014 0.39304,1.03426 7.3795,3.09735 13.21005,2.20293 18.03807,-5.09457 l 19.05629,-28.83396 c 1.00003,-1.52494 3.39566,-2.73324 5.67245,-3.21606 l -23.14305,34.65928 z"
         id="path526"
         inkscape:connector-curvature="0"
         style="fill:#cc0327;fill-rule:evenodd" />
    </g>
  </g>
</svg>
