<?xml version="1.0" encoding="UTF-8" standalone="no"?>
<!-- Generator: Adobe Illustrator 19.0.0, SVG Export Plug-In . SVG Version: 6.00 Build 0)  -->
<svg id="Layer_1" xmlns:rdf="http://www.w3.org/1999/02/22-rdf-syntax-ns#" xmlns="http://www.w3.org/2000/svg" xml:space="preserve" viewBox="0 0 400 400" height="400" width="400" version="1.1" y="0px" x="0px" xmlns:cc="http://creativecommons.org/ns#" xmlns:dc="http://purl.org/dc/elements/1.1/"><metadata id="metadata57"><rdf:RDF><cc:Work rdf:about=""><dc:format>image/svg+xml</dc:format><dc:type rdf:resource="http://purl.org/dc/dcmitype/StillImage"/><dc:title/></cc:Work></rdf:RDF></metadata><circle id="circle3" cy="200" cx="200" r="200" fill="#3298c1"/><path id="path5" fill="#7f8b8f" d="m318.77 26.365c0-8.5217-6.9242-15.18-15.18-15.18h-207.19c-8.5217 0-15.18 6.9242-15.18 15.18v334.49c33.289 24.501 74.301 39.148 118.78 39.148 44.475 0 85.752-14.647 118.77-39.148v-334.49z"/><rect id="rect11" height="7.1904" width="209.59" y="340.08" x="95.339" fill="#67acd6"/><g id="g13" fill="#646b79" transform="matrix(.78541 0 0 .78541 0 0.000791)"><path id="path15" d="m276.34 33.907h-43.401c-2.713 0-4.747 2.034-4.747 4.747s2.034 4.747 4.747 4.747h43.401c2.713 0 4.747-2.034 4.747-4.747 0-2.373-2.034-4.747-4.747-4.747z"/><circle id="circle17" cy="475.04" cx="254.64" r="21.701"/></g><g fill-rule="evenodd"><path id="path12" d="m94.506 47.84h209.7v300.03h-209.7v-300.03z" fill="#f3f4f4"/><path id="path14" d="m141.69 239.86h22.019v28.503h-22.019v-28.503z" fill="#7fc7ed"/><path id="path18" d="m168.95 283.36h27.262v31.453h-27.262v-31.453z" fill="#7fc7ed"/></g><g fill-rule="evenodd" fill="#83cdac"><path id="path22" d="m214.04 88.343h69.203v121.51h-69.203v-121.51z"/><path id="path24" d="m94.506 88.343h14.679v144.01h-14.679v-144.01z"/><path id="path26" d="m141.69 322.36h22.019v25.502h-22.019v-25.502z"/></g><g fill-rule="evenodd" fill="#ececec"><path id="path28" d="m208.8 125.85h-99.61v-3.0003h99.61v3.0003z"/><path id="path30" d="m168.95 202.35h-59.766v-3.0003h59.766v3.0003z"/><path id="path32" d="m187.82 65.841h-93.319v-3.0003h93.319v3.0003z"/><path id="path34" d="m141.69 260.86h-47.184v-3.0003h47.184v3.0003z"/><path id="path42" d="m168.95 299.86h-74.445v-3.0003h74.445v3.0003z"/><path id="path44" d="m283.24 253.36h-81.785v-3.0003h81.785v3.0003z"/><path id="path46" d="m185.73 47.84h2.097v136.51h-2.097v-136.51z"/><path id="path48" d="m185.73 322.36h2.097v25.502h-2.097v-25.502z"/></g><g fill-rule="evenodd" fill="#fff"><path id="path52" d="m304.21 88.343h-209.7v-7.5007h209.7v7.5007z"/><path id="path54" d="m168.95 239.86h-74.445v-7.5007h74.445v7.5007z"/><path id="path56" d="m288.48 217.35h-120.27v-7.5006h120.27v7.5006z"/><path id="path58" d="m304.21 322.36h-209.7v-7.5007h209.7v7.5007z"/><path id="path60" d="m304.21 184.35h-140.5v-7.5007h140.5v7.5007z"/><path id="path62" d="m109.19 47.84h5.2426v300.03h-5.2426v-300.03z"/><path id="path66" d="m163.71 47.84h5.2426v300.03h-5.2426v-300.03z"/><path id="path68" d="m208.8 80.843h5.2426v136.51h-5.2426v-136.51z"/><path id="path70" d="m196.21 217.35h5.2426v105.01h-5.2426v-105.01z"/></g><g fill-rule="evenodd" fill="#f5c519"><path id="path74" d="m131.2 47.84h10.485v300.03h-10.485v-300.03z"/><path id="path76" d="m230.81 47.84h10.485v300.03h-10.485v-300.03z"/><path id="path78" d="m304.21 158.85h-209.7v-15.001h209.7v15.001z"/><path id="path80" d="m304.11 283.36h-162.42v-15.001h162.42v15.001z"/></g><g id="g4273" transform="matrix(.36595 0 0 .36595 52.576 88.525)"><path id="path19" fill="#f56e12" d="m346.87 194.29c0 50.861-92.228 173.94-92.228 173.94s-92.228-123.08-92.228-173.94c0-50.861 41.367-92.228 92.228-92.228 50.861 0.339 92.228 41.367 92.228 92.228z"/><circle id="circle21" cy="194.29" cx="254.64" r="50.522" fill="#fff"/></g></svg>
