<?xml version="1.0" encoding="UTF-8" standalone="no"?>
<!-- Generator: Adobe Illustrator 16.0.0, SVG Export Plug-In . SVG Version: 6.00 Build 0)  -->
<svg id="Ebene_1" xmlns:rdf="http://www.w3.org/1999/02/22-rdf-syntax-ns#" xmlns="http://www.w3.org/2000/svg" enable-background="new 0 0 1280 3000" xml:space="preserve" height="94" viewBox="0 0 76 94" width="76" version="1.1" y="0px" x="0px" xmlns:cc="http://creativecommons.org/ns#" xmlns:dc="http://purl.org/dc/elements/1.1/"><metadata id="metadata545"><rdf:RDF><cc:Work rdf:about=""><dc:format>image/svg+xml</dc:format><dc:type rdf:resource="http://purl.org/dc/dcmitype/StillImage"/><dc:title/></cc:Work></rdf:RDF></metadata><g id="g3" transform="translate(0,-2906)"><g font-size="14px" font-family="PTSans-Bold" fill="#4d4d4d"><text id="text175" transform="translate(197.92 2633.2)"/>
<text id="text181" transform="translate(253.97 2633.2)"/>
<text id="text187" transform="translate(392.5 2633.2)"/>
<text id="text189" transform="translate(403.13 2633.2)"/>
<text id="text193" transform="translate(413 2633.2)"/>
<text id="text199" transform="translate(533.58 2633.2)"/>
<text id="text203" transform="translate(543.45 2633.2)"/>
<text id="text209" transform="translate(633.2 2633.2)"/>
<text id="text213" transform="translate(643.08 2633.2)"/>
</g><text id="text223" font-size="14px" transform="translate(235.41 2821.4)" font-family="PTSans-Regular" fill="#009ec4"/>
<text id="text333" font-size="18px" transform="translate(457.86 635.75)" font-family="PTSans-Regular" fill="#009ec4"/><g fill="#57c2db">
<path id="path361" d="m50.446 2925.8v40.726 28.897 4.602h-4.603-5.876v-48.849h-16.166v-25.376c0-2.531 2.07-4.602 4.603-4.602h7.239v-13.485c0-0.818 0.662-1.479 1.481-1.479 0.818 0 1.48 0.662 1.48 1.479v13.485h7.239c2.533 0 4.603 2.071 4.603 4.602zm-41.612 29.816v9.807h-8.834v34.602h35.526v-44.409h-26.692zm5.968 12.532v-5.922h5.921v5.922h-5.921zm9.164 0v-5.922h5.921v5.922h-5.921zm-18.327 8.422v-5.921h5.921v5.921h-5.921zm9.163 0v-5.921h5.921v5.921h-5.921zm9.164 0v-5.921h5.921v5.921h-5.921zm-18.327 8.422v-5.921h5.921v5.921h-5.921zm9.163 0v-5.921h5.921v5.921h-5.921zm9.164 0v-5.921h5.921v5.921h-5.921zm-18.327 8.422v-5.921h5.921v5.921h-5.921zm9.163 0v-5.921h5.921v5.921h-5.921zm9.164 0v-5.921h5.921v5.921h-5.921zm52.385-58.521v65.132h-20.724v-65.132h20.724zm-12.337 7.781c0-0.816-0.662-1.479-1.48-1.479s-1.48 0.663-1.48 1.479v49.26c0 0.817 0.662 1.48 1.48 1.48s1.48-0.663 1.48-1.48v-49.26zm6.91 0c0-0.816-0.662-1.479-1.48-1.479s-1.481 0.663-1.481 1.479v49.26c0 0.817 0.663 1.48 1.481 1.48s1.48-0.663 1.48-1.48v-49.26z"/><text id="text393" font-size="18px" transform="translate(910.56 572)" font-family="PTSans-Regular"/>
<text id="text395" font-size="18px" transform="translate(915.37 572)" font-family="PTSans-Regular"/></g><g font-size="14px" fill="#ffffff">
<text id="text445" transform="translate(427.3 30.25)" font-family="PTSans-Bold"/>
<text id="text451" transform="translate(472.73 30.25)" font-family="PTSans-Regular"/>
<text id="text453" transform="translate(483.94 30.25)" font-family="PTSans-Regular"/>
<text id="text459" transform="translate(563.68 30.25)" font-family="PTSans-Bold"/>
</g></g></svg>
