<?xml version="1.0" encoding="UTF-8" standalone="no"?>
<!-- Generator: Adobe Illustrator 16.0.0, SVG Export Plug-In . SVG Version: 6.00 Build 0)  -->
<svg id="Ebene_1" xmlns:rdf="http://www.w3.org/1999/02/22-rdf-syntax-ns#" xmlns="http://www.w3.org/2000/svg" enable-background="new 0 0 1280 3000" xml:space="preserve" height="94" viewBox="0 0 80 94" width="80" version="1.1" y="0px" x="0px" xmlns:cc="http://creativecommons.org/ns#" xmlns:dc="http://purl.org/dc/elements/1.1/"><metadata id="metadata545"><rdf:RDF><cc:Work rdf:about=""><dc:format>image/svg+xml</dc:format><dc:type rdf:resource="http://purl.org/dc/dcmitype/StillImage"/><dc:title/></cc:Work></rdf:RDF></metadata><g id="g3" transform="translate(0,-2906)"><g font-size="14px" font-family="PTSans-Bold" fill="#4d4d4d"><text id="text175" transform="translate(197.92 2633.2)"/>
<text id="text181" transform="translate(253.97 2633.2)"/>
<text id="text187" transform="translate(392.5 2633.2)"/>
<text id="text189" transform="translate(403.13 2633.2)"/>
<text id="text193" transform="translate(413 2633.2)"/>
<text id="text199" transform="translate(533.58 2633.2)"/>
<text id="text203" transform="translate(543.45 2633.2)"/>
<text id="text209" transform="translate(633.2 2633.2)"/>
<text id="text213" transform="translate(643.08 2633.2)"/>
</g><text id="text223" font-size="14px" transform="translate(235.41 2821.4)" font-family="PTSans-Regular" fill="#009ec4"/>
<text id="text333" font-size="18px" transform="translate(457.86 635.75)" font-family="PTSans-Regular" fill="#009ec4"/><g fill="#57c2db">
<path id="path371" d="m78.506 2967c-1.698-1.832-5.199-5.058-9.474-6.198-2.534-0.683-3.837-1.608-4.234-2.066 1.06-0.692 1.64-2.056 1.364-3.275-0.274-1.202-1.303-1.967-2.748-2.039-0.376-0.02-0.772-0.02-1.19-0.028-2.371-0.032-5.312-0.074-8.243-2.801-2.361-2.207-3.053-4.711-3.664-6.921-0.295-1.077-0.58-2.096-1.018-2.979-1.019-2.048-2.646-2.77-4.519-3.614-0.845-0.388-1.801-0.816-2.809-1.425-0.885-0.529-1.385-1.131-1.477-1.8-0.172-1.173 0.854-2.413 1.179-2.77 1.509-1.67-0.254-3.897-1.668-5.679-0.354-0.448-0.701-0.876-0.967-1.272 0.703-0.722 4.348-1.872 7.318-1.872 0.479 0 0.906 0.031 1.211 0.102 0.926 0.206 1.71-0.082 2.178-0.764 1.313-1.902-0.478-7.01-1.058-8.527-0.713-1.853-3.146-1.894-5.506-1.942-0.723-0.011-1.455-0.022-2.138-0.082-0.935-0.093-1.169-0.651-1.373-2.3-0.094-0.714-0.164-1.335-0.511-1.81-0.426-0.603-1.25-0.683-2.014-0.683-2.545 0-7.816 1.158-9.962 1.719-1.724 0.448-3.116 1.801-4.591 3.225-1.436 1.385-2.91 2.809-4.837 3.655-2.065 0.905-5.585 1.577-8.69 2.187-3.479 0.672-5.656 1.119-6.644 1.75-4.437 2.85-1.67 11.36-0.356 14.116 0.71 1.478 1.729 2.393 2.545 3.135 1.058 0.959 1.209 1.19 1.037 1.648-0.284 0.754-0.042 1.283 0.134 1.527 0.345 0.49 0.944 0.742 1.788 0.742 1.864 0 5.334-1.312 6.525-3.378 1.211-2.085 2.707-2.106 6.115-0.621 3.328 1.446 4.051 3.858 5.14 7.512l0.11 0.376c0.858 2.859 3.411 5.118 6.118 7.52 1.303 1.163 2.658 2.361 3.898 3.686 3.715 3.96 12.08 8.854 15.978 10.89 2.891 1.517 5.414 3.216 9.261 10.177 1.119 2.015 1.283 3.827 0.489 5.384-1.404 2.737-5.485 4.376-8.904 4.783-3.196 0.377-4.651-0.244-6.169-0.926-0.905-0.396-1.831-0.804-3.093-1.008-2.106-0.335-3.927 1.048-4.487 3.216-0.49 1.883 0.213 3.664 1.79 4.52 0.814 0.447 2.087 1.231 3.553 2.127 3.765 2.32 8.467 5.21 10.635 5.698 0.366 0.081 0.742 0.133 1.089 0.133 1.221 0 2.238-0.52 2.859-1.456 0.732-1.089 0.824-2.575 0.255-3.989-0.713-1.72-0.55-2.656 0.813-4.763 0.347-0.53 0.539-0.53 0.632-0.53 0.204 0 0.487 0.092 0.783 0.174 0.773 0.234 1.934 0.468 2.992 0.091 1.567-0.549 2.788-2.493 3.969-4.366 0.764-1.2 1.536-2.442 2.239-3.002 0.844-0.67 1.221-1.791 1.078-3.165-0.244-2.381-2.004-5.15-3.826-6.066-0.509-0.254-0.519-0.498-0.528-0.61-0.062-0.691 0.812-2.086 2.604-3.409 1.719-1.273 4.6 1.465 6.208 3.999 0.52 0.804 1.119 1.222 1.791 1.222 0.418 0 1.201-0.174 1.71-1.364 0.624-1.418 0.726-4.298-0.69-5.814z"/><path id="path373" d="m19.673 2957.4c-0.415 0-1.018 0.153-1.536 0.886l-0.448 0.641c-1.02 1.475-1.74 2.534-4.041 2.829-1.76 0.214-2.879 0.886-3.317 1.974-0.479 1.182-0.052 2.606 1.273 4.234 0.814 1.018 1.557 4.936 0.244 8.03-1.079 2.534-0.642 4.061-0.08 4.895 0.477 0.733 1.494 1.608 3.55 1.608 0.764 0 2.004-0.254 2.901-1.72 0.212 0.081 0.446 0.123 0.702 0.123 1.22 0 2.88-0.927 3.716-2.698 1.181-2.503 1.097-10.594 0.732-14.044-0.287-2.615-1.538-6.758-3.696-6.758z"/><text id="text393" font-size="18px" transform="translate(910.56 572)" font-family="PTSans-Regular"/>
<text id="text395" font-size="18px" transform="translate(915.37 572)" font-family="PTSans-Regular"/></g><g font-size="14px" fill="#ffffff">
<text id="text445" transform="translate(427.3 30.25)" font-family="PTSans-Bold"/>
<text id="text451" transform="translate(472.73 30.25)" font-family="PTSans-Regular"/>
<text id="text453" transform="translate(483.94 30.25)" font-family="PTSans-Regular"/>
<text id="text459" transform="translate(563.68 30.25)" font-family="PTSans-Bold"/>
</g></g></svg>
