<?xml version="1.0" encoding="UTF-8" standalone="no"?>
<!-- Created with Inkscape (http://www.inkscape.org/) -->
<svg id="svg4136" xmlns:rdf="http://www.w3.org/1999/02/22-rdf-syntax-ns#" xmlns="http://www.w3.org/2000/svg" xml:space="preserve" height="20" viewBox="0 0 20 20" width="20" version="1.1" xmlns:cc="http://creativecommons.org/ns#" xmlns:xlink="http://www.w3.org/1999/xlink" xmlns:dc="http://purl.org/dc/elements/1.1/"><metadata id="metadata4142"><rdf:RDF><cc:Work rdf:about=""><dc:format>image/svg+xml</dc:format><dc:type rdf:resource="http://purl.org/dc/dcmitype/StillImage"/><dc:title/></cc:Work></rdf:RDF></metadata><defs id="defs4140"><clipPath id="clipPath8298-5-3-8" clipPathUnits="userSpaceOnUse"><path id="path8300-7-9-0" d="m728 3769.4c0-5.52 4.478-10 10.001-10 5.522 0 9.999 4.48 9.999 10s-4.477 10-9.999 10c-5.523 0-10.001-4.48-10.001-10"/></clipPath></defs><g id="g4144" transform="matrix(1.25 0 0 -1.25 0 1791.6)"><g id="g8294" transform="matrix(2.115 0 0 2.115 -1552.9 -6547.1)"><g id="g8296" clip-path="url(#clipPath8298-5-3-8)"><g id="g8302" transform="translate(735.36 3765.7)"><path id="path8304" d="m0 0 2.642 2.642 2.701-2.702 1.081 1.081-2.702 2.701 2.642 2.642-1.081 1.081-2.641-2.642-2.702 2.702-1.081-1.081 2.702-2.702-2.642-2.641 1.081-1.081z"/></g></g></g></g></svg>
