<?xml version="1.0" encoding="UTF-8" standalone="no"?>
<!-- Generator: Adobe Illustrator 16.0.0, SVG Export Plug-In . SVG Version: 6.00 Build 0)  -->
<svg id="Ebene_1" xmlns:rdf="http://www.w3.org/1999/02/22-rdf-syntax-ns#" xmlns="http://www.w3.org/2000/svg" enable-background="new 0 0 1280 2000" xml:space="preserve" height="120" viewBox="0 0 120 120" width="120" version="1.1" y="0px" x="0px" xmlns:cc="http://creativecommons.org/ns#" xmlns:xlink="http://www.w3.org/1999/xlink" xmlns:dc="http://purl.org/dc/elements/1.1/"><defs><rect id="SVGID_57_" y="1747" x="249" height="11.28" width="1"/><rect id="SVGID_59_" y="1747" x="250" height="11.28" width="0"/><rect id="SVGID_71_" y="1768" x="250" height="9" width="0"/><polyline id="SVGID_151_" points="579.96 628.5 699.95 628.5 699.95 748.5 579.96 748.5 579.96 628.5"/><path id="SVGID_152_" d="m700 689c0 33.137-26.863 60-60 60s-60-26.863-60-60 26.864-60 60-60 60 26.863 60 60"/><path id="SVGID_155_" d="m673.88 654.95h-66.208c-2.473 0-4.496 2.024-4.496 4.496v45.408c0 2.473 2.023 4.495 4.496 4.495h25.104v9.665h-8c-1.761 0-3.201 1.439-3.201 3.199s1.44 3.201 3.201 3.201h32c1.76 0 3.199-1.441 3.199-3.201s-1.439-3.199-3.199-3.199h-8.002v-9.665h25.105c2.473 0 4.496-2.022 4.496-4.495v-45.408c0.001-2.471-2.022-4.496-4.495-4.496"/><path id="SVGID_157_" d="m657.58 682.15c0 9.278-7.521 16.8-16.8 16.8s-16.799-7.521-16.799-16.8 7.521-16.799 16.799-16.799 16.8 7.521 16.8 16.799"/></defs><metadata id="metadata17683"><rdf:RDF><cc:Work rdf:about=""><dc:format>image/svg+xml</dc:format><dc:type rdf:resource="http://purl.org/dc/dcmitype/StillImage"/><dc:title/></cc:Work></rdf:RDF></metadata><g id="g15875" transform="translate(0,-1880)"><g fill="#ffffff"><text id="text15895" font-size="16px" transform="translate(189.83 1733)" font-family="PTSans-Regular"/><g font-size="14px">
<text id="text16307" transform="translate(427.42 29.75)" font-family="PTSans-Bold"/>
<text id="text16313" transform="translate(472.85 29.75)" font-family="PTSans-Regular"/>
<text id="text16315" transform="translate(484.06 29.75)" font-family="PTSans-Regular"/>
<text id="text16321" transform="translate(563.81 29.75)" font-family="PTSans-Bold"/>
</g></g><g id="g16515"><clipPath id="SVGID_58_"><use id="use16521" xlink:href="#SVGID_57_" height="100%" width="100%" y="0" x="0" overflow="visible"/></clipPath><g id="g16523" clip-path="url(#SVGID_58_)"><text id="text16525" font-size="16px" transform="translate(249.66 1755)" font-family="PTSans-Regular" fill="#d1d1d1">y</text>
</g></g><g id="g16527"><clipPath id="SVGID_60_"><use id="use16533" xlink:href="#SVGID_59_" height="100%" width="100%" y="0" x="0" overflow="visible"/></clipPath><g id="g16535" clip-path="url(#SVGID_60_)"><text id="text16537" font-size="16px" transform="translate(249.66 1755)" font-family="PTSans-Regular" fill="#c8c8c8">y</text>
</g></g><g id="g16599"><clipPath id="SVGID_72_"><use id="use16605" xlink:href="#SVGID_71_" height="100%" width="100%" y="0" x="0" overflow="visible"/></clipPath><g id="g16607" clip-path="url(#SVGID_72_)"><text id="text16609" font-size="16px" transform="translate(245.73 1777)" font-family="PTSans-Regular" fill="#c8c8c8">n</text>
</g></g><g font-family="PTSans-Regular"><text id="text16835" font-size="16px" transform="translate(479.7 1733)" fill="#ffffff"/>
<text id="text16997" font-size="16px" transform="translate(690.91 1755)" fill="#ffffff"/>
<text id="text17067" font-size="12px" transform="translate(409.04 1884.5)" fill="#eef9fb"/>
</g><text id="text17137" font-size="16px" transform="translate(955.14 1799)" font-family="PTSans-Bold" fill="#ffffff"/>
<text id="text17237" font-size="42px" transform="translate(420.73 234.2)" font-family="Lato-Bold" fill="#ffffff"/><g font-size="16px" font-family="PTSans-Regular">
<text id="text17289" transform="translate(356.47 1328)"/>
<text id="text17295" transform="translate(286.88 1350)"/>
<text id="text17405" transform="translate(598.43 1350)"/>
<text id="text17495" transform="translate(1033 1328)"/>
<text id="text17501" transform="translate(1084 1328)"/>
</g><path id="path17595" fill="#fff2ba" d="m120 1940c0 33.137-26.863 60-60 60s-60-26.863-60-60 26.864-60 60-60 60 26.863 60 60"/><g id="g17597" transform="translate(-580,1251)"><clipPath id="SVGID_153_"><use id="use17606" xlink:href="#SVGID_151_" height="100%" width="100%" y="0" x="0" overflow="visible"/></clipPath><clipPath id="SVGID_154_" clip-path="url(#SVGID_153_)"><use id="use17609" xlink:href="#SVGID_152_" height="100%" width="100%" y="0" x="0" overflow="visible"/></clipPath><polygon id="polygon17611" points="700 713.95 580 713.95 580 754.9 700 754.9" fill="#e3ab00" clip-path="url(#SVGID_154_)"/></g><path id="path17613" fill="#ffd900" d="m93.885 1906h-66.208c-2.473 0-4.496 2.024-4.496 4.496v45.408c0 2.473 2.023 4.495 4.496 4.495h25.104v9.665h-8c-1.761 0-3.199 1.439-3.199 3.199 0 1.761 1.438 3.2 3.199 3.2h32c1.76 0 3.199-1.439 3.199-3.2 0-1.76-1.439-3.199-3.199-3.199h-8v-9.665h25.104c2.473 0 4.496-2.022 4.496-4.495v-45.408c0-2.471-2.023-4.496-4.496-4.496"/><g id="g17615" transform="translate(-580,1251)"><clipPath id="SVGID_156_"><use id="use17621" xlink:href="#SVGID_155_" height="100%" width="100%" y="0" x="0" overflow="visible"/></clipPath><polygon id="polygon17623" points="640.78 729.92 600.16 728.32 600.16 650.67 640.78 650.67" fill="#fcc200" clip-path="url(#SVGID_156_)"/></g><polygon id="polygon17625" points="671.98 702.95 609.58 702.95 609.58 661.35 671.98 661.35" fill="#fff" transform="translate(-580,1251)"/><polygon id="polygon17627" points="648.78 713.95 648.78 709.35 648.78 709.35 640.78 709.35 640.78 719.02 648.78 719.02" fill="#facc00" transform="translate(-580,1251)"/><polygon id="polygon17629" points="640.78 709.35 632.78 709.35 632.78 719.02 640.78 719.02" fill="#f7b500" transform="translate(-580,1251)"/><path id="path17631" fill="#fcf5bd" d="m77.581 1933.2c0 9.277-7.521 16.8-16.799 16.8-9.279 0-16.8-7.522-16.8-16.8s7.521-16.801 16.8-16.801c9.277 0.001 16.799 7.523 16.799 16.801"/><g id="g17633" transform="translate(-580,1251)"><clipPath id="SVGID_158_"><use id="use17639" xlink:href="#SVGID_157_" height="100%" width="100%" y="0" x="0" overflow="visible"/></clipPath><polygon id="polygon17641" points="621.03 702.17 640.52 702.17 640.52 662.13 621.03 662.13" fill="#ffe054" clip-path="url(#SVGID_158_)"/><path id="path17643" fill="#fcc200" d="m643.87 664.01c0.637 0.84 0.057 5.65-1.652 5.258-1.666-0.383-1.496-4.376-2.625-4.341l4.277-0.917zm4.765 2.567c-0.211 0.982-1.561 1.575-2.26 2.261-0.648 0.636-1.723 1.833-0.994 2.747 0.775 0.973 2.053 0.57 3.008 0.354 0.445-0.102 0.893 0.01 1.332 0.119 0.549 0.14 1.086 0.277 1.59 0.002 0.803-0.438 1.324-1.425 1.557-2.288 0.174-0.649 0.438-2.044 0.168-2.645l-4.401-0.55zm8.555 9.287c-0.367 1.271-2.076 2.627-3.727 2.138s-4.766-2.261-5.621 0.794c-0.857 3.057-0.184 4.032 1.588 4.645 1.771 0.609 2.748 1.038 2.9 2.199 0.154 1.16-1.311 4.154-0.639 5.071 0.672 0.916 1.955 1.833 3.605 1.895 1.648 0.061 3.908-8.37 3.908-8.37l-0.488-6.11-1.133-2.75-0.393 0.488zm-23.11-13.26s-5.62 1.344-5.803 1.404c-0.185 0.062-4.947 4.339-4.947 4.339s-0.553 4.337 1.524 5.255c2.078 0.915 1.832 2.076 2.749 3.787 0.918 1.711 3.256 2.299 3.483 3.178 0.266 1.025 0 1.649 0.123 2.749 0.12 1.1 1.282 1.405 1.954 2.383 0.673 0.978 0 1.284 0.123 3.178 0.121 1.895 0.855 1.222 1.466 2.26 0.61 1.039 0.123 3.18 1.466 3.24 1.343 0.062 1.65-2.548 1.771-3.281 0.123-0.732 0.918-0.708 1.588-1.074 0.673-0.366 0-1.512 0.308-2.855 0.204-0.9 2.931-2.444 3.542-3.85 0.611-1.404-1.283-2.383-2.137-2.749-0.474-0.202-0.891 0.081-1.365 0.363-0.384 0.229-0.805 0.458-1.323 0.432-1.161-0.062-1.254-1.843-1.926-2.516s-1.844-0.655-3.451-1.028c-1.493-0.348-2.75-1.161-2.75-2.444 0-0.916 1.714-0.897 2.851-0.879 0.453 0.007 0.815 0.014 0.938-0.038 0.428-0.183 1.039-0.428 1.589-0.916 0.55-0.489 1.65 0.244 2.444-0.978 0.793-1.223-0.184-2.321-0.855-3.788-0.673-1.466-0.916-3.666-1.101-5.193l-2.261-0.979z" clip-path="url(#SVGID_158_)"/></g><path id="path17645" fill="#fff7d4" d="m60.607 1912.4h-31.024v41.601h31.024v-4c-9.198-0.094-16.625-7.58-16.625-16.8 0-2.854 0.711-5.54 1.966-7.894 2.2-4.127 6.071-7.226 10.711-8.396 1.125-0.284 2.295-0.454 3.495-0.498 0.151-0.01 0.301-0.01 0.453-0.011v-4.002z"/><path id="path17647" fill="#fced9e" d="m43.982 1933.2c0 9.22 7.427 16.706 16.625 16.8v-12.719l-0.086 0.083v12.634c-9.159-0.138-16.539-7.607-16.539-16.798m16.539-15.819v14.276l0.086-0.035v-13.949c-0.029-0.099-0.057-0.197-0.086-0.292"/><path id="path17649" fill="#ffd945" d="m45.948 1925.3c-1.255 2.354-1.966 5.04-1.966 7.894 0 9.19 7.38 16.659 16.539 16.798v-12.634c-0.332 0.32-0.571 0.61-0.625 0.853-0.308 1.344 0.365 2.489-0.308 2.855-0.67 0.366-1.465 0.342-1.588 1.074-0.119 0.725-0.422 3.281-1.725 3.281h-0.047c-1.343-0.061-0.855-2.201-1.466-3.24-0.61-1.038-1.345-0.365-1.466-2.26-0.123-1.894 0.55-2.2-0.123-3.178-0.672-0.978-1.834-1.283-1.954-2.383-0.123-1.1 0.143-1.724-0.123-2.749-0.228-0.879-2.565-1.467-3.483-3.178-0.711-1.328-0.722-2.326-1.665-3.133m14.206-8.895c-1.2 0.044-2.37 0.214-3.495 0.498 0.172 1.037 0.415 2.093 0.793 2.916 0.672 1.467 1.648 2.565 0.855 3.788-0.794 1.222-1.895 0.488-2.444 0.978-0.55 0.488-1.161 0.733-1.589 0.916-0.079 0.035-0.259 0.043-0.499 0.043h-0.438c-0.162 0-0.332-0.01-0.51-0.01-1.076 0-2.341 0.098-2.341 0.885 0 1.283 1.257 2.097 2.75 2.444 1.607 0.373 2.779 0.355 3.451 1.028s0.765 2.454 1.926 2.516h0.084c0.48 0 0.876-0.216 1.239-0.434 0.202-0.12 0.395-0.241 0.585-0.324v-14.276c-0.114-0.377-0.228-0.717-0.367-0.969"/><path id="path17651" fill="#fcbd00" d="m56.659 1916.9c-4.64 1.171-8.511 4.27-10.711 8.396 0.943 0.808 0.954 1.806 1.666 3.134 0.918 1.711 3.256 2.299 3.483 3.178 0.266 1.025 0 1.649 0.123 2.749 0.12 1.1 1.282 1.405 1.954 2.383 0.673 0.978 0 1.284 0.123 3.178 0.121 1.895 0.855 1.222 1.466 2.26 0.61 1.039 0.123 3.18 1.466 3.24h0.047c1.303 0 1.605-2.557 1.725-3.281 0.123-0.732 0.918-0.708 1.588-1.074 0.673-0.366 0-1.512 0.308-2.855 0.054-0.242 0.293-0.532 0.625-0.853l0.086-0.083v-5.659l-0.086 0.035c-0.19 0.083-0.383 0.204-0.585 0.324-0.363 0.218-0.759 0.434-1.239 0.434h-0.084c-1.161-0.062-1.254-1.843-1.926-2.516s-1.844-0.655-3.451-1.028c-1.493-0.348-2.75-1.161-2.75-2.444 0-0.787 1.265-0.885 2.341-0.885 0.178 0 0.348 0 0.51 0.01h0.438c0.24 0 0.42-0.01 0.499-0.043 0.428-0.183 1.039-0.428 1.589-0.916 0.55-0.489 1.65 0.244 2.444-0.978 0.793-1.223-0.184-2.321-0.855-3.788-0.379-0.824-0.622-1.88-0.794-2.917m3.948-0.508c-0.152 0-0.302 0.01-0.453 0.011 0.14 0.252 0.253 0.592 0.367 0.969 0.029 0.095 0.057 0.193 0.086 0.292v-1.272z"/></g></svg>
