<?xml version="1.0" encoding="UTF-8" standalone="no"?>
<!-- Generator: Adobe Illustrator 16.0.0, SVG Export Plug-In . SVG Version: 6.00 Build 0)  -->
<svg id="Ebene_1" xmlns:rdf="http://www.w3.org/1999/02/22-rdf-syntax-ns#" xmlns="http://www.w3.org/2000/svg" enable-background="new 0 0 1280 2000" xml:space="preserve" height="120" viewBox="0 0 120 120" width="120" version="1.1" y="0px" x="0px" xmlns:cc="http://creativecommons.org/ns#" xmlns:xlink="http://www.w3.org/1999/xlink" xmlns:dc="http://purl.org/dc/elements/1.1/"><defs><rect id="SVGID_57_" y="1747" x="249" height="11.28" width="1"/><rect id="SVGID_59_" y="1747" x="250" height="11.28" width="0"/><rect id="SVGID_71_" y="1768" x="250" height="9" width="0"/><path id="SVGID_159_" d="m381 689c0 33.137-26.863 60-60 60-33.136 0-60-26.863-60-60s26.864-60 60-60c33.137 0 60 26.863 60 60"/><path id="SVGID_161_" d="m321.47 657.35c-14.248 0-25.801 11.55-25.801 25.8 0 22.113 22.114 47.913 25.801 47.913 3.685 0 25.801-25.8 25.801-47.913 0-14.251-11.553-25.8-25.801-25.8m0 36.856c-6.107 0-11.057-4.95-11.057-11.057 0-6.108 4.95-11.059 11.057-11.059s11.058 4.95 11.058 11.059c0 6.107-4.951 11.057-11.058 11.057"/></defs><metadata id="metadata17683"><rdf:RDF><cc:Work rdf:about=""><dc:format>image/svg+xml</dc:format><dc:type rdf:resource="http://purl.org/dc/dcmitype/StillImage"/><dc:title/></cc:Work></rdf:RDF></metadata><g id="g15875" transform="translate(0,-1880)"><g fill="#ffffff"><text id="text15895" font-size="16px" transform="translate(189.83 1733)" font-family="PTSans-Regular"/><g font-size="14px">
<text id="text16307" transform="translate(427.42 29.75)" font-family="PTSans-Bold"/>
<text id="text16313" transform="translate(472.85 29.75)" font-family="PTSans-Regular"/>
<text id="text16315" transform="translate(484.06 29.75)" font-family="PTSans-Regular"/>
<text id="text16321" transform="translate(563.81 29.75)" font-family="PTSans-Bold"/>
</g></g><g id="g16515"><clipPath id="SVGID_58_"><use id="use16521" xlink:href="#SVGID_57_" height="100%" width="100%" y="0" x="0" overflow="visible"/></clipPath><g id="g16523" clip-path="url(#SVGID_58_)"><text id="text16525" font-size="16px" transform="translate(249.66 1755)" font-family="PTSans-Regular" fill="#d1d1d1">y</text>
</g></g><g id="g16527"><clipPath id="SVGID_60_"><use id="use16533" xlink:href="#SVGID_59_" height="100%" width="100%" y="0" x="0" overflow="visible"/></clipPath><g id="g16535" clip-path="url(#SVGID_60_)"><text id="text16537" font-size="16px" transform="translate(249.66 1755)" font-family="PTSans-Regular" fill="#c8c8c8">y</text>
</g></g><g id="g16599"><clipPath id="SVGID_72_"><use id="use16605" xlink:href="#SVGID_71_" height="100%" width="100%" y="0" x="0" overflow="visible"/></clipPath><g id="g16607" clip-path="url(#SVGID_72_)"><text id="text16609" font-size="16px" transform="translate(245.73 1777)" font-family="PTSans-Regular" fill="#c8c8c8">n</text>
</g></g><g font-family="PTSans-Regular"><text id="text16835" font-size="16px" transform="translate(479.7 1733)" fill="#ffffff"/>
<text id="text16997" font-size="16px" transform="translate(690.91 1755)" fill="#ffffff"/>
<text id="text17067" font-size="12px" transform="translate(409.04 1884.5)" fill="#eef9fb"/>
</g><text id="text17137" font-size="16px" transform="translate(955.14 1799)" font-family="PTSans-Bold" fill="#ffffff"/>
<text id="text17237" font-size="42px" transform="translate(420.73 234.2)" font-family="Lato-Bold" fill="#ffffff"/><g font-size="16px" font-family="PTSans-Regular">
<text id="text17289" transform="translate(356.47 1328)"/>
<text id="text17295" transform="translate(286.88 1350)"/>
<text id="text17405" transform="translate(598.43 1350)"/>
<text id="text17495" transform="translate(1033 1328)"/>
<text id="text17501" transform="translate(1084 1328)"/>
</g><path id="path17653" fill="#fff2ba" d="m120 1940c0 33.137-26.864 60-60 60-33.137 0-60-26.863-60-60s26.863-60 60-60c33.136 0 60 26.863 60 60z"/><g id="g17655" transform="translate(-261,1251)"><clipPath id="SVGID_160_"><use id="use17661" xlink:href="#SVGID_159_" height="100%" width="100%" y="0" x="0" overflow="visible"/></clipPath><polygon id="polygon17663" points="219.54 788.35 424.34 788.35 424.34 713.95 424.34 713.95 219.54 713.95" fill="#e3ab00" clip-path="url(#SVGID_160_)"/></g><path id="path17665" fill="#fcc400" d="m60.473 1908.4c-14.248 0-25.801 11.55-25.801 25.8 0 22.113 22.114 47.913 25.801 47.913 3.685 0 25.801-25.8 25.801-47.913 0-14.251-11.553-25.8-25.801-25.8zm0 36.856c-6.107 0-11.056-4.949-11.056-11.057s4.949-11.059 11.056-11.059 11.058 4.95 11.058 11.059c0 6.108-4.951 11.057-11.058 11.057z"/><g id="g17667" transform="translate(-261,1251)"><clipPath id="SVGID_162_"><use id="use17673" xlink:href="#SVGID_161_" height="100%" width="100%" y="0" x="0" overflow="visible"/></clipPath><polygon id="polygon17675" points="347.27 640.34 321.94 640.34 321.94 753.14 321.94 753.14 347.27 753.14" fill="#ffdb00" clip-path="url(#SVGID_162_)"/></g><path id="path17677" fill="#fff" d="m73.273 1934c0 7.069-5.731 12.8-12.8 12.8-7.07 0-12.801-5.73-12.801-12.8s5.731-12.8 12.801-12.8c7.069 0 12.8 5.731 12.8 12.8z"/></g></svg>
