<?xml version="1.0" encoding="UTF-8" standalone="no"?>
<!-- Generator: Adobe Illustrator 16.0.0, SVG Export Plug-In . SVG Version: 6.00 Build 0)  -->
<svg id="Ebene_1" xmlns:rdf="http://www.w3.org/1999/02/22-rdf-syntax-ns#" xmlns="http://www.w3.org/2000/svg" enable-background="new 0 0 1280 2000" xml:space="preserve" height="120" viewBox="0 0 120 120" width="120" version="1.1" y="0px" x="0px" xmlns:cc="http://creativecommons.org/ns#" xmlns:xlink="http://www.w3.org/1999/xlink" xmlns:dc="http://purl.org/dc/elements/1.1/"><defs><clipPath id="SVGID_32_"><use id="use377" xlink:href="#SVGID_31_" height="100%" width="100%" y="0" x="0" overflow="visible"/></clipPath><clipPath id="SVGID_30_"><use id="use365" xlink:href="#SVGID_29_" height="100%" width="100%" y="0" x="0" overflow="visible"/></clipPath><clipPath id="SVGID_28_"><use id="use345" xlink:href="#SVGID_27_" height="100%" width="100%" y="0" x="0" overflow="visible"/></clipPath><clipPath id="SVGID_26_"><use id="use333" xlink:href="#SVGID_25_" height="100%" width="100%" y="0" x="0" overflow="visible"/></clipPath><clipPath id="SVGID_24_" clip-path="url(#SVGID_23_)"><use id="use303" xlink:href="#SVGID_22_" height="100%" width="100%" y="0" x="0" overflow="visible"/></clipPath><polyline id="SVGID_21_" points="899.18 628.2 1019.2 628.2 1019.2 748.2 899.18 748.2 899.18 628.2"/><path id="SVGID_22_" d="m1020 689c0 33.137-26.863 60-60 60s-60-26.863-60-60c0-33.136 26.863-59.999 60-59.999s60 26.863 60 59.999"/><path id="SVGID_25_" d="m987.09 691.32c-0.1 0.272-0.416 0.497-0.707 0.497h-3.961c-0.291 0-0.613-0.224-0.713-0.494l-0.758-2.027c-0.102-0.271-0.164-0.73-0.143-1.021l1.041-12.834c0.025-0.29 0.281-0.527 0.572-0.527h3.961c0.291 0 0.547 0.237 0.568 0.527l0.996 12.834c0.021 0.29-0.039 0.751-0.137 1.023l-0.719 2.022"/><path id="SVGID_27_" d="m938.53 691.32c-0.098 0.272-0.416 0.497-0.707 0.497h-3.961c-0.291 0-0.611-0.224-0.713-0.494l-0.758-2.027c-0.1-0.271-0.164-0.73-0.141-1.021l1.041-12.834c0.023-0.29 0.279-0.527 0.57-0.527h3.961c0.291 0 0.547 0.237 0.57 0.527l0.994 12.834c0.023 0.29-0.039 0.751-0.137 1.023l-0.719 2.022"/><path id="SVGID_29_" d="m968.29 719.31c-0.105 2.803-2.012 5.614-4.24 6.25-2.229 0.638-5.873 0.638-8.102 0-2.229-0.636-4.137-3.447-4.24-6.25l-2.084-56.488c-0.104-2.803 1.084-7.005 2.637-9.339l4.346-6.526c1.555-2.334 4.193-2.399 5.863-0.147l5.057 6.82c1.67 2.253 2.951 6.39 2.85 9.192l-2.087 56.488"/><path id="SVGID_31_" d="m963.39 732.22c-0.121 0.341-0.52 0.621-0.881 0.621h-4.953c-0.363 0-0.764-0.278-0.891-0.618l-0.947-2.532c-0.127-0.34-0.207-0.913-0.176-1.275l1.301-16.042c0.029-0.364 0.35-0.66 0.713-0.66h4.953c0.361 0 0.682 0.296 0.711 0.66l1.244 16.042c0.027 0.362-0.049 0.938-0.172 1.279l-0.902 2.525"/></defs><metadata id="metadata1811"><rdf:RDF><cc:Work rdf:about=""><dc:format>image/svg+xml</dc:format><dc:type rdf:resource="http://purl.org/dc/dcmitype/StillImage"/><dc:title/></cc:Work></rdf:RDF></metadata><g id="g3" transform="translate(0,-1880)"><path id="path289" fill="#fcf5bd" d="m120 1940c0 33.136-26.863 60-60 60s-60-26.9-60-60c0-33.137 26.863-60 60-60s60 26.863 60 60z"/><g id="g291" transform="translate(-900,1251)"><clipPath id="SVGID_23_"><use id="use300" xlink:href="#SVGID_21_" height="100%" width="100%" y="0" x="0" overflow="visible"/></clipPath><clipPath id="clipPath6001" clip-path="url(#SVGID_23_)"><use id="use6003" xlink:href="#SVGID_22_" height="100%" width="100%" y="0" x="0" overflow="visible"/></clipPath><g fill="#fff"><polygon id="polygon305" points="926.9 682.73 926.9 701.37 926.9 701.37 921.88 701.37 921.88 682.73" clip-path="url(#SVGID_24_)"/><polygon id="polygon307" points="926.9 658.66 926.9 677.3 926.9 677.3 921.88 677.3 921.88 658.66" clip-path="url(#SVGID_24_)"/><polygon id="polygon309" points="926.9 634.58 926.9 653.23 926.9 653.23 921.88 653.23 921.88 634.58" clip-path="url(#SVGID_24_)"/><polygon id="polygon311" points="926.9 706.8 926.9 725.45 926.9 725.45 921.88 725.45 921.88 706.8" clip-path="url(#SVGID_24_)"/><polygon id="polygon313" points="926.9 730.88 926.9 749.52 926.9 749.52 921.88 749.52 921.88 730.88" clip-path="url(#SVGID_24_)"/><polygon id="polygon315" points="997.37 682.73 997.37 701.37 997.37 701.37 992.36 701.37 992.36 682.73" clip-path="url(#SVGID_24_)"/><polygon id="polygon317" points="997.37 658.66 997.37 677.3 997.37 677.3 992.36 677.3 992.36 658.66" clip-path="url(#SVGID_24_)"/><polygon id="polygon319" points="997.37 634.58 997.37 653.23 997.37 653.23 992.36 653.23 992.36 634.58" clip-path="url(#SVGID_24_)"/><polygon id="polygon321" points="997.37 706.8 997.37 725.45 997.37 725.45 992.36 725.45 992.36 706.8" clip-path="url(#SVGID_24_)"/><polygon id="polygon323" points="997.37 730.88 997.37 749.52 997.37 749.52 992.36 749.52 992.36 730.88" clip-path="url(#SVGID_24_)"/></g></g><path id="path325" fill="#fade3d" d="m87.094 1942.3c-0.1 0.272-0.416 0.497-0.707 0.497h-3.961c-0.291 0-0.611-0.224-0.713-0.494l-0.758-2.027c-0.102-0.271-0.164-0.73-0.141-1.021l1.039-12.834c0.025-0.29 0.281-0.527 0.572-0.527h3.961c0.291 0 0.547 0.237 0.568 0.527l0.996 12.834c0.023 0.29-0.039 0.751-0.137 1.023l-0.719 2.022z"/><g id="g327" transform="translate(-900,1251)"><clipPath id="clipPath6019"><use id="use6021" xlink:href="#SVGID_25_" height="100%" width="100%" y="0" x="0" overflow="visible"/></clipPath><polygon id="polygon335" points="984.38 667.73 984.38 698.4 984.38 698.4 974.78 698.4 974.78 667.73" fill="#fcc400" clip-path="url(#SVGID_26_)"/></g><path id="path337" fill="#fade3d" d="m38.533 1942.3c-0.098 0.272-0.416 0.497-0.707 0.497h-3.961c-0.291 0-0.611-0.224-0.713-0.494l-0.758-2.027c-0.1-0.271-0.164-0.73-0.141-1.021l1.041-12.834c0.023-0.29 0.279-0.527 0.57-0.527h3.961c0.291 0 0.547 0.237 0.57 0.527l0.994 12.834c0.023 0.29-0.039 0.751-0.137 1.023l-0.719 2.022z"/><g id="g339" transform="translate(-900,1251)"><clipPath id="clipPath6028"><use id="use6030" xlink:href="#SVGID_27_" height="100%" width="100%" y="0" x="0" overflow="visible"/></clipPath><polygon id="polygon347" points="935.82 667.73 935.82 698.4 935.82 698.4 926.22 698.4 926.22 667.73" fill="#fcc400" clip-path="url(#SVGID_28_)"/></g><g fill="#e3ab00"><path id="path349" d="m99.994 1948.1c0.074 1.087-0.717 1.743-1.768 1.459l-35.789-9.68c-1.053-0.283-1.904-1.406-1.891-2.497l0.17-15.512c0.014-1.09 0.805-1.553 1.76-1.028l35.266 19.312c0.955 0.525 1.803 1.842 1.883 2.928l0.369 5.018z"/><path id="path351" d="m20.006 1948.1c-0.08 1.087 0.715 1.743 1.766 1.459l35.791-9.68c1.053-0.283 1.902-1.406 1.891-2.497l-0.172-15.512c-0.012-1.09-0.803-1.553-1.758-1.028l-35.266 19.2c-0.955 0.525-1.803 1.842-1.883 2.928l-0.369 5.018z"/><path id="path353" d="m80.807 1976.8c0.037 0.637-0.426 0.985-1.027 0.774l-18.148-6.371c-0.602-0.211-1.088-0.906-1.082-1.543l0.09-10.659c0.01-0.637 0.436-0.857 0.955-0.488l17.996 12.796c0.518 0.37 0.973 1.192 1.01 1.828l0.206 3.663z"/><path id="path355" d="m39.732 1976.8c-0.037 0.637 0.426 0.985 1.025 0.774l18.148-6.371c0.602-0.211 1.088-0.906 1.084-1.543l-0.09-10.659c-0.01-0.637-0.436-0.857-0.955-0.488l-17.996 12.796c-0.52 0.37-0.975 1.192-1.01 1.828l-0.206 3.663z"/></g><path id="path357" fill="#ffdb00" d="m68.291 1970.3c-0.105 2.803-2.012 5.614-4.24 6.25-2.229 0.638-5.873 0.638-8.102 0-2.229-0.636-4.137-3.447-4.24-6.25l-2.084-56.488c-0.104-2.803 1.084-7.005 2.637-9.339l4.346-6.525c1.555-2.334 4.193-2.4 5.863-0.148l5.057 6.82c1.67 2.253 2.951 6.39 2.85 9.192l-2.087 56.488z"/><g id="g359" transform="translate(-900,1251)"><clipPath id="clipPath6041"><use id="use6043" xlink:href="#SVGID_29_" height="100%" width="100%" y="0" x="0" overflow="visible"/></clipPath><polygon id="polygon367" points="942.6 638.13 942.6 750.58 942.6 750.58 959.99 750.58 959.99 638.13" fill="#fcc400" clip-path="url(#SVGID_30_)"/></g><path id="path369" fill="#fcc400" d="m63.389 1983.2c-0.121 0.341-0.52 0.621-0.881 0.621h-4.953c-0.363 0-0.764-0.278-0.891-0.618l-0.947-2.532c-0.127-0.34-0.207-0.913-0.176-1.275l1.301-16.042c0.029-0.364 0.35-0.66 0.713-0.66h4.953c0.361 0 0.682 0.296 0.711 0.66l1.244 16.042c0.027 0.362-0.049 0.938-0.172 1.279l-0.902 2.525z"/><g id="g371" transform="translate(-900,1251)"><clipPath id="clipPath6050"><use id="use6052" xlink:href="#SVGID_31_" height="100%" width="100%" y="0" x="0" overflow="visible"/></clipPath><polygon id="polygon379" points="960 702.73 960 741.06 960 741.06 948 741.06 948 702.73" fill="#e3ab00" clip-path="url(#SVGID_32_)"/></g><path id="path381" fill="#fff" d="m65.178 1911.6s-0.807-5.248-5.25-5.248c-4.441 0-5.105 5.48-5.105 5.48s2.451-2.739 5.105-2.739c2.656 0.001 5.25 2.507 5.25 2.507z"/></g></svg>
