<?xml version="1.0" encoding="UTF-8" standalone="no"?>
<!-- Generator: Adobe Illustrator 16.0.0, SVG Export Plug-In . SVG Version: 6.00 Build 0)  -->
<svg id="Ebene_1" xmlns:rdf="http://www.w3.org/1999/02/22-rdf-syntax-ns#" xmlns="http://www.w3.org/2000/svg" enable-background="new 0 0 1280 3000" xml:space="preserve" height="67" viewBox="0 0 94 67" width="94" version="1.1" y="0px" x="0px" xmlns:cc="http://creativecommons.org/ns#" xmlns:dc="http://purl.org/dc/elements/1.1/"><metadata id="metadata545"><rdf:RDF><cc:Work rdf:about=""><dc:format>image/svg+xml</dc:format><dc:type rdf:resource="http://purl.org/dc/dcmitype/StillImage"/><dc:title/></cc:Work></rdf:RDF></metadata><g id="g3" transform="translate(0,-2933)"><g font-size="14px" font-family="PTSans-Bold" fill="#4d4d4d"><text id="text175" transform="translate(197.92 2633.2)"/>
<text id="text181" transform="translate(253.97 2633.2)"/>
<text id="text187" transform="translate(392.5 2633.2)"/>
<text id="text189" transform="translate(403.13 2633.2)"/>
<text id="text193" transform="translate(413 2633.2)"/>
<text id="text199" transform="translate(533.58 2633.2)"/>
<text id="text203" transform="translate(543.45 2633.2)"/>
<text id="text209" transform="translate(633.2 2633.2)"/>
<text id="text213" transform="translate(643.08 2633.2)"/>
</g><text id="text223" font-size="14px" transform="translate(235.41 2821.4)" font-family="PTSans-Regular" fill="#009ec4"/>
<text id="text333" font-size="18px" transform="translate(457.86 635.75)" font-family="PTSans-Regular" fill="#009ec4"/><g fill="#57c2db">
<text id="text393" font-size="18px" transform="translate(910.56 572)" font-family="PTSans-Regular"/>
<text id="text395" font-size="18px" transform="translate(915.37 572)" font-family="PTSans-Regular"/>
<path id="path411" d="m33.804 2953.5v-7.371c0-7.11 5.783-12.893 12.893-12.893 7.107 0 12.892 5.783 12.892 12.893v7.371c0 7.109-5.784 12.892-12.892 12.892-7.11 0-12.893-5.783-12.893-12.892zm42.582 10.676c5.299 0 9.608-4.311 9.608-9.607v-5.335c0-5.301-4.31-9.612-9.608-9.612s-9.607 4.311-9.607 9.612v5.335c-0.001 5.296 4.308 9.607 9.607 9.607zm-58.774 0c5.297 0 9.606-4.311 9.606-9.607v-5.335c0-5.301-4.31-9.612-9.606-9.612-5.3 0-9.61 4.311-9.61 9.612v5.335c0 5.296 4.31 9.607 9.61 9.607zm0.435 19.473c0-6.778 3.858-12.661 9.489-15.598-0.622-0.129-1.263-0.2-1.922-0.2h-16.007c-5.299 0-9.607 4.312-9.607 9.61v13.009c0 0.886 0.718 1.605 1.604 1.605h16.443v-8.426zm66.343-15.798h-16.008c-0.802 0-1.576 0.111-2.319 0.299 5.52 2.971 9.282 8.803 9.282 15.499v8.426h17.05c0.888 0 1.605-0.72 1.605-1.605v-13.009c0-5.299-4.311-9.61-9.61-9.61zm-26.638 2.906h-22.113c-7.109 0-12.892 5.783-12.892 12.892v14.554c0 1.013 0.821 1.834 1.834 1.834h44.229c1.015 0 1.835-0.821 1.835-1.834v-14.554c-0.001-7.109-5.783-12.892-12.893-12.892z"/></g><g font-size="14px" fill="#ffffff"><text id="text445" transform="translate(427.3 30.25)" font-family="PTSans-Bold"/>
<text id="text451" transform="translate(472.73 30.25)" font-family="PTSans-Regular"/>
<text id="text453" transform="translate(483.94 30.25)" font-family="PTSans-Regular"/>
<text id="text459" transform="translate(563.68 30.25)" font-family="PTSans-Bold"/>
</g></g></svg>
