<?xml version="1.0" encoding="UTF-8" standalone="no"?>
<!-- Generator: Adobe Illustrator 16.0.0, SVG Export Plug-In . SVG Version: 6.00 Build 0)  -->
<svg id="Ebene_1" xmlns:rdf="http://www.w3.org/1999/02/22-rdf-syntax-ns#" xmlns="http://www.w3.org/2000/svg" enable-background="new 0 0 1280 6000" xml:space="preserve" height="24" viewBox="0 0 25 24" width="25" version="1.1" y="0px" x="0px" xmlns:cc="http://creativecommons.org/ns#" xmlns:xlink="http://www.w3.org/1999/xlink" xmlns:dc="http://purl.org/dc/elements/1.1/"><defs><rect id="SVGID_63_" y=".001" width="1280" x="0" height="6e3"/><rect id="SVGID_181_" y=".001" width="1280" x="0" height="6e3"/></defs><metadata id="metadata5687"><rdf:RDF><cc:Work rdf:about=""><dc:format>image/svg+xml</dc:format><dc:type rdf:resource="http://purl.org/dc/dcmitype/StillImage"/><dc:title/></cc:Work></rdf:RDF></metadata><text id="text4001" y="-5946.25" x="410"><g font-size="14px" font-family="PTSans-Bold" fill="#ffffff"><tspan id="tspan4003" y="-5946.25" x="410">Fl</tspan><tspan id="tspan4005" y="-5946.25" x="421.228">y </tspan><tspan id="tspan4007" y="-5946.25" x="430.48099">Tic</tspan><tspan id="tspan4009" y="-5946.25" x="448.26199">k</tspan><tspan id="tspan4011" y="-5946.25" x="454.98099">ets</tspan></g></text>
<text id="text4013" font-size="14px" y="-5946.25" x="472.8457" font-family="PTSans-Regular" fill="#ffffff"/>
<text id="text4015" y="-12.556919" x="257.65466"><g font-size="14px" font-family="PTSans-Bold" fill="#ffffff"><tspan id="tspan4017" style="letter-spacing:-1" letter-spacing="-1" y="-12.556919" x="257.65466">T</tspan><tspan id="tspan4019" y="-12.556919" x="264.13666">ra</tspan><tspan id="tspan4021" y="-12.556919" x="275.99466">v</tspan><tspan id="tspan4023" y="-12.556919" x="282.57367">el budd</tspan><tspan id="tspan4025" y="-12.556919" x="327.47168">y</tspan><tspan id="tspan4027" y="-12.556919" x="333.67365"/><tspan id="tspan4029" y="-12.556919" x="344.29865"/><tspan id="tspan4031" style="letter-spacing:-1" letter-spacing="-1" y="-12.556919" x="347.35065">T</tspan><tspan id="tspan4033" y="-12.556919" x="353.83264">ra</tspan><tspan id="tspan4035" y="-12.556919" x="365.69067">v</tspan><tspan id="tspan4037" y="-12.556919" x="372.28467">el organi</tspan><tspan id="tspan4039" y="-12.556919" x="425.32965">z</tspan><tspan id="tspan4041" y="-12.556919" x="431.62964">er   </tspan><tspan id="tspan4043" y="-12.556919" x="454.28064"/><tspan id="tspan4045" style="letter-spacing:-1" letter-spacing="-1" y="-12.556919" x="457.31866">T</tspan><tspan id="tspan4047" y="-12.556919" x="463.81464">ra</tspan><tspan id="tspan4049" y="-12.556919" x="475.67267">v</tspan><tspan id="tspan4051" y="-12.556919" x="482.26563">el map   </tspan><tspan id="tspan4053" y="-12.556919" x="533.43463"/><tspan id="tspan4055" style="letter-spacing:-1" letter-spacing="-1" y="-12.556919" x="536.47266">T</tspan><tspan id="tspan4057" y="-12.556919" x="542.95563">ra</tspan><tspan id="tspan4059" y="-12.556919" x="554.81262">v</tspan><tspan id="tspan4061" y="-12.556919" x="561.40668">el</tspan><tspan id="tspan4063" y="-12.556919" x="572.63367"/><tspan id="tspan4065" y="-12.556919" x="576.00867">wiki</tspan></g></text>
<g id="g4067" fill="#58c2da" transform="translate(0,-5976)"><clipPath id="SVGID_64_"><use id="use4073" xlink:href="#SVGID_63_" height="100%" width="100%" y="0" x="0" overflow="visible"/></clipPath><path id="path4085" d="m962.46 29.255c-0.128-0.042-0.917-0.855-0.424-2.383h-0.005c1.287-1.349 2.393-3.521 2.393-5.654 0-3.287-2.271-5.012-4.771-5.012-2.502 0-4.673 1.725-4.673 5.012 0 2.143 1.011 4.324 2.31 5.668 0.503 1.349-0.4 2.298-0.59 2.369-2.616 0.959-5.691 2.712-5.691 4.442v0.648c0 2.36 4.503 2.896 8.668 2.896 4.174 0 8.62-0.536 8.62-2.896v-0.648c0-1.781-3.088-3.52-5.837-4.442" clip-path="url(#SVGID_64_)" transform="translate(-951 5962.8)"/><path id="path4087" d="m970.51 24.921c-0.117-0.038-0.86-0.221-0.4-1.659h-0.004c1.212-1.264 2.049-3.309 2.049-5.316 0-3.089-1.932-4.705-4.286-4.705-1.729 0-3.22 0.884-3.888 2.575 1.401 1.161 2.369 2.966 2.369 5.397 0 2.599-1.217 4.968-2.49 6.496 2.03 0.766 5.198 2.312 6.105 4.667 3.191-0.174 6.035-0.841 6.035-2.665v-0.611c-0.005-1.673-2.905-3.308-5.49-4.179" clip-path="url(#SVGID_64_)" transform="translate(-951 5962.8)"/></g><text id="text4921" y="-5691.3906" x="170"><g font-size="42px" font-family="Lato-Bold" fill="#ffffff"><tspan id="tspan4923" y="-5691.3906" x="170">t</tspan><tspan id="tspan4925" y="-5691.3906" x="186.254">r</tspan><tspan id="tspan4927" y="-5691.3906" x="202.82199">a</tspan><tspan id="tspan4929" y="-5691.3906" x="224.05301">v</tspan><tspan id="tspan4931" y="-5691.3906" x="245.78799">el the world</tspan></g></text>
<g id="g4933" transform="translate(0,-5976)"><clipPath id="SVGID_182_"><use id="use4939" xlink:href="#SVGID_181_" height="100%" width="100%" y="0" x="0" overflow="visible"/></clipPath><path id="path4941" fill="#fff" d="m173 318s-3 0-3 3v34s0 3 3 3h112s3 0 3-3v-34s0-3-3-3h-112z" clip-path="url(#SVGID_182_)"/></g></svg>
