<?xml version="1.0" encoding="UTF-8" standalone="no"?>
<!-- Generator: Adobe Illustrator 16.0.0, SVG Export Plug-In . SVG Version: 6.00 Build 0)  -->
<svg id="Ebene_1" xmlns:rdf="http://www.w3.org/1999/02/22-rdf-syntax-ns#" xmlns="http://www.w3.org/2000/svg" enable-background="new 0 0 1280 6000" xml:space="preserve" height="24" viewBox="0 0 24 24" width="24" version="1.1" y="0px" x="0px" xmlns:cc="http://creativecommons.org/ns#" xmlns:xlink="http://www.w3.org/1999/xlink" xmlns:dc="http://purl.org/dc/elements/1.1/"><defs><rect id="SVGID_63_" y=".001" width="1280" x="0" height="6e3"/><rect id="SVGID_181_" y=".001" width="1280" x="0" height="6e3"/></defs><metadata id="metadata5687"><rdf:RDF><cc:Work rdf:about=""><dc:format>image/svg+xml</dc:format><dc:type rdf:resource="http://purl.org/dc/dcmitype/StillImage"/><dc:title/></cc:Work></rdf:RDF></metadata><text id="text4001" y="-5946.25" x="410"><g font-size="14px" font-family="PTSans-Bold" fill="#ffffff"><tspan id="tspan4003" y="-5946.25" x="410">Fl</tspan><tspan id="tspan4005" y="-5946.25" x="421.228">y </tspan><tspan id="tspan4007" y="-5946.25" x="430.48099">Tic</tspan><tspan id="tspan4009" y="-5946.25" x="448.26199">k</tspan><tspan id="tspan4011" y="-5946.25" x="454.98099">ets</tspan></g></text>
<text id="text4013" font-size="14px" y="-5946.25" x="472.8457" font-family="PTSans-Regular" fill="#ffffff"/>
<text id="text4015" y="-12.556919" x="257.65466"><g font-size="14px" font-family="PTSans-Bold" fill="#ffffff"><tspan id="tspan4017" style="letter-spacing:-1" letter-spacing="-1" y="-12.556919" x="257.65466">T</tspan><tspan id="tspan4019" y="-12.556919" x="264.13666">ra</tspan><tspan id="tspan4021" y="-12.556919" x="275.99466">v</tspan><tspan id="tspan4023" y="-12.556919" x="282.57367">el budd</tspan><tspan id="tspan4025" y="-12.556919" x="327.47168">y</tspan><tspan id="tspan4027" y="-12.556919" x="333.67365"/><tspan id="tspan4029" y="-12.556919" x="344.29865"/><tspan id="tspan4031" style="letter-spacing:-1" letter-spacing="-1" y="-12.556919" x="347.35065">T</tspan><tspan id="tspan4033" y="-12.556919" x="353.83264">ra</tspan><tspan id="tspan4035" y="-12.556919" x="365.69067">v</tspan><tspan id="tspan4037" y="-12.556919" x="372.28467">el organi</tspan><tspan id="tspan4039" y="-12.556919" x="425.32965">z</tspan><tspan id="tspan4041" y="-12.556919" x="431.62964">er   </tspan><tspan id="tspan4043" y="-12.556919" x="454.28064"/><tspan id="tspan4045" style="letter-spacing:-1" letter-spacing="-1" y="-12.556919" x="457.31866">T</tspan><tspan id="tspan4047" y="-12.556919" x="463.81464">ra</tspan><tspan id="tspan4049" y="-12.556919" x="475.67267">v</tspan><tspan id="tspan4051" y="-12.556919" x="482.26563">el map   </tspan><tspan id="tspan4053" y="-12.556919" x="533.43463"/><tspan id="tspan4055" style="letter-spacing:-1" letter-spacing="-1" y="-12.556919" x="536.47266">T</tspan><tspan id="tspan4057" y="-12.556919" x="542.95563">ra</tspan><tspan id="tspan4059" y="-12.556919" x="554.81262">v</tspan><tspan id="tspan4061" y="-12.556919" x="561.40668">el</tspan><tspan id="tspan4063" y="-12.556919" x="572.63367"/><tspan id="tspan4065" y="-12.556919" x="576.00867">wiki</tspan></g></text>
<g id="g4067" transform="translate(0,-5976)"><clipPath id="SVGID_64_"><use id="use4073" xlink:href="#SVGID_63_" height="100%" width="100%" y="0" x="0" overflow="visible"/></clipPath><path id="path4089" d="m1004.7 15.758c-2.305 0.892-4.16 2.444-5.364 4.488l-0.191 0.326h4.095l0.039-0.168c0.343-1.495 0.902-2.772 1.693-4.348l0.254-0.502-0.526 0.204zm3.073-0.407c-1.068 1.593-1.879 3.303-2.351 4.946l-0.079 0.276h5.21l-0.072-0.272c-0.438-1.636-1.185-3.209-2.351-4.95l-0.178-0.268-0.179 0.268zm3.159 0.706c0.793 1.579 1.352 2.857 1.694 4.348l0.037 0.168h4.076l-0.169-0.318c-1.036-1.96-2.942-3.557-5.368-4.496l-0.524-0.203 0.254 0.501zm-12.592 6.671c-0.245 0.736-0.374 1.607-0.374 2.515 0 0.907 0.129 1.778 0.374 2.515l0.049 0.146h4.525v-0.215c0-0.435-0.031-0.841-0.061-1.243-0.03-0.392-0.061-0.783-0.061-1.203 0-0.844 0-1.573 0.119-2.418l0.035-0.246h-4.559l-0.047 0.149zm6.556 0.251c-0.114 0.785-0.214 1.465-0.214 2.263 0 0.797 0.1 1.477 0.215 2.264l0.058 0.397h5.993l0.028-0.185c0.042-0.292 0.099-0.57 0.153-0.844 0.109-0.54 0.212-1.053 0.212-1.632 0-0.771-0.097-1.457-0.2-2.184l-0.066-0.48h-6.12l-0.059 0.401zm8.214-0.184c0 0.436 0.031 0.841 0.062 1.244 0.031 0.391 0.063 0.782 0.063 1.203 0 0.842 0 1.569-0.124 2.414l-0.036 0.247h4.559l0.05-0.146c0.248-0.749 0.38-1.617 0.38-2.515 0-0.897-0.132-1.767-0.38-2.516l-0.05-0.148h-4.524v0.217zm-13.779 7.434c1.037 1.96 2.945 3.555 5.369 4.495l0.525 0.203-0.254-0.501c-0.792-1.575-1.351-2.852-1.693-4.346l-0.039-0.17h-4.076l0.168 0.319zm13.296-0.148c-0.328 1.426-0.896 2.884-1.69 4.34l-0.285 0.519 0.552-0.215c2.426-0.94 4.332-2.535 5.368-4.495l0.169-0.319h-4.076l-0.038 0.17zm-7.204 0.104c0.438 1.635 1.185 3.21 2.351 4.948l0.179 0.269 0.179-0.269c1.068-1.592 1.88-3.301 2.351-4.945l0.078-0.277h-5.211l0.073 0.274zm2.529 7.056c-6.617 0-12-5.383-12-11.999 0-6.618 5.383-12.001 12-12.001s12 5.383 12 12.001c0 6.616-5.383 11.999-12 11.999" clip-path="url(#SVGID_64_)" transform="translate(-996 5962.8)" fill="#58c2da"/></g><text id="text4921" y="-5691.3906" x="170"><g font-size="42px" font-family="Lato-Bold" fill="#ffffff"><tspan id="tspan4923" y="-5691.3906" x="170">t</tspan><tspan id="tspan4925" y="-5691.3906" x="186.254">r</tspan><tspan id="tspan4927" y="-5691.3906" x="202.82199">a</tspan><tspan id="tspan4929" y="-5691.3906" x="224.05301">v</tspan><tspan id="tspan4931" y="-5691.3906" x="245.78799">el the world</tspan></g></text>
<g id="g4933" transform="translate(0,-5976)"><clipPath id="SVGID_182_"><use id="use4939" xlink:href="#SVGID_181_" height="100%" width="100%" y="0" x="0" overflow="visible"/></clipPath><path id="path4941" fill="#fff" d="m173 318s-3 0-3 3v34s0 3 3 3h112s3 0 3-3v-34s0-3-3-3h-112z" clip-path="url(#SVGID_182_)"/></g></svg>
