<?xml version="1.0" encoding="UTF-8" standalone="no"?>
<!-- Generator: Adobe Illustrator 16.0.0, SVG Export Plug-In . SVG Version: 6.00 Build 0)  -->

<svg
   xmlns:dc="http://purl.org/dc/elements/1.1/"
   xmlns:cc="http://creativecommons.org/ns#"
   xmlns:rdf="http://www.w3.org/1999/02/22-rdf-syntax-ns#"
   xmlns:svg="http://www.w3.org/2000/svg"
   xmlns="http://www.w3.org/2000/svg"
   xmlns:xlink="http://www.w3.org/1999/xlink"
   xmlns:sodipodi="http://sodipodi.sourceforge.net/DTD/sodipodi-0.dtd"
   xmlns:inkscape="http://www.inkscape.org/namespaces/inkscape"
   version="1.1"
   id="Ebene_1"
   x="0px"
   y="0px"
   width="24"
   height="24"
   viewBox="0 0 24 24"
   enable-background="new 0 0 1280 6000"
   xml:space="preserve"
   inkscape:version="0.91 r13725"
   sodipodi:docname="globe.svg"><metadata
     id="metadata5687"><rdf:RDF><cc:Work
         rdf:about=""><dc:format>image/svg+xml</dc:format><dc:type
           rdf:resource="http://purl.org/dc/dcmitype/StillImage" /><dc:title></dc:title></cc:Work></rdf:RDF></metadata><defs
     id="defs5685" /><sodipodi:namedview
     pagecolor="#ffffff"
     bordercolor="#666666"
     borderopacity="1"
     objecttolerance="10"
     gridtolerance="10"
     guidetolerance="10"
     inkscape:pageopacity="0"
     inkscape:pageshadow="2"
     inkscape:window-width="1851"
     inkscape:window-height="1057"
     id="namedview5683"
     showgrid="false"
     inkscape:zoom="4.5226667"
     inkscape:cx="114.05942"
     inkscape:cy="41.171615"
     inkscape:window-x="1912"
     inkscape:window-y="-8"
     inkscape:window-maximized="1"
     inkscape:current-layer="g4067"
     showborder="true" /><text
     id="text4001"
     x="410"
     y="-5946.25"><tspan
       x="410"
       y="-5946.25"
       font-size="14"
       id="tspan4003"
       style="font-size:14px;font-family:PTSans-Bold;fill:#ffffff">Fl</tspan><tspan
       x="421.228"
       y="-5946.25"
       font-size="14"
       id="tspan4005"
       style="font-size:14px;font-family:PTSans-Bold;fill:#ffffff">y </tspan><tspan
       x="430.48099"
       y="-5946.25"
       font-size="14"
       id="tspan4007"
       style="font-size:14px;font-family:PTSans-Bold;fill:#ffffff">Tic</tspan><tspan
       x="448.26199"
       y="-5946.25"
       font-size="14"
       id="tspan4009"
       style="font-size:14px;font-family:PTSans-Bold;fill:#ffffff">k</tspan><tspan
       x="454.98099"
       y="-5946.25"
       font-size="14"
       id="tspan4011"
       style="font-size:14px;font-family:PTSans-Bold;fill:#ffffff">ets</tspan></text>
<text
     font-size="14"
     id="text4013"
     style="font-size:14px;font-family:PTSans-Regular;fill:#ffffff"
     x="472.8457"
     y="-5946.25" />
<text
     id="text4015"
     x="257.65466"
     y="-12.556919"><tspan
       x="257.65466"
       y="-12.556919"
       font-size="14"
       letter-spacing="-1"
       id="tspan4017"
       style="font-size:14px;font-family:PTSans-Bold;letter-spacing:-1;fill:#ffffff">T</tspan><tspan
       x="264.13666"
       y="-12.556919"
       font-size="14"
       id="tspan4019"
       style="font-size:14px;font-family:PTSans-Bold;fill:#ffffff">ra</tspan><tspan
       x="275.99466"
       y="-12.556919"
       font-size="14"
       id="tspan4021"
       style="font-size:14px;font-family:PTSans-Bold;fill:#ffffff">v</tspan><tspan
       x="282.57367"
       y="-12.556919"
       font-size="14"
       id="tspan4023"
       style="font-size:14px;font-family:PTSans-Bold;fill:#ffffff">el budd</tspan><tspan
       x="327.47168"
       y="-12.556919"
       font-size="14"
       id="tspan4025"
       style="font-size:14px;font-family:PTSans-Bold;fill:#ffffff">y</tspan><tspan
       x="333.67365"
       y="-12.556919"
       font-size="14"
       id="tspan4027"
       style="font-size:14px;font-family:PTSans-Bold;fill:#ffffff" /><tspan
       x="344.29865"
       y="-12.556919"
       font-size="14"
       id="tspan4029"
       style="font-size:14px;font-family:PTSans-Bold;fill:#ffffff" /><tspan
       x="347.35065"
       y="-12.556919"
       font-size="14"
       letter-spacing="-1"
       id="tspan4031"
       style="font-size:14px;font-family:PTSans-Bold;letter-spacing:-1;fill:#ffffff">T</tspan><tspan
       x="353.83264"
       y="-12.556919"
       font-size="14"
       id="tspan4033"
       style="font-size:14px;font-family:PTSans-Bold;fill:#ffffff">ra</tspan><tspan
       x="365.69067"
       y="-12.556919"
       font-size="14"
       id="tspan4035"
       style="font-size:14px;font-family:PTSans-Bold;fill:#ffffff">v</tspan><tspan
       x="372.28467"
       y="-12.556919"
       font-size="14"
       id="tspan4037"
       style="font-size:14px;font-family:PTSans-Bold;fill:#ffffff">el organi</tspan><tspan
       x="425.32965"
       y="-12.556919"
       font-size="14"
       id="tspan4039"
       style="font-size:14px;font-family:PTSans-Bold;fill:#ffffff">z</tspan><tspan
       x="431.62964"
       y="-12.556919"
       font-size="14"
       id="tspan4041"
       style="font-size:14px;font-family:PTSans-Bold;fill:#ffffff">er   </tspan><tspan
       x="454.28064"
       y="-12.556919"
       font-size="14"
       id="tspan4043"
       style="font-size:14px;font-family:PTSans-Bold;fill:#ffffff" /><tspan
       x="457.31866"
       y="-12.556919"
       font-size="14"
       letter-spacing="-1"
       id="tspan4045"
       style="font-size:14px;font-family:PTSans-Bold;letter-spacing:-1;fill:#ffffff">T</tspan><tspan
       x="463.81464"
       y="-12.556919"
       font-size="14"
       id="tspan4047"
       style="font-size:14px;font-family:PTSans-Bold;fill:#ffffff">ra</tspan><tspan
       x="475.67267"
       y="-12.556919"
       font-size="14"
       id="tspan4049"
       style="font-size:14px;font-family:PTSans-Bold;fill:#ffffff">v</tspan><tspan
       x="482.26563"
       y="-12.556919"
       font-size="14"
       id="tspan4051"
       style="font-size:14px;font-family:PTSans-Bold;fill:#ffffff">el map   </tspan><tspan
       x="533.43463"
       y="-12.556919"
       font-size="14"
       id="tspan4053"
       style="font-size:14px;font-family:PTSans-Bold;fill:#ffffff" /><tspan
       x="536.47266"
       y="-12.556919"
       font-size="14"
       letter-spacing="-1"
       id="tspan4055"
       style="font-size:14px;font-family:PTSans-Bold;letter-spacing:-1;fill:#ffffff">T</tspan><tspan
       x="542.95563"
       y="-12.556919"
       font-size="14"
       id="tspan4057"
       style="font-size:14px;font-family:PTSans-Bold;fill:#ffffff">ra</tspan><tspan
       x="554.81262"
       y="-12.556919"
       font-size="14"
       id="tspan4059"
       style="font-size:14px;font-family:PTSans-Bold;fill:#ffffff">v</tspan><tspan
       x="561.40668"
       y="-12.556919"
       font-size="14"
       id="tspan4061"
       style="font-size:14px;font-family:PTSans-Bold;fill:#ffffff">el</tspan><tspan
       x="572.63367"
       y="-12.556919"
       font-size="14"
       id="tspan4063"
       style="font-size:14px;font-family:PTSans-Bold;fill:#ffffff" /><tspan
       x="576.00867"
       y="-12.556919"
       font-size="14"
       id="tspan4065"
       style="font-size:14px;font-family:PTSans-Bold;fill:#ffffff">wiki</tspan></text>
<g
     id="g4067"
     transform="translate(0,-5976)"><defs
       id="defs4069"><rect
         id="SVGID_63_"
         y="0.001"
         width="1280"
         height="5999.999"
         x="0" /></defs><clipPath
       id="SVGID_64_"><use
         xlink:href="#SVGID_63_"
         overflow="visible"
         id="use4073"
         style="overflow:visible"
         x="0"
         y="0"
         width="100%"
         height="100%" /></clipPath><path
       clip-path="url(#SVGID_64_)"
       d="m 1004.748,15.758 c -2.305,0.892 -4.16,2.444 -5.364,4.488 l -0.191,0.326 4.095,0 0.039,-0.168 c 0.343,-1.495 0.902,-2.772 1.693,-4.348 l 0.254,-0.502 -0.526,0.204 z m 3.073,-0.407 c -1.068,1.593 -1.879,3.303 -2.351,4.946 l -0.079,0.276 5.21,0 -0.072,-0.272 c -0.438,-1.636 -1.185,-3.209 -2.351,-4.95 l -0.178,-0.268 -0.179,0.268 z m 3.159,0.706 c 0.793,1.579 1.352,2.857 1.694,4.348 l 0.037,0.168 4.076,0 -0.169,-0.318 c -1.036,-1.96 -2.942,-3.557 -5.368,-4.496 l -0.524,-0.203 0.254,0.501 z m -12.592,6.671 c -0.245,0.736 -0.374,1.607 -0.374,2.515 0,0.907 0.129,1.778 0.374,2.515 l 0.049,0.146 4.525,0 0,-0.215 c 0,-0.435 -0.031,-0.841 -0.061,-1.243 -0.03,-0.392 -0.061,-0.783 -0.061,-1.203 0,-0.844 0,-1.573 0.119,-2.418 l 0.035,-0.246 -4.559,0 -0.047,0.149 z m 6.556,0.251 c -0.114,0.785 -0.214,1.465 -0.214,2.263 0,0.797 0.1,1.477 0.215,2.264 l 0.058,0.397 5.993,0 0.028,-0.185 c 0.042,-0.292 0.099,-0.57 0.153,-0.844 0.109,-0.54 0.212,-1.053 0.212,-1.632 0,-0.771 -0.097,-1.457 -0.2,-2.184 l -0.066,-0.48 -6.12,0 -0.059,0.401 z m 8.214,-0.184 c 0,0.436 0.031,0.841 0.062,1.244 0.031,0.391 0.063,0.782 0.063,1.203 0,0.842 0,1.569 -0.124,2.414 l -0.036,0.247 4.559,0 0.05,-0.146 c 0.248,-0.749 0.38,-1.617 0.38,-2.515 0,-0.897 -0.132,-1.767 -0.38,-2.516 l -0.05,-0.148 -4.524,0 0,0.217 z m -13.779,7.434 c 1.037,1.96 2.945,3.555 5.369,4.495 l 0.525,0.203 -0.254,-0.501 c -0.792,-1.575 -1.351,-2.852 -1.693,-4.346 l -0.039,-0.17 -4.076,0 0.168,0.319 z m 13.296,-0.148 c -0.328,1.426 -0.896,2.884 -1.69,4.34 l -0.285,0.519 0.552,-0.215 c 2.426,-0.94 4.332,-2.535 5.368,-4.495 l 0.169,-0.319 -4.076,0 -0.038,0.17 z m -7.204,0.104 c 0.438,1.635 1.185,3.21 2.351,4.948 l 0.179,0.269 0.179,-0.269 c 1.068,-1.592 1.88,-3.301 2.351,-4.945 l 0.078,-0.277 -5.211,0 0.073,0.274 z m 2.529,7.056 c -6.617,0 -12,-5.383 -12,-11.999 0,-6.618 5.383,-12.001 12,-12.001 6.617,0 12,5.383 12,12.001 0,6.616 -5.383,11.999 -12,11.999"
       id="path4089"
       inkscape:connector-curvature="0"
       style="fill:#58c2da"
       transform="translate(-996,5962.759)" /></g><text
     id="text4921"
     x="170"
     y="-5691.3906"><tspan
       x="170"
       y="-5691.3906"
       font-size="42"
       id="tspan4923"
       style="font-size:42px;font-family:Lato-Bold;fill:#ffffff">t</tspan><tspan
       x="186.254"
       y="-5691.3906"
       font-size="42"
       id="tspan4925"
       style="font-size:42px;font-family:Lato-Bold;fill:#ffffff">r</tspan><tspan
       x="202.82199"
       y="-5691.3906"
       font-size="42"
       id="tspan4927"
       style="font-size:42px;font-family:Lato-Bold;fill:#ffffff">a</tspan><tspan
       x="224.05301"
       y="-5691.3906"
       font-size="42"
       id="tspan4929"
       style="font-size:42px;font-family:Lato-Bold;fill:#ffffff">v</tspan><tspan
       x="245.78799"
       y="-5691.3906"
       font-size="42"
       id="tspan4931"
       style="font-size:42px;font-family:Lato-Bold;fill:#ffffff">el the world</tspan></text>
<g
     id="g4933"
     transform="translate(0,-5976)"><defs
       id="defs4935"><rect
         id="SVGID_181_"
         y="0.001"
         width="1280"
         height="5999.999"
         x="0" /></defs><clipPath
       id="SVGID_182_"><use
         xlink:href="#SVGID_181_"
         overflow="visible"
         id="use4939"
         style="overflow:visible"
         x="0"
         y="0"
         width="100%"
         height="100%" /></clipPath><path
       clip-path="url(#SVGID_182_)"
       d="m 173,318 c 0,0 -3,0 -3,3 l 0,34 c 0,0 0,3 3,3 l 112,0 c 0,0 3,0 3,-3 l 0,-34 c 0,0 0,-3 -3,-3 l -112,0 z"
       id="path4941"
       inkscape:connector-curvature="0"
       style="fill:#ffffff" /></g></svg>