<?xml version="1.0" encoding="UTF-8" standalone="no"?>
<!-- Generator: Adobe Illustrator 16.0.0, SVG Export Plug-In . SVG Version: 6.00 Build 0)  -->
<svg id="Ebene_1" xmlns:rdf="http://www.w3.org/1999/02/22-rdf-syntax-ns#" xmlns="http://www.w3.org/2000/svg" enable-background="new 0 0 1280 2000" xml:space="preserve" height="84" viewBox="0 0 84 84" width="84" version="1.1" y="0px" x="0px" xmlns:cc="http://creativecommons.org/ns#" xmlns:xlink="http://www.w3.org/1999/xlink" xmlns:dc="http://purl.org/dc/elements/1.1/"><defs><path id="SVGID_19_" d="m276 1228c22.091 0 40-17.91 40-40s-17.909-40-40-40-40 17.91-40 40 17.909 40 40 40"/><rect id="SVGID_57_" y="1747" x="249" height="11.28" width="1"/><rect id="SVGID_59_" y="1747" x="250" height="11.28" width="0"/><rect id="SVGID_71_" y="1768" x="250" height="9" width="0"/></defs><metadata id="metadata17683"><rdf:RDF><cc:Work rdf:about=""><dc:format>image/svg+xml</dc:format><dc:type rdf:resource="http://purl.org/dc/dcmitype/StillImage"/><dc:title/></cc:Work></rdf:RDF></metadata><g id="g15875" transform="translate(0,-1916)"><text id="text15895" font-size="16px" transform="translate(189.83 1733)" font-family="PTSans-Regular" fill="#ffffff"/>
<path id="path16121" fill="#fff" d="m42 1999c-22.607 0-41-18.39-41-41s18.393-41 41-41 41 18.39 41 41-18.393 41-41 41z"/><g id="g16123" transform="matrix(-1,0,0,1,318,770)"><clipPath id="SVGID_20_"><use id="use16129" xlink:href="#SVGID_19_" height="100%" width="100%" y="0" x="0" overflow="visible"/></clipPath><path id="path16131" fill="#009ec4" d="m304.19 1229.2h-2.842l-1.241-16.7c-0.232-2.57-1.861-5.12-3.791-5.92l-4.038-1.69v24.73h-2.835v-25.91l-0.031-0.01c-0.627-0.261-1.365-0.511-2.163-0.74-3.212 2.47-7.044 3.82-11.143 3.82-4.118 0-7.973-1.37-11.197-3.87-0.857 0.25-1.652 0.51-2.318 0.79l-0.032 0.01v25.91h-2.835v-24.73l-4.038 1.69c-2.099 0.87-3.551 3.14-3.788 5.87l-1.244 16.75h-2.842l1.26-16.96c0.334-3.87 2.486-7.021 5.524-8.28l6.905-2.88c1.138-0.47 2.577-0.91 4.104-1.28 0.42 0.38 0.862 0.73 1.31 1.061 0.109 0.079 0.216 0.17 0.327 0.239 0.47 0.33 0.952 0.641 1.448 0.92 2.258 1.25 4.771 1.931 7.416 1.931 2.614 0 5.098-0.66 7.333-1.88 0.515-0.28 1.015-0.601 1.502-0.94 0.093-0.07 0.183-0.14 0.275-0.2 0.463-0.34 0.917-0.7 1.35-1.09 1.463 0.36 2.841 0.78 3.936 1.24l6.904 2.88c3.038 1.26 5.21 4.79 5.524 8.28l1.26 16.959zm-11.538-49.4-1.274 5.37c-0.126 0.53-0.609 0.86-1.131 0.85-1.543 4.78-3.828 9.051-7.411 11.41-1.933 1.46-4.208 2.26-6.73 2.26-2.563 0-4.868-0.829-6.82-2.329-3.552-2.391-5.88-6.62-7.452-11.341-0.552 0.051-1.078-0.29-1.21-0.85l-1.274-5.37c-0.129-0.54 0.171-1.07 0.665-1.28-1.083-10.09 7.716-16.449 16.091-16.449 8.318 0 16.869 6.46 15.901 16.46 0.482 0.219 0.772 0.739 0.645 1.269zm-5.274 0.98c0-1.91-0.196-3.37-0.515-4.65-4.357 1.44-12.323 0.88-15.099-3.61-1.37 3.69-3.227 5.561-6.877 5.431-0.091 0.8-0.142 1.72-0.142 2.83 0 9.47 5.157 16.08 11.361 16.08 7.238 0 11.272-8.341 11.272-16.081zm-16.145-1.04c-1.174 0-2.126 0.949-2.126 2.12 0 1.18 0.952 2.13 2.126 2.13s2.126-0.95 2.126-2.13c0-1.17-0.952-2.12-2.126-2.12zm9.537 0c-1.175 0-2.126 0.949-2.126 2.12 0 1.18 0.951 2.13 2.126 2.13 1.174 0 2.126-0.95 2.126-2.13 0-1.17-0.952-2.12-2.126-2.12zm-1.342 8.43c-1.877 0.5-4.948 0.5-6.825 0s-2.006 0.69-0.288 2.64l0.402 0.46c1.718 1.95 4.571 1.99 6.338 0.08l0.572-0.62c1.768-1.909 1.678-3.06-0.199-2.56zm12.164 10.29 6.905 2.88c0.303 0.13 0.599 0.28 0.89 0.43v-10.8c0-1.6-1.351-2.91-3.002-2.91h-2.393c-1.105 3.061-2.443 5.61-4.047 7.681-0.376 0.609-0.78 1.189-1.206 1.739 1.042 0.3 2.014 0.64 2.853 0.98zm-38.086 2.88 6.904-2.88c0.887-0.36 1.924-0.71 3.032-1.021-0.38-0.5-0.746-1.02-1.087-1.569-1.699-2.11-3.106-4.7-4.259-7.811h-2.479c-1.651 0-3.002 1.311-3.002 2.91v10.83c0.295-0.159 0.582-0.329 0.891-0.459z" clip-path="url(#SVGID_20_)"/></g><path id="path16133" fill="#009ec4" d="m42 1999v1c-23.162 0-41.998-18.84-42-42 0.002-23.16 18.838-42 42-42s41.998 18.84 42 42c-0.002 23.16-18.838 42-42 42v-1-1c11.03 0 21.024-4.479 28.271-11.729 7.245-7.3 11.729-17.3 11.729-28.3s-4.484-21-11.729-28.3c-7.247-7.2-17.241-11.7-28.271-11.7s-21.024 4.48-28.271 11.73c-7.245 7.3-11.729 17.3-11.729 28.3 0 11.03 4.484 21.021 11.729 28.271 7.247 7.2 17.241 11.7 28.271 11.7v1z"/><g font-size="14px" fill="#ffffff"><text id="text16307" transform="translate(427.42 29.75)" font-family="PTSans-Bold"/>
<text id="text16313" transform="translate(472.85 29.75)" font-family="PTSans-Regular"/>
<text id="text16315" transform="translate(484.06 29.75)" font-family="PTSans-Regular"/>
<text id="text16321" transform="translate(563.81 29.75)" font-family="PTSans-Bold"/>
</g><g id="g16515"><clipPath id="SVGID_58_"><use id="use16521" xlink:href="#SVGID_57_" height="100%" width="100%" y="0" x="0" overflow="visible"/></clipPath><g id="g16523" clip-path="url(#SVGID_58_)"><text id="text16525" font-size="16px" transform="translate(249.66 1755)" font-family="PTSans-Regular" fill="#d1d1d1">y</text>
</g></g><g id="g16527"><clipPath id="SVGID_60_"><use id="use16533" xlink:href="#SVGID_59_" height="100%" width="100%" y="0" x="0" overflow="visible"/></clipPath><g id="g16535" clip-path="url(#SVGID_60_)"><text id="text16537" font-size="16px" transform="translate(249.66 1755)" font-family="PTSans-Regular" fill="#c8c8c8">y</text>
</g></g><g id="g16599"><clipPath id="SVGID_72_"><use id="use16605" xlink:href="#SVGID_71_" height="100%" width="100%" y="0" x="0" overflow="visible"/></clipPath><g id="g16607" clip-path="url(#SVGID_72_)"><text id="text16609" font-size="16px" transform="translate(245.73 1777)" font-family="PTSans-Regular" fill="#c8c8c8">n</text>
</g></g><g font-family="PTSans-Regular"><text id="text16835" font-size="16px" transform="translate(479.7 1733)" fill="#ffffff"/>
<text id="text16997" font-size="16px" transform="translate(690.91 1755)" fill="#ffffff"/>
<text id="text17067" font-size="12px" transform="translate(409.04 1884.5)" fill="#eef9fb"/>
</g><text id="text17137" font-size="16px" transform="translate(955.14 1799)" font-family="PTSans-Bold" fill="#ffffff"/>
<text id="text17237" font-size="42px" transform="translate(420.73 234.2)" font-family="Lato-Bold" fill="#ffffff"/><g font-size="16px" font-family="PTSans-Regular">
<text id="text17289" transform="translate(356.47 1328)"/>
<text id="text17295" transform="translate(286.88 1350)"/>
<text id="text17405" transform="translate(598.43 1350)"/>
<text id="text17495" transform="translate(1033 1328)"/>
<text id="text17501" transform="translate(1084 1328)"/>
</g></g></svg>
