<?xml version="1.0" encoding="UTF-8" standalone="no"?>
<!-- Generator: Adobe Illustrator 16.0.0, SVG Export Plug-In . SVG Version: 6.00 Build 0)  -->

<svg
   xmlns:dc="http://purl.org/dc/elements/1.1/"
   xmlns:cc="http://creativecommons.org/ns#"
   xmlns:rdf="http://www.w3.org/1999/02/22-rdf-syntax-ns#"
   xmlns:svg="http://www.w3.org/2000/svg"
   xmlns="http://www.w3.org/2000/svg"
   xmlns:xlink="http://www.w3.org/1999/xlink"
   xmlns:sodipodi="http://sodipodi.sourceforge.net/DTD/sodipodi-0.dtd"
   xmlns:inkscape="http://www.inkscape.org/namespaces/inkscape"
   id="Ebene_1"
   enable-background="new 0 0 1280 2000"
   xml:space="preserve"
   height="84"
   viewBox="0 0 84 84"
   width="84"
   version="1.1"
   y="0px"
   x="0px"
   inkscape:version="0.91 r13725"
   sodipodi:docname="ico-organizer.svg"><sodipodi:namedview
     pagecolor="#ffffff"
     bordercolor="#666666"
     borderopacity="1"
     objecttolerance="10"
     gridtolerance="10"
     guidetolerance="10"
     inkscape:pageopacity="0"
     inkscape:pageshadow="2"
     inkscape:window-width="1851"
     inkscape:window-height="1057"
     id="namedview49"
     showgrid="false"
     inkscape:zoom="2.8095238"
     inkscape:cx="42"
     inkscape:cy="42"
     inkscape:window-x="1912"
     inkscape:window-y="-8"
     inkscape:window-maximized="1"
     inkscape:current-layer="g15875" /><defs
     id="defs3"><rect
       id="SVGID_57_"
       y="1747"
       x="249"
       height="11.28"
       width="1" /><rect
       id="SVGID_59_"
       y="1747"
       x="250"
       height="11.28"
       width="0" /><rect
       id="SVGID_71_"
       y="1768"
       x="250"
       height="9"
       width="0" /></defs><metadata
     id="metadata17683"><rdf:RDF><cc:Work
         rdf:about=""><dc:format>image/svg+xml</dc:format><dc:type
           rdf:resource="http://purl.org/dc/dcmitype/StillImage" /><dc:title /></cc:Work></rdf:RDF></metadata><g
     id="g15875"
     transform="translate(0,-1916)"><text
       id="text15895"
       font-size="16px"
       transform="translate(189.83 1733)"
       font-family="PTSans-Regular"
       fill="#ffffff" />
<path
       id="path16137"
       fill="#3da33d"
       d="m42 1999v1c23.162 0 41.998-18.84 42-42-0.002-23.16-18.838-42-42-42s-41.998 18.84-42 42c0.002 23.16 18.838 42 42 42v-1-1c-11.03 0-21.024-4.479-28.271-11.729-7.245-7.3-11.729-17.3-11.729-28.3s4.484-21 11.729-28.3c7.247-7.2 17.241-11.7 28.271-11.7s21.024 4.48 28.271 11.73c7.245 7.25 11.729 17.24 11.729 28.27s-4.484 21.021-11.729 28.271c-7.247 7.2-17.241 11.7-28.271 11.7v1z"
       style="fill:#000000;fill-opacity:1" /><path
       id="path16143"
       fill="#3da33d"
       d="m56.107 1944.4c0 1.15-0.938 2.08-2.083 2.08s-2.083-0.93-2.083-2.08v-6.939c0-1.15 0.938-2.09 2.083-2.09s2.083 0.939 2.083 2.09v6.939zm-23.608-6.94c0-1.15-0.938-2.09-2.083-2.09s-2.083 0.939-2.083 2.09v6.939c0 1.15 0.938 2.08 2.083 2.08s2.083-0.93 2.083-2.08v-6.939zm7.463 39.57h-17.183c-1.528 0-2.778-1.25-2.778-2.771v-9.729h-0.001v-2.771h0.001v-18.05c0-1.53 1.25-2.78 2.778-2.78h3.471v3.47c0 2.301 1.869 4.171 4.166 4.171s4.166-1.87 4.166-4.171v-3.47h15.276v3.47c0 2.301 1.868 4.171 4.166 4.171 2.297 0 4.166-1.87 4.166-4.171v-3.47h3.47c1.528 0 2.778 1.25 2.778 2.78v20.35c-0.12 0.04-0.242 0.08-0.357 0.13-0.532 0.24-1.579 0.74-3.113 1.511v-1.17h-24.303v9.029h3.238c-0.214 0.391-0.377 0.811-0.429 1.261-0.094 0.791 0.091 1.56 0.488 2.21zm10.59-15.27h10.416v-9.03h-10.416v9.03zm-13.887 0h11.109v-9.03h-11.109v9.03zm-2.778 2.77h-10.414v9.029h10.414v-9.029zm0-11.8h-10.414v9.03h10.414v-9.03zm14.355 26.68zm-6.01-4.26c-0.028 0.23 0.057 0.461 0.234 0.62l0.011 0.011 4.968 3.79c0.05 0.029 0.366 0.22 0.797 0.22v0.02h0.523c0.663 0 1.311-0.029 1.907-0.14 0.351-0.06 0.713-0.24 0.729-0.25l15.19-7.73c4.073-2.35 3.366-4.439 3.356-4.46-0.268-0.5-1.712-0.84-2.893-0.84-0.717 0-1.339 0.12-1.852 0.34-0.697 0.311-2.372 1.131-4.4 2.15l-9.855-2.11c-0.228-0.05-0.558-0.02-0.766 0.08l-2.162 1c-0.194 0.09-0.313 0.25-0.319 0.44-0.004 0.18 0.105 0.35 0.295 0.45l6.415 3.38c-2.714 1.39-5.016 2.569-5.626 2.88l-3.116-1.101c-0.168-0.079-0.354-0.119-0.529-0.09-0.928 0.13-2.44 0.761-2.504 0.78l-0.029 0.021c-0.207 0.099-0.347 0.309-0.374 0.539z"
       style="fill:#000000;fill-opacity:1" /><g
       font-size="14px"
       fill="#ffffff"
       id="g14"><text
         id="text16307"
         transform="translate(427.42 29.75)"
         font-family="PTSans-Bold" />
<text
         id="text16313"
         transform="translate(472.85 29.75)"
         font-family="PTSans-Regular" />
<text
         id="text16315"
         transform="translate(484.06 29.75)"
         font-family="PTSans-Regular" />
<text
         id="text16321"
         transform="translate(563.81 29.75)"
         font-family="PTSans-Bold" />
</g><g
       id="g16515"><clipPath
         id="SVGID_58_"><use
           id="use16521"
           xlink:href="#SVGID_57_"
           height="100%"
           width="100%"
           y="0"
           x="0"
           overflow="visible" /></clipPath><g
         id="g16523"
         clip-path="url(#SVGID_58_)"><text
           id="text16525"
           font-size="16px"
           transform="translate(249.66 1755)"
           font-family="PTSans-Regular"
           fill="#d1d1d1">y</text>
</g></g><g
       id="g16527"><clipPath
         id="SVGID_60_"><use
           id="use16533"
           xlink:href="#SVGID_59_"
           height="100%"
           width="100%"
           y="0"
           x="0"
           overflow="visible" /></clipPath><g
         id="g16535"
         clip-path="url(#SVGID_60_)"><text
           id="text16537"
           font-size="16px"
           transform="translate(249.66 1755)"
           font-family="PTSans-Regular"
           fill="#c8c8c8">y</text>
</g></g><g
       id="g16599"><clipPath
         id="SVGID_72_"><use
           id="use16605"
           xlink:href="#SVGID_71_"
           height="100%"
           width="100%"
           y="0"
           x="0"
           overflow="visible" /></clipPath><g
         id="g16607"
         clip-path="url(#SVGID_72_)"><text
           id="text16609"
           font-size="16px"
           transform="translate(245.73 1777)"
           font-family="PTSans-Regular"
           fill="#c8c8c8">n</text>
</g></g><g
       font-family="PTSans-Regular"
       id="g35"><text
         id="text16835"
         font-size="16px"
         transform="translate(479.7 1733)"
         fill="#ffffff" />
<text
         id="text16997"
         font-size="16px"
         transform="translate(690.91 1755)"
         fill="#ffffff" />
<text
         id="text17067"
         font-size="12px"
         transform="translate(409.04 1884.5)"
         fill="#eef9fb" />
</g><text
       id="text17137"
       font-size="16px"
       transform="translate(955.14 1799)"
       font-family="PTSans-Bold"
       fill="#ffffff" />
<text
       id="text17237"
       font-size="42px"
       transform="translate(420.73 234.2)"
       font-family="Lato-Bold"
       fill="#ffffff" />
<g
       font-size="16px"
       font-family="PTSans-Regular"
       id="g42"><text
         id="text17289"
         transform="translate(356.47 1328)" />
<text
         id="text17295"
         transform="translate(286.88 1350)" />
<text
         id="text17405"
         transform="translate(598.43 1350)" />
<text
         id="text17495"
         transform="translate(1033 1328)" />
<text
         id="text17501"
         transform="translate(1084 1328)" />
</g></g></svg>