<?xml version="1.0" encoding="UTF-8" standalone="no"?>
<!-- Generator: Adobe Illustrator 16.0.0, SVG Export Plug-In . SVG Version: 6.00 Build 0)  -->

<svg
   xmlns:dc="http://purl.org/dc/elements/1.1/"
   xmlns:cc="http://creativecommons.org/ns#"
   xmlns:rdf="http://www.w3.org/1999/02/22-rdf-syntax-ns#"
   xmlns:svg="http://www.w3.org/2000/svg"
   xmlns="http://www.w3.org/2000/svg"
   xmlns:xlink="http://www.w3.org/1999/xlink"
   xmlns:sodipodi="http://sodipodi.sourceforge.net/DTD/sodipodi-0.dtd"
   xmlns:inkscape="http://www.inkscape.org/namespaces/inkscape"
   id="Ebene_1"
   enable-background="new 0 0 1280 2000"
   xml:space="preserve"
   height="84"
   viewBox="0 0 84 84"
   width="84"
   version="1.1"
   y="0px"
   x="0px"
   inkscape:version="0.91 r13725"
   sodipodi:docname="ico-wiki.svg"><sodipodi:namedview
     pagecolor="#ffffff"
     bordercolor="#666666"
     borderopacity="1"
     objecttolerance="10"
     gridtolerance="10"
     guidetolerance="10"
     inkscape:pageopacity="0"
     inkscape:pageshadow="2"
     inkscape:window-width="1851"
     inkscape:window-height="1057"
     id="namedview52"
     showgrid="false"
     inkscape:zoom="2.8095238"
     inkscape:cx="42"
     inkscape:cy="42"
     inkscape:window-x="1912"
     inkscape:window-y="-8"
     inkscape:window-maximized="1"
     inkscape:current-layer="g12" /><defs
     id="defs3"><rect
       id="SVGID_57_"
       y="1747"
       x="249"
       height="11.28"
       width="1" /><rect
       id="SVGID_59_"
       y="1747"
       x="250"
       height="11.28"
       width="0" /><rect
       id="SVGID_71_"
       y="1768"
       x="250"
       height="9"
       width="0" /></defs><metadata
     id="metadata17683"><rdf:RDF><cc:Work
         rdf:about=""><dc:format>image/svg+xml</dc:format><dc:type
           rdf:resource="http://purl.org/dc/dcmitype/StillImage" /><dc:title></dc:title></cc:Work></rdf:RDF></metadata><g
     id="g15875"
     transform="translate(0,-1916)"><text
       id="text15895"
       font-size="16px"
       transform="translate(189.83 1733)"
       font-family="PTSans-Regular"
       fill="#ffffff" />
<g
       id="g12"
       fill="#f56e12"><path
         id="path16267"
         d="m42 1999v1c23.16 0 41.996-18.84 42-42-0.004-23.16-18.84-42-42-42-23.162 0-41.998 18.84-42 42 0.002 23.16 18.838 42 42 42v-1-1c-11.031 0-21.025-4.479-28.271-11.729-7.246-7.3-11.729-17.3-11.729-28.3s4.482-21 11.729-28.3c7.247-7.2 17.24-11.7 28.271-11.7 11.029 0 21.023 4.48 28.27 11.73s11.73 17.24 11.73 28.27-4.484 21.021-11.73 28.271c-7.246 7.2-17.24 11.7-28.27 11.7v1z"
         style="stroke:#000000;stroke-opacity:1;fill:#000000;fill-opacity:1" /><path
         id="path16269"
         d="m64.733 1972-8.854-3.69v-6.819l-0.002-0.04 0.002-0.04c0-1.13-0.914-2.05-2.043-2.05s-2.045 0.92-2.045 2.05l0.004 0.04-0.004 0.04v12.689l-1.885-2.779c-0.342-0.66-1.025-1.12-1.824-1.12-1.139 0-2.061 0.92-2.061 2.06l0.002 0.021c-0.002 0.26 0.049 0.52 0.154 0.76 0.066 0.17 0.156 0.31 0.26 0.45l5.73 8.46c0.287 0.43 0.725 0.7 1.193 0.79 0.242 0.08 0.498 0.14 0.768 0.14h9.346c1.285 0 2.334-1.05 2.334-2.34v-7.01c0.001-0.642-0.483-1.372-1.075-1.612z"
         style="fill:#000000;fill-opacity:1" /><path
         id="path16271"
         d="m42.233 1972.6h-9.689c-1.494 0-2.717-1.23-2.717-2.72v-28.49c0-1.49 1.223-2.72 2.717-2.72h17.18c1.496 0 2.717 1.229 2.717 2.72v13.71c0 0.78 0.633 1.42 1.414 1.42s1.414-0.64 1.414-1.42v-16.59c0-3.021-2.473-5.49-5.496-5.49h-17.277c-3.021 0-5.494 2.47-5.494 5.49v37.07c0 3.02 2.473 5.5 5.494 5.5h15.553l-5.816-8.48z"
         style="fill:#000000;fill-opacity:1" /></g><g
       font-size="14px"
       id="g17"
       fill="#ffffff"><text
         id="text16307"
         transform="translate(427.42 29.75)"
         font-family="PTSans-Bold" />
<text
         id="text16313"
         transform="translate(472.85 29.75)"
         font-family="PTSans-Regular" />
<text
         id="text16315"
         transform="translate(484.06 29.75)"
         font-family="PTSans-Regular" />
<text
         id="text16321"
         transform="translate(563.81 29.75)"
         font-family="PTSans-Bold" />
</g><g
       id="g16515"><clipPath
         id="SVGID_58_"><use
           id="use16521"
           xlink:href="#SVGID_57_"
           height="100%"
           width="100%"
           y="0"
           x="0"
           overflow="visible" /></clipPath><g
         id="g16523"
         clip-path="url(#SVGID_58_)"><text
           id="text16525"
           font-size="16px"
           transform="translate(249.66 1755)"
           font-family="PTSans-Regular"
           fill="#d1d1d1">y</text>
</g></g><g
       id="g16527"><clipPath
         id="SVGID_60_"><use
           id="use16533"
           xlink:href="#SVGID_59_"
           height="100%"
           width="100%"
           y="0"
           x="0"
           overflow="visible" /></clipPath><g
         id="g16535"
         clip-path="url(#SVGID_60_)"><text
           id="text16537"
           font-size="16px"
           transform="translate(249.66 1755)"
           font-family="PTSans-Regular"
           fill="#c8c8c8">y</text>
</g></g><g
       id="g16599"><clipPath
         id="SVGID_72_"><use
           id="use16605"
           xlink:href="#SVGID_71_"
           height="100%"
           width="100%"
           y="0"
           x="0"
           overflow="visible" /></clipPath><g
         id="g16607"
         clip-path="url(#SVGID_72_)"><text
           id="text16609"
           font-size="16px"
           transform="translate(245.73 1777)"
           font-family="PTSans-Regular"
           fill="#c8c8c8">n</text>
</g></g><g
       id="g38"
       font-family="PTSans-Regular"><text
         id="text16835"
         font-size="16px"
         transform="translate(479.7 1733)"
         fill="#ffffff" />
<text
         id="text16997"
         font-size="16px"
         transform="translate(690.91 1755)"
         fill="#ffffff" />
<text
         id="text17067"
         font-size="12px"
         transform="translate(409.04 1884.5)"
         fill="#eef9fb" />
</g><text
       id="text17137"
       font-size="16px"
       transform="translate(955.14 1799)"
       font-family="PTSans-Bold"
       fill="#ffffff" />
<text
       id="text17237"
       font-size="42px"
       transform="translate(420.73 234.2)"
       font-family="Lato-Bold"
       fill="#ffffff" />
<g
       font-size="16px"
       id="g45"
       font-family="PTSans-Regular"><text
         id="text17289"
         transform="translate(356.47 1328)" />
<text
         id="text17295"
         transform="translate(286.88 1350)" />
<text
         id="text17405"
         transform="translate(598.43 1350)" />
<text
         id="text17495"
         transform="translate(1033 1328)" />
<text
         id="text17501"
         transform="translate(1084 1328)" />
</g></g></svg>