<?xml version="1.0" encoding="UTF-8" standalone="no"?>
<!-- Generator: Adobe Illustrator 16.0.0, SVG Export Plug-In . SVG Version: 6.00 Build 0)  -->

<svg
   xmlns:dc="http://purl.org/dc/elements/1.1/"
   xmlns:cc="http://creativecommons.org/ns#"
   xmlns:rdf="http://www.w3.org/1999/02/22-rdf-syntax-ns#"
   xmlns:svg="http://www.w3.org/2000/svg"
   xmlns="http://www.w3.org/2000/svg"
   xmlns:xlink="http://www.w3.org/1999/xlink"
   xmlns:sodipodi="http://sodipodi.sourceforge.net/DTD/sodipodi-0.dtd"
   xmlns:inkscape="http://www.inkscape.org/namespaces/inkscape"
   id="Ebene_1"
   enable-background="new 0 0 1280 2000"
   xml:space="preserve"
   height="84"
   viewBox="0 0 84 84"
   width="84"
   version="1.1"
   y="0px"
   x="0px"
   inkscape:version="0.91 r13725"
   sodipodi:docname="ico-travel-map.svg"><sodipodi:namedview
     pagecolor="#ffffff"
     bordercolor="#666666"
     borderopacity="1"
     objecttolerance="10"
     gridtolerance="10"
     guidetolerance="10"
     inkscape:pageopacity="0"
     inkscape:pageshadow="2"
     inkscape:window-width="1851"
     inkscape:window-height="1057"
     id="namedview49"
     showgrid="false"
     inkscape:zoom="2.8095238"
     inkscape:cx="42"
     inkscape:cy="42"
     inkscape:window-x="1912"
     inkscape:window-y="-8"
     inkscape:window-maximized="1"
     inkscape:current-layer="g15875" /><defs
     id="defs3"><rect
       id="SVGID_57_"
       y="1747"
       x="249"
       height="11.28"
       width="1" /><rect
       id="SVGID_59_"
       y="1747"
       x="250"
       height="11.28"
       width="0" /><rect
       id="SVGID_71_"
       y="1768"
       x="250"
       height="9"
       width="0" /></defs><metadata
     id="metadata17683"><rdf:RDF><cc:Work
         rdf:about=""><dc:format>image/svg+xml</dc:format><dc:type
           rdf:resource="http://purl.org/dc/dcmitype/StillImage" /><dc:title /></cc:Work></rdf:RDF></metadata><g
     id="g15875"
     transform="translate(0,-1916)"><text
       id="text15895"
       font-size="16px"
       transform="translate(189.83 1733)"
       font-family="PTSans-Regular"
       fill="#ffffff" />
<path
       id="path16141"
       fill="#ffc400"
       d="m42 1999v1c23.158 0 42-18.84 42-42s-18.842-42-42-42c-23.162 0-41.998 18.84-42 42 0 23.16 18.838 42 42 42v-1-1c-11.031 0-21.025-4.479-28.271-11.729-7.246-7.3-11.729-17.3-11.729-28.3s4.482-21 11.729-28.3c7.247-7.2 17.24-11.7 28.271-11.7 11.029 0 21.02 4.48 28.27 11.73s11.73 17.24 11.73 28.27-4.48 21.021-11.73 28.271c-7.25 7.2-17.241 11.7-28.27 11.7v1z"
       style="fill:#000000;fill-opacity:1" /><path
       id="path16263"
       fill="#ffc400"
       d="m64.199 1947.3-1.42-0.71c-0.26 1.19-0.609 2.35-1.02 3.45l0.85 0.42c0.119 0.07 0.279 0.34 0.299 0.47v24.07l-7.51-3.76c-0.219-0.101-0.43-0.181-0.639-0.25v-9.341c-0.99 1.091-1.941 1.921-2.84 2.49v6.851c-0.211 0.069-0.432 0.149-0.641 0.25l-7.859 3.93v-13.521c-0.91-1.01-1.859-2.229-2.838-3.67v17.19l-7.861-3.93c-0.213-0.101-0.428-0.181-0.643-0.25v-24.45l3.801 1.899c-0.43-1.42-0.746-2.899-0.885-4.409l-2.273-1.141c-0.742-0.37-1.529-0.439-2.061-0.439-0.529 0-1.318 0.069-2.061 0.439l-8.803 4.41c-1.303 0.65-2.246 2.18-2.246 3.63v25.51c0 1.54 1.086 2.69 2.523 2.69 0.441 0 0.881-0.1 1.309-0.32l8.803-4.399c0.039-0.021 0.209-0.07 0.475-0.07 0.268 0 0.438 0.05 0.475 0.07l8.805 4.399c0.74 0.37 1.529 0.45 2.061 0.45 0.529 0 1.318-0.08 2.059-0.45l8.801-4.399c0.039-0.021 0.209-0.07 0.48-0.07 0.26 0 0.43 0.05 0.469 0.07l8.811 4.399c0.42 0.221 0.859 0.32 1.301 0.32 1.439 0 2.529-1.15 2.529-2.69v-25.51c-0.001-1.448-0.95-2.978-2.251-3.628zm-34.957 23.69c-0.213 0.069-0.428 0.149-0.643 0.25l-7.506 3.76v-24.061c0.01-0.14 0.178-0.409 0.289-0.47l7.859-3.93v24.451h0.001zm19.848-38.5c-5.48 0-9.926 4.44-9.926 9.92 0 8.5 8.506 18.42 9.926 18.42 1.41 0 9.92-9.92 9.92-18.42 0-5.48-4.442-9.92-9.92-9.92zm0 14.17c-2.352 0-4.262-1.899-4.262-4.25 0-2.35 1.91-4.25 4.262-4.25 2.34 0 4.25 1.9 4.25 4.25 0 2.351-1.91 4.25-4.25 4.25z"
       style="fill:#000000;fill-opacity:1" /><g
       font-size="14px"
       fill="#ffffff"
       id="g14"><text
         id="text16307"
         transform="translate(427.42 29.75)"
         font-family="PTSans-Bold" />
<text
         id="text16313"
         transform="translate(472.85 29.75)"
         font-family="PTSans-Regular" />
<text
         id="text16315"
         transform="translate(484.06 29.75)"
         font-family="PTSans-Regular" />
<text
         id="text16321"
         transform="translate(563.81 29.75)"
         font-family="PTSans-Bold" />
</g><g
       id="g16515"><clipPath
         id="SVGID_58_"><use
           id="use16521"
           xlink:href="#SVGID_57_"
           height="100%"
           width="100%"
           y="0"
           x="0"
           overflow="visible" /></clipPath><g
         id="g16523"
         clip-path="url(#SVGID_58_)"><text
           id="text16525"
           font-size="16px"
           transform="translate(249.66 1755)"
           font-family="PTSans-Regular"
           fill="#d1d1d1">y</text>
</g></g><g
       id="g16527"><clipPath
         id="SVGID_60_"><use
           id="use16533"
           xlink:href="#SVGID_59_"
           height="100%"
           width="100%"
           y="0"
           x="0"
           overflow="visible" /></clipPath><g
         id="g16535"
         clip-path="url(#SVGID_60_)"><text
           id="text16537"
           font-size="16px"
           transform="translate(249.66 1755)"
           font-family="PTSans-Regular"
           fill="#c8c8c8">y</text>
</g></g><g
       id="g16599"><clipPath
         id="SVGID_72_"><use
           id="use16605"
           xlink:href="#SVGID_71_"
           height="100%"
           width="100%"
           y="0"
           x="0"
           overflow="visible" /></clipPath><g
         id="g16607"
         clip-path="url(#SVGID_72_)"><text
           id="text16609"
           font-size="16px"
           transform="translate(245.73 1777)"
           font-family="PTSans-Regular"
           fill="#c8c8c8">n</text>
</g></g><g
       font-family="PTSans-Regular"
       id="g35"><text
         id="text16835"
         font-size="16px"
         transform="translate(479.7 1733)"
         fill="#ffffff" />
<text
         id="text16997"
         font-size="16px"
         transform="translate(690.91 1755)"
         fill="#ffffff" />
<text
         id="text17067"
         font-size="12px"
         transform="translate(409.04 1884.5)"
         fill="#eef9fb" />
</g><text
       id="text17137"
       font-size="16px"
       transform="translate(955.14 1799)"
       font-family="PTSans-Bold"
       fill="#ffffff" />
<text
       id="text17237"
       font-size="42px"
       transform="translate(420.73 234.2)"
       font-family="Lato-Bold"
       fill="#ffffff" />
<g
       font-size="16px"
       font-family="PTSans-Regular"
       id="g42"><text
         id="text17289"
         transform="translate(356.47 1328)" />
<text
         id="text17295"
         transform="translate(286.88 1350)" />
<text
         id="text17405"
         transform="translate(598.43 1350)" />
<text
         id="text17495"
         transform="translate(1033 1328)" />
<text
         id="text17501"
         transform="translate(1084 1328)" />
</g></g></svg>