<?xml version="1.0" encoding="UTF-8" standalone="no"?>
<!-- Created with Inkscape (http://www.inkscape.org/) -->
<svg id="svg9418" xmlns:rdf="http://www.w3.org/1999/02/22-rdf-syntax-ns#" xmlns="http://www.w3.org/2000/svg" height="128" width="82" version="1.1" xmlns:cc="http://creativecommons.org/ns#" xmlns:xlink="http://www.w3.org/1999/xlink" viewBox="0 0 82 128" xmlns:dc="http://purl.org/dc/elements/1.1/">
 <defs>
  <clipPath id="SVGID_184_-7-5">
   <use id="use7576-2-3" xlink:href="#SVGID_183_" height="100%" width="100%" y="0" x="0" overflow="visible"/>
  </clipPath>
  <rect id="SVGID_183_" y=".001" width="1280" x="0" height="6e3"/>
 </defs>
 <metadata id="metadata9423">
  <rdf:RDF>
   <cc:Work rdf:about="">
    <dc:format>image/svg+xml</dc:format>
    <dc:type rdf:resource="http://purl.org/dc/dcmitype/StillImage"/>
    <dc:title/>
   </cc:Work>
  </rdf:RDF>
 </metadata>
 <g id="layer1" transform="translate(0 -924.36)">
  <g id="g7570" transform="matrix(.99344 0 0 .99344 -168.89 1008.4)">
   <clipPath id="clipPath9589">
    <use id="use9591" xlink:href="#SVGID_183_" height="100%" width="100%" y="0" x="0" overflow="visible"/>
   </clipPath>
   <path id="path7578" d="m206.97 25.928c0 1.537-1.224 2.761-2.761 2.761-1.538 0-2.762-1.224-2.762-2.761 0-1.538 1.224-2.762 2.762-2.762 1.537 0 2.761 1.224 2.761 2.762m4.527-0.364v-0.049c0-3.742-3.061-6.876-7.289-6.876-4.227 0-7.289 3.134-7.289 6.876v0.049c0 4.063 3.545 11.774 5.289 14.505 0.491 0.77 0.944 1.353 1.967 1.353h0.066c1.024 0 1.476-0.583 1.967-1.353 1.745-2.731 5.289-10.442 5.289-14.505" clip-path="url(#SVGID_184_-7-5)" transform="matrix(5.6553 0 0 5.6553 -943.61 -190)" fill="#ed6a0d"/>
  </g>
 </g>
</svg>
