<?xml version="1.0" encoding="UTF-8" standalone="no"?>
<!-- Generator: Adobe Illustrator 16.0.0, SVG Export Plug-In . SVG Version: 6.00 Build 0)  -->
<svg id="Ebene_1" xmlns:rdf="http://www.w3.org/1999/02/22-rdf-syntax-ns#" xmlns="http://www.w3.org/2000/svg" enable-background="new 0 0 1280 6000" xml:space="preserve" height="24" viewBox="0 0 28.445 24" width="28.445" version="1.1" y="0px" x="0px" xmlns:cc="http://creativecommons.org/ns#" xmlns:xlink="http://www.w3.org/1999/xlink" xmlns:dc="http://purl.org/dc/elements/1.1/"><defs><rect id="SVGID_63_" y=".001" width="1280" x="0" height="6e3"/><rect id="SVGID_181_" y=".001" width="1280" x="0" height="6e3"/></defs><metadata id="metadata5687"><rdf:RDF><cc:Work rdf:about=""><dc:format>image/svg+xml</dc:format><dc:type rdf:resource="http://purl.org/dc/dcmitype/StillImage"/><dc:title/></cc:Work></rdf:RDF></metadata><text id="text4001" y="-5946.25" x="410"><g font-size="14px" font-family="PTSans-Bold" fill="#ffffff"><tspan id="tspan4003" y="-5946.25" x="410">Fl</tspan><tspan id="tspan4005" y="-5946.25" x="421.228">y </tspan><tspan id="tspan4007" y="-5946.25" x="430.48099">Tic</tspan><tspan id="tspan4009" y="-5946.25" x="448.26199">k</tspan><tspan id="tspan4011" y="-5946.25" x="454.98099">ets</tspan></g></text>
<text id="text4013" font-size="14px" y="-5946.25" x="472.8457" font-family="PTSans-Regular" fill="#ffffff"/>
<text id="text4015" y="-12.556919" x="257.65466"><g font-size="14px" font-family="PTSans-Bold" fill="#ffffff"><tspan id="tspan4017" style="letter-spacing:-1" letter-spacing="-1" y="-12.556919" x="257.65466">T</tspan><tspan id="tspan4019" y="-12.556919" x="264.13666">ra</tspan><tspan id="tspan4021" y="-12.556919" x="275.99466">v</tspan><tspan id="tspan4023" y="-12.556919" x="282.57367">el budd</tspan><tspan id="tspan4025" y="-12.556919" x="327.47168">y</tspan><tspan id="tspan4027" y="-12.556919" x="333.67365"/><tspan id="tspan4029" y="-12.556919" x="344.29865"/><tspan id="tspan4031" style="letter-spacing:-1" letter-spacing="-1" y="-12.556919" x="347.35065">T</tspan><tspan id="tspan4033" y="-12.556919" x="353.83264">ra</tspan><tspan id="tspan4035" y="-12.556919" x="365.69067">v</tspan><tspan id="tspan4037" y="-12.556919" x="372.28467">el organi</tspan><tspan id="tspan4039" y="-12.556919" x="425.32965">z</tspan><tspan id="tspan4041" y="-12.556919" x="431.62964">er   </tspan><tspan id="tspan4043" y="-12.556919" x="454.28064"/><tspan id="tspan4045" style="letter-spacing:-1" letter-spacing="-1" y="-12.556919" x="457.31866">T</tspan><tspan id="tspan4047" y="-12.556919" x="463.81464">ra</tspan><tspan id="tspan4049" y="-12.556919" x="475.67267">v</tspan><tspan id="tspan4051" y="-12.556919" x="482.26563">el map   </tspan><tspan id="tspan4053" y="-12.556919" x="533.43463"/><tspan id="tspan4055" style="letter-spacing:-1" letter-spacing="-1" y="-12.556919" x="536.47266">T</tspan><tspan id="tspan4057" y="-12.556919" x="542.95563">ra</tspan><tspan id="tspan4059" y="-12.556919" x="554.81262">v</tspan><tspan id="tspan4061" y="-12.556919" x="561.40668">el</tspan><tspan id="tspan4063" y="-12.556919" x="572.63367"/><tspan id="tspan4065" y="-12.556919" x="576.00867">wiki</tspan></g></text>
<g id="g4067" fill="#58c2da" transform="translate(0,-5976)"><clipPath id="SVGID_64_"><use id="use4073" xlink:href="#SVGID_63_" height="100%" width="100%" y="0" x="0" overflow="visible"/></clipPath><path id="path4081" d="m919.84 28.298c-0.521 0.521-0.521 1.365 0 1.886 0.26 0.26 0.602 0.39 0.942 0.39s0.683-0.13 0.943-0.39l3.999-4 0.089-0.098 0.034-0.046 0.044-0.059 0.034-0.057 0.032-0.055 0.029-0.059 0.027-0.059 0.021-0.059 0.023-0.064 0.015-0.06 0.017-0.067 0.011-0.069 0.009-0.06 0.006-0.129v-0.002-0.001l-0.006-0.129-0.009-0.059-0.011-0.07-0.017-0.067-0.015-0.06-0.022-0.063-0.021-0.06-0.027-0.058-0.029-0.061-0.031-0.053-0.035-0.058-0.042-0.057-0.036-0.048-0.084-0.093-0.004-0.005-4-4c-0.521-0.521-1.365-0.52-1.886 0-0.521 0.521-0.521 1.365 0 1.886l1.724 1.724h-15.449c-0.735 0-1.333 0.597-1.333 1.333s0.598 1.334 1.333 1.334h15.448l-1.723 1.722z" clip-path="url(#SVGID_64_)" transform="translate(-904.78 5962.8)"/><path id="path4083" d="m931.89 13.241h-16.889c-0.736 0-1.333 0.597-1.333 1.333v5.334c0 0.736 0.597 1.333 1.333 1.333 0.737 0 1.333-0.597 1.333-1.333v-4h14.223v18.666h-14.223v-4c0-0.736-0.596-1.333-1.333-1.333-0.736 0-1.333 0.597-1.333 1.333v5.334c0 0.736 0.597 1.333 1.333 1.333h16.889c0.737 0 1.333-0.597 1.333-1.333v-21.334c0-0.736-0.596-1.333-1.333-1.333" clip-path="url(#SVGID_64_)" transform="translate(-904.78 5962.8)"/></g><text id="text4921" y="-5691.3906" x="170"><g font-size="42px" font-family="Lato-Bold" fill="#ffffff"><tspan id="tspan4923" y="-5691.3906" x="170">t</tspan><tspan id="tspan4925" y="-5691.3906" x="186.254">r</tspan><tspan id="tspan4927" y="-5691.3906" x="202.82199">a</tspan><tspan id="tspan4929" y="-5691.3906" x="224.05301">v</tspan><tspan id="tspan4931" y="-5691.3906" x="245.78799">el the world</tspan></g></text>
<g id="g4933" transform="translate(0,-5976)"><clipPath id="SVGID_182_"><use id="use4939" xlink:href="#SVGID_181_" height="100%" width="100%" y="0" x="0" overflow="visible"/></clipPath><path id="path4941" fill="#fff" d="m173 318s-3 0-3 3v34s0 3 3 3h112s3 0 3-3v-34s0-3-3-3h-112z" clip-path="url(#SVGID_182_)"/></g></svg>
