<?xml version="1.0" encoding="UTF-8" standalone="no"?>
<!-- Generator: Adobe Illustrator 16.0.0, SVG Export Plug-In . SVG Version: 6.00 Build 0)  -->
<svg id="Ebene_1" xmlns:rdf="http://www.w3.org/1999/02/22-rdf-syntax-ns#" xmlns="http://www.w3.org/2000/svg" enable-background="new 0 0 1280 3000" xml:space="preserve" height="18" viewBox="0 0 18 18" width="18" version="1.1" y="0px" x="0px" xmlns:cc="http://creativecommons.org/ns#" xmlns:dc="http://purl.org/dc/elements/1.1/"><metadata id="metadata545"><rdf:RDF><cc:Work rdf:about=""><dc:format>image/svg+xml</dc:format><dc:type rdf:resource="http://purl.org/dc/dcmitype/StillImage"/><dc:title/></cc:Work></rdf:RDF></metadata><g id="g3" transform="translate(0,-2982)"><g font-size="14px" font-family="PTSans-Bold" fill="#4d4d4d"><text id="text175" transform="translate(197.92 2633.2)"/>
<text id="text181" transform="translate(253.97 2633.2)"/>
<text id="text187" transform="translate(392.5 2633.2)"/>
<text id="text189" transform="translate(403.13 2633.2)"/>
<text id="text193" transform="translate(413 2633.2)"/>
<text id="text199" transform="translate(533.58 2633.2)"/>
<text id="text203" transform="translate(543.45 2633.2)"/>
<text id="text209" transform="translate(633.2 2633.2)"/>
<text id="text213" transform="translate(643.08 2633.2)"/>
</g><text id="text223" font-size="14px" transform="translate(235.41 2821.4)" font-family="PTSans-Regular" fill="#009ec4"/>
<text id="text333" font-size="18px" transform="translate(457.86 635.75)" font-family="PTSans-Regular" fill="#009ec4"/>
<line id="line353" stroke-width="1.5" y2="2997.6" x2="15.908" stroke="#cacaca" y1="2991.7" x1="10.013" fill="none"/><line id="line355" stroke-linejoin="round" y2="2998.5" fill="none" x2="16.75" stroke="#cacaca" stroke-linecap="round" y1="2995" x1="13.214" stroke-width="3"/><path id="path357" fill="#fff" d="m6.46 2993.9c3.154 0 5.71-2.557 5.71-5.709 0-3.154-2.556-5.711-5.71-5.711-3.153 0-5.71 2.557-5.71 5.711 0 3.152 2.557 5.709 5.71 5.709z"/><path id="path359" d="m6.46 2993.9c3.154 0 5.71-2.557 5.71-5.709 0-3.154-2.556-5.711-5.71-5.711-3.153 0-5.71 2.557-5.71 5.711 0 3.152 2.557 5.709 5.71 5.709z" stroke="#cacaca" stroke-width="1.5" fill="none"/><text id="text393" font-size="18px" transform="translate(910.56 572)" font-family="PTSans-Regular" fill="#57c2db"/>
<text id="text395" font-size="18px" transform="translate(915.37 572)" font-family="PTSans-Regular" fill="#57c2db"/><g font-size="14px" fill="#ffffff">
<text id="text445" transform="translate(427.3 30.25)" font-family="PTSans-Bold"/>
<text id="text451" transform="translate(472.73 30.25)" font-family="PTSans-Regular"/>
<text id="text453" transform="translate(483.94 30.25)" font-family="PTSans-Regular"/>
<text id="text459" transform="translate(563.68 30.25)" font-family="PTSans-Bold"/>
</g></g></svg>
