<?xml version="1.0" encoding="UTF-8" standalone="no"?>
<!-- Generator: Adobe Illustrator 16.0.0, SVG Export Plug-In . SVG Version: 6.00 Build 0)  -->
<svg id="Ebene_1" xmlns:rdf="http://www.w3.org/1999/02/22-rdf-syntax-ns#" xmlns="http://www.w3.org/2000/svg" enable-background="new 0 0 1280 3000" xml:space="preserve" height="86" viewBox="0 0 65 86" width="65" version="1.1" y="0px" x="0px" xmlns:cc="http://creativecommons.org/ns#" xmlns:dc="http://purl.org/dc/elements/1.1/"><metadata id="metadata545"><rdf:RDF><cc:Work rdf:about=""><dc:format>image/svg+xml</dc:format><dc:type rdf:resource="http://purl.org/dc/dcmitype/StillImage"/><dc:title/></cc:Work></rdf:RDF></metadata><g id="g3" transform="translate(0,-2914)"><g font-size="14px" font-family="PTSans-Bold" fill="#4d4d4d"><text id="text175" transform="translate(197.92 2633.2)"/>
<text id="text181" transform="translate(253.97 2633.2)"/>
<text id="text187" transform="translate(392.5 2633.2)"/>
<text id="text189" transform="translate(403.13 2633.2)"/>
<text id="text193" transform="translate(413 2633.2)"/>
<text id="text199" transform="translate(533.58 2633.2)"/>
<text id="text203" transform="translate(543.45 2633.2)"/>
<text id="text209" transform="translate(633.2 2633.2)"/>
<text id="text213" transform="translate(643.08 2633.2)"/>
</g><text id="text223" font-size="14px" transform="translate(235.41 2821.4)" font-family="PTSans-Regular" fill="#009ec4"/>
<text id="text333" font-size="18px" transform="translate(457.86 635.75)" font-family="PTSans-Regular" fill="#009ec4"/><g fill="#57c2db">
<text id="text393" font-size="18px" transform="translate(910.56 572)" font-family="PTSans-Regular"/>
<text id="text395" font-size="18px" transform="translate(915.37 572)" font-family="PTSans-Regular"/>
<path id="path413" d="m15.882 2940.1v-9.49c0-9.153 7.444-16.598 16.596-16.598s16.597 7.445 16.597 16.598v9.49c0 9.152-7.445 16.597-16.597 16.597s-16.596-7.445-16.596-16.597zm49.074 38.813v18.737c0 1.305-1.057 2.362-2.361 2.362h-60.235c-1.303 0-2.36-1.1-2.36-2.4v-18.737c0-9.151 7.444-16.597 16.598-16.597h31.762c9.152 0 16.596 7.446 16.596 16.597z"/></g><g font-size="14px" fill="#ffffff"><text id="text445" transform="translate(427.3 30.25)" font-family="PTSans-Bold"/>
<text id="text451" transform="translate(472.73 30.25)" font-family="PTSans-Regular"/>
<text id="text453" transform="translate(483.94 30.25)" font-family="PTSans-Regular"/>
<text id="text459" transform="translate(563.68 30.25)" font-family="PTSans-Bold"/>
</g></g></svg>
