<?xml version="1.0" encoding="UTF-8" standalone="no"?>
<!-- Generator: Adobe Illustrator 19.0.0, SVG Export Plug-In . SVG Version: 6.00 Build 0)  -->
<svg id="Layer_1" xmlns:rdf="http://www.w3.org/1999/02/22-rdf-syntax-ns#" xmlns="http://www.w3.org/2000/svg" xml:space="preserve" viewBox="0 0 499.99999 499.99999" height="500" width="500" version="1.1" y="0px" x="0px" xmlns:cc="http://creativecommons.org/ns#" xmlns:dc="http://purl.org/dc/elements/1.1/"><metadata id="metadata67"><rdf:RDF><cc:Work rdf:about=""><dc:format>image/svg+xml</dc:format><dc:type rdf:resource="http://purl.org/dc/dcmitype/StillImage"/><dc:title/></cc:Work></rdf:RDF></metadata><path id="path19" d="m371.29 195.29c0-65.225-53.063-118.29-118.29-118.29-65.224 0-118.29 53.064-118.29 118.29 0 19.113 4.5625 37.179 12.646 53.175l105.64 217.86 105.66-217.89c8.0736-15.988 12.631-34.042 12.631-53.14zm-118.29 65.46c-36.095 0-65.46-29.364-65.46-65.458 0-36.096 29.366-65.461 65.46-65.461s65.46 29.366 65.46 65.461c-0.00092 36.095-29.366 65.458-65.46 65.458z" fill-opacity=".27843" fill="#2f2f2f"/><g id="g3" fill="#a0a0a0" transform="matrix(1.25 0 0 1.25 -0.0025 0)"><path id="path5-4" d="m199.99 0c-110.28 0-199.99 89.72-199.99 200 0 54.818 22.178 104.54 58.02 140.7 0.199 0.229 0.359 0.484 0.576 0.701 0.219 0.222 0.475 0.375 0.705 0.576 36.158 35.84 85.879 58.02 140.69 58.02 110.29 0 200.01-89.72 200.01-200s-89.72-200-200.01-200zm0 26.231c43.201 0 82.74 15.882 113.17 42.064l-244.87 244.86c-26.175-30.43-42.058-69.96-42.058-113.16 0-95.816 77.95-173.77 173.76-173.77zm0 347.54c-43.193 0-82.725-15.879-113.15-42.059l244.87-244.87c26.18 30.432 42.061 69.963 42.061 113.16 0 95.816-77.956 173.77-173.78 173.77z" fill="#a0a0a0"/></g></svg>
