<?xml version="1.0" encoding="UTF-8" standalone="no"?>
<!-- Generator: Adobe Illustrator 19.0.0, SVG Export Plug-In . SVG Version: 6.00 Build 0)  -->
<svg id="Layer_1" xmlns:rdf="http://www.w3.org/1999/02/22-rdf-syntax-ns#" xmlns="http://www.w3.org/2000/svg" xml:space="preserve" viewBox="0 0 499.99999 499.99999" height="500" width="500" version="1.1" y="0px" x="0px" xmlns:cc="http://creativecommons.org/ns#" xmlns:dc="http://purl.org/dc/elements/1.1/"><metadata id="metadata67"><rdf:RDF><cc:Work rdf:about=""><dc:format>image/svg+xml</dc:format><dc:type rdf:resource="http://purl.org/dc/dcmitype/StillImage"/><dc:title/></cc:Work></rdf:RDF></metadata><g id="g4271" opacity=".278" transform="matrix(.77119 0 0 .77119 60.02 53.661)"><path id="path3" fill="#606060" d="m249.6 100.8c24.8 0 44.8-25.6 44.8-57.6s-20-43.2-44.8-43.2-44.8 12-44.8 43.2 20 57.6 44.8 57.6z"/><path id="path5" fill="#303030" d="m249.6 100.8c24.8 0 44.8-25.6 44.8-57.6s-20-43.2-44.8-43.2"/><path id="path7" fill="#606060" d="m271.2 112h-41.6c-31.2 0-56 24.8-56.8 56l-0.8 81.6c0 19.2 9.6 36 24 46.4 0 1.6-0.8 3.2-0.8 4.8l-0.8 176c0 12.8 10.4 24 23.2 24s23.2-10.4 24-23.2l0.8-119.2h12.8l-0.8 119.2c0 12.8 10.4 23.2 23.2 24 12.8 0 24-10.4 24-23.2l0.8-176c0-1.6 0-3.2-0.8-4.8 14.4-10.4 24-26.4 24-45.6l0.8-81.6c1.6-32.8-24-58.4-55.2-58.4z"/><g id="g9" fill="#303030"><path id="path11" fill="#303030" d="m242.4 476 0.8-119.2h12.8l-0.8 119.2c0 12.8 10.4 24 23.2 24s24-10.4 24-23.2l0.8-176c0-1.6 0-3.2-0.8-4.8 14.4-10.4 24-26.4 24-45.6l0.8-81.6c0-31.2-24.8-56.8-56-56.8h-41.6"/></g><path id="path13" fill="#606060" d="m412.8 120c21.6 0 39.2-22.4 39.2-50.4s-17.6-37.6-39.2-37.6-39.2 10.4-39.2 37.6c0 28 17.6 50.4 39.2 50.4z"/><path id="path15" fill="#303030" d="m412.8 120c21.6 0 39.2-22.4 39.2-50.4s-17.6-37.6-39.2-37.6"/><path id="path17" fill="#606060" d="m431.2 129.6h-36c-27.2 0-48.8 21.6-48.8 48.8v70.4c0 16.8 8 31.2 20.8 40 0 1.6-0.8 2.4-0.8 4l-0.8 152.8c0 11.2 8.8 20.8 20 20.8s20.8-8.8 20.8-20l0.8-104h11.2l-0.8 104c0 11.2 8.8 20.8 20 20.8s20.8-8.8 20.8-20l0.8-152.8v-4c12.8-8.8 20.8-23.2 20.8-40l0.8-71.2c-0.8-27.2-22.4-49.6-49.6-49.6z"/><g id="g19" fill="#303030"><path id="path21" fill="#303030" d="m406.4 446.4 0.8-104h11.2l-0.8 104c0 11.2 8.8 20.8 20 20.8s20.8-8.8 20.8-20l0.8-152.8v-4c12.8-8.8 20.8-23.2 20.8-40l0.8-71.2c0-27.2-21.6-48.8-48.8-48.8h-36"/></g><path id="path23" fill="#606060" d="m87.2 120c21.6 0 39.2-22.4 39.2-50.4s-17.6-37.6-39.2-37.6-39.2 10.4-39.2 37.6c0 28 17.6 50.4 39.2 50.4z"/><path id="path25" fill="#303030" d="m87.2 120c21.6 0 39.2-22.4 39.2-50.4s-17.6-37.6-39.2-37.6"/><path id="path27" fill="#606060" d="m106.4 129.6h-36c-27.2 0-48.8 21.6-48.8 48.8l-0.8 71.2c0 16.8 8 31.2 20.8 40 0 1.6-0.8 2.4-0.8 4l-0.8 152.8c0 11.2 8.8 20.8 20 20.8s20.8-8.8 20.8-20l0.8-104h11.2l-0.8 104c0 11.2 8.8 20.8 20 20.8s20.8-8.8 20.8-20l0.8-152.8v-4c12.8-8.8 20.8-23.2 20.8-40l0.8-71.2c0-28-22.4-50.4-48.8-50.4z"/><g id="g29" fill="#303030"><path id="path31" fill="#303030" d="m80.8 446.4 0.8-104h11.2l-0.8 104c0 11.2 8.8 20.8 20 20.8s20.8-8.8 20.8-20l0.8-152.8v-4c12.8-8.8 20.8-24 20.8-40v-70.4c0-27.2-21.6-48.8-48.8-48.8h-36"/></g></g><g id="g3" fill="#a0a0a0" transform="matrix(1.25 0 0 1.25 -0.0025 0)"><path id="path5-4" d="m199.99 0c-110.28 0-199.99 89.72-199.99 200 0 54.818 22.178 104.54 58.02 140.7 0.199 0.229 0.359 0.484 0.576 0.701 0.219 0.222 0.475 0.375 0.705 0.576 36.158 35.84 85.879 58.02 140.69 58.02 110.29 0 200.01-89.72 200.01-200s-89.72-200-200.01-200zm0 26.231c43.201 0 82.74 15.882 113.17 42.064l-244.87 244.86c-26.175-30.43-42.058-69.96-42.058-113.16 0-95.816 77.95-173.77 173.76-173.77zm0 347.54c-43.193 0-82.725-15.879-113.15-42.059l244.87-244.87c26.18 30.432 42.061 69.963 42.061 113.16 0 95.816-77.956 173.77-173.78 173.77z" fill="#a0a0a0"/></g></svg>
