<?xml version="1.0" encoding="UTF-8" standalone="no"?>
<!-- Generator: Adobe Illustrator 16.0.0, SVG Export Plug-In . SVG Version: 6.00 Build 0)  -->
<svg id="Ebene_1" xmlns:rdf="http://www.w3.org/1999/02/22-rdf-syntax-ns#" xmlns="http://www.w3.org/2000/svg" enable-background="new 0 0 1280 3000" xml:space="preserve" height="82" viewBox="0 0 94 82" width="94" version="1.1" y="0px" x="0px" xmlns:cc="http://creativecommons.org/ns#" xmlns:dc="http://purl.org/dc/elements/1.1/"><metadata id="metadata545"><rdf:RDF><cc:Work rdf:about=""><dc:format>image/svg+xml</dc:format><dc:type rdf:resource="http://purl.org/dc/dcmitype/StillImage"/><dc:title/></cc:Work></rdf:RDF></metadata><g id="g3" transform="translate(0,-2918)"><g font-size="14px" font-family="PTSans-Bold" fill="#4d4d4d"><text id="text175" transform="translate(197.92 2633.2)"/>
<text id="text181" transform="translate(253.97 2633.2)"/>
<text id="text187" transform="translate(392.5 2633.2)"/>
<text id="text189" transform="translate(403.13 2633.2)"/>
<text id="text193" transform="translate(413 2633.2)"/>
<text id="text199" transform="translate(533.58 2633.2)"/>
<text id="text203" transform="translate(543.45 2633.2)"/>
<text id="text209" transform="translate(633.2 2633.2)"/>
<text id="text213" transform="translate(643.08 2633.2)"/>
</g><g font-family="PTSans-Regular"><text id="text223" font-size="14px" transform="translate(235.41 2821.4)" fill="#009ec4"/><g font-size="18px">
<text id="text333" transform="translate(457.86 635.75)" fill="#009ec4"/>
<text id="text393" transform="translate(910.56 572)" fill="#57c2db"/>
<text id="text395" transform="translate(915.37 572)" fill="#57c2db"/></g></g><g font-size="14px" fill="#ffffff">
<text id="text445" transform="translate(427.3 30.25)" font-family="PTSans-Bold"/>
<text id="text451" transform="translate(472.73 30.25)" font-family="PTSans-Regular"/>
<text id="text453" transform="translate(483.94 30.25)" font-family="PTSans-Regular"/>
<text id="text459" transform="translate(563.68 30.25)" font-family="PTSans-Bold"/>
</g><path id="path539" fill="#57c2db" d="m34.275 3e3c-3.978 0-7.821-0.648-11.75-1.979-13.52-4.572-22.36-16.469-22.523-30.309-0.194-17.245 12.077-29.942 24.436-34.974 0.779-0.82 1.713-1.776 2.83-2.861 8.417-8.154 17.827-12.288 27.971-12.288 9.034 0 17.513 3.2809 25.199 9.7499 12.476 10.507 19.808 31.442 6.426 52.579-6.873 10.855-19.309 17.337-33.263 17.337-1.694 0-3.423-0.098-5.143-0.292-4.574 2.043-9.219 3.037-14.183 3.037zm20.963-79.17c-9.272 0-17.925 3.827-25.715 11.374-1.196 1.161-2.176 2.172-2.975 3.018l-0.247 0.262-0.335 0.132c-11.439 4.529-22.903 16.198-22.724 32.059 0.146 12.444 8.123 23.151 20.32 27.276 3.591 1.216 7.094 1.808 10.712 1.808 4.637 0 8.97-0.959 13.245-2.93l0.418-0.193 0.458 0.056c1.74 0.213 3.49 0.322 5.204 0.322 12.837 0 24.248-5.918 30.524-15.83 12.342-19.495 5.658-38.736-5.775-48.366-7.084-5.964-14.86-8.988-23.11-8.988zm-20.963 67.934c-2.731 0-5.396-0.453-8.145-1.385-9.079-3.069-14.788-10.656-14.894-19.799-0.135-11.839 9.105-21.422 18.303-24.771 0.552-0.201 1-0.367 1.34-0.498l0.201-0.222c0.872-0.949 2.173-2.365 4.01-4.148 2.328-2.256 9.409-9.118 20.147-9.118 6.315 0 12.359 2.392 17.964 7.11 8.862 7.464 13.945 22.531 4.169 37.976-4.802 7.583-13.688 12.109-23.771 12.109-2.315 0-4.665-0.237-6.995-0.711-2.112 1.246-6.484 3.457-12.329 3.457zm20.963-55.078c-8.77 0-14.786 5.83-16.763 7.746-1.735 1.684-2.979 3.039-3.802 3.934l-0.962 1.041-0.473 0.197c-0.387 0.163-1.067 0.422-2.037 0.774-7.587 2.763-15.212 10.569-15.104 20.146 0.082 7.017 4.524 12.861 11.592 15.251 2.24 0.759 4.395 1.128 6.586 1.128 4.847 0 8.378-1.849 10.611-3.24l0.854-0.53 0.979 0.226c2.293 0.53 4.608 0.799 6.882 0.799 8.406 0 15.757-3.683 19.663-9.851 8.219-12.981 4.105-25.508-3.192-31.655-4.705-3.958-9.695-5.966-14.834-5.966zm-20.963 46.855c-1.819 0-3.619-0.312-5.506-0.95-5.677-1.92-9.246-6.559-9.311-12.108-0.089-7.926 6.576-14.646 12.894-16.945 3.212-1.167 3.212-1.167 4.793-2.895 0.863-0.938 2.009-2.186 3.671-3.799 3.013-2.919 7.782-6.797 14.422-6.797 4.387 0 8.529 1.694 12.669 5.178 8.868 7.468 7.521 19.378 2.516 27.283-3.286 5.189-9.575 8.287-16.822 8.287-2.774 0-5.599-0.449-8.4-1.336-0.312 0.191-0.695 0.444-0.901 0.58-2.114 1.396-5.304 3.502-10.025 3.502zm20.963-37.011c-4.286 0-7.708 2.836-9.91 4.969-1.526 1.481-2.599 2.648-3.38 3.5-2.343 2.557-2.968 3.027-7.379 4.631-4.19 1.525-8.683 6.079-8.628 10.778 0.032 2.797 1.821 4.999 4.907 6.043 1.206 0.409 2.327 0.607 3.427 0.607 2.774 0 4.728-1.29 6.45-2.427 1.886-1.245 3.637-2.273 6.057-1.473 2.299 0.767 4.59 1.155 6.818 1.155 5.014 0 9.255-1.971 11.346-5.272 3.547-5.603 4.68-13.894-1.214-18.857-2.921-2.459-5.699-3.654-8.494-3.654zm-16.047 25.781c1.596-1.054 3.403-2.248 5.81-2.248 0.87 0 1.743 0.151 2.668 0.459 2.009 0.669 4.004 1.01 5.931 1.01h0.001c3.994 0 7.441-1.524 8.995-3.98 2.099-3.313 4.662-10.763-0.654-15.24-2.398-2.019-4.592-3.002-6.703-3.002-2.493 0-5.027 1.331-7.973 4.185-1.487 1.443-2.485 2.532-3.289 3.406-2.418 2.639-3.342 3.482-8.456 5.342-3.654 1.33-6.833 5.13-6.799 8.131 0.02 1.613 1.034 2.771 3.021 3.443 0.914 0.309 1.741 0.461 2.532 0.461 1.94 0 3.385-0.955 4.916-1.967z"/></g></svg>
