<!--?xml version="1.0" standalone="no"?-->

<svg version="1.0" xmlns="http://www.w3.org/2000/svg" width="300.000000pt" height="300.000000pt" viewBox="0 0 300.000000 300.000000" preserveAspectRatio="xMidYMid meet">
<g transform="translate(0.000000,300.000000) scale(0.100000,-0.100000)" fill="#343434" stroke="none">
<path class="node" id="node1" d="M2530 2760 c-68 -8 -170 -42 -270 -88 -41 -19 -93 -42 -115 -52 -22
-10 -66 -30 -97 -44 -31 -14 -59 -26 -61 -26 -3 0 -45 -18 -94 -41 -48 -22
-108 -50 -133 -60 -51 -23 -81 -36 -161 -73 -512 -233 -1033 -459 -1064 -463
-44 -5 -27 -15 -274 165 -114 83 -154 96 -215 67 -63 -30 -61 -41 49 -280 17
-38 54 -121 81 -184 61 -142 97 -184 172 -200 172 -36 474 32 844 190 75 33
139 59 141 59 3 0 44 18 92 41 48 22 89 38 92 35 3 -3 -4 -55 -16 -115 -12
-61 -30 -162 -42 -223 -11 -62 -26 -144 -34 -183 -43 -220 -65 -346 -68 -390
-2 -45 0 -50 20 -53 22 -3 110 37 151 69 43 34 93 109 146 222 70 146 184 391
206 442 10 22 35 78 57 125 22 47 71 152 109 233 l69 148 270 134 c148 74 293
147 320 162 141 80 196 116 244 161 59 56 59 62 1 121 -84 83 -249 123 -420
101z"></path>
<path class="node" id="node2" d="M740 2643 c-43 -8 -138 -54 -144 -70 -8 -20 27 -49 158 -128 64 -38
127 -77 140 -85 13 -8 55 -33 93 -56 l70 -41 209 93 c192 85 242 114 200 114
-9 0 -42 8 -74 19 -31 10 -118 37 -192 60 -74 23 -169 53 -210 65 -75 24 -203
39 -250 29z"></path>

</g>
<g transform="translate(0.000000,300.000000) scale(0.100000,-0.100000)" fill="#FFFFFF" stroke="none">



<path class="node" id="node7" d="M2980 54 c-8 -14 -26 -32 -40 -39 -25 -14 -24 -14 18 -15 l42 0 0 40
c0 22 -1 40 -3 40 -2 0 -10 -12 -17 -26z"></path>
</g>
</svg>