<?xml version="1.0" encoding="UTF-8" standalone="no"?>
<!-- Generator: Adobe Illustrator 16.0.0, SVG Export Plug-In . SVG Version: 6.00 Build 0)  -->
<svg id="Ebene_1" xmlns:rdf="http://www.w3.org/1999/02/22-rdf-syntax-ns#" xmlns="http://www.w3.org/2000/svg" enable-background="new 0 0 1280 3000" xml:space="preserve" height="30" viewBox="0 0 30 30" width="30" version="1.1" y="0px" x="0px" xmlns:cc="http://creativecommons.org/ns#" xmlns:xlink="http://www.w3.org/1999/xlink" xmlns:dc="http://purl.org/dc/elements/1.1/"><defs><path id="SVGID_9_" d="m1058.9 607s-3 0-3 3v38s0 3 3 3h38s3 0 3-3v-38s0-3-3-3h-38z"/></defs><metadata id="metadata545"><rdf:RDF><cc:Work rdf:about=""><dc:format>image/svg+xml</dc:format><dc:type rdf:resource="http://purl.org/dc/dcmitype/StillImage"/><dc:title/></cc:Work></rdf:RDF></metadata><g id="g3" transform="translate(0,-2970)"><g font-size="14px" font-family="PTSans-Bold" fill="#4d4d4d"><text id="text175" transform="translate(197.92 2633.2)"/>
<text id="text181" transform="translate(253.97 2633.2)"/>
<text id="text187" transform="translate(392.5 2633.2)"/>
<text id="text189" transform="translate(403.13 2633.2)"/>
<text id="text193" transform="translate(413 2633.2)"/>
<text id="text199" transform="translate(533.58 2633.2)"/>
<text id="text203" transform="translate(543.45 2633.2)"/>
<text id="text209" transform="translate(633.2 2633.2)"/>
<text id="text213" transform="translate(643.08 2633.2)"/>
</g><g font-family="PTSans-Regular"><text id="text223" font-size="14px" transform="translate(235.41 2821.4)" fill="#009ec4"/><g font-size="18px">
<text id="text333" transform="translate(457.86 635.75)" fill="#009ec4"/>
<text id="text393" transform="translate(910.56 572)" fill="#57c2db"/>
<text id="text395" transform="translate(915.37 572)" fill="#57c2db"/></g></g><g font-size="14px" fill="#ffffff">
<text id="text445" transform="translate(427.3 30.25)" font-family="PTSans-Bold"/>
<text id="text451" transform="translate(472.73 30.25)" font-family="PTSans-Regular"/>
<text id="text453" transform="translate(483.94 30.25)" font-family="PTSans-Regular"/>
<text id="text459" transform="translate(563.68 30.25)" font-family="PTSans-Bold"/>
</g><g id="g529" transform="translate(-1063 2356)"><clipPath id="SVGID_10_"><use id="use535" xlink:href="#SVGID_9_" height="100%" width="100%" y="0" x="0" overflow="visible"/></clipPath><path id="path537" fill="#57c2db" d="m1087.3 633.07c-1.74 0-3.261 0.826-4.261 2.093l-9.29-4.747c0.12-0.453 0.211-0.92 0.211-1.413 0-0.539-0.101-1.046-0.25-1.533l9.239-4.727c1 1.327 2.57 2.188 4.351 2.188 3.029 0 5.47-2.441 5.47-5.461 0-3.019-2.44-5.467-5.47-5.467-3.011 0-5.461 2.448-5.461 5.467 0 0.493 0.091 0.96 0.211 1.413l-9.28 4.748c-1-1.266-2.53-2.095-4.271-2.095-3.02 0-5.47 2.448-5.47 5.467 0 3.02 2.45 5.467 5.47 5.467 1.78 0 3.351-0.874 4.351-2.2l9.239 4.726c-0.149 0.494-0.25 1-0.25 1.541 0 3.02 2.45 5.467 5.461 5.467 3.02 0 5.47-2.447 5.47-5.467 0-3.021-2.45-5.467-5.47-5.467z" clip-path="url(#SVGID_10_)"/></g></g></svg>
